<?xml version="1.0" encoding="utf-8"?>
<!-- Svg Vector Icons : http://www.onlinewebfonts.com/icon -->
<!DOCTYPE svg PUBLIC "-//W3C//DTD SVG 1.1//EN" "http://www.w3.org/Graphics/SVG/1.1/DTD/svg11.dtd">
<svg version="1.1" xmlns="http://www.w3.org/2000/svg" xmlns:xlink="http://www.w3.org/1999/xlink" x="0px" y="0px" viewBox="0 0 1000 1000" enable-background="new 0 0 1000 1000" xml:space="preserve">
<metadata> Svg Vector Icons : http://www.onlinewebfonts.com/icon </metadata>
<g><path d="M500,734c-115.8,0-210-94.2-210-210c0-115.8,94.2-210,210-210c115.8,0,210,94.2,210,210C710,639.8,615.8,734,500,734z M500,373c-83.3,0-151,67.7-151,151c0,83.3,67.7,151,151,151c83.3,0,151-67.7,151-151C651,440.7,583.3,373,500,373z"/><path d="M910.2,224.1H777.6L663.9,100.5H501h-2H336.2L222.4,224.1H89.8c-44,0-79.8,35.8-79.8,79.8v515.9c0,44,35.8,79.8,79.8,79.8H499h2h409.2c44,0,79.8-35.8,79.8-79.8V303.8C990,259.9,954.2,224.1,910.2,224.1z M921.1,819.7c0,6.1-4.9,10.9-10.9,10.9H501h-2H89.8c-6,0-10.9-4.9-10.9-10.9V303.8c0-6,4.9-10.9,10.9-10.9h162.8l113.7-123.6H499h2h132.6l113.8,123.6h162.8c6,0,10.9,4.9,10.9,10.9V819.7z"/></g>
</svg>