<?xml version="1.0" encoding="utf-8"?>
<!-- Svg Vector Icons : http://www.onlinewebfonts.com/icon -->
<!DOCTYPE svg PUBLIC "-//W3C//DTD SVG 1.1//EN" "http://www.w3.org/Graphics/SVG/1.1/DTD/svg11.dtd">
<svg version="1.1" xmlns="http://www.w3.org/2000/svg" xmlns:xlink="http://www.w3.org/1999/xlink" x="0px" y="0px" viewBox="0 0 1000 1000" enable-background="new 0 0 1000 1000" xml:space="preserve">
<metadata> Svg Vector Icons : http://www.onlinewebfonts.com/icon </metadata>
<g><path d="M474.2,218.1H568v286.4l199.3,116.2l-44.5,82.1l-249-138.9l3.7-62.1l-3.3-1.7V218.1z M521.1,970.1c-210.9,0-389.3-139.6-448.2-331.7c10,2.2,20.3,3.4,30.9,3.4c23,0,44.8-5.6,64-15.4c51.8,145.5,190.4,249.6,353.4,249.6c207.2,0,375.1-168.4,375.1-376.1c0-207.7-167.9-376.1-375.1-376.1C357.4,124,218.3,229,167,375.5c-19-9.6-40.5-15-63.3-15c-10.9,0-21.5,1.3-31.7,3.6c58.1-193.4,237.1-334.2,449-334.2C780.1,29.9,990,240.4,990,500C990,759.6,780.1,970.1,521.1,970.1z M197.6,498.8c0,51.8-42,93.8-93.8,93.8S10,550.6,10,498.8s42-93.8,93.8-93.8S197.6,447,197.6,498.8z"/></g>
</svg>