<?xml version="1.0" encoding="utf-8"?>
<!-- Svg Vector Icons : http://www.onlinewebfonts.com/icon -->
<!DOCTYPE svg PUBLIC "-//W3C//DTD SVG 1.1//EN" "http://www.w3.org/Graphics/SVG/1.1/DTD/svg11.dtd">
<svg version="1.1" xmlns="http://www.w3.org/2000/svg" xmlns:xlink="http://www.w3.org/1999/xlink" x="0px" y="0px" viewBox="0 0 1000 1000" enable-background="new 0 0 1000 1000" xml:space="preserve">
<metadata> Svg Vector Icons : http://www.onlinewebfonts.com/icon </metadata>
<g><path d="M499.8,257.8C372.9-40.5,12.4,29.1,10,375.4C8.7,565.6,133.9,684.4,249.1,760.5c111.7,73.7,239,126.8,251.4,169.7c10.7-42.1,147-98,250.4-171.8C864,677.7,991.3,563.5,990,373.3C987.6,26.2,620.8-28.6,499.8,257.8z M729.8,738.9C635.1,806.6,510.3,855.5,500.5,894c-11.4-39.3-128-85.6-230.3-153.2c-105.5-69.6-222.8-167-225.9-341.2C38,34.7,383.6,37.2,499.8,310.5C610.6,48.1,960.3,23.2,960.3,397.8C960.3,572,833.4,665.1,729.8,738.9z"/><path d="M772.5,565.5c-17-132.1-171.6-148.2-212.7-12.8c-22.6,74.3,14.6,135.9,52.6,179.6c36.9,42.3,82.4,78.4,82.6,96.7c9.2-15.2,71.1-20.7,121.7-37.2c55.3-18,120.3-47.5,141.8-122.1C997.6,533.4,854.9,467.9,772.5,565.5z M944.2,666.6c-19,65.9-85.5,91.9-134.4,107.8c-44.6,14.6-99.3,19.5-107.4,32.9c-0.1-16.2-40.3-48-72.9-85.4C596,683.4,554.1,629,574,563.4c36.2-119.5,179.6-96.1,194.6,20.5C841.3,497.7,978.8,546.4,944.2,666.6z"/></g>
</svg>