<?xml version="1.0" encoding="utf-8"?>
<!-- Svg Vector Icons : http://www.onlinewebfonts.com/icon -->
<!DOCTYPE svg PUBLIC "-//W3C//DTD SVG 1.1//EN" "http://www.w3.org/Graphics/SVG/1.1/DTD/svg11.dtd">
<svg version="1.1" xmlns="http://www.w3.org/2000/svg" xmlns:xlink="http://www.w3.org/1999/xlink" x="0px" y="0px" viewBox="0 0 1000 1000" enable-background="new 0 0 1000 1000" xml:space="preserve">
<metadata> Svg Vector Icons : http://www.onlinewebfonts.com/icon </metadata>
<g><path d="M604.3,10l-209.6,0.2c0,0-21.6-1.7-25.9,19.8c0,0-3,12.2-2.4,26.6c0.3,6.6,2.1,12.5,6.1,17.8c9.9,13.2,29,14.4,38.9,27.1c10.6,13.4,4.2,32.6,1.8,47.6c-2,12.4-3.9,24.8-5.8,37.1c-5.2,33-10.4,66-15.6,99c-4.1,26-8.2,52-12.3,78c-0.6,3.7-0.9,7.5-1.7,11.2c0,0-7,31.5-36.2,43.5c0,0-81.3,39.9-75.4,122.2c0,0-2.3,39.8,33.9,36.1c0,0,402.5,0.2,403.9,0.2c34.2,0,33-38,27.3-62.3c-8-34.1-25.9-62-54.1-83.1c-5.2-3.9-11.6-9.6-17.8-11.8c0,0-37.8-13.1-39.9-53.6c-2.3-14.6-4.6-29.2-6.9-43.8c-4.8-30.8-9.6-61.4-14.4-92.1c-4.2-27.1-8.5-54.2-12.8-81.2c-1.9-11.8-4.8-24.5-3-36.5c1.4-9.7,9.4-16.5,17.8-20.4c9-4.2,17.7-8.6,24.9-15.7c0,0,7.9-7.9,7.3-21.4c0,0,0.3-22.5-4.2-29.8C627.9,24.7,626.7,12.5,604.3,10z"/><path d="M533.4,573.4L505.5,990h-16.6l-23.6-414.8L533.4,573.4z"/></g>
</svg>