<?xml version="1.0" encoding="utf-8"?>
<!-- Svg Vector Icons : http://www.onlinewebfonts.com/icon -->
<!DOCTYPE svg PUBLIC "-//W3C//DTD SVG 1.1//EN" "http://www.w3.org/Graphics/SVG/1.1/DTD/svg11.dtd">
<svg version="1.1" xmlns="http://www.w3.org/2000/svg" xmlns:xlink="http://www.w3.org/1999/xlink" x="0px" y="0px" viewBox="0 0 1000 1000" enable-background="new 0 0 1000 1000" xml:space="preserve">
<metadata> Svg Vector Icons : http://www.onlinewebfonts.com/icon </metadata>
<g><g><g><path d="M483.1,280.3h169L449.3,43.8v202.8C449.3,266.8,466.2,280.3,483.1,280.3z"/><path d="M922.4,415.5H347.9c-37.2,0-67.6,30.4-67.6,67.6v236.6c0,37.2,30.4,67.6,67.6,67.6h574.5c37.2,0,67.6-30.4,67.6-67.6V483.1C990,445.9,959.6,415.5,922.4,415.5z M618.3,618.3v101.4h-33.8V618.3H483.1v101.4h-33.8V601.4v-50.7c0-37.2,30.4-67.6,67.6-67.6h33.8c37.2,0,67.6,30.4,67.6,67.6V618.3z M787.2,516.9h-33.8v169h33.8v33.8H685.9v-33.8h33.8v-169h-33.8v-33.8h101.4V516.9z"/><path d="M246.6,719.7V483.1c0-57.4,43.9-101.4,101.4-101.4h304.1v-67.6h-169c-37.2,0-67.6-30.4-67.6-67.6V43.8H77.6C40.4,43.8,10,74.2,10,111.4v777.2c0,37.2,30.4,67.6,67.6,67.6h506.9c37.2,0,67.6-30.4,67.6-67.6V821H347.9C290.5,821,246.6,777.1,246.6,719.7z"/><path d="M550.7,516.9h-33.8c-20.3,0-33.8,13.5-33.8,33.8v33.8h101.4v-33.8C584.5,530.4,571,516.9,550.7,516.9z"/></g></g><g></g><g></g><g></g><g></g><g></g><g></g><g></g><g></g><g></g><g></g><g></g><g></g><g></g><g></g><g></g></g>
</svg>