<?xml version="1.0" encoding="utf-8"?>
<!-- Svg Vector Icons : http://www.onlinewebfonts.com/icon -->
<!DOCTYPE svg PUBLIC "-//W3C//DTD SVG 1.1//EN" "http://www.w3.org/Graphics/SVG/1.1/DTD/svg11.dtd">
<svg version="1.1" xmlns="http://www.w3.org/2000/svg" xmlns:xlink="http://www.w3.org/1999/xlink" x="0px" y="0px" viewBox="0 0 1000 1000" enable-background="new 0 0 1000 1000" xml:space="preserve">
<metadata> Svg Vector Icons : http://www.onlinewebfonts.com/icon </metadata>
<g><path d="M949.5,501.9c0-248.4-201.4-449.7-449.7-449.7S50,253.5,50,501.9c0,129.5,54.7,246.2,142.3,328.2l-91.6,91.6l39.3,39.3l95.4-95.4c74.2,54,165.6,85.9,264.4,85.9c103.6,0,199-35.1,275-93.9l103.4,103.4l39.3-39.3L816.7,820.9C898.7,739.5,949.5,626.6,949.5,501.9z M731.6,576.2H447.3V574h-2.2V157.4h85.3v333.6h201.2L731.6,576.2L731.6,576.2z"/><path d="M84.3,72.6l-40.7,40.7c-44.9,44.9-44.9,117.7,0,162.6l0,0L247,72.6l0,0C202.1,27.7,129.3,27.7,84.3,72.6z"/><path d="M753,72.6L753,72.6l203.3,203.3l0,0c44.9-44.9,44.9-117.7,0-162.6l-40.7-40.7C870.7,27.7,797.9,27.7,753,72.6z"/></g>
</svg>