<?xml version="1.0" encoding="utf-8"?>
<!-- Svg Vector Icons : http://www.onlinewebfonts.com/icon -->
<!DOCTYPE svg PUBLIC "-//W3C//DTD SVG 1.1//EN" "http://www.w3.org/Graphics/SVG/1.1/DTD/svg11.dtd">
<svg version="1.1" xmlns="http://www.w3.org/2000/svg" xmlns:xlink="http://www.w3.org/1999/xlink" x="0px" y="0px" viewBox="0 0 1000 1000" enable-background="new 0 0 1000 1000" xml:space="preserve">
<metadata> Svg Vector Icons : http://www.onlinewebfonts.com/icon </metadata>
<g><g transform="translate(0.000000,511.000000) scale(0.100000,-0.100000)"><path d="M2706,4903.7l-79.1-75.9V2600.2V372.6l82.3-75.9l82.3-75.9H5000h2208.6l82.3,75.9l82.3,75.9v2227.6v2227.6l-79.1,75.9l-76,79.1H5000H2781.9L2706,4903.7z M5164.6,4444.9c145.5-41.1,284.8-199.3,367-417.7c34.8-91.8,278.4-696.1,537.9-1338.4c262.6-645.5,484.1-1224.5,496.8-1287.8c25.3-129.7-41.1-287.9-139.2-341.7c-34.8-15.8-117.1-31.6-186.7-31.6c-183.6,0-256.3,94.9-449.3,594.9l-98.1,259.5h-674h-674l-88.6-243.6c-186.7-518.9-253.1-610.7-449.3-610.7c-177.2,0-325.9,129.7-325.9,284.8c0,88.6,968.2,2604.1,1107.4,2879.4C4708.9,4429.1,4905.1,4514.5,5164.6,4444.9z"/><path d="M4984.2,3682.3c-9.5-25.3-107.6-300.6-218.3-613.8c-110.7-313.2-212-594.9-224.7-623.3c-22.2-53.8,12.7-57,471.5-57c272.1,0,493.6,6.3,493.6,9.5c0,25.3-474.6,1297.3-487.3,1313.1C5009.5,3720.3,4993.7,3707.6,4984.2,3682.3z"/><path d="M250.6-32.4c-44.3-25.3-98.1-85.4-120.2-132.9c-25.3-66.4-34.8-670.8-28.5-2265.5l9.5-2180.1l88.6-75.9l88.6-76h2199.1h2202.2l91.8,91.8l91.8,91.7v2189.6c0,1439.7-12.7,2208.6-31.6,2249.7c-85.4,155.1-63.3,155.1-2363.6,155.1C687.3,11.9,320.2,5.6,250.6-32.4z M3323-763.3c316.4-148.7,487.3-414.5,487.3-756.2c0-189.9-12.7-246.8-88.6-376.6c-47.5-82.2-151.9-196.2-227.8-249.9l-139.2-98.1l167.7-88.6c348.1-186.7,503.1-496.8,439.8-876.5c-60.1-348.1-297.4-626.5-632.8-734.1c-170.9-57-1816.2-79.1-1942.8-25.3c-180.3,72.8-183.5,110.7-183.5,1620c0,920.8,12.7,1404.9,34.8,1474.5c66.5,186.7,107.6,193,1072.6,183.5C3123.7-696.9,3190.1-700,3323-763.3z"/><path d="M1867.5-1611.3v-430.3h436.6c237.3,0,487.3,15.8,550.6,31.6c332.2,94.9,411.3,572.7,120.2,743.6c-94.9,53.8-177.2,63.3-607.5,75.9l-499.9,9.5V-1611.3z"/><path d="M1892.8-2532.1c-15.8-15.8-25.3-237.3-25.3-496.8v-474.6l547.4,12.7c509.4,9.5,550.6,15.8,667.6,85.4c205.7,126.6,272.1,420.8,145.6,629.6c-110.7,180.4-284.8,234.2-835.3,250C2130.1-2516.2,1905.5-2519.4,1892.8-2532.1z"/><path d="M5278.4-35.5c-47.5-25.3-101.3-72.8-120.2-107.6c-19-38-31.6-813.2-31.6-2246.5v-2189.6l91.7-91.7l91.8-91.8h2202.3h2199.1l88.6,76l88.6,75.9l9.5,2180.1c6.3,1597.9-3.2,2199.1-28.5,2265.5c-76,183.5-19,180.4-2360.5,180.4C5677.1,11.9,5351.2,5.6,5278.4-35.5z M7879.4-776c446.1-72.8,870.1-360.7,1031.5-705.6c126.6-275.3,79.1-490.4-123.4-556.9c-183.5-60.1-281.6,3.2-443,288c-129.7,224.6-341.7,395.5-547.4,436.6c-455.6,94.9-851.2-151.9-1015.7-636c-85.4-256.3-79.1-930.3,9.5-1154.9c151.9-376.6,408.2-556.9,797.4-556.9c386,0,607.5,148.7,784.7,531.6c57,126.6,136.1,250,174,278.5c186.7,129.7,439.8-19,439.8-262.6c0-291.1-246.8-689.8-541.1-876.4c-433.5-272.1-1224.5-284.8-1673.8-22.1c-319.6,189.8-594.9,588.5-699.3,1022c-57,224.6-53.8,787.9,0,1012.5c177.2,730.9,753.1,1196,1522,1230.9C7638.9-747.5,7765.5-760.1,7879.4-776z"/></g></g>
</svg>