<?xml version="1.0" encoding="utf-8"?>
<!-- Svg Vector Icons : http://www.onlinewebfonts.com/icon -->
<!DOCTYPE svg PUBLIC "-//W3C//DTD SVG 1.1//EN" "http://www.w3.org/Graphics/SVG/1.1/DTD/svg11.dtd">
<svg version="1.1" xmlns="http://www.w3.org/2000/svg" xmlns:xlink="http://www.w3.org/1999/xlink" x="0px" y="0px" viewBox="0 0 1000 1000" enable-background="new 0 0 1000 1000" xml:space="preserve">
<metadata> Svg Vector Icons : http://www.onlinewebfonts.com/icon </metadata>
<g><g><path d="M880.4,10H307.9c-32.8,0-59.4,26.7-59.4,59.4v133C139.9,233.5,60.2,333.6,60.2,452.1s79.7,218.6,188.3,249.7v228.8c0,32.8,26.7,59.4,59.4,59.4h467.8c5.6,0,10.9-2.2,14.8-6.1l143.1-143.1c3.9-3.9,6.1-9.2,6.1-14.8V69.4C939.8,36.7,913.2,10,880.4,10z M307.9,51.9h572.5c9.7,0,17.6,7.9,17.6,17.6v63.2H290.3V69.4C290.3,59.7,298.2,51.9,307.9,51.9z M102,452.1c0-120.1,97.7-217.8,217.8-217.8c120.1,0,217.8,97.7,217.8,217.8c0,120.1-97.7,217.8-217.8,217.8C199.7,669.9,102,572.2,102,452.1z M290.3,930.6V710.1c9.7,1.1,19.5,1.7,29.5,1.7c78,0,148.1-34.6,195.7-89.2h128.2c11.6,0,20.9-9.4,20.9-20.9c0-11.6-9.4-20.9-20.9-20.9h-98.4c18.2-31.8,29.9-67.8,33.2-106.1h65.2c11.6,0,20.9-9.4,20.9-20.9c0-11.6-9.4-20.9-20.9-20.9h-65c-2.8-38.3-14-74.2-31.7-106.1h96.6c11.6,0,20.9-9.4,20.9-20.9s-9.4-20.9-20.9-20.9H518.3c-47.7-56.5-118.9-92.4-198.4-92.4c-10,0-19.8,0.6-29.5,1.7v-19.7H898V805h-83.7c-32.8,0-59.4,26.7-59.4,59.4v83.7H307.9C298.2,948.1,290.3,940.3,290.3,930.6z M796.7,918.5v-54.1c0-9.7,7.9-17.6,17.6-17.6h54.1L796.7,918.5z"/><path d="M726,326.6h69.5c11.6,0,20.9-9.4,20.9-20.9s-9.4-20.9-20.9-20.9H726c-11.6,0-20.9,9.4-20.9,20.9S714.5,326.6,726,326.6z"/><path d="M726,474.6h69.5c11.6,0,20.9-9.4,20.9-20.9c0-11.6-9.4-20.9-20.9-20.9H726c-11.6,0-20.9,9.4-20.9,20.9C705.1,465.2,714.5,474.6,726,474.6z"/><path d="M726,622.6h69.5c11.6,0,20.9-9.4,20.9-20.9c0-11.6-9.4-20.9-20.9-20.9H726c-11.6,0-20.9,9.4-20.9,20.9C705.1,613.2,714.5,622.6,726,622.6z"/><path d="M795.5,770.6c11.6,0,20.9-9.4,20.9-20.9c0-11.6-9.4-20.9-20.9-20.9H599.7c-11.6,0-20.9,9.4-20.9,20.9c0,11.6,9.4,20.9,20.9,20.9H795.5z"/><path d="M482.3,346.5L456.8,321c-6.9-6.9-16-10.7-25.7-10.7s-18.9,3.8-25.7,10.7L271.4,454.9l-37-37c-6.9-6.9-16-10.7-25.7-10.7s-18.9,3.8-25.7,10.7l-25.5,25.5c-14.2,14.2-14.2,37.3,0,51.5l88.3,88.3c6.9,6.9,16,10.7,25.7,10.7h0c9.7,0,18.9-3.8,25.7-10.7L482.3,398C496.5,383.8,496.5,360.7,482.3,346.5z M271.4,549.7l-80.6-80.6l17.8-17.8l48,48c8.2,8.2,21.4,8.2,29.6,0l144.9-144.9l17.8,17.8L271.4,549.7z"/></g><g></g><g></g><g></g><g></g><g></g><g></g><g></g><g></g><g></g><g></g><g></g><g></g><g></g><g></g><g></g></g>
</svg>