<?xml version="1.0" encoding="utf-8"?>
<!-- Svg Vector Icons : http://www.onlinewebfonts.com/icon -->
<!DOCTYPE svg PUBLIC "-//W3C//DTD SVG 1.1//EN" "http://www.w3.org/Graphics/SVG/1.1/DTD/svg11.dtd">
<svg version="1.1" xmlns="http://www.w3.org/2000/svg" xmlns:xlink="http://www.w3.org/1999/xlink" x="0px" y="0px" viewBox="0 0 1000 1000" enable-background="new 0 0 1000 1000" xml:space="preserve">
<metadata> Svg Vector Icons : http://www.onlinewebfonts.com/icon </metadata>
<g><g transform="translate(0.000000,511.000000) scale(0.100000,-0.100000)"><path d="M3890,4210C2089.7,4062.5,545.3,2683.7,181.1,904.5C-150.1-721.2,551.4-2398,1954.3-3331.3c698.4-463.6,1424-683.4,2260.9-686.4c1071.7,0,2041.1,388.4,2823.9,1135c713.5,680.4,1144,1514.3,1273.4,2465.6l36.1,261.9H9044c728.5,3,755.6,6,824.9,141.5c81.3,150.5,60.2,177.6-782.7,1023.6c-448.5,448.6-855,833.9-903.1,855c-45.2,18.1-120.4,24.1-165.6,12c-93.3-21.1-1649.7-1538.4-1722-1673.8c-48.2-96.3-27.1-213.8,57.2-298.1c57.2-57.2,102.3-60.2,752.6-60.2h692.4v-93.3c0-51.2-27.1-225.8-60.2-391.4C7300.9-2774.4,5145.4-3990.6,3026-3295.2C1845.9-2909.8,978.9-1925.4,704.9-661c-66.2,307.1-87.3,921.2-45.2,1231.3c120.4,836.9,472.7,1547.4,1047.7,2107.4c614.1,599.1,1321.6,918.2,2230.8,999.5c358.3,30.1,409.4,42.2,475.7,108.4c78.3,78.3,93.3,204.7,39.1,310.1c-30.1,54.2-204.7,150.5-258.9,141.5C4182,4234.1,4043.5,4222,3890,4210z M8526.2,817.2c228.8-228.8,415.4-424.5,415.4-436.5c0-12-394.4-21-879.1-21h-879.1L7617,793.1c240.8,240.8,448.6,436.5,466.6,436.5C8098.7,1229.6,8300.4,1042.9,8526.2,817.2z"/></g></g>
</svg>