<?xml version="1.0" encoding="utf-8"?>
<!-- Svg Vector Icons : http://www.onlinewebfonts.com/icon -->
<!DOCTYPE svg PUBLIC "-//W3C//DTD SVG 1.1//EN" "http://www.w3.org/Graphics/SVG/1.1/DTD/svg11.dtd">
<svg version="1.1" xmlns="http://www.w3.org/2000/svg" xmlns:xlink="http://www.w3.org/1999/xlink" x="0px" y="0px" viewBox="0 0 1000 1000" enable-background="new 0 0 1000 1000" xml:space="preserve">
<metadata> Svg Vector Icons : http://www.onlinewebfonts.com/icon </metadata>
<g><g><g><path d="M745,440.6V181L573.9,10H10v980h735v-1.8c137.8-15.3,244.9-132,245-273.8C989.9,572.5,882.8,455.8,745,440.6z M561.2,83.9l109.9,109.9H561.2C561.2,193.8,561.2,83.9,561.2,83.9z M71.3,928.8V71.2H500V255h183.8v185.6c-45,5-86.7,20.7-122.5,44.7V377.5L255,316.3v250.3c-9.6-3.4-19.9-5.3-30.6-5.3c-50.8,0-91.9,41.2-91.9,91.9c0,50.7,41.1,91.9,91.9,91.9c50.7,0,91.9-41.2,91.9-91.9v-245L500,438.8v102.5c-19.8,24.5-35.3,52.5-45.8,82.7c-43.5,7.3-76.7,44.9-76.7,90.3c0,45.5,33.2,83.1,76.7,90.3c17.1,49.1,47.5,92,87.1,124H71.3z M714.4,925.2c-116.4-0.3-210.6-94.4-210.9-210.8C503.8,598,598,503.8,714.4,503.5c116.3,0.3,210.5,94.4,210.8,210.9C924.9,830.7,830.7,924.9,714.4,925.2z"/><path d="M811.1,671.2c-0.2-20.8-2.7-45.7-17.1-69.2c-14-23.9-44-41.6-79.7-40.8c-35.7-0.8-65.8,17-79.8,40.8c-14.4,23.5-16.9,48.4-17,69.2c0,4.4,0.2,8.5,0.5,12.5h-26.1v153.1h245V683.8h-26.2C810.9,679.7,811.1,675.5,811.1,671.2z M749.3,683.8h-69.9c-0.3-4-0.6-8.2-0.6-12.5c-0.1-14.6,2.8-29.3,7.8-36.7c5.3-7,8.3-11.2,27.8-12.1c19.5,0.8,22.4,5.1,27.7,12.1c5,7.3,7.9,22.2,7.7,36.7C749.8,675.7,749.5,679.8,749.3,683.8z"/></g></g><g></g><g></g><g></g><g></g><g></g><g></g><g></g><g></g><g></g><g></g><g></g><g></g><g></g><g></g><g></g></g>
</svg>