<?xml version="1.0" encoding="utf-8"?>
<!-- Svg Vector Icons : http://www.onlinewebfonts.com/icon -->
<!DOCTYPE svg PUBLIC "-//W3C//DTD SVG 1.1//EN" "http://www.w3.org/Graphics/SVG/1.1/DTD/svg11.dtd">
<svg version="1.1" xmlns="http://www.w3.org/2000/svg" xmlns:xlink="http://www.w3.org/1999/xlink" x="0px" y="0px" viewBox="0 0 1000 1000" enable-background="new 0 0 1000 1000" xml:space="preserve">
<metadata> Svg Vector Icons : http://www.onlinewebfonts.com/icon </metadata>
<g><g transform="translate(0.000000,511.000000) scale(0.100000,-0.100000)"><path d="M7364.8,4344c-184.4-66.1-308.6-184.4-394.8-378.8c-34.1-76.2-36.1-266.5-36.1-3857.9v-3777.7l52.1-112.2c64.1-136.3,164.3-240.5,304.6-314.6l104.2-54.1H8417h1022.1l114.2,56.1c130.3,64.1,242.5,178.4,304.6,312.6l42.1,92.2V107.3v3797.7l-42.1,92.2c-62.1,134.3-174.4,248.5-304.6,312.6l-114.2,56.1l-992,4C7583.3,4374,7443,4370,7364.8,4344z M9378.9,3931.1c116.2-52.1,110.2,188.4,110.2-3821.8c0-2815.7-6-3699.5-24.1-3739.6c-50.1-110.2-56.1-110.2-1060.1-110.2h-923.9l-68.1,68.1l-68.1,68.1V107.3v3711.6l68.1,68.1l68.1,68.1H8405C9076.3,3955.2,9340.8,3949.2,9378.9,3931.1z"/><path d="M494.8,2199.6c-120.2-44.1-288.6-206.4-346.7-332.7L100,1760.7V-964.9v-2725.6l56.1-114.2c64.1-130.3,178.4-242.5,312.6-304.6c90.2-42.1,112.2-42.1,1114.3-42.1h1022.1l104.2,54.1c140.3,74.2,240.5,178.4,304.6,314.6l52.1,112.2v2705.5v2705.5l-52.1,110.2c-68.1,148.3-152.3,240.5-282.6,312.6l-106.2,58.1l-1022.1,4C729.3,2229.7,569,2225.6,494.8,2199.6z M2527,1798.8c138.3-66.1,128.3,128.3,124.2-2785.7l-6-2637.4l-66.1-58.1l-64.1-58.1H1593c-671.4,0-933.9,6-972,24.1c-116.2,52.1-110.2-94.2-110.2,2765.6c0,2398.9,2,2637.4,32.1,2679.5c70.1,98.2,96.2,100.2,1036.1,102.2C2352.6,1830.8,2466.8,1826.8,2527,1798.8z"/><path d="M3979.9,75.2c-200.4-54.1-390.8-236.5-442.9-424.8c-12-48.1-20-651.3-20-1687.4c0-1487,2-1621.3,34.1-1711.5c48.1-134.3,198.4-294.6,330.7-354.7l106.2-48.1h1002c937.9,0,1008,2,1100.3,38.1c126.3,48.1,260.5,172.3,328.7,302.6l54.1,100.2V-2027v1683.4l-44.1,82.2C6328.7-75.1,6202.5,27.2,6008,77.3C5841.7,121.4,4140.2,119.4,3979.9,75.2z M5960-343.6c126.3-64.1,122.2-14,122.2-1681.4c0-1631.3,2-1609.3-102.2-1683.4c-42.1-28-150.3-32.1-980-32.1c-829.7,0-937.9,4-980,32.1c-104.2,74.2-102.2,52.1-102.2,1677.4c0,1072.2,6,1529.1,22,1575.2c14,36.1,52.1,82.2,86.2,104.2c58.1,36.1,112.2,38.1,970,38.1C5751.5-313.5,5913.9-317.5,5960-343.6z"/></g></g>
</svg>