<?xml version="1.0" encoding="utf-8"?>
<!-- Svg Vector Icons : http://www.onlinewebfonts.com/icon -->
<!DOCTYPE svg PUBLIC "-//W3C//DTD SVG 1.1//EN" "http://www.w3.org/Graphics/SVG/1.1/DTD/svg11.dtd">
<svg version="1.1" xmlns="http://www.w3.org/2000/svg" xmlns:xlink="http://www.w3.org/1999/xlink" x="0px" y="0px" viewBox="0 0 1000 1000" enable-background="new 0 0 1000 1000" xml:space="preserve">
<metadata> Svg Vector Icons : http://www.onlinewebfonts.com/icon </metadata>
<g><g transform="translate(0.000000,511.000000) scale(0.100000,-0.100000)"><path d="M4853.8,4947.6c-34.3-31.8-61.2-83.3-61.2-110.2c0-122.4-107.7-572.9-210.6-881.5c-112.6-337.9-374.6-905.9-602.3-1307.5c-68.5-122.4-347.7-580.3-619.5-1018.6c-590.1-952.5-695.4-1136.1-915.7-1594c-311-646.4-435.8-1109.1-460.3-1687c-9.8-266.9-2.4-411.3,26.9-577.9c110.2-634.1,394.2-1192.4,834.9-1638C3448.4-4479,4175.6-4790,5000.7-4790c1148.3,0,2186.5,653.7,2712.9,1706.6c232.6,467.7,323.2,896.2,303.6,1432.4c-24.5,582.7-149.4,1045.5-467.7,1701.7C7329.2,506,7175,775.4,6641.2,1629.9c-230.2,369.7-489.7,795.8-575.4,942.7c-252.2,435.8-528.9,1028.4-646.4,1383.4c-102.8,308.5-210.6,759-210.6,881.5c0,26.9-27,78.4-61.2,110.2C5066.9,5030.8,4934.6,5030.8,4853.8,4947.6z M5123.2,3527.5c232.6-595,501.9-1089.6,1212-2228.1C7035.4,173.1,7255.8-243.2,7434.5-781.8c298.7-905.9,205.6-1758-276.7-2482.7C6749-3879.2,5989.9-4315,5233.3-4366.4c-832.5-56.3-1540.1,198.3-2088.5,746.8c-323.2,320.8-548.5,719.9-670.9,1180.2c-56.3,208.1-63.7,286.5-66.1,641.5c-2.5,455.4,29.4,646.4,173.8,1065.1c176.3,509.3,408.9,945.1,1084.7,2032.2c712.5,1143.4,981.8,1638,1214.4,2233c63.7,166.5,120,298.7,122.4,293.8C5005.6,3823.7,5059.5,3689,5123.2,3527.5z"/><path d="M3622.3-223.6c-257.1-127.3-323.2-475-127.3-673.3c171.4-171.4,553.4,0,599.9,269.3c22,139.6-29.4,313.4-115.1,384.4C3894-169.7,3744.7-162.4,3622.3-223.6z"/></g></g>
</svg>