<?xml version="1.0" encoding="utf-8"?>
<!-- Svg Vector Icons : http://www.onlinewebfonts.com/icon -->
<!DOCTYPE svg PUBLIC "-//W3C//DTD SVG 1.1//EN" "http://www.w3.org/Graphics/SVG/1.1/DTD/svg11.dtd">
<svg version="1.1" xmlns="http://www.w3.org/2000/svg" xmlns:xlink="http://www.w3.org/1999/xlink" x="0px" y="0px" viewBox="0 0 1000 1000" enable-background="new 0 0 1000 1000" xml:space="preserve">
<metadata> Svg Vector Icons : http://www.onlinewebfonts.com/icon </metadata>
<g><g transform="translate(0.000000,511.000000) scale(0.100000,-0.100000)"><path d="M140.9,4310C100,4264.7,100,4165.6,100,109.4c0-4056.2,0-4155.3,40.9-4200.6l40.9-45.2h4821.3c4791.1,0,4821.3,0,4860.1,43.1c53.9,58.2,47.4,172.4-12.9,219.8c-43.1,36.6-293.1,38.8-4741.6,38.8H412.5v4039V4241l-45.3,58.2C311.2,4370.3,201.3,4376.8,140.9,4310z"/><path d="M8544.3,4016.8c-15.1-4.3-668.1-717.7-1452.6-1584.1c-784.5-864.3-1439.7-1577.6-1457-1584.1c-15.1-6.5-381.5,140.1-810.4,325.4c-428.9,185.4-801.8,336.2-827.6,336.2c-28,0-506.5-364.2-1260.8-961.3L1522.5-414.4L1516-45.8l-4.3,368.5l-58.2,43.1c-73.3,58.2-127.2,56-189.7-8.6l-53.9-51.7v-547.4c0-543.1,0-547.4,49.6-592.7c49.6-45.3,64.7-47.4,601.3-47.4h553.9l43.1,56.1c56,73.3,56,116.4,0,187.5c-43.1,56.1-49.6,58.2-340.5,62.5l-297.4,6.5l1088.4,862.1c597,474.2,1101.3,866.4,1118.6,868.6c17.2,4.3,383.6-142.2,814.7-327.6c431-185.4,812.5-336.2,847-336.2c56.1,0,215.5,170.3,1463.4,1547.5c769.4,849.2,1444,1597.1,1500,1659.6c73.3,79.7,101.3,131.5,101.3,176.7C8753.4,3991,8645.6,4059.9,8544.3,4016.8z"/><path d="M7190.8,1521.1l-53.9-51.7v-2491.5c0-2510.9,2.1-2554,73.3-2601.4c45.2-30.2,157.3-17.2,191.8,21.6c34.5,36.7,36.6,245.7,41,2452.7l6.5,2411.7l502.2,6.5l500,4.3v-2409.6c0-2691.9-10.8-2504.4,148.7-2504.4c165.9,0,153-222,153,2603.6v2523.8l-56,43.1c-56,43.1-81.9,45.3-756.5,45.3h-698.3L7190.8,1521.1z"/><path d="M3261.8,217.1l-47.4-45.3V-1686c0-2082-10.8-1954.8,150.9-1954.8c159.5,0,150.9-116.4,150.9,1847.1V-41.5h506.5h506.5v-1763c0-1683.3,2.2-1767.3,38.8-1799.6c53.9-49.6,168.1-45.3,219.8,6.5c43.1,43.1,43.1,71.1,43.1,1896.6V154.6l-53.9,51.7l-51.7,53.9h-709.1C3335,260.2,3307,258.1,3261.8,217.1z"/><path d="M5268.3-407.9c-25.9-10.8-56-38.8-69-62.5c-17.2-28-23.7-528-23.7-1558.3c0-1698.3-8.6-1612.1,148.7-1612.1c161.6,0,153-92.7,153,1504.4v1426.8h506.5h506.5v-1418.2c0-1590.6-8.6-1513,150.9-1513c159.5,0,150.9-90.5,150.9,1618.6c0,1467.7-2.1,1525.9-41,1573.3l-40.9,51.7l-698.3,4.3C5630.4-390.7,5294.2-397.1,5268.3-407.9z"/><path d="M1296.2-1420.9c-40.9-40.9-43.1-71.1-43.1-1094.9c0-976.3,2.2-1056.1,38.8-1088.4c64.7-58.2,157.3-56.1,219.8,6.5c40.9,41,43.1,71.1,43.1,980.6v937.5h495.7h493.5l6.5-937.5c6.5-926.8,6.5-937.5,53.9-982.8c64.7-64.7,155.2-60.4,215.5,12.9l51.7,58.2l-6.5,1034.5l-6.5,1034.5l-51.7,41c-47.4,38.8-92.7,40.9-758.7,40.9C1367.3-1377.8,1337.1-1379.9,1296.2-1420.9z"/></g></g>
</svg>