<?xml version="1.0" encoding="utf-8"?>
<!-- Svg Vector Icons : http://www.onlinewebfonts.com/icon -->
<!DOCTYPE svg PUBLIC "-//W3C//DTD SVG 1.1//EN" "http://www.w3.org/Graphics/SVG/1.1/DTD/svg11.dtd">
<svg version="1.1" xmlns="http://www.w3.org/2000/svg" xmlns:xlink="http://www.w3.org/1999/xlink" x="0px" y="0px" viewBox="0 0 1000 1000" enable-background="new 0 0 1000 1000" xml:space="preserve">
<metadata> Svg Vector Icons : http://www.onlinewebfonts.com/icon </metadata>
<g><g><path d="M844.1,634.5c-25.9,0,51.8-38.9,28.5-79c18.1-9.1,106.2-163.2-73.8-222.8c-41.5-15.6-187.8-7.8-161.9-296.7C529.3,27,449,304.2,449,304.2S360.9,332.7,263.7,150C132.9,446.5,310,622.6,407.7,692.6c-20.2-7.8-33-11.6-31.4-9.7c-4.1,0.6-8,1.9-11.4,4c-85-50.4-158.6-118.3-183.7-159.1c-10.6-17.4-17.2-66.3-24.1-118.1c-8.1-60.1-17.1-127-34.8-163.3c2.2-2.7,3.6-6,3.4-9.6c-0.3-7.9-6.8-14-14.7-13.7c-7.8,0.2-14,6.8-13.7,14.7c0.2,7.8,6.9,14,14.7,13.7c1.3,0,2.5-0.5,3.8-0.9c16.8,34.9,25.7,100.9,33.7,160.2c7.3,54.8,13.7,102.2,25.1,121c22.8,37.2,84.7,96.3,159,144.8c-51.8-13-259.9-70.5-302.1-168.8c4.2-2.6,7.1-7.1,7-12.4c-0.3-7.8-6.8-14-14.7-13.7c-7.9,0.3-14,6.8-13.8,14.7c0.2,7.6,6.5,13.5,14.1,13.6c48.5,115.9,307.4,174.2,318.8,176.7l14.3,7c-4.4,5.4-7.1,12.3-6.9,19.9c0.6,16.6,14.5,29.7,31.1,29.1c12.1-0.4,22.2-7.9,26.7-18.4c9.1,11.5,29,32.7,65.8,52.2c53.4,28.4,175,43.8,190.8,187.6c1.9-24.1,19.5-83.7-65.9-158.6c46.3,24.6,90.1,44.4,104.1,40.1c90.7-70,186.5,41.4,261.7-57C1039.7,690.2,933.5,603.4,844.1,634.5z"/></g><g></g><g></g><g></g><g></g><g></g><g></g><g></g><g></g><g></g><g></g><g></g><g></g><g></g><g></g><g></g></g>
</svg>