<?xml version="1.0" encoding="utf-8"?>
<!-- Svg Vector Icons : http://www.onlinewebfonts.com/icon -->
<!DOCTYPE svg PUBLIC "-//W3C//DTD SVG 1.1//EN" "http://www.w3.org/Graphics/SVG/1.1/DTD/svg11.dtd">
<svg version="1.1" xmlns="http://www.w3.org/2000/svg" xmlns:xlink="http://www.w3.org/1999/xlink" x="0px" y="0px" viewBox="0 0 1000 1000" enable-background="new 0 0 1000 1000" xml:space="preserve">
<metadata> Svg Vector Icons : http://www.onlinewebfonts.com/icon </metadata>
<g><g transform="translate(0.000000,512.000000) scale(0.100000,-0.100000)"><path d="M616.8,4034.3v-985.7h746.5h746.5v402v402h421.1h421.1v-402v-402h2095.9h2095.9v402v402h430.7h430.6v-402v-402h689.1h689.1v985.7V5020H5000H616.8V4034.3z"/><path d="M616.8-1277.3V-4780H5000h4383.2v3502.7v3502.7h-689.1h-689.1v-354.1v-354.1h-430.6h-430.7v354.1v354.1H5047.9H2951.9v-354.1v-354.1h-421.1h-421.1v354.1v354.1h-746.5H616.8V-1277.3z M3627.6,512.4c319.6-55.5,539.8-157,725.4-331.1c233.5-220.1,336.9-440.2,354.1-750.3c24.9-442.1-135.9-838.4-503.4-1246.1c-124.4-137.8-371.3-377.1-666.1-643.1l-132.1-120.6h692.9h691v-526.4v-526.4H3277.3H1765.2v415.4v413.4l589.5,595.3c978.1,987.6,1133.1,1184.8,1133.1,1429.8c0,178-107.2,254.6-335,243.1c-178-7.6-348.4-91.9-601-294.7c-97.6-78.5-185.7-137.8-195.2-128.3c-57.4,59.3-668,782.9-668,792.4c0,17.2,283.3,252.7,421.1,348.4C2540.4,479.8,3105.1,604.3,3627.6,512.4z M7890.2-712.6v-1196.3h220.1h220.1v-478.5v-478.5h-220.1h-220.1v-382.8v-382.8h-612.5h-612.5v382.8v382.8h-784.8h-784.8v446v446l823,1203.9c453.6,660.4,832.6,1213.5,844.1,1228.8c17.2,19.1,137.8,24.9,574.2,24.9h553.2V-712.6z"/><path d="M6460.4-1602.7l-197.1-296.7l195.2-5.7c105.3-1.9,195.2-1.9,201,1.9c3.8,3.8,3.8,139.7,1.9,302.4l-5.7,294.8L6460.4-1602.7z"/></g></g>
</svg>