<?xml version="1.0" encoding="utf-8"?>
<!-- Svg Vector Icons : http://www.onlinewebfonts.com/icon -->
<!DOCTYPE svg PUBLIC "-//W3C//DTD SVG 1.1//EN" "http://www.w3.org/Graphics/SVG/1.1/DTD/svg11.dtd">
<svg version="1.1" xmlns="http://www.w3.org/2000/svg" xmlns:xlink="http://www.w3.org/1999/xlink" x="0px" y="0px" viewBox="0 0 1000 1000" enable-background="new 0 0 1000 1000" xml:space="preserve">
<metadata> Svg Vector Icons : http://www.onlinewebfonts.com/icon </metadata>
<g><path d="M125.4,990c-46.4,0-84.1-37.7-84.1-84.1V156.6c0-46.4,37.7-84.1,84.1-84.1h104.1c-0.9-34,27.5-62.4,62.4-62.4c34.9,0,63.3,28.4,63.3,63.3l82.4-0.9C436.7,38.4,465.1,10,500,10c34.9,0,63.3,28.4,63.3,63.3l82.4-0.9c-0.9-34,27.5-62.4,62.4-62.4c34.9,0,63.3,28.4,63.3,63.3l103.2-0.9c46.4,0,84.1,37.8,84.1,84.1v749.3c0,46.4-37.7,84.1-84.1,84.1H125.4z M84.6,905.9c0,22.5,18.3,40.7,40.8,40.7h749.3c22.4,0,40.7-18.3,40.7-40.7V302.3l-830.8,0.9L84.6,905.9L84.6,905.9z M125.4,115.8c-22.5,0-40.8,18.3-40.8,40.7v104.1l831.7-0.9l-0.9-103.2c0-22.5-18.2-40.7-40.7-40.7H770.6c0.9,34-27.5,62.4-62.4,62.4c-34.9,0-63.3-28.4-63.3-63.4l-82.4,0.9c0.9,34-27.5,62.5-62.4,62.5c-34.9,0-63.3-28.4-63.3-63.4l-82.4,0.9c0.9,34-27.5,62.4-62.4,62.4c-34.9,0-63.3-28.4-63.3-63.4L125.4,115.8z M708.1,53.4c-11,0-19.9,8.9-19.9,19.9v41.6c0,11,9,19.9,19.9,19.9c11,0,19.9-8.9,19.9-19.9V73.3C728,62.3,719.1,53.4,708.1,53.4z M500,53.4c-11,0-19.9,8.9-19.9,19.9v41.6c0,11,8.9,19.9,19.9,19.9c11,0,19.9-8.9,19.9-19.9V73.3C519.9,62.3,511,53.4,500,53.4z M291.9,53.4c-11,0-19.9,8.9-19.9,19.9v41.6c0,11,8.9,19.9,19.9,19.9c11,0,19.9-8.9,19.9-19.9V73.3C311.8,62.3,302.8,53.4,291.9,53.4z M708.1,802.7c-34.9,0-63.3-28.4-63.3-63.3c0-34.9,28.4-63.3,63.3-63.3c34.9,0,63.3,28.4,63.3,63.3C771.4,774.3,743.1,802.7,708.1,802.7z M708.1,719.4c-11,0-19.9,8.9-19.9,19.9c0,11,9,19.9,19.9,19.9c11,0,19.9-8.9,19.9-19.9C728,728.4,719.1,719.4,708.1,719.4z M500,802.7c-34.9,0-63.3-28.4-63.3-63.3c0-34.9,28.4-63.3,63.3-63.3c34.9,0,63.3,28.4,63.3,63.3C563.3,774.3,534.9,802.7,500,802.7z M500,719.4c-11,0-19.9,8.9-19.9,19.9c0,11,8.9,19.9,19.9,19.9c11,0,19.9-8.9,19.9-19.9C519.9,728.4,511,719.4,500,719.4z M291.9,802.7c-34.9,0-63.3-28.4-63.3-63.3c0-34.9,28.4-63.3,63.3-63.3c34.9,0,63.3,28.4,63.3,63.3C355.2,774.3,326.8,802.7,291.9,802.7z M291.9,719.4c-11,0-19.9,8.9-19.9,19.9c0,11,8.9,19.9,19.9,19.9c11,0,19.9-8.9,19.9-19.9C311.8,728.4,302.8,719.4,291.9,719.4z M708.1,573.7c-34.9,0-63.3-28.4-63.3-63.3c0-34.9,28.4-63.3,63.3-63.3c34.9,0,63.3,28.4,63.3,63.3C771.4,545.3,743.1,573.7,708.1,573.7z M708.1,490.5c-11,0-19.9,8.9-19.9,19.9c0,11,9,19.9,19.9,19.9c11,0,19.9-8.9,19.9-19.9C728,499.4,719.1,490.5,708.1,490.5z M500,573.7c-34.9,0-63.3-28.4-63.3-63.3c0-34.9,28.4-63.3,63.3-63.3c34.9,0,63.3,28.4,63.3,63.3C563.3,545.3,534.9,573.7,500,573.7z M500,490.5c-11,0-19.9,8.9-19.9,19.9c0,11,8.9,19.9,19.9,19.9c11,0,19.9-8.9,19.9-19.9C519.9,499.4,511,490.5,500,490.5z M291.9,573.7c-34.9,0-63.3-28.4-63.3-63.3c0-34.9,28.4-63.3,63.3-63.3c34.9,0,63.3,28.4,63.3,63.3C355.2,545.3,326.8,573.7,291.9,573.7z M291.9,490.5c-11,0-19.9,8.9-19.9,19.9c0,11,8.9,19.9,19.9,19.9c11,0,19.9-8.9,19.9-19.9C311.8,499.4,302.8,490.5,291.9,490.5z"/></g>
</svg>