<?xml version="1.0" encoding="utf-8"?>
<!-- Svg Vector Icons : http://www.onlinewebfonts.com/icon -->
<!DOCTYPE svg PUBLIC "-//W3C//DTD SVG 1.1//EN" "http://www.w3.org/Graphics/SVG/1.1/DTD/svg11.dtd">
<svg version="1.1" xmlns="http://www.w3.org/2000/svg" xmlns:xlink="http://www.w3.org/1999/xlink" x="0px" y="0px" viewBox="0 0 1000 1000" enable-background="new 0 0 1000 1000" xml:space="preserve">
<metadata> Svg Vector Icons : http://www.onlinewebfonts.com/icon </metadata>
<g><g transform="translate(0.000000,511.000000) scale(0.100000,-0.100000)"><path d="M4434.6,4987.5C2050.3,4687.2,217.7,2716.6,104.3,335.3C76.7-289.9,183.9-994.8,392.4-1555.5c131.8-361.7,432.1-910.2,655.8-1213.6c999.1-1339.3,2552.9-2087.1,4171-2010.4c2145.3,104.2,3999.4,1618.2,4532.6,3705.2c410.7,1609-46,3331.3-1201.3,4541.8c-747.8,781.5-1667.2,1284.1-2709.2,1477.2C5547.1,4999.8,4728.9,5024.3,4434.6,4987.5z M5534.9,4742.3c150.1-18.4,303.4-39.8,340.2-49c58.2-15.3,82.8-128.7,349.4-1645.7c156.3-898,291.1-1651.9,297.3-1676.4c6.1-24.5-24.5,0-73.6,58.2c-46,58.2-833.6,732.5-1749.9,1498.6c-913.3,769.2-1651.9,1406.7-1636.5,1422c42.9,42.9,407.6,177.7,704.9,257.4C4315.1,4757.6,4964.8,4806.7,5534.9,4742.3z M6457.3,4543.1c352.4-113.4,934.7-407.6,1253.5-631.3c260.5-186.9,934.7-824.4,934.7-885.7c0-15.3-376.9-680.4-833.6-1474.1L6975.3,105.5l-33.7,257.4c-33.7,232.9-695.7,4027-732.5,4189.4c-9.2,36.8-12.3,67.4-3.1,67.4C6212.1,4619.7,6325.5,4586,6457.3,4543.1z M4103.7,3105.8c680.4-570,1232-1038.9,1225.9-1042c-6.1,0-1032.8,0-2286.2,6.1l-2277.1,6.1L898,2327.4c358.6,689.6,947,1317.8,1630.4,1743.8c208.4,128.7,251.3,144,291.1,107.3C2847.1,4157,3423.3,3672.8,4103.7,3105.8z M9132.8,2256.9c324.8-637.4,496.5-1299.4,505.7-1943l3-334L8063.2-596.3c-867.3-315.6-1581.4-576.1-1584.4-576.1c-6.1,0,42.9,67.4,107.3,150.2c61.3,85.8,269.7,426,462.8,760c190,334.1,665,1158.4,1054.2,1829.6l708,1222.8l70.5-88.9C8921.3,2652.2,9034.7,2453,9132.8,2256.9z M3932,1751.2c-73.6-42.9-870.4-698.7-1774.5-1458.8C974.6-697.4,508.8-1074.4,490.4-1043.8c-49,88.9-122.6,579.2-141,943.9c-27.6,573.1,42.9,1103.3,223.7,1679.4l79.7,251.3h1707h1704L3932,1751.2z M5550.2,1742c821.3-278.9,1302.5-1137,1121.7-1998.2c-98.1-462.8-462.8-950-845.8-1133.9c-343.3-165.5-453.6-193.1-827.5-190c-300.3,0-386.2,12.3-570,76.6c-511.8,183.9-873.4,548.6-1060.4,1072.6c-101.1,288.1-98.1,809.1,12.3,1115.5c196.1,554.7,665,974.6,1232,1103.3C4872.9,1846.2,5298.9,1824.8,5550.2,1742z M3092.3,552.9c-30.6-131.8-208.4-1106.3-395.3-2169.8c-183.9-1060.4-343.2-1967.5-352.4-2013.5l-18.4-85.8l-186.9,144c-282,214.5-717.1,668.1-934.7,977.6c-196.1,272.8-505.7,858.1-588.4,1109.4c-42.9,131.8-42.9,134.9,49,205.4c49,39.8,619.1,521,1268.8,1066.5C2583.6,335.3,3123,785.8,3132.2,785.8C3144.4,788.9,3126,681.6,3092.3,552.9z M9580.2-718.9c-125.6-732.4-554.7-1661-986.8-2129.9L8477-2977.6l-1517,548.6c-833.6,303.4-1544.6,563.9-1578.3,579.2c-52.1,21.5-39.8,30.6,76.6,61.3c76.6,21.5,1042,364.7,2145.3,766.2C9905.1-185.7,9666-222.4,9580.2-718.9z M4348.8-2686.4c576.2-993,1039-1817.4,1029.7-1832.7c-49-79.7-1130.9,9.2-1575.2,128.8C3319.1-4255.5,2528.4-3900,2556-3826.5c6.1,18.4,141,769.2,300.3,1667.1l285,1630.4l82.8-174.7C3267-801.7,3775.7-1693.5,4348.8-2686.4z M4201.7-1669c91.9-42.9,1057.3-398.4,2142.2-793.7l1973.7-714.1l-180.8-162.4c-472-422.9-1048.1-753.9-1651.9-956.2c-416.8-137.9-769.2-211.5-809.1-168.6c-27.6,24.6-340.2,563.9-1345.4,2304.6c-190,328-334.1,588.5-321.8,582.3C4024-1583.1,4109.8-1626.1,4201.7-1669z"/></g></g>
</svg>