<?xml version="1.0" encoding="utf-8"?>
<!-- Svg Vector Icons : http://www.onlinewebfonts.com/icon -->
<!DOCTYPE svg PUBLIC "-//W3C//DTD SVG 1.1//EN" "http://www.w3.org/Graphics/SVG/1.1/DTD/svg11.dtd">
<svg version="1.1" xmlns="http://www.w3.org/2000/svg" xmlns:xlink="http://www.w3.org/1999/xlink" x="0px" y="0px" viewBox="0 0 1000 1000" enable-background="new 0 0 1000 1000" xml:space="preserve">
<metadata> Svg Vector Icons : http://www.onlinewebfonts.com/icon </metadata>
<g><path d="M626.1,608.1H383.8c-9.8,0-19.6,9.8-19.6,19.6c0,9.8,9.8,19.6,19.6,19.6h242.3c9.8,0,19.6-9.8,19.6-19.6C645.7,617.9,635.9,608.1,626.1,608.1z M989.5,608.1c-9.8-121.1-62.2-183.4-101.5-212.8c26.2-6.5,49.1-13.1,68.8-19.6c9.8-3.3,16.4-16.4,13.1-26.2c-3.3-9.8-16.4-16.4-26.2-13.1c-22.9,9.8-49.1,16.4-78.6,22.9c-39.3-101.5-134.2-196.5-137.5-199.7c-3.3-3.3-9.8-6.5-13.1-6.5H282.3c-6.5,0-9.8,3.3-13.1,6.5c-3.3,3.3-98.2,98.2-137.5,199.7c-26.2-6.5-52.4-13.1-75.3-22.9c-9.8-3.3-22.9,0-26.2,13.1c-3.3,9.8,0,19.6,13.1,26.2c19.6,6.5,42.6,13.1,68.8,19.6c-39.3,29.5-91.7,88.4-101.5,212.8C7.2,667,20.3,712.8,49.8,745.6c6.5,6.6,16.4,13.1,26.2,19.6v65.5c0,9.8,6.5,16.4,16.4,16.4h95c9.8,0,16.4-6.6,16.4-16.4v-45.8h589.4v45.8c0,9.8,6.5,16.4,16.4,16.4h95c9.8,0,16.4-6.6,16.4-16.4v-65.5c9.8-6.5,16.4-9.8,26.2-19.6C979.7,712.8,992.8,667,989.5,608.1z M292.1,195.5h415.8c19.6,19.6,88.4,98.2,121.2,176.8c-91.7,19.6-203,29.5-327.4,29.5c-124.4,0-235.8-9.8-330.7-29.5C203.7,293.7,272.4,215.1,292.1,195.5z M924,716.1c-29.5,29.5-68.8,26.2-72,26.2H144.7c0,0-42.6,0-68.8-26.2c-22.9-22.9-32.7-58.9-26.2-104.8c13.1-170.3,114.6-199.7,117.9-203l0,0c95,19.6,209.6,29.5,334,29.5c124.4,0,235.8-9.8,334-29.5c3.3,0,104.8,32.7,117.9,203C953.5,657.2,943.7,693.2,924,716.1z M852,608.1h-98.2c-9.8,0-19.6,9.8-19.6,19.6c0,9.8,9.8,19.6,19.6,19.6H852c9.8,0,19.6-9.8,19.6-19.6C871.6,617.9,861.8,608.1,852,608.1z M249.5,608.1h-98.2c-9.8,0-19.6,9.8-19.6,19.6c0,9.8,9.8,19.6,19.6,19.6h98.2c9.8,0,19.6-9.8,19.6-19.6C269.2,617.9,262.6,608.1,249.5,608.1z"/></g>
</svg>