<?xml version="1.0" encoding="utf-8"?>
<!-- Svg Vector Icons : http://www.onlinewebfonts.com/icon -->
<!DOCTYPE svg PUBLIC "-//W3C//DTD SVG 1.1//EN" "http://www.w3.org/Graphics/SVG/1.1/DTD/svg11.dtd">
<svg version="1.1" xmlns="http://www.w3.org/2000/svg" xmlns:xlink="http://www.w3.org/1999/xlink" x="0px" y="0px" viewBox="0 0 1000 1000" enable-background="new 0 0 1000 1000" xml:space="preserve">
<metadata> Svg Vector Icons : http://www.onlinewebfonts.com/icon </metadata>
<g><g transform="translate(0.000000,511.000000) scale(0.100000,-0.100000)"><path d="M6889.2,2678.7l-646.9-788.6l825-9.6l823-9.6L6200.1-184.8c-930.2-1129.3-1699.7-2053.8-1707.3-2053.8c-19.1,0-2287.3,2203.1-2287.3,2222.2c0,15.3,836.5,928.3,857.5,934.1c7.7,3.8,310.1-281.4,671.8-633.6l658.4-637.4l51.7,59.3c51.7,59.3,1732.2,2105.5,1766.7,2151.4c15.3,17.2-597.2,23-3047.2,23H100V-684.3v-2564.8h4900h4900v2564.8v2564.8l-997.2,3.8l-997.2,5.7l306.3,373.2c168.4,204.8,306.3,373.2,304.3,375.2c-1.9,1.9-218.2,189.5-480.4,417.3c-262.2,227.8-482.3,413.4-488.1,413.4C7541.9,3467.3,7245.2,3113.2,6889.2,2678.7z M1650.4,1166.6c0-1.9-176.1-179.9-392.4-396.2L865.6,378v398.1v396.2H1258C1474.3,1172.3,1650.4,1170.4,1650.4,1166.6z M9134.4,779.9c0-216.3-1.9-392.4-5.7-392.4c-1.9,0-179.9,176.1-396.2,392.4L8340,1172.3h398.1h396.2V779.9z M1267.6-2148.6L1660-2541h-398.1H865.6v392.4c0,216.3,1.9,392.4,5.7,392.4C873.3-1756.2,1051.3-1932.3,1267.6-2148.6z M9134.4-2148.6V-2541h-396.2H8340l392.4,392.4c216.3,216.3,394.3,392.4,396.2,392.4C9132.5-1756.2,9134.4-1932.3,9134.4-2148.6z"/></g></g>
</svg>