<?xml version="1.0" encoding="utf-8"?>
<!-- Svg Vector Icons : http://www.onlinewebfonts.com/icon -->
<!DOCTYPE svg PUBLIC "-//W3C//DTD SVG 1.1//EN" "http://www.w3.org/Graphics/SVG/1.1/DTD/svg11.dtd">
<svg version="1.1" xmlns="http://www.w3.org/2000/svg" xmlns:xlink="http://www.w3.org/1999/xlink" x="0px" y="0px" viewBox="0 0 1000 1000" enable-background="new 0 0 1000 1000" xml:space="preserve">
<metadata> Svg Vector Icons : http://www.onlinewebfonts.com/icon </metadata>
<g><g transform="translate(0.000000,511.000000) scale(0.100000,-0.100000)"><path d="M4826.8,5006c-513.8-100.1-885.2-538.8-885.2-1046.9c0-277.1,103.9-529.2,302.1-735.1c421.4-434.9,1102.7-431.1,1516.4,5.8c315.6,334.8,386.8,773.6,190.5,1185.4c-167.4,352.2-511.9,577.3-902.6,592.7C4953.8,5011.8,4853.7,5009.8,4826.8,5006z"/><path d="M3697.2,2650.5c-175.1-36.6-350.2-171.3-415.7-321.4c-42.3-96.2-764-2990.6-764-3059.8c0-30.8,17.3-88.5,36.6-130.9c117.4-259.8,469.6-288.7,629.3-53.9c26.9,40.4,123.2,394.5,286.7,1045c134.7,540.8,257.9,996.8,273.3,1012.2c40.4,40.4,128.9,32.7,171.3-13.5c34.6-38.5,28.9-65.4-411.8-1832c-246.3-987.2-446.5-1799.3-446.5-1807.1c0-9.6,186.7-15.4,413.8-15.4h413.7v-935.3c0-656.2,5.8-958.4,23.1-1010.3c28.9-98.2,132.8-219.4,234.8-273.3c121.2-63.5,319.5-59.7,438.8,11.5c50,28.9,113.5,82.8,142.4,119.3c100.1,132.8,103.9,171.3,103.9,1168.1v919.9H5000h173.2v-937.2c1.9-735.1,7.7-954.5,27-1012.2c38.5-105.8,117.4-198.2,219.4-257.9c119.3-71.2,317.5-75,438.8-11.5c102,53.9,205.9,175.1,234.8,273.3c17.3,51.9,23.1,354.1,23.1,1010.3v935.3h413.8c227.1,0,413.8,5.8,413.8,15.4c0,7.7-200.1,819.8-446.5,1807.1c-440.7,1766.6-446.5,1793.6-411.8,1832c44.2,50,128.9,52,171.3,5.8c17.3-19.2,134.7-450.3,275.2-1010.3c161.7-646.6,257.9-998.8,284.8-1039.2c159.7-234.8,511.9-205.9,629.3,53.9c19.2,42.3,36.6,100.1,36.6,130.9c0,69.3-721.7,2963.6-764,3059.8c-46.2,105.8-165.5,221.3-290.6,279l-109.7,52l-1270.1,3.9C4349.6,2664,3741.4,2658.2,3697.2,2650.5z"/></g></g>
</svg>