<?xml version="1.0" encoding="utf-8"?>
<!-- Svg Vector Icons : http://www.onlinewebfonts.com/icon -->
<!DOCTYPE svg PUBLIC "-//W3C//DTD SVG 1.1//EN" "http://www.w3.org/Graphics/SVG/1.1/DTD/svg11.dtd">
<svg version="1.1" xmlns="http://www.w3.org/2000/svg" xmlns:xlink="http://www.w3.org/1999/xlink" x="0px" y="0px" viewBox="0 0 1000 1000" enable-background="new 0 0 1000 1000" xml:space="preserve">
<metadata> Svg Vector Icons : http://www.onlinewebfonts.com/icon </metadata>
<g><path d="M970.8,959.4c-67.4-189.9-251.1-324.6-471.6-324.6c-214.4,0-398.1,134.8-471.6,324.6c0,12.3,12.3,30.6,24.5,30.6h894.3C964.7,990,977,971.6,970.8,959.4z"/><path d="M297.1,487.8c42.9,73.5,116.4,122.5,208.3,122.5c79.6,0,147-36.8,189.9-91.9c12.3-18.4,18.4-30.6,30.6-55.1c12.3-24.5,18.4-55.1,18.4-85.8c12.3-79.6,6.1-171.5-24.5-238.9c18.4-12.2,24.5-36.7,24.5-55.1c0-42.9-36.7-73.5-73.5-73.5c-30.6,0-61.3,18.4-73.5,49c-98,6.1-232.7,85.8-281.7,165.4c-30.6,36.7-49,85.8-49,140.9c0,12.3,0,24.5,6.1,42.9l-104.1,67.4L297.1,487.8z M346.1,267.3c147-6.1,281.7,116.4,324.6,196c-30.6,55.1-98,98-165.4,98c-104.1,0-189.9-85.7-189.9-196C315.5,328.5,321.6,297.9,346.1,267.3z"/></g>
</svg>