<?xml version="1.0" encoding="utf-8"?>
<!-- Svg Vector Icons : http://www.onlinewebfonts.com/icon -->
<!DOCTYPE svg PUBLIC "-//W3C//DTD SVG 1.1//EN" "http://www.w3.org/Graphics/SVG/1.1/DTD/svg11.dtd">
<svg version="1.1" xmlns="http://www.w3.org/2000/svg" xmlns:xlink="http://www.w3.org/1999/xlink" x="0px" y="0px" viewBox="0 0 1000 1000" enable-background="new 0 0 1000 1000" xml:space="preserve">
<metadata> Svg Vector Icons : http://www.onlinewebfonts.com/icon </metadata>
<g><path d="M502.8,609.4c-34.7,0-50.2,37.1-50.2,74c0,38.1,17.2,73.1,49.7,73.1c33,0,49.9-34.2,49.9-74.3C552.3,646.3,536.5,609.4,502.8,609.4z"/><path d="M940.7,422.7h-83.1l-298-298c0.5-3.1,0.8-6.4,0.8-9.7c0-33.3-27-60.4-60.4-60.4c-33.3,0-60.4,27-60.4,60.4c0,3.3,0.3,6.5,0.8,9.7l-298,298H59.3c-27.3,0-49.3,22.1-49.3,49.3v423.9c0,27.3,22.1,49.3,49.3,49.3h881.3c27.3,0,49.3-22.1,49.3-49.3V472.1C990,444.8,967.9,422.7,940.7,422.7z M458,150.4c11.1,10.4,26.1,16.8,42.6,16.8c16.5,0,31.4-6.4,42.6-16.8l272.1,272.1H185.9L458,150.4z M220.9,755.8c12.8,0,25.8-2.7,33.9-6.6l4.9,22.9c-7.9,3.9-23.9,7.9-44.3,7.9c-52.4,0-87.6-34.7-87.6-94.7c0-64,40.3-98.9,92.5-98.9c21.6,0,34.9,4.7,40.1,7.4l-6.1,23.4c-7.9-3.7-18.9-6.9-33-6.9c-36.4,0-63.5,24.6-63.5,73.5C158,730,182.1,755.8,220.9,755.8z M398.3,777.2H297.2V589h28.5v164.1h72.6L398.3,777.2L398.3,777.2z M501.3,779.9c-48,0-78.7-38.9-78.7-95.7c0-59.3,33-98.1,81.2-98.1c49.9,0,78.5,41.1,78.5,95.2C582.3,746.7,547.1,779.9,501.3,779.9z M657.1,779.9c-17.7,0-36.4-5.2-45.5-11.3l6.4-23.9c10.1,6.2,25.3,11.1,40.8,11.1c22.4,0,34.9-11.6,34.9-28.5c0-16-9.6-25.8-32-35.2c-28-11.3-47-28.3-47-53.9c0-29.8,23.9-52.2,61.3-52.2c18,0,31.5,4.4,39.6,8.6l-6.9,23.6c-6.2-3.4-18-8.4-33.5-8.4c-22.4,0-31.7,13-31.7,25.1c0,16,10.6,23.9,34.4,34.2c30.3,13.3,44.8,29.8,44.8,55.6C722.7,756.3,699.4,779.9,657.1,779.9z M864.9,777.2H762.3V589h98.4v23.9h-69.9v54.4h65.9v23.6h-65.9v62.5h74V777.2z"/></g>
</svg>