<?xml version="1.0" encoding="utf-8"?>
<!-- Svg Vector Icons : http://www.onlinewebfonts.com/icon -->
<!DOCTYPE svg PUBLIC "-//W3C//DTD SVG 1.1//EN" "http://www.w3.org/Graphics/SVG/1.1/DTD/svg11.dtd">
<svg version="1.1" xmlns="http://www.w3.org/2000/svg" xmlns:xlink="http://www.w3.org/1999/xlink" x="0px" y="0px" viewBox="0 0 1000 1000" enable-background="new 0 0 1000 1000" xml:space="preserve">
<metadata> Svg Vector Icons : http://www.onlinewebfonts.com/icon </metadata>
<g><g transform="translate(0.000000,511.000000) scale(0.100000,-0.100000)"><path d="M6204.5,5002c-642.3-40-1288.5-338.1-1810.8-834.3c-172.1-164.1-476.2-530.2-502.2-604.2c-6-18-34-16-116,8c-608.3,174.1-1316.5,102.1-1798.7-182.1c-514.2-304.1-910.4-920.4-1002.4-1562.6c-38-256.1-16-670.3,48-912.4C1248.5,48,2048.8-634.3,2963.2-740.4c120-14,766.3-18,1892.8-14c1654.7,8,1716.7,10,1896.7,50c384.2,88,672.3,210.1,980.4,412.2c1536.7,1012.4,1760.7,3149.3,470.2,4477.8C7721.1,4679.9,7170.9,4948,6506.6,5008C6462.6,5012,6326.5,5010,6204.5,5002z M6828.7,4525.8c378.2-94,794.3-334.1,1086.5-626.3c364.1-364.2,606.2-850.4,682.3-1374.6c32-208.1,14-722.3-28-912.4C8369.4,728.3,7799.1,70,7000.8-198.1c-358.2-120-362.1-120-2272.9-120c-1132.5,0-1786.7,8-1864.8,22c-804.3,142.1-1394.6,790.3-1488.6,1634.7c-50,450.2,74,882.3,362.1,1264.5c222.1,294.1,498.2,486.2,848.3,592.2c152.1,44,220.1,52,440.2,54c288.1,2,396.2-16,724.3-118.1c210.1-66,226.1-68,292.1-42c76,32,80,38,254.1,304.1c410.2,632.2,1006.4,1040.4,1694.7,1162.5C6204.5,4591.8,6616.6,4577.8,6828.7,4525.8z"/><path d="M2949.2-1438.6c-108.1-84-420.2-644.3-484.2-870.4c-44-146.1-30-270.1,40-410.2c66-130,180.1-244.1,314.1-314.1c88-46,132-54,256.1-54s168.1,8,256.1,54c202.1,106,354.2,312.1,378.2,512.2c20,170.1-96,460.2-346.1,864.4c-128.1,208.1-186.1,258.1-288.1,258.1C3031.2-1398.6,2979.2-1414.6,2949.2-1438.6z M3191.2-2208.9c134.1-266.1,122.1-408.2-38-450.2c-128-36-238.1,8-276.1,108c-26,70-26,88,6,180.1c50,140.1,172.1,356.2,198.1,346.2C3091.2-2026.9,3141.2-2110.9,3191.2-2208.9z"/><path d="M6790.7-1438.6c-108-84-420.2-644.3-484.2-870.4c-44-146.1-30-270.1,40-410.2c66-130,180.1-244.1,314.1-314.1c88-46,132-54,256.1-54c124,0,168.1,8,256.1,54c202.1,106,354.2,312.1,378.2,512.2c20,170.1-96,460.2-346.1,864.4c-128.1,208.1-186.1,258.1-288.1,258.1C6872.7-1398.6,6820.7-1414.6,6790.7-1438.6z M7004.8-2148.9c112-204.1,140-304.1,108-400.2c-22-68-38-84-110-106c-72-24-100-24-170.1,0c-70,22-90,40-114,104c-26,70-26,88,6,180.1c44,122.1,168,352.1,192.1,352.1C6924.8-2018.9,6964.8-2076.9,7004.8-2148.9z"/><path d="M4893.9-3129.3c-96-52-410.2-588.2-498.2-850.3c-96-286.1,36-592.2,322.1-750.3c96-54,126-60,278.1-60c152.1,0,182.1,6,278.1,60c258.1,142.1,406.2,436.2,344.2,684.3c-60,234.1-402.2,842.3-512.2,908.4C5034-3093.3,4966-3089.3,4893.9-3129.3z M5106-3903.6c108-204.1,124-310.1,66-400.2c-66-100-286.1-100-352.1,0c-58,88-40,196.1,64,400.2c54,102.1,102,184.1,110,184.1C5002-3719.6,5052-3801.6,5106-3903.6z"/></g></g>
</svg>