<?xml version="1.0" encoding="utf-8"?>
<!-- Svg Vector Icons : http://www.onlinewebfonts.com/icon -->
<!DOCTYPE svg PUBLIC "-//W3C//DTD SVG 1.1//EN" "http://www.w3.org/Graphics/SVG/1.1/DTD/svg11.dtd">
<svg version="1.1" xmlns="http://www.w3.org/2000/svg" xmlns:xlink="http://www.w3.org/1999/xlink" x="0px" y="0px" viewBox="0 0 1000 1000" enable-background="new 0 0 1000 1000" xml:space="preserve">
<metadata> Svg Vector Icons : http://www.onlinewebfonts.com/icon </metadata>
<g><path d="M499.5,8.2c67.9,0,131.6,13,191.1,39c59.5,26,111.5,61.2,156,105.5c44.5,44.3,79.6,96.3,105.1,156.1c25.5,59.7,38.3,123.6,38.3,191.8c0,68.1-12.8,131.9-38.3,191.2c-25.5,59.3-60.6,111.4-105.1,156.1c-44.5,44.7-96.5,79.9-156,105.5C631,979,567.3,991.8,499.5,991.8c-67.9,0-131.4-12.8-190.5-38.5c-59.1-25.6-111-60.8-155.5-105.5c-44.5-44.7-79.6-96.7-105.1-156.1C22.8,632.4,10,568.7,10,500.6c0-68.1,12.8-132.1,38.3-191.8c25.5-59.7,60.6-111.7,105.1-156.1c44.5-44.3,96.4-79.5,155.5-105.5C368.1,21.2,431.6,8.2,499.5,8.2L499.5,8.2z M522.4,776.4c14.7,0,27-5.2,36.9-15.7c9.9-10.4,14.9-23.1,14.9-38.1c0-15.5-5-28.5-14.9-38.9c-9.9-10.4-22.2-15.7-36.9-15.7c-14.7,0-27,5.2-36.9,15.7c-9.9,10.4-14.9,23.4-14.9,38.9c0,14.9,4.9,27.6,14.9,38.1C495.4,771.2,507.7,776.4,522.4,776.4L522.4,776.4z M565.7,556.1c-0.6-9.6,5.1-19.7,17-30.4c11.9-10.7,25.2-22.7,39.9-35.8c14.7-13.1,28.3-27.9,40.8-44.3c12.5-16.4,19.2-35.4,20.4-56.9c1.1-23.3-1.1-45.1-6.8-65.4c-5.7-20.3-15-37.8-28-52.4c-13-14.6-29.9-26.3-50.5-34.9c-20.7-8.7-44.9-13-72.6-13c-34.5,0-63.3,6.4-86.2,19.3c-22.9,12.8-41.5,28.4-55.6,46.6c-14.1,18.2-24.1,37-29.7,56.4c-5.7,19.4-8.2,35.7-7.6,48.8c0.6,15.5,5.2,26.9,14,34c8.8,7.2,18.3,10.9,28.4,11.2c10.2,0.3,19.5-2.7,28-9c8.5-6.3,12.7-15.4,12.7-27.3c0-7.2,2.1-16,6.4-26.4c4.2-10.4,10-20.4,17.4-30c7.4-9.5,16.3-17.6,26.7-24.2c10.5-6.6,22.2-9.8,35.2-9.8c25.5,0,45.8,6.7,61.1,20.1c15.3,13.4,22.4,30.3,21.2,50.6c0,10.2-2.8,19.6-8.5,28.2c-5.7,8.7-12.9,17-21.6,25.1c-8.8,8.1-18.1,16.1-28,24.2c-9.9,8.1-19.2,16.4-28,25.1c-8.8,8.7-16.1,18.1-22.1,28.2c-5.9,10.1-9.2,21.2-9.8,33.1l0.8,34c0,9,4,17.5,11.9,25.5c7.9,8.1,18.4,12.4,31.4,13c13-0.6,23.3-5.1,31-13.4c7.6-8.4,11.2-17.9,10.6-28.7V556.1L565.7,556.1z"/></g>
</svg>