<?xml version="1.0" encoding="utf-8"?>
<!-- Svg Vector Icons : http://www.onlinewebfonts.com/icon -->
<!DOCTYPE svg PUBLIC "-//W3C//DTD SVG 1.1//EN" "http://www.w3.org/Graphics/SVG/1.1/DTD/svg11.dtd">
<svg version="1.1" xmlns="http://www.w3.org/2000/svg" xmlns:xlink="http://www.w3.org/1999/xlink" x="0px" y="0px" viewBox="0 0 1000 1000" enable-background="new 0 0 1000 1000" xml:space="preserve">
<metadata> Svg Vector Icons : http://www.onlinewebfonts.com/icon </metadata>
<g><g transform="translate(0.000000,511.000000) scale(0.100000,-0.100000)"><path d="M197.6,4158.9c-101.5-57.4-95.7,178-97.6-4044.4c0-3005,5.7-3939.1,23-3977.4c51.7-112.9-290.9-105.3,4875.1-105.3c3372.5,0,4760.2,5.7,4792.8,21c24.9,11.5,59.3,44,76.6,74.7c30.6,49.8,32.5,350.3,32.5,3981.2c0,4270.2,7.7,4002.3-105.3,4053.9C9718.1,4199.1,262.7,4195.3,197.6,4158.9z M9497.9,3171.3v-612.5h-4498h-4498v612.5v612.5h4498h4498V3171.3z M9494.1-708.5l3.8-2857.7h-4498h-4498V-718c0,1567.6,5.7,2855.8,13.4,2861.5c5.7,7.7,2028.9,11.5,4492.2,9.6l4480.8-5.7L9494.1-708.5z"/><path d="M1045.5,3362.7c-67-26.8-122.5-112.9-122.5-191.4c0-137.8,130.2-233.5,258.4-191.4c76.6,24.9,143.6,112.9,143.6,187.6c0,74.7-55.5,158.9-124.4,187.6C1125.9,3385.7,1103,3385.7,1045.5,3362.7z"/><path d="M1847.5,3351.2c-74.6-36.4-128.2-141.6-111-218.2c15.3-70.8,91.9-147.4,162.7-162.7c78.5-17.2,181.8,36.4,218.2,114.8c38.3,78.5,38.3,93.8,0,172.3c-28.7,61.3-124.4,124.4-183.8,124.4C1920.3,3381.8,1882,3366.5,1847.5,3351.2z"/><path d="M2674.4,3357c-74.6-34.5-105.3-72.8-118.7-153.1c-23-145.5,116.8-268,254.6-223.9c143.6,47.9,189.5,214.4,90,325.4C2837.1,3372.3,2754.8,3391.4,2674.4,3357z"/><path d="M3265.8,1088.8c-40.2-32.5-1269-1688.2-1311.1-1766.7c-11.5-23-17.2-67-13.4-101.4c9.6-72.7,1215.4-2002.1,1309.2-2092c130.2-126.3,333-42.1,333,137.8c0,67,32.5,13.4-604.8,1025.9c-310.1,490-566.6,905.3-572.3,920.7c-7.7,17.2,208.6,325.4,562.7,805.8c315.8,426.8,583.8,794.3,593.4,815.4c68.9,128.2-30.6,289-179.9,289C3338.6,1123.3,3288.8,1107.9,3265.8,1088.8z"/><path d="M6491,1067.7c-61.3-61.3-74.7-160.8-32.5-237.3c11.5-23,271.8-382.8,580-798.2c306.3-415.4,562.7-767.5,572.3-780.9c9.6-15.3-197.2-359.9-580-968.5c-514.9-819.2-595.3-955.1-595.3-1020.2c1.9-172.3,199.1-260.3,323.5-143.6c30.6,28.7,338.8,499.6,683.3,1047c547.4,869,627.8,1004.9,627.8,1071.9c1.9,70.8-24.9,114.8-315.8,509.1C6898.7,910.8,6766.6,1085,6726.4,1102.2C6642.2,1142.4,6552.2,1127.1,6491,1067.7z"/><path d="M5717.7,721.3c-23-7.7-51.7-28.7-65.1-45.9c-15.3-17.2-396.2-692.9-846-1498.7c-878.5-1573.3-867.1-1548.5-782.8-1657.6c21.1-26.8,68.9-59.3,105.3-70.8c57.4-19.1,78.5-17.2,137.8,13.4c65.1,32.5,132.1,147.4,899.6,1517.8c708.2,1269,828.8,1494.9,828.8,1560C5993.3,686.9,5855.5,778.7,5717.7,721.3z"/></g></g>
</svg>