<?xml version="1.0" encoding="utf-8"?>
<!-- Svg Vector Icons : http://www.onlinewebfonts.com/icon -->
<!DOCTYPE svg PUBLIC "-//W3C//DTD SVG 1.1//EN" "http://www.w3.org/Graphics/SVG/1.1/DTD/svg11.dtd">
<svg version="1.1" xmlns="http://www.w3.org/2000/svg" xmlns:xlink="http://www.w3.org/1999/xlink" x="0px" y="0px" viewBox="0 0 1000 1000" enable-background="new 0 0 1000 1000" xml:space="preserve">
<metadata> Svg Vector Icons : http://www.onlinewebfonts.com/icon </metadata>
<g><path d="M500,10C229.4,10,10,229.4,10,500c0,270.6,219.4,490,490,490c270.6,0,490-219.4,490-490C990,229.4,770.6,10,500,10z M500,959.4C246.3,959.4,40.6,753.7,40.6,500C40.6,246.3,246.3,40.6,500,40.6c253.7,0,459.4,205.7,459.4,459.4C959.4,753.7,753.7,959.4,500,959.4z"/><path d="M683,730.1c1.9,11.1-2.4,22.9-12.2,30c-9.8,7.1-22.3,7.6-32.2,2.3l-131.5-69.1c-2.1-1.1-4.5-1.8-7.1-1.8c-2.6,0-5,0.6-7.1,1.8l-131.5,69.1c-10,5.3-22.5,4.8-32.2-2.3c-9.7-7.1-14.1-18.8-12.2-30l25.1-146.4c0.4-2.4,0.3-4.9-0.5-7.3c-0.8-2.4-2.1-4.5-3.9-6.2L231.3,466.4c-8.1-7.9-11.5-19.9-7.7-31.4c3.7-11.5,13.6-19.2,24.7-20.8l147-21.4c2.4-0.3,4.7-1.3,6.8-2.8c2.1-1.5,3.7-3.5,4.7-5.6l65.7-133.2c5-10.1,15.4-17.1,27.5-17.1c12.1,0,22.5,7,27.5,17.1l65.7,133.2c1.1,2.2,2.6,4.1,4.7,5.6c2.1,1.5,4.4,2.4,6.8,2.8l147,21.4c11.2,1.6,21,9.4,24.7,20.8s0.3,23.5-7.7,31.4L662.4,570.1c-1.7,1.7-3.1,3.8-3.9,6.2c-0.8,2.5-0.9,4.9-0.5,7.3L683,730.1z M492.9,658.6c2.1-1.1,4.5-1.8,7.1-1.8c2.6,0,5,0.6,7.1,1.8l118.3,62.2c5,2.6,11.2,2.4,16.1-1.1c4.9-3.5,7-9.4,6.1-15L625,572.9c-0.4-2.4-0.3-4.9,0.5-7.3c0.8-2.5,2.2-4.5,3.9-6.2l95.7-93.3c4-3.9,5.7-10,3.9-15.7c-1.9-5.7-6.8-9.6-12.4-10.4l-132.2-19.2c-2.4-0.3-4.7-1.3-6.8-2.8c-2.1-1.5-3.7-3.5-4.7-5.6l-59.1-119.8c-2.5-5.1-7.7-8.5-13.7-8.5s-11.2,3.5-13.7,8.5l-59.1,119.8c-1.1,2.2-2.6,4.1-4.7,5.6c-2.1,1.5-4.4,2.4-6.8,2.8L283.4,440c-5.6,0.8-10.5,4.7-12.4,10.4c-1.9,5.7-0.2,11.8,3.9,15.7l95.7,93.3c1.7,1.7,3.1,3.8,3.9,6.2s0.9,4.9,0.5,7.3l-22.6,131.7c-0.9,5.6,1.2,11.4,6.1,15c4.9,3.5,11.1,3.8,16.1,1.2L492.9,658.6z"/></g>
</svg>