<?xml version="1.0" encoding="utf-8"?>
<!-- Svg Vector Icons : http://www.onlinewebfonts.com/icon -->
<!DOCTYPE svg PUBLIC "-//W3C//DTD SVG 1.1//EN" "http://www.w3.org/Graphics/SVG/1.1/DTD/svg11.dtd">
<svg version="1.1" xmlns="http://www.w3.org/2000/svg" xmlns:xlink="http://www.w3.org/1999/xlink" x="0px" y="0px" viewBox="0 0 1000 1000" enable-background="new 0 0 1000 1000" xml:space="preserve">
<metadata> Svg Vector Icons : http://www.onlinewebfonts.com/icon </metadata>
<g><path d="M644.5,571.8l68.8,226.3l-196.1-133L322.5,800.3l66.2-227l-189-142.7l237.1-7.4l77.7-223.4l80.3,222.4l237.1,4.8L644.5,571.8L644.5,571.8z M575.8,450.7l-61-166.9l-59.1,167.5l-180.2,5.5L419.2,564l-50.3,170.3l147.9-101.3l149.1,99.7l-52.3-169.7l142.4-108.7L575.8,450.7L575.8,450.7z M500,990C229.4,990,10,770.6,10,500C10,229.4,229.4,10,500,10c270.6,0,490,219.4,490,490C990,770.6,770.6,990,500,990L500,990z M500,41.6C246.9,41.6,41.6,246.9,41.6,500c0,253.2,205.2,458.4,458.4,458.4c253.1,0,458.4-205.2,458.4-458.4C958.4,246.9,753.1,41.6,500,41.6L500,41.6z"/></g>
</svg>