<?xml version="1.0" encoding="utf-8"?>
<!-- Svg Vector Icons : http://www.onlinewebfonts.com/icon -->
<!DOCTYPE svg PUBLIC "-//W3C//DTD SVG 1.1//EN" "http://www.w3.org/Graphics/SVG/1.1/DTD/svg11.dtd">
<svg version="1.1" xmlns="http://www.w3.org/2000/svg" xmlns:xlink="http://www.w3.org/1999/xlink" x="0px" y="0px" viewBox="0 0 1000 1000" enable-background="new 0 0 1000 1000" xml:space="preserve">
<metadata> Svg Vector Icons : http://www.onlinewebfonts.com/icon </metadata>
<g><g transform="translate(0.000000,511.000000) scale(0.100000,-0.100000)"><path d="M4744.4,4975.2c-399.2-128.6-677.8-496.6-677.8-895.9c0-171.4,40.9-301.9,134.4-434.3l77.9-107.1l-126.6-23.4c-70.1-11.7-227.9-52.6-350.6-91.5c-1339.9-405.1-2415-1478.2-2820.1-2818.2C391.6-1342.8,1305-3436.4,3143.5-4353.8c607.6-301.9,1178.3-436.3,1858-436.3c245.4,0,432.4,9.7,584.3,33.1c1858,284.3,3291.4,1717.8,3575.8,3575.8c46.8,303.8,46.8,864.7,0,1168.6C8961,1294.3,8191.7,2414.1,7046.5,3062.7c-354.5,200.6-853,389.5-1195.8,451.8l-126.6,23.4L5802,3645c323.3,453.8,38.9,1149.1-545.3,1328.3C5100.9,5021.9,4894.4,5021.9,4744.4,4975.2z M5282,4655.8c132.4-60.4,237.6-167.5,299.9-303.8c68.2-148,72.1-381.7,7.8-502.5c-93.5-177.2-247.3-239.5-588.2-239.5s-496.6,62.3-588.2,239.5c-64.3,122.7-62.3,354.5,5.8,502.5c83.7,177.2,231.8,299.9,420.7,348.6C4958.7,4729.8,5165.1,4708.4,5282,4655.8z M5498.2,3269.1c728.4-89.6,1425.6-387.6,1982.6-843.3c185-153.9,502.5-483,640.8-668c777.1-1040,985.5-2411.1,557-3655.6c-185-539.5-459.6-985.5-862.8-1404.2c-333-344.7-642.7-572.6-1053.7-779c-1320.4-660.2-2935-518-4115.2,364.2c-185,138.3-514.2,455.7-668,640.8c-471.3,576.5-773.2,1306.8-855,2068.3c-31.2,298-13.6,823.8,39,1104.3c148,794.6,481.1,1449,1024.4,2011.9c486.9,504.4,1049.7,847.2,1694.4,1032.2c204.5,58.4,555.1,128.5,720.6,144.1C4808.7,3304.1,5289.8,3296.4,5498.2,3269.1z"/><path d="M4672.4,2731.6c-1336-150-2422.8-1026.4-2845.4-2292.3c-118.8-352.5-161.6-629.1-161.6-1036.1c0-262.9,9.7-393.4,42.8-572.6c249.3-1386.7,1334.1-2471.5,2720.8-2720.8c325.2-58.4,819.9-58.4,1145.2,0c1382.8,249.3,2471.5,1338,2720.8,2720.8c58.4,325.2,58.4,819.9,0,1145.2c-282.4,1569.8-1610.7,2714.9-3203.8,2767.5C4950.9,2747.1,4762,2743.3,4672.4,2731.6z M5628.7,2540.7c428.5-87.6,882.2-282.4,1223.1-523.9c101.3-72.1,286.3-231.8,409-354.5c373.9-373.9,617.4-767.3,777.1-1256.2c120.7-372,148-560.9,148-1012.8c0-428.5-21.4-584.3-128.5-934.8c-237.6-771.3-747.9-1415.9-1451-1824.9c-284.3-167.5-664.1-307.7-1030.3-379.8c-251.2-50.6-878.4-48.7-1149.1,2c-440.2,81.8-923.2,284.3-1275.7,533.6c-237.6,167.5-596,525.8-763.5,763.5c-249.3,352.5-451.8,835.5-533.6,1275.7c-52.6,274.6-52.6,874.5,0,1149.1c81.8,440.2,284.4,923.2,533.6,1275.7c167.5,237.6,525.8,596,763.5,763.5c354.5,251.3,853,459.6,1265.9,529.7c101.3,15.6,206.4,35,233.7,39c27.3,5.8,216.2,5.8,418.7,1.9C5340.4,2581.6,5490.4,2569.9,5628.7,2540.7z"/><path d="M5782.5,739.2L4450.4-45.7L3683-1348.6c-866.7-1470.4-816-1380.8-786.8-1363.3c9.7,7.8,611.5,362.2,1336,788.8l1318.5,777.1l777.1,1318.5c426.5,724.5,781,1324.4,786.8,1336.1c7.8,9.7,9.7,17.5,5.8,17.5C7116.6,1526,6514.8,1171.5,5782.5,739.2z M6674.5,1054.7C6571.3,861.9,5472.9-986.4,5441.7-1021.4c-42.9-42.8-2117-1273.7-2128.7-1262.1c-3.9,3.9,274.6,483,617.4,1065.4l623.2,1059.5l1055.6,627.1c582.3,344.7,1065.3,627.1,1073.1,627.1C6690.1,1097.5,6686.2,1078.1,6674.5,1054.7z"/><path d="M4865.2-328.1c-159.7-81.8-220.1-290.2-120.8-422.6c95.4-130.5,247.4-171.4,385.6-107.1c150,70.1,212.3,284.3,120.8,414.8C5147.6-293,5013.2-252.1,4865.2-328.1z"/></g></g>
</svg>