<?xml version="1.0" encoding="utf-8"?>
<!-- Svg Vector Icons : http://www.onlinewebfonts.com/icon -->
<!DOCTYPE svg PUBLIC "-//W3C//DTD SVG 1.1//EN" "http://www.w3.org/Graphics/SVG/1.1/DTD/svg11.dtd">
<svg version="1.1" xmlns="http://www.w3.org/2000/svg" xmlns:xlink="http://www.w3.org/1999/xlink" x="0px" y="0px" viewBox="0 0 1000 1000" enable-background="new 0 0 1000 1000" xml:space="preserve">
<metadata> Svg Vector Icons : http://www.onlinewebfonts.com/icon </metadata>
<g><g transform="translate(0.000000,511.000000) scale(0.100000,-0.100000)"><path d="M8336.8,4758.6l-327-329l59.8-65.8c31.9-35.9,309.1-315,614.1-620.1l556.3-554.3l329,331l331,329l-618.1,618.1l-618.1,618.1L8336.8,4758.6z M9335.7,3745.7L9232,3640l-388.8,388.8l-388.8,388.8l103.7,103.7l105.7,105.7l388.8-388.8l388.8-388.8L9335.7,3745.7z"/><path d="M6145.5,2567.3l-1619-1619V334.2V-278h624.1h622.1l1615.1,1615l1615,1615.1l-618.1,618.1l-618.1,618.1L6145.5,2567.3z M7088.6,1496.6L5633.1,41.1h-392.8h-394.8v382.8v384.8L6305,2268.2l1461.5,1461.5l388.8-388.8l388.8-388.8L7088.6,1496.6z"/><path d="M100,599.3v-3569.1h1654.9c1563.2,0,1654.9-2,1654.9-33.9c-2-19.9-125.6-442.6-277.1-937.1c-151.5-496.5-271.2-907.2-265.2-913.2c21.9-21.9,3493.3-10,3493.3,12c0,12-125.6,432.7-279.2,937.1c-153.5,502.5-279.2,919.2-279.2,925.2s745.7,10,1654.9,10h1654.9v2322.9V1676h-159.5h-159.5V-487.3v-2163.4H7088.6c-1611.1,0-1704.8-2-1704.8-33.9c2-19.9,125.6-438.7,277.2-933.1c151.5-492.5,271.2-903.2,267.2-911.2c-4-10-600.2-15.9-1325.9-15.9h-1316l12,45.9c6,23.9,131.6,442.6,281.1,929.2c147.5,486.5,269.2,893.3,269.2,901.2c0,10-769.6,17.9-1714.8,17.9H419v3250v3250h3030.7h3030.7v159.5v159.5H3290.2H100V599.3z"/><path d="M997.3,619.3v-2731.6h3608.9h3608.9v1415.7V719h-159.5h-159.5V-537.2v-1256.2H4606.2H1316.3V619.3v2412.6h2103.6h2103.6v159.5v159.5H3260.3H997.3V619.3z"/></g></g>
</svg>