<?xml version="1.0" encoding="utf-8"?>
<!-- Svg Vector Icons : http://www.onlinewebfonts.com/icon -->
<!DOCTYPE svg PUBLIC "-//W3C//DTD SVG 1.1//EN" "http://www.w3.org/Graphics/SVG/1.1/DTD/svg11.dtd">
<svg version="1.1" xmlns="http://www.w3.org/2000/svg" xmlns:xlink="http://www.w3.org/1999/xlink" x="0px" y="0px" viewBox="0 0 1000 1000" enable-background="new 0 0 1000 1000" xml:space="preserve">
<metadata> Svg Vector Icons : http://www.onlinewebfonts.com/icon </metadata>
<g><g transform="translate(0.000000,511.000000) scale(0.100000,-0.100000)"><path d="M2811,4677.7c-277.2-44-581.2-200.7-736-378.5c-42.1-49.7-105.2-145.3-141.5-214.1c-114.7-219.9-130-296.3-143.4-726.5l-11.5-390l-45.9-11.5c-76.5-17.2-120.4-95.6-130-235.2c-19.1-235.2,99.4-497.1,338.4-747.5c65-68.8,120.4-147.2,133.8-193.1c40.1-124.3,126.2-305.9,189.3-399.6c49.7-72.7,59.3-103.2,59.3-198.8c0-103.2-5.7-116.6-51.6-147.2c-84.1-55.4-216-185.4-216-212.2c0-36.3-200.7-133.8-705.5-342.2C734.7,227,696.5,209.8,614.3,131.4C360-113.3,159.3-715.5,113.4-1382.8L100-1573.9h1085.9c1024.7,0,1084-1.9,1070.6-32.5c-78.4-204.6-200.7-866.1-200.7-1097.4v-93.7h2026.5h2026.5v149.1c0,743.7,428.3,1426.2,1093.6,1749.3c112.8,55.4,206.5,110.9,206.5,124.3c0,47.8-91.8,118.5-152.9,118.5c-72.7,0-152.9-74.6-152.9-143.4c0-26.8-7.7-47.8-17.2-47.8c-28.7,0-699.7,281-843.1,353.7l-133.8,66.9v-80.3c0-195-116.6-996.1-151-1032.4c-7.7-9.6-45.9,28.7-84.1,80.3c-40.1,53.5-78.4,95.6-86,95.6c-9.6,0-91.8-313.5-185.4-697.8c-93.7-382.4-175.9-690.2-183.6-682.5c-5.7,7.7-53.5,273.4-103.2,590.8l-89.9,577.4l59.3,59.3c59.3,59.3,59.3,63.1,59.3,250.5c0,137.6-5.7,189.3-22.9,189.3c-13.4,0,11.5,17.2,53.5,38.2c175.9,88,325,263.8,409.1,487.5c34.4,91.8,45.9,166.3,53.5,370.9l9.6,258.1l72.7,110.9c40.1,63.1,95.6,172.1,124.2,244.7c57.4,145.3,97.5,181.6,112.8,99.4c44-210.3,99.4-380.5,177.8-527.7c49.7-93.7,103.2-179.7,120.4-189.3c45.9-28.7,263.8,45.9,413,139.6l118.5,74.6l97.5-38.2C7206.2-54,7305.7-54,7428-8.1l97.5,38.2l118.5-74.6c151-93.7,367.1-168.2,413-139.6c80.3,49.7,254.3,455,286.8,665.3c7.6,53.5,22.9,93.7,34.4,91.8c9.6-1.9,219.9-101.3,466.5-221.8c271.5-131.9,468.4-239,499-273.4C9510-99.9,9684-706,9731.8-1262.3l13.4-156.8l-78.4-5.8l-78.4-5.7l49.7-70.7c49.7-68.8,57.4-72.6,156.8-72.6H9900l-13.4,204.6c-24.8,405.3-101.3,812.5-206.5,1114.6c-139.6,395.8-206.5,468.4-615.6,671.1c-168.2,84.1-307.8,154.9-311.6,158.7c-3.8,3.8,38.2,28.7,93.7,55.4c185.4,91.8,395.8,296.3,499,489.4l51.6,91.8l-120.4,70.7c-65,38.2-166.3,110.9-223.7,160.6l-107.1,89.9l221.8-5.7l219.9-5.7l-57.4,44c-128.1,95.6-323.1,300.2-405.3,422.5c-126.2,191.2-185.4,348-261.9,692.1c-57.4,267.7-66.9,349.9-74.6,650c-11.5,376.6-32.5,487.5-133.8,697.8c-82.2,168.2-302.1,388.1-481.8,481.8c-74.6,38.2-212.2,93.7-305.9,122.4c-147.2,44-206.5,51.6-411,51.6c-204.6,0-263.8-7.6-411-51.6c-258.1-78.4-418.7-170.1-585-336.5c-219.9-217.9-313.6-441.6-336.5-808.7c-9.6-162.5-15.3-185.4-42-174c-116.6,53.5-359.4,122.4-485.6,139.6c-302.1,42.1-648.1,19.1-866.1-55.4l-103.2-36.3V3567c0,223.7-32.5,374.7-93.7,430.2c-19.1,19.1-42.1,65-49.7,103.2c-45.9,248.5-282.9,445.5-650,539.1C3457.2,4685.4,3000.2,4706.4,2811,4677.7z M7514.1,4553.5c208.4-44,432.1-166.3,590.8-325c237.1-235.1,351.8-491.3,367.1-812.5l9.6-181.6l-45.9,143.4c-107.1,346-328.8,615.6-625.2,762.8c-491.3,240.9-1040,152.9-1414.8-225.6c-160.6-160.6-250.4-313.5-319.3-537.2l-45.9-143.4l9.6,181.6c15.3,323.1,130,577.4,369,816.3C6697.7,4519.1,7106.8,4637.6,7514.1,4553.5z M3872,3605.2c61.2-61.2,154.9-233.2,202.7-367.1l26.8-74.6l-87.9-107.1c-47.8-59.3-110.9-154.9-141.5-212.2c-105.1-208.4-118.5-288.7-131.9-709.3l-11.5-390l-45.9-11.5c-74.6-17.2-120.4-97.5-130-231.3c-5.7-66.9,0-156.8,11.5-198.8c19.1-68.8,17.2-80.3-17.2-109c-63.1-51.6-248.5-114.7-372.8-124.3c-416.8-36.3-787.7,254.3-944.4,738c-32.5,97.5-65,147.2-152.9,240.9c-139.6,145.3-261.9,330.7-298.2,456.9c-32.5,107.1-36.3,237.1-9.6,279.1c15.3,22.9,28.7,19.1,80.3-32.5c34.4-32.5,93.7-86,130-118.5l66.9-61.2l5.7,202.7c3.8,166.3,11.5,208.4,40.2,237.1c36.3,36.3,78.4,189.3,78.4,279.1c0,24.8,7.6,49.7,17.2,55.4c7.6,5.7,74.6-19.1,145.3-55.4c265.7-133.8,747.5-200.7,971.2-135.7c152.9,44,244.7,131.9,309.7,294.4c68.8,174,97.5,214.1,151,214.1C3791.7,3664.5,3837.6,3637.7,3872,3605.2z M8091.4,3014.5c47.8-225.6,47.8-692.1,0-917.7c-74.6-344.1-212.2-630.9-391.9-814.4c-149.1-152.9-265.8-206.5-443.5-208.4c-151,0-237.1,32.5-378.5,139.6c-158.7,120.4-328.8,416.8-414.9,724.6l-51.6,175.9l63.1,91.8c183.6,271.5,284.9,347.9,588.9,455c202.6,68.8,388.1,154.9,483.7,221.8c65,47.8,66.9,47.8,57.4-28.7c-17.2-147.2,78.4-405.3,200.7-543l63.1-70.7l-45.9,86c-65,118.5-107.1,277.2-112.8,416.8l-3.8,116.6l135.7,124.3c74.6,68.8,147.2,151,160.6,183.5C8034.1,3245.8,8045.5,3224.8,8091.4,3014.5z M5822.1,2381.6c72.6-74.6,170.2-261.9,237.1-464.6c42-126.2,49.7-183.5,49.7-370.9v-219.9l116.6,128.1c151,164.4,189.3,164.4,189.3-5.7c0-177.8-120.4-409.1-326.9-623.3c-87.9-93.7-120.4-143.4-153-240.9c-95.6-294.4-288.7-543-504.7-650c-508.5-250.5-1047.7,30.6-1250.3,650c-32.5,97.5-65,147.2-152.9,240.9c-208.4,217.9-326.9,445.4-326.9,629c0,149.1,22.9,149.1,172.1,1.9l133.8-131.9v214.1c0,185.4,5.7,219.9,36.3,250.4c36.3,36.3,78.4,187.4,78.4,279.1c0,24.8,7.6,49.7,17.2,55.4c7.6,5.7,74.6-19.1,145.3-55.4c265.7-133.8,747.5-200.7,971.2-135.7c152.9,44,244.7,131.9,309.7,294.4c26.8,70.7,63.1,147.2,78.4,172.1C5680.6,2458.1,5751.3,2452.4,5822.1,2381.6z M8340,2012.7c45.9-40.1,53.5-61.2,53.5-145.3c0-84.1-7.7-105.2-53.5-145.3c-28.7-24.8-70.7-45.9-89.9-45.9c-19.1,0-61.2,21-89.9,45.9c-45.9,40.2-53.5,61.2-53.5,145.3c0,84.1,7.7,105.2,53.5,145.3c28.7,24.9,70.7,45.9,89.9,45.9C8269.2,2058.5,8311.3,2037.5,8340,2012.7z M6399.5,1806.2c-17.2-57.4-19.1-51.6-19.1,61.2c0,112.8,1.9,118.5,19.1,63.1C6414.7,1886.5,6414.7,1848.2,6399.5,1806.2z M6988.3,968.8C7072.4,930.6,7124,921,7256,921c191.2,0,311.6,45.9,472.2,175.9l101.3,82.2v-177.8c0-283-70.7-487.5-227.5-667.2c-91.8-103.2-246.6-187.4-346-187.4c-95.6,0-250.4,82.2-342.2,181.6c-154.9,168.2-231.3,390-231.3,673v177.8l101.3-82.2C6839.2,1052.9,6930.9,993.7,6988.3,968.8z M2681,1009c256.2-128.1,606-124.3,868,9.6c53.5,26.8,99.4,45.9,101.3,42.1c89.9-126.2,89.9-122.4,66.9-229.4c-34.4-158.7-118.5-304-237.1-412.9c-231.3-212.2-520-208.4-755.2,7.6c-162.5,152.9-248.5,361.3-248.5,611.8v105.2l63.1-45.9C2572,1070.1,2637,1031.9,2681,1009z M2094,318.8c24.8-223.7,93.7-613.7,112.8-634.7c5.7-7.6,47.8,32.5,91.8,89.9C2398-99.9,2543.3,18.6,2700.1,95.1c116.6,57.4,122.4,59.3,231.3,36.3c139.6-28.7,212.2-28.7,348,0c103.2,21,114.7,19.1,231.3-36.3c154.9-72.6,304-191.2,405.3-321.2c44-57.4,86-97.5,91.8-89.9c11.5,11.5,68.8,305.9,103.2,535.3l13.4,80.3l72.6-110.9l70.7-110.9l9.6-258.1c7.6-204.6,19.1-279.1,53.5-370.9c84.1-223.7,233.2-399.6,409.1-487.5c42.1-21,66.9-38.2,55.4-38.2c-19.1,0-24.8-47.8-24.8-172.1c0-183.5,19.1-250.4,86-294.4l42.1-26.8l-97.5-583.1c-53.5-321.2-101.3-588.8-107.1-594.6c-5.7-5.7-87.9,304-181.6,686.4c-93.7,384.3-175.9,697.8-185.4,697.8c-7.6,0-45.9-42.1-86-95.6c-38.2-51.6-76.5-89.9-84.1-80.3c-34.4,36.3-151,833.6-151,1030.5v80.3l-195-93.7c-109-49.7-365.1-160.6-571.6-244.7c-206.5-84.1-430.2-179.7-497.1-210.3c-137.6-63.1-263.8-185.4-353.7-342.2L2333-1421H1294.9H258.7l11.5,110.9c49.7,481.8,195,992.3,349.9,1214c110.9,160.6,89.9,147.2,808.7,445.5c239,97.5,476,198.8,525.8,225.6l91.8,45.9l13.4-49.7C2065.4,542.5,2082.6,429.7,2094,318.8z M4631-214.6c305.9-152.9,722.7-116.6,996,87.9l61.2,45.9v-120.5c0-239-91.8-451.2-258.1-604.1c-231.3-212.2-520-210.3-751.3,5.7c-170.2,156.8-250.4,349.9-252.4,598.4v120.5l63.1-45.9C4522-153.4,4587-191.7,4631-214.6z"/><path d="M7150.8-207c-95.6-93.7-28.7-258.1,105.2-258.1c78.4,0,152.9,74.6,152.9,153s-74.6,152.9-152.9,152.9C7219.6-159.2,7179.5-176.4,7150.8-207z"/><path d="M7732-839.8c-367.1-65-690.2-237.1-965.5-512.4C5757.1-2363.5,6221.7-4044,7617.3-4426.4c210.3-59.3,672.9-59.3,883.2,0c682.5,187.4,1177.7,692.1,1349.8,1372.7c49.7,196.9,44,655.8-9.6,850.8c-195,718.8-759,1240.8-1470.2,1365C8171.7-803.5,7927-803.5,7732-839.8z M8278.8-1474.5c42.1-21,99.4-63.1,128.1-93.7c103.2-109,110.9-151,110.9-694s-7.7-585-110.9-694c-93.7-99.4-189.3-137.7-348-137.7c-158.7,0-254.3,38.2-347.9,137.7c-103.2,109-110.9,151-110.9,694c0,407.2,5.7,510.5,30.6,569.7c47.8,118.5,152.9,208.4,294.4,254.3C8003.5-1411.4,8196.6-1432.5,8278.8-1474.5z M7447.1-2610.1c0-151,7.6-304,19.1-340.3c26.8-95.6,118.5-198.8,223.7-252.4c84.1-40.1,116.6-44,369-44s284.9,3.8,369,44c105.1,53.5,191.2,149.1,221.8,250.5c11.5,40.1,21,195,21,344.1v269.6h78.4h78.4l-7.7-319.3c-5.7-288.7-11.5-330.7-51.6-422.5c-84.1-185.4-304-328.8-504.7-328.8h-51.6v-152.9v-152.9h152.9h152.9v-76.5v-76.5h-458.8h-458.8v76.5v76.5H7753H7906v152.9v152.9h-51.6c-200.7,0-420.6,143.4-504.7,328.8c-40.2,91.8-45.9,133.8-51.6,422.5l-7.7,319.3h78.4h78.4V-2610.1z"/></g></g>
</svg>