<?xml version="1.0" encoding="utf-8"?>
<!-- Svg Vector Icons : http://www.onlinewebfonts.com/icon -->
<!DOCTYPE svg PUBLIC "-//W3C//DTD SVG 1.1//EN" "http://www.w3.org/Graphics/SVG/1.1/DTD/svg11.dtd">
<svg version="1.1" xmlns="http://www.w3.org/2000/svg" xmlns:xlink="http://www.w3.org/1999/xlink" x="0px" y="0px" viewBox="0 0 1000 1000" enable-background="new 0 0 1000 1000" xml:space="preserve">
<metadata> Svg Vector Icons : http://www.onlinewebfonts.com/icon </metadata>
<g><g transform="translate(0.000000,511.000000) scale(0.100000,-0.100000)"><path d="M2605.9,2332.5L100,583.1l615.9-7l613.6-4.7v-2213.2V-3855h3723.7H8777v2175.7V494.1l89,14c46.9,7,306.8,37.5,573.8,65.6c393.5,42.1,480.1,58.5,456.7,82c-16.4,16.4-573.8,402.8-1236.5,859.5l-1206.1,829.1l-7,857.2l-4.7,859.5h-409.8h-409.8v-445c0-243.6-7-445-14-445c-7.1,0-332.6,201.4-721.3,449.7c-386.4,245.9-721.3,452-740.1,454.3C5128.2,4079.6,3985.3,3295.1,2605.9,2332.5z M4819.1-318.6v-421.6h-421.6H3976v421.6V103h421.6h421.6V-318.6z M6130.6-318.6v-421.6H5709h-421.5v421.6V103H5709h421.6V-318.6z M4814.4-1693.3l7-358.3h-423.9H3976v363v363l416.9-4.7l414.5-7L4814.4-1693.3z M6130.6-1688.7v-363H5709h-421.5v346.6c0,192.1,7,356,16.4,363c7,9.4,196.7,16.4,421.6,16.4h405.2V-1688.7z"/></g></g>
</svg>