<?xml version="1.0" encoding="utf-8"?>
<!-- Svg Vector Icons : http://www.onlinewebfonts.com/icon -->
<!DOCTYPE svg PUBLIC "-//W3C//DTD SVG 1.1//EN" "http://www.w3.org/Graphics/SVG/1.1/DTD/svg11.dtd">
<svg version="1.1" xmlns="http://www.w3.org/2000/svg" xmlns:xlink="http://www.w3.org/1999/xlink" x="0px" y="0px" viewBox="0 0 1000 1000" enable-background="new 0 0 1000 1000" xml:space="preserve">
<metadata> Svg Vector Icons : http://www.onlinewebfonts.com/icon </metadata>
<g><g><path d="M136.8,157.5h195c-6.7,40.6-38.5,74.3-81.4,81.4C196.6,247.7,145.8,211.3,136.8,157.5z M77.1,150h314.5c4.4,0,8-3.6,8-8c0-4.4-3.6-8-8-8h-52.4V94.5c0-35.4-14.8-53.7-50.2-53.7H182.4c-35.4,0-46.7,18.3-46.7,53.7V134H77.1c-4.4,0-8,3.6-8,8C69.1,146.4,72.6,150,77.1,150z M415,640.2h17.3v209.1h-52.2V640.2h18.9v-13.4c-11.3-1.6-20.9-9.7-24-21l-16.6-60.4c14.4,128.7,14.3,259.9,14.3,259.9h-54c-0.5,66.1-0.8,122.4-0.8,122.4c-0.1,17.4-14.4,31.5-31.8,31.4c-16.3-0.1-29.7-12.7-31.2-28.6c0,0-5.4-57.9-11.7-125.2h-5l-11.4-133.2l-3.1,133.2h-10.1c-6.3,67.2-11.7,125.2-11.7,125.2c-1.6,17.4-17,30.1-34.4,28.5c-16.3-1.5-28.5-15.3-28.7-31.2c0,0-0.4-56.3-0.8-122.4H72.4C70,765.8,81.7,644.6,93,540.2L76.5,600c-3.8,14.1-17.7,23.4-32.5,21.1c-1-0.2-2-0.5-3-0.8v19.9h21.1v154.2H10V640.2h15.1v-30.4h0c-4.6-6-6.8-13.8-5.6-21.9l22.4-147.3c0.2-1.2,0.5-2.5,0.9-3.7l0.2-0.4l3.4-9l2.7-6.7l5.5-13.1c3.8-8.7,7.7-17.3,11.9-25.9c8.3-17.2,17.5-34.1,28.4-51c11-16.8,23.2-33.6,41.1-49.7c1.4-1.2,3-2.5,4.5-3.7L116.3,210l16.8,5.9l0-0.1l86.9,30.4l-0.1,5.1c2.5-0.2,4.9-0.4,7.4-0.4c0.1,0,0.3,0,0.4,0c7.1,0,13.9,0.9,20.6,2.3l-0.1-7.1l86.9-30.4l-24.1,67.2c1.5,1.2,3.1,2.5,4.5,3.7c17.9,16.1,30.1,32.9,41.1,49.7c10.9,16.8,20,33.8,28.4,51c4.1,8.6,8.1,17.2,11.9,25.9l5.5,13.2l2.7,6.7l3.4,9l0.1,0.4c0.5,1.2,0.8,2.5,1,3.7L432,593.7c2,13.3-5.3,25.7-17,30.9L415,640.2L415,640.2z M254,489.7c0-10.9-8.8-19.7-19.7-19.7c-10.9,0-19.7,8.8-19.7,19.7c0,10.9,8.8,19.7,19.7,19.7C245.2,509.4,254,500.5,254,489.7z M254,411.9c0-10.9-8.8-19.7-19.7-19.7c-10.9,0-19.7,8.8-19.7,19.7c0,10.9,8.8,19.7,19.7,19.7C245.2,431.7,254,422.8,254,411.9z M254,336.7c0-10.9-8.8-19.7-19.7-19.7c-10.9,0-19.7,8.8-19.7,19.7c0,10.9,8.8,19.7,19.7,19.7C245.2,356.4,254,347.6,254,336.7z M985.8,635.8h-82.3c0-52.8-42.8-95.6-95.6-95.6c-52.8,0-95.6,42.8-95.6,95.6H454.2v-12.8h-7.3c5.9-9.2,8.5-20.5,6.8-31.8L431.4,444c-0.3-2.5-1-5.1-1.7-6.8l-12.2-30.6c-1.3-3.1-2.7-6.1-4.1-9.2h40V291.2H348.9c-4-4.5-8.2-8.9-12.9-13.3l10.7-29.8h256.8c74.4,0,216.1,182.9,216.1,182.9s81.2,13.6,134.3,45.5C1007.1,508.3,985.8,635.8,985.8,635.8z M736.2,397.4c0,0-83.6-106.2-123.5-106.2c-39.9,0-111.5,0-111.5,0v106.2H736.2z M955.3,494.3h-44v27.9h44V494.3z M895.3,635.7c0,47-38.1,85.2-85.2,85.2c-47,0-85.1-38.1-85.1-85.2c0-47,38.1-85.1,85.1-85.1C857.2,550.6,895.3,588.7,895.3,635.7z M847.5,635.7c0-20.6-16.8-37.3-37.3-37.3s-37.3,16.7-37.3,37.3c0,20.6,16.8,37.4,37.3,37.4S847.5,656.3,847.5,635.7z M454.2,671.5h252.1v-27.9H454.2V671.5z"/></g><g></g><g></g><g></g><g></g><g></g><g></g><g></g><g></g><g></g><g></g><g></g><g></g><g></g><g></g><g></g></g>
</svg>