<?xml version="1.0" encoding="utf-8"?>
<!-- Svg Vector Icons : http://www.onlinewebfonts.com/icon -->
<!DOCTYPE svg PUBLIC "-//W3C//DTD SVG 1.1//EN" "http://www.w3.org/Graphics/SVG/1.1/DTD/svg11.dtd">
<svg version="1.1" xmlns="http://www.w3.org/2000/svg" xmlns:xlink="http://www.w3.org/1999/xlink" x="0px" y="0px" viewBox="0 0 1000 1000" enable-background="new 0 0 1000 1000" xml:space="preserve">
<metadata> Svg Vector Icons : http://www.onlinewebfonts.com/icon </metadata>
<g><path d="M780,803.3V56.7c0-25.8-20.9-46.7-46.7-46.7H126.6C100.9,10,80,30.9,80,56.7v746.7c0,25.8,20.9,46.7,46.7,46.7h606.7C759.1,850,780,829.1,780,803.3z M173.3,290h420v70h-420V290z M406.6,686.7H173.3v-70h233.3V686.7z M686.6,523.3H173.3v-70h513.3V523.3z M686.6,196.7H173.3v-70h513.3V196.7z"/><path d="M896.6,150h-23.3c-12.9,0-23.3,10.4-23.3,23.3v628.2v25.1c0,51.5-41.8,93.3-93.3,93.3h-25.1H173.3c-12.9,0-23.3,10.4-23.3,23.3v23.3c0,12.9,10.5,23.3,23.3,23.3c0,0,613.2,0,630,0c50.3,0,116.7-66,116.7-115.6c0.1-1,0-701,0-701C920,160.4,909.5,150,896.6,150z"/></g>
</svg>