<?xml version="1.0" encoding="utf-8"?>
<!-- Svg Vector Icons : http://www.onlinewebfonts.com/icon -->
<!DOCTYPE svg PUBLIC "-//W3C//DTD SVG 1.1//EN" "http://www.w3.org/Graphics/SVG/1.1/DTD/svg11.dtd">
<svg version="1.1" xmlns="http://www.w3.org/2000/svg" xmlns:xlink="http://www.w3.org/1999/xlink" x="0px" y="0px" viewBox="0 0 1000 1000" enable-background="new 0 0 1000 1000" xml:space="preserve">
<metadata> Svg Vector Icons : http://www.onlinewebfonts.com/icon </metadata>
<g><path d="M153.5,153.5c-191.4,191.4-191.4,501.6,0,693c191.3,191.4,501.6,191.4,693,0c191.4-191.4,191.4-501.6,0-693C655.1-37.9,344.9-37.8,153.5,153.5L153.5,153.5z M749.5,289L545.5,493l204,204c10.7,10.7,10.7,27.9,0.1,38.5c-10.6,10.6-27.9,10.6-38.5,0l-204-204L289,749.4c-10.6,10.7-27.8,10.6-38.4,0c-10.6-10.7-10.7-27.9,0-38.4l218-218L264.5,289c-10.6-10.6-10.6-27.9,0-38.5c10.6-10.6,27.8-10.6,38.5,0L507,454.6L711,250.5c10.6-10.6,27.8-10.6,38.4,0C760.1,261.1,760.1,278.3,749.5,289L749.5,289z"/></g>
</svg>