<?xml version="1.0" encoding="utf-8"?>
<!-- Svg Vector Icons : http://www.onlinewebfonts.com/icon -->
<!DOCTYPE svg PUBLIC "-//W3C//DTD SVG 1.1//EN" "http://www.w3.org/Graphics/SVG/1.1/DTD/svg11.dtd">
<svg version="1.1" xmlns="http://www.w3.org/2000/svg" xmlns:xlink="http://www.w3.org/1999/xlink" x="0px" y="0px" viewBox="0 0 1000 1000" enable-background="new 0 0 1000 1000" xml:space="preserve">
<metadata> Svg Vector Icons : http://www.onlinewebfonts.com/icon </metadata>
<g><path d="M336.3,574c123.7,0,224.3-100.6,224.3-224.3c0-123.7-100.6-224.3-224.3-224.3C212.6,125.5,112,226.1,112,349.8C112,473.4,212.6,574,336.3,574z M336.3,146.9c111.9,0,202.9,91,202.9,202.9c0,111.9-91,202.9-202.9,202.9c-111.9,0-202.9-91-202.9-202.9C133.4,237.9,224.4,146.9,336.3,146.9z"/><path d="M775.4,602.1c93.5,0,169.5-76,169.5-169.4c0-93.5-76-169.4-169.5-169.4c-93.5,0-169.5,76-169.5,169.4C605.9,526.1,681.9,602.1,775.4,602.1z M775.4,279.3c84.6,0,153.3,68.8,153.3,153.3c0,84.5-68.8,153.3-153.3,153.3c-84.5,0-153.3-68.8-153.3-153.3C622.1,348.1,690.8,279.3,775.4,279.3z"/><path d="M989.4,832.8c-41.9-98.6-138.1-162.2-245.2-162.2c-65.1,0-126.1,23.7-173.4,64.3c-63.4-56.8-146.6-89.9-235.3-89.9c-141.7,0-269.1,84.3-324.5,214.8c-2.3,5.4,0.2,11.7,5.7,14c5.4,2.3,11.7-0.2,14-5.7c52.1-122.6,171.7-201.8,304.9-201.8c82.8,0,160.5,30.7,219.8,83.4l3,2.7c34.7,31.5,63,70.6,82,115.6c1.8,4.1,5.7,6.5,9.9,6.5l4.2-0.8c5.4-2.3,8-8.6,5.7-14c-18.5-43.6-45.1-81.8-77.5-113.6c44.2-37.5,101.1-59.4,161.8-59.4c100.6,0,191,59.9,230.3,152.4c1.3,3.1,4.2,4.9,7.4,4.9l3.2-0.6C989.2,841.6,991.1,836.9,989.4,832.8z"/></g>
</svg>