<?xml version="1.0" encoding="utf-8"?>
<!-- Svg Vector Icons : http://www.onlinewebfonts.com/icon -->
<!DOCTYPE svg PUBLIC "-//W3C//DTD SVG 1.1//EN" "http://www.w3.org/Graphics/SVG/1.1/DTD/svg11.dtd">
<svg version="1.1" xmlns="http://www.w3.org/2000/svg" xmlns:xlink="http://www.w3.org/1999/xlink" x="0px" y="0px" viewBox="0 0 1000 1000" enable-background="new 0 0 1000 1000" xml:space="preserve">
<metadata> Svg Vector Icons : http://www.onlinewebfonts.com/icon </metadata>
<g><g transform="translate(0.000000,511.000000) scale(0.100000,-0.100000)"><path d="M5507.9,4955.4c-370.8-99.3-781.2-357.5-1013-632.3l-89.4-109.2h-1526c-1648.5,0-1771-9.9-2049.1-175.4c-195.3-112.6-377.4-321.1-486.6-549.5l-86.1-185.4l-9.9-3525.4c-6.6-3446-6.6-3528.7,59.6-3740.6c112.5-374.1,433.6-695.1,794.5-794.5c69.5-19.8,926.9-33.1,2141.7-33.1c1969.6,0,2032.5,3.3,2211.3,69.5c225.1,82.8,523,347.6,628.9,556.1c142.3,281.4,149,427,149,2856.8v2310.5h920.2c1016.3,0,1112.3,13.2,1512.8,211.9c453.5,225.1,820.9,652.1,996.4,1161.9c79.5,228.4,92.7,317.8,92.7,628.9c0,311.2-13.3,403.9-92.7,629c-225.1,652.1-758,1155.3-1396.9,1320.8C7977.3,5028.2,5782.6,5028.2,5507.9,4955.4z M8427.5,4505.2c420.4-201.9,731.6-542.9,887.1-973.2c102.6-271.4,99.3-774.6,0-1052.7C9126,1953,8669.1,1532.6,8136.2,1403.5c-115.9-29.8-519.7-39.7-1406.9-33.1L5488,1377l-489.9-291.3c-268.1-158.9-493.2-284.7-499.9-278.1c-6.6,6.6,89.4,221.8,211.9,476.7l221.8,466.7l-142.4,158.9c-274.7,314.5-410.5,672-410.5,1095.7c0,718.3,437,1327.4,1118.9,1562.5c218.5,76.1,241.6,76.1,1446.6,66.2l1224.8-6.6L8427.5,4505.2z M4160.6,3793.5c-62.9-152.3-142.3-506.5-142.3-662l-3.3-175.4l-1380.4-6.6l-1383.7-9.9l-9.9-3234.1l-6.6-3237.4h1986.2h1986.2l3.3,109.2c0,56.3,0,963.3,0,2009.3c0,1046,6.6,1972.9,16.6,2059c19.9,149,29.8,162.2,205.2,271.4c158.9,96,208.5,109.2,304.6,89.4l115.9-23.2v-2396.6v-2399.9l-99.3-178.8c-53-96-142.3-211.8-198.6-254.9c-241.6-182.1-185.4-178.7-2304-178.7c-1446.6,0-1992.8,9.9-2095.4,39.7c-82.8,26.5-195.3,102.6-291.3,195.3C588.8-3916.1,602-4147.8,612-218.6c9.9,3297,13.2,3462.5,72.8,3571.8c122.5,235,337.7,410.5,566.1,466.7c56.3,13.2,738.2,23.2,1519.4,26.5C4107.6,3849.8,4187.1,3846.4,4160.6,3793.5z M4067.9,2525.6c53-238.3,142.3-440.2,291.3-658.7c145.6-215.2,182.1-82.8-341-1191.7c-201.9-427-360.8-781.2-354.2-787.8c6.6-6.6,311.2,165.5,678.6,384L5008,668.6v-2002.7v-1999.4H3237H1466v3028.9v3028.9l1281.1-6.6l1277.7-9.9L4067.9,2525.6z"/><path d="M5915,3386.3c-142.3-56.3-218.5-254.9-158.9-413.8c26.5-69.5,185.4-149,294.6-149c215.2,0,337.6,337.7,175.4,486.6C6133.5,3392.9,6007.7,3422.7,5915,3386.3z"/><path d="M6769.1,3369.8c-188.7-82.8-225.1-297.9-76.2-450.2c115.9-115.9,254.9-125.8,377.4-29.8c175.4,139,129.1,420.4-79.4,493.2c-59.6,19.9-105.9,36.4-109.3,36.4C6878.3,3416.1,6828.7,3396.2,6769.1,3369.8z"/><path d="M7672.8,3389.6c-205.2-86.1-261.5-354.2-99.3-489.9c235-205.2,592.5,82.8,443.6,360.8c-26.5,49.7-225.1,165.5-268.1,155.6C7742.3,3416.1,7709.2,3402.9,7672.8,3389.6z"/><path d="M2912.6,3429.3c-43-39.7-23.2-135.7,29.8-155.6c29.8-9.9,158.9-19.9,291.3-19.9c258.2,0,377.4,49.6,341,145.6c-16.6,43-72.8,53-331,53C3071.5,3452.5,2922.5,3442.6,2912.6,3429.3z"/><path d="M3299.9-3763.8c-86.1-33.1-178.8-158.9-178.8-241.6c0-92.7,149-221.8,258.2-221.8c115.9,0,238.3,122.5,238.3,238.3C3617.7-3826.7,3445.5-3704.2,3299.9-3763.8z"/></g></g>
</svg>