<?xml version="1.0" encoding="utf-8"?>
<!-- Svg Vector Icons : http://www.onlinewebfonts.com/icon -->
<!DOCTYPE svg PUBLIC "-//W3C//DTD SVG 1.1//EN" "http://www.w3.org/Graphics/SVG/1.1/DTD/svg11.dtd">
<svg version="1.1" xmlns="http://www.w3.org/2000/svg" xmlns:xlink="http://www.w3.org/1999/xlink" x="0px" y="0px" viewBox="0 0 1000 1000" enable-background="new 0 0 1000 1000" xml:space="preserve">
<metadata> Svg Vector Icons : http://www.onlinewebfonts.com/icon </metadata>
<g><path d="M373,627.3c12.6,13.4,27.7,26.9,45.4,40.6c17.6,13.8,31.9,24.1,42.9,31.2l16.5,10.6c2.4,1.6,5.5,3.5,9.4,5.9c4,2.4,11.2,6.3,21.8,11.8c10.5,5.5,21.2,9.6,31.8,12.4c10.5,2.7,22.5,3.9,35.9,3.5c13.3-0.4,25.4-4.1,36.4-11.2c19.6-11.8,39.3-24.5,58.9-38.3c19.6-13.8,33-23,40-27.7c7.1-4.7,15.5-8.9,25.3-12.4c9.9-3.5,18.5-4.3,26-2.4c7.4,2,17,6.5,28.8,13.5c29,16.5,54.8,32.6,77.2,48.3c22.3,15.7,40.4,29.9,54.2,42.4c13.7,12.5,25.4,24.9,35.3,37c9.8,12.2,16.7,22.6,20.6,31.3c3.9,8.6,6.6,17,8.3,25.3c1.5,8.3,2.3,14.5,2.3,18.9c0,4.3-0.8,8-2.3,11.2c-11,40-47.1,71-108.3,93c-61.3,21.9-127.6,23.9-199,5.9c-163.3-40-303.7-118.9-421.5-236.7C141.1,623.8,62.3,483.3,22.2,320C4.1,248.6,6.1,182.2,28.1,121c21.9-61.2,52.9-97.3,93-108.3c3.1-1.5,6.9-2.5,11.2-3c4.3-0.4,10.5,0.5,18.8,2.4c8.2,2,16.7,5,25.4,8.9c8.6,3.9,19,10.6,31.2,20c12.1,9.4,24.5,21,37.1,34.8c12.5,13.7,26.7,31.9,42.3,54.7c15.7,22.8,31.8,48.3,48.3,76.5c5.5,11,9.2,20,11.2,27c1.9,7.1,2.9,13.6,2.9,19.5s-2.5,12.9-7.6,21.2c-5.1,8.2-10.4,16.3-15.9,24.1c-5.5,7.9-14,20.2-25.3,37.1c-11.4,16.9-22.2,33.9-32.4,51.2c-10.2,20.4-13.5,40.6-10,60.7c3.5,20,9.6,37.5,18.3,52.4l14.1,22.3C316.6,563.4,344,598.3,373,627.3z"/></g>
</svg>