<?xml version="1.0" encoding="utf-8"?>
<!-- Svg Vector Icons : http://www.onlinewebfonts.com/icon -->
<!DOCTYPE svg PUBLIC "-//W3C//DTD SVG 1.1//EN" "http://www.w3.org/Graphics/SVG/1.1/DTD/svg11.dtd">
<svg version="1.1" xmlns="http://www.w3.org/2000/svg" xmlns:xlink="http://www.w3.org/1999/xlink" x="0px" y="0px" viewBox="0 0 1000 1000" enable-background="new 0 0 1000 1000" xml:space="preserve">
<metadata> Svg Vector Icons : http://www.onlinewebfonts.com/icon </metadata>
<g><g transform="translate(0.000000,511.000000) scale(0.100000,-0.100000)"><path d="M3148.1,4585C1165.6,4267.9,525,4157.9,447.3,4121.2c-129.4-60.4-239.4-174.7-299.8-308.5L102.1,3707L100,152v-3555l58.2-118.7c66.9-135.9,194.1-256.7,323.6-304.2c49.6-17.2,1024.7-196.3,2170.1-399.1c1145.5-202.8,2323.3-412,2618.8-465.9c295.6-51.8,597.6-94.9,668.7-94.9c172.6,0,321.4,69,437.9,202.8c120.8,135.9,157.5,254.6,157.5,500.4v200.6l1462.6,6.5l1460.4,6.5l110,58.3c125.1,66.9,233,181.2,291.2,306.3c38.8,84.1,41,233,41,3615.4c0,3501.1-2.1,3527-45.3,3624c-56.1,125.1-155.3,226.5-289.1,297.7l-107.9,58.2l-1460.4,6.5l-1462.6,6.5v202.8c0,254.5-47.5,394.8-176.9,522c-135.9,131.6-252.4,179-448.7,176.9C5812.2,5003.5,4709.9,4835.2,3148.1,4585z M5930.8,108.9V-4186l-79.8,15.1c-45.3,6.5-1216.6,213.6-2605.9,461.6L721.3-3260.6l-6.5,3416.9l-4.3,3419.1l2560.6,412c1410.8,226.5,2584.3,412,2612.3,414.2l47.5,2.2V108.9z"/><path d="M4226.7,3336c-409.9-75.5-746.4-138.1-748.5-138.1c-4.3-2.2-6.5-302-6.5-670.9c0-440.1,6.5-668.7,21.6-668.7c43.1,0,1372,131.6,1441,142.4l69,10.8v731.3c0,403.4-6.5,731.3-15.1,731.3C4977.3,3471.9,4636.5,3409.4,4226.7,3336z"/><path d="M2414.6,3014.6c-338.7-62.5-651.5-120.8-694.6-129.4l-82-15.1V2279v-593.2l82,2.2c43.1,0,386.1,32.4,759.3,69l679.5,69l6.5,653.6l4.3,651.5l-69-2.2C3061.8,3126.8,2753.3,3075,2414.6,3014.6z"/><path d="M4259,1545.6c-379.7-41-711.9-73.3-737.8-73.3l-49.6-2.2V790.6V111h765.8h765.8v755c0,591.1-6.5,755-25.9,752.9C4962.3,1616.7,4638.7,1584.4,4259,1545.6z"/><path d="M2302.5,1355.7l-664.4-66.9V699.9V111h765.8h765.8V769v657.9l-101.4-2.2C3010,1422.6,2667,1390.2,2302.5,1355.7z"/><path d="M4504.9-866.2c-110-71.2-181.2-230.8-181.2-403.4c0-444.4,414.2-616.9,614.8-258.9c43.1,79.8,53.9,127.3,53.9,258.9c0,131.6-10.8,179-53.9,258.9C4835-825.2,4655.9-764.8,4504.9-866.2z"/></g></g>
</svg>