<?xml version="1.0" encoding="utf-8"?>
<!-- Svg Vector Icons : http://www.onlinewebfonts.com/icon -->
<!DOCTYPE svg PUBLIC "-//W3C//DTD SVG 1.1//EN" "http://www.w3.org/Graphics/SVG/1.1/DTD/svg11.dtd">
<svg version="1.1" xmlns="http://www.w3.org/2000/svg" xmlns:xlink="http://www.w3.org/1999/xlink" x="0px" y="0px" viewBox="0 0 1000 1000" enable-background="new 0 0 1000 1000" xml:space="preserve">
<metadata> Svg Vector Icons : http://www.onlinewebfonts.com/icon </metadata>
<g><g transform="translate(0.000000,511.000000) scale(0.100000,-0.100000)"><path d="M279.6,3913.7c-78.5-34.5-158.9-132.1-172.3-208.7c-5.7-34.5-9.6-639.5-5.7-1347.8c5.7-1263.6,5.7-1286.5,45.9-1338.2c21.1-28.7,63.2-70.8,91.9-91.9c49.8-38.3,80.4-40.2,723.7-45.9c518.8-3.8,668.2-11.5,660.5-28.7c-3.8-13.4-187.6-618.4-404-1344C1001.4-1219,798.4-1894.9,765.9-1998.2L710.4-2182l-208.7-7.7c-225.9-5.7-269.9-23-354.2-137.8c-38.3-49.8-40.2-82.3-45.9-595.4c-5.8-610.7-1.9-635.6,122.5-729.4l70.8-55.5l1769-5.7c1971.9-5.7,1847.5-13.4,1954.7,126.3l51.7,67v570.5c0,545.6-1.9,572.4-40.2,622.2c-21.1,28.7-63.2,70.8-91.9,91.9c-49.8,38.3-82.3,40.2-568.6,45.9c-283.3,3.8-515,7.7-515,9.6c0,1.9,206.8,689.2,457.6,1525.9l455.7,1522l823.2,9.6l823.2,9.6l67,51.7c135.9,103.4,130.2,38.3,130.2,1464.6c0,1206.1-3.8,1282.7-36.4,1357.4c-19.2,44-65.1,99.5-99.6,124.4l-65.1,45.9l-2536.7,3.8C794.6,3938.6,327.5,3934.8,279.6,3913.7z M4998.9,3021.6v-306.3H2854.6H710.4v306.3v306.3h2144.2h2144.2V3021.6z"/><path d="M5917.8,2409v-922.8l235.5,7.7c222.1,5.7,239.3,9.6,354.2,70.8c174.2,95.7,289.1,258.5,321.6,457.6l13.4,80.4h149.3h151.3l153.2,306.3l153.2,306.3H7145h-304.4l-13.4,90c-15.3,101.5-78.5,239.3-151.3,325.5c-26.8,30.6-101.5,86.2-168.5,120.6c-114.9,61.3-132.1,65.1-354.2,72.8l-235.5,7.7V2409z"/><path d="M7908.9,2409l-153.2-306.3h306.3h306.3l153.2,306.3l153.2,306.3h-306.3h-306.3L7908.9,2409z"/><path d="M9134.2,2409L8981,2102.6h312.1h314l145.5,160.8l147.4,160.8l-160.8,145.5l-160.8,145.5h-145.5h-145.5L9134.2,2409z"/><path d="M4070.3,548c-49.8-149.3-352.3-1192.7-346.5-1198.5c9.6-9.6,587.8-7.7,597.3,1.9c5.7,3.8,78.5,239.3,162.7,522.7c84.2,283.3,164.6,555.2,180,606.9l26.8,90h-306.3C4156.5,571,4076.1,565.3,4070.3,548z"/></g></g>
</svg>