<?xml version="1.0" encoding="utf-8"?>
<!-- Svg Vector Icons : http://www.onlinewebfonts.com/icon -->
<!DOCTYPE svg PUBLIC "-//W3C//DTD SVG 1.1//EN" "http://www.w3.org/Graphics/SVG/1.1/DTD/svg11.dtd">
<svg version="1.1" xmlns="http://www.w3.org/2000/svg" xmlns:xlink="http://www.w3.org/1999/xlink" x="0px" y="0px" viewBox="0 0 1000 1000" enable-background="new 0 0 1000 1000" xml:space="preserve">
<metadata> Svg Vector Icons : http://www.onlinewebfonts.com/icon </metadata>
<g><path d="M105.6,703.3L33,921.1L10,990l68.9-23l217.8-72.6l8.1-2.7l6.1-6.1l653.4-653.4l25.7-25.7l-25.7-25.7L819.1,35.7L793.5,10l-25.7,25.7L114.3,689.1l-6.1,6.1L105.6,703.3L105.6,703.3z M174.4,726.3l-8.8,14.2L819.1,87h-51.3L913,232.2v-51.3L259.5,834.3l14.2-8.8L55.9,898.2l45.9,45.9L174.4,726.3L174.4,726.3z"/><path d="M819.1,326.1L673.9,180.9l-51.3,51.3l145.2,145.2L819.1,326.1L819.1,326.1z"/></g>
</svg>