<?xml version="1.0" encoding="utf-8"?>
<!-- Svg Vector Icons : http://www.onlinewebfonts.com/icon -->
<!DOCTYPE svg PUBLIC "-//W3C//DTD SVG 1.1//EN" "http://www.w3.org/Graphics/SVG/1.1/DTD/svg11.dtd">
<svg version="1.1" xmlns="http://www.w3.org/2000/svg" xmlns:xlink="http://www.w3.org/1999/xlink" x="0px" y="0px" viewBox="0 0 1000 1000" enable-background="new 0 0 1000 1000" xml:space="preserve">
<metadata> Svg Vector Icons : http://www.onlinewebfonts.com/icon </metadata>
<g><path d="M953.3,83.5H340.8c-20.3,0-36.7,28.1-36.7,49v49c0,20.9,28.7,49,49,49h588c20.3,0,49-28.1,49-49v-49C990,111.6,973.6,83.5,953.3,83.5z M941,426.5H353c-20.3,0-49,28-49,49v49c0,20.9,28.7,49,49,49h588c20.3,0,49-28.1,49-49v-49C990,454.5,961.3,426.5,941,426.5z M941,769.5H353c-20.3,0-49,28-49,49v49c0,20.9,28.7,49,49,49h588c20.3,0,49-28.1,49-49v-49C990,797.5,961.3,769.5,941,769.5z M157,83.5H46.8c-20.3,0-36.8,28.1-36.8,49v49c0,20.9,28.7,49,49,49h98c20.3,0,49-28.1,49-49v-49C206,111.6,177.3,83.5,157,83.5z M157,426.5H59c-20.3,0-49,28-49,49v49c0,20.9,28.7,49,49,49h98c20.3,0,49-28.1,49-49v-49C206,454.5,177.3,426.5,157,426.5z M157,769.5H59c-20.3,0-49,28-49,49v49c0,20.9,28.7,49,49,49h98c20.3,0,49-28.1,49-49v-49C206,797.5,177.3,769.5,157,769.5z"/></g>
</svg>