<?xml version="1.0" encoding="utf-8"?>
<!-- Svg Vector Icons : http://www.onlinewebfonts.com/icon -->
<!DOCTYPE svg PUBLIC "-//W3C//DTD SVG 1.1//EN" "http://www.w3.org/Graphics/SVG/1.1/DTD/svg11.dtd">
<svg version="1.1" xmlns="http://www.w3.org/2000/svg" xmlns:xlink="http://www.w3.org/1999/xlink" x="0px" y="0px" viewBox="0 0 1000 1000" enable-background="new 0 0 1000 1000" xml:space="preserve">
<metadata> Svg Vector Icons : http://www.onlinewebfonts.com/icon </metadata>
<g><path d="M615.3,471.2c-31.8,0-57.6-25.8-57.6-57.6c0-1.1,0-2.1,0.1-3.1c1.8-42.7,40.7-71.1,73.5-87.5c31.3-15.6,62.2-23.5,63.5-23.8c15.4-3.9,31.1,5.5,35,21c3.9,15.4-5.5,31.1-21,35c-15.9,4-34.7,10.9-51.3,19.2c9.6,10.3,15.5,24.1,15.5,39.3C672.9,445.4,647.1,471.2,615.3,471.2z M291.3,355c-15.4-3.9-24.8-19.5-21-34.9c3.9-15.4,19.5-24.8,35-21c1.3,0.3,32.3,8.2,63.5,23.8c32.8,16.4,71.7,44.7,73.5,87.5c0.1,1,0.1,2.1,0.1,3.1c0,31.8-25.8,57.6-57.6,57.6c-31.8,0-57.6-25.8-57.6-57.6c0-15.2,5.9-29,15.5-39.3C325.9,365.9,307.1,359,291.3,355z M500,730.6c73.5,0,137.7-39.3,173-97.9l74.2,44.5C696.8,761,604.9,817.1,500,817.1S303.2,761,252.8,677.1l74.2-44.5C362.3,691.3,426.5,730.6,500,730.6z M961.2,125.3c0-41-8.6-80-24-115.3C906.9,79.2,850.3,134.2,780,162.4C702.4,103,605.3,67.6,500,67.6c-105.3,0-202.4,35.3-280,94.7C149.7,134.2,93.1,79.2,62.8,10c-15.4,35.3-24,74.3-24,115.3c0,66.3,22.4,127.3,60,176c-38.2,67.1-60,144.8-60,227.5C38.8,783.5,245.3,990,500,990c254.7,0,461.2-206.5,461.2-461.2c0-82.8-21.8-160.4-60-227.5C938.8,252.6,961.2,191.6,961.2,125.3z M500,903.5c-207,0-374.7-167.8-374.7-374.7c0-207,167.8-374.7,374.7-374.7c207,0,374.7,167.8,374.7,374.7C874.7,735.8,707,903.5,500,903.5z"/></g>
</svg>