<?xml version="1.0" encoding="utf-8"?>
<!-- Svg Vector Icons : http://www.onlinewebfonts.com/icon -->
<!DOCTYPE svg PUBLIC "-//W3C//DTD SVG 1.1//EN" "http://www.w3.org/Graphics/SVG/1.1/DTD/svg11.dtd">
<svg version="1.1" xmlns="http://www.w3.org/2000/svg" xmlns:xlink="http://www.w3.org/1999/xlink" x="0px" y="0px" viewBox="0 0 1000 1000" enable-background="new 0 0 1000 1000" xml:space="preserve">
<metadata> Svg Vector Icons : http://www.onlinewebfonts.com/icon </metadata>
<g><path d="M500,10C229.4,10,10,229.4,10,500s219.4,490,490,490s490-219.4,490-490S770.6,10,500,10z M500,945.5C254.4,945.5,54.5,745.6,54.5,500C54.5,254.4,254.4,54.5,500,54.5c245.6,0,445.5,199.8,445.5,445.5C945.5,745.6,745.6,945.5,500,945.5z"/><path d="M165.8,589.2v22.2c0,122.8,150,222.7,334.2,222.7c184.2,0,334.2-99.9,334.2-222.7v-22.2H165.8z M500,789.2c-147.4,0-269.4-67.7-287.3-155.9h574.6C769.4,721.5,647.4,789.2,500,789.2z"/><path d="M232.7,377.5c0,43.1,34.9,78,78,78c43.1,0,78-34.9,78-78c0-43.1-34.9-78-78-78C267.6,299.5,232.7,334.4,232.7,377.5L232.7,377.5z"/><path d="M611.4,377.5c0,43.1,34.9,78,78,78s78-34.9,78-78c0-43.1-34.9-78-78-78S611.4,334.4,611.4,377.5z"/></g>
</svg>