<?xml version="1.0" encoding="utf-8"?>
<!-- Svg Vector Icons : http://www.onlinewebfonts.com/icon -->
<!DOCTYPE svg PUBLIC "-//W3C//DTD SVG 1.1//EN" "http://www.w3.org/Graphics/SVG/1.1/DTD/svg11.dtd">
<svg version="1.1" xmlns="http://www.w3.org/2000/svg" xmlns:xlink="http://www.w3.org/1999/xlink" x="0px" y="0px" viewBox="0 0 1000 1000" enable-background="new 0 0 1000 1000" xml:space="preserve">
<metadata> Svg Vector Icons : http://www.onlinewebfonts.com/icon </metadata>
<g><path d="M983.5,889.5L727,665.2c-7.8-6.9-19.8-6.1-26.7,1.8c-6.8,7.9-6.1,19.8,1.8,26.7L958.6,918c7.8,6.9,19.8,6,26.7-1.8C992.2,908.3,991.4,896.3,983.5,889.5L983.5,889.5z M544.2,407.7L278.1,180.5l-33.7-119c-14.4-12.3-36-10.5-48.3,3.8L18.2,274.1C5.9,288.5,7.7,310.2,22,322.5l122.7,14.6l270.6,231.1c-76.3,144-72.3,299,20.6,378.4l0,0l489.4-574.2C826.1,287.7,674.6,297.5,544.2,407.7L544.2,407.7z"/></g>
</svg>