<?xml version="1.0" encoding="utf-8"?>
<!-- Svg Vector Icons : http://www.onlinewebfonts.com/icon -->
<!DOCTYPE svg PUBLIC "-//W3C//DTD SVG 1.1//EN" "http://www.w3.org/Graphics/SVG/1.1/DTD/svg11.dtd">
<svg version="1.1" xmlns="http://www.w3.org/2000/svg" xmlns:xlink="http://www.w3.org/1999/xlink" x="0px" y="0px" viewBox="0 0 1000 1000" enable-background="new 0 0 1000 1000" xml:space="preserve">
<metadata> Svg Vector Icons : http://www.onlinewebfonts.com/icon </metadata>
<g><g transform="matrix(1 0 0 -1 0 1536)"><path d="M445.6,977v108.9c-68.4-6-141-28.2-217.8-66.4V914.6C305.3,950.9,377.9,971.7,445.6,977z M445.6,1214.1v111.7c-65-3-137.6-26.8-217.8-71.5v-107.2C309.1,1189.1,381.7,1211.4,445.6,1214.1z M917.4,951.5v104.4c-88.9-43.9-161.4-57.3-217.8-40.3v127c-7.6,2.3-14.9,5.1-22.1,8.5c-1.9,1.1-8.1,4.3-18.7,9.6c-10.6,5.3-17.1,8.5-19.6,9.6c-2.5,1.1-8.4,4-17.9,8.5c-9.5,4.5-16,7.5-19.6,8.8c-3.6,1.3-9.7,3.8-18.4,7.4s-15.5,6-20.4,7.1c-4.9,1.1-11.5,2.7-19.8,4.8c-8.3,2.1-15.8,3.5-22.4,4.3c-6.6,0.8-14.1,1.5-22.4,2.3c-8.3,0.8-16.6,1.1-25,1.1c-8.7,0-18-0.6-27.8-1.7V1087h10.8c38.6,0,75-5.5,109.2-16.4c34.2-11,71.6-26.5,112-46.5c7.2-3.4,14.6-6.2,22.1-8.5V909c15.9-6.4,33.1-9.6,51.6-9.6C796.6,899.3,852,916.7,917.4,951.5z M917.4,1193.7v107.2c-63.9-34.4-121.7-51.6-173.5-51.6c-17,0-31.8,1.5-44.2,4.5v-111.2C755.6,1126.7,828.2,1143.8,917.4,1193.7z M155.2,1399c0-13.2-3.3-25.3-9.9-36.3c-6.6-11-15.4-19.7-26.4-26.1v-718c0-5.3-1.7-9.6-5.1-13c-3.4-3.4-7.8-5.1-13-5.1H64.4c-5.3,0-9.6,1.7-13,5.1c-3.4,3.4-5.1,7.8-5.1,13v718c-11,6.4-19.8,15.1-26.4,26.1c-6.6,11-9.9,23.1-9.9,36.3c0,20,7.1,37.1,21.3,51.3c14.2,14.2,31.3,21.3,51.3,21.3s37.1-7.1,51.3-21.3S155.2,1419,155.2,1399z M990,1362.7V929.9c0-14.7-6.6-25.5-19.8-32.3c-3.8-1.9-7-3.6-9.6-5.1c-82.4-43.9-152.2-65.8-209.3-65.8c-33.3,0-63.1,6.6-89.6,19.8l-15.9,7.9c-24.2,12.5-42.9,21.6-56.1,27.2c-13.2,5.7-30.4,11.2-51.6,16.4c-21.2,5.3-42.7,7.9-64.7,7.9c-38.6,0-83.1-8.3-133.6-25c-50.5-16.6-93.7-35.9-129.6-57.8c-5.7-3.4-11.9-5.1-18.7-5.1c-6,0-12.1,1.5-18.1,4.5c-12.1,7.2-18.1,17.8-18.1,31.8v420.8c0,13.2,5.9,23.6,17.6,31.2c13.2,7.9,28.1,16,44.5,24.1c16.4,8.1,38,18,64.7,29.5c26.7,11.5,55.5,20.9,86.5,28.1s60.3,10.8,87.9,10.8c42.3,0,81.9-5.9,118.5-17.6c36.7-11.7,76.2-28,118.5-48.8c14.4-7.2,31.2-10.8,50.5-10.8c46.1,0,104.7,21.2,175.8,63.5c8.3,4.5,14.2,7.8,17.6,9.6c11.7,6,23.4,5.7,35.2-1.1C984.1,1386.3,990,1375.9,990,1362.7z"/></g></g>
</svg>