<?xml version="1.0" encoding="utf-8"?>
<!-- Svg Vector Icons : http://www.onlinewebfonts.com/icon -->
<!DOCTYPE svg PUBLIC "-//W3C//DTD SVG 1.1//EN" "http://www.w3.org/Graphics/SVG/1.1/DTD/svg11.dtd">
<svg version="1.1" xmlns="http://www.w3.org/2000/svg" xmlns:xlink="http://www.w3.org/1999/xlink" x="0px" y="0px" viewBox="0 0 1000 1000" enable-background="new 0 0 1000 1000" xml:space="preserve">
<metadata> Svg Vector Icons : http://www.onlinewebfonts.com/icon </metadata>
<g><path d="M796.1,456.4c6.9,9.1,11.6,20,13.1,32.1c2.4,19.1-3.4,37.3-14.7,51l-1-0.8c-14.1-5.8-24.8-18.8-26.9-35c-2.6-20.8,9.8-40,28.7-46.8L796.1,456.4z"/><path d="M792.5,451.9L792.5,451.9c-21.5,7.6-35.5,29.4-32.5,52.9c2.3,18.3,14.3,33,30.2,39.6c-10.2,10.2-23.7,17.2-39.1,19.2c-22.6,2.9-44-5.8-58.2-21.5l0,0c21.4-7.6,35.5-29.4,32.5-52.9c-2.3-18.4-14.4-33.1-30.4-39.6l0,0c10.2-10.2,23.7-17.3,39.2-19.3C756.8,427.4,778.2,436.2,792.5,451.9z"/><path d="M691.7,455.3c14.1,5.8,24.8,18.8,26.9,35c2.6,20.8-9.8,40-28.7,46.8l-0.9,0.3c-6.9-9.1-11.5-20-13-32.1c-2.4-19,3.4-37.2,14.7-51L691.7,455.3z"/><path d="M932.5,448.1l57.5,57.2l-57.2,57.5L932.5,448.1z"/><path d="M841.4,477.3l91.2-0.2l0.2,56.2l-91.2,0.2L841.4,477.3z"/><path d="M449.1,218.6l33,177.8L449.1,218.6z"/><path d="M480.3,645.4L455,782.9L480.3,645.4z"/><path d="M453.5,782.9"/><path d="M484.7,593.2"/><path d="M361.6,425l65.6,68l-68,65.6L361.6,425z"/><path d="M391.3,152.7c-3-3.6-19.6-18.7-33.2-19c-5.8-0.1-13.3-1.7-19,8.4c-2,3.6-4.1-17.5-4.1-17.5h43.8C378.8,124.6,394,155.9,391.3,152.7z"/><path d="M634.9,516.2c-1.9,4.6-4.2,10.9-9.6,11.5c-3.3,0.4-5.3-3.8-6.7-5.1c-11.5,0.2-57.4,1-75.6,0.9c-3-0.3-4.7-3.9-5.3-5.8c0,0,0.4,1.6,1.6,1.6c1,0,1.8-0.3,3.2-1.4c5.6-4.6,7.1-15.8,7.1-21.6c0-10.3-6.5-20.5-9-20.6c-0.8,0-1.2,0.1-1.8,0.7c-0.6,0.6-1.2,1.7-1.2,1.7s0-3.2,1.8-4.4c0.6-0.4,0.8-0.9,3-1c10.5-0.4,59.2,0,75.5-0.1c2.4-2.7,3.2-5.3,6.4-5.3c4.6-0.5,9.8,9.1,10.9,13.2c1.3,4.5,2.1,12.1,2.2,16.1C637.5,502.9,636.7,511.6,634.9,516.2z"/><path d="M381,878.8c8.4,0.9-40.2,2.8-48.1-0.3c-71-28.2-91.8-288.7-91.8-394c0-125.2,27.6-358.3,89.9-364.1c8.4-0.8,53.9-1.1,45.5-0.3c-89.3,8-99.3,269.2-99.3,363.5C277.2,578.4,290.4,869.4,381,878.8z"/><path d="M333,121.1c-8.4-0.5,42.5-3.5,50.3-0.5c85.8,32.2,105.1,292.9,105.1,398.2c0,125.2-25.5,347.1-110.6,361.4c-8.3,1.4-48.9-0.1-40.6-1.2c123.5-16.4,125.1-270.2,125.1-364.5C462.5,419.7,455.6,127.8,333,121.1z"/><path d="M384.9,874.8h-43.8c0,0-0.6-26.8,0.3-22.5c2.7,7,7.3,10.6,20.7,10.2c26,0.1,44.8-28.9,46.4-30.2C404.9,844.6,384.9,874.8,384.9,874.8z"/><path d="M451.8,781.8c0,0,29.7-176.6,34-194.5c9.2-50.6,31.8-69.1,35.7-89.8c-7.7-18.2-10.7-11.9-29.2-57.6c-7.7-15.9-9.7-33.4-12.1-44.6c-4.9-22.8-16.4-91.3-16.4-91.3L448,216.6l2.9,1c0,0,32.1,116,44.7,154.1c27.2,100.1,47.6,103.1,47.6,126.9c0,23.8-28.8,51.3-36.4,90.5c-4.2,16.3-52.2,191.6-52.2,191.6L451.8,781.8z"/><path d="M230.8,526.4L10,539.3l1.9-106.1l219.7,17.6L230.8,526.4z"/><path d="M317,148.4h4.9v698.2H317V148.4z"/><path d="M343.1,124.6h4.9v735h-4.9V124.6L343.1,124.6z"/><path d="M370.8,130h4.9v735h-4.9V130z"/><path d="M397.6,138.8h4.9v720.9h-4.9V138.8z"/><path d="M424.7,188h4.9v637h-4.9V188z"/><path d="M288.6,225.8l1.6-4.6l172.3,58.6l-1.6,4.6L288.6,225.8z"/><path d="M278.6,316.6l1.1-4.8l188.1,44.5l-1.1,4.8L278.6,316.6z"/><path d="M267.4,400.8l0.8-4.8l206.3,33.8l-0.8,4.8L267.4,400.8z"/><path d="M332,502l0-4.9l140.4,0.8l0,4.9L332,502z"/><path d="M460.7,720.6l1.6,4.6l-172.3,58.6l-1.6-4.6L460.7,720.6L460.7,720.6z"/><path d="M466.7,643.8l1.1,4.8l-188.1,44.5l-1.1-4.8L466.7,643.8z"/><path d="M473.6,570.4l0.8,4.8l-206.3,33.8l-0.8-4.8L473.6,570.4z"/><path d="M310.8,521.4l-24.5,1.4l0.9-67.2l23.6,1.9V521.4z"/><path d="M379,517.3l-51.9,3.1l0.5-61.6l52.4,4.2L379,517.3z"/></g>
</svg>