<?xml version="1.0" encoding="utf-8"?>
<!-- Svg Vector Icons : http://www.onlinewebfonts.com/icon -->
<!DOCTYPE svg PUBLIC "-//W3C//DTD SVG 1.1//EN" "http://www.w3.org/Graphics/SVG/1.1/DTD/svg11.dtd">
<svg version="1.1" xmlns="http://www.w3.org/2000/svg" xmlns:xlink="http://www.w3.org/1999/xlink" x="0px" y="0px" viewBox="0 0 1000 1000" enable-background="new 0 0 1000 1000" xml:space="preserve">
<metadata> Svg Vector Icons : http://www.onlinewebfonts.com/icon </metadata>
<g><path d="M949,420.3c24.8,16.5,41,43.1,41,72.9v367.3c0,49.8-45.1,90.5-100.2,90.5H110.2C55.1,951.1,10,910.4,10,860.6l0-367.3c0-23.7,10.2-45.3,26.8-61.5l0,0l0.2-0.2c1.4-1.4,2.9-2.8,4.4-4.1L439,72.2c38.9-29.8,77.9-31,116.8-3.8L949,420.3L949,420.3L949,420.3z M180.3,336v217.9l324.5,227.4l296.3-210.1V336H180.3L180.3,336L180.3,336z M285.5,389.4v36.5h414.9v-36.5H285.5L285.5,389.4L285.5,389.4z M285.5,542.9v36.4h414.9v-36.4H285.5L285.5,542.9L285.5,542.9z M285.5,464.9v36.5h414.9v-36.5L285.5,464.9L285.5,464.9L285.5,464.9z M119.2,893.7l194.9-169c8.3-7.3,8.6-19.3,0.6-26.8c-8-7.5-21.3-7.7-29.7-0.5l-194.9,169c-8.3,7.2-8.6,19.2-0.6,26.8C97.6,900.8,110.9,901,119.2,893.7L119.2,893.7L119.2,893.7z M923.7,866.4l-194.9-169c-8.3-7.2-21.6-7-29.7,0.5c-8,7.6-7.8,19.6,0.6,26.8l194.9,169c8.4,7.3,21.6,7.1,29.7-0.5C932.3,885.7,932,873.6,923.7,866.4L923.7,866.4z"/></g>
</svg>