<?xml version="1.0" encoding="utf-8"?>
<!-- Svg Vector Icons : http://www.onlinewebfonts.com/icon -->
<!DOCTYPE svg PUBLIC "-//W3C//DTD SVG 1.1//EN" "http://www.w3.org/Graphics/SVG/1.1/DTD/svg11.dtd">
<svg version="1.1" xmlns="http://www.w3.org/2000/svg" xmlns:xlink="http://www.w3.org/1999/xlink" x="0px" y="0px" viewBox="0 0 1000 1000" enable-background="new 0 0 1000 1000" xml:space="preserve">
<metadata> Svg Vector Icons : http://www.onlinewebfonts.com/icon </metadata>
<g><path d="M733.1,610.4"/><path d="M975.7,875.7L791.6,691.7c50.5-70.6,80.6-156.8,80.6-250c0-237.7-193.3-431.1-431.1-431.1S10,203.9,10,441.6c0,237.8,193.3,431.1,431.1,431.1c92.7,0,178.4-29.7,248.7-79.6l184.3,184.3c13.9,13.9,43.3,16.9,57.3,2.9l50.8-50.8C996.2,915.5,989.7,889.8,975.7,875.7L975.7,875.7z M81.8,441.6C81.8,243.5,242.9,82.4,441,82.4c198.1,0,359.2,161.2,359.2,359.2c0,198.1-161.2,359.2-359.2,359.2C242.9,800.9,81.8,639.7,81.8,441.6L81.8,441.6z"/></g>
</svg>