<?xml version="1.0" encoding="utf-8"?>
<!-- Svg Vector Icons : http://www.onlinewebfonts.com/icon -->
<!DOCTYPE svg PUBLIC "-//W3C//DTD SVG 1.1//EN" "http://www.w3.org/Graphics/SVG/1.1/DTD/svg11.dtd">
<svg version="1.1" xmlns="http://www.w3.org/2000/svg" xmlns:xlink="http://www.w3.org/1999/xlink" x="0px" y="0px" viewBox="0 0 1000 1000" enable-background="new 0 0 1000 1000" xml:space="preserve">
<metadata> Svg Vector Icons : http://www.onlinewebfonts.com/icon </metadata>
<g><path d="M500,372.7c-112.8,0-204.6,91.8-204.6,204.6c0,112.9,91.8,204.6,204.6,204.6c112.9,0,204.7-91.8,204.7-204.6C704.7,464.5,612.9,372.7,500,372.7z M500,734.8c-86.8,0-157.5-70.7-157.5-157.5c0-86.8,70.7-157.5,157.5-157.5c86.8,0,157.5,70.7,157.5,157.5C657.5,664.1,586.8,734.8,500,734.8z"/><path d="M849.2,312.7h-54.9c-13,0-23.5,10.6-23.5,23.6c0,13,10.6,23.5,23.5,23.5h54.9c13,0,23.6-10.5,23.6-23.5C872.7,323.3,862.1,312.7,849.2,312.7z"/><path d="M873.1,213.1H747.4C741.5,184.3,710.2,59.4,607,59.4H393c-103.1,0-134.5,124.8-140.4,153.7H126.9C62.4,213.1,10,265.5,10,329.9v493.9c0,64.5,52.4,116.9,116.9,116.9h746.3c64.5,0,116.9-52.4,116.9-116.9V329.9C990,265.5,937.6,213.1,873.1,213.1z M500,781.9c-112.8,0-204.6-91.8-204.6-204.6c0-112.8,91.8-204.6,204.6-204.6c112.9,0,204.7,91.8,204.7,204.6C704.7,690.1,612.9,781.9,500,781.9z M849.2,359.8h-54.9c-13,0-23.5-10.6-23.5-23.5c0-13,10.6-23.6,23.5-23.6h54.9c13,0,23.6,10.6,23.6,23.6C872.7,349.3,862.1,359.8,849.2,359.8z"/><path d="M500,419.8c-86.8,0-157.5,70.7-157.5,157.5c0,86.8,70.7,157.5,157.5,157.5c86.9,0,157.5-70.7,157.5-157.5C657.5,490.4,586.8,419.8,500,419.8z"/></g>
</svg>