<?xml version="1.0" encoding="utf-8"?>
<!-- Svg Vector Icons : http://www.onlinewebfonts.com/icon -->
<!DOCTYPE svg PUBLIC "-//W3C//DTD SVG 1.1//EN" "http://www.w3.org/Graphics/SVG/1.1/DTD/svg11.dtd">
<svg version="1.1" xmlns="http://www.w3.org/2000/svg" xmlns:xlink="http://www.w3.org/1999/xlink" x="0px" y="0px" viewBox="0 0 1000 1000" enable-background="new 0 0 1000 1000" xml:space="preserve">
<metadata> Svg Vector Icons : http://www.onlinewebfonts.com/icon </metadata>
<g><path d="M981.9,559.3L981.9,559.3l-461-461c-5.5-5.5-12.9-8.6-20.6-8.6c-7.7,0-15.2,3.1-20.6,8.6l-461,461c-11.4,11.4-11.4,29.9,0,41.3c11.4,11.4,26.2,11.4,37.6,0l88.2-91.9v365.2c0,16.1,20.4,36.5,36.5,36.5h167.9V654.9c0-56.3,43.5-94.9,99.9-94.9h96.9c56.3,0,95.2,38.5,95.2,94.9v255.4h182.5c16.1,0,21.9-20.4,21.9-36.5V512.3l91.9,88.2c5.7,5.7,15,8.6,22.5,8.6c7.5,0,15.9-2.9,21.6-8.6C992.4,589.2,993.3,570.7,981.9,559.3z"/></g>
</svg>