<?xml version="1.0" encoding="utf-8"?>
<!-- Svg Vector Icons : http://www.onlinewebfonts.com/icon -->
<!DOCTYPE svg PUBLIC "-//W3C//DTD SVG 1.1//EN" "http://www.w3.org/Graphics/SVG/1.1/DTD/svg11.dtd">
<svg version="1.1" xmlns="http://www.w3.org/2000/svg" xmlns:xlink="http://www.w3.org/1999/xlink" x="0px" y="0px" viewBox="0 0 1000 1000" enable-background="new 0 0 1000 1000" xml:space="preserve">
<metadata> Svg Vector Icons : http://www.onlinewebfonts.com/icon </metadata>
<g><g><g><path d="M331.2,141.5v176.6h-27.3c-55.1,0-99.9,47-99.9,104.7c0,36.3,17.8,68.4,44.6,87.1c-27.1,20.6-44.6,53-44.6,89.6c0,42.7,23.8,79.8,58.9,98.9c-16.7,16.7-27,39.7-27,65c0,39.1,24.6,72.5,59.1,85.8C279,864.1,269,885.1,269,908.5c0,44.9,36.5,81.5,81.5,81.5h160.4c41.6,0,75.6-31.5,80.5-71.8c25.4-13.1,48-38.3,66.3-72.5H796V403.4H659.3c-19.3-37.1-43.5-64.4-71.1-77.4V141.5C588.2,69,530.5,10,459.7,10C388.8,10,331.2,69,331.2,141.5z M459.7,50.6c48.5,0,87.9,40.8,87.9,90.9v212.2c-18.3-21.8-45.1-35.6-74.9-35.6H371.8V141.5C371.8,91.4,411.2,50.6,459.7,50.6z M624.5,423.7c6.3,12.4,12,26.4,17.2,41.8C655.9,508.1,665,561.5,665,623c0,53.1-8.5,108.7-23.3,155.3c-5.5,17.2-11.8,33-18.9,47.1c-3.7,7.3-7.6,14.1-11.7,20.3c-8,12.2-16.7,22.3-26,29.5c-5.6-12.5-14.3-23.1-25.1-31.3c18.6-10.3,33.2-26.8,41.1-46.6c4.2-10.5,6.5-21.9,6.5-33.9c0-12-2.4-23.4-6.5-33.9c-4.3-10.9-10.6-20.7-18.5-29c6.6-3.2,12.7-7,18.5-11.4c7.6-5.8,14.4-12.4,20.3-19.8c9.3-11.7,16.2-25.3,20.3-40.1c2.6-9.5,4.1-19.5,4.1-29.8s-1.5-20.3-4.1-29.8c-4.1-14.8-11-28.4-20.3-40c-5.9-7.4-12.7-14.1-20.3-19.8c-14.5-11-31.8-18.6-50.6-21.5c13.8-18,22.1-40.7,22.1-65.5c0-25.3-8.6-48.5-22.9-66.6l12.9,3.5c17.3,4.7,34.7,20,50.2,43.7C616.8,409.6,620.8,416.3,624.5,423.7z M755.4,444v361.2h-79.7c18.8-50.6,29.9-113.3,29.9-182.2c0-67-10.6-128.7-28.7-179C676.9,444,755.4,444,755.4,444z M551.6,908.5c0,7.3-2.1,14-5.4,19.9c-7,12.4-20.2,20.9-35.4,20.9H350.5c-22.5,0-40.8-18.3-40.8-40.9c0-22.5,18.3-40.8,40.8-40.8h105.7h25.2h26.9h2.5c14.9,0,27.8,8.1,34.9,20c3.7,6.1,5.9,13.2,5.9,20.8C551.6,908.4,551.6,908.5,551.6,908.5z M276.4,763.5c0-28.3,23-51.3,51.3-51.3h74.6h20.6h20.6h72.1c28.3,0,51.3,23,51.3,51.3c0,28.3-23,51.3-51.3,51.3h-42.3h-22.1h-22.4H327.8C299.5,814.8,276.4,791.8,276.4,763.5z M316.6,671.5c-39.7,0-72-32.3-72-72s32.3-72,72-72h14.6h20.3h20.3h100.8h60.5c31.6,0,58.2,20.6,67.9,49c2.5,7.3,4.1,15,4.1,23.1c0,8.1-1.6,15.8-4.1,23.1c-9.7,28.4-36.3,49-67.9,49h-17.5h-77h-20.4h-31.3h-59.1L316.6,671.5L316.6,671.5z M303.9,486.9c-32.7,0-59.3-28.7-59.3-64.1c0-35.3,26.6-64.1,59.3-64.1h27.3h20.3h20.3h100.8c32.7,0,59.3,28.7,59.3,64.1c0,35.3-26.6,64.1-59.3,64.1H371.8h-20.3h-20.3h-14.6H303.9z"/></g></g><g></g><g></g><g></g><g></g><g></g><g></g><g></g><g></g><g></g><g></g><g></g><g></g><g></g><g></g><g></g></g>
</svg>