<?xml version="1.0" encoding="utf-8"?>
<!-- Svg Vector Icons : http://www.onlinewebfonts.com/icon -->
<!DOCTYPE svg PUBLIC "-//W3C//DTD SVG 1.1//EN" "http://www.w3.org/Graphics/SVG/1.1/DTD/svg11.dtd">
<svg version="1.1" xmlns="http://www.w3.org/2000/svg" xmlns:xlink="http://www.w3.org/1999/xlink" x="0px" y="0px" viewBox="0 0 1000 1000" enable-background="new 0 0 1000 1000" xml:space="preserve">
<metadata> Svg Vector Icons : http://www.onlinewebfonts.com/icon </metadata>
<g><g transform="translate(0.000000,511.000000) scale(0.100000,-0.100000)"><path d="M100,110v-4900h4900h4900V110v4900H5000H100V110z M9491.7,110v-4491.7H5000H508.3V110v4491.7H5000h4491.7V110z"/><path d="M2960.9,3310.3c-204.2-53.6-370.1-153.1-525.7-319c-433.9-454.3-416-1130.6,35.7-1564.4c446.6-423.6,1089.7-423.6,1536.4,0C4459,1860.7,4476.8,2537,4043,2991.3C3752,3297.5,3351.4,3415,2960.9,3310.3z M3468.7,2902c273.1-81.7,484.9-380.3,484.9-686.5c0-364.9-336.9-701.8-701.8-701.8c-400.7,0-727.3,326.7-727.3,727.3c0,178.7,74,344.5,216.9,487.5C2943,2932.6,3180.4,2988.7,3468.7,2902z"/><path d="M6760.9,1352.9c-245-507.9-594.6-1227.6-773.3-1600.2l-329.2-676.3L5245-99.3c-224.6,451.7-416,821.8-423.6,821.8S4543.2,260.6,4216.5-306c-324.1-564-929-1615.5-1344.9-2337.7c-416-722.2-750.3-1316.9-747.8-1322c5.1-5.1,1590-5.1,3519.3-2.5l3511.7,7.6l-865.1,2769c-477.2,1523.6-906,2911.9-957,3088c-51,176.1-99.6,331.8-109.8,349.6C7215.2,2261.4,7005.9,1860.7,6760.9,1352.9z M7871.1-1201.8c400.7-1288.8,724.8-2347.9,719.7-2353c-5.1-5.1-1309.2-7.7-2896.6-5.1l-2886.4,7.7l982.5,1707.4c538.5,941.7,985.1,1715,992.8,1720.1c5.1,5.1,204.2-375.2,439-847.3l428.8-857.5l727.3,1503.2c400.7,826.9,735,1495.5,742.6,1487.9C7131,1151.2,7467.9,89.6,7871.1-1201.8z"/></g></g>
</svg>