<?xml version="1.0" encoding="utf-8"?>
<!-- Svg Vector Icons : http://www.onlinewebfonts.com/icon -->
<!DOCTYPE svg PUBLIC "-//W3C//DTD SVG 1.1//EN" "http://www.w3.org/Graphics/SVG/1.1/DTD/svg11.dtd">
<svg version="1.1" xmlns="http://www.w3.org/2000/svg" xmlns:xlink="http://www.w3.org/1999/xlink" x="0px" y="0px" viewBox="0 0 1000 1000" enable-background="new 0 0 1000 1000" xml:space="preserve">
<metadata> Svg Vector Icons : http://www.onlinewebfonts.com/icon </metadata>
<g><path d="M362.9,510.7c120.1,0,217.9-97.7,217.9-217.9c0-120.1-97.8-217.9-217.9-217.9S145,172.6,145,292.8C145,413,242.8,510.7,362.9,510.7z M362.9,105.6c103.2,0,187.2,84,187.2,187.2c0,103.2-84,187.2-187.2,187.2s-187.2-84-187.2-187.2C175.7,189.5,259.7,105.6,362.9,105.6z"/><path d="M737.4,657c-34.8,0-68.5,7-100.3,20.7c-2.1,0.9-3.8,2.3-5.3,3.9C567,605.3,470.6,556.8,362.9,556.8C168.3,556.8,10,715.1,10,909.7c0,8.5,6.9,15.4,15.4,15.4c8.5,0,15.4-6.9,15.4-15.4c0-177.6,144.5-322.2,322.2-322.2c177.6,0,322.2,144.6,322.2,322.2c0,8.5,6.9,15.4,15.4,15.4c8.4,0,15.4-6.9,15.4-15.4c0-76.1-24.5-146.5-65.6-204.2c27.6-11.8,56.9-17.8,87.1-17.8c122.3,0,221.9,99.5,221.9,222c0,8.5,6.9,15.4,15.4,15.4c8.4,0,15.4-6.9,15.4-15.4C990,770.4,876.7,657,737.4,657z"/><path d="M737.4,591.3c87,0,157.8-70.8,157.8-157.8c0-87-70.8-157.8-157.8-157.8c-87,0-157.8,70.7-157.8,157.8C579.6,520.5,650.4,591.3,737.4,591.3z M737.4,306.5c70,0,127.1,57,127.1,127c0,70-57,127.1-127.1,127.1c-70.1,0-127.1-57-127.1-127.1C610.3,363.5,667.3,306.5,737.4,306.5z"/></g>
</svg>