<?xml version="1.0" encoding="utf-8"?>
<!-- Svg Vector Icons : http://www.onlinewebfonts.com/icon -->
<!DOCTYPE svg PUBLIC "-//W3C//DTD SVG 1.1//EN" "http://www.w3.org/Graphics/SVG/1.1/DTD/svg11.dtd">
<svg version="1.1" xmlns="http://www.w3.org/2000/svg" xmlns:xlink="http://www.w3.org/1999/xlink" x="0px" y="0px" viewBox="0 0 1000 1000" enable-background="new 0 0 1000 1000" xml:space="preserve">
<metadata> Svg Vector Icons : http://www.onlinewebfonts.com/icon </metadata>
<g><path d="M500,10C229.4,10,10,229.4,10,500c0,270.6,219.4,490,490,490c270.6,0,490-219.4,490-490C990,229.4,770.6,10,500,10z M500,935.6c-240.5,0-435.6-195-435.6-435.6c0-240.5,195-435.6,435.6-435.6c240.5,0,435.6,195,435.6,435.6C935.6,740.6,740.5,935.6,500,935.6z"/><path d="M500,500"/><path d="M500,795c-9.7,0-19-3.2-26.8-9.3c-6.4-4.9-156.5-121.6-216.6-215.8c-21.1-33.1-47.3-74.3-47.3-134.1c0-100.9,75.5-183,168.3-183c46.6,0,90.7,20.9,122.5,57.6c31.7-36.7,75.9-57.6,122.5-57.6c92.8,0,168.3,82.1,168.3,183c0,59.8-26.3,101-47.4,134.1c-60.2,94.4-210.2,210.9-216.6,215.8C519,791.8,509.7,795,500,795z M377.5,312.7c-61.6,0-111.7,55.2-111.7,123.1c0,38.4,16.3,67.1,37.7,100.6c48,75.3,168.5,173.5,196.5,195.7c27.9-22.2,148.5-120.5,196.5-195.7c21.4-33.5,37.7-62.2,37.7-100.6c0-67.9-50.1-123.1-111.7-123.1c-43.9,0-83.8,28.6-101.9,72.8c-0.1,0.3-0.3,0.7-0.5,1c-3.4,8.6-11.2,14.1-20.1,14.1c-8.8,0-16.6-5.4-20-13.9c-0.2-0.3-0.3-0.7-0.5-1.1C461.5,341.4,421.5,312.7,377.5,312.7z"/></g>
</svg>