<?xml version="1.0" encoding="utf-8"?>
<!-- Svg Vector Icons : http://www.onlinewebfonts.com/icon -->
<!DOCTYPE svg PUBLIC "-//W3C//DTD SVG 1.1//EN" "http://www.w3.org/Graphics/SVG/1.1/DTD/svg11.dtd">
<svg version="1.1" xmlns="http://www.w3.org/2000/svg" xmlns:xlink="http://www.w3.org/1999/xlink" x="0px" y="0px" viewBox="0 0 1000 1000" enable-background="new 0 0 1000 1000" xml:space="preserve">
<metadata> Svg Vector Icons : http://www.onlinewebfonts.com/icon </metadata>
<g><g><g><path d="M944,193.3c-75.8-87.5-323-206.3-328.7-6.7c0,5.6,5.6,12.3,11.8,11.8c81.9-8.2,156.1-14.8,219.6,48.1c56.8,55.8,77.3,176.6,4.1,224.2c-6.1-22.5-14.8-44.5-27.1-65C721.8,233.2,468.9,317.7,368,449.2c22.5-78.8,5.1-172-61.4-231.9c-5.6-5.1-14.3-2-17.9,3.6c-16.9,11.8-26.6,30.2-34.8,48.6c-0.5,1.5-0.5,2.6-0.5,4.1c-42-15.9-100.3-6.7-140.3,5.1c-5.1-18.4-10.2-38.4-13.3-56.3c0-0.5-0.5-1-1-1.5c0.5-0.5,1-1,1-1c5.1-4.6-1.5-13.8-7.7-9.7C-39,297.2-9.3,561.9,154,591.6v0.5c-11.8,120.3,48.1,267.8,157.2,328.7c7.2,4.1,13.3,0.5,15.9-5.1c5.6,2,8.7,0.5,23.5-6.7c3.6-1.5,5.1-6.7,4.1-10.2c-16.4-54.8-49.1-101.9-60.9-156.1c31.7,52.2,57.9,108,114.2,139.3c7.7,4.1,15.9-1,16.4-9.2c9.2-137.7-75.3-351.7,133.1-369.6c133.6-11.3-17.4,281.1-30.2,337.4c-2,8.7,5.6,17.4,14.3,14.3c74.2-22.5,99.8-91.1,158.2-136.2c70.6-54.3-21.5,69.1-33.8,86.5c-21.5,30.2-29.7,60.4-33.3,96.2c-0.5,4.1,2.6,8.7,6.1,10.2c23,11.8,27.1,10.2,50.7-0.5c12.3-5.6,3.1-26.6-9.2-21.5c-49.1,20,27.1-101.4,35.3-112.1c20.5-27.1,35.8-53.8,46.6-86c3.1-9.2-6.1-15.9-14.3-14.3c-66,11.8-97.8,56.8-138.7,106.5c-14.8,17.9-66,79.4-49.1,29.2c10.2-30.2,23-59.4,34.8-88.6c24.1-60.9,87.5-191,8.7-237.5c-87-52.2-188.9,40.4-207.9,118.8c-14.3,58.9-4.1,123.9,2,183.3c1.5,15.4,3.1,31.2,4.1,46.6c2.6,32.3,8.7,26.1-20,1.5c-41.5-35.3-61.9-100.9-94.2-144.9c-6.7-8.7-20.5-6.1-21,5.6c-0.5,30.2,1,57.3,13.3,86c7.7,17.9,59.4,104.9,35.8,111.1c-92.7-73.2-145.4-182.8-144.9-301.5c1.5,0,3.1,0.5,4.6,0.5c86.5,4.1,148.5-45.1,178.7-112.1c1.5,0.5,3.6,0,4.6-1.5c109.6-134.1,381.9-233.4,461.8-14.8c49.7,135.7-33.8,311.3-127.5,407c-11.8,11.8,6.1,29.7,18.4,18.4c97.3-92.2,168.4-256,142.8-395.2c87.5-48.6,72.7-158.2,30.2-234.5c-24.6-44-69.6-73.2-117.2-86c-27.6-7.7-58.4-6.1-87-4.6c-2.6,0-43.5,4.6-43.5,1.5c1-20,8.2-38.4,21.5-53.2c66.6-76.3,229.9,51.2,273.4,101.4c59.9,68.6,52.2,307.2-65.5,308.7c-6.1,0-8.2,10.2-1.5,11.3C1023.3,572.1,1009,268.5,944,193.3z M209.3,569C26.5,591.6-6.2,335.6,91.1,229.1c-1,22.5-1,43,3.6,66.6c1,5.6,8.2,9.2,13.3,7.7c28.7-8.2,56.8-13.3,86.5-13.8c25.6-0.5,47.6,8.2,72.2,11.8c7.7,1,16.4-8.7,8.7-14.8c-3.6-2.6-7.2-5.1-11.3-7.2c0.5-0.5,1-1,1.5-2c7.7-14.3,15.9-28.7,28.7-38.4C372.1,348.4,379.8,548,209.3,569z"/></g></g><g></g><g></g><g></g><g></g><g></g><g></g><g></g><g></g><g></g><g></g><g></g><g></g><g></g><g></g><g></g></g>
</svg>