<?xml version="1.0" encoding="utf-8"?>
<!-- Svg Vector Icons : http://www.onlinewebfonts.com/icon -->
<!DOCTYPE svg PUBLIC "-//W3C//DTD SVG 1.1//EN" "http://www.w3.org/Graphics/SVG/1.1/DTD/svg11.dtd">
<svg version="1.1" xmlns="http://www.w3.org/2000/svg" xmlns:xlink="http://www.w3.org/1999/xlink" x="0px" y="0px" viewBox="0 0 1000 1000" enable-background="new 0 0 1000 1000" xml:space="preserve">
<metadata> Svg Vector Icons : http://www.onlinewebfonts.com/icon </metadata>
<g><g transform="translate(0.000000,512.000000) scale(0.100000,-0.100000)"><path d="M105.7,4292.9l5.7-725.1l44-47.8c76.5-80.4,181.8-82.3,281.3-3.8c36.3,28.7,38.3,59.3,47.8,570.2l9.6,539.6l530,9.6l531.9,9.6l51.7,53.6c72.7,70.8,70.8,185.6-1.9,260.2l-49.8,49.7l-729,5.7L100,5020L105.7,4292.9z"/><path d="M8453.5,5000.9c-86.1-36.4-139.6-153.1-105.2-235.3c51.7-124.4,26.8-120.5,618-130.1l539.5-9.6l9.6-530l9.6-531.9l53.6-51.7c70.8-72.7,185.6-70.8,260.2,1.9l49.7,49.8l5.8,727.1l5.7,727.1l-704.1-1.9C8809.4,5016.2,8474.6,5008.5,8453.5,5000.9z"/><path d="M4648,4807.6c-139.7-24.9-325.3-124.4-405.6-216.2c-93.8-109.1-174.1-283.2-197.1-434.3c-11.5-68.9-21-466.8-23-899.3l-1.9-774.9L3907.5,3055c-128.2,637.1-176,778.7-325.3,939.4c-428.6,464.9-1192,214.3-1303-428.6c-21-126.3-17.2-172.2,107.1-991.1C2570.1,1352.2,2759.5,54.9,2753.8,49.2c-1.9-1.9-80.4,93.8-172.2,216.2c-93.8,120.5-202.8,248.7-243,283.2c-241.1,204.7-608.4,260.2-884,130.1c-300.4-139.7-484.1-486-434.3-822.7c23-149.2,44-206.6,185.6-476.4l122.5-233.4l-554.9-5.8l-556.8-5.7L165-918.9c-44-42.1-53.6-68.9-51.7-137.7c1.9-101.4,42.1-155,139.7-183.7c47.8-13.4,1574.7-17.2,4789-13.4l4720.1,5.8l51.6,40.2c99.5,74.6,99.5,227.7,0,302.3c-51.6,38.3-76.5,40.2-960.5,45.9l-906.9,5.8v455.4V58.8l141.6,916.5c193.2,1232.2,189.4,1203.5,179.9,1427.3c-5.8,176-13.4,210.5-68.9,325.3c-107.2,216.2-283.2,319.5-545.3,319.5c-248.7,0-428.6-130.1-562.5-407.5c-36.4-76.5-61.3-116.7-55.5-89.9c3.8,26.8,28.7,239.2,51.6,472.6c51.7,489.8,40.2,658.2-53.6,843.8c-118.6,233.4-392.2,363.5-727.1,344.4c-323.4-19.1-551.1-212.4-667.8-568.3l-40.2-122.5l-13.4,348.2c-13.4,390.3-38.3,491.7-151.1,648.6C5275.5,4738.7,4946.4,4861.2,4648,4807.6z M4994.3,4388.6c49.8-23,99.5-67,133.9-118.6l53.6-82.3l9.6-1865.5c7.7-1505.8,15.3-1877,34.5-1911.4c78.4-137.8,304.2-103.3,348.2,51.7c11.5,38.3,105.2,715.6,212.4,1503.9c105.2,790.2,200.9,1469.4,210.4,1511.5c49.8,181.8,168.4,321.4,294.6,346.3c158.8,28.7,357.8-47.8,403.7-155c15.3-40.2,26.8-132,26.8-237.2c0-155-109-1151.8-298.5-2739.9c-61.2-512.8-67-593.1-44-641c36.4-74.6,130.1-126.3,204.7-111c126.3,24.9,130.1,34.4,422.8,1073.4c388.4,1377.6,438.2,1523,549.1,1611c88,68.9,235.4,38.3,290.8-63.1c65.1-118.6,44-354-135.8-1488.6L7544.7,24.3v-440.1v-440.1l-2232.8,1.9c-1230.3,0-2217.5,7.7-2196.5,15.3c89.9,38.3,114.8,93.7,111,241.1c-5.7,195.2-156.9,1278.1-438.1,3128.3c-126.3,836.1-135.8,937.5-103.3,1054.2c23,82.3,120.5,185.6,208.5,221.9c86.1,36.4,233.4,34.4,304.2-1.9c82.3-42.1,166.5-151.2,200.9-260.2c17.2-51.7,122.5-562.5,233.4-1132.7C3842.5,1333,3989.8,613.6,4024.2,487.4c23-89.9,70.8-135.8,160.7-156.9c78.5-17.2,172.2,28.7,202.8,99.5c9.6,24.9,24.9,822.7,32.5,1890.4l15.3,1846.4l47.8,86.1C4571.4,4411.6,4804.8,4474.7,4994.3,4388.6z M1879.4,347.7c51.7-11.5,128.2-44,170.3-72.7c40.2-30.6,243-277.4,459.2-562.5c212.4-279.3,405.6-522.3,428.6-539.5c40.2-26.8-9.6-28.7-558.7-28.7h-602.7l-179.8,336.7c-151.2,283.2-179.9,354-187.5,447.7c-19.1,197.1,93.8,365.4,277.4,420.9C1758.9,370.6,1770.3,370.6,1879.4,347.7z"/><path d="M2042-1653.7c-72.7-13.4-132-95.7-132-183.7c0-67,32.5-132,189.4-396c537.6-897.4,1088.7-1584.2,1551.7-1934.4c193.2-145.4,528.1-311.9,727.1-363.5c84.2-21.1,227.7-40.2,319.5-42.1c151.1-3.8,168.4,0,214.3,42.1c65,61.2,80.4,153.1,40.2,231.5c-38.3,72.7-128.2,114.8-254.5,114.8c-267.9,0-669.7,191.3-970.1,461.1c-380.7,342.5-872.5,987.3-1299.1,1702.9c-91.8,155-185.6,298.5-208.5,319.5C2174-1661.3,2105.2-1642.2,2042-1653.7z"/><path d="M7686.3-1653.7c-22.9-3.8-61.2-28.7-84.2-53.5c-40.2-42.1-47.8-80.4-68.9-338.7c-53.6-625.6-128.2-945.1-313.8-1325.9c-225.8-463-522.3-715.6-939.4-801.7c-185.6-38.3-200.9-44-233.4-95.7c-59.3-89.9-40.2-220,40.2-271.7c149.2-99.5,612.3,38.3,916.5,271.7c325.3,250.6,552.9,593.1,713.7,1077.2c124.4,371.2,210.5,885.8,210.5,1257c0,164.5-1.9,176-51.6,221.9C7820.2-1659.4,7753.3-1638.3,7686.3-1653.7z"/><path d="M243.5-3222.6c-23-3.8-61.2-28.7-86.1-55.5l-45.9-49.8l-5.7-725.1L100-4780l727.1,5.7l725.1,5.8l47.8,44c80.4,76.5,82.3,181.8,3.8,281.3c-28.7,36.4-59.3,38.3-570.2,47.8l-539.6,9.6l-9.6,530L475-3324l-47.8,45.9C377.4-3228.3,310.5-3207.3,243.5-3222.6z"/><path d="M9649.4-3224.5c-17.2-7.7-51.7-28.7-76.5-47.8l-47.8-32.5l-9.6-541.5l-9.6-539.5l-530-9.6L8444-4405l-51.7-53.6c-72.7-70.8-70.8-185.6,1.9-260.2l49.7-49.7l729-5.8l727.1-5.7l-5.7,727.1l-5.8,729l-47.8,45.9C9789.1-3228.3,9697.2-3203.5,9649.4-3224.5z"/></g></g>
</svg>