<?xml version="1.0" encoding="utf-8"?>
<!-- Svg Vector Icons : http://www.onlinewebfonts.com/icon -->
<!DOCTYPE svg PUBLIC "-//W3C//DTD SVG 1.1//EN" "http://www.w3.org/Graphics/SVG/1.1/DTD/svg11.dtd">
<svg version="1.1" xmlns="http://www.w3.org/2000/svg" xmlns:xlink="http://www.w3.org/1999/xlink" x="0px" y="0px" viewBox="0 0 1000 1000" enable-background="new 0 0 1000 1000" xml:space="preserve">
<metadata> Svg Vector Icons : http://www.onlinewebfonts.com/icon </metadata>
<g><g transform="translate(0.000000,511.000000) scale(0.100000,-0.100000)"><path d="M4930,4991.1c-71.3-33.6-87.1-102.9-87.1-370.1v-255.3l-142.5-13.9C3501,4241,2442.2,3678.9,1711.9,2762.6c-528.4-663-843.1-1468.5-916.3-2343.3L781.7,265H508.6c-302.8,0-360.2-13.9-397.8-100.9c-29.7-73.2,4-162.3,73.2-193.9c29.7-11.9,162.3-21.8,324.6-21.8h273.1l13.9-134.6c126.7-1397.2,835.2-2568.9,1998.9-3299.2c516.6-324.6,1238.9-572,1801-613.5c273.1-21.8,247.4,9.9,247.4-296.9c0-154.4,9.9-285,21.8-314.7c51.5-108.8,221.7-108.8,273.1,0c11.9,29.7,21.8,160.3,21.8,314.7v265.2l85.1,9.9c45.5,5.9,150.4,15.8,231.6,21.8c627.4,49.5,1381.4,328.5,1949.4,718.4c522.5,360.2,995.5,874.8,1306.2,1428.9c265.2,469.1,471,1112.3,514.6,1613c5.9,77.2,15.8,172.2,21.8,211.8l11.9,75.2h243.4c140.5,0,267.2,9.9,294.9,21.8c108.9,51.5,108.9,221.7,0,273.1c-27.7,11.9-154.4,21.8-294.9,21.8H9278l-9.9,85.1c-3.9,45.5-19.8,182.1-31.7,300.8c-13.9,120.7-55.4,342.4-93,492.8c-190,758-556.1,1411.1-1104.3,1961.3c-728.3,734.3-1668.4,1167.7-2705.4,1248.8l-174.2,11.9V4621c0,273.1-15.8,336.4-93,372.1C5009.1,5018.8,4985.4,5018.8,4930,4991.1z M4842.9,3673V3299l-166.2-23.7c-564-79.2-950-413.6-1098.4-951.9c-51.5-184.1-87.1-534.4-69.3-698.6l11.9-122.7l-67.3-35.6c-93-49.5-152.4-146.5-176.1-289c-47.5-265.2,79.2-568,338.4-813.4c49.5-47.5,91-116.8,128.6-215.7c69.3-186,217.7-405.7,358.2-534.4l108.8-99l-5.9-142.5l-5.9-140.5l-356.2-124.7c-471-162.3-746.1-269.2-999.5-380c-344.4-154.4-326.6-136.5-403.7-382c-87.1-271.1-126.7-469.1-156.3-771.9l-23.8-241.5l-134.6,142.5c-427.5,451.2-754,1060.8-914.4,1702c-53.4,209.8-108.9,566-108.9,690.7v81.1h583.8c389.9,0,597.7,7.9,631.3,21.8c108.8,51.5,108.8,221.7,0,273.1c-33.6,13.9-241.4,21.8-631.3,21.8h-583.8v75.2c0,231.6,87.1,694.7,190,1003.4c380,1143.9,1252.8,2048.4,2388.8,2471.9c312.7,116.8,805.5,223.6,1058.8,227.6l102.9,2V3673z M5573.2,4015.4c1423-201.9,2636.2-1173.6,3138.9-2513.5c128.6-344.4,247.4-902.5,247.4-1169.6V265h-613.5c-672.9,0-714.4-5.9-740.2-110.8c-17.8-71.2,17.8-156.3,79.2-184c33.6-13.9,249.4-21.8,661-21.8h613.5v-55.4c0-221.7-95-706.5-199.9-1021.2c-176.1-526.5-550.2-1145.9-884.7-1462.6l-57.4-55.4l-11.9,213.7c-17.8,324.6-144.5,902.5-217.7,991.5c-49.5,61.4-534.4,273.1-1132.1,498.7C6250-865.1,6056.1-791.8,6026.4-780c-53.4,19.8-55.4,27.7-55.4,156.4c0,132.6,2,136.6,108.8,279.1c61.3,79.2,164.3,249.4,229.6,380c87.1,174.2,152.4,271.1,245.4,374c79.2,83.1,158.3,195.9,201.9,285c63.3,128.6,73.2,170.2,81.1,322.6c7.9,154.4,4,186-41.6,283c-35.6,81.1-69.3,120.7-126.7,154.4l-77.2,43.5l7.9,166.3c11.9,225.6-27.7,514.6-100.9,736.2c-174.2,534.4-585.8,845.1-1173.6,886.6l-166.2,11.9V3671v374h104.9C5319.8,4045.1,5460.4,4031.2,5573.2,4015.4z M5525.7,2942.7c368.1-91,601.7-332.5,716.4-738.2c29.7-104.9,35.6-201.9,35.6-526.4c0-364.2,4-403.7,37.6-441.3c25.7-27.7,61.3-41.6,114.8-41.6c65.3,0,79.2-7.9,97-53.4c51.5-136.6-43.5-366.1-223.6-544.3c-104.9-104.9-146.4-168.2-257.3-391.9c-91-188-170.2-314.7-261.3-423.5l-130.6-156.4v-259.3c0-168.2,9.9-277.1,25.7-308.8c17.8-35.6,67.3-65.3,188-108.9c89.1-31.7,162.3-65.3,162.3-73.2c0-27.7-352.3-275.1-484.9-340.4c-403.8-195.9-781.8-190-1205.3,21.8c-150.4,73.2-356.2,221.7-354.3,253.3c0,11.9,104.9,55.4,231.6,99c124.7,43.5,245.4,95,263.2,114.8c29.7,29.7,35.6,79.2,41.6,336.4c4,334.5,7.9,326.6-138.5,425.5c-160.3,108.9-288.9,296.9-378,550.2c-41.6,116.8-71.3,160.3-178.1,263.2c-190,182.1-283,387.9-243.4,544.3c9.9,43.5,23.8,51.5,89.1,51.5c45.5,0,95,15.8,122.7,37.6c43.5,35.6,47.5,49.5,37.6,174.2c-19.8,273.1-7.9,645.2,27.7,777.8c47.5,190,162.3,409.7,269.2,516.6c148.4,148.4,443.3,273.1,649.1,275.1c59.4,0,63.3-4,63.3-69.3c0-148.4,100.9-237.5,215.7-190c67.3,29.7,100.9,95,100.9,199.9v75.2l124.7-9.9C5351.5,2976.4,5460.4,2958.6,5525.7,2942.7z M6697.3-1367.8c176.1-69.3,393.8-162.3,486.8-203.8l166.3-77.2l51.4-215.7c99-405.7,126.7-678.8,93-920.3c-11.9-91-31.7-176.1-43.5-190c-35.6-45.5-419.6-294.9-589.8-385.9c-239.5-130.6-587.8-263.2-860.9-330.5c-229.6-57.4-633.3-120.7-773.8-120.7h-67.3v593.7c0,397.8-7.9,607.6-21.8,641.2c-27.7,61.3-112.8,97-184.1,79.2c-104.9-25.7-110.8-69.3-110.8-722.4v-597.7l-142.5,13.9c-708.5,65.3-1409.1,326.6-1963.3,728.3l-126.7,93l-13.9,174.2c-27.7,316.7,27.7,740.2,138.5,1076.6l29.7,89.1l243.4,102.9c132.6,55.4,324.6,134.6,425.5,172.2l184.1,71.3l112.8-102.9c439.4-403.7,1041-591.8,1547.7-484.9c320.6,69.3,668.9,259.3,940.1,514.6c77.2,71.2,142.5,128.6,148.4,130.6C6372.7-1239.1,6521.2-1296.5,6697.3-1367.8z"/></g></g>
</svg>