<?xml version="1.0" encoding="utf-8"?>
<!-- Svg Vector Icons : http://www.onlinewebfonts.com/icon -->
<!DOCTYPE svg PUBLIC "-//W3C//DTD SVG 1.1//EN" "http://www.w3.org/Graphics/SVG/1.1/DTD/svg11.dtd">
<svg version="1.1" xmlns="http://www.w3.org/2000/svg" xmlns:xlink="http://www.w3.org/1999/xlink" x="0px" y="0px" viewBox="0 0 1000 1000" enable-background="new 0 0 1000 1000" xml:space="preserve">
<metadata> Svg Vector Icons : http://www.onlinewebfonts.com/icon </metadata>
<g><g transform="translate(0.000000,512.000000) scale(0.100000,-0.100000)"><path d="M1933.4,5011.6c-222.7-21.1-445.5-82.6-651-180.5c-232.3-109.5-368.7-201.6-541.5-364.8c-844.9-800.7-854.5-2004.7-28.8-3256.7c560.7-850.7,1518.9-1764.7,2659.5-2536.6c364.8-247.7,435.9-249.6,791.1-9.6c167.1,113.3,234.3,169,247.7,211.2c73,205.5,313,620.2,482,829.5c386,478.1,958.2,881.4,1499.7,1058.1c178.6,57.6,176.7,55.7,449.3,466.6c558.8,839.1,737.4,1680.2,508.9,2383c-96,297.6-243.9,541.5-466.6,775.8c-349.5,366.8-783.5,578-1290.4,624.1c-616.4,57.6-1221.3-186.3-1674.4-674L3773,4182.1l-153.6,165.1C3162.4,4835,2563.3,5073.1,1933.4,5011.6z"/><path d="M7229.4,95.8C6133-11.7,5240.1-837.4,5048-1918.5c-46.1-261.1-42.2-647.1,9.6-896.8c205.5-992.8,985.1-1758.9,1970.2-1935.6c226.6-40.3,637.5-40.3,864.1,0c998.5,178.6,1799.3,979.3,1977.8,1977.8c40.3,226.6,40.3,637.5,0,864.1C9716.1-1052.5,9095.9-322.8,8270.2-29C7968.7,78.5,7552,128.5,7229.4,95.8z M7688.4-1175.4c270.8-178.6,243.9-574.2-48-716.3c-132.5-65.3-266.9-59.5-397.5,17.3c-290,170.9-251.6,608.7,63.4,741.2c26.9,11.5,105.6,19.2,174.7,15.4C7582.8-1121.6,7625-1133.1,7688.4-1175.4z M7882.3-3166.7v-825.7h-422.5h-422.5v825.7v825.7h422.5h422.5V-3166.7z"/></g></g>
</svg>