<?xml version="1.0" encoding="utf-8"?>
<!-- Svg Vector Icons : http://www.onlinewebfonts.com/icon -->
<!DOCTYPE svg PUBLIC "-//W3C//DTD SVG 1.1//EN" "http://www.w3.org/Graphics/SVG/1.1/DTD/svg11.dtd">
<svg version="1.1" xmlns="http://www.w3.org/2000/svg" xmlns:xlink="http://www.w3.org/1999/xlink" x="0px" y="0px" viewBox="0 0 1000 1000" enable-background="new 0 0 1000 1000" xml:space="preserve">
<metadata> Svg Vector Icons : http://www.onlinewebfonts.com/icon </metadata>
<g><g transform="translate(0.000000,512.000000) scale(0.100000,-0.100000)"><path d="M4525.4,5006.1c-952.3-95.8-1872-473.3-2605.9-1065.4c-247.2-199.3-651.5-615.1-829.7-852.7C568.6,2392.5,252.4,1618.4,124.1,725.5C87.7,464.9,93.4-274.7,135.6-548.7c134.1-871.8,438.8-1605.7,956.1-2297.4c176.3-237.6,697.5-758.8,935.1-935.1c839.2-626.6,1770.5-958,2805.2-994.4c1120.9-42.2,2203.5,300.8,3127.1,990.6c241.4,180.1,762.6,701.3,942.7,942.7c820.1,1099.8,1155.4,2456.4,929.3,3778.6c-138,818.2-507.8,1634.4-1032.8,2280.2c-187.8,231.9-609.3,640-837.3,810.5c-674.5,505.9-1431.3,822-2276.3,952.3C5445.1,5015.6,4770.6,5032.9,4525.4,5006.1z M5627.1,4615.2c494.3-74.7,919.7-206.9,1370-431.1c906.3-448.4,1605.7-1149.7,2050.2-2059.8c220.4-448.4,348.7-858.4,425.4-1350.8c47.9-308.5,47.9-1015.5,0-1312.5c-82.4-498.2-212.7-910.1-425.4-1341.3c-582.5-1182.2-1640.2-2044.5-2922.1-2377.9c-645.7-168.6-1393-184-2073.2-44.1c-503.9,103.5-1126.7,364.1-1557.8,653.4C1474.9-2964.9,771.7-1907.3,549.4-721.2C308,576,628,1880.9,1448.1,2938.6c69,90.1,229.9,266.3,356.4,392.8c377.5,377.5,726.2,628.5,1207.1,864.2c509.7,249.1,1015.5,392.8,1586.5,448.4C4835.8,4666.9,5379.9,4651.6,5627.1,4615.2z"/><path d="M3745.5,1896.2L2314.2,455.3l132.2-132.2l134.1-132.2l124.5,122.6l124.6,122.6l3.8-1626.8l5.7-1628.7h977.2h977.2l5.7,981.1l3.8,983H5196h392.8v-986.8v-986.8H6566h977.2v1619.1c0,891,5.7,1619.1,15.3,1619.1c7.7,0,78.6-65.1,157.1-143.7c93.9-95.8,157.1-143.7,185.9-143.7c42.2,0,44.1,5.8,44.1,191.6c0,157.1,5.7,191.6,28.8,191.6c15.3,0,28.7,5.8,28.7,15.3c0,15.3-2803.3,2820.5-2816.7,2818.6C5180.7,3339,4533,2689.5,3745.5,1896.2z M7160-803.6v-1622.9h-594h-594v977.2v977.2h-785.6h-785.6v-977.2v-977.2h-584.4H3232v1634.4l-1.9,1632.5l983,971.5l983,971.5l983-981l981-981V-803.6z"/></g></g>
</svg>