<?xml version="1.0" encoding="utf-8"?>
<!-- Svg Vector Icons : http://www.onlinewebfonts.com/icon -->
<!DOCTYPE svg PUBLIC "-//W3C//DTD SVG 1.1//EN" "http://www.w3.org/Graphics/SVG/1.1/DTD/svg11.dtd">
<svg version="1.1" xmlns="http://www.w3.org/2000/svg" xmlns:xlink="http://www.w3.org/1999/xlink" x="0px" y="0px" viewBox="0 0 1000 1000" enable-background="new 0 0 1000 1000" xml:space="preserve">
<metadata> Svg Vector Icons : http://www.onlinewebfonts.com/icon </metadata>
<g><path d="M989.8,451.8c-1.5-15.1-10.1-28.9-23-36.8l-61.5-37.9l30.1-65.6c6.3-13.8,5.8-30-1.3-43.4c-7.3-13.6-20.1-22.8-35.4-25.3l-71.3-11.4l2.7-72.1c0.6-15.2-6.1-30-17.8-39.7c-11.7-9.6-27.5-13.3-42.4-9.8l-70.2,16.8l-25.1-67.7c-5.3-14.2-17.1-25.4-31.6-29.8c-14.5-4.4-30.5-1.7-42.9,7.2l-58.5,42.3l-49.1-52.9c-10.3-11.1-25.5-16.9-40.7-15.4c-15.1,1.5-28.9,10.2-36.8,23.1l-37.8,61.5l-65.6-30.1c-13.8-6.3-30-5.8-43.4,1.3c-13.4,7.1-22.9,20.4-25.3,35.4l-11.4,71.3l-72.1-2.7c-15.1-0.7-30,5.9-39.8,17.8c-9.6,11.7-13.3,27.6-9.8,42.3l16.7,70.3l-67.7,25.1c-14.2,5.3-25.4,17.1-29.8,31.7c-4.4,14.5-1.7,30.5,7.2,42.8l42.3,58.5l-53,49.1c-11.1,10.3-16.9,25.5-15.4,40.7c1.5,15.1,10.1,28.9,23.1,36.8l61.5,37.8l-30.1,65.6c-6.4,13.8-5.9,30.1,1.3,43.4c7.1,13.4,20.4,22.9,35.4,25.3l71.3,11.4l-2.7,72.2c-0.6,15.2,6.1,30,17.9,39.7c11.8,9.6,27.7,13.2,42.3,9.7l70.2-16.7l25.1,67.7c5.2,14.2,17.1,25.4,31.7,29.8c14.6,4.4,30.6,1.7,42.8-7.2l58.5-42.3l49.1,52.9c9.2,10,22.3,15.7,35.9,15.7c1.5,0,2.9-0.1,4.1-0.2l0.8-0.1c15.1-1.5,28.9-10.1,36.8-23l37.8-61.5l65.6,30.1c13.8,6.4,30,5.9,43.5-1.3c13.4-7.1,22.8-20.4,25.3-35.4l11.4-71.3l72.2,2.7l2.1,0c27,0,48.9-21.9,48.9-48.9c0-5.5-0.9-11-2.7-16.2l-15.6-65.4l67.7-25.1c14.2-5.3,25.4-17.1,29.8-31.7c4.4-14.5,1.7-30.5-7.2-42.8l-42.3-58.5l53-49.1C985.5,482.1,991.3,466.9,989.8,451.8z M951.5,467.7l-74.8,69.4l59.8,82.6c2.8,3.9,3.6,8.9,2.3,13.4c-1.4,4.5-4.9,8.2-9.3,9.9l-95.6,35.5l23,96.4l0.4,1c0.6,1.7,1,3.5,1,5.4c0,8.4-6.8,15.2-15.2,15.2l-102.8-3.8L724,893.3c-0.8,4.7-3.7,8.8-7.9,11.1c-4.2,2.2-9.2,2.4-13.5,0.4l-92.7-42.5l-53.5,86.9c-2.4,4-6.6,6.6-11.3,7.2c-0.7,0-1.3,0.1-1.7,0.1c-4.2,0-8.3-1.8-11.2-4.9l-69.4-74.8l-82.7,59.8c-3.8,2.8-8.8,3.6-13.3,2.2c-4.5-1.4-8.2-4.8-9.8-9.3l-35.5-95.6l-99.3,23.6c-4.6,1.1-9.4,0-13.1-3c-3.6-3-5.7-7.6-5.5-12.4l3.8-101.9L106.7,724c-4.7-0.7-8.8-3.7-11-7.9c-2.2-4.1-2.4-9.2-0.4-13.5l42.5-92.7l-86.9-53.5c-4-2.5-6.7-6.8-7.2-11.4c-0.5-4.7,1.3-9.5,4.8-12.7l74.8-69.4l-59.8-82.6c-2.8-3.8-3.6-8.8-2.2-13.3c1.4-4.6,4.8-8.2,9.3-9.9l95.7-35.5l-23.6-99.3c-1.1-4.7,0-9.5,3-13.2c3-3.7,7.6-5.8,12.1-5.5l102.2,3.8L276,106.7c0.7-4.7,3.7-8.8,7.8-11c4.2-2.2,9.3-2.4,13.6-0.4l92.7,42.6l53.5-87c2.5-4.1,6.7-6.7,11.4-7.2c4.8-0.5,9.4,1.3,12.7,4.8l69.4,74.8l82.6-59.8c3.9-2.8,8.8-3.6,13.4-2.3c4.5,1.4,8.2,4.9,9.8,9.3l35.5,95.7l99.2-23.7c4.6-1.1,9.6,0,13.2,3c3.7,3.1,5.8,7.6,5.6,12.4l-3.9,102L893.3,276c4.8,0.8,8.8,3.6,11.1,7.9c2.2,4.2,2.4,9.2,0.4,13.5l-42.6,92.7l86.9,53.5c4,2.5,6.7,6.7,7.1,11.4l0,0.1C956.7,459.8,954.9,464.5,951.5,467.7z"/><path d="M340.5,447.7c-6.2-12.5-15.5-22.2-27.8-29c-11.8-6.5-25.3-9.8-40-9.8h-79.6c-11.3,0-21,4.2-27.9,12c-6.5,7.3-9.8,17.6-9.8,30.4V615H189V451.3c0-6.2,1.3-8,1.4-8c0.2-0.2,0.6-0.7,2.7-0.7h79.6c9.1,0,16.8,1.8,23.7,5.6c6.3,3.5,10.8,8.2,14,14.6l0.3,0.5c2,3.7,3.3,7.7,3.9,12.1c0.8,5.6,1.2,13,1.2,22.1V615h33.7V497.6c0-10.8-0.5-19.5-1.5-26.7C346.8,462.6,344.3,454.9,340.5,447.7z"/><path d="M549.4,538.2c8.6-4.4,18.9-14.4,18.9-37c0-15-3.8-29.7-11.4-43.8c-7.7-14.5-19.4-26.4-34.6-35.4c-15.1-9-33.2-13.5-53.8-13.5c-15.6,0-30.1,2.6-43.1,7.7c-13.4,5.3-24.9,13-34.1,22.9c-9.2,9.8-16.2,21.7-20.9,35.3c-4.5,13.1-6.9,27.4-6.9,42.5c0,32.7,9.7,59.2,28.8,78.9c19.3,19.8,46,29.8,79.5,29.8c14.4,0,27.5-2,39-5.8c11.5-3.9,21.3-9,29.1-15.1c8.1-6.3,14.4-13.2,18.7-20.5l-29.1-16.9c-2.1,3.5-5.5,7.2-10.2,10.9c-4.9,3.8-11.4,7.1-19.3,9.8c-8,2.7-17.5,4.1-28.2,4.1c-24.4,0-42.5-6.4-55.4-19.7c-7.3-7.5-12.5-16.5-15.6-27.1h113.5C529,545.1,540.5,542.9,549.4,538.2z M397.2,511.5c0.5-9.3,2.1-18,4.9-26c3.2-9.1,7.8-17,13.8-23.3c5.9-6.3,13-11.1,21.8-14.5c9-3.5,19.4-5.3,30.8-5.3c14.5,0,26.8,3,36.7,8.8c10,5.9,17.1,13.1,22,22.2c5,9.3,7.4,18.5,7.4,28c0,4.2-0.6,6.4-1,7.3c-2.5,1.2-8,3-19.2,3H397.2z"/><path d="M830,437.3c-0.1,0.4-0.3,0.8-0.4,1.2L793,568.3c-3.6,10.3-5.7,15.5-6.8,18.1c-0.7,1.7-2,3.3-3.6,4.7c-0.4,0.3-1.8,0.9-4.8,0.9c-2.9,0-4.5-0.5-5-1c-1.8-1.6-3.1-3.4-4-5.7c-1.7-4.5-3.6-10.4-5.6-17.6l-25.6-109.8c-1.8-7.6-8.6-13-16.4-13c0,0,0,0-0.1,0c-7.8,0-14.6,5.5-16.4,13.1l-24.8,109.8c-3.6,13.1-6.7,19.6-8.7,22.8c-0.8,1.3-5.2,1.4-6,1.4c-1.9,0-3.6-0.3-4.4-0.8c-0.7-0.4-1.7-1.1-2.7-2.7c-1.6-2.5-3.1-5.6-4.4-9.3c0,0,0-0.1,0-0.1c-1.6-4.4-2.9-8.1-3.9-10.8l-36.3-129.8c-0.1-0.4-0.2-0.8-0.4-1.1c-3.3-9.4-5.2-15.9-5.8-18.6l-33,6.7c1.1,5.2,3.5,13.4,6.8,22.7l36.3,129.7c0.1,0.3,0.2,0.7,0.3,1c1,2.9,2.4,6.9,4.2,11.8c2.2,6,4.7,11.4,7.7,16c0,0,0.1,0.1,0.1,0.1c3.8,5.9,8.7,10.5,14.6,13.8c6,3.3,13,5,20.8,5c19.7,0,29.7-9.4,34.6-17.3c4.7-7.5,8.9-18,12.7-32.1c0.1-0.2,0.1-0.5,0.2-0.7l8.7-38.6l9,38.8c0.1,0.2,0.1,0.5,0.2,0.7c2.3,8.2,4.5,15.2,6.6,20.7c2.9,7.6,7.4,14,13.3,19.2c7,6.2,16.2,9.3,27.2,9.3c10.6,0,19.4-2.9,26.4-8.7c5.7-4.8,10.1-10.6,12.9-17.1c2-4.6,4.6-11.6,7.9-20.9c0.1-0.3,0.2-0.6,0.3-1l36.6-129.7c3.6-9.9,5.5-17.1,6.7-21.4l-32.5-8.7C834.9,422.2,833.2,428.5,830,437.3z"/></g>
</svg>