<?xml version="1.0" encoding="utf-8"?>
<!-- Svg Vector Icons : http://www.onlinewebfonts.com/icon -->
<!DOCTYPE svg PUBLIC "-//W3C//DTD SVG 1.1//EN" "http://www.w3.org/Graphics/SVG/1.1/DTD/svg11.dtd">
<svg version="1.1" xmlns="http://www.w3.org/2000/svg" xmlns:xlink="http://www.w3.org/1999/xlink" x="0px" y="0px" viewBox="0 0 1000 1000" enable-background="new 0 0 1000 1000" xml:space="preserve">
<metadata> Svg Vector Icons : http://www.onlinewebfonts.com/icon </metadata>
<g><path d="M622.5,702c40.4,0,73.2-32.8,73.2-73.2V156.1c0-40.4-32.8-73.2-73.2-73.2H83.2C42.8,83,10,115.8,10,156.1v472.7c0,40.4,32.8,73.2,73.2,73.2h86.2v146.2l288.4-168.9h-44.3L192,808.8V679.4H83.2c-27.9,0-50.6-22.7-50.6-50.6V156.1c0-27.9,22.7-50.5,50.6-50.5h539.3c27.9,0,50.5,22.7,50.5,50.5v472.7c0,27.9-22.7,50.6-50.5,50.6l-72.8-0.9l-44.6,22.6v75.1c0,31.9,25.9,57.8,57.8,57.8l56.8-0.3l-42-22.6l-14.8,0.3c-19.4,0-35.2-15.8-35.2-35.2v-74.9L622.5,702z"/><path d="M932.2,439.9H741v22.6h191.2c19.4,0,35.2,15.8,35.2,35.2v278.7c0,19.4-15.8,35.2-35.2,35.2H816.4v68l-126.8-66.7l-51-1.3L839.1,917v-82.9h93.1c31.9,0,57.8-25.9,57.8-57.8V497.7C990,465.8,964.1,439.9,932.2,439.9z"/><path d="M487.6,419.3c-2,75.1-61.4,138.3-138.1,138.1c-76.8-0.2-136.1-62.7-138.1-138.1c-0.4-14.5-23-14.6-22.6,0C191,506.7,260.3,580,349.5,580c89.2,0,158.5-73.3,160.7-160.8C510.6,404.7,488,404.7,487.6,419.3L487.6,419.3z"/><path d="M349.7,506c-49.9,0-90.4-40.6-90.4-90.4V280.1c0-49.9,40.6-90.4,90.4-90.4c49.9,0,90.4,40.6,90.4,90.4v135.5C440.2,465.5,399.6,506,349.7,506z M349.7,213.7c-36.6,0-66.4,29.8-66.4,66.4v135.5c0,36.6,29.8,66.4,66.4,66.4s66.4-29.8,66.4-66.4V280.1C416.1,243.5,386.4,213.7,349.7,213.7z"/><path d="M338.2,568.7c0,18.5,0,37,0,55.5c0,14.6,22.6,14.6,22.6,0c0-18.5,0-37,0-55.5C360.8,554.2,338.2,554.1,338.2,568.7L338.2,568.7z"/><path d="M764.9,546.4c-8-4.1-16.2-4.3-24.2,1.4v25.9l11.2-8.8c1.5-1.1,2.9-0.6,3.6-0.3c0.7,0.4,1.9,1.2,1.9,3.1v162c0,3.1-2.1,4.5-3,5c-0.9,0.5-3.3,1.4-6.1-0.6l-7.6-4.9l-41.3-26.7c-6.1,4.9-13.2,8.5-20.9,10.6l58.2,38c1.3,0.9,2.6,1.6,3.9,2.3c3.5,1.6,7.2,2.4,11,2.4c4.1,0,8.3-1,12.1-3c8.7-4.5,14-13.4,14-23.1v-162C777.9,558.7,772.9,550.5,764.9,546.4z"/><path d="M875.2,566.3c-8.1-8.7-21.2,4.4-13,13c37.9,40.5,37.9,99.9,0,140.5c-8.1,8.7,4.9,21.7,13,13C920.1,684.8,920.1,614.4,875.2,566.3z"/><path d="M869.1,738.7c-3.1,0-6.1-1.3-8.3-3.4c-4.5-4.2-6.3-11.7-0.9-17.5c36.9-39.5,36.9-96.9,0-136.4c-5.4-5.8-3.6-13.4,0.8-17.5c4.3-4,11.4-5.2,16.6,0.4l0,0c46.2,49.5,46.2,121.2,0,170.7C874.9,737.6,871.9,738.7,869.1,738.7z M869.1,566.4c-2.1,0-3.7,1.4-4.2,1.8c-2.3,2.2-3.5,5.9-0.6,9c39.2,41.9,39.2,102.7,0,144.6c-2.9,3.1-1.8,6.9,0.6,9c0.7,0.7,4.4,3.8,8.1-0.1c44-47.1,44-115.4,0-162.5l0,0C871.6,566.9,870.3,566.4,869.1,566.4z"/><path d="M841.3,590c-8.1-8.7-21.1,4.3-13,13c25.1,27.3,25.2,65.9,0,93.2c-8,8.7,5,21.8,13,13C873.3,674.5,873.3,624.7,841.3,590z"/><path d="M835.1,715.1c-0.8,0-1.6-0.1-2.4-0.3c-4.4-1-8.1-4.5-9.5-9c-1.3-4.2-0.3-8.5,2.8-11.8c24.2-26.2,24.2-62.9,0-89.1c-5.4-5.9-3.5-13.5,1-17.6c4.3-4,11.3-5.1,16.5,0.5l0,0c33,35.8,33,87.6,0,123.4C841.2,713.8,838.2,715.1,835.1,715.1z M835.2,590.1c-2,0-3.7,1.4-4.1,1.8c-2.4,2.2-3.6,6-0.6,9.1c26.4,28.6,26.4,68.6,0,97.3c-2,2.2-1.9,4.4-1.4,5.9c0.7,2.4,2.8,4.4,5.1,4.9c1.8,0.4,3.5-0.2,5-1.8c30.8-33.4,30.8-81.8,0-115.2l0,0C837.7,590.5,836.4,590.1,835.2,590.1z"/><path d="M813.8,617.5c-8.1-8.7-21.1,4.3-13,13c10.3,11.2,10.3,26.9,0,38.1c-8,8.7,5,21.8,13,13C831,663,831,636.2,813.8,617.5z"/><path d="M807.6,687.6c-0.8,0-1.6-0.1-2.4-0.3c-4.4-1-8.1-4.5-9.5-9c-1.3-4.2-0.3-8.4,2.8-11.8c9.2-10,9.2-24,0-34c-5.4-5.9-3.5-13.5,1-17.6c4.3-3.9,11.4-5.1,16.5,0.5c18.2,19.8,18.2,48.5,0,68.3C813.6,686.3,810.7,687.6,807.6,687.6z M807.6,617.6c-2,0-3.7,1.3-4.1,1.8c-2.4,2.2-3.6,6-0.6,9.2c11.3,12.2,11.3,30,0,42.2c-2,2.2-1.9,4.4-1.4,5.9c0.7,2.4,2.8,4.4,5.1,4.9c1.8,0.4,3.5-0.2,5-1.8c16.1-17.4,16.1-42.7,0-60.1l0,0C810.2,618.1,808.8,617.6,807.6,617.6z"/></g>
</svg>