<?xml version="1.0" encoding="utf-8"?>
<!-- Svg Vector Icons : http://www.onlinewebfonts.com/icon -->
<!DOCTYPE svg PUBLIC "-//W3C//DTD SVG 1.1//EN" "http://www.w3.org/Graphics/SVG/1.1/DTD/svg11.dtd">
<svg version="1.1" xmlns="http://www.w3.org/2000/svg" xmlns:xlink="http://www.w3.org/1999/xlink" x="0px" y="0px" viewBox="0 0 1000 1000" enable-background="new 0 0 1000 1000" xml:space="preserve">
<metadata> Svg Vector Icons : http://www.onlinewebfonts.com/icon </metadata>
<g><path d="M500,10C229.3,10,10,229.4,10,500s219.4,490,490,490c270.6,0,490-219.4,490-490C989.9,229.4,770.6,10,500,10z M500,957.6C247.3,957.1,43,752.7,42.5,500C43,247.4,247.3,43,500,42.6C752.7,43,957,247.4,957.5,500C957,752.7,752.7,957.1,500,957.6z M476.7,413.8V307.4L223.6,486.8L476.7,666V560.6c101.4,0.1,195.3,5.1,274.8,146.9C751.5,617.3,736.6,416.4,476.7,413.8z"/></g>
</svg>