<?xml version="1.0" encoding="utf-8"?>
<!-- Svg Vector Icons : http://www.onlinewebfonts.com/icon -->
<!DOCTYPE svg PUBLIC "-//W3C//DTD SVG 1.1//EN" "http://www.w3.org/Graphics/SVG/1.1/DTD/svg11.dtd">
<svg version="1.1" xmlns="http://www.w3.org/2000/svg" xmlns:xlink="http://www.w3.org/1999/xlink" x="0px" y="0px" viewBox="0 0 1000 1000" enable-background="new 0 0 1000 1000" xml:space="preserve">
<metadata> Svg Vector Icons : http://www.onlinewebfonts.com/icon </metadata>
<g><g transform="translate(0.000000,511.000000) scale(0.100000,-0.100000)"><path d="M4673.2,5008.1C2645.1,4851.6,939.8,3514.7,325.8,1599.5C165.4,1102.4,100,670.6,100,108.1c0-451.6,25.7-683.3,116.9-1089.3C626.8-2805.3,2086.5-4265,3910.7-4675c388.2-87.2,655.6-116.9,1089.3-116.9s701.1,29.7,1089.3,116.9c1824.1,410,3283.8,1869.7,3693.8,3693.8C9870.3-593,9900-325.7,9900,108.1c0,554.6-67.3,1000.2-225.8,1491.4c-584.3,1822.1-2176.7,3141.2-4080,3380.9C5411.9,5002.1,4833.6,5020,4673.2,5008.1z M5742.7,4645.6c1796.4-305,3250.1-1630,3701.7-3372.9C9559.3,829,9585.1,631,9585.1,118c0-513-25.8-728.9-138.6-1170.5c-410-1600.3-1709.3-2887.7-3321.5-3295.7c-410-103-633.8-128.7-1125-128.7c-507,0-734.8,27.7-1164.6,140.6c-1568.6,408-2836.2,1655.8-3264,3212.5C444.6-662.4,416.9-438.6,416.9,108.1c0,542.7,27.7,766.5,156.5,1239.8c491.2,1788.5,2065.8,3121.4,3941.4,3335.3C4780.1,4713,5471.4,4691.2,5742.7,4645.6z"/><path d="M2098.4,2306.6c-307-65.4-542.7-237.7-675.4-499.1c-69.3-134.7-126.8-364.4-126.8-503.1c0-265.4,132.7-606.1,360.5-928.9C1884.5,50.7,2656.9-676.2,2841.1-739.6c75.3-27.7,138.6,5.9,378.3,196.1c281.2,225.8,651.6,600.1,833.8,843.7c166.4,221.8,336.7,544.7,382.3,728.9c47.5,186.2,39.6,439.7-19.8,617.9c-122.8,360.5-360.5,576.3-728.9,651.6c-233.7,49.5-526.8-17.8-717-162.4l-93.1-71.3l-51.5,47.5c-79.2,73.3-146.6,108.9-273.3,152.5C2411.3,2310.5,2207.4,2330.3,2098.4,2306.6z M2508.4,1946.1c118.8-55.5,186.2-132.7,217.9-249.5c35.6-126.8,107-176.3,209.9-140.6c59.4,19.8,85.2,57.4,120.8,178.3c85.2,277.3,558.5,362.4,837.8,150.5c211.9-162.4,316.9-487.2,245.6-766.5c-77.2-299.1-311-653.6-673.4-1020c-265.4-265.4-560.5-511-596.2-491.2c-83.2,47.5-449.6,372.4-616,546.6c-328.8,340.7-538.7,653.6-612,913c-75.3,257.5-4,576.4,164.4,750.7C1989.5,2007.5,2264.8,2057,2508.4,1946.1z"/><path d="M6267.6,2314.5c-194.1-37.6-370.4-120.8-497.1-239.6c-283.2-265.4-396.1-711-277.3-1095.3c59.4-198.1,198.1-455.5,354.5-667.5c166.4-221.8,608.1-661.5,877.4-871.5c233.7-182.2,293.1-211.9,360.4-186.2c93.1,35.7,465.4,350.6,726.9,614c497.1,499.1,740.8,903.2,796.2,1317.1c53.5,398.1-162.4,851.7-479.3,1012.1c-208,105-392.2,140.6-580.3,108.9c-184.2-29.7-328.8-87.1-425.8-170.3c-89.1-75.3-85.1-75.3-217.9,25.8C6768.7,2265,6435.9,2344.2,6267.6,2314.5z M6542.9,1987.7c174.3-37.6,305-164.4,346.6-338.7c13.8-63.4,75.2-101,156.4-99c79.2,2,101,27.7,150.5,162.4c71.3,198.1,211.9,283.2,467.4,285.2c198.1,2,326.8-51.5,451.6-184.2c164.4-176.3,233.7-483.3,162.4-726.9c-43.6-156.5-180.2-410-320.9-596.2c-136.6-184.2-548.6-602.1-764.5-776.4L7038-410.8l-93.1,73.3C6620.1-86,6269.6,264.6,6073.5,530c-204,275.3-320.8,552.6-320.8,762.5c0,118.8,55.4,324.8,114.9,417.9C6012.1,1946.1,6259.6,2049.1,6542.9,1987.7z"/><path d="M2427.2-1438.7c-33.7-31.7-41.6-59.4-37.6-122.8c5.9-75.3,19.8-93.1,174.3-227.8c1388.4-1196.3,3416.5-1214.1,4824.7-39.6c108.9,91.1,186.2,170.3,194.1,200c15.8,65.4-13.9,144.6-65.4,170.3c-79.2,43.6-144.6,23.8-257.5-73.3c-493.2-423.9-1000.2-673.4-1630-800.2c-192.1-39.6-283.2-45.5-639.7-43.6c-374.3,0-441.7,5.9-665.5,53.5c-621.9,130.7-1089.3,368.4-1608.2,810.1C2567.8-1385.3,2502.5-1369.4,2427.2-1438.7z"/></g></g>
</svg>