<?xml version="1.0" encoding="utf-8"?>
<!-- Svg Vector Icons : http://www.onlinewebfonts.com/icon -->
<!DOCTYPE svg PUBLIC "-//W3C//DTD SVG 1.1//EN" "http://www.w3.org/Graphics/SVG/1.1/DTD/svg11.dtd">
<svg version="1.1" xmlns="http://www.w3.org/2000/svg" xmlns:xlink="http://www.w3.org/1999/xlink" x="0px" y="0px" viewBox="0 0 1000 1000" enable-background="new 0 0 1000 1000" xml:space="preserve">
<metadata> Svg Vector Icons : http://www.onlinewebfonts.com/icon </metadata>
<g><g transform="translate(0.000000,511.000000) scale(0.100000,-0.100000)"><path d="M1352.4,4954.5C187.2,3688.3-196.5,1947.6,334.6,330.1C427.5,43.4,635.5-407,785-647.3c133.3-214.1,403.9-567.4,569.5-743.1l147.4-159.5l139.3,143.4l139.3,141.4l-145.4,155.5C451.8,156.4,165,2038.5,914.2,3613.6c179.7,377.6,401.9,708.8,702.8,1044l163.6,181.7l-129.2,129.2c-70.7,70.7-137.3,129.2-149.4,127.2C1491.7,5095.8,1423.1,5031.2,1352.4,4954.5z"/><path d="M8351.6,4960.6l-135.3-137.3l72.7-68.7c260.5-248.4,591.7-718.9,787.6-1120.8c577.5-1189.4,567.5-2562.6-26.3-3756c-181.7-361.5-381.7-652.3-676.5-981.4l-155.5-173.7l137.3-135.3l137.3-135.3l167.6,177.7C9147.2-857.3,9530.9-176.8,9726.8,524c440.2,1565,28.3,3247.2-1086.4,4438.6c-68.7,74.7-131.3,135.3-139.3,135.3C8492.9,5097.9,8426.3,5035.3,8351.6,4960.6z"/><path d="M2380.3,4104.3c-470.5-543.2-767.4-1213.6-850.2-1918.4c-32.3-288.8-14.1-797.7,40.4-1074.3c115.1-571.5,373.6-1122.8,729-1556.9c64.6-76.7,145.4-167.6,179.7-201.9l64.6-58.6l143.4,143.4l143.4,145.4l-141.4,167.6C2358,140.3,2146,548.2,2028.9,1012.7c-195.9,775.4-82.8,1625.6,302.9,2298.1c107,185.8,333.2,492.7,440.2,595.7l72.7,68.7l-145.4,147.4c-80.8,80.8-153.5,147.4-161.6,147.4S2459,4195.2,2380.3,4104.3z"/><path d="M7313.6,4124.5l-143.4-143.4l147.4-173.7c714.9-846.1,937-1952.7,595.7-2990.7c-131.3-401.9-361.5-803.7-628-1096.5l-125.2-139.3l151.5-151.5L7463.1-722l159.5,183.8c424.1,492.7,704.8,1082.4,819.9,1714.4c50.5,278.7,58.6,844.1,18.2,1104.6c-66.6,426.1-220.1,876.4-420,1229.8c-125.2,224.2-361.5,545.2-494.7,672.5l-86.8,86.8L7313.6,4124.5z"/><path d="M3321.3,3100.7c-648.2-793.6-630-1928.5,46.4-2687.8l80.8-90.9l147.4,145.4l145.4,147.4l-62.6,64.6c-169.6,179.7-333.2,500.8-391.8,773.4c-36.3,171.6-32.3,517,8.1,690.6c60.6,254.4,185.8,506.9,359.4,714.9l76.7,92.9l-147.4,145.4l-147.4,145.4L3321.3,3100.7z"/><path d="M6413,3102.7c-74.7-74.7-135.3-143.4-135.3-153.5c0-8.1,36.3-58.6,82.8-109c163.6-187.8,296.9-464.5,353.4-745.2c40.4-189.8,28.3-555.3-22.2-743.1c-48.5-181.7-195.9-468.5-315-613.9l-105-127.2L6417,465.4L6560.4,322l52.5,60.6C6932,760.2,7103.6,1148,7144,1580.1c50.5,547.3-101,1058.2-442.3,1486.3c-64.6,82.8-127.2,153.5-137.3,159.5C6556.3,3234,6485.7,3177.4,6413,3102.7z"/><path d="M4882.3,2171.8c-84.8-26.3-143.4-64.6-244.3-157.5c-228.2-216.1-240.3-591.7-24.2-832c125.2-139.3,254.5-193.9,472.5-193.9c147.4,0,187.8,8.1,286.7,56.5c220.1,109.1,329.2,290.8,327.1,549.3c0,133.3-10.1,179.7-54.5,264.5c-64.6,129.2-208,256.5-331.2,298.9C5215.5,2192,4975.2,2198,4882.3,2171.8z"/><path d="M4076.5,154.4c0-44.4,14.1-64.6,66.6-88.9c226.2-109,553.3-539.2,632.1-834c36.3-133.3,40.4-3077.5,6.1-3245.2C4728.8-4262,4561.2-4470,4331-4575c-94.9-44.4-304.9-101-369.5-101c-4,0-6.1-44.4-6.1-101v-101h1274.2h1272.2l-6.1,105l-6.1,103l-121.2,26.3c-288.8,58.6-502.8,193.9-601.8,379.6l-44.4,82.8l-6.1,2197.1l-4,2195.1h-817.9h-817.8V154.4z"/></g></g>
</svg>