<?xml version="1.0" encoding="utf-8"?>
<!-- Svg Vector Icons : http://www.onlinewebfonts.com/icon -->
<!DOCTYPE svg PUBLIC "-//W3C//DTD SVG 1.1//EN" "http://www.w3.org/Graphics/SVG/1.1/DTD/svg11.dtd">
<svg version="1.1" xmlns="http://www.w3.org/2000/svg" xmlns:xlink="http://www.w3.org/1999/xlink" x="0px" y="0px" viewBox="0 0 1000 1000" enable-background="new 0 0 1000 1000" xml:space="preserve">
<metadata> Svg Vector Icons : http://www.onlinewebfonts.com/icon </metadata>
<g><g><g><path d="M286.7,46.8l74.5-35C331.5,12.4,304.9,25.8,286.7,46.8z"/><path d="M412.5,24.5l-81.3,38.2l98.5-26.1C424.4,32,418.7,28,412.5,24.5z"/><path d="M237.4,106.3c-1,2.2-1.9,4.2-2.6,6.1c-4.1,10.1-5.6,13.5-19.5,16l5.4,29.5c30-5.5,36.8-22,41.8-34.1c0.1-0.3,0.2-0.4,0.3-0.6c5.2,51,48.1,90.9,100.5,90.9c55.9,0,101.2-45.3,101.2-101.2c0-17.3-4.4-33.6-12-47.9l-178,47.1l-2-21.9l58.7-27.6l-59.8,15.8h0l-3.6,0.9c0,0.1-0.1,0.2-0.1,0.3c-4,1.2-10.2,2.6-13.4,1.4c-9.3-3.4-20-15.1-23.3-25.5l-28.6,9C207.8,81.6,221.9,98.1,237.4,106.3z"/><path d="M313.4,990c25.6,0,46.4-20.8,46.4-46.4v-15.3l-92.8,16C267.4,969.5,288,990,313.4,990z"/><polygon points="359.8,788.8 266.9,827.8 266.9,839.3 359.8,826.2 "/><path d="M639.1,402.8l-29.9-12.6c-63.9-23.2-88.5-55.1-114.3-88.6c-17.9-23.2-59.4-70.3-106.3-81.5l-25.2,25.4l-24.5-25.7c-0.1,0-0.1,0-0.2,0c-12.9,3.1-41.1,17.8-43.1,19c-74.7,45.8-141.3,112.9-123.4,292.1c0.2,2.1,0.7,4.2,1.2,6.2l-10.2,0.4l6.1,20.1l21.4,2.8c5.6,3.5,12.2,5.4,19.1,5.7v360.8h-3.5v19.2c-5.8,4.4-9.6,11.3-9.6,19.1v18.9h48.1v-18.9c0-7.8-3.8-14.7-9.6-19.1v-19.2h-4.4V561.1c13.1-7.5,21.3-22.1,19.7-38c-5.9-59.5-1.7-101,9.3-131.9c0,0,0,109.9,0,140.3c0,30.4,7.2,37.3,7.2,37.3l0,240.7l92.9-39l0-149.9l6.6-0.3v323.3c0,25.6,20.8,46.4,46.4,46.4s46.5-20.8,46.5-46.4v-374c0,0,7.6-12.1,7.6-38c0-25.9,0-140.8,0-140.8c28.2,29.6,68,59.5,136.3,80.4c23,4.7,36.2-7.2,36-6.9c6-4.8,10.7-11.3,13.1-19.1C654,439.3,660,416.8,639.1,402.8z"/><polygon points="266.9,925.8 359.8,909.9 359.8,898 266.9,886.4 "/><polygon points="266.9,857.6 266.9,868.1 359.8,879.7 359.8,844.5 "/><path d="M625.8,10c55.6,0,100.7,45.1,100.7,100.7c0,55.6-45.1,100.7-100.7,100.7c-55.6,0-100.6-45.1-100.6-100.7C525.1,55.1,570.2,10,625.8,10z"/><path d="M642.1,487.5c-15.8,5.2-35.1,0-35.1,0c-2.8-0.4-5.5-1-8.3-1.8c-28.4-8.7-53.6-19.3-76.1-32.3c-8.6,37.1-37,161.2-50.1,231.6v59.1c10.5,9.7,32.3,18,59.9,23.9l0,173.7c0,25.5,20.7,46.2,46.2,46.2c25.5,0,46.2-20.7,46.2-46.2l0-164.3c2.2,0,4.4,0,6.6,0l0,164.4c0,25.5,20.7,46.2,46.2,46.2s46.2-20.7,46.2-46.2l0-176.5c27.5-8.4,48.4-21.4,56.1-40.2c0.2-41.3-22.1-150.3-38-220C741.8,504.9,659.6,492.1,642.1,487.5z"/><path d="M650.4,216.9c-0.1,0-0.2,0-0.2,0l-24.3,25.5l-25.1-25.2c-13.7,3.3-61.4,25.2-99.8,67.4c2,2.5,3.9,5.1,5.9,7.6c25.6,33.3,47.7,62,107.6,83.7l10.8,4.6c9.4-6.1,20.4-9.7,32.2-9.7c5.2,0,10.3,0.7,15.3,2c6.9,1.9,42.9,9.3,56.1,12v-15.8c12.4,13.9,24.3,31,29,40.7l-90.3-17.2c-3.4-0.9-6.8-1.3-10.1-1.3c-2.6,0-5.2,0.3-7.7,0.9c7.8,6.6,13.7,15.1,16.8,24.8l0.4,1.4l1.7,7.8c1.2,8.1,0.6,16.1-1.7,23.6c-2.3,7.6-6.3,14.5-11.6,20.4c19.3,4.8,54.5,12.4,85.5,14.6v0c0,0,0,0,0.1,0c0.3,0,0.6,0,0.9,0.1l0-0.1c0.6,0,1.1,0,1.7,0c34.2,0,75.9-8.1,89.9-47.6C860.9,358.7,726.5,241.3,650.4,216.9z"/></g></g><g></g><g></g><g></g><g></g><g></g><g></g><g></g><g></g><g></g><g></g><g></g><g></g><g></g><g></g><g></g></g>
</svg>