<?xml version="1.0" encoding="utf-8"?>
<!-- Svg Vector Icons : http://www.onlinewebfonts.com/icon -->
<!DOCTYPE svg PUBLIC "-//W3C//DTD SVG 1.1//EN" "http://www.w3.org/Graphics/SVG/1.1/DTD/svg11.dtd">
<svg version="1.1" xmlns="http://www.w3.org/2000/svg" xmlns:xlink="http://www.w3.org/1999/xlink" x="0px" y="0px" viewBox="0 0 1000 1000" enable-background="new 0 0 1000 1000" xml:space="preserve">
<metadata> Svg Vector Icons : http://www.onlinewebfonts.com/icon </metadata>
<g><path d="M864.6,269.4c25.7,39.8,44.4,83.3,55.6,129.2c4.6,19,23.8,30.6,42.7,26c19-4.6,30.6-23.8,26-42.7c-13.1-53.6-34.9-104.3-64.9-150.8c-29.5-45.7-66-86-108.6-119.9C772.5,77,724.6,50.4,673,32c-53.3-19-109.4-28.6-166.5-28.6c-67,0-132,13.1-193.3,39c-59.1,25-112.2,60.8-157.8,106.4C109.8,194.5,74,247.6,49,306.7C23.1,368,10,433,10,500c0,67,13.1,132,39,193.3c25,59.1,60.8,112.2,106.4,157.8c45.6,45.6,98.7,81.4,157.8,106.4c61.2,25.9,126.3,39,193.3,39c106.1,0,207.3-33,292.7-95.4c41.1-30,77.2-66,107.4-107c30.5-41.5,54.3-87.2,70.7-135.8c6.2-18.5-3.7-38.6-22.2-44.8c-18.5-6.2-38.6,3.7-44.8,22.2c-14,41.7-34.4,80.8-60.6,116.4c-25.9,35.2-56.9,66.1-92.2,91.8c-73.2,53.5-160,81.8-251,81.8c-57.5,0-113.3-11.3-165.7-33.5c-50.7-21.4-96.2-52.2-135.4-91.3s-69.8-84.7-91.3-135.4C92,613.3,80.7,557.5,80.7,500S92,386.7,114.2,334.3c21.4-50.7,52.2-96.2,91.3-135.4c39.1-39.1,84.7-69.8,135.4-91.3C393.3,85.4,449,74.2,506.5,74.2c49,0,97,8.2,142.8,24.5c44.2,15.7,85.3,38.6,122.2,67.9C808,195.6,839.4,230.2,864.6,269.4z"/><path d="M576.3,374.1h-52.4c-36.3,0-63,4.7-81.7,14.4c-18.9,9.7-34.2,25.8-45.7,47.8c-11.2,21.5-16.9,43.7-16.9,66c0,17.2,3.3,33.5,9.8,48.4c6.7,15.2,16.9,27.5,30.5,36.4c13.6,8.9,28,13.4,43,13.4c14.6,0,29.2-5,43.3-15c8.8-6.2,17-13.8,24.6-22.8c4.9,12.2,12.7,21.7,23.3,28.2c14.7,9.2,31.1,13.8,48.7,13.8c20.6,0,39.9-6.1,57.4-18c17.3-11.9,31.1-28.3,40.8-48.7c9.7-20.3,14.6-44.1,14.6-70.6c0-36.4-8.7-70.1-25.8-100.2c-17.1-30.2-41.4-54.2-72.1-71.6c-30.6-17.3-68-26-110.9-26c-46.3,0-86.4,9.9-119.3,29.4c-33,19.5-58.7,47.7-76.5,83.8c-17.5,35.7-26.4,74.9-26.4,116.6c0,41.6,8.9,81,26.5,117c17.8,36.6,43.9,65,77.6,84.4c33.5,19.4,70.7,29.2,110.6,29.2c36.5,0,71.7-8.8,104.6-26.1c3-1.6,4.9-4.7,4.9-8v-41.9c0-3.3-1.8-6.4-4.8-8c-3-1.6-6.5-1.4-9.3,0.4c-31.9,21.1-64.2,31.8-95.9,31.8c-26.5,0-53.6-7.5-80.5-22.3c-26.5-14.5-46.4-36.7-59.1-66.1c-13.1-30.2-19.7-61.6-19.7-93.5c0-32.6,6.9-63.3,20.6-91.1c13.4-27.3,33.3-48.3,59-62.4c26.1-14.2,55.1-21.4,86.3-21.4c29,0,56.3,6.4,81,19c24.4,12.5,43.6,30.3,56.9,52.8c13.4,22.7,20.2,49.2,20.2,78.8c0,25.6-5.5,46-16.3,60.5c-10.4,13.9-21.6,20.7-34.2,20.7c-7.8,0-13.8-3-19-9.4c-3.8-4.7-8.2-16.3-8.2-44.3V383.2C585.4,378.2,581.4,374.1,576.3,374.1z M486.6,428.4c6.6-1.8,17-2.8,31.1-2.8h7.9v64.3c-18.4,27-29.5,37.7-35.6,41.9c-8.4,5.8-16.3,8.7-23.4,8.7c-5.4,0-10.4-2.5-15.5-7.8c-5-5.2-7.6-15.7-7.6-30.3c0-14.4,2.1-27.3,6.3-38.3c4.1-10.7,10.7-19.5,20.1-27.1C474.9,433,480.5,430.1,486.6,428.4z"/></g>
</svg>