<?xml version="1.0" encoding="utf-8"?>
<!-- Svg Vector Icons : http://www.onlinewebfonts.com/icon -->
<!DOCTYPE svg PUBLIC "-//W3C//DTD SVG 1.1//EN" "http://www.w3.org/Graphics/SVG/1.1/DTD/svg11.dtd">
<svg version="1.1" xmlns="http://www.w3.org/2000/svg" xmlns:xlink="http://www.w3.org/1999/xlink" x="0px" y="0px" viewBox="0 0 1000 1000" enable-background="new 0 0 1000 1000" xml:space="preserve">
<metadata> Svg Vector Icons : http://www.onlinewebfonts.com/icon </metadata>
<g><g transform="translate(0.000000,494.000000) scale(0.100000,-0.100000)"><path d="M5093.9,4643.6c-159-38.3-318.1-128.4-442.7-252.9c-128.4-126.5-195.5-235.7-253-406.3l-42.2-124.6l-2127.1-5.7l-2129-3.8V-471v-4321.3h2778.6h2778.6V-471v4321.3h-467.6c-258.7,0-473.3,5.7-479.1,15.3c-19.2,32.6,92,216.5,182.1,300.9c141.8,132.2,241.5,172.5,438.8,172.5c136,0,180.1-7.7,270.2-49.8c138-65.2,256.8-184,322-321.9l49.8-107.3l9.6-3842.2c9.6-3587.3,11.5-3848,42.2-3938c182.1-523.2,726.3-820.2,1214.9-663c189.7,59.4,379.4,195.4,502.1,356.4c111.1,149.5,164.8,274,195.5,454.2c11.5,76.7,19.2,810.6,19.2,1979.5c0,2102.2-11.5,1937.4,157.1,2090.7c124.6,115,189.7,132.2,523.2,132.2h287.4l5.8-80.5l5.7-82.4h-120.7c-157.1,0-245.3-26.8-344.9-101.6c-249.1-191.6-249.1-582.6,0-774.2c124.6-93.9,189.7-103.5,661.1-97.7c467.6,5.7,500.2,13.4,624.7,134.1C9861.7-469.1,9900-373.3,9900-221.9c0,151.4-38.3,247.2-143.7,350.7c-93.9,92-182.1,126.5-346.9,134.1l-145.6,7.7l-7.7,199.3c-9.6,291.3,3.8,283.6-450.3,291.3c-465.7,7.7-567.2-9.6-833.6-145.6c-9.6-3.8-15.3,429.2-15.3,962v969.7h76.7h76.7v-115c0-247.2,139.9-446.5,360.3-509.7c237.6-69,490.6,53.7,590.2,289.4c34.5,86.2,38.3,873.8,3.8,994.6c-30.7,105.4-189.7,264.5-295.1,295.1c-358.3,105.4-659.2-130.3-659.2-517.4V2873h-197.4c-182.1,0-201.2-3.8-239.5-44.1l-42.2-44.1V-377.1c0-1761.1-7.7-3232.8-17.3-3324.8c-21.1-187.8-65.1-295.1-172.5-406.3c-113.1-120.7-233.8-172.5-427.3-182c-268.3-13.4-469.5,76.7-590.2,262.5c-122.6,191.6-115-61.3-115,4093.2c0,3401.4-3.8,3788.5-30.6,3882.4C6124.9,4467.3,5613.2,4770.1,5093.9,4643.6z M5331.5-471v-3995.5H2878.6H425.8V-471v3995.5h2452.9h2452.9V-471z"/><path d="M598.2,1742.3V113.5h2290h2290l-3.8,1625l-5.7,1623.1l-2284.2,5.7l-2286.1,3.8V1742.3z M2171.5,2664.1c61.3-63.2,69-111.2,28.7-189.7c-15.3-28.8-182.1-205-371.8-390.9c-320-318.1-348.8-341.1-413.9-341.1c-93.9,0-164.8,69-164.8,157.1c0,57.5,38.3,101.6,379.4,442.7C2048.9,2759.9,2066.1,2769.5,2171.5,2664.1z M2945.7,2700.5c63.2-24.9,113.1-134.1,88.1-195.5c-9.6-24.9-145.6-170.5-302.8-325.8c-318.1-316.2-346.8-329.6-448.4-228c-38.3,40.2-55.6,74.7-55.6,118.8c0,53.7,32.6,95.8,254.9,320c241.5,245.3,341.1,329.6,390.9,329.6C2884.4,2719.7,2917,2712,2945.7,2700.5z M2140.9,1884.1c36.4-15.3,86.2-105.4,86.2-161c0-57.5-101.6-153.3-159-153.3c-26.8,0-74.7,23-107.3,49.8C1815.1,1742.3,1958.8,1953.1,2140.9,1884.1z M1826.6,1545c42.2-32.6,74.7-97.7,74.7-149.5s-389-454.2-456.1-471.4c-53.7-13.4-153.3,26.8-176.3,72.8c-11.5,19.2-19.2,61.3-19.2,95.8c0,55.6,28.7,92,207,270.2c184,184,214.6,207,274,207C1765.3,1569.9,1809.4,1558.4,1826.6,1545z"/><path d="M2495.4-258.3C1767.2-411.6,1211.5-929,989.2-1661c-47.9-157.1-53.7-197.4-53.7-505.9c-1.9-404.3,28.7-544.2,189.7-871.9c256.8-525.1,699.5-887.2,1272.4-1038.6c159.1-44.1,222.3-49.8,481-49.8c260.6,0,320,5.7,486.7,49.8c693.7,185.9,1209.2,697.5,1414.2,1404.7c38.3,132.2,44.1,193.5,44.1,486.7c0,398.6-30.7,544.2-182.1,852.8c-111.1,228-231.9,392.8-423.5,574.9c-237.6,226.1-519.3,385.2-831.7,469.5C3191-235.3,2690.8-218.1,2495.4-258.3z M3137.3-1237.5c329.6-86.2,620.9-387.1,697.5-718.6c70.9-304.7-26.8-668.8-237.6-889.2c-387.1-402.5-985-419.7-1389.3-38.3c-321.9,304.7-396.7,749.3-195.5,1157.4c63.2,128.4,266.4,335.4,398.6,406.3C2612.3-1210.7,2907.4-1178.1,3137.3-1237.5z"/></g></g>
</svg>