<?xml version="1.0" encoding="utf-8"?>
<!-- Svg Vector Icons : http://www.onlinewebfonts.com/icon -->
<!DOCTYPE svg PUBLIC "-//W3C//DTD SVG 1.1//EN" "http://www.w3.org/Graphics/SVG/1.1/DTD/svg11.dtd">
<svg version="1.1" xmlns="http://www.w3.org/2000/svg" xmlns:xlink="http://www.w3.org/1999/xlink" x="0px" y="0px" viewBox="0 0 1000 1000" enable-background="new 0 0 1000 1000" xml:space="preserve">
<metadata> Svg Vector Icons : http://www.onlinewebfonts.com/icon </metadata>
<g><path d="M875.5,102.5c-48.9-47-108.2-77.2-170.3-92.2l0.9,52.7c48.9,13.2,95,38.6,133.6,76.2c127,121.4,131.7,322.7,10.4,449.7c-93.1,97.8-234.3,122.3-351.8,73.4l-45.1-26.3l-181.6,191l36.7,34.8c10.4,9.4,10.4,25.4,0.9,35.7c-9.4,10.3-25.4,10.3-35.7,0.9l-36.7-34.8l-70.6,73.4c0,0-54.6,4.7-71.5-11.3c-19.7-18.8-19.7-76.2-19.7-76.2l286-299.2l-4.7-8.5c-16.9,2.8-26.3,37.6-44.2,37.6c17.9,0,27.3-33.9,44.2-37.6l-21.6-36.7c-54.6-115.7-35.7-256.8,57.4-354.7c32.9-33.9,71.5-59.3,111.9-75.3l-0.9-53.6c-54.6,18.8-105.4,49.9-147.7,94.1c-112.9,118.5-131.7,292.6-58.3,429L10,843.8c0,0,7.5,96,44.2,130.8c36.7,34.8,116.6,22.6,116.6,22.6l67.7-62.1c30.1,29.2,79,28.2,108.2-2.8c29.2-30.1,28.2-79-2.8-108.2l117.6-123.2c140.2,66.8,313.3,40.4,426.2-78.1C1028.8,476.9,1023.2,243.6,875.5,102.5L875.5,102.5z M442.8,700.8L442.8,700.8c9.4-9.4,9.4-37.6,28.2-47C452.2,663.1,452.2,691.4,442.8,700.8z"/><path d="M506.7,489.1c65.8,63,170.3,60.2,233.3-5.7c63-65.9,60.2-170.3-5.7-233.3c-65.8-63-170.3-60.2-233.3,5.7C438.1,321.6,440.9,426.1,506.7,489.1L506.7,489.1z M538.7,290.6c43.3-46.1,115.7-47,161.8-3.8c46.1,43.3,47,115.7,3.8,161.8c-43.3,46.1-115.7,47-161.8,3.8C496.4,408.2,494.5,335.8,538.7,290.6z"/><path d="M442.8,695.1L442.8,695.1C442.8,696,442.8,696,442.8,695.1c1.9,0.9,1.9,0.9,2.8,1.9c6.6-11.3,8.5-34.8,25.4-43.3c-16.9,8.5-18.8,31-25.4,43.3c51.7,28.2,111,43.3,174,43.3c204.1,0,369.7-165.6,369.7-369.7c0-204.1-165.6-369.7-369.7-369.7c-204.1,0-369.7,165.6-369.7,369.7c0,72.4,20.7,140.2,56.4,196.6c1.9,3.8,4.7,6.6,6.6,10.4c15.1-3.8,23.5-30.1,38.6-35.7c-32-49.9-49.9-108.2-49.9-171.2c0-175.9,142.1-318,318-318c175.9,0,318,142.1,318,318c0,175.9-142.1,318-318,318c-52.7,0-101.6-13.2-145.8-34.8L442.8,695.1z"/><path d="M353.4,543.7l-0.9-0.9c-14.1,5.7-23.5,32.9-38.6,35.7L353.4,543.7z"/></g>
</svg>