<?xml version="1.0" encoding="utf-8"?>
<!-- Svg Vector Icons : http://www.onlinewebfonts.com/icon -->
<!DOCTYPE svg PUBLIC "-//W3C//DTD SVG 1.1//EN" "http://www.w3.org/Graphics/SVG/1.1/DTD/svg11.dtd">
<svg version="1.1" xmlns="http://www.w3.org/2000/svg" xmlns:xlink="http://www.w3.org/1999/xlink" x="0px" y="0px" viewBox="0 0 1000 1000" enable-background="new 0 0 1000 1000" xml:space="preserve">
<metadata> Svg Vector Icons : http://www.onlinewebfonts.com/icon </metadata>
<g><path d="M500,206c-72.2,0-130.7,58.5-130.7,130.7h65.3c0-36.1,29.3-65.3,65.3-65.3c36.1,0,65.3,29.2,65.3,65.3S536.1,402,500,402v65.3v65.3h65.3v-82.8c39.1-22.6,65.3-64.8,65.3-113.2C630.7,264.5,572.2,206,500,206z M826.7,336.7C826.7,156.3,680.4,10,500,10c-180.4,0-326.7,146.3-326.7,326.7c0,135.9,83,252.4,201,301.6c-3.2,7.7-5,16.2-5,25.1v196c0,36.1,29.3,65.3,65.3,65.3c0,36.1,29.3,65.3,65.3,65.3c36.1,0,65.3-29.2,65.3-65.3c36.1,0,65.3-29.2,65.3-65.3v-196c0-8.9-1.8-17.3-5-25.1C743.7,589,826.7,472.5,826.7,336.7z M565.3,837.6c0,12-9.8,21.8-21.8,21.8h-87.1c-12,0-21.8-9.8-21.8-21.8V794h130.7V837.6z M565.3,589.8v138.9H434.7V589.8c-112.7-29-196-131.3-196-253.1c0-144.3,117-261.3,261.3-261.3c144.3,0,261.3,117,261.3,261.3C761.3,458.4,678,560.8,565.3,589.8z"/></g>
</svg>