<?xml version="1.0" encoding="utf-8"?>
<!-- Svg Vector Icons : http://www.onlinewebfonts.com/icon -->
<!DOCTYPE svg PUBLIC "-//W3C//DTD SVG 1.1//EN" "http://www.w3.org/Graphics/SVG/1.1/DTD/svg11.dtd">
<svg version="1.1" xmlns="http://www.w3.org/2000/svg" xmlns:xlink="http://www.w3.org/1999/xlink" x="0px" y="0px" viewBox="0 0 1000 1000" enable-background="new 0 0 1000 1000" xml:space="preserve">
<metadata> Svg Vector Icons : http://www.onlinewebfonts.com/icon </metadata>
<g><g transform="translate(0.000000,511.000000) scale(0.100000,-0.100000)"><path d="M1575.8,3655.3c-26.9-26.9-53.8-74.9-61.5-107.6c-5.8-34.6-11.5-1031.9-11.5-2221.3c0-2394.3-7.7-2267.5,123-2321.3c101.9-42.3,6646.7-42.3,6748.5,0c130.7,53.8,123-73,123,2321.3c0,1189.5-5.8,2186.8-11.5,2221.3c-7.7,32.7-34.6,80.7-61.5,107.6l-48,48H5000H1623.8L1575.8,3655.3z M4308.2,3146.1c0-9.6-69.2-463.1-153.7-1008.8c-84.6-545.7-153.7-1001.1-153.7-1012.7c0-55.7-30.7,28.8-134.5,372.8c-96.1,320.9-113.4,365.1-130.7,322.8c-9.6-26.9-76.9-236.3-149.9-465l-132.6-418.9h-695.6H2060v1045.3c0,1037.6,0,1043.4,40.4,1095.3c23.1,28.8,59.6,61.5,82.6,69.2C2240.6,3169.1,4308.2,3171.1,4308.2,3146.1z M7884.3,3092.3l55.7-61.5V1983.5V936.3h-651.4h-649.5L6518,1201.4c-67.3,144.1-138.3,297.8-159.5,340.1l-38.4,74.9l-136.4-420.8c-76.9-232.5-142.2-413.1-149.9-403.5c-11.5,17.3-399.7,1537.3-399.7,1560.3c0,46.1-36.5-73-163.3-541.9c-78.8-295.9-151.8-555.3-159.5-574.5c-11.5-28.8-30.8,17.3-73,178.7c-36.5,146-59.6,203.7-69.2,180.6c-7.7-19.2-74.9-267.1-151.8-553.4c-74.9-284.4-142.2-524.6-149.9-532.3c-7.7-7.7-101.8,563-211.4,1268.2c-107.6,705.2-201.8,1304.8-207.5,1335.5l-9.6,51.9l1694.8-3.8l1694.8-5.8L7884.3,3092.3z M4567.6,742.2c99.9-628.3,182.5-1156.8,182.5-1174.1c0-32.7-73-34.6-1268.2-34.6c-941.6,0-1279.8,5.8-1316.3,23.1c-99.9,44.2-105.7,84.5-105.7,639.9v509.2h793.6h793.6l46.1,144.1c25,78.8,50,136.4,57.6,126.8c5.8-11.5,74.9-232.5,153.7-491.9c78.8-257.5,153.7-470.8,165.3-470.8c11.5,0,69.2,326.7,140.3,803.2c65.3,440,128.8,864.7,142.2,939.7c11.5,76.9,23.1,136.4,26.9,132.6C4383.2,1885.5,4467.7,1368.6,4567.6,742.2z M5816.7,590.4c103.8-390.1,194.1-707.1,199.9-701.4c7.7,3.8,86.5,232.5,174.8,507.3c88.4,276.7,167.2,501.5,174.9,501.5c5.8,0,30.8-42.3,51.9-96.1l40.4-96.1h739.8H7940V194.5c0-555.3-5.8-593.8-109.5-639.9c-32.7-15.4-493.8-21.1-1496.9-21.1H4880.9l13.5,53.8c5.8,28.8,74.9,286.3,151.8,570.7c155.6,572.6,140.3,553.4,221,282.5c23-76.9,44.2-138.4,48-138.4c3.8,0,71.1,224.8,147.9,499.6c76.9,274.8,146.1,499.6,151.8,499.6C5622.6,1301.4,5712.9,982.4,5816.7,590.4z"/><path d="M1541.2-1459.9c-48-15.4-111.4-48-144.1-69.2c-80.7-57.7-1103-872.4-1170.2-933.9C115.4-2564.8,100-2630.1,100-3026v-357.4l59.6-50l59.6-50H5000h4780.9l59.6,50l59.6,50v357.4c0,422.7-13.5,465-174.9,605.3c-324.8,276.7-1116.4,903.1-1189.5,939.7l-86.5,44.2l-3410.8,3.8C1977.4-1429.2,1618-1431.1,1541.2-1459.9z M7288.6-2922.2c86.5-96.1,69.2-205.6-40.3-263.3c-48-25-330.5-28.8-2248.2-28.8c-1917.7,0-2200.2,3.8-2248.2,28.8c-105.7,55.7-126.8,163.3-48,257.5c26.9,30.7,69.2,59.6,92.2,65.3c23.1,3.8,1030,5.8,2238.6,5.8l2198.3-1.9L7288.6-2922.2z"/></g></g>
</svg>