<?xml version="1.0" encoding="utf-8"?>
<!-- Svg Vector Icons : http://www.onlinewebfonts.com/icon -->
<!DOCTYPE svg PUBLIC "-//W3C//DTD SVG 1.1//EN" "http://www.w3.org/Graphics/SVG/1.1/DTD/svg11.dtd">
<svg version="1.1" xmlns="http://www.w3.org/2000/svg" xmlns:xlink="http://www.w3.org/1999/xlink" x="0px" y="0px" viewBox="0 0 1000 1000" enable-background="new 0 0 1000 1000" xml:space="preserve">
<metadata> Svg Vector Icons : http://www.onlinewebfonts.com/icon </metadata>
<g><path d="M934.8,747H65.2C34.8,747,10,722.3,10,691.8v-509c0-30.4,24.8-55.2,55.2-55.2h869.6c30.4,0,55.2,24.8,55.2,55.2v509C990,722.3,965.2,747,934.8,747z M65.2,168.7c-7.8,0-14.1,6.3-14.1,14.1v509c0,7.8,6.3,14.1,14.1,14.1h869.6c7.8,0,14.1-6.3,14.1-14.1v-509c0-7.8-6.3-14.1-14.1-14.1H65.2z"/><path d="M406.1,370.7"/><path d="M867.2,831.3H135.9c-11.3,0-20.5,9.2-20.5,20.5s9.2,20.5,20.5,20.5h731.4c11.3,0,20.5-9.2,20.5-20.5S878.6,831.3,867.2,831.3z"/><path d="M389.2,743.9h223v86.9h-223V743.9z"/><path d="M590.5,437.3c0,7.5-4.4,14.1-10.8,17.7l0,0l-133.6,88.9c-0.1,0-0.1,0.1-0.2,0.1l-0.1,0.1l0,0c-3.3,1.8-7.1,2.8-11.2,2.8c-12.2,0-22-9.2-22-20.5l0,0v-178l0,0c0-11.3,9.9-20.5,22-20.5c4.1,0,7.9,1,11.2,2.9l0,0l0.1,0c0.1,0,0.1,0.1,0.2,0.1l133.6,88.9l0,0C586.2,423.2,590.5,429.8,590.5,437.3L590.5,437.3z"/></g>
</svg>