<?xml version="1.0" encoding="utf-8"?>
<!-- Svg Vector Icons : http://www.onlinewebfonts.com/icon -->
<!DOCTYPE svg PUBLIC "-//W3C//DTD SVG 1.1//EN" "http://www.w3.org/Graphics/SVG/1.1/DTD/svg11.dtd">
<svg version="1.1" xmlns="http://www.w3.org/2000/svg" xmlns:xlink="http://www.w3.org/1999/xlink" x="0px" y="0px" viewBox="0 0 1000 1000" enable-background="new 0 0 1000 1000" xml:space="preserve">
<metadata> Svg Vector Icons : http://www.onlinewebfonts.com/icon </metadata>
<g><g id="e6c6b53d3c8160b22dad35a0f710bd89"><path d="M868.4,182.5c-160.6-167.7-426.9-201-628.9-80.8C-24.6,258.8-29.9,562.1,69.7,734.5C217,989.7,532.5,994.6,645.8,946.3c75-31.9,41.7-129.5-30.6-100.4c-142.6,57.6-382.6-0.1-466.5-193.7c-77-177.5,2.3-366.4,126-451.8c116.4-80.3,335.4-103.8,498.5,39C948.4,392.7,874.1,657,812,720.9c-15.9,16.3-44.6,3.2-42.1-22.2l-0.2-386.9c0-10.9-7.5-45.3-43.8-45.3l-5.9,0c-23.3,0-40,18.8-40,43.6V310c-51.7-51.8-122.1-84.9-197-84.9c-148,0-278.2,131.7-278.2,281.2c0,148,130.2,278.2,278.2,278.2c74.9,0,143.6-29.9,195.3-81.2l0.8,27.6c-0.7,84.5,109.5,140.9,183.7,82.9C1026.5,686.2,1036.3,357.8,868.4,182.5z M482,693.2c-98.6,0-173.8-70.8-173.8-182.9c0-100.1,62.2-188.3,174.2-188.3h3.7c97.1,0,177.5,65.2,183.1,173.5l0.2,21.9C664.3,612.7,592,693.2,482,693.2z"/></g></g>
</svg>