<?xml version="1.0" encoding="utf-8"?>
<!-- Svg Vector Icons : http://www.onlinewebfonts.com/icon -->
<!DOCTYPE svg PUBLIC "-//W3C//DTD SVG 1.1//EN" "http://www.w3.org/Graphics/SVG/1.1/DTD/svg11.dtd">
<svg version="1.1" xmlns="http://www.w3.org/2000/svg" xmlns:xlink="http://www.w3.org/1999/xlink" x="0px" y="0px" viewBox="0 0 1000 1000" enable-background="new 0 0 1000 1000" xml:space="preserve">
<metadata> Svg Vector Icons : http://www.onlinewebfonts.com/icon </metadata>
<g><g><g><path d="M16.9,897.3c-5.6,5.9-8,14.2-6.4,22.3c1.6,8,7.1,14.7,14.6,17.9l82.1,35.4c9.6,4.2,20.8,1.9,28-5.7l18.3-19.2l-97.1-92.3L16.9,897.3z"/><path d="M928.3,308.3l2-2.1c12.1-12.9,11.3-33.2-1.6-45.2l23.8-25.6L727.4,25l-23.8,25.5l-5.1-4.7c-15-14-38.6-13.2-52.7,1.8L337.2,378c-6.3,6.7-9.7,15.7-9.3,24.9c0.3,9.2,4.3,18,11,24.2L111.1,666.9c0,0-4.3,40.1,13.7,87l-59.3,62.4l126.7,120.3l60.7-63.9c47.1,15.1,86.3,10.7,86.3,10.7l229.5-241.7l0.3,0.3c14.1,13,36,12.3,49.1-1.8l167-178.9l32.3,30.2L578.9,747.1l24.1,22.5c7.2,6.7,16.7,10.2,26.6,9.9c9.7-0.5,19-4.5,25.6-11.7l320.6-343.1c9.5-10.2,14.6-23.8,14.1-37.8c-0.5-14-6.5-27.2-16.7-36.7L928.3,308.3z M697.5,169.4l-205,218.4c-7.2,7.7-17,11.6-26.8,11.6c-9,0-18-3.3-25.1-10c-14.8-13.9-15.6-37.2-1.7-52l205-218.4c13.9-14.9,37.1-15.6,52-1.7C710.6,131.3,711.4,154.6,697.5,169.4z"/></g></g><g></g><g></g><g></g><g></g><g></g><g></g><g></g><g></g><g></g><g></g><g></g><g></g><g></g><g></g><g></g></g>
</svg>