<?xml version="1.0" encoding="utf-8"?>
<!-- Svg Vector Icons : http://www.onlinewebfonts.com/icon -->
<!DOCTYPE svg PUBLIC "-//W3C//DTD SVG 1.1//EN" "http://www.w3.org/Graphics/SVG/1.1/DTD/svg11.dtd">
<svg version="1.1" xmlns="http://www.w3.org/2000/svg" xmlns:xlink="http://www.w3.org/1999/xlink" x="0px" y="0px" viewBox="0 0 1000 1000" enable-background="new 0 0 1000 1000" xml:space="preserve">
<metadata> Svg Vector Icons : http://www.onlinewebfonts.com/icon </metadata>
<g><g transform="translate(0.000000,128.000000) scale(0.100000,-0.100000)"><path d="M219.3-947c-17.5-13.1-30.6-831.2-30.6-1811.1c0-1141.8-17.5-1793.7-43.8-1811.1c-56.9-35-61.2-1509.3-4.4-1509.3c26.3,0,48.1-91.9,56.9-210l13.1-205.6l704.3-13.1l708.7-8.8l140,577.5c183.7,769.9,170.6,726.2,245,800.6c56.9,56.9,446.2,65.6,2992.3,65.6c2546.1,0,2935.5-8.8,2992.3-65.6c74.4-78.7,70-56.9,245-800.6l140-577.5l704.3,8.8l708.7,13.1l13.1,196.9c8.8,109.4,30.6,214.3,56.9,240.6c52.5,52.5,52.5,1434.9-4.4,1491.8c-26.3,26.3-48.1,726.2-52.5,1833l-13.1,1793.6l-4772.8,13.1C2393.5-920.7,232.4-929.5,219.3-947z M2984.1-2810.6c201.2-135.6,310.6-350,310.6-621.2c0-249.4-83.1-420-293.1-577.5c-135.6-105-201.2-122.5-433.1-122.5c-306.2,0-446.2,74.4-616.8,328.1c-148.7,210-140,577.5,13.1,804.9C2192.3-2666.2,2638.5-2583.1,2984.1-2810.6z M7835.7-2784.4c214.4-157.5,315-354.3,315-616.8c0-433.1-293.1-726.2-726.2-726.2c-420,0-717.4,301.9-717.4,739.4c0,301.9,166.2,560,437.5,673.7C7310.7-2644.4,7700.1-2683.7,7835.7-2784.4z"/><path d="M4869.6-5334.8c-48.1-48.1-87.5-113.8-87.5-144.4c0-78.8,140-205.6,227.5-205.6c74.4,0,210,135.6,210,210c0,65.6-157.5,227.5-218.7,227.5C4979-5247.3,4917.7-5286.7,4869.6-5334.8z"/><path d="M3434.7-5868.6c-65.6-65.6-65.6-223.1,0-288.7c65.6-65.6,223.1-65.6,288.7,0c122.5,122.5,30.6,341.2-144.4,341.2C3526.6-5816,3465.3-5837.9,3434.7-5868.6z"/><path d="M6278.3-5868.6c-122.5-122.5-30.6-341.2,144.4-341.2c118.1,0,196.9,78.7,196.9,196.9c0,118.1-78.7,196.9-196.9,196.9C6370.1-5816,6308.9-5837.9,6278.3-5868.6z"/><path d="M2441.6-6052.3c-135.6-205.6,96.3-402.5,293.1-245c83.1,65.6,91.9,96.3,56.9,201.2C2730.4-5921.1,2542.2-5899.2,2441.6-6052.3z"/><path d="M7232-6030.4c-65.6-126.8-52.5-210,48.1-280c192.5-140,411.2,61.2,280,258.1C7477-5925.4,7297.6-5912.3,7232-6030.4z"/></g></g>
</svg>