<?xml version="1.0" encoding="utf-8"?>
<!-- Svg Vector Icons : http://www.onlinewebfonts.com/icon -->
<!DOCTYPE svg PUBLIC "-//W3C//DTD SVG 1.1//EN" "http://www.w3.org/Graphics/SVG/1.1/DTD/svg11.dtd">
<svg version="1.1" xmlns="http://www.w3.org/2000/svg" xmlns:xlink="http://www.w3.org/1999/xlink" x="0px" y="0px" viewBox="0 0 1000 1000" enable-background="new 0 0 1000 1000" xml:space="preserve">
<metadata> Svg Vector Icons : http://www.onlinewebfonts.com/icon </metadata>
<g><g transform="translate(0.000000,512.000000) scale(0.100000,-0.100000)"><path d="M2356,4991.7c-187.8-65.2-325.8-205.1-391-394.8c-28.8-82.4-30.7-479.2-30.7-4477.6c0-3985,1.9-4395.2,30.7-4483.3c47.9-145.7,151.4-268.3,295.2-346.9l124.6-69h2616.4h2616.4l124.6,69c145.7,78.6,249.2,203.2,295.2,350.8c28.8,88.1,30.7,507.9,26.8,4515.9l-5.8,4418.1l-47.9,95.8c-59.4,122.7-174.4,237.7-297.1,297.1l-95.8,47.9l-2587.6,3.8C2714.5,5022.4,2432.7,5020.4,2356,4991.7z M7454.6,4104.2v-306.7H5001.2H2547.7v306.7v306.7h2453.5h2453.5V4104.2z M7454.6,730.7v-2453.5H5001.2H2547.7V730.7v2453.5h2453.5h2453.5V730.7z M7454.6-3256.2v-920H5001.2H2547.7v920v920h2453.5h2453.5V-3256.2z"/><path d="M4876.6-2976.3c-193.6-84.3-239.6-341.2-88.2-492.6c124.6-124.6,300.9-124.6,425.5,0C5451.6-3231.2,5185.2-2842.1,4876.6-2976.3z"/></g></g>
</svg>