<?xml version="1.0" encoding="utf-8"?>
<!-- Svg Vector Icons : http://www.onlinewebfonts.com/icon -->
<!DOCTYPE svg PUBLIC "-//W3C//DTD SVG 1.1//EN" "http://www.w3.org/Graphics/SVG/1.1/DTD/svg11.dtd">
<svg version="1.1" xmlns="http://www.w3.org/2000/svg" xmlns:xlink="http://www.w3.org/1999/xlink" x="0px" y="0px" viewBox="0 0 1000 1000" enable-background="new 0 0 1000 1000" xml:space="preserve">
<metadata> Svg Vector Icons : http://www.onlinewebfonts.com/icon </metadata>
<g><g transform="translate(0.000000,511.000000) scale(0.100000,-0.100000)"><path d="M152.8,1915.8l-52.8-50.7V110v-1755.1l52.8-50.7l50.7-52.8h4458.6h4458.6l50.7,52.8c50.7,48.6,52.8,61.3,52.8,337.9v285.1h285.1c276.7,0,289.4,2.1,337.9,52.8l52.8,50.7V110v1079.3l-52.8,50.7c-48.6,50.7-61.3,52.8-337.9,52.8h-285.1v285.1c0,276.7-2.1,289.4-52.8,337.9l-50.7,52.8H4662.1H203.5L152.8,1915.8z M8886.2,110v-1520.7H4662.1H437.9V110v1520.7h4224.1h4224.1V110z M9562.1,110v-844.8h-169h-169V110v844.8h169h169V110z"/><path d="M775.9,110v-1182.8h169h169V110v1182.8h-169h-169V110z"/><path d="M1451.7,110v-1182.8h169h169V110v1182.8h-169h-169V110z"/><path d="M2127.6,110v-1182.8h169h169V110v1182.8h-169h-169V110z"/><path d="M2803.4,110v-1182.8h169h169V110v1182.8h-169h-169V110z"/></g></g>
</svg>