<?xml version="1.0" encoding="utf-8"?>
<!-- Svg Vector Icons : http://www.onlinewebfonts.com/icon -->
<!DOCTYPE svg PUBLIC "-//W3C//DTD SVG 1.1//EN" "http://www.w3.org/Graphics/SVG/1.1/DTD/svg11.dtd">
<svg version="1.1" xmlns="http://www.w3.org/2000/svg" xmlns:xlink="http://www.w3.org/1999/xlink" x="0px" y="0px" viewBox="0 0 1000 1000" enable-background="new 0 0 1000 1000" xml:space="preserve">
<metadata> Svg Vector Icons : http://www.onlinewebfonts.com/icon </metadata>
<g><path d="M990,500c0,9.5-3.5,17.7-10.4,24.6l-140,140c-6.9,6.9-15.1,10.4-24.6,10.4c-9.5,0-17.7-3.5-24.6-10.4S780,649.5,780,640v-70H570v210h70c9.5,0,17.7,3.5,24.6,10.4c6.9,6.9,10.4,15.1,10.4,24.6c0,9.5-3.5,17.7-10.4,24.6l-140,140c-6.9,6.9-15.1,10.4-24.6,10.4c-9.5,0-17.7-3.5-24.6-10.4l-140-140c-6.9-6.9-10.4-15.1-10.4-24.6c0-9.5,3.5-17.7,10.4-24.6c6.9-6.9,15.1-10.4,24.6-10.4h70V570H220v70c0,9.5-3.5,17.7-10.4,24.6S194.5,675,185,675s-17.7-3.5-24.6-10.4l-140-140C13.5,517.7,10,509.5,10,500c0-9.5,3.5-17.7,10.4-24.6l140-140c6.9-6.9,15.1-10.4,24.6-10.4s17.7,3.5,24.6,10.4c6.9,6.9,10.4,15.1,10.4,24.6v70h210V220h-70c-9.5,0-17.7-3.5-24.6-10.4c-6.9-6.9-10.4-15.1-10.4-24.6c0-9.5,3.5-17.7,10.4-24.6l140-140C482.3,13.5,490.5,10,500,10c9.5,0,17.7,3.5,24.6,10.4l140,140c6.9,6.9,10.4,15.1,10.4,24.6c0,9.5-3.5,17.7-10.4,24.6c-6.9,6.9-15.1,10.4-24.6,10.4h-70v210h210v-70c0-9.5,3.5-17.7,10.4-24.6c6.9-6.9,15.1-10.4,24.6-10.4c9.5,0,17.7,3.5,24.6,10.4l140,140C986.5,482.3,990,490.5,990,500L990,500z"/></g>
</svg>