<?xml version="1.0" encoding="utf-8"?>
<!-- Svg Vector Icons : http://www.onlinewebfonts.com/icon -->
<!DOCTYPE svg PUBLIC "-//W3C//DTD SVG 1.1//EN" "http://www.w3.org/Graphics/SVG/1.1/DTD/svg11.dtd">
<svg version="1.1" xmlns="http://www.w3.org/2000/svg" xmlns:xlink="http://www.w3.org/1999/xlink" x="0px" y="0px" viewBox="0 0 1000 1000" enable-background="new 0 0 1000 1000" xml:space="preserve">
<metadata> Svg Vector Icons : http://www.onlinewebfonts.com/icon </metadata>
<g><path d="M133.6,134v856h732.8V134H133.6z M754.3,878H245.7V246h508.7V878z"/><path d="M621.7,10H368.1C290.6,10,240,64.6,223.9,135h552.1C757.3,64.6,699.2,10,621.7,10z M611.6,121.7H379.7c-14.5,0-26.3-12-26.3-26.9c0-14.9,11.8-26.9,26.3-26.9h231.9c14.5,0,26.3,12,26.3,26.9C637.9,109.6,626.1,121.7,611.6,121.7z"/><path d="M620.4,256.1v-53.8H379.6v53.8c-14.5,3.8-25.2,16.9-25.2,32.5c0,18.6,15.2,33.6,33.8,33.6h223.6c18.7,0,33.8-15,33.8-33.6C645.7,273,635,259.9,620.4,256.1z"/></g>
</svg>