<?xml version="1.0" encoding="utf-8"?>
<!-- Svg Vector Icons : http://www.onlinewebfonts.com/icon -->
<!DOCTYPE svg PUBLIC "-//W3C//DTD SVG 1.1//EN" "http://www.w3.org/Graphics/SVG/1.1/DTD/svg11.dtd">
<svg version="1.1" xmlns="http://www.w3.org/2000/svg" xmlns:xlink="http://www.w3.org/1999/xlink" x="0px" y="0px" viewBox="0 0 1000 1000" enable-background="new 0 0 1000 1000" xml:space="preserve">
<metadata> Svg Vector Icons : http://www.onlinewebfonts.com/icon </metadata>
<g><g transform="translate(0.000000,511.000000) scale(0.100000,-0.100000)"><path d="M4995.7,1266.2l-6.4-3745.9l-49-81c-27.7-42.6-89.5-102.3-138.5-130c-89.5-51.1-98-51.1-760.7-61.8c-624.3-6.4-679.7-10.7-796.9-53.3c-639.2-236.5-892.8-965.2-528.5-1529.9c106.5-164.1,232.3-272.8,430.4-368.7l159.8-76.7l899.2-6.4c873.6-6.4,901.3-4.3,984.4,38.4c49,23.4,112.9,83.1,144.9,132.1l59.7,89.5l6.4,3745.9l4.3,3745.9h826.7c530.6,0,854.5,8.5,909.8,23.4c383.5,104.4,415.5,620.1,49,775.6c-68.2,27.7-210.9,32-933.3,32h-852.3v202.4v202.4h858.7c788.4,0,863,4.3,941.8,40.5c213.1,98,300.4,317.5,213.1,528.4c-42.6,102.3-87.3,151.3-185.4,200.3c-74.6,38.3-140.6,40.5-1154.9,40.5H4999.9L4995.7,1266.2z"/></g></g>
</svg>