<?xml version="1.0" encoding="utf-8"?>
<!-- Svg Vector Icons : http://www.onlinewebfonts.com/icon -->
<!DOCTYPE svg PUBLIC "-//W3C//DTD SVG 1.1//EN" "http://www.w3.org/Graphics/SVG/1.1/DTD/svg11.dtd">
<svg version="1.1" xmlns="http://www.w3.org/2000/svg" xmlns:xlink="http://www.w3.org/1999/xlink" x="0px" y="0px" viewBox="0 0 1000 1000" enable-background="new 0 0 1000 1000" xml:space="preserve">
<metadata> Svg Vector Icons : http://www.onlinewebfonts.com/icon </metadata>
<g><g transform="translate(0.000000,512.000000) scale(0.100000,-0.100000)"><path d="M3267.8,4997c-76.6-40.2-86.1-74.6-86.1-277.5v-197.1h-528.3h-528.3l-55.5-55.5c-53.6-55.5-55.5-61.3-55.5-248.8v-193.3h-691h-691l-55.5-55.5l-55.5-55.5V-281.9c0-4480.8-3.8-4279.8,86.1-4314.3c42.1-15.3,4264.5-15.3,4306.6,0c36.4,15.3,86.1,105.3,86.1,160.8c0,23-24.9,67-55.5,97.6l-55.5,55.5H2867.8H846.5l3.8,3985.1l5.7,3987l580,5.7l578,3.8v-199.1c0-183.8,3.8-204.8,45.9-254.6l45.9-53.6l1931.3-5.7c1347.5-3.8,1950.4,0,2000.2,15.3c105.3,30.6,130.1,91.9,130.1,315.8v181.8h574.2H7316V2034.1c0-1380,3.8-1676.7,26.8-1730.3c55.5-132.1,248.8-126.3,296.7,7.7c15.3,45.9,21,555.1,21,1803c0,1860.5,1.9,1839.4-91.9,1889.2c-26.8,13.4-269.9,21.1-719.7,21.1h-681.4v162.7c0,178-30.6,281.4-91.9,313.9c-26.8,13.4-223.9,21.1-557,21.1H5000v193.3c0,187.6-1.9,193.3-55.5,248.8L4889,5020h-792.4C3562.6,5018.1,3294.6,5012.3,3267.8,4997z M4665,4673.6c7.7-11.5,7.7-160.8,0-335l-13.4-313.9h-572.3H3507v335v335h572.3C4467.9,4694.6,4657.4,4688.9,4665,4673.6z M3166.3,3996c5.7-189.5,9.6-204.8,59.3-254.6l51.7-51.7l752.2-5.7c411.5-3.8,779,0,815.4,5.7c34.4,7.7,84.2,32.5,109.1,57.4c42.1,42.1,45.9,61.3,45.9,248.8v201h411.5H5823v-335v-335H4083.2H2341.4v319.6c0,176.1,3.8,325.4,9.6,335c5.7,7.7,189.5,15.3,407.7,15.3h400L3166.3,3996z"/><path d="M1545.1,2311.6c-32.5-30.6-47.9-67-47.9-114.8s15.3-84.2,47.9-114.8l45.9-47.9h1140.8h1140.8l45.9,47.9c32.5,30.6,47.9,67,47.9,114.8s-15.3,84.2-47.9,114.8l-45.9,47.9H2731.9H1591.1L1545.1,2311.6z"/><path d="M1545.1,1316.3c-32.5-30.6-47.9-67-47.9-114.8s15.3-84.2,47.9-114.8l45.9-47.9h2471h2471l45.9,47.9c65.1,63.2,65.1,160.8-1.9,227.8l-51.7,49.8H4058.3H1591.1L1545.1,1316.3z"/><path d="M1545.1,321c-32.5-30.6-47.9-67-47.9-114.8s15.3-84.2,47.9-114.9l45.9-47.8H2818h1226.9l45.9,47.8c51.7,51.7,63.2,151.2,23,202.9c-55.5,72.7-72.7,74.6-1315,74.6H1591.1L1545.1,321z"/><path d="M5202.9,326.7c-76.6-67-82.3-149.3-21.1-222l51.7-61.3h648.9h650.8l45.9,47.8c51.7,51.7,63.2,151.2,23,202.9c-53.6,70.8-93.8,74.6-729.2,74.6C5254.6,368.8,5250.8,368.8,5202.9,326.7z"/><path d="M7076.8-471.5c-74.7-32.5-101.4-89.9-139.7-294.7c-23-114.9-55.5-235.4-76.6-268c-51.7-90-147.4-147.4-246.9-147.4c-97.6,0-149.3,24.9-357.9,164.6c-220.1,149.3-222.1,149.3-486.2-114.8c-258.4-258.4-258.4-252.6-90-486.2c166.5-229.7,181.8-357.9,63.2-491.9c-61.2-70.8-139.7-101.4-375.1-145.5c-185.7-34.5-195.2-53.6-195.2-407.7c1.9-371.3,1.9-371.3,287.1-413.4c268-38.3,382.8-132.1,382.8-313.9c0-97.6-30.6-166.5-151.2-346.4c-44-63.2-78.5-130.2-78.5-149.3c0-65.1,53.6-137.8,235.4-315.8c227.8-222,246.9-223.9,463.2-68.9c172.3,122.5,214.4,141.7,319.7,141.7c158.9,0,256.5-109.1,302.4-335c63.2-317.7,59.3-315.8,438.3-315.8c250.7,0,271.8,1.9,319.6,44c40.2,34.5,55.5,72.7,76.6,191.4c47.9,275.6,126.3,367.5,317.7,367.5c99.5,0,120.6-7.7,252.7-101.4c214.4-147.4,223.9-145.5,476.6,107.2c252.7,254.6,254.6,260.3,111,478.5c-111,170.4-145.4,264.1-124.4,354.1c32.5,155,145.5,229.7,401.9,264.1c141.7,21.1,178,32.5,224,76.6l51.7,51.7v285.2c0,373.2-1.9,375.2-306.3,426.8c-143.6,26.8-201,51.7-273.7,130.1c-112.9,118.7-93.8,264.1,63.2,482.4c168.4,233.5,166.5,243.1-91.9,501.5c-254.6,254.6-258.4,254.6-491.9,97.6c-135.9-90-181.8-109.1-264.1-116.8c-80.4-5.7-111,0-164.6,38.3c-109.1,74.6-135.9,128.3-172.3,348.4c-49.7,290.9-45.9,287.1-390.4,292.8C7237.6-456.1,7097.8-461.9,7076.8-471.5z M7457.7-840.9c5.7-24.9,11.5-61.3,11.5-82.3c0-68.9,91.9-235.4,172.3-315.8c44-44,137.8-107.2,206.7-139.7c112.9-53.6,147.4-61.3,290.9-61.3c164.6,0,243.1,24.9,386.6,118.7c51.7,32.5,53.6,32.5,111-23c30.6-30.6,57.4-61.3,57.4-70.8c0-7.6-26.8-51.7-57.4-95.7c-114.9-158.9-143.6-361.7-76.6-572.3c70.8-229.7,241.2-398.1,461.3-455.6l122.5-32.5v-84.2v-84.2l-124.4-28.7c-155-38.3-241.2-91.9-352.2-214.4c-210.5-233.5-231.6-585.7-51.7-838.4l38.3-53.6l-63.2-61.3l-61.2-59.3L8407-3934c-109.1,57.4-137.8,63.2-279.5,61.3c-141.6,0-172.3-7.7-302.4-70.8c-168.4-84.2-279.5-199.1-336.9-350.3c-21.1-57.4-38.3-118.7-38.3-134c0-23-19.1-26.8-90-23l-88,5.7l-32.5,116.7c-38.3,141.7-91.9,231.6-195.2,323.5c-231.6,210.5-599.1,239.3-836.4,65.1l-82.3-59.3l-63.2,61.3l-63.2,61.3l68.9,128.3c67,120.6,70.8,134,70.8,308.2c0,168.4-5.7,193.3-63.2,310.1c-97.6,201-252.7,319.6-472.8,363.7l-105.3,21v90c0,90,0,91.9,72.7,105.3c275.6,49.8,486.2,269.9,539.8,570.4c32.5,176.1-3.8,317.7-134,524.5c-26.8,40.2-23,47.9,32.5,105.3l61.3,61.3l105.3-70.8c223.9-147.4,451.7-166.5,685.2-57.4c212.5,101.4,338.8,268,382.8,501.5l23,116.7h90C7432.8-798.8,7448.1-804.5,7457.7-840.9z"/><path d="M7095.9-1828.5c-145.4-49.8-258.4-122.5-367.5-237.4c-111-118.7-160.8-206.7-206.7-369.4c-124.4-426.8,229.7-941.7,689.1-1001.1c264.1-34.4,480.4,44,681.4,243.1c264.2,266,325.4,585.7,174.2,909.2C7890.2-1912.7,7450-1706,7095.9-1828.5z M7557.2-2173c105.3-53.6,208.6-176.1,237.4-281.4c13.4-45.9,21-143.6,15.3-216.3c-9.6-168.4-78.5-292.8-212.5-375.2c-78.5-47.9-116.8-57.4-248.8-65.1c-143.6-5.7-166.5-1.9-262.2,47.8c-250.7,128.3-336.9,438.3-195.2,702.5c91.9,168.4,245,245,463.2,233.5C7432.8-2130.9,7509.3-2148.2,7557.2-2173z"/><path d="M1583.4-649.5c-61.3-32.5-86.1-74.6-86.1-151.2c0-55.5,11.5-80.4,49.8-111c51.7-40.2,59.3-40.2,1787.7-40.2h1736l44,47.8c63.2,68.9,59.3,174.2-9.6,233.5l-49.8,44H3338.6C2132.7-628.4,1610.2-634.2,1583.4-649.5z"/><path d="M1583.4-1644.8c-97.6-51.7-118.7-187.6-42.1-260.3l44-42.1h1493h1494.9l38.3,44c21,23,44,57.4,49.8,76.6c19.1,53.6-36.4,164.6-91.9,185.7C4496.6-1614.1,1635.1-1616.1,1583.4-1644.8z"/><path d="M1583.4-2640.1c-97.6-51.7-118.7-187.6-42.1-260.3l44-42.1h1244.1c989.6,1.9,1247.9,5.7,1274.8,26.8c53.6,40.2,74.7,116.7,51.7,183.7c-42.1,116.7-11.5,114.9-1332.2,114.9C1991.1-2619,1610.2-2624.8,1583.4-2640.1z"/></g></g>
</svg>