<?xml version="1.0" encoding="utf-8"?>
<!-- Svg Vector Icons : http://www.onlinewebfonts.com/icon -->
<!DOCTYPE svg PUBLIC "-//W3C//DTD SVG 1.1//EN" "http://www.w3.org/Graphics/SVG/1.1/DTD/svg11.dtd">
<svg version="1.1" xmlns="http://www.w3.org/2000/svg" xmlns:xlink="http://www.w3.org/1999/xlink" x="0px" y="0px" viewBox="0 0 1000 1000" enable-background="new 0 0 1000 1000" xml:space="preserve">
<metadata> Svg Vector Icons : http://www.onlinewebfonts.com/icon </metadata>
<g><path d="M241.8,971.3c-25-25-24.9-65.6,0-90.4l0,0l381-380.9L241.9,119.2l-0.1-0.1l0.1,0.1c-24.9-24.9-24.9-65.4-0.1-90.4l0,0c25-25,65.5-25,90.4,0l0,0l426,426c12.1,11.9,18.8,28.4,18.8,45.2l0,0c0,16.9-6.8,33.4-18.7,45.2l0,0l-426,426.1c-12.5,12.6-28.8,18.7-45.2,18.7l0,0C270.7,990,254.3,983.7,241.8,971.3L241.8,971.3z"/></g>
</svg>