<?xml version="1.0" encoding="utf-8"?>
<!-- Svg Vector Icons : http://www.onlinewebfonts.com/icon -->
<!DOCTYPE svg PUBLIC "-//W3C//DTD SVG 1.1//EN" "http://www.w3.org/Graphics/SVG/1.1/DTD/svg11.dtd">
<svg version="1.1" xmlns="http://www.w3.org/2000/svg" xmlns:xlink="http://www.w3.org/1999/xlink" x="0px" y="0px" viewBox="0 0 1000 1000" enable-background="new 0 0 1000 1000" xml:space="preserve">
<metadata> Svg Vector Icons : http://www.onlinewebfonts.com/icon </metadata>
<g><path d="M722.4,420.1c0,151.5-159.4,274.2-356.3,274.2c-61.4,0-119.4-11.9-169.8-33.1C85.4,614.9,10,524.3,10,420.1c0-151.5,159.5-274.3,356.3-274.3C563,145.8,722.4,268.7,722.4,420.1z"/><path d="M102.3,764.9c0,0,48.5-70.5,45.4-133.4c0,0,84.9,53.1,161,54.7C308.7,686.2,230.3,766.8,102.3,764.9z"/><path d="M990,509.3c0-142.2-140.5-259.1-320.5-273c68.6,50,111.6,120.6,111.6,199c0,151.5-159.5,274.3-356.2,274.3c-13,0-25.3-1.6-37.9-2.8c64,47.4,150.9,76.8,246.8,76.8c21,0,41.3-1.8,61.3-4.5c17.1,15.7,90.9,76.7,202.6,75c0,0-45.7-67.1-45-128.8C936,675,990,597.1,990,509.3z"/></g>
</svg>