<?xml version="1.0" encoding="utf-8"?>
<!-- Svg Vector Icons : http://www.onlinewebfonts.com/icon -->
<!DOCTYPE svg PUBLIC "-//W3C//DTD SVG 1.1//EN" "http://www.w3.org/Graphics/SVG/1.1/DTD/svg11.dtd">
<svg version="1.1" xmlns="http://www.w3.org/2000/svg" xmlns:xlink="http://www.w3.org/1999/xlink" x="0px" y="0px" viewBox="0 0 1000 1000" enable-background="new 0 0 1000 1000" xml:space="preserve">
<metadata> Svg Vector Icons : http://www.onlinewebfonts.com/icon </metadata>
<g><path d="M613.8,680.7c-26.4-5-26.4-72.6-26.4-72.6s72.6-72.6,87.4-165c41.2,0,67.6-97.3,26.4-133.6c0-36.3,51.1-293.7-206.2-293.7c-262.3,0-211.2,252.4-206.2,293.7c-41.2,36.3-14.8,133.6,26.4,133.6c14.8,92.4,87.4,165,87.4,165s0,67.6-26.4,72.6C298.7,690.6,10,845.6,10,984.2h490h490c0-138.6-288.7-293.7-366.3-303.6H613.8z"/></g>
</svg>