<?xml version="1.0" encoding="utf-8"?>
<!-- Svg Vector Icons : http://www.onlinewebfonts.com/icon -->
<!DOCTYPE svg PUBLIC "-//W3C//DTD SVG 1.1//EN" "http://www.w3.org/Graphics/SVG/1.1/DTD/svg11.dtd">
<svg version="1.1" xmlns="http://www.w3.org/2000/svg" xmlns:xlink="http://www.w3.org/1999/xlink" x="0px" y="0px" viewBox="0 0 1000 1000" enable-background="new 0 0 1000 1000" xml:space="preserve">
<metadata> Svg Vector Icons : http://www.onlinewebfonts.com/icon </metadata>
<g><path d="M981.7,467l-425-429.1l-6.2-2.1c-4.1,0-6.2,0-10.3,0c-10.3,0-18.6,4.1-24.8,10.3l-84.6,84.6l-35.1-39.2c-8.3-8.3-22.7-8.3-30.9,0L249.3,209.1c-8.3,8.3-8.3,20.6,0,28.9L468,464.9c6.2,6.2,6.2,16.5,0,22.7l-18.6,18.6l-28.9-28.9c-8.3-8.3-18.6-12.4-26.8-12.4s-14.4,2.1-22.7,8.3l-2.1,2.1l-2.1,4.1c-6.2,10.3-14.4,24.8-14.4,33v2.1v4.1c0,6.2,0,10.3-8.3,18.6L20.3,784.7l-2.1,2.1C10,795,10,807.4,10,811.5c0,6.2,2.1,18.6,12.4,28.9l107.3,109.3c4.1,4.1,14.4,14.4,26.8,14.4l0,0c14.4,0,24.8-10.3,26.8-14.4l257.9-307.4c6.2-6.2,12.4-10.3,20.6-10.3c2.1,0,2.1,0,4.1,0h6.2l4.1-2.1c4.1-2.1,14.4-6.2,24.8-12.4l4.1-2.1l2.1-4.1c4.1-6.2,6.2-14.4,6.2-22.7c0-10.3-4.1-20.6-12.4-28.9l-26.8-28.9l18.6-18.6c20.6-20.6,20.6-53.6,0-72.2L290.6,229.7c-2.1-2.1-2.1-8.3,0-10.3l84.6-86.7c2.1-2.1,6.2-2.1,8.3,0l22.7,24.8l-35.1,35.1c-12.4,14.4-14.4,35.1-4.1,45.4l433.3,435.3h8.3c8.3,0,18.6-6.2,26.8-14.4l142.4-146.5c6.2-6.2,12.4-16.5,12.4-26.8C987.9,479.4,985.9,473.2,981.7,467z M476.3,588.7l-12.4,6.2h-4.1c-16.5,0-33,8.3-45.4,22.7L156.5,927.1L43,813.6L362.8,564c14.4-12.4,20.6-26.8,22.7-43.3v-2.1c0,0,2.1-4.1,2.1-6.2l4.1-10.3l78.4,78.4L476.3,588.7z M810.5,630L397.9,217.3L540.2,72.9l410.6,414.7L810.5,630z"/><path d="M831.1,580.5c4.1,4.1,8.3,6.2,12.4,6.2c4.1,0,10.3-2.1,12.4-6.2c8.3-8.3,8.3-18.6,0-26.8l-26.8-28.9c-8.3-8.3-18.6-8.3-26.8,0c-8.3,8.3-8.3,18.6,0,26.8L831.1,580.5z"/><path d="M478.3,176.1c-8.3-8.3-18.6-8.3-26.8,0c-8.3,8.3-8.3,18.6,0,26.8l28.9,28.9c4.1,4.1,8.3,6.2,12.4,6.2s10.3-2.1,12.4-6.2c8.3-8.3,8.3-18.6,0-26.8L478.3,176.1z"/><path d="M744.5,493.8c4.1,4.1,8.3,6.2,12.4,6.2c4.1,0,10.3-2.1,12.4-6.2c8.3-8.3,8.3-18.6,0-26.8l-28.9-28.9c-8.3-8.3-18.6-8.3-26.8,0c-8.3,8.3-8.3,18.6,0,26.8L744.5,493.8z"/><path d="M655.8,405.1c4.1,4.1,8.3,6.2,12.4,6.2c4.1,0,10.3-2.1,12.4-6.2c8.3-8.3,8.3-18.6,0-26.8l-28.9-28.9c-8.3-8.3-18.6-8.3-26.8,0c-8.3,8.3-8.3,18.6,0,26.8L655.8,405.1z"/><path d="M540.2,289.6l28.9,28.9c4.1,4.1,8.3,6.2,12.4,6.2c4.1,0,10.3-2.1,12.4-6.2c8.3-8.3,8.3-18.6,0-26.8L565,262.7c-8.3-8.3-18.6-8.3-26.8,0S532,281.3,540.2,289.6z"/></g>
</svg>