<?xml version="1.0" encoding="utf-8"?>
<!-- Svg Vector Icons : http://www.onlinewebfonts.com/icon -->
<!DOCTYPE svg PUBLIC "-//W3C//DTD SVG 1.1//EN" "http://www.w3.org/Graphics/SVG/1.1/DTD/svg11.dtd">
<svg version="1.1" xmlns="http://www.w3.org/2000/svg" xmlns:xlink="http://www.w3.org/1999/xlink" x="0px" y="0px" viewBox="0 0 1000 1000" enable-background="new 0 0 1000 1000" xml:space="preserve">
<metadata> Svg Vector Icons : http://www.onlinewebfonts.com/icon </metadata>
<g><path d="M457.6,10c-161.9,0-293.1,133-293.1,297c0,164.1,131.2,297,293.1,297c161.9,0,293.1-133,293.1-297C750.8,143,619.5,10,457.6,10L457.6,10z M457.6,551.8c-115.6,0-241.3-127.5-241.3-244.7c0-117.2,125.7-244.7,241.3-244.7c115.7,0,241.3,127.6,241.3,244.7C698.9,424.3,573.2,551.8,457.6,551.8L457.6,551.8z M783.3,689.6l-0.4,258.1c0,23.4,18.7,42.3,41.8,42.3c23.1,0,9.9-18.9,9.9-42.3l-0.9-258.1c0-23.4,14.5-42.3-8.5-42.3C802,647.2,783.3,666.2,783.3,689.6L783.3,689.6z M666.7,859.9l250.8,0.4c23.1,0,41.8-19,41.8-42.4c0-23.4-18.7-9.8-41.8-9.8L666.7,809c-23.1,0-41.8-14.9-41.8,8.5C624.9,840.9,643.6,859.9,666.7,859.9L666.7,859.9z M708.8,646.5c3.4-6.1,5.3-13.1,5.3-20.6l-0.4-3.9c0-6.3-1.4-12.4-3.9-17.7h1c-0.5-0.4-1-0.7-1.5-1.1c-6.4-12.9-19-22-33.9-23.3c-63.4-39.2-137.9-61.9-217.7-61.9c-211.5,0-386.2,158.9-414.6,365.3c-1.5,4.4-2.4,9.2-2.4,14.1l0.4,3.9c0,23.4,18.7,42.3,41.8,42.3c23.1,0,41.8-18.9,41.8-42.3l-0.4-3.9c0-16.1-8.8-30-21.8-37.2c42.4-155.6,197.6-289.6,355.2-289.6c59.8,0,119.3,19.4,172.5,51.9l0.4,3.6c0,23.4,18.7,42.3,41.8,42.3C688,668.3,701.6,659.5,708.8,646.5L708.8,646.5L708.8,646.5L708.8,646.5z"/></g>
</svg>