<?xml version="1.0" encoding="utf-8"?>
<!-- Svg Vector Icons : http://www.onlinewebfonts.com/icon -->
<!DOCTYPE svg PUBLIC "-//W3C//DTD SVG 1.1//EN" "http://www.w3.org/Graphics/SVG/1.1/DTD/svg11.dtd">
<svg version="1.1" xmlns="http://www.w3.org/2000/svg" xmlns:xlink="http://www.w3.org/1999/xlink" x="0px" y="0px" viewBox="0 0 1000 1000" enable-background="new 0 0 1000 1000" xml:space="preserve">
<metadata> Svg Vector Icons : http://www.onlinewebfonts.com/icon </metadata>
<g><path d="M881.5,145.6c40.3,0,73.5,33.3,73.5,73.5v435.8c0,40.2-33.3,73.5-73.5,73.5h-203h-12.3l-8.8,7l-140,108.5l-1.8,1.8l-1.8,1.7c-5.3,5.3-10.5,5.3-14,5.3c-5.3,0-10.5-1.8-14-5.3l-1.7-1.7l-1.8-1.8L337.3,733.6l-8.8-7h-12.3H118.5c-40.3,0-73.5-33.2-73.5-73.5v-434c0-40.3,33.3-73.5,73.5-73.5H881.5 M881.5,110.6h-763C59,110.6,10,159.6,10,219.1v435.8c0,59.5,49,108.5,108.5,108.5h197.8l145.3,110.3c10.5,10.5,24.5,15.8,38.5,15.8c14,0,28-5.3,38.5-17.5l140-108.5h203c59.5,0,108.5-49,108.5-108.5V219.1C990,157.9,941,110.6,881.5,110.6L881.5,110.6z"/><path d="M248,436.1c0,19.3,15.7,35,35,35s35-15.7,35-35c0-19.3-15.7-35-35-35C263.7,401.1,248,416.8,248,436.1z"/><path d="M465,434.4c0,19.3,15.7,35,35,35c19.3,0,35-15.7,35-35c0-19.3-15.7-35-35-35C480.7,399.4,465,415,465,434.4z"/><path d="M682,434.4c0,19.3,15.7,35,35,35s35-15.7,35-35c0-19.3-15.7-35-35-35S682,415,682,434.4z"/></g>
</svg>