<?xml version="1.0" encoding="utf-8"?>
<!-- Svg Vector Icons : http://www.onlinewebfonts.com/icon -->
<!DOCTYPE svg PUBLIC "-//W3C//DTD SVG 1.1//EN" "http://www.w3.org/Graphics/SVG/1.1/DTD/svg11.dtd">
<svg version="1.1" xmlns="http://www.w3.org/2000/svg" xmlns:xlink="http://www.w3.org/1999/xlink" x="0px" y="0px" viewBox="0 0 1000 1000" enable-background="new 0 0 1000 1000" xml:space="preserve">
<metadata> Svg Vector Icons : http://www.onlinewebfonts.com/icon </metadata>
<g><g transform="translate(0.000000,511.000000) scale(0.100000,-0.100000)"><path d="M4593.4,4972.5c-293.6-45.3-583.3-120.2-709.4-185.2c-122.2-63.1-246.3-169.5-338.9-295.6c-67-86.7-92.6-106.4-210.9-147.8c-309.4-104.5-579.4-262.1-579.4-335c0-43.4,92.6-189.2,250.3-390.2c134-173.4,141.9-179.3,295.6-240.4l98.5-39.4l59.1,84.7c88.7,126.1,206.9,177.4,386.2,165.5c234.5-15.8,368.5-114.3,368.5-268c0-29.6-19.7-76.9-41.4-100.5c-92.6-98.5-240.4-120.2-545.9-80.8c-139.9,17.7-147.8,17.7-250.3-41.4l-106.4-59.1l145.8-220.7c163.6-248.3,204.9-287.7,323.2-303.5c72.9-9.9,106.4,0,230.6,63.1c145.8,74.9,147.8,74.9,216.8,43.4c37.4-17.7,72.9-47.3,80.8-67c15.8-41.4-63.1-191.1-193.1-366.5l-98.5-134l-141.9,76.9c-378.4,206.9-1194.2,624.7-1349.9,693.7c-303.5,132-685.8,216.8-969.6,216.8c-303.5,0-703.5-149.8-867.1-327.1c-94.6-102.5-94.6-96.6-9.9-376.4l49.3-159.6l74.9,19.7c39.4,11.8,132,21.7,205,23.6c124.2,2,136-2,201-65c39.4-37.4,88.7-112.3,112.3-169.5l41.4-100.5l141.9-2c169.5-2,281.8-45.3,441.4-167.5c98.5-76.9,250.3-248.3,234.5-266c-3.9-3.9-161.6-33.5-348.8-67c-603-104.4-979.4-208.9-1162.7-317.3c-120.2-72.9-204.9-193.1-262.1-370.5c-57.2-177.4-45.3-283.8,55.2-488.7l86.7-181.3l163.6,78.8c256.2,124.2,449.3,130.1,575.4,19.7l65-59.1l914.4,21.7c908.5,21.7,916.3,21.7,1079.9-21.7C3395.3,44,3511.5,2.6,3560.8-23c80.8-39.4,413.8-311.4,445.4-364.6c11.8-17.7-634.6-1160.7-878.9-1554.8c-130.1-208.9-220.7-427.6-256.2-618.8c-19.7-104.4-19.7-187.2,2-415.8c15.8-185.2,19.7-309.4,7.9-350.8c-27.6-98.5-139.9-145.8-471-193.1c-644.4-92.6-914.4-210.9-973.5-423.7c-23.7-84.7-74.9-770.5-59.1-786.3c5.9-5.9,230.6,0,500.5,11.8c571.5,23.7,1515.4,9.9,1970.6-31.5c173.4-15.8,317.3-25.6,319.2-25.6c2,2-7.9,199-19.7,437.5l-21.7,435.5l53.2,114.3c41.4,90.6,114.3,175.4,364.6,421.7c283.8,283.8,618.8,664.1,920.3,1052.3c169.5,216.8,191.2,214.8,591.2-59.1c118.2-80.8,354.7-250.3,522.2-374.4c392.2-291.7,634.5-451.3,725.2-476.9c39.4-9.9,116.3-19.7,167.5-19.7c128.1,0,210.8-76.9,210.8-195.1c0-94.6-41.4-128.1-177.3-149.8c-139.9-21.7-474.9-108.4-532.1-137.9c-195.1-100.5-295.6-405.9-295.6-892.7c0-159.6,3.9-183.3,27.6-163.6c15.8,13.8,141.9,33.5,281.8,45.3c283.8,25.6,1681,33.5,1937.1,11.8l167.5-15.8l70.9,124.2c49.2,84.7,102.5,143.9,177.3,197.1c59.1,41.4,157.7,118.2,218.8,173.4l112.3,98.5l-39.4,102.5c-191.2,486.8-603,1381.4-780.4,1698.7c-157.6,281.8-370.5,601-539.9,813.9c-218.8,275.9-234.5,299.5-234.5,368.5c0,78.8,67,181.3,157.7,240.4c206.9,137.9,307.4,222.7,402,348.8c203,266,279.8,482.8,260.1,719.3c-29.6,344.9-165.5,705.5-557.7,1480c-504.5,995.2-626.7,1407-518.3,1759.8c65,206.9,244.4,340.9,405.9,301.5c72.9-19.7,124.2-145.8,126.1-307.4c2-262.1,98.5-551.8,248.3-750.8c90.6-116.3,303.5-295.6,526.2-441.4c141.9-90.7,177.4-108.4,201-88.7c15.8,13.8,29.6,41.4,29.6,63.1c0,43.3-145.8,628.6-313.3,1257.3l-118.2,443.4l-114.3,104.4c-159.6,147.8-390.2,258.2-567.5,273.9c-350.8,27.6-674-145.8-825.7-443.4c-27.6-55.2-51.2-114.3-51.2-130.1c0-15.8-7.9-33.5-17.7-41.4c-21.7-11.8-220.7,139.9-313.3,242.4c-112.3,122.2-299.5,380.3-350.8,480.8l-47.3,92.6l-871,287.7c-478.9,157.7-884.8,285.7-900.6,283.8C4847.6,5010,4725.5,4992.2,4593.4,4972.5z M7681.4,1721c45.3-114.3,134-301.5,199-417.8c65-118.2,189.2-356.7,275.9-532.1L8314,449.9l-5.9-139.9c-9.8-214.8-47.3-256.2-429.6-478.9c-293.6-171.4-319.2-181.3-392.2-169.5c-147.8,25.6-242.4,110.4-524.2,484.8c-147.8,193.1-295.6,370.5-329.1,394.1c-70.9,51.2-153.7,216.8-153.7,307.4c0,124.1,69,169.5,522.2,340.9c226.6,88.7,431.6,171.5,455.2,187.2c71,45.3,132,232.5,134,407.9c2,82.8,3.9,149.8,5.9,147.8C7598.7,1929.9,7636.1,1835.3,7681.4,1721z"/></g></g>
</svg>