<?xml version="1.0" encoding="utf-8"?>
<!-- Svg Vector Icons : http://www.onlinewebfonts.com/icon -->
<!DOCTYPE svg PUBLIC "-//W3C//DTD SVG 1.1//EN" "http://www.w3.org/Graphics/SVG/1.1/DTD/svg11.dtd">
<svg version="1.1" xmlns="http://www.w3.org/2000/svg" xmlns:xlink="http://www.w3.org/1999/xlink" x="0px" y="0px" viewBox="0 0 1000 1000" enable-background="new 0 0 1000 1000" xml:space="preserve">
<metadata> Svg Vector Icons : http://www.onlinewebfonts.com/icon </metadata>
<g><g transform="translate(0.000000,511.000000) scale(0.100000,-0.100000)"><path d="M4544.9,3778.3c-1992.3-102.1-3525.3-685.5-4153.2-1579.6c-221.9-315-310.6-623.4-288.4-1000.6c20-372.7,144.2-663.3,377.2-885.2C709,97.7,593.6,93.3,1785,379.5l1042.7,250.7l37.7,122c26.6,86.5,37.7,201.9,37.7,399.3c0,308.4-46.6,505.8-168.6,725.5c-35.5,64.3-64.3,122-64.3,128.7c0,37.7,465.9,221.9,798.7,312.8c982.8,270.7,2078.8,270.7,3061.6,0c332.8-91,798.7-275.1,798.7-312.8c0-6.7-28.8-64.3-64.3-128.7c-122-219.6-168.6-417.1-168.6-725.5c0-197.5,11.1-312.8,37.7-399.3l37.7-122l1051.6-252.9l1051.6-252.9l97.6,66.6c113.2,77.7,277.3,250.7,346.1,361.6c157.5,255.1,224.1,714.4,153.1,1053.8c-153.1,741-911.8,1382.2-2092.1,1770.4c-559.1,184.2-1089.3,290.6-1763.8,359.4C5696.3,3767.2,4831.1,3793.9,4544.9,3778.3z"/><path d="M3790.6,2050.1c-235.2-53.2-654.5-184.1-654.5-201.9c0-4.4,20-82.1,46.6-170.8c66.6-226.3,82.1-698.8,33.3-914.1c-48.8-201.9-124.2-412.7-155.3-423.8c-13.3-4.4-264-66.6-556.9-137.5L1971.3,75.6l-102.1-190.8c-55.5-106.5-170.8-279.5-255.1-383.8c-410.4-514.7-481.4-614.5-561.3-778.7c-208.5-423.8-235.2-590.2-235.2-1530.8v-754.3h4182h4182v754.3c0,825.3-13.3,949.6-126.5,1275.7c-106.5,306.2-217.4,481.4-545.8,874.1c-226.3,270.7-295.1,370.5-399.3,574.6L8028,75.6L7495.6,202c-292.9,71-543.6,133.1-556.9,137.5c-31.1,11.1-106.5,221.9-155.3,423.8c-48.8,215.2-33.3,687.8,33.3,914.1c26.6,88.7,46.6,166.4,46.6,170.8c0,37.7-876.3,270.7-896.3,237.4c-4.4-6.7-20-57.7-35.5-113.1c-13.3-55.5-35.5-137.6-46.6-181.9l-22.2-84.3h-851.9h-851.9l-33.3,117.6c-17.8,62.1-42.1,148.6-51,190.8c-11.1,42.1-28.8,79.9-39.9,82.1C4021.3,2098.9,3912.6,2078.9,3790.6,2050.1z M5361.3,783.3c481.4-106.5,911.8-448.1,1124.8-885.2c133.1-270.7,166.4-421.5,166.4-743.2s-42.1-490.3-195.2-787.6c-126.5-246.3-419.3-539.1-670-670c-268.5-139.8-481.4-193-787.6-193c-468.1,0-827.5,148.7-1155.9,474.8C3480-1661.6,3313.6-1240,3342.4-756.4c22.2,359.4,128.7,652.2,337.2,929.6c213,279.5,576.8,516.9,925.1,603.5C4813.3,827.6,5150.6,829.9,5361.3,783.3z"/><path d="M4600.3-46.5v-399.3H4201h-399.3v-399.3v-399.3H4201h399.3v-399.3v-399.3h399.3H5399v399.3v399.3h399.3h399.3v399.3v399.3h-399.3H5399v399.3v399.3h-399.4h-399.3V-46.5z"/></g></g>
</svg>