<?xml version="1.0" encoding="utf-8"?>
<!-- Svg Vector Icons : http://www.onlinewebfonts.com/icon -->
<!DOCTYPE svg PUBLIC "-//W3C//DTD SVG 1.1//EN" "http://www.w3.org/Graphics/SVG/1.1/DTD/svg11.dtd">
<svg version="1.1" xmlns="http://www.w3.org/2000/svg" xmlns:xlink="http://www.w3.org/1999/xlink" x="0px" y="0px" viewBox="0 0 1000 1000" enable-background="new 0 0 1000 1000" xml:space="preserve">
<metadata> Svg Vector Icons : http://www.onlinewebfonts.com/icon </metadata>
<g><g transform="translate(0.000000,512.000000) scale(0.100000,-0.100000)"><path d="M3403.4,4986.2c-225.9-72.8-404-256.5-476.7-495.9c-49.8-162.7-51.7-124.4,38.3-2607.6c42.1-1164,76.6-2155.8,76.6-2205.6c0-120.6,68.9-206.8,164.6-206.8c82.3,0,160.8,70.8,160.8,147.4c1.9,28.7-34.5,1093.2-80.4,2364.5c-78.5,2247.7-80.4,2312.8-46,2418.1c76.6,241.2,321.7,359.9,541.8,260.4c97.6-45.9,164.6-141.7,206.8-298.7c17.2-63.2,105.3-871.1,199.1-1807.3l168.5-1694.4l53.6-46c44-36.4,68.9-44,122.5-34.5c90,13.4,130.2,65.1,145.5,187.6c34.5,270,233.6,455.7,488.2,455.7c124.4,0,224-36.4,315.9-118.7c137.9-120.6,168.5-208.7,178-511.2c7.7-237.4,13.4-260.4,53.6-302.5c57.4-57.4,143.6-57.4,208.7,0c38.3,32.5,53.6,68.9,65.1,158.9c28.7,202.9,120.6,331.2,289.1,407.8c166.6,76.6,367.6,44,509.3-80.4c151.3-134,166.6-183.8,180-582c9.6-321.6,13.4-352.3,49.8-388.6c88.1-88.1,245.1-34.5,266.1,90c30.6,176.1,103.4,283.4,225.9,329.3c168.5,63.2,361.9-42.1,417.4-225.9c13.4-47.9,17.2-471,11.5-1361.3c-7.7-1108.5-13.4-1315.3-40.2-1455.1c-51.7-262.3-105.3-430.8-225.9-727.5c-204.9-493.9-268-687.3-350.4-1068.3l-9.6-42.1H5490.3c-1437.8,0-1818.8,5.7-1824.6,24.9c-5.7,11.5-40.2,134-78.5,271.9c-197.2,700.7-605,1598.7-1131.5,2498.5c-112.9,195.3-239.3,419.3-279.5,499.7c-158.9,317.8-141.7,673.9,46,940c57.4,84.2,189.5,149.3,335,170.4c101.5,13.4,139.8,28.7,172.3,67c57.4,63.2,55.5,145.5-1.9,210.6c-38.3,47.9-55.5,51.7-153.2,49.8c-574.4-15.3-942-593.5-804.1-1261.7c38.3-185.7,97.7-315.9,292.9-645.2c494-830.9,894.1-1659.9,1112.4-2309c93.8-277.6,191.5-629.9,191.5-695c0-19.2,24.9-61.3,55.5-91.9l55.5-55.5h2012.2h2010.3l49.8,44c40.2,34.5,57.4,80.4,97.6,281.4c53.6,270,157,582,333.1,1005.1c126.3,306.3,212.5,605,252.7,882.6c19.1,128.3,24.9,505.4,24.9,1501V264.9l-49.8,107.2c-149.3,315.9-505.4,476.7-800.3,363.8c-57.4-21.1-109.1-34.5-116.8-30.6c-7.7,5.7-19.2,44-26.8,88.1c-15.3,93.8-105.3,271.9-178,354.2c-153.2,174.2-382.9,275.7-616.5,275.7c-158.9,0-285.3-36.4-426.9-122.5l-109.1-65.1l-57.4,99.6c-78.5,139.8-262.3,304.4-398.2,356.1c-243.2,93.8-547.6,65.1-752.4-68.9c-55.5-36.4-103.4-63.2-105.3-61.3c-3.8,3.8-67,624.1-141.7,1378.5c-76.6,756.3-151.2,1422.5-166.6,1483.8c-82.3,315.9-233.6,494-486.3,568.6C3694.4,5032.1,3537.4,5028.3,3403.4,4986.2z"/></g></g>
</svg>