<?xml version="1.0" encoding="utf-8"?>
<!-- Svg Vector Icons : http://www.onlinewebfonts.com/icon -->
<!DOCTYPE svg PUBLIC "-//W3C//DTD SVG 1.1//EN" "http://www.w3.org/Graphics/SVG/1.1/DTD/svg11.dtd">
<svg version="1.1" xmlns="http://www.w3.org/2000/svg" xmlns:xlink="http://www.w3.org/1999/xlink" x="0px" y="0px" viewBox="0 0 1000 1000" enable-background="new 0 0 1000 1000" xml:space="preserve">
<metadata> Svg Vector Icons : http://www.onlinewebfonts.com/icon </metadata>
<g><g transform="translate(0.000000,511.000000) scale(0.100000,-0.100000)"><path d="M4683.6,5003.9c-754.3-75.6-1259.2-210.5-1839.8-496.7C1846.3,4014.5,1094,3262.2,603.4,2266.7C65.8,1169-44.6-49.3,288.6-1230.9C754.7-2892.8,2110-4215.4,3773.9-4632.4c870.8-218.7,1717.1-208.5,2567.5,30.7c1619,453.8,2906.8,1741.7,3368.8,3364.7c439.5,1543.4,106.3,3176.7-903.5,4431.8c-768.6,956.7-1892.9,1592.4-3141.9,1772.3C5460.4,4995.7,4838.9,5020.2,4683.6,5003.9z M5204.9,3636.3c288.2-200.3,488.5-827.9,554-1729.4c47-660.3-55.2-1414.6-347.5-2573.6c-241.2-948.5-298.4-1103.9-415-1103.9c-108.3,0-177.8,192.2-423.1,1165.2c-347.5,1383.9-419.1,2211.8-265.7,3113.3c104.3,613.3,318.9,1063,556,1171.3C4961.6,3722.2,5106.7,3703.8,5204.9,3636.3z M5296.9-2203.9c130.8-69.5,261.7-204.4,320.9-333.2c65.4-141,65.4-406.8,2-545.8c-61.3-134.9-196.2-271.9-331.2-337.3c-98.1-49-139-57.2-288.2-57.2c-149.2,0-190.1,8.2-290.3,57.2c-408.8,200.3-511,733.9-202.4,1063c155.4,167.6,288.2,220.8,523.3,210.6C5159.9-2150.8,5217.1-2163,5296.9-2203.9z"/></g></g>
</svg>