<?xml version="1.0" encoding="utf-8"?>
<!-- Svg Vector Icons : http://www.onlinewebfonts.com/icon -->
<!DOCTYPE svg PUBLIC "-//W3C//DTD SVG 1.1//EN" "http://www.w3.org/Graphics/SVG/1.1/DTD/svg11.dtd">
<svg version="1.1" xmlns="http://www.w3.org/2000/svg" xmlns:xlink="http://www.w3.org/1999/xlink" x="0px" y="0px" viewBox="0 0 1000 1000" enable-background="new 0 0 1000 1000" xml:space="preserve">
<metadata> Svg Vector Icons : http://www.onlinewebfonts.com/icon </metadata>
<g><path d="M105.3,157.9C82.2,197.6,63,248,50.8,311.8l10.2-0.9v78.2c-5,2-9.3,7.7-14.9,12.1c-2.1,1.6-2.4,1.8-2.3,2.4l5.8,3.4l36.9,12.2c0,0,3,0.6,5.6,1l-6.4,418.6h-4c-10.9,0-19.6,6.1-19.6,13.5c0,7.5,8.8,13.6,19.6,13.6h3.5l-0.6,37.1c-4,0.5-7.1,2.4-7.1,4.7c0,2.2,3,4.2,6.9,4.7l-0.1,9.9h-3.6c-8.6,0-15.6,2.2-15.6,4.9l0.2,0.6c-6.2,0.9-10.5,2.4-10.5,4.3c0,2.7,9.3,4.9,20.9,4.9H79v32.2c-25.3,0.1-48.6,0.3-69,0.4l15.5,20.8h862.4L990,843.5l-55.7-78.4c0,0-12.5-36-61.4-21.7v-99.1h7.2v-21.5L892,618v-21.4l-11.8,0.9V578h-28.8v21.7l-76.2,5.9v-11.3v-2.9v-3c8.6-1,15.3-6.1,15.3-12.3v-47.2c0-6.2-6.6-11.3-15.3-12.3v-9.5L329.3,133.6L358,9.7c0,0-119.3-11.4-212.5,92.2l-21.8-14.1c-2.9-1.9-6.9-4.2-10.1-4.6c-2.6-0.4-6.6,0.2-9.5,0.8L44.7,97.4c-1.9,0.4-6.6,1.5-7.7,4.4c-0.9,2.4,1.4,4.8,3,6.2L105.3,157.9z M85.5,388c-3.2,0-6.4,0.1-9.3,0.2l-5,0.1v-78.4l14.4-1.3V388z M85.4,858.9h-3.7c-5.3,0-9.5-2.9-9.5-6.6c0-3.6,4.3-6.5,9.5-6.5h3.9L85.4,858.9z M95.6,307.6l12.7-1.2v81.9c-3.9-0.1-8.2-0.2-12.7-0.2V307.6z M103.3,845.8h6.3c5.3,0,9.5,2.9,9.5,6.5c0,3.6-4.3,6.6-9.5,6.6h-5.7V848L103.3,845.8z M349.6,967.8c-3.9,0-7.7,0-11.6,0l7.2-31.8h14.1L349.6,967.8z M361.4,929.5h-14.9l11.5-56.7h21.8L361.4,929.5z M359.4,866.3l11.6-56.7h29.3l-18.4,56.7H359.4z M430.7,516.2h35.9l-5.4,34.8h-37.6L430.7,516.2z M428.3,477.1c-5.5-0.9-10.6-2.1-14.5-3.6c-5.7-2.2-7.4-4.3-7.2-5.3c0.3-2.3,9.4-5.6,24.7-5.7L428.3,477.1z M474.9,463.9c-1.5-0.9-3.3-1.7-5.2-2.4c-7-2.8-16.5-4.7-26.7-5.6l3.6-17.8l32.9-3.7L474.9,463.9z M483.1,476.1h25.4l-49.1,151.2L483.1,476.1z M464.6,467.5c2.9,1.1,4.9,2.2,5.9,3.2v3.6c-3,2-11.3,4.2-23.9,4.2c-2.7,0-5.5-0.1-8.3-0.3l3.1-15.5C450.4,463.6,458.7,465.2,464.6,467.5 M446.6,485.5c10.5,0,19.2-1.2,25.4-3.4l-4.2,27.1H432l4.9-24.1C440.2,485.4,443.4,485.5,446.6,485.5 M460.1,557.9l-4.2,27h-39.3l5.5-27H460.1z M454.8,591.9l-6.5,41.4h-41.5l8.4-41.4H454.8z M447.2,640.3l-5.8,36.5H398l7.4-36.5H447.2z M440.2,684.7l-0.5,3.4l-16.8,51.8h-37.8l11.2-55.2L440.2,684.7L440.2,684.7z M420.4,747.6l-18,55.5h-30.1l11.3-55.5H420.4z M640.7,750.1l-21.4-122.3l14.7,5.3v27.4h6.8V750.1z M812.4,650.1l38.9-15.7v9.9h7.2v104.4c-2.3,1-4.7,2.1-7.2,3.3l-41.5-0.8c0,0-58-28.9-90.5,28.8c-30.9-2.3-51.1,0.9-64.4,9.2V660.6h7.6v-16.9l39.8,14.6L812.4,650.1z M745.4,572.2c-14.6,0.6-26,8.9-26,19.1v16.9l0.1,1.7l-56.8,4.4v-20.1h-28.8v22.4l-16.3,1.2l-28.2-161.1L745.4,572.2z M563.5,582l67.2,331.7c-4,3-30,21.9-84.1,49.7L563.5,582z M511.4,966.9c-27,0.1-68,0.3-115.9,0.6l144.6-461.3L511.4,966.9z M249.5,205.5L531,413.6l-11.4,28.1l-8.9,27.4h-26.6L491,426l-53.4,6l-4.8,23.4l-0.9-0.1c-20.4,0-34.3,4.7-35.4,12c-0.7,4.4,3.7,8.8,12.3,12.2c5,1.9,11.3,3.4,18.1,4.4l-99.5,483.9c-70.5,0.5-147.5,0.9-215.2,1.3l0-32h3.3c11.5,0,20.8-2.2,20.8-4.9c0-1.8-4.2-3.4-10.5-4.3l0.2-0.6c0-2.7-7-4.9-15.5-4.9h-6.7v-9.7h0.6c5.1,0,9.2-2.2,9.2-4.9c0-2.7-4.1-4.9-9.2-4.9h-0.6v-36.9h5.7c10.9,0,19.7-6.1,19.7-13.6c0-7.4-8.8-13.5-19.7-13.5h-8.7l6.5-423.5l16.5-8.5l3-3.5l0.1-3.7l-1.6-5.2l-1.8-5.7c-1.3-0.8-2.8-0.7-5.1-0.6v-82.8l22.4-2.2L249.5,205.5z M107.2,90.7l4.2-0.7c1.1,0.4,3.4,1.7,5.3,2.8l23.5,15.2c-10.7,12.5-20.9,26.7-30.6,42.6l-61.2-46.7L107.2,90.7z"/></g>
</svg>