<?xml version="1.0" encoding="utf-8"?>
<!-- Svg Vector Icons : http://www.onlinewebfonts.com/icon -->
<!DOCTYPE svg PUBLIC "-//W3C//DTD SVG 1.1//EN" "http://www.w3.org/Graphics/SVG/1.1/DTD/svg11.dtd">
<svg version="1.1" xmlns="http://www.w3.org/2000/svg" xmlns:xlink="http://www.w3.org/1999/xlink" x="0px" y="0px" viewBox="0 0 1000 1000" enable-background="new 0 0 1000 1000" xml:space="preserve">
<metadata> Svg Vector Icons : http://www.onlinewebfonts.com/icon </metadata>
<g><path d="M240.2,669.6c5.1,9.7,11.2,16.7,18,21.1c13,8.2,29.1,7.7,48.3-1.1c8.6-4,15.8-8.9,21.7-14.7c11.4-11.3,14.1-23.3,8.2-36.1c-4.4-9.6-10.5-15-18.1-16.4c-7.7-1.3-18.5-0.5-32.4,2.4l-25.5,5.3c-16.7,3.5-29.1,4.5-37.3,3.2c-14.2-2.3-24.7-10.8-31.4-25.3c-7.3-15.8-8-31.2-2.1-46.2c5.9-15,18.6-27,38.1-36.1c17.9-8.3,35.2-10.9,51.8-7.8c16.6,3.1,29.4,14.3,38.5,33.9l-22.3,10.4c-5.5-8.9-11.3-15-17.4-18.3c-11.2-5.9-25.1-5-41.7,2.7c-13.5,6.2-21.8,13.7-24.9,22.3c-3.2,8.6-2.9,16.8,0.7,24.6c4,8.6,10.4,13.3,19.2,14c5.7,0.4,17.5-1.1,35.3-4.7l26.4-5.4c12.8-2.6,23.4-3,31.8-1.2c14.6,3.2,25.5,12.6,32.7,28.2c9,19.5,8.6,36.5-1.3,51.3c-9.9,14.8-24,26.4-42.3,34.8c-21.3,9.9-40.5,12-57.7,6.4c-17.2-5.5-30-17.8-38.6-36.8L240.2,669.6z"/><path d="M384,458.6l26.8-12.4l145,146l-26,12.1l-42.6-44.1l-68.9,31.9l5.3,61.4l-24.4,11.3L384,458.6z M471.4,543.9l-63-65l7.8,90.5L471.4,543.9z"/><path d="M496,406.8l23.8-11l71.6,154.6l88.1-40.8l9.7,20.9l-111.8,51.8L496,406.8z"/><path d="M634.3,342.7l127.3-59l9.9,21.5l-104.2,48.3l24.7,53.3l96.3-44.6l9.4,20.3l-96.3,44.6l27.5,59.4l106-49.1l9.7,20.9l-129.1,59.8L634.3,342.7z"/><path d="M658.1,990c-14.6,0-29.2-3-43-9l-87.6-38c-17.5-7.6-37.6-7.6-55.1,0l-87.5,38c-27.1,11.8-57.1,12.1-84.4,0.7c-27.3-11.3-48.3-32.7-59.2-60.2l-35-88.8c-7-17.8-21.2-32-39-39l-88.8-35c-27.5-10.8-48.9-31.8-60.2-59.2C7,672.2,7.3,642.2,19,615.1l38-87.6c7.6-17.5,7.6-37.6,0-55.1l-38-87.6C7.3,357.8,7,327.8,18.3,300.5c11.3-27.3,32.7-48.4,60.2-59.2l88.8-35c17.8-7,32-21.2,38.9-39l35-88.8c10.8-27.5,31.8-48.9,59.2-60.2C327.8,7,357.8,7.3,384.9,19l87.6,38c17.5,7.6,37.6,7.6,55.1,0l87.6-38c27.1-11.8,57.1-12.1,84.4-0.7s48.3,32.7,59.2,60.2l35,88.8c7,17.8,21.2,32,39,38.9l88.8,35c27.5,10.9,48.9,31.8,60.2,59.2c11.3,27.3,11.1,57.3-0.7,84.4l-38,87.6c-7.6,17.5-7.6,37.6,0,55.1l38,87.5c11.8,27.1,12.1,57.1,0.7,84.4c-11.3,27.3-32.7,48.3-60.2,59.2l-88.8,35c-17.8,7-32,21.2-39,39l-35,88.8c-10.8,27.5-31.8,48.9-59.2,60.2C686.2,987.2,672.1,990,658.1,990z M500,898.3c14.7,0,29.4,3,43.1,8.9l87.6,38c17.4,7.5,36.5,7.7,54,0.4c17.5-7.2,30.9-20.9,37.8-38.5l35-88.8c11-27.8,33.1-50,60.9-60.9l88.8-35c17.6-6.9,31.3-20.4,38.5-37.8c7.2-17.5,7.1-36.7-0.4-54l-38-87.6c-11.9-27.4-11.9-58.8,0-86.2l38-87.6c7.5-17.3,7.7-36.5,0.5-54c-7.2-17.5-20.9-30.9-38.5-37.9l-88.8-35c-27.8-10.9-50-33.1-60.9-60.9l-35-88.8c-6.9-17.6-20.4-31.3-37.8-38.5c-17.5-7.3-36.6-7.1-54,0.4l-87.6,38c-27.4,11.9-58.8,11.9-86.1,0l-87.6-38c-17.3-7.5-36.5-7.7-54-0.4c-17.5,7.2-30.9,20.9-37.8,38.5l-35,88.8c-10.9,27.8-33.1,50-60.9,60.9l-88.8,35c-17.6,7-31.3,20.4-38.5,37.9c-7.2,17.5-7.1,36.6,0.5,54l38,87.5c11.9,27.4,11.9,58.8,0,86.2l-38,87.6c-7.5,17.3-7.7,36.5-0.4,54c7.2,17.5,20.9,30.9,38.5,37.8l88.8,35c27.7,10.9,49.9,33.1,60.9,60.9l35,88.8c6.9,17.6,20.4,31.3,37.8,38.5c17.5,7.3,36.6,7.1,54-0.4l87.5-38C470.6,901.3,485.3,898.3,500,898.3z"/></g>
</svg>