<?xml version="1.0" encoding="utf-8"?>
<!-- Svg Vector Icons : http://www.onlinewebfonts.com/icon -->
<!DOCTYPE svg PUBLIC "-//W3C//DTD SVG 1.1//EN" "http://www.w3.org/Graphics/SVG/1.1/DTD/svg11.dtd">
<svg version="1.1" xmlns="http://www.w3.org/2000/svg" xmlns:xlink="http://www.w3.org/1999/xlink" x="0px" y="0px" viewBox="0 0 1000 1000" enable-background="new 0 0 1000 1000" xml:space="preserve">
<metadata> Svg Vector Icons : http://www.onlinewebfonts.com/icon </metadata>
<g><path d="M472.2,322.1C75.5,322.1,70.9,141.7,70.9,134c0-84.6,278.2-124,466.3-124c247.6,0,389.8,45.2,389.8,124C926.9,195.4,815.8,322.1,472.2,322.1 M537.2,63.5c-227.6,0-397.3,48.6-413.8,75c1,30.5,64.9,130.1,348.8,130.1c305.1,0,401.3-104.9,401.3-134.6C873.4,119.1,816.3,63.5,537.2,63.5"/><path d="M816.6,990H181.2L71.1,164.3l53-7.1l103.9,779.3h541.5L876.8,111l53.1,6.9L816.6,990z"/><path d="M498.9,740.4c-115.6,0-210.5-38.6-282-114.6C53.4,452,70.1,145.3,70.9,132.4l53.4,3.3c-0.2,2.9-16,296.9,131.6,453.6c61,64.8,142.8,97.6,243,97.6c99.1,0,180.1-32.6,241-96.8C888,433.5,873.6,138.4,873.4,135.5l53.4-3c0.7,13,16,320.7-148,494.2C707.5,702.1,613.4,740.4,498.9,740.4"/></g>
</svg>