<?xml version="1.0" encoding="utf-8"?>
<!-- Svg Vector Icons : http://www.onlinewebfonts.com/icon -->
<!DOCTYPE svg PUBLIC "-//W3C//DTD SVG 1.1//EN" "http://www.w3.org/Graphics/SVG/1.1/DTD/svg11.dtd">
<svg version="1.1" xmlns="http://www.w3.org/2000/svg" xmlns:xlink="http://www.w3.org/1999/xlink" x="0px" y="0px" viewBox="0 0 1000 1000" enable-background="new 0 0 1000 1000" xml:space="preserve">
<metadata> Svg Vector Icons : http://www.onlinewebfonts.com/icon </metadata>
<g><path d="M638.7,527.3L404.5,761.6c-12.5,12.5-31.8,12.5-43.2,0c-12.5-12.5-12.5-31.8,0-43.2L579.6,500L361.3,281.6c-12.5-11.4-12.5-30.7,0-43.2c11.4-12.5,30.7-12.5,43.2,0l234.2,234.3c8,8,10.2,18.2,8,27.3C648.9,509.1,646.7,519.3,638.7,527.3L638.7,527.3z M500,9.8C229.4,9.8,10,229.3,10,500s219.4,490.2,490,490.2c270.6,0,490-219.5,490-490.2S770.6,9.8,500,9.8L500,9.8z"/></g>
</svg>