<?xml version="1.0" encoding="utf-8"?>
<!-- Svg Vector Icons : http://www.onlinewebfonts.com/icon -->
<!DOCTYPE svg PUBLIC "-//W3C//DTD SVG 1.1//EN" "http://www.w3.org/Graphics/SVG/1.1/DTD/svg11.dtd">
<svg version="1.1" xmlns="http://www.w3.org/2000/svg" xmlns:xlink="http://www.w3.org/1999/xlink" x="0px" y="0px" viewBox="0 0 1000 1000" enable-background="new 0 0 1000 1000" xml:space="preserve">
<metadata> Svg Vector Icons : http://www.onlinewebfonts.com/icon </metadata>
<g><path d="M810.6,872c-20.3,0-36.7,16-36.7,35.7c0,19.7,16.5,35.7,36.7,35.7c20.3,0,36.7-16,36.7-35.7C847.2,887.9,830.8,872,810.6,872z M882.9,193.9H132.3l-9.4-49.5l0.4,0c-0.3-0.7-0.5-1.4-0.8-2l-0.2-1c-0.5-3.2-1.9-6-3.8-8.3c-16.1-33.8-45.2-60.2-80.8-72.8c-2.9-2-6.3-3.1-10-3.1c-0.4-0.1-0.9-0.3-1.3-0.4v0.4C17.2,57.7,10,65.4,10,74.7c0,9.3,7.2,17,16.4,17.6v0.1c26.5,9.2,48.2,28.6,60.6,53.4c0,0.6,0.1,1.1,0.2,1.7l83.7,442.3c-0.4,4.8-0.7,9.6-0.7,14.5c0,88.2,71.1,159.8,159.1,160.6c0.1,0,0.2,0,0.4,0h571c9.8,0,17.8-8,17.8-17.8c0-9.9-8-17.8-17.8-17.8H347.6c-75.9,0-142.8-63.9-142.8-142.8l-14.4-85.2l-51.4-271.7h743.9c39.4,0,71.4,32,71.4,71.4v214.1c0,39.4-32,71.4-71.4,71.4H329.8c-9.9,0-17.8,8-17.8,17.8c0,9.8,8,17.8,17.8,17.8h553.2c59.1,0,107.1-47.9,107.1-107.1V300.9C990,241.8,942,193.9,882.9,193.9z M349.1,872c-20.6,0-37.2,16-37.2,35.7c0,19.7,16.7,35.7,37.2,35.7c20.6,0,37.2-16,37.2-35.7C386.4,887.9,369.7,872,349.1,872z"/><path d="M114.6,221.9h796.8l58,55.7l6.7,260.8l-92.5,75.8l-480.3,7.8H196L114.6,221.9z"/></g>
</svg>