<?xml version="1.0" encoding="utf-8"?>
<!-- Svg Vector Icons : http://www.onlinewebfonts.com/icon -->
<!DOCTYPE svg PUBLIC "-//W3C//DTD SVG 1.1//EN" "http://www.w3.org/Graphics/SVG/1.1/DTD/svg11.dtd">
<svg version="1.1" xmlns="http://www.w3.org/2000/svg" xmlns:xlink="http://www.w3.org/1999/xlink" x="0px" y="0px" viewBox="0 0 1000 1000" enable-background="new 0 0 1000 1000" xml:space="preserve">
<metadata> Svg Vector Icons : http://www.onlinewebfonts.com/icon </metadata>
<g><path d="M760.1,530.4c-126.2,0-228.6,102.3-228.6,228.6s102.3,228.6,228.6,228.6S988.7,885.2,988.7,759S886.4,530.4,760.1,530.4z M721.2,882.1l-108-108l46-46l62,62l143.2-143.2l46,46L721.2,882.1z M103.3,756.8h139.4v139.4H103.3V756.8z M149.4,523.1v-46.2h47.1v46.2h46.2v93.3h-46.2v-46.2h-93.3v46.2H10v-46.2h46.2v-47.1H149.4L149.4,523.1z M289.9,570.2H336v46.2h-46.2V570.2z M10,990.5h326v-327H10V990.5z M56.2,709.6h233.7v233.7H56.2V709.6z M336,9.5H10v326h326V9.5L336,9.5z M289.9,289.4H56.2V55.7h233.7V289.4L289.9,289.4z M895.7,243.2H756.3V103.8h139.4L895.7,243.2L895.7,243.2z M942.9,429.8h-47.1v-46.2h47.1V429.8z M990,9.5H663v326h327V9.5z M942.9,289.4H709.2V55.7h233.7V289.4z M242.7,243.2H103.3V103.8h139.4V243.2z M942.9,476.9v-47.1H990v47.1H942.9z M849.6,383.6v46.2h46.2v47.1h47.1V521c-41-31.6-89.2-51.9-140.4-59.1v-78.3L849.6,383.6L849.6,383.6z M242.7,383.6v46.2h-93.3v47.1h-46.2v-47.1H10v-46.2H242.7z M476.4,383.6h-47.1v-47.1h47.1V383.6z M430.3,523.1h46.2v47.1h50.5c6.6-8.1,13.6-15.9,21.1-23.4c20.4-20.4,43.3-37.5,67.9-51.1v-18.8h41.5c16.7-6.1,34-10.7,51.7-13.7v-33.5H663v-46.2h-47.1v46.2h-46.2v-46.2h-47.1v46.2h-93.3v47.1h-46.2v-47.1h46.2v-46.2H289.9v46.2H336v47.1h-46.2v46.1H336v47.1h94.3L430.3,523.1L430.3,523.1z M522.6,476.9h47.1v46.1h-47.1V476.9z M523.4,943.4h-0.8v-1.1C522.9,942.6,523.1,943,523.4,943.4z M476.4,243.2h-47.1v-46.2h-46.2v-47.1h93.3V243.2z M429.3,616.4v93.3h-46.2v-93.3H429.3L429.3,616.4z M429.3,943.4h93.3v47.1H383.1V756.8h46.2v-47.1h34.8c-2.7,16.1-4,32.6-4,49.3c0,31.4,4.8,62,14,91.1h-44.8L429.3,943.4L429.3,943.4L429.3,943.4z M756.3,429.8h-47.1v-46.2h47.1V429.8z M569.7,336.5v-46.2h46.2v46.2H569.7z M569.7,243.2h46.2V10.5H476.4v46.2h-93.3v47.1h93.3v46.2h93.3L569.7,243.2L569.7,243.2z M522.6,103.8V56.6h47.1v47.1H522.6L522.6,103.8z M289.9,429.8v47.1h-47.1v-47.1H289.9z M429.3,243.2v93.3h-46.2v-93.3H429.3z M476.4,290.4h46.2v46.2h-46.2V290.4L476.4,290.4z M522.6,243.2h47.1v47.1h-47.1V243.2z"/></g>
</svg>