<?xml version="1.0" encoding="utf-8"?>
<!-- Svg Vector Icons : http://www.onlinewebfonts.com/icon -->
<!DOCTYPE svg PUBLIC "-//W3C//DTD SVG 1.1//EN" "http://www.w3.org/Graphics/SVG/1.1/DTD/svg11.dtd">
<svg version="1.1" xmlns="http://www.w3.org/2000/svg" xmlns:xlink="http://www.w3.org/1999/xlink" x="0px" y="0px" viewBox="0 0 1000 1000" enable-background="new 0 0 1000 1000" xml:space="preserve">
<metadata> Svg Vector Icons : http://www.onlinewebfonts.com/icon </metadata>
<g><path d="M865.8,10H134.2C88.7,10,50,47.3,50,94.2v811.6c0,45.5,37.3,84.2,84.2,84.2h731.5c45.5,0,84.2-37.3,84.2-84.2V94.2C950,47.3,912.7,10,865.8,10z M255.7,217h-8.3v-1.4h8.3V217z M326.1,767.8c-33.1,0-60.7-27.6-60.7-60.7V293c0-33.1,27.6-60.7,60.7-60.7h321.6c33.1,0,60.7,27.6,60.7,60.7v168.4h-26.2V293c0-19.3-15.2-34.5-34.5-34.5H326.1c-19.3,0-34.5,15.2-34.5,34.5V707c0,19.3,15.2,34.5,34.5,34.5h241.5v26.2H326.1z M352.3,569v-29h173.9v29H352.3z M508.3,632.5v29H350.9v-29H508.3z M352.3,476.5v-29h173.9v29H352.3z M352.3,382.7v-29h252.6v29H352.3z M672.5,756.7h-35.9v-37.3h35.9V756.7z M702.9,625.6c-24.8,16.6-35.9,38.6-33.1,64.9H638c-2.8-30.4,8.3-56.6,34.5-77.3c1.4-1.4,2.8-2.8,4.1-4.1c19.3-16.6,27.6-31.7,24.8-45.5c-2.8-27.6-17.9-41.4-44.2-42.8c-31.7,0-48.3,19.3-48.3,58h-33.1c0-31.7,9.7-55.2,30.4-67.6c15.2-11,33.1-16.6,52.5-16.6c48.3,2.8,73.2,26.2,74.5,70.4C736,582.8,726.4,603.5,702.9,625.6z"/></g>
</svg>