<?xml version="1.0" encoding="utf-8"?>
<!-- Svg Vector Icons : http://www.onlinewebfonts.com/icon -->
<!DOCTYPE svg PUBLIC "-//W3C//DTD SVG 1.1//EN" "http://www.w3.org/Graphics/SVG/1.1/DTD/svg11.dtd">
<svg version="1.1" xmlns="http://www.w3.org/2000/svg" xmlns:xlink="http://www.w3.org/1999/xlink" x="0px" y="0px" viewBox="0 0 1000 1000" enable-background="new 0 0 1000 1000" xml:space="preserve">
<metadata> Svg Vector Icons : http://www.onlinewebfonts.com/icon </metadata>
<g><path d="M864.8,979.8H103.2c-51.4,0-93.2-41.8-93.2-93.1V152.7c0-51.4,41.8-93.1,93.2-93.1h554v75.5h-554c-9.7,0-17.6,7.9-17.6,17.6v733.9c0,9.7,7.9,17.6,17.6,17.6h761.6c9.7,0,17.6-7.9,17.6-17.6V351.9h75.5v534.8C957.9,938,916.2,979.8,864.8,979.8z"/><path d="M668.9,458.2c-9.7,0-19.3-3.7-26.7-11.1L563,367.9c-7.1-7.1-11.1-16.7-11.1-26.7c0-10,4-19.6,11.1-26.7L846.3,31.2c14.8-14.7,38.6-14.7,53.4,0l79.2,79.2c7.1,7.1,11.1,16.7,11.1,26.7c0,10-4,19.6-11.1,26.7L695.6,447.1C688.3,454.5,678.6,458.2,668.9,458.2z M643.1,341.2l25.8,25.8l229.9-229.9L873,111.3L643.1,341.2z"/><path d="M150.4,762h678.2v41.5H150.4V762z"/><path d="M150.4,605.9h678.2v41.6H150.4V605.9z"/><path d="M391.4,435.5H150.7V194.8h240.7V435.5z M201.1,385.1h140v-140h-140V385.1z"/></g>
</svg>