<?xml version="1.0" encoding="utf-8"?>
<!-- Svg Vector Icons : http://www.onlinewebfonts.com/icon -->
<!DOCTYPE svg PUBLIC "-//W3C//DTD SVG 1.1//EN" "http://www.w3.org/Graphics/SVG/1.1/DTD/svg11.dtd">
<svg version="1.1" xmlns="http://www.w3.org/2000/svg" xmlns:xlink="http://www.w3.org/1999/xlink" x="0px" y="0px" viewBox="0 0 1000 1000" enable-background="new 0 0 1000 1000" xml:space="preserve">
<metadata> Svg Vector Icons : http://www.onlinewebfonts.com/icon </metadata>
<g><path d="M981.2,412.6c-10.2-8.2-25.1-6.6-33.3,3.7l-40.6,50.8c-1.3-19.6-3.9-39.4-8.1-59.3C848.7,163.2,610.7,6.3,367.8,57.2c-242.9,51-398.9,290.5-348.3,535C70.1,836.8,308.1,993.7,551,942.8c88.3-18.5,164.2-62.7,223.6-122.3c0.2-0.2,0.4-0.4,0.7-0.6c1.1-1.1,1.4-2.3,2.5-3.4c1.7-2.9,3-6.4,3-10.1c0-10.8-8.7-19.6-19.5-19.6c-5.8,0-10.9,2.7-14.4,6.7l-0.1-0.1c-53.9,54.1-123.1,93.9-203.3,110.7c-220,46.2-435.5-96-481.3-317.4C16.3,365.1,157.5,148.2,377.5,102c220-46.1,435.5,96,481.3,317.5c3.5,17,5.9,34,7.4,50.9L817,430.6c-10.2-8.2-25.1-6.6-33.3,3.7c-8.2,10.3-6.6,25.2,3.6,33.5c0,0,0,0,0.1,0l90.6,73.2c0,0,0.1,0,0.1,0c5.2,4.2,11.5,5.8,17.6,5.1c6.1-0.6,12-3.5,16.2-8.7c0,0,0-0.1,0-0.1l72.7-91.2c0,0,0,0,0.1,0C993,435.8,991.3,420.8,981.2,412.6z M610.8,524.1v-0.2c11.3,0,20.5-9.2,20.5-20.5c0-11.3-9.2-20.5-20.5-20.5H487.4v-37.8l122.3-120l-0.1-0.1c8.5-7.5,9.2-20.5,1.7-29c-7.5-8.5-20.5-9.2-29-1.7l-115,113.4l-121-118.8c-8.5-7.5-21.5-6.7-29,1.8c-7.5,8.4-6.7,21.4,1.7,28.9l-0.1,0.1l127.2,124.4v38.7H322.8v0.1c-11.3,0-20.5,9.2-20.5,20.5c0,11.3,9.2,20.5,20.5,20.5v0.1h123.4v63.4H322.8v0.1c-11.3,0-20.5,9.2-20.5,20.5c0,11.3,9.2,20.5,20.5,20.5v0.1h123.4v121.8h0.1c0,11.3,9.2,20.5,20.5,20.5c11.3,0,20.5-9.2,20.5-20.5h0.1V628.7h123.3v-0.2c11.3,0,20.5-9.2,20.5-20.5c0-11.3-9.2-20.5-20.5-20.5H487.4v-63.4L610.8,524.1L610.8,524.1L610.8,524.1z"/></g>
</svg>