<?xml version="1.0" encoding="utf-8"?>
<!-- Svg Vector Icons : http://www.onlinewebfonts.com/icon -->
<!DOCTYPE svg PUBLIC "-//W3C//DTD SVG 1.1//EN" "http://www.w3.org/Graphics/SVG/1.1/DTD/svg11.dtd">
<svg version="1.1" xmlns="http://www.w3.org/2000/svg" xmlns:xlink="http://www.w3.org/1999/xlink" x="0px" y="0px" viewBox="0 0 1000 1000" enable-background="new 0 0 1000 1000" xml:space="preserve">
<metadata> Svg Vector Icons : http://www.onlinewebfonts.com/icon </metadata>
<g><path d="M154,576.3c-11.4,0-21.9-4.3-29.9-12.2L22.2,462.2c-8.3-8.2-12.7-19.9-12.2-31.9c0.5-11.6,5.4-22.6,13.8-30.9l37-37c8.4-8.4,19.4-13.3,30.9-13.8c0,0,0.1,0,0.1,0l-8.6-8.6l236.2-236.2l17.6,17.6C371.7,98.9,404,85,433.2,79.8c45.3-8,72.1,7.6,86.5,22l23.1,23l-101,101l40.9,40.9l-67.5,67.5l112.6,112.6l-25.9,25.9L363.3,334.4l67.5-67.5L389.9,226l100.9-100.9c-12-10-29.3-13-51.3-9.2c-27.1,4.8-59.7,20-94.3,44.1l-12.6,8.7l-13.2-13.2L135.1,339.9l20.9,20.9l-42,42l-16.2-16.2c-1.3-1.3-3.1-1.5-4.4-1.5c-2.4,0.1-4.8,1.2-6.7,3.1l-37,37c-1.9,1.9-3,4.3-3.1,6.7c-0.1,1.3,0.2,3,1.5,4.3l101.9,102c1.3,1.3,3.1,1.5,4.4,1.5c2.4-0.1,4.8-1.2,6.7-3.1l37-37c3.4-3.4,4.1-8.5,1.6-11l-16.2-16.2l42-42l20.9,20.9l59-59l138.5,138.5L418,556.6L305.4,444l-59,59l-8.6-8.6c-0.5,11.2-5.1,22.4-13.8,31l-37,37c-8.4,8.4-19.4,13.3-30.9,13.8C155.4,576.3,154.7,576.3,154,576.3z"/><path d="M744.4,922.3c-0.2,0-0.3,0-0.5,0c-8.3-0.1-15.8-3.3-21.2-9L494.8,670.5l26.7-25.1l224.6,239.3c0.4-0.3,0.8-0.6,1.2-1.1l107.4-107.4c0.4-0.4,0.7-0.7,0.9-1L610,557.8l24.3-27.4l249.9,221.1l0.2,0.2c5.8,5.4,9,12.9,9.1,21.2c0.2,10.4-4.5,21.1-12.8,29.3L773.3,909.5C765.2,917.7,754.7,922.3,744.4,922.3z"/><path d="M236.7,919.7c-23,0-44.6-8.9-60.8-25.2c-33.5-33.6-33.5-88.1,0-121.7l330.1-330.1l72-72c-32.7-61-22-137.7,27.8-187.5l56.4-56.4c30-30,70-46.6,112.5-46.6c31.5,0,61.9,9.2,88,26.6l18.6,12.4L752.6,247.9l69.9,69.9l128.6-128.6l12.4,18.6c41.8,62.8,33.4,147.1-20,200.5l-56.4,56.4c-30,30-70,46.6-112.5,46.6c-26.4,0-52.1-6.4-75-18.8l-72,72L297.5,894.5C281.2,910.8,259.6,919.7,236.7,919.7z M774.6,116.9c-32.7,0-63.4,12.7-86.6,35.9l-56.4,56.4c-41.1,41.1-47.6,106-15.4,154.3l8.3,12.5L201.7,798.8c-19.3,19.3-19.3,50.6,0,69.9c9.3,9.3,21.7,14.5,34.9,14.5c13.2,0,25.6-5.1,34.9-14.5l330.1-330.1l92.7-92.7l12.5,8.3c20.1,13.4,43.5,20.4,67.8,20.4c32.7,0,63.4-12.7,86.6-35.9l56.4-56.4c35.6-35.6,45.2-89.1,26.3-134.2L822.5,369.5L700.8,247.9l121.4-121.4C807.2,120.2,791.1,116.9,774.6,116.9z"/></g>
</svg>