<?xml version="1.0" encoding="utf-8"?>
<!-- Svg Vector Icons : http://www.onlinewebfonts.com/icon -->
<!DOCTYPE svg PUBLIC "-//W3C//DTD SVG 1.1//EN" "http://www.w3.org/Graphics/SVG/1.1/DTD/svg11.dtd">
<svg version="1.1" xmlns="http://www.w3.org/2000/svg" xmlns:xlink="http://www.w3.org/1999/xlink" x="0px" y="0px" viewBox="0 0 1000 1000" enable-background="new 0 0 1000 1000" xml:space="preserve">
<metadata> Svg Vector Icons : http://www.onlinewebfonts.com/icon </metadata>
<g><path d="M183.5,559.3c7.1,9.9,16.5,18,27.3,23.7l7.3,6.3c24.6,21.3,64.5,21.3,89.1,0c16.9-14.6,21.9-35.5,15.6-54.1c2-7,3.5-14.4,3.5-22.1v-60.9h361.7c103.2,0,186.8,76.8,186.8,171.5c0,71.8-48.2,133.3-116.5,158.8l5.3,4.5c-2.4,4.1-4.1,8.6-4.1,13.5c0,16.4,14.9,29.6,33.2,29.6c14.2,0,26.1-8,30.8-19.1C922.2,768.8,990,681.7,990,580.9c0-142.1-134.5-257.3-300.4-257.3H326.2v-59.9c0-7.5-1.3-14.6-3.3-21.5c7.5-19.1,2.7-41-14.9-56.2c-24.7-21.4-64.7-21.4-89.3,0l-10.7,9.3c-8.4,4.9-15.7,11.3-21.8,18.9L43,338.3c-5.3,2.5-10.3,5.3-14.7,9.2C15.4,358.6,9.5,373.4,10,387.9c-0.6,14.6,5.4,29.3,18.3,40.5c4.5,3.9,9.7,6.9,15.1,9.4L183.5,559.3z M168.5,384.3v7.6l-4.4-3.8L168.5,384.3z"/></g>
</svg>