<?xml version="1.0" encoding="utf-8"?>
<!-- Svg Vector Icons : http://www.onlinewebfonts.com/icon -->
<!DOCTYPE svg PUBLIC "-//W3C//DTD SVG 1.1//EN" "http://www.w3.org/Graphics/SVG/1.1/DTD/svg11.dtd">
<svg version="1.1" xmlns="http://www.w3.org/2000/svg" xmlns:xlink="http://www.w3.org/1999/xlink" x="0px" y="0px" viewBox="0 0 1000 1000" enable-background="new 0 0 1000 1000" xml:space="preserve">
<metadata> Svg Vector Icons : http://www.onlinewebfonts.com/icon </metadata>
<g><g transform="translate(0.000000,511.000000) scale(0.100000,-0.100000)"><path d="M9096,4978c-1077.7-63.2-2057.8-426.9-3016.9-1116c-752.3-543.7-1673.1-1424.2-2532.6-2425.4L3443.2,1316h-771.5c-446,0-790.6-7.7-819.3-19.1C1795,1275.8,543.1-382,514.4-473.9c-13.4-45.9-11.5-76.6,13.4-126.3c57.4-122.5,57.4-120.6,706.4-132.1l591.5-9.6l-44-55.5c-72.7-93.8-61.3-176.1,47.9-336.9c86.1-124.4,91.9-141.7,68.9-178c-13.4-23-137.8-191.4-277.6-377.1c-137.8-183.8-262.3-354.1-273.7-377.1c-36.4-67-26.8-132.1,34.5-254.6c32.5-63.2,57.4-122.5,57.4-134c0-9.6-63.2-49.8-137.8-88c-358-179.9-704.4-470.9-886.3-742.8c-201-302.4-289.1-612.6-308.2-1093c-11.5-275.7-11.5-289.1,28.7-338.8l42.1-53.6H545c302.5,0,396.3,7.7,530.3,38.3c199.1,47.9,467.1,174.2,626,294.8c237.4,179.9,522.6,539.8,677.6,855.7l61.3,128.3l135.9-65.1c74.7-36.4,158.9-65.1,187.6-65.1c36.4,0,164.6,84.2,459.4,304.4l405.8,304.4l118.7-84.2c178-128.3,220.1-137.8,335-78.5l93.8,49.8v-564.7c0-616.4,7.7-664.3,107.2-717.9c122.5-65.1,124.4-63.2,1039.4,622.1c518.8,388.6,865.2,662.3,878.6,691.1c17.2,34.5,23,275.7,23,821.2v771.4l291,256.5c1923.8,1688.4,2925,3074.3,3239,4477.5c91.9,419.2,145.5,911.2,145.5,1376.4v216.3l-65.1,65.1l-65.1,65.1l-283.3-3.8C9329.5,4985.6,9153.4,4981.8,9096,4978z M9482.7,4388.4c-32.5-1288.3-469-2345-1454.8-3522.3C7499.5,236.3,6722.3-516,5813-1279.8C5411-1616.7,4319.9-2474.3,4028.9-2681l-57.4-40.2l-216.3,162.7c-118.7,90-260.3,199.1-313.9,241.2c-155.1,128.3-652.8,622.1-804,800.2C2405.6-1245.3,2183.6-939,2200.8-916c9.6,11.5,149.3,197.2,312,413.5c1309.4,1743.9,2568.9,3106.9,3579.7,3876.4c957.1,729.3,1803.2,1081.6,2812.1,1177.3c233.5,21.1,432.6,32.5,526.4,30.6l55.5-1.9L9482.7,4388.4z M2801.9,536.9C2637.3,328.2,2421,52.6,2321.4-75.7l-178-235.4H1638c-423.1,0-505.4,3.8-492,26.8c7.7,13.4,212.5,289,455.6,612.6L2041.9,914h530.3h532.2L2801.9,536.9z M2321.4-1779.4c155.1-189.5,593.4-626,798.2-798.3c86.1-72.7,157-137.8,157-143.6c0-7.6-124.4-105.3-275.6-218.2l-275.7-206.7l-103.4,61.2c-273.7,160.8-624,509.2-800.2,798.3l-61.3,99.6l206.7,277.6c114.9,153.1,212.5,277.6,220.1,277.6C2193.2-1632,2254.4-1699,2321.4-1779.4z M5822.6-2334.5l-1.9-532.2l-537.9-402c-296.7-222.1-570.4-426.9-612.6-455.6l-72.7-55.5v507.3v509.2l312,239.3c170.4,132.1,444.1,346.5,606.8,478.6c162.7,132.1,298.6,239.3,302.5,241.2C5820.7-1804.3,5822.6-2043.6,5822.6-2334.5z M1898.4-3019.8l199.1-201l-72.7-147.4c-158.9-323.5-384.8-612.6-597.3-763.8c-222.1-158.9-528.3-256.5-800.2-256.5H501l9.6,53.6c3.8,28.7,13.4,114.8,19.1,189.5c26.8,373.3,222.1,717.9,557.1,983.9c137.8,109.1,532.2,342.7,581.9,342.7C1684-2818.8,1787.3-2908.8,1898.4-3019.8z"/><path d="M6550,2906.7c-340.7-111-568.5-333.1-683.4-670c-51.7-153.1-59.3-398.2-15.3-566.6c67-258.4,268-513,499.6-635.5c402-214.4,884.4-143.6,1204.1,176.1c197.2,197.2,296.7,438.4,296.7,717.9c0,449.9-269.9,821.2-706.4,970.5C6982.6,2954.6,6707,2958.4,6550,2906.7z M7097.5,2483.7c118.7-59.3,235.5-174.2,294.8-296.7c38.3-78.5,47.9-124.4,45.9-258.4c0-137.8-7.7-178-51.7-262.3c-114.9-222-306.3-340.7-549.4-340.7s-436.4,120.6-547.5,340.7c-164.6,321.6,11.5,733.2,363.7,848C6770.2,2552.6,6982.6,2537.3,7097.5,2483.7z"/></g></g>
</svg>