<?xml version="1.0" encoding="utf-8"?>
<!-- Svg Vector Icons : http://www.onlinewebfonts.com/icon -->
<!DOCTYPE svg PUBLIC "-//W3C//DTD SVG 1.1//EN" "http://www.w3.org/Graphics/SVG/1.1/DTD/svg11.dtd">
<svg version="1.1" xmlns="http://www.w3.org/2000/svg" xmlns:xlink="http://www.w3.org/1999/xlink" x="0px" y="0px" viewBox="0 0 1000 1000" enable-background="new 0 0 1000 1000" xml:space="preserve">
<metadata> Svg Vector Icons : http://www.onlinewebfonts.com/icon </metadata>
<g><path d="M475.3,725l-46.2-43.1L614,500l184.9,181.8L755.8,725L614,586.3L475.3,725z"/><path d="M216.5,481.5h249.6v61.6H216.5V481.5z"/><path d="M216.5,154.8h557.8v61.6H216.5V154.8z"/><path d="M216.5,318.2h554.7v61.6H216.5V318.2z"/><path d="M857.5,977.7c-43.1,0-92.5-9.2-141.8-43.1c-89.4-61.6-135.6-188-135.6-369.8h61.6c0,163.3,37,271.2,107.9,320.5c80.1,55.5,178.7,18.5,181.8,18.5l21.6,58.6C953,962.3,909.9,977.7,857.5,977.7z"/><path d="M561.6,990H157.9C96.3,990,47,940.7,47,879.1V120.9C47,59.3,96.3,10,157.9,10h650.3c61.6,0,110.9,49.3,110.9,110.9v459.2h-61.6V120.9c0-27.7-21.6-49.3-49.3-49.3H157.9c-27.7-3.1-52.4,21.6-52.4,49.3v758.1c0,27.7,21.6,49.3,49.3,49.3h406.8V990z"/></g>
</svg>