<?xml version="1.0" encoding="utf-8"?>
<!-- Svg Vector Icons : http://www.onlinewebfonts.com/icon -->
<!DOCTYPE svg PUBLIC "-//W3C//DTD SVG 1.1//EN" "http://www.w3.org/Graphics/SVG/1.1/DTD/svg11.dtd">
<svg version="1.1" xmlns="http://www.w3.org/2000/svg" xmlns:xlink="http://www.w3.org/1999/xlink" x="0px" y="0px" viewBox="0 0 1000 1000" enable-background="new 0 0 1000 1000" xml:space="preserve">
<metadata> Svg Vector Icons : http://www.onlinewebfonts.com/icon </metadata>
<g><g transform="translate(0.000000,511.000000) scale(0.100000,-0.100000)"><path d="M8669.9,4496.2c-49-16.3-63-46.7-60.7-128.4c0-14,207.7-315.1,459.8-667.5c252.1-352.4,457.5-648.9,457.5-658.2c0-7-487.8-14-1080.7-14c-994.3,0-1097-4.7-1258.1-44.3c-511.2-130.7-964-511.2-1412.1-1181.1c-198.4-298.8-312.8-499.5-569.5-1001.3l-226.4-441.1L4765,782.6c-420.1,830.9-737.6,1302.4-1111,1661.9c-240.4,228.7-422.5,357.1-639.6,443.5c-282.4,114.4-343.1,119-1657.2,112l-1225.4-7l-21-63c-18.7-51.3-14-74.7,21-112c42-46.7,65.4-46.7,1239.4-46.7c795.9,0,1239.4-9.3,1321.1-25.7c555.5-119,1057.3-616.2,1603.5-1589.5c172.7-310.4,408.5-772.6,492.5-971L4842,63.7L4753.3-130c-46.7-105-175.1-357.1-282.4-560.2c-611.5-1150.7-1064.4-1652.6-1666.6-1851c-116.7-37.3-254.4-44.3-1400.5-56l-1272.1-11.7l-21-63c-18.7-51.3-14-74.7,21-112c42-46.7,65.4-46.7,1241.7-46.7c1003.7,0,1227.7,7,1377.1,37.3c359.5,72.4,648.9,247.4,987.3,590.5c352.5,359.5,674.6,849.6,1055,1605.9L4982.1-221l203.1-399.1c672.2-1330.4,1248.7-1960.6,1956-2142.7c161.1-39.7,266.1-44.3,1281.4-44.3c606.9,0,1104-7,1104-14c0-9.3-203.1-301.1-450.5-648.9c-247.4-347.8-459.8-644.2-466.8-660.5c-25.7-39.7,21-140,70-151.7c23.3-7,60.7-4.7,81.7,2.3c46.7,16.3,1139,1540.5,1139,1589.5c0,49-1092.4,1573.2-1139,1589.5c-21,7-58.3,9.3-81.7,2.4c-49-11.7-95.7-112.1-70-151.7c7-16.3,219.4-312.8,466.8-660.6c247.4-347.8,450.5-639.5,450.5-648.9c0-9.3-511.2-14-1136.7-9.3l-1139,7l-172.7,63c-408.5,149.4-777.3,490.2-1153,1064.3c-205.4,315.1-324.4,529.8-588.2,1052.7L5110.4,68.4l247.4,494.8c662.9,1328.1,1176.4,1951.3,1778.6,2161.4c161.1,58.3,163.4,58.3,1276.8,65.4c611.5,4.7,1113.4,0,1113.4-9.3s-205.4-305.8-457.5-658.2c-252.1-352.5-459.8-653.6-459.8-667.6c-2.4-74.7,11.7-102.7,60.7-123.7c28-14,70-16.3,91-9.3c46.7,16.3,1139,1540.5,1139,1589.5c0,49-1092.4,1573.2-1139,1589.5C8739.9,4510.2,8697.9,4507.8,8669.9,4496.2z"/></g></g>
</svg>