<?xml version="1.0" encoding="utf-8"?>
<!-- Svg Vector Icons : http://www.onlinewebfonts.com/icon -->
<!DOCTYPE svg PUBLIC "-//W3C//DTD SVG 1.1//EN" "http://www.w3.org/Graphics/SVG/1.1/DTD/svg11.dtd">
<svg version="1.1" xmlns="http://www.w3.org/2000/svg" xmlns:xlink="http://www.w3.org/1999/xlink" x="0px" y="0px" viewBox="0 0 1000 1000" enable-background="new 0 0 1000 1000" xml:space="preserve">
<metadata> Svg Vector Icons : http://www.onlinewebfonts.com/icon </metadata>
<g><g transform="translate(0.000000,511.000000) scale(0.100000,-0.100000)"><path d="M310,4490.7c-49.8-19.2-109.1-63.2-143.6-105.3l-59.4-74.7l-5.7-3783.1c-3.8-2810.6,0-3806.1,17.2-3865.5c28.7-103.4,137.8-231.7,235.5-275.7c74.7-34.5,168.5-36.4,1788.2-36.4H3850v325.5v325.5H2548.1H1246.2l3.8,1479.9c5.7,1474.2,5.7,1478,47.9,1554.6c49.8,93.8,149.3,191.4,222.1,218.2c38.3,15.3,1087.5,21.1,3404.1,21.1h3348.5l-3.8,2006.4l-5.7,2004.5l-42.1,67c-23,38.3-78.5,90-124.4,114.9l-82.3,47.9l-3809.9,3.8C658.5,4523.2,388.5,4521.3,310,4490.7z M6147.5,2761.9c0-1164-5.7-1255.9-82.3-1309.6c-36.4-24.9-296.8-28.7-1899.2-28.7h-1859l-84.2,44c-45.9,23-101.5,67-122.5,95.7c-40.2,53.6-40.2,78.5-45.9,1158.3c-1.9,606.9,0,1114.3,3.8,1127.7c7.7,21.1,390.6,24.9,2050.5,24.9h2039V2761.9z"/><path d="M4510.5,3525.8c-5.7-13.4-7.7-382.9-5.7-819.4l5.7-794.5h488.2H5487v813.7v813.7l-484.4,5.7C4625.4,3548.7,4516.3,3544.9,4510.5,3525.8z"/><path d="M4175.5-2261.9v-2039h2862.3H9900v2039v2039H7037.8H4175.5V-2261.9z M9402.2-1603.3v-1053l-99.6,55.5c-363.8,206.8-639.4,348.5-660.5,338.9c-15.3-3.8-224-126.4-465.2-270l-440.4-260.4l-873,538c-478.6,296.8-878.8,539.9-888.3,543.7c-7.7,1.9-292.9-195.3-633.7-438.4c-340.8-243.1-631.8-448-643.3-455.7c-19.1-11.5-24.9,199.1-24.9,1020.5v1035.8h2364.5h2364.5V-1603.3z"/><path d="M1897.2-462.2v-86.2h976.4H3850v86.2v86.2h-976.4h-976.4V-462.2z"/><path d="M1897.2-1113.2v-86.2h976.4H3850v86.2v86.2h-976.4h-976.4V-1113.2z"/><path d="M1897.2-1764.1v-86.2h976.4H3850v86.2v86.2h-976.4h-976.4V-1764.1z"/><path d="M1897.2-2415v-86.2h976.4H3850v86.2v86.2h-976.4h-976.4V-2415z"/></g></g>
</svg>