<?xml version="1.0" encoding="utf-8"?>
<!-- Svg Vector Icons : http://www.onlinewebfonts.com/icon -->
<!DOCTYPE svg PUBLIC "-//W3C//DTD SVG 1.1//EN" "http://www.w3.org/Graphics/SVG/1.1/DTD/svg11.dtd">
<svg version="1.1" xmlns="http://www.w3.org/2000/svg" xmlns:xlink="http://www.w3.org/1999/xlink" x="0px" y="0px" viewBox="0 0 1000 1000" enable-background="new 0 0 1000 1000" xml:space="preserve">
<metadata> Svg Vector Icons : http://www.onlinewebfonts.com/icon </metadata>
<g><path d="M777.1,564.3c-117.6,0-212.9,95.3-212.9,212.9c0,117.6,95.3,212.9,212.9,212.9c117.6,0,212.9-95.3,212.9-212.9C990,659.7,894.7,564.3,777.1,564.3z M907.2,716.1L761.2,859c-0.7,1.2-1.6,2.5-2.8,3.7l-6.8,6.8c-3.8,3.8-8.2,5.5-9.9,3.7l-69.5-72.7c-1.7-1.7,0-6.2,3.7-9.9l6.8-6.8c3.8-3.8,8.2-5.5,9.9-3.8l52.1,54.5l141.9-139c3.8-3.8,9.9-3.8,13.7,0l6.8,6.8C911,706.2,911,712.3,907.2,716.1z"/><path d="M775,522.6c2.4,0,4.8,0,7.2,0.1c-6.3-40.3-12.2-78.1-17.9-113.5c-6.3-39.1-11.5-72.6-15.7-100.5c-4.2-27.9-6.6-44.7-7.3-50.2c-2.8-16.7-10.1-29.3-22-37.7c-11.9-8.4-27.9-11.9-48.1-10.5c-5.6,0.7-14,1.6-25.1,2.6c-11.2,1-24.1,2.1-38.7,3.1c-14.7,1-30.5,2.3-47.6,3.7c-17.1,1.4-34,2.8-50.8,4.2c-39.8,2.8-83.4,6.3-130.8,10.5l9.4,148.6h8.4c2.8,0,5.6-0.2,8.4-0.5c2.8-0.3,5.6-0.5,8.4-0.5c5.6-0.7,9.4,0.7,11.5,4.2c2.1,3.5,3.8,9.4,5.2,17.8c0.7,4.9,1.4,13.3,2.1,25.1c0.7,11.9,1.6,24.4,2.6,37.7c1,13.3,2.1,26,3.1,38.2c1,12.2,1.6,20.8,1.6,25.6c0.7,9.8-1,17.1-5.2,22c-4.2,4.9-13.6,8-28.3,9.4c-7.7,0.7-14,1.2-18.8,1.6c-4.9,0.3-9.2,0.7-13.1,1c-3.8,0.4-7.9,0.5-12,0.5h-14.7c-11.9,0-19.5-0.9-23-2.6c-3.5-1.7-5.6-9.2-6.3-22.5c-0.7-7-1.4-16.2-2.1-27.7c-0.7-11.5-1.2-23.4-1.6-35.6c-0.3-12.2-0.9-23.9-1.6-35.1c-0.7-11.2-1.4-19.9-2.1-26.2c-0.7-16.1,6.3-24.8,20.9-26.2c3.5,0,6.6-0.2,9.4-0.5c2.8-0.3,4.9-0.5,6.3-0.5c2.1,0,3.5-0.3,4.2-1l-9.4-149.7c-9.8,0.7-19.2,1.4-28.3,2.1c-7.7,0.7-15.5,1.4-23.6,2.1c-8,0.7-14.8,1-20.4,1c-14,0.7-24.6,6.5-31.9,17.3c-7.3,10.8-11,24.9-11,42.4v642.6c0,18.1,6.1,31.7,18.3,40.8c12.2,9.1,31.2,10.8,57,5.2c11.2-2.1,30.2-5.9,57-11.5c26.9-5.6,57.2-11.9,91.1-18.8c33.8-7,69.3-14.5,106.2-22.5c6.7-1.4,13.2-2.9,19.8-4.3c-34.2-43.3-54.7-98-54.7-157.4C521.1,636.3,634.8,522.6,775,522.6z"/><path d="M172.5,928.8c-1-7.3-1.6-15.9-1.6-25.6V245.9c-0.7-1.4-2.1-3.1-4.2-5.2c-3.5-3.5-8-6.6-13.6-9.4c-9.8-4.2-18.3-2.1-25.6,6.3c-7.3,8.4-12.4,20.2-15.2,35.6c-0.7,4.9-3.7,20.9-8.9,48.1c-5.2,27.2-11.3,59.7-18.3,97.3c-7,37.7-14.5,78.1-22.5,121.4c-8,43.3-15.7,83.7-23,121.4c-7.3,37.7-13.4,69.8-18.3,96.3c-4.9,26.5-8,41.9-9.4,46c-3.5,16-1.9,31.4,4.7,46.1c6.6,14.6,19,27.2,37.2,37.7c9.8,5.6,21.6,12.4,35.6,20.4c14,8,27.9,15.9,41.9,23.5c16,9.1,32.8,18.1,50.2,27.2c-2.1-2.8-3.8-7-5.2-12.6C174.7,941.9,173.5,936.2,172.5,928.8z"/><path d="M244.7,203.5c4.5-0.3,8.5-0.9,12-1.6c2.8,0,11.7-0.7,26.7-2.1c15-1.4,33.5-2.8,55.5-4.2c22-1.4,46.4-3.1,73.3-5.2c26.9-2.1,53.9-4.2,81.1-6.3c64.2-4.9,136.4-10.5,216.6-16.7c-2.1-4.2-4.5-7.7-7.3-10.5c-2.1-2.8-4.4-5.6-6.8-8.4c-2.4-2.8-4.4-4.9-5.8-6.3c-5.6-5.6-13.1-10.1-22.5-13.6c-9.4-3.5-18-4.9-25.6-4.2c-2.1,0.7-13.1,1.7-33,3.1c-19.9,1.4-44.8,3.1-74.8,5.2c-0.7-8.4-2.8-20.1-6.3-35.1c-3.5-15-9.6-29.7-18.3-44c-8.7-14.3-20.9-26.3-36.6-36.1C457.1,8,436.7,4.2,411.6,6.3c-21.6,2.1-38.7,9.1-51.3,20.9C347.8,39,338.2,52.7,331.5,68c-6.6,15.4-10.8,30.9-12.6,46.6c-1.7,15.7-2.6,28.1-2.6,37.1c-26.5,2.1-48.8,3.8-67,5.2c-18.1,1.4-29.3,2.4-33.5,3.1c-5.6,0.7-11,2.6-16.2,5.8c-5.2,3.1-9.6,6.5-13.1,9.9c-4.9,4.2-9.1,8.7-12.6,13.6l46.1,20.9l12.6-4.2C236.1,204.8,240.1,203.9,244.7,203.5z M361.4,119.8c1.4-11.5,4.2-22.9,8.4-34C373.9,74.6,380,65,388.1,57c8-8,18.7-12.7,31.9-14.1c13.3-0.7,24.4,2.4,33.5,9.4c9.1,7,16.4,15.7,22,26.2c5.6,10.5,9.6,21.3,12,32.4c2.4,11.2,4,19.9,4.7,26.2c-21.6,1.4-43.8,3.1-66.5,5.2s-44.8,3.8-66.5,5.2C359.3,140.6,360,131.3,361.4,119.8z"/></g>
</svg>