<?xml version="1.0" encoding="utf-8"?>
<!-- Svg Vector Icons : http://www.onlinewebfonts.com/icon -->
<!DOCTYPE svg PUBLIC "-//W3C//DTD SVG 1.1//EN" "http://www.w3.org/Graphics/SVG/1.1/DTD/svg11.dtd">
<svg version="1.1" xmlns="http://www.w3.org/2000/svg" xmlns:xlink="http://www.w3.org/1999/xlink" x="0px" y="0px" viewBox="0 0 1000 1000" enable-background="new 0 0 1000 1000" xml:space="preserve">
<metadata> Svg Vector Icons : http://www.onlinewebfonts.com/icon </metadata>
<g><path d="M831,990H168.9c-58.7,0-106.5-47.8-106.5-106.5V116.4C62.5,57.7,110.3,10,168.9,10H831c58.7,0,106.5,47.7,106.5,106.4v767.1C937.5,942.2,889.7,990,831,990z M168.9,69.9c-25.6,0-46.5,20.9-46.5,46.5v767.1c0,25.6,20.8,46.5,46.5,46.5H831c25.6,0,46.5-20.9,46.5-46.5V116.4c0-25.6-20.8-46.5-46.5-46.5H168.9z"/><path d="M758.9,237.9l16.4,16.4L487.9,541.6l-52.3,5.8v7.2h-13.1v-13h7.3l5.8-52.3l287.3-287.4l16.3,16.3L758.9,237.9z M775.3,156.2l-32.7,26.1l52.3,52.3l26.1-32.7L775.3,156.2z"/><path d="M786.1,839.2H213.9c-17.2,0-31.2-14-31.2-31.2s14-31.2,31.2-31.2h572.3c17.2,0,31.2,14,31.2,31.2S803.4,839.2,786.1,839.2z"/><path d="M786.1,638.2H213.9c-17.2,0-31.2-14-31.2-31.2s14-31.2,31.2-31.2h572.3c17.2,0,31.2,14,31.2,31.2S803.4,638.2,786.1,638.2z"/><path d="M417.8,437.3H213.9c-17.2,0-31.2-14-31.2-31.2s14-31.2,31.2-31.2h203.9c17.2,0,31.2,14,31.2,31.2S435,437.3,417.8,437.3z"/><path d="M621.8,236.4H213.9c-17.2,0-31.2-14-31.2-31.2s14-31.2,31.2-31.2h407.9c17.2,0,31.2,14,31.2,31.2S639,236.4,621.8,236.4z"/></g>
</svg>