<?xml version="1.0" encoding="utf-8"?>
<!-- Svg Vector Icons : http://www.onlinewebfonts.com/icon -->
<!DOCTYPE svg PUBLIC "-//W3C//DTD SVG 1.1//EN" "http://www.w3.org/Graphics/SVG/1.1/DTD/svg11.dtd">
<svg version="1.1" xmlns="http://www.w3.org/2000/svg" xmlns:xlink="http://www.w3.org/1999/xlink" x="0px" y="0px" viewBox="0 0 1000 1000" enable-background="new 0 0 1000 1000" xml:space="preserve">
<metadata> Svg Vector Icons : http://www.onlinewebfonts.com/icon </metadata>
<g><path d="M104.5,727.9h11.2v1.9h-11.2V727.9z M153.8,716h2.8v9h-2.8V716z M25.1,720.5h-8.6c0,0-0.1,0.1-0.1,0.1c1.1,1.4,2.5,2.5,4.1,3.4C22.4,723,24,721.8,25.1,720.5z M30.5,716.1H10v21h20.5V716.1z M26.3,736.1c-4.1-0.9-8.6-1.7-13.3-2.4l0.6-1.9c4.7,0.6,9.2,1.3,13.5,2.2L26.3,736.1z M15.9,730l0.6-1.9c2.7,0.4,5.6,0.9,8.7,1.4l-0.6,2C21.5,730.9,18.6,730.4,15.9,730z M29,728.6c-3.3-0.8-6.1-1.6-8.4-2.6c-2.3,1-5.3,2-9.1,3c-0.3-0.6-0.6-1.2-1-1.8c3.3-0.7,6-1.4,8.1-2.3c-1.3-0.9-2.5-1.9-3.4-3.1c-0.9,0.8-1.9,1.7-2.9,2.5c-0.4-0.4-0.8-0.8-1.4-1.4c2.6-1.8,4.7-4,6.3-6.5l1.8,0.9c-0.3,0.5-0.7,1-1.1,1.5h9.9v1.7c-1.4,1.7-3.1,3.2-5.3,4.5c2,0.7,4.4,1.2,7.2,1.6C29.5,727.3,29.1,728,29,728.6z M162.5,715.9h2.8v9h-2.8V715.9z M104.5,731.6h11.2v1.9h-11.2V731.6z M803.7,343c-1.8,51.4,38.4,94.6,89.8,96.4c51.4,1.8,94.6-38.4,96.4-89.8c0.1-2.2,0.1-4.4,0-6.6c1.8-51.4-38.4-94.6-89.8-96.4c-51.4-1.8-94.6,38.4-96.4,89.8C803.7,338.5,803.7,340.7,803.7,343z M491.1,506.1c-1.9,53.8,40.1,98.9,93.9,100.8c53.8,1.9,98.9-40.1,100.8-93.9c0.1-2.3,0.1-4.6,0-7c1.9-53.8-40.1-98.9-93.9-100.8c-53.8-1.9-98.9,40.1-100.8,93.9C491,501.5,491,503.8,491.1,506.1L491.1,506.1z M816.6,663.7c-1.7,47.9,35.7,88.1,83.6,89.8c47.9,1.7,88.1-35.7,89.8-83.6c0.1-2.1,0.1-4.1,0-6.2c1.7-47.9-35.7-88.1-83.6-89.8c-47.9-1.7-88.1,35.7-89.8,83.6C816.5,659.5,816.5,661.6,816.6,663.7z M824.2,343.8l-201.6,99.1l20.5,40.1l197.3-95.7l-17.1-47.8L824.2,343.8z M864,624.3L668.5,513.7l-21.6,39.6l190.3,108.9l29.9-41.1L864,624.3z"/></g>
</svg>