<?xml version="1.0" encoding="utf-8"?>
<!-- Svg Vector Icons : http://www.onlinewebfonts.com/icon -->
<!DOCTYPE svg PUBLIC "-//W3C//DTD SVG 1.1//EN" "http://www.w3.org/Graphics/SVG/1.1/DTD/svg11.dtd">
<svg version="1.1" xmlns="http://www.w3.org/2000/svg" xmlns:xlink="http://www.w3.org/1999/xlink" x="0px" y="0px" viewBox="0 0 1000 1000" enable-background="new 0 0 1000 1000" xml:space="preserve">
<metadata> Svg Vector Icons : http://www.onlinewebfonts.com/icon </metadata>
<g><path d="M957.5,426.4L653.2,171.1l-303.3,0l-91,77.2v-76.5h-94.2v155.7L46.5,426.4H10v47.1h100.9v355.4h778.2V473.5H990v-47.1L957.5,426.4L957.5,426.4z M842,782.9h-1l-0.9,0.4L158,781.9l0-387.4l190.2-160.3l285.8,239.3h208V782.9z"/><path d="M300.1,632.8c-5.8-4.2-12.2-7.8-19-10.8c-6.8-2.9-13.2-5.8-19.1-8.6c-5.9-2.8-10.7-5.8-14.6-9.1c-3.9-3.3-5.8-7.4-5.8-12.4c0-5.3,2.1-9.4,6.3-12.6c4.2-3.1,10.3-4.7,18.2-4.7c8.4,0,16.3,0.9,23.5,2.8c7.2,1.9,12.7,4,16.3,6.3l10.6-28.4c-5.8-3.3-13.1-5.8-22-7.5c-8.9-1.7-18.4-2.6-28.4-2.6c-8.7,0-16.6,1-23.7,2.9c-7.1,2-13.2,5.1-18.4,9.1c-5.2,4.1-9.2,9.3-12,15.5c-2.8,6.2-4.2,13.5-4.2,21.9c0,9.7,2,17.7,5.8,24c3.8,6.3,8.7,11.5,14.6,15.7c5.9,4.2,12.2,7.8,19,10.7c6.8,2.9,13.2,5.7,19,8.4c5.9,2.7,10.7,5.7,14.6,9.1c3.9,3.3,5.8,7.6,5.8,12.9c0,6.9-2.7,12.1-8,15.4c-5.3,3.4-13.1,5.1-23.2,5.1c-4.3,0-8.4-0.4-12.5-1c-4-0.6-7.9-1.5-11.5-2.5c-3.6-1-6.9-2.1-9.8-3.2c-2.9-1.1-5.2-2.2-7-3.2l-10.9,28.9c4.5,2.3,11.4,4.6,20.8,6.9c9.4,2.3,20.3,3.5,32.6,3.5c9.4,0,18-1.1,25.8-3.2c7.8-2.1,14.5-5.4,20-9.9c5.5-4.5,9.8-10,12.9-16.7c3-6.7,4.6-14.6,4.6-23.9c0-9.2-1.9-16.9-5.8-23.1C310.8,642.2,306,637,300.1,632.8z"/><path d="M439.5,621.5h-67.3v-74h-33.6v174.9h33.6v-74h67.3v74h33.6V547.5h-33.6V621.5z"/><path d="M604.4,551.6c-9.2-4.3-20-6.4-32.4-6.4c-23.6,0-41.7,7.7-54.4,23.4c-12.7,15.6-19,37.8-19,66.6c0,13.5,1.5,25.8,4.5,36.8c2.9,11,7.4,20.5,13.5,28.4c6,7.9,13.6,14,22.9,18.3c9.3,4.3,20.1,6.4,32.6,6.4c23.4,0,41.5-7.8,54.3-23.4c12.8-15.6,19.2-37.8,19.2-66.7c0-13.5-1.5-25.8-4.5-36.9c-2.9-11-7.5-20.5-13.6-28.4C621.3,561.9,613.6,555.9,604.4,551.6z M599.9,680.9C593.4,690.3,584,695,572,695c-6.6,0-12.3-1.5-17.1-4.5c-4.8-2.9-8.7-7.1-11.8-12.4c-3-5.3-5.3-11.6-6.8-18.9c-1.5-7.3-2.2-15.4-2.2-24.1c0-20.6,3.3-35.7,9.9-45.4c6.6-9.6,15.9-14.5,28-14.5c6.9,0,12.8,1.5,17.5,4.6c4.8,3.1,8.7,7.3,11.6,12.7c3,5.5,5.2,11.8,6.6,19.1c1.4,7.2,2.1,15.1,2.1,23.5C609.8,656.3,606.6,671.5,599.9,680.9z"/><path d="M701.8,662.1c0,0.2,3,0.3,4.9,0.5c1.9,0.2,4.3-0.3,6.3-0.3c2,0.1,4.3-0.5,6.1-0.5c1.8,0,3.1,0,4,0c8.6,0,16.9-0.4,24.9-2.6c8-2.2,15.1-5.3,21.4-10.1c6.3-4.8,11.3-10.8,15.1-18.3c3.8-7.5,5.7-16.6,5.7-27.5c0-12-2.2-21.7-6.6-29.2c-4.4-7.5-10-13.3-16.9-17.6c-6.9-4.2-14.7-7-23.4-8.4c-8.6-1.4-17.3-2.1-25.8-2.1c-8.2,0-17.3,0.4-25.5,1.1c-8.3,0.8-16.9,1.8-23.7,3.1v172h33.6L701.8,662.1z M703.6,576.7c1.8-0.3,4.2-0.7,7.1-0.9c3-0.3,6.1-0.4,9.4-0.4c4.3,0,8.5,0.4,12.6,1.2c4.2,0.8,7.8,2.3,11,4.4c3.2,2.1,5.8,5,7.8,8.5c2,3.6,3,8.1,3,13.5c0,6.5-1,11.6-3.1,15.6c-2,4-4.8,7.1-8.3,9.3c-3.4,2.2-7.4,4.3-11.7,5.2c-4.4,0.8-8.8,1.9-13.3,1.9c-0.7,0-1.7,0-3.1,0c-1.4,0-2.8-0.7-4.3-0.8c-1.5-0.1-2.9-0.5-4.2-0.7c-1.3-0.2-2.3-0.5-3-0.6L703.6,576.7z"/><path d="M212,418.2l52.6,0.1v75.4h168.2v-75.4l53.2-0.1L349,302.7L212,418.2z"/></g>
</svg>