<?xml version="1.0" encoding="utf-8"?>
<!-- Svg Vector Icons : http://www.onlinewebfonts.com/icon -->
<!DOCTYPE svg PUBLIC "-//W3C//DTD SVG 1.1//EN" "http://www.w3.org/Graphics/SVG/1.1/DTD/svg11.dtd">
<svg version="1.1" xmlns="http://www.w3.org/2000/svg" xmlns:xlink="http://www.w3.org/1999/xlink" x="0px" y="0px" viewBox="0 0 1000 1000" enable-background="new 0 0 1000 1000" xml:space="preserve">
<metadata> Svg Vector Icons : http://www.onlinewebfonts.com/icon </metadata>
<g><path d="M10,930.3c94.2,0,170.7,13.8,170.7,30.8S104.2,991.9,10,991.9V930.3z"/><path d="M317.8,8.1h58.9v797.8h-58.9V8.1z"/><path d="M442.9,14.4c0,0,101.2-25.9,274,89.9c172.7,115.9,138.5,216.2,252.6,224.5c61.4-4.1-25.9,71.9-114.1,37.2c-171.2-67.3-221.6-162.3-412.4-74.5V14.4L442.9,14.4z"/><path d="M748.8,866.6c0,66.1,53.6,119.7,119.7,119.7s119.7-53.6,119.7-119.7c0-66.1-53.6-119.7-119.7-119.7S748.8,800.5,748.8,866.6z"/></g>
</svg>