<?xml version="1.0" encoding="utf-8"?>
<!-- Svg Vector Icons : http://www.onlinewebfonts.com/icon -->
<!DOCTYPE svg PUBLIC "-//W3C//DTD SVG 1.1//EN" "http://www.w3.org/Graphics/SVG/1.1/DTD/svg11.dtd">
<svg version="1.1" xmlns="http://www.w3.org/2000/svg" xmlns:xlink="http://www.w3.org/1999/xlink" x="0px" y="0px" viewBox="0 0 1000 1000" enable-background="new 0 0 1000 1000" xml:space="preserve">
<metadata> Svg Vector Icons : http://www.onlinewebfonts.com/icon </metadata>
<g><path d="M765.4,500.1c0,11.1-4,20.6-12.1,28.7L406.2,875.9c-8.1,8.1-17.7,12.1-28.7,12.1c-11.1,0-20.6-4-28.7-12.1c-8.1-8.1-12.1-17.7-12.1-28.7V663.4H50.8c-11.1,0-20.6-4-28.7-12.1C14,643.2,10,633.6,10,622.6v-245c0-11.1,4-20.6,12.1-28.7c8.1-8.1,17.7-12.1,28.7-12.1h285.8V153c0-11.1,4-20.6,12.1-28.7c8.1-8.1,17.7-12.1,28.7-12.1c11.1,0,20.6,4,28.7,12.1l347.1,347.1C761.4,479.4,765.4,489,765.4,500.1L765.4,500.1z M990,275.5v449.2c0,50.6-18,93.9-53.9,129.9c-35.9,36-79.2,53.9-129.8,53.9H602.1c-5.5,0-10.3-2-14.4-6c-4.1-4-6.1-8.8-6-14.4c0-1.7-0.2-6-0.7-12.8c-0.4-6.8-0.5-12.4-0.3-16.9c0.2-4.5,0.9-9.5,1.9-15c1.1-5.5,3.2-9.7,6.4-12.5c3.2-2.8,7.5-4.2,13.1-4.2h204.2c28.1,0,52.1-10,72.1-30c20-20,30-44,30-72.1V275.4c0-28.1-10-52.1-30-72.1c-20-20-44-30-72.1-30H607.1c0,0-2.5-0.2-7.4-0.7c-4.9-0.4-7.3-1.1-7.3-1.9c0-0.8-1.7-2-5.1-3.5c-3.4-1.5-4.9-3.4-4.5-5.8c0.4-2.3,0-5.2-1.3-8.6c0-1.7-0.2-6-0.7-12.8c-0.4-6.8-0.5-12.4-0.3-16.9s0.9-9.5,1.9-15c1.1-5.5,3.2-9.7,6.4-12.5s7.5-4.2,13.1-4.2h204.2c50.6,0,93.9,18,129.8,53.9c36,35.9,53.9,79.2,53.9,129.8L990,275.5z"/></g>
</svg>