<?xml version="1.0" encoding="utf-8"?>
<!-- Svg Vector Icons : http://www.onlinewebfonts.com/icon -->
<!DOCTYPE svg PUBLIC "-//W3C//DTD SVG 1.1//EN" "http://www.w3.org/Graphics/SVG/1.1/DTD/svg11.dtd">
<svg version="1.1" xmlns="http://www.w3.org/2000/svg" xmlns:xlink="http://www.w3.org/1999/xlink" x="0px" y="0px" viewBox="0 0 1000 1000" enable-background="new 0 0 1000 1000" xml:space="preserve">
<metadata> Svg Vector Icons : http://www.onlinewebfonts.com/icon </metadata>
<g><g transform="translate(0.000000,511.000000) scale(0.100000,-0.100000)"><path d="M4639.8,4996.2c-366-50.4-756.2-186.3-1065.2-372.6c-249.9-149-381.4-254.3-594-475.6c-363.8-379.2-594-802.2-723.3-1341.4c-41.6-168.8-46-271.8-54.8-1124.4C2189.4,408.8,2158.7,487.7,2822.8,45L3248-240v-350.7v-350.7h350.7h350.7v350.7V-240H4300h350.7v-350.7v-350.7h350.7h350.7v350.7V-240h350.7h350.7v-350.7v-350.7h350.7h350.7v350.7V-240L7180,45c653.1,434,626.8,372.6,626.8,1516.7c0,944.6-19.7,1152.9-142.5,1523.3c-146.9,440.5-350.7,769.3-688.2,1104.7c-412.1,414.2-865.7,657.5-1437.8,775.9C5325.8,5009.3,4850.2,5024.7,4639.8,4996.2z M3888,2144.7c146.8-67.9,260.8-179.7,339.7-330.9c50.4-98.6,59.2-140.3,59.2-300.3c0-219.2-52.6-350.7-195.1-495.3c-144.7-144.7-274-195.1-493.1-195.1c-153.4,0-206,8.8-295.9,52.6c-138.1,70.1-271.8,203.8-339.7,341.9c-76.7,155.6-76.7,436.2-2.2,580.8c76.7,142.5,131.5,212.6,225.8,278.4C3401.4,2223.6,3657.8,2249.9,3888,2144.7z M6693.4,2144.7c146.9-67.9,260.8-179.7,339.7-330.9c50.4-96.5,59.2-142.5,59.2-300.3c2.2-221.4-50.4-348.5-201.7-499.7c-142.5-142.5-263-190.7-486.6-190.7s-344.1,48.2-486.6,190.7c-153.4,151.2-203.8,278.4-203.8,499.7c0,153.4,8.8,203.8,52.6,284.9c76.7,144.7,131.5,212.6,225.8,278.4C6206.9,2223.6,6463.3,2249.9,6693.4,2144.7z M5150.4,1090.4c100.8-92.1,199.5-370.4,201.7-556.7v-72.3h-350.7h-350.7v72.3c0,100.8,59.2,331,107.4,427.4c43.8,83.3,120.5,164.4,177.5,186.3C4992.6,1169.3,5095.6,1143.1,5150.4,1090.4z"/><path d="M1282,71.3C1128.5,16.5,999.2-75.6,924.7-183C859-281.6,793.2-454.8,793.2-533.7c0-43.8-13.2-54.8-94.2-65.8c-225.8-35.1-440.5-192.9-541.4-396.7c-74.5-151.2-76.7-434-6.6-585.2c59.2-131.5,221.4-293.7,352.9-352.9c151.2-70.1,436.2-67.9,580.8,4.4c107.4,52.6,221.4,149,284.9,241.1l35.1,52.6l1124.4-497.5c618.1-274,1133.1-506.3,1141.9-517.3c15.3-13.1-806.6-394.5-848.2-394.5c-6.6,0-61.4,52.6-122.7,118.4c-151.2,160-289.3,219.2-504.1,219.2c-274,2.2-484.4-124.9-615.9-363.8c-67.9-127.1-74.5-153.4-74.5-324.4c0-153.4,8.8-206,52.6-295.9c105.2-212.6,313.4-366,534.8-396.7c96.4-13.2,98.6-15.4,111.8-111.8c19.7-149,85.5-278.4,199.5-390.1c149-151.2,267.4-197.3,493.1-197.3c223.6,0,344.1,48.2,486.6,190.7c142.5,142.5,201.6,280.5,203.8,466.8c0,85.5-4.4,177.5-11,206c-11,50.4,87.7,96.4,2505.2,1170.4l2516.2,1120l35.1-54.8c63.6-92.1,177.5-188.5,284.9-241.1c85.4-43.8,140.3-52.6,291.5-52.6c223.6,0,344.1,48.2,486.6,190.7c153.4,151.2,203.8,278.4,203.8,499.7c-2.2,157.8-11,203.8-61.4,300.3c-109.6,210.4-311.2,357.3-532.6,392.3c-89.9,13.1-92.1,15.3-107.4,114c-32.9,223.6-188.5,427.4-403.3,528.2c-98.6,46-155.6,57-287.1,57c-274-2.2-486.6-127.1-615.9-366c-63.6-118.3-72.3-160-74.5-291.5c0-83.3,4.4-177.5,11-206c11-52.6-39.5-76.7-1409.3-686l-1418.1-633.4L3581.1-1452C2204.7-838.3,2163.1-818.6,2174-766c6.6,30.7,11,124.9,8.8,208.2c-2.2,179.7-67.9,331-199.5,462.5C1808,80,1507.7,152.4,1282,71.3z"/><path d="M7620.6-2723.3c-146.9-50.4-217-94.2-326.6-212.6c-118.3-127.1-98.6-127.1-374.8,2.2l-186.3,85.5l-651-289.3c-506.3-225.8-640-293.7-607.1-306.9c995-440.5,962.2-425.2,951.2-480c-26.3-129.3-8.8-361.6,37.3-462.5c59.2-131.5,221.3-291.5,352.9-352.9c144.7-68,434-68,578.6,0c201.7,92.1,374.8,324.4,403.3,541.4c13.2,94.2,15.4,96.4,111.8,109.6c223.6,30.7,427.4,181.9,532.6,396.7c43.8,89.9,54.8,142.5,52.6,295.9c0,157.8-8.8,203.8-59.2,300.3c-78.9,151.2-192.9,263-339.7,330.9C7953.7-2701.3,7745.5-2681.6,7620.6-2723.3z"/></g></g>
</svg>