<?xml version="1.0" encoding="utf-8"?>
<!-- Svg Vector Icons : http://www.onlinewebfonts.com/icon -->
<!DOCTYPE svg PUBLIC "-//W3C//DTD SVG 1.1//EN" "http://www.w3.org/Graphics/SVG/1.1/DTD/svg11.dtd">
<svg version="1.1" xmlns="http://www.w3.org/2000/svg" xmlns:xlink="http://www.w3.org/1999/xlink" x="0px" y="0px" viewBox="0 0 1000 1000" enable-background="new 0 0 1000 1000" xml:space="preserve">
<metadata> Svg Vector Icons : http://www.onlinewebfonts.com/icon </metadata>
<g><g transform="translate(0.000000,511.000000) scale(0.100000,-0.100000)"><path d="M3988.7,4417c-990-179.8-1813.5-794.7-2250.8-1680.3c-173.1-352.9-275.2-708.1-306.3-1072.1l-13.3-166.5l-79.9-11.1c-339.6-53.3-592.7-177.6-823.5-410.6C79.8,641.3-20.1,46.4,248.5-510.8c159.8-330.8,461.7-590.4,830.2-714.8l179.8-62.1l3174.2-6.7c3278.5-6.7,3527.1-2.2,3855.7,82.1c839,215.3,1438.4,856.8,1584.9,1698.1c46.6,259.7,31.1,679.2-35.5,945.6c-55.5,226.4-224.2,583.8-364,768c-506.1,672.6-1360.7,970-2130.9,739.2c-82.1-24.4-153.1-42.2-155.4-37.7c-2.2,4.4-62.1,97.7-135.4,206.4c-159.8,241.9-552.7,641.5-792.5,805.8c-364,248.6-827.9,437.3-1243,503.9C4765.6,4456.9,4208.5,4456.9,3988.7,4417z"/><path d="M3331.7-1816c-133.2-88.8-175.4-177.6-175.4-361.8c0-91-4.4-164.3-11.1-164.3s-62.1,31.1-124.3,68.8c-150.9,93.2-275.2,106.6-406.2,44.4c-213.1-104.3-279.7-381.8-131-557.1c31.1-40,111-99.9,177.6-137.6l117.6-66.6l-137.6-84.3c-175.4-106.5-248.6-224.2-233.1-381.8c24.4-286.3,313-412.9,592.7-261.9c66.6,35.5,128.7,64.4,135.4,66.6c8.9,0,17.8-77.7,22.2-170.9c11.1-206.4,62.1-299.7,206.4-364c115.4-51.1,199.8-51.1,315.2,0c144.3,64.4,195.3,157.6,206.4,364c4.4,93.2,13.3,170.9,22.2,170.9c6.7-2.2,68.8-31.1,135.4-66.6c279.7-150.9,559.4-28.9,590.4,257.5c17.8,162.1-51.1,279.7-230.8,386.2l-137.6,84.3l119.9,68.8c235.3,130.9,315.2,335.2,208.6,532.7c-111,208.6-344.1,255.3-570.5,117.6c-62.2-40-117.7-71-124.3-71s-11.1,73.2-11.1,164.3c0,130.9-8.9,175.3-51,237.5c-79.9,117.7-182,175.4-315.2,175.4C3438.2-1764.9,3387.2-1778.2,3331.7-1816z"/><path d="M6172.9-1816c-111-73.2-175.4-215.3-175.4-386.2v-139.8l-146.5,77.7c-84.3,44.4-177.6,77.7-222,77.7c-295.2,0-472.8-335.2-308.5-583.8c20-33.3,97.7-95.4,170.9-139.8l133.2-82.1l-113.2-64.4c-197.6-115.4-286.4-273-248.6-443.9c59.9-261.9,335.2-364,594.9-217.5c64.4,37.7,122.1,66.6,128.7,66.6c6.7,0,11.1-59.9,11.1-133.2c0-166.5,37.7-257.5,139.8-348.5c148.7-128.7,337.4-124.3,479.5,11.1c95.4,91,135.4,199.8,135.4,366.3c0,57.7,4.4,104.3,6.7,104.3c4.4,0,62.1-28.9,128.7-66.6c217.5-119.9,419.5-79.9,546.1,108.8c62.1,93.2,66.6,246.4,11.1,357.4c-22.2,48.8-88.8,111-177.6,168.7c-150.9,99.9-150.9,95.5,17.8,190.9c142.1,82.1,208.7,206.4,195.3,364c-13.3,148.7-64.4,224.2-195.3,293c-133.2,66.6-215.3,62.1-384-26.6l-144.3-73.2l-8.9,162c-17.8,270.8-148.7,408.4-390.7,408.4C6281.7-1764.9,6226.2-1780.5,6172.9-1816z"/></g></g>
</svg>