<?xml version="1.0" encoding="utf-8"?>
<!-- Svg Vector Icons : http://www.onlinewebfonts.com/icon -->
<!DOCTYPE svg PUBLIC "-//W3C//DTD SVG 1.1//EN" "http://www.w3.org/Graphics/SVG/1.1/DTD/svg11.dtd">
<svg version="1.1" xmlns="http://www.w3.org/2000/svg" xmlns:xlink="http://www.w3.org/1999/xlink" x="0px" y="0px" viewBox="0 0 1000 1000" enable-background="new 0 0 1000 1000" xml:space="preserve">
<metadata> Svg Vector Icons : http://www.onlinewebfonts.com/icon </metadata>
<g><g><g><path d="M903.2,617.3c-0.8,1.2-1.7,2.5-2.6,3.6c1.6-1.2,2.6-1.9,2.6-1.9L903.2,617.3z"/><path d="M500,10C229.8,10,10,229.8,10,500c0,270.2,219.8,490,490,490c270.2,0,490-219.8,490-490C990,229.8,770.2,10,500,10z M94.6,651c-26.9,0-48.8-66.3-48.8-148c0-81.7,21.8-148,48.8-148c26.9,0,54.1,66.3,54.1,148C148.7,584.8,121.6,651,94.6,651z M527.7,360.1c-0.1,0.1-0.1,0.1-0.2,0.2c-1.2,1.8-2.5,3.6-3.8,5.3c-75.4,106.8-3.6,285.4-3.6,285.4l0,0c20.4,25.6,33.3,56.4,33.3,89.5c0,88.6-12,160.4-92.7,160.4c-80.7,0-199.6-71.8-199.6-160.4c0-35,6.1-67.4,18.4-93.8h0c0.3-0.6,0.6-1.3,0.9-1.9c0-0.1,0.1-0.2,0.2-0.4c49.9-102.4,16.3-221.9-0.6-269c-3.1-6.5-5.8-13.3-8.1-20.5l0,0l0,0c-7.2-22.2-10.7-47.4-10.7-74.2c0-88.6,118.9-160.4,199.6-160.4c80.7,0,92.7,71.8,92.7,160.4C553.5,309.7,543.6,336.7,527.7,360.1L527.7,360.1z M860.1,651.1c1.1-0.8,2.7-2,4.9-3.7C862.9,649,861.3,650.2,860.1,651.1z M899.4,377.4L899.4,377.4L899.4,377.4c1.8,2.3,3.5,4.7,5.1,7.2c10.9,15.1,36.6,48.7,48.6,49.1c0,0,0,0,0.1,0c0,0,6.9,36.8,4.2,89.8c0,0,0,0.1,0,0.1c-0.7,13.8-2.1,28.8-4.5,44.5c-0.2,1.2-0.4,2.3-0.5,3.5c-0.9,5.9-2,11.8-3.2,17.9c-0.3,1.3-0.5,2.6-0.7,3.9c-0.1,0.4-0.1,0.7-0.2,1.1l0,0c-0.3,0.1-24.2,13.3-50.7,30.4c-7.6,8.9-17.2,15.7-29.3,20.2c-10.4,3.9-22.5,6-36.8,6c-81.7,0-147.9-67.6-147.9-151c0-83.4,66.2-151,147.9-151C863.7,349,885.1,359.5,899.4,377.4z"/></g></g><g></g><g></g><g></g><g></g><g></g><g></g><g></g><g></g><g></g><g></g><g></g><g></g><g></g><g></g><g></g></g>
</svg>