<?xml version="1.0" encoding="utf-8"?>
<!-- Svg Vector Icons : http://www.onlinewebfonts.com/icon -->
<!DOCTYPE svg PUBLIC "-//W3C//DTD SVG 1.1//EN" "http://www.w3.org/Graphics/SVG/1.1/DTD/svg11.dtd">
<svg version="1.1" xmlns="http://www.w3.org/2000/svg" xmlns:xlink="http://www.w3.org/1999/xlink" x="0px" y="0px" viewBox="0 0 1000 1000" enable-background="new 0 0 1000 1000" xml:space="preserve">
<metadata> Svg Vector Icons : http://www.onlinewebfonts.com/icon </metadata>
<g><path d="M985.3,255.1C953,97.6,772.2,141,764.7,259.9c-5.9,4.8-11.7,9.6-17.6,14.4C697.1,256.5,640.3,126.7,606,61c-66,37-129.7,77.1-195.8,114.2c-1.3,8.6-15.1-0.1-4,25.6c11,25.7,59.3,23.4,93.3,42.9c61.3,79.4-19.1,193.8-107.2,195.7c-139,3-56.6-129.9-110.1-186.3c-67.3,39.2-136.4,82-203.7,121.1c39,74.6,81.9,150.6,120.8,225c-4.9,4.4-9.8,8.5-14.9,12.8c-78.2,8.1-211.9,1.5-164.5,145.1c57.7,175.7,199.7,75.5,226.7-20.1c8.7-3.9,17.5-7.9,26.3-11.9c43.9,70.3,88.6,143.6,132.4,213.9c63.5-39.3,129-76.1,192.6-115.5c11.9-31.9-204.5-88.8-98-201.9c128.9-136.6,219.8-35.2,198.7,99.1c4.2,5.3,3.5,18.4,15.4,20.5c63-10.9,149.8-84.3,202.9-112.7c-36.9-73.1-76.2-152.8-113.1-225.9C870.5,354.5,1018.3,415.8,985.3,255.1z"/></g>
</svg>