<?xml version="1.0" encoding="utf-8"?>
<!-- Svg Vector Icons : http://www.onlinewebfonts.com/icon -->
<!DOCTYPE svg PUBLIC "-//W3C//DTD SVG 1.1//EN" "http://www.w3.org/Graphics/SVG/1.1/DTD/svg11.dtd">
<svg version="1.1" xmlns="http://www.w3.org/2000/svg" xmlns:xlink="http://www.w3.org/1999/xlink" x="0px" y="0px" viewBox="0 0 1000 1000" enable-background="new 0 0 1000 1000" xml:space="preserve">
<metadata> Svg Vector Icons : http://www.onlinewebfonts.com/icon </metadata>
<g><path d="M693.9,890.2"/><path d="M857.3,109.8c68.8-0.2,126.8,52.8,132.3,121.1c5.6,69.2-42.5,129.7-111.7,141.2c-15.9,2.6-31.7,2.3-47.2-1.3c-6.1-1.4-8.4,0.4-11.1,5.1c-48.7,84.2-97.3,168.4-146.4,252.4c-5.1,8.7,1.2,10,5.4,13.3c33.7,26.8,49.4,61.8,43.8,104.4c-5.8,44.5-31,75.6-73,91.6c-44.9,17.1-95.2,3.1-125.7-33.8c-30.7-37.1-34.9-88.2-10-129.7c4.2-7.1,4.4-10.1-2.8-15.4c-68.8-50.8-137.2-102.1-205.5-153.5c-5.7-4.3-10-5.2-16.8-2c-15.6,7.5-32.6,10.4-49.7,7.8c-7.4-1.1-10.5,1.3-13.8,7.1c-20.4,35.7-41,71.3-61.9,106.7c-3.9,6.6-4.1,10.5,1.1,17.1c23.1,29.7,26,62.2,8.6,95.6c-15.9,30.7-51.1,49.3-85.2,44.7c-36.6-4.9-62-25-73.5-60.5c-20-61.9,33.9-122.8,98-110.9c7.2,1.3,10.5-0.7,13.9-6.7c19.4-34,38.9-68,58.9-101.6c4.3-7.3,4.3-11.1-2.5-17.2c-31.7-28.8-40.8-73.3-24-111.9c16.8-38.4,55.8-61.9,98.3-59c40.3,2.7,75.5,31.5,87,71.5c7.7,26.9,4.4,52.6-9.8,76.6c-3.7,6.3-2.7,9.1,2.8,13.1c69.3,51.5,138.4,103.2,207.5,154.9c4.6,3.4,7.9,4.6,13.5,1.4c19.1-10.8,40-15,61.8-12.8c7.8,0.8,11-2.1,14.5-8.3c48-83.2,96.1-166.4,144.5-249.3c4.3-7.4,4.5-11.1-2.9-16.9c-44.1-34.4-60.9-93.3-42.6-146.3C751.3,145.9,801.6,110,857.3,109.8z"/></g>
</svg>