<?xml version="1.0" encoding="utf-8"?>
<!-- Svg Vector Icons : http://www.onlinewebfonts.com/icon -->
<!DOCTYPE svg PUBLIC "-//W3C//DTD SVG 1.1//EN" "http://www.w3.org/Graphics/SVG/1.1/DTD/svg11.dtd">
<svg version="1.1" xmlns="http://www.w3.org/2000/svg" xmlns:xlink="http://www.w3.org/1999/xlink" x="0px" y="0px" viewBox="0 0 1000 1000" enable-background="new 0 0 1000 1000" xml:space="preserve">
<metadata> Svg Vector Icons : http://www.onlinewebfonts.com/icon </metadata>
<g><path d="M40.6,10v980V10z"/><path d="M71.2,10v980V10z"/><path d="M101.9,10v980V10z"/><path d="M132.5,10v980V10z"/><path d="M163.1,10v980V10z"/><path d="M193.8,10v980V10z"/><path d="M224.4,10v980V10z"/><path d="M255,10v980V10z"/><path d="M285.6,10v980V10z"/><path d="M316.2,10v980V10z"/><path d="M346.9,10v980V10z"/><path d="M377.5,10v980V10z"/><path d="M408.1,10v980V10z"/><path d="M438.7,10v980V10z"/><path d="M469.4,10v980V10z"/><path d="M500,10v980V10z"/><path d="M530.6,10v980V10z"/><path d="M561.2,10v980V10z"/><path d="M591.9,10v980V10z"/><path d="M622.5,10v980V10z"/><path d="M653.1,10v980V10z"/><path d="M683.7,10v980V10z"/><path d="M714.4,10v980V10z"/><path d="M745,10v980V10z"/><path d="M775.6,10v980V10z"/><path d="M806.2,10v980V10z"/><path d="M836.9,10v980V10z"/><path d="M867.5,10v980V10z"/><path d="M898.1,10v980V10z"/><path d="M928.7,10v980V10z"/><path d="M959.4,10v980V10z"/><path d="M10,40.6h980H10z"/><path d="M10,71.3h980H10z"/><path d="M10,101.9h980H10z"/><path d="M10,132.5h980H10z"/><path d="M10,163.1h980H10z"/><path d="M10,193.8h980H10z"/><path d="M10,224.4h980H10z"/><path d="M10,255h980H10z"/><path d="M10,285.6h980H10z"/><path d="M10,316.3h980H10z"/><path d="M10,346.9h980H10z"/><path d="M10,377.5h980H10z"/><path d="M10,408.1h980H10z"/><path d="M10,438.8h980H10z"/><path d="M10,469.4h980H10z"/><path d="M10,500h980H10z"/><path d="M10,530.6h980H10z"/><path d="M10,561.3h980H10z"/><path d="M10,591.9h980H10z"/><path d="M10,622.5h980H10z"/><path d="M10,653.1h980H10z"/><path d="M10,683.8h980H10z"/><path d="M10,714.4h980H10z"/><path d="M10,745h980H10z"/><path d="M10,775.6h980H10z"/><path d="M10,806.2h980H10z"/><path d="M10,836.9h980H10z"/><path d="M10,867.5h980H10z"/><path d="M10,898.1h980H10z"/><path d="M10,928.7h980H10z"/><path d="M10,959.4h980H10z"/><path d="M317.6,10c122.2,0,244.5,0,366.8,0c0,122.2,0,244.5,0,366.8c-40.8,0-81.5,0-122.3,0c0,40.8,0,81.5,0,122.3c122.2,0,244.5,0,366.8,0c0,81.5,0,163,0,244.5c20.4,0,40.8,0,61.1,0c0,81.5,0,163,0,244.5c-81.5,0-163,0-244.5,0c0-81.5,0-163,0-244.5c20.4,0,40.8,0,61.1,0c0-40.8,0-81.5,0-122.3c-81.5,0-163,0-244.5,0c0,40.8,0,81.5,0,122.3c20.4,0,40.8,0,61.1,0c0,81.5,0,163,0,244.5c-81.5,0-163,0-244.5,0c0-81.5,0-163,0-244.5c20.4,0,40.8,0,61.1,0c0-40.8,0-81.5,0-122.3c-81.5,0-163,0-244.5,0c0,40.8,0,81.5,0,122.3c20.4,0,40.8,0,61.1,0c0,81.5,0,163,0,244.5c-81.5,0-163,0-244.5,0c0-81.5,0-163,0-244.5c20.4,0,40.8,0,61.1,0c0-81.5,0-163,0-244.5c122.2,0,244.5,0,366.8,0c0-40.8,0-81.5,0-122.3c-40.8,0-81.5,0-122.3,0C317.6,254.5,317.6,132.3,317.6,10z"/></g>
</svg>