<?xml version="1.0" encoding="utf-8"?>
<!-- Svg Vector Icons : http://www.onlinewebfonts.com/icon -->
<!DOCTYPE svg PUBLIC "-//W3C//DTD SVG 1.1//EN" "http://www.w3.org/Graphics/SVG/1.1/DTD/svg11.dtd">
<svg version="1.1" xmlns="http://www.w3.org/2000/svg" xmlns:xlink="http://www.w3.org/1999/xlink" x="0px" y="0px" viewBox="0 0 1000 1000" enable-background="new 0 0 1000 1000" xml:space="preserve">
<metadata> Svg Vector Icons : http://www.onlinewebfonts.com/icon </metadata>
<g><path d="M683.8,377.5c-67.6,0-122.5,54.9-122.5,122.5s54.9,122.5,122.5,122.5c67.7,0,122.5-54.9,122.5-122.5S751.4,377.5,683.8,377.5z M683.8,193.8H316.3C147.1,193.8,10,330.9,10,500s137.1,306.3,306.3,306.3h367.5C852.9,806.3,990,669.1,990,500S852.9,193.8,683.8,193.8z M683.8,683.8C582.3,683.8,500,601.5,500,500s82.3-183.8,183.8-183.8c101.5,0,183.8,82.3,183.8,183.8S785.3,683.8,683.8,683.8z"/></g>
</svg>