<?xml version="1.0" encoding="utf-8"?>
<!-- Svg Vector Icons : http://www.onlinewebfonts.com/icon -->
<!DOCTYPE svg PUBLIC "-//W3C//DTD SVG 1.1//EN" "http://www.w3.org/Graphics/SVG/1.1/DTD/svg11.dtd">
<svg version="1.1" xmlns="http://www.w3.org/2000/svg" xmlns:xlink="http://www.w3.org/1999/xlink" x="0px" y="0px" viewBox="0 0 1000 1000" enable-background="new 0 0 1000 1000" xml:space="preserve">
<metadata> Svg Vector Icons : http://www.onlinewebfonts.com/icon </metadata>
<g><path d="M776.3,477.9L705.1,414V281.4h-88.4v56.5L498.8,234.7L221.2,477.9l14.7,19.6l262.8-230.9l142.5,125.3v-86h39.3v120.4l81.1,71.2L776.3,477.9z"/><path d="M705.1,762.8V522.1h-24.6v216.1h-90.9V566.3H410.4v171.9H317V522.1h-24.6v240.7h142.5V590.9h130.2v171.9H705.1z"/><path d="M100.9,362.5l-58.9,56.5C81.2,197.9,272.8,33.3,501.2,33.3c240.7,0,439.6,181.8,464.2,420l24.6-2.5C965.4,197.9,754.2,8.8,501.2,8.8C248.2,8.8,37,197.9,12.5,450.9L10,482.8l108.1-103.2L100.9,362.5z"/><path d="M881.9,620.4l17.2,17.2l58.9-56.5c-39.3,221.1-230.9,385.6-459.3,385.6c-240.7,0-439.6-181.8-464.2-420L10,549.1c24.6,253,235.8,442.1,488.8,442.1c253,0,464.2-189.1,488.8-442.1l2.5-31.9L881.9,620.4z"/></g>
</svg>