<?xml version="1.0" encoding="utf-8"?>
<!-- Svg Vector Icons : http://www.onlinewebfonts.com/icon -->
<!DOCTYPE svg PUBLIC "-//W3C//DTD SVG 1.1//EN" "http://www.w3.org/Graphics/SVG/1.1/DTD/svg11.dtd">
<svg version="1.1" xmlns="http://www.w3.org/2000/svg" xmlns:xlink="http://www.w3.org/1999/xlink" x="0px" y="0px" viewBox="0 0 1000 1000" enable-background="new 0 0 1000 1000" xml:space="preserve">
<metadata> Svg Vector Icons : http://www.onlinewebfonts.com/icon </metadata>
<g><path d="M591.7,947.9c0,23.3,18.8,42.1,42.1,42.1c20.5,0,37.5-14.7,41.2-34.1c-19-8.7-41.1-22.1-65.8-42.1C598.7,921.5,591.7,933.9,591.7,947.9z"/><path d="M574.2,427.6c-13.7-10-34.5-7.2-44.9,5.8L374.9,624.9L324.1,568c-11.1-12.4-32.1-14.1-45.1-3.6c-6.8,5.4-10.9,13.1-11.7,21.6c-0.7,8.5,2.1,16.6,7.8,23l76.6,85.8c6.2,6.8,15.1,10.8,24.5,10.8c0.1,0,0.7,0,0.8,0c9.7-0.2,18.7-4.6,24.7-12l178.7-221.6c5.4-6.7,7.7-15,6.6-23.4C585.8,440.2,581.3,432.7,574.2,427.6z"/><path d="M702.6,157.1v347.4c13.7-2.2,27.8-3.4,42.2-3.4c8.1,0,16,0.4,23.9,1.1V124.1c0-18.2-14.8-33.1-33-33.1H626.2c15.3,18.1,25.1,41,26.7,66.1H702.6z"/><path d="M513.4,883.8H135.5V157.1h49.7c1.7-25.1,11.4-48,26.7-66.1H102.5c-18.2,0-33,14.8-33,33.1v792.7c0,18.3,14.8,33.1,33,33.1h460.3C543,930.7,526.3,908.4,513.4,883.8z"/><path d="M298.8,242.9h240.5c41,0,74.3-33.3,74.3-74.3v-4c0-2.5-0.1-5-0.4-7.5c-3.5-34.2-30.2-61.5-64-66.1c-3.3-0.4-6.5-0.7-9.9-0.7h-32.2v-6c0-41-33.3-74.3-74.3-74.3h-27.4c-41,0-74.3,33.4-74.3,74.3v6h-32.2c-3.4,0-6.7,0.3-9.9,0.7c-33.9,4.6-60.6,31.9-64,66.1c-0.2,2.5-0.4,5-0.4,7.5v4C224.5,209.6,257.8,242.9,298.8,242.9z"/><path d="M930.5,566c0-23.2-18.8-42.1-42-42.1h0c-23.2,0-42.1,18.8-42.1,42.1c0,0.7,0,1.5,0.1,2.2c-46.1-21.2-126.1-12.3-201,62.5c-35.6,35.7-112.7,27.7-134.7,49.7c-22,22-18.6,94.2,74.5,187.3c93.1,93.1,165.2,96.6,187.3,74.5c22.1-22.1,15.5-93.3,53.9-131.7c73.1-73.1,80.3-155.2,59.1-202.5c1,0.1,2,0.1,3,0.1C911.7,608,930.5,589.2,930.5,566z M675,721.8c-19.1,23.4-51.5,49.3-91.7,52.5c-33-19.1-30.5-44.9-30.5-44.9s45.1,6.4,105.6-39.4c64.2-48.6,91.8-111.8,171.9-89C773.7,598.2,701.9,688.8,675,721.8z M867.4,565.9c0-5.6,2.2-10.9,6.1-14.9c4-4,9.3-6.2,14.9-6.2h0c11.6,0,21,9.4,21,21c0,11.6-9.4,21-21,21C876.9,587,867.4,577.6,867.4,565.9z"/></g>
</svg>