<?xml version="1.0" encoding="utf-8"?>
<!-- Svg Vector Icons : http://www.onlinewebfonts.com/icon -->
<!DOCTYPE svg PUBLIC "-//W3C//DTD SVG 1.1//EN" "http://www.w3.org/Graphics/SVG/1.1/DTD/svg11.dtd">
<svg version="1.1" xmlns="http://www.w3.org/2000/svg" xmlns:xlink="http://www.w3.org/1999/xlink" x="0px" y="0px" viewBox="0 0 1000 1000" enable-background="new 0 0 1000 1000" xml:space="preserve">
<metadata> Svg Vector Icons : http://www.onlinewebfonts.com/icon </metadata>
<g><g transform="translate(0.000000,511.000000) scale(0.100000,-0.100000)"><path d="M3853.4,3161.1c-1062.9-109.9-1729.7-298.9-2031.2-574.9c-171.2-158.4-222.3-311.7-237.6-746c-33.2-789.5,127.7-1198.3,771.6-1962.2c263.1-314.2,498.2-648.9,498.2-715.4c0-30.7-86.9-48.5-467.5-97.1C795.1-1128.6-25-1509.3,115.5-1982c140.5-465,1239.1-794.6,3186-955.6c549.3-46,2871.7-46,3398,0c1683.7,143.1,2644.4,378.2,3030.1,738.4c153.3,143.1,199.3,265.7,153.3,419c-115,380.7-912.1,679.6-2268.8,845.7c-373,46-467.5,66.4-467.5,97.1c0,48.5,219.7,390.9,334.7,518.6c79.2,89.4,102.2,99.6,245.3,112.4c102.2,10.2,186.5,2.5,237.6-17.9c79.2-33.2,79.2-35.8,63.9-155.8c-15.3-109.9-10.2-130.3,48.6-189.1C8209.5-702,8373-633,8434.4-420.9C8485.4-244.6,8603-134.8,8907,18.5c148.2,76.7,288.7,173.7,370.5,252.9c518.6,505.9,431.8,1481.9-155.9,1768c-178.8,89.4-459.9,112.4-605.5,51.1c-53.6-23-102.2-40.9-107.3-40.9c-5.1,0-10.2,63.9-10.2,143.1s-17.9,181.4-40.9,229.9c-158.4,334.7-807.4,574.9-1926.4,715.4C5958.6,3196.9,4341.4,3212.2,3853.4,3161.1z M5575.4,2790.6c792-38.3,1326-109.9,1816.5-242.7c449.7-120.1,626-212.1,587.6-306.6c-51.1-138-873.8-355.1-1714.3-452.2c-452.2-53.6-2128.2-43.4-2593.2,12.8c-917.2,112.4-1658.1,337.3-1601.9,485.4c81.8,217.2,1343.9,475.2,2488.5,511c102.2,2.6,252.9,7.7,332.1,12.8C4972.4,2813.6,5281.6,2806,5575.4,2790.6z M2642.3,1574.5c288.7-74.1,730.7-145.6,1170.2-194.2c475.2-51.1,2072-43.4,2542.1,12.8c677.1,81.8,1211,199.3,1520.2,337.3l140.5,61.3v-186.5c0-242.7-76.7-539.1-204.4-797.1c-94.5-189.1-217.2-352.6-689.8-930c-306.6-375.6-454.8-715.4-477.8-1088.4l-15.3-235.1l-194.2-40.9c-488-109.9-610.6-122.7-1241.7-135.4c-784.4-15.3-1208.5,23-1691.4,161l-135.4,38.3v148.2c0,81.8-23,235.1-48.5,339.8c-84.3,329.6-229.9,574.9-608.1,1022c-536.5,631.1-687.3,942.8-715.4,1469.1l-15.3,260.6l206.9-89.4C2297.4,1679.2,2504.4,1610.2,2642.3,1574.5z M8976,1653.7c140.5-84.3,222.3-245.3,235.1-475.2c23-385.8-120.1-605.5-539.1-820.1c-140.5-71.5-293.8-166.1-339.8-204.4c-76.7-69-89.4-71.5-143.1-38.3c-33.2,20.4-102.2,51.1-153.3,69c-53.6,15.3-97.1,35.8-97.1,40.9c0,7.7,43.4,79.2,99.7,158.4c127.7,189.1,214.6,365.4,273.4,549.3c25.5,79.2,56.2,145.6,66.4,145.6c12.8,0,74.1-12.8,135.4-28.1c224.8-56.2,396,28.1,396,194.2c0,125.2-74.1,191.6-212.1,191.6c-173.7,0-219.7,84.3-117.5,214.6C8651.5,1743.1,8822.7,1743.1,8976,1653.7z M2956.6-1297.3c0-23-33.2-30.7-344.9-76.7c-459.9-69-822.7-194.2-881.5-306.6c-171.2-319.4,536.5-521.2,2158.9-615.7c656.6-38.3,2248.3-15.3,2823.2,38.3c871.2,84.3,1346.4,199.3,1538.1,367.9c51.1,43.4,58.8,135.4,20.4,212.1c-63.9,115-559.5,275.9-996.4,319.4c-166.1,15.3-255.5,43.4-227.4,71.5c7.7,7.7,161-2.6,344.9-23C8465-1435.2,9418-1690.7,9489.5-1877.2c51.1-132.8-495.7-327-1364.3-477.7c-1517.6-265.7-3783.8-309.2-5539.1-104.8c-1114,130.3-2082.3,390.9-2082.3,562.1c0,178.8,970.9,452.2,2069.5,585.1C2948.9-1266.6,2956.6-1266.6,2956.6-1297.3z M3017.9-1593.6c107.3-161,403.7-283.6,896.8-370.5c436.9-76.7,1415.4-97.1,1916.2-38.3c615.7,71.5,1004.1,201.8,1157.4,385.8l71.5,89.4l260.6-40.9c408.8-61.3,771.6-161,771.6-214.6c0-94.5-919.8-247.8-1839.6-306.6c-528.9-33.2-1982.6-33.2-2491,0c-981.1,63.9-1839.6,207-1839.6,304.1c0,20.4,61.3,56.2,140.5,84.3c161,53.6,649,148.2,871.2,171.2C2956.6-1529.8,2994.9-1557.9,3017.9-1593.6z"/></g></g>
</svg>