<?xml version="1.0" encoding="utf-8"?>
<!-- Svg Vector Icons : http://www.onlinewebfonts.com/icon -->
<!DOCTYPE svg PUBLIC "-//W3C//DTD SVG 1.1//EN" "http://www.w3.org/Graphics/SVG/1.1/DTD/svg11.dtd">
<svg version="1.1" xmlns="http://www.w3.org/2000/svg" xmlns:xlink="http://www.w3.org/1999/xlink" x="0px" y="0px" viewBox="0 0 1000 1000" enable-background="new 0 0 1000 1000" xml:space="preserve">
<metadata> Svg Vector Icons : http://www.onlinewebfonts.com/icon </metadata>
<g><path d="M60.9,837.6C80.5,899,165.9,990,243.7,990h0l5.1-0.1c118.4-6,278.2-116.8,427.7-296.2l55.2-66.2c149.4-179.5,227.7-354.8,209.4-468.9C928.2,78,807.7,10,738.9,10c-33.9,0-46.2,16.8-50.5,26.8c-39,68.8-87.2,188.5-87.4,231.4l0,3.1l1.1,2.8c8.6,22.6,27.8,33.4,44.8,42.9c22.3,12.6,35.1,20.8,36.6,44.5c0.5,7.2-5.8,39.9-104.4,160.7l-42.1,50.6c-98.9,116-130,128.5-137.2,129.5c-23.8,3.3-35.1-7.1-52.2-25.8c-13.1-14.2-27.9-30.4-52.3-33.9l-3.1-0.4l-3.1,0.6c-43.1,9-153.3,79.6-215.8,132C64.2,780.9,48.4,798.6,60.9,837.6z M94.1,801.4c68.7-57.5,165.2-115.5,198.9-125c10.1,2.6,17.7,10.5,28.8,22.5c17.2,18.7,38.8,42.9,82.7,36.6c19.3-2.7,57.6-21.2,166.4-150.1l11-13.1l-0.2-0.1l8.5-10.2l0.1,0.1l10.8-13C708.3,418.7,719,378.4,717.7,359.4c-2.8-42.8-32.2-59.3-53.7-71.4c-14.4-8.1-23.9-13.8-28.6-22.8c2.6-34.2,41-138,83.8-213.9c3.2-7.2,14.8-7.8,19.6-7.8c54.7,0,158.5,59.4,168.3,120.2c13,81-33.3,239.8-202.2,442.6l-55.2,66.2C480.9,875.4,331,952.2,247,956.5l-3.3,0.1c-60.1,0-133.8-77.9-150-128.8C90.4,817.4,88.8,805,94.1,801.4z"/></g>
</svg>