<?xml version="1.0" encoding="utf-8"?>
<!-- Svg Vector Icons : http://www.onlinewebfonts.com/icon -->
<!DOCTYPE svg PUBLIC "-//W3C//DTD SVG 1.1//EN" "http://www.w3.org/Graphics/SVG/1.1/DTD/svg11.dtd">
<svg version="1.1" xmlns="http://www.w3.org/2000/svg" xmlns:xlink="http://www.w3.org/1999/xlink" x="0px" y="0px" viewBox="0 0 1000 1000" enable-background="new 0 0 1000 1000" xml:space="preserve">
<metadata> Svg Vector Icons : http://www.onlinewebfonts.com/icon </metadata>
<g><g transform="translate(0.000000,512.000000) scale(0.100000,-0.100000)"><path d="M797.7,5002.6c-341.2-49.8-626.7-343.1-676.6-693.8c-9.6-67.1-19.2-484.9-19.2-929.6v-810.8h4082.5H8267v879.8c0,828-1.9,887.4-38.3,1004.3c-70.9,230-251.1,415.9-500.2,517.5l-103.5,42.2l-3363.8,1.9C2411.5,5016,853.3,5010.2,797.7,5002.6z M3379.4,3795v-421.7H2354H1328.6V3795v421.7H2354h1025.4V3795z M5524.2,4197.6c111.2-30.7,208.9-113.1,260.7-216.6c63.3-128.4,63.3-243.4-1.9-373.8c-141.8-283.7-534.8-306.7-711.1-40.2c-47.9,70.9-53.7,99.7-53.7,228.1s7.7,157.2,51.8,226.2C5173.5,4176.5,5355.5,4247.4,5524.2,4197.6z M6750.9,4197.6c111.2-30.7,208.9-113.1,260.7-216.6c63.3-128.4,63.3-243.4-1.9-373.8c-141.8-283.7-534.8-306.7-711.1-40.2c-47.9,70.9-53.7,99.7-53.7,228.1s7.7,157.2,51.8,226.2C6400.1,4176.5,6582.2,4247.4,6750.9,4197.6z"/><path d="M101.9,929.6V-287.5h2392h2393.9l256.8,254.9c180.2,178.2,320.1,297.1,467.7,396.7c197.4,130.3,601.8,345,657.4,345c28.8,0,28.8,0-7.7,74.7c-46,92-30.7,283.7,30.7,373.8c105.4,155.3,310.5,224.3,488.8,164.8c139.9-46,276-216.6,277.9-345v-47.9h377.6c362.2,0,452.3-9.6,778.2-78.6l51.7-11.5v653.6v653.6H4184.4H101.9V929.6z M3379.4,929.6V517.5H2354H1328.6v412.1v412.1H2354h1025.4V929.6z M5599,1305.3c258.8-134.2,312.4-460,109.2-663.2c-203.2-203.2-529-149.5-663.2,109.3c-44.1,84.3-47.9,254.9-9.6,346.9c30.7,78.6,136.1,184,212.7,216.6C5336.4,1353.2,5514.6,1347.4,5599,1305.3z"/><path d="M7147.6,93.9C6269.8-26.8,5508.9-619,5190.7-1426c-283.7-724.5-208.9-1541,203.2-2209.9c128.4-207,502.2-592.2,703.4-722.6c841.4-552,1880.3-553.9,2715.9-9.6c208.9,136.1,552,481.1,690,693.8c268.3,414,396.8,851,396.8,1345.5c0,638.3-233.9,1222.8-668.9,1679C8876.5-279.8,8439.5-36.4,7931.5,67.1C7747.5,105.4,7329.7,120.8,7147.6,93.9z M7883.6-1303.3v-613.3h402.5h402.5v-412.1v-412.1h-824.2h-824.2v1025.4V-690H7462h421.7V-1303.3z"/><path d="M105.8-1604.2c5.7-874,7.7-898.9,47.9-1000.5c101.6-249.2,287.5-429.3,517.5-500.3c120.7-36.4,174.4-38.3,1868.8-38.3H4286l-15.3,63.3c-109.3,513.7-113.1,998.6-5.7,1460.5c53.7,237.7,155.2,519.4,256.8,720.7c46,93.9,84.3,174.4,84.3,180.2c0,5.8-1013.9,9.6-2254,9.6H100L105.8-1604.2z M3379.4-1926.2v-412.1H2354H1328.6v412.1v412.1H2354h1025.4V-1926.2z"/></g></g>
</svg>