<?xml version="1.0" encoding="utf-8"?>
<!-- Svg Vector Icons : http://www.onlinewebfonts.com/icon -->
<!DOCTYPE svg PUBLIC "-//W3C//DTD SVG 1.1//EN" "http://www.w3.org/Graphics/SVG/1.1/DTD/svg11.dtd">
<svg version="1.1" xmlns="http://www.w3.org/2000/svg" xmlns:xlink="http://www.w3.org/1999/xlink" x="0px" y="0px" viewBox="0 0 1000 1000" enable-background="new 0 0 1000 1000" xml:space="preserve">
<metadata> Svg Vector Icons : http://www.onlinewebfonts.com/icon </metadata>
<g><g transform="translate(0.000000,511.000000) scale(0.100000,-0.100000)"><path d="M7184.1,4968.4c-184.1-59.8-312.9-140.4-441.8-276.1c-131.1-142.7-209.4-306-241.6-508.5c-16.1-94.3-25.3-858.3-25.3-2110V111H3527.8H582.6l11.5-96.6c6.9-55.2,18.4-156.5,25.3-225.5c103.5-943.4,839.9-1781,1797.1-2041l227.8-62.1l1065.3-9.2l1063-6.9l-11.5-85.1c-6.9-46-52.9-499.3-103.5-1005.5c-69-701.8-85.1-941.1-69-1003.2c39.1-140.4,117.4-234.7,250.8-301.4l126.5-64.4h2029.4h2029.5l121.9,64.4c89.7,46,142.7,94.4,193.3,177.2l69,110.4l6.9,4224.6c4.6,2917.6-2.3,4275.2-18.4,4385.6c-13.8,89.7-50.6,216.3-80.5,283c-69,149.6-253.1,345.1-398,425.7c-214,117.3-329.1,131.2-994,128.8C7400.4,5009.8,7296.8,5002.9,7184.1,4968.4z M8277,3967.4c140.3-66.7,262.3-188.7,342.9-340.5c43.7-82.8,52.9-133.4,52.9-317.5s-9.2-237-55.2-331.3c-225.5-457.9-844.4-561.4-1194.2-197.9c-135.8,138.1-197.9,280.7-207.1,471.7c-11.5,200.2,18.4,319.8,117.3,462.5c156.4,230.1,372.7,338.2,653.5,324.4C8106.7,4031.9,8187.3,4013.5,8277,3967.4z"/><path d="M584.9,1100.5V617.3H3277h2692.1v483.2v483.2H3277H584.9V1100.5z"/></g></g>
</svg>