<?xml version="1.0" encoding="utf-8"?>
<!-- Svg Vector Icons : http://www.onlinewebfonts.com/icon -->
<!DOCTYPE svg PUBLIC "-//W3C//DTD SVG 1.1//EN" "http://www.w3.org/Graphics/SVG/1.1/DTD/svg11.dtd">
<svg version="1.1" xmlns="http://www.w3.org/2000/svg" xmlns:xlink="http://www.w3.org/1999/xlink" x="0px" y="0px" viewBox="0 0 1000 1000" enable-background="new 0 0 1000 1000" xml:space="preserve">
<metadata> Svg Vector Icons : http://www.onlinewebfonts.com/icon </metadata>
<g><path d="M500,37.2c-123.8,0-224.2,88.5-224.2,210.2v532.5C275.8,901.5,376.2,990,500,990c123.8,0,224.2-88.5,224.2-210.2V247.3C724.2,125.7,623.8,37.2,500,37.2z M682.2,779.8c0,92.9-89.3,168.2-182.2,168.2c-92.9,0-182.1-75.3-182.1-168.2V247.3c0-92.9,89.3-168.2,182.1-168.2c92.9,0,182.2,75.3,182.2,168.2V779.8z M500,653.7c-61.9,0-112.1,50.2-112.1,112.1c0,61.9,50.2,112.1,112.1,112.1c61.9,0,112.1-50.2,112.1-112.1C612.1,703.9,561.9,653.7,500,653.7z M500,855.5c-49.5,0-89.7-40.1-89.7-89.7c0-49.5,40.1-89.7,89.7-89.7c49.5,0,89.7,40.2,89.7,89.7C589.7,815.3,549.5,855.5,500,855.5z M500,149.3c-61.9,0-112.1,50.2-112.1,112.1c0,61.9,50.2,112.1,112.1,112.1c61.9,0,112.1-50.2,112.1-112.1C612.1,199.5,561.9,149.3,500,149.3z M500,351c-49.5,0-89.7-40.2-89.7-89.7s40.1-89.7,89.7-89.7c49.5,0,89.7,40.2,89.7,89.7S549.5,351,500,351z M500,401.5c-61.9,0-112.1,50.2-112.1,112.1c0,61.9,50.2,112.1,112.1,112.1c61.9,0,112.1-50.2,112.1-112.1C612.1,451.7,561.9,401.5,500,401.5z M500,603.2c-49.5,0-89.7-40.1-89.7-89.7c0-49.5,40.1-89.7,89.7-89.7c49.5,0,89.7,40.2,89.7,89.7C589.7,563.1,549.5,603.2,500,603.2z"/><path d="M500,10c-123.8,0-224.2,88.5-224.2,210.2v532.5c0,121.7,100.4,210.2,224.2,210.2c123.8,0,224.2-88.5,224.2-210.2V220.2C724.2,98.5,623.8,10,500,10z M682.2,752.7c0,92.9-89.3,168.2-182.2,168.2c-92.9,0-182.1-75.3-182.1-168.2V220.2C317.8,127.3,407.1,52,500,52c92.9,0,182.2,75.3,182.2,168.2V752.7z M500,626.5c-61.9,0-112.1,50.2-112.1,112.1c0,61.9,50.2,112.1,112.1,112.1c61.9,0,112.1-50.2,112.1-112.1C612.1,676.7,561.9,626.5,500,626.5z M500,828.3c-49.5,0-89.7-40.1-89.7-89.7c0-49.5,40.1-89.7,89.7-89.7c49.5,0,89.7,40.2,89.7,89.7C589.7,788.2,549.5,828.3,500,828.3z M500,122.1c-61.9,0-112.1,50.2-112.1,112.1c0,61.9,50.2,112.1,112.1,112.1c61.9,0,112.1-50.2,112.1-112.1C612.1,172.3,561.9,122.1,500,122.1z M500,323.9c-49.5,0-89.7-40.2-89.7-89.7c0-49.5,40.1-89.7,89.7-89.7c49.5,0,89.7,40.2,89.7,89.7C589.7,283.7,549.5,323.9,500,323.9z M500,374.3c-61.9,0-112.1,50.2-112.1,112.1S438.1,598.5,500,598.5c61.9,0,112.1-50.2,112.1-112.1S561.9,374.3,500,374.3z M500,576.1c-49.5,0-89.7-40.1-89.7-89.7c0-49.5,40.1-89.7,89.7-89.7c49.5,0,89.7,40.2,89.7,89.7C589.7,535.9,549.5,576.1,500,576.1z"/></g>
</svg>