<?xml version="1.0" encoding="utf-8"?>
<!-- Svg Vector Icons : http://www.onlinewebfonts.com/icon -->
<!DOCTYPE svg PUBLIC "-//W3C//DTD SVG 1.1//EN" "http://www.w3.org/Graphics/SVG/1.1/DTD/svg11.dtd">
<svg version="1.1" xmlns="http://www.w3.org/2000/svg" xmlns:xlink="http://www.w3.org/1999/xlink" x="0px" y="0px" viewBox="0 0 1000 1000" enable-background="new 0 0 1000 1000" xml:space="preserve">
<metadata> Svg Vector Icons : http://www.onlinewebfonts.com/icon </metadata>
<g><g><path d="M900.3,723.1V189.3H99.7v533.8H900.3z M900.3,99.7c23.6,0,44.5,9,62.6,27.1c18.1,18.1,27.1,38.9,27.1,62.6l-2.1,533.8c0,23.6-8.7,44.1-26.1,61.5c-17.4,17.4-37.9,26.1-61.5,26.1H677.2v89.7H322.8v-89.7H99.7c-23.6,0-44.5-8.7-62.6-26.1C19,767.2,10,746.7,10,723.1V189.3c0-23.6,9-44.5,27.1-62.6C55.2,108.7,76,99.7,99.7,99.7H900.3z"/></g></g>
</svg>