<?xml version="1.0" encoding="utf-8"?>
<!-- Svg Vector Icons : http://www.onlinewebfonts.com/icon -->
<!DOCTYPE svg PUBLIC "-//W3C//DTD SVG 1.1//EN" "http://www.w3.org/Graphics/SVG/1.1/DTD/svg11.dtd">
<svg version="1.1" xmlns="http://www.w3.org/2000/svg" xmlns:xlink="http://www.w3.org/1999/xlink" x="0px" y="0px" viewBox="0 0 1000 1000" enable-background="new 0 0 1000 1000" xml:space="preserve">
<metadata> Svg Vector Icons : http://www.onlinewebfonts.com/icon </metadata>
<g><path d="M585.4,855.6V145.6H688c22.3,0,47.8,2.3,76.6,6.9c28.8,4.6,56.9,12.4,84.3,23.3c27.4,11,50.2,26.7,68.5,47.2c18.3,20.5,32.4,41.7,42.4,63.6c10,22,17.3,46.4,21.8,73.2c4.6,26.9,7.3,146.1,8.1,179.3c0.9,33.3-1.3,66.7-6.4,100.3c-6.8,39.1-17.4,72.5-31.7,100.3c-14.3,27.8-30.5,49.1-48.8,64.1c-18.3,15-39,26.3-62.1,33.9c-23.1,7.6-44.2,12.5-63.4,14.7c-19.1,2.1-47.2,3.2-84.3,3.2L585.4,855.6L585.4,855.6z M661.6,221.6v558h17.8c37.7,0,69.5-2.9,95.5-8.7c26-5.8,48.8-16.1,68.5-30.7c19.7-14.7,34.2-30.7,43.7-48.2c9.4-17.4,15.8-39.1,19.3-65.1c3.4-26,5.3-56.3,5.6-90.8c0.3-34.5-2.4-152.3-8.1-174.9c-5.7-21.4-14.4-40.5-26.1-57.3c-11.7-16.8-27.3-31-46.7-42.7c-19.4-11.6-37.1-19.9-53.1-24.8c-16-4.9-32.8-8.6-50.5-11c-17.7-2.4-33.4-3.7-47.1-3.7L661.6,221.6L661.6,221.6z"/><path d="M10,335.8c6.8-25.1,13.6-46.5,20.4-64.1c6.8-17.6,18.1-36.5,34.1-56.5c15.9-20,37-36.5,63.1-49.4c26.1-12.9,56.8-20,92.1-21.4c31.9-0.7,62.4,3.9,91.6,13.7c29.2,9.8,51.9,23.8,68.2,41.7c16.3,18,28.5,36.6,36.6,56c8.1,19.3,12.5,38.7,13.2,58c0.7,19.3-0.3,37.5-3.1,54.5c-4.1,20.4-10.5,40-19.3,59c-8.8,19-22.4,39.9-40.7,62.6c-18.3,22.7-33.3,40-44.8,51.9c-11.5,11.9-35.6,36.1-72.3,72.8c-36.6,36.6-62.4,63.5-77.3,80.4c-14.9,17-23.4,29.5-25.4,37.7l-6.1,17.3h303.3v96.7H20.2c-1.4-13-1.9-28.4-1.5-46.3c0.3-17.8,3.9-36.1,10.7-54.9c6.8-18.7,17.6-38.6,32.6-59.7c14.9-21,30.4-40.4,46.3-58c15.9-17.6,39.7-42.7,71.2-75.3c31.5-32.6,60.4-62.9,86.5-91.1c26.1-28.1,43.6-51.2,52.4-69.2c8.8-18,13.7-37,14.8-57c1-20-2.5-37.8-10.7-53.4c-10.9-18.3-25.1-31.2-42.7-38.7c-17.7-7.5-34.6-11.5-50.9-12.2c-19-0.7-36,2-50.9,8.1c-14.9,6.1-27.7,15.6-38.2,28.5c-10.5,12.9-17.5,27.1-20.9,42.7l-6.1,24.4L10,335.8L10,335.8z"/></g>
</svg>