<?xml version="1.0" encoding="utf-8"?>
<!-- Svg Vector Icons : http://www.onlinewebfonts.com/icon -->
<!DOCTYPE svg PUBLIC "-//W3C//DTD SVG 1.1//EN" "http://www.w3.org/Graphics/SVG/1.1/DTD/svg11.dtd">
<svg version="1.1" xmlns="http://www.w3.org/2000/svg" xmlns:xlink="http://www.w3.org/1999/xlink" x="0px" y="0px" viewBox="0 0 1000 1000" enable-background="new 0 0 1000 1000" xml:space="preserve">
<metadata> Svg Vector Icons : http://www.onlinewebfonts.com/icon </metadata>
<g><path d="M415.5,50.4c9.9,0,18.7,0.3,27.1,1c86.4,6.6,142.3,25.6,174,40.3c30.3,14.1,44.7,27,47.4,29.6c9.1,11.3,16.4,26.5,21,44c1.5,5.8,2.5,10.4,3,14.4l0.1,1.1l0.2,1.1c5.8,33.3,4.7,69.1,3.5,93.2c-0.7,13.2-2.2,27.2-4.7,44.2c-3.2,21.4,1.5,39.8,13.9,54.7c1.3,1.6,2.6,3,3.8,4.3c-1.5,11-6.7,39.4-23.4,63.5c-5.3,7.7-13.3,16.7-22.6,27.2c-33.9,38.4-85,96.5-93.5,192.8c-3.4,38.3-2.3,61,4.7,75.8c11.7,31.4,48,53.6,116.2,71.6c39.8,10.5,77.9,16.1,84.8,17c41,7.7,75.2,20,101.6,36.5c19.8,12.4,35.3,27.3,45.9,44.1c10.7,17,14.5,32.8,15.8,42.9h-76.4l0-0.3h-18.7h-38.8H616.6h-24.8h-0.2l-0.2,0l-38.9,0.3H65.9c1.4-9.7,5-24.5,14.2-40.3c10.3-17.7,25.5-33.2,45.2-46c26.6-17.3,61.4-29.8,103.3-37.2c6.3-0.9,44.8-6.5,85-17.1c68.2-18,104.6-40.2,116.2-71.6c7-14.9,8.1-37.5,4.7-75.8c-8.5-96.4-59.7-154.4-93.5-192.8c-9.3-10.5-17.2-19.6-22.5-27.2c-15.6-22.6-21.2-48.5-23-60.9c25.4-23.9,19.9-52.2,17.5-64.4c-0.2-0.8-0.3-1.6-0.4-2.4c-6.7-36.2-7.1-96.8-1-132.2l0.5-2.8l0.1-2.8c0.8-24.7,23.4-50.4,32.3-58.4c10.1-8.6,21.5-19.2,30.3-33.2c3.9-6.2,6.7-12.2,8.5-18.3c1.6-5.3,2.3-10.4,2.3-15C395.6,50.7,405.6,50.4,415.5,50.4 M415.5,10c-15,0-30,0.7-45,1.5c-11.1,0.6-29.5,1.1-31.5,11.8c-2.3,11.9,9.1,20.1,5.7,31.3c-0.9,3-2.4,5.8-4,8.4c-5.9,9.4-14.3,17.2-22.6,24.3c0,0-44.6,39-46.2,87.6c-7.1,40.8-6.4,105.9,1,146.4c2,10.7,5,20.7-5.2,30.2c-8.3,7.7-13.3,12-13.3,24c0,0,2.4,47.8,31,89.2c28.7,41.4,99.5,92.3,109.1,200.6c4.5,50.9-1.6,55.7-1.6,55.7c-11.1,43.8-170.4,65.3-170.4,65.3C13.3,822.5,24.8,964.6,24.8,964.6V990h528l39.1-0.3h24.8h183.7h38.8h18.7l-21.9,0.3h139.2v-25.4c0,0,13.8-139.2-197.7-178.4c0,0-159.2-21.5-170.4-65.3c0,0-6.1-4.9-1.6-55.7C615,556.9,685.9,506,714.6,464.6c28.7-41.4,31.1-89.2,31.1-89.2c0-3.6-0.3-7.3-1.4-10.7c-2.3-7.3-7.6-11.2-12.3-16.8c-5.6-6.7-6.2-14.5-5-22.8c2.4-16,4.2-31.9,5.1-48c1.8-33.8,1.8-68.8-4-102.3c-0.8-6.7-2.3-13.4-4-19.9c-5.8-21.9-15.4-43.2-29.9-60.6c0,0-61.5-68.8-248.5-83.2C435.6,10.3,425.6,10,415.5,10L415.5,10z"/></g>
</svg>