<?xml version="1.0" encoding="utf-8"?>
<!-- Svg Vector Icons : http://www.onlinewebfonts.com/icon -->
<!DOCTYPE svg PUBLIC "-//W3C//DTD SVG 1.1//EN" "http://www.w3.org/Graphics/SVG/1.1/DTD/svg11.dtd">
<svg version="1.1" xmlns="http://www.w3.org/2000/svg" xmlns:xlink="http://www.w3.org/1999/xlink" x="0px" y="0px" viewBox="0 0 1000 1000" enable-background="new 0 0 1000 1000" xml:space="preserve">
<metadata> Svg Vector Icons : http://www.onlinewebfonts.com/icon </metadata>
<g><g><g><path d="M500,10C229.7,10,10,229.7,10,500c0,270.3,219.7,490,490,490c270.3,0,490-219.7,490-490C990,229.7,770.3,10,500,10z M500,923.3C266.4,923.3,76.7,733.6,76.7,500S266.4,76.7,500,76.7c233.6,0,423.3,189.7,423.3,423.3C923.3,733.6,733.6,923.3,500,923.3z"/><path d="M388.2,283.1c-18.4,0-33.4,15-33.4,33.4v350.4c0,18.4,15,33.4,33.4,33.4s33.4-15,33.4-33.4V316.5C421.6,298.1,406.6,283.1,388.2,283.1z"/><path d="M616.2,283.1c-18.4,0-33.4,15-33.4,33.4v350.4c0,18.4,15,33.4,33.4,33.4c18.4,0,33.4-15,33.4-33.4V316.5C649.6,298.1,634.6,283.1,616.2,283.1z"/></g></g><g></g><g></g><g></g><g></g><g></g><g></g><g></g><g></g><g></g><g></g><g></g><g></g><g></g><g></g><g></g></g>
</svg>