<?xml version="1.0" encoding="utf-8"?>
<!-- Svg Vector Icons : http://www.onlinewebfonts.com/icon -->
<!DOCTYPE svg PUBLIC "-//W3C//DTD SVG 1.1//EN" "http://www.w3.org/Graphics/SVG/1.1/DTD/svg11.dtd">
<svg version="1.1" xmlns="http://www.w3.org/2000/svg" xmlns:xlink="http://www.w3.org/1999/xlink" x="0px" y="0px" viewBox="0 0 1000 1000" enable-background="new 0 0 1000 1000" xml:space="preserve">
<metadata> Svg Vector Icons : http://www.onlinewebfonts.com/icon </metadata>
<g><path d="M500,990c270.2,0,490-219.8,490-490S770.2,10,500,10S10,229.8,10,500S229.8,990,500,990L500,990L500,990z M464.8,253.9c0-19.4,15.7-35.2,35.2-35.2c19.4,0,35.2,15.7,35.2,35.2v316.4c0,19.4-15.7,35.2-35.2,35.2c-19.4,0-35.2-15.7-35.2-35.2V253.9L464.8,253.9z M500,675.8c29.1,0,52.7,23.6,52.7,52.7c0,29.2-23.6,52.7-52.7,52.7c-29.1,0-52.7-23.6-52.7-52.7C447.3,699.4,470.9,675.8,500,675.8L500,675.8L500,675.8z"/></g>
</svg>