<?xml version="1.0" encoding="utf-8"?>
<!-- Svg Vector Icons : http://www.onlinewebfonts.com/icon -->
<!DOCTYPE svg PUBLIC "-//W3C//DTD SVG 1.1//EN" "http://www.w3.org/Graphics/SVG/1.1/DTD/svg11.dtd">
<svg version="1.1" xmlns="http://www.w3.org/2000/svg" xmlns:xlink="http://www.w3.org/1999/xlink" x="0px" y="0px" viewBox="0 0 1000 1000" enable-background="new 0 0 1000 1000" xml:space="preserve">
<metadata> Svg Vector Icons : http://www.onlinewebfonts.com/icon </metadata>
<g><g><g><path d="M500,989.9c257.3,0,465.9,14,465.9-243.3c0-200.6-126.8-449.8-304.7-549.8h-87.1H425.9h-87.1C161,296.8,34.1,546,34.1,746.6C34.1,1003.9,242.7,989.9,500,989.9z M307.2,576.2c1.6-2.4,3.2-4.6,4.8-6.7c1.2-1.6,1.6-3.6,1.2-5.6c-0.4-2-1.5-3.7-3.1-4.8l-31.8-21.5c-1.7-1.1-2.4-3-2-4.9c0.4-2,1.8-3.4,3.8-3.8l122.8-25.2c0.3-0.1,0.7-0.1,1-0.1c2.3,0,4.3,1.7,4.7,4L431.2,631c0.3,1.4-0.1,2.8-1,3.9c-1.6,1.9-4.4,2.3-6.4,0.9L389.9,613c-1.2-0.8-2.6-1.3-4.1-1.3c-2.4,0-4.6,1.1-6,3.1c-4.5,6.2-9.7,13.7-15.1,22.4c-10.2,16-17.8,33.6-19.5,44.7c-0.9,5.2-1.3,10.7,0.9,15.4c3.7,7.9,11.8,12.2,19.9,15.6c7.1,3,14.9,5.4,23.3,7c12.7,2.5,27.6,3.1,37.9,3.1c6.3,0,10.4-0.2,10.6-0.2c2.1-0.2,3.9,1.4,4.1,3.5l6,73.9c-0.1,1.1-0.4,4-4.6,4.2c-0.1,0-7,0.1-15.3,0.1c-11.2,0-19.5-0.2-24-0.5c-28.8-2.1-54.9-8.6-77.7-19.5c-22-10.9-38.9-26-50-45c-1.4-2.5-2.7-4.9-3.9-7.3c-12.6-27.3-12.6-57.3,0-91.9C281.9,614.5,296,592.5,307.2,576.2z M430.7,366.8c19.3-15.3,40.1-24,62.1-25.9c2.9-0.2,5.6-0.4,8.3-0.4c30,0.3,57.2,13.2,83.1,39.4c19.1,19.6,33,41.8,42.9,58.9c1.4,2.5,2.8,4.9,4.1,7.2c1.3,2.3,3.8,3.8,6.4,3.8c1.3,0,2.6-0.4,3.7-1l33-19.6c2.1-1.3,4.8-0.7,6.3,1.2c0.9,1.2,1.2,2.6,0.9,4.1l-29.9,121.8c-0.5,2.2-2.5,3.7-4.7,3.7c-0.4,0-0.8-0.1-1.2-0.2l-121.2-32.3c-1.9-0.5-3.3-2-3.5-4c-0.3-2,0.6-3.8,2.3-4.8l35.2-20.9c3.4-2,4.6-6.4,2.7-9.9c-3.7-6.7-8.2-14.7-13.8-23.3c-10.1-16.1-22.7-30.5-32-36.8c-4.4-3-9.1-5.8-14.3-5.8c-8.7,0-16,5.4-22.6,11.3c-5.8,5.1-11.3,11.2-16.3,18c-12.6,17-22.9,41.6-23.4,42.7c-0.7,1.9-3,3-4.9,2.2L364.5,470c-1-0.6-3.4-2.1-1.8-6c0.1-0.3,11.9-25.9,17.2-35.3C394.1,403.5,411.2,382.7,430.7,366.8z M557.5,805.7l-0.1,38.4c0,3-2.5,4.8-4.9,4.8c-0.9,0-2.2-0.2-3.3-1.4l-89.2-88.1c-0.9-0.9-1.4-2.1-1.4-3.4c0-1.3,0.5-2.5,1.5-3.4l89.9-87.5c1.2-1.1,2.4-1.4,3.3-1.4c1.3,0,2.6,0.5,3.5,1.5c0.6,0.6,1.4,1.7,1.4,3.4l-0.1,40.9c0,4,3.1,7.2,7.1,7.4c4.1,0.1,9.6,0.3,15.6,0.3c4,0,7.7-0.1,11.5-0.2c19-0.5,37.8-3.9,48-8.6c4.8-2.2,9.7-4.8,12.3-9.3c4.5-7.5,3.6-16.6,1.9-25.2c-1.5-7.6-3.8-15.4-7.1-23.2c-8.1-19.5-23.9-41-24.6-41.9c-0.6-0.8-0.9-1.8-0.8-2.8c0.1-1,0.6-1.9,1.4-2.6l58.1-46.1c2.3-1.3,4.4-0.7,6.1,1.5c0.2,0.2,16.2,23.5,21.5,32.9c14.3,25.1,23.4,50.5,27,75.4c3.2,24.4,0,46.8-9.6,66.6c-1.3,2.6-2.5,5-3.9,7.3c-15.6,25.7-40.6,42.4-76.4,51.1c-25.1,6-49.1,6.7-64.9,6.7c-2.6,0-5.2,0-7.6-0.1c-2.9-0.1-5.7-0.1-8.2-0.2l-0.2,0C560.8,798.4,557.5,801.6,557.5,805.7z"/><path d="M403.9,149.2h192.2l40.5-87.8c11.1-24-6.4-51.3-32.9-51.3H500H396.2c-26.4,0-43.9,27.4-32.9,51.3L403.9,149.2z"/></g></g><g></g><g></g><g></g><g></g><g></g><g></g><g></g><g></g><g></g><g></g><g></g><g></g><g></g><g></g><g></g></g>
</svg>