<?xml version="1.0" encoding="utf-8"?>
<!-- Svg Vector Icons : http://www.onlinewebfonts.com/icon -->
<!DOCTYPE svg PUBLIC "-//W3C//DTD SVG 1.1//EN" "http://www.w3.org/Graphics/SVG/1.1/DTD/svg11.dtd">
<svg version="1.1" xmlns="http://www.w3.org/2000/svg" xmlns:xlink="http://www.w3.org/1999/xlink" x="0px" y="0px" viewBox="0 0 1000 1000" enable-background="new 0 0 1000 1000" xml:space="preserve">
<metadata> Svg Vector Icons : http://www.onlinewebfonts.com/icon </metadata>
<g><path d="M984.6,483.6"/><path d="M990,461"/><path d="M600.6,952.5c-54.3,0-98.5-44.2-98.5-98.5V641.6c0-54.3,44.2-98.5,98.5-98.5H813c54.3,0,98.5,44.2,98.5,98.5V854c0,54.3-44.2,98.5-98.5,98.5H600.6L600.6,952.5z M600.6,598.5c-23.8,0-43.1,19.3-43.1,43.1V854c0,23.8,19.3,43.1,43.1,43.1H813c23.8,0,43.1-19.3,43.1-43.1V641.6c0-23.8-19.3-43.1-43.1-43.1L600.6,598.5L600.6,598.5z M108.5,952.5C54.2,952.5,10,908.3,10,854V641.6c0-54.3,44.2-98.5,98.5-98.5h212.4c54.3,0,98.5,44.2,98.5,98.5V854c0,54.3-44.2,98.5-98.5,98.5H108.5L108.5,952.5z M108.5,598.5c-23.8,0-43.1,19.3-43.1,43.1V854c0,23.8,19.3,43.1,43.1,43.1h212.4c23.8,0,43.1-19.3,43.1-43.1V641.6c0-23.8-19.3-43.1-43.1-43.1L108.5,598.5L108.5,598.5z M600.6,456.9c-54.3,0-98.5-44.2-98.5-98.5V146c0-54.3,44.2-98.5,98.5-98.5H813c54.3,0,98.5,44.2,98.5,98.5v212.4c0,54.3-44.2,98.5-98.5,98.5H600.6L600.6,456.9z M600.6,102.9c-23.8,0-43.1,19.3-43.1,43.1v212.4c0,23.8,19.3,43.1,43.1,43.1H813c23.8,0,43.1-19.3,43.1-43.1V146c0-23.8-19.3-43.1-43.1-43.1H600.6z M108.5,456.9c-54.3,0-98.5-44.2-98.5-98.5V146c0-54.3,44.2-98.5,98.5-98.5h212.4c54.3,0,98.5,44.2,98.5,98.5v212.4c0,54.3-44.2,98.5-98.5,98.5H108.5L108.5,456.9z M108.5,102.9c-23.8,0-43.1,19.3-43.1,43.1v212.4c0,23.8,19.3,43.1,43.1,43.1h212.4c23.8,0,43.1-19.3,43.1-43.1V146c0-23.8-19.3-43.1-43.1-43.1H108.5L108.5,102.9z"/></g>
</svg>