<?xml version="1.0" encoding="utf-8"?>
<!-- Svg Vector Icons : http://www.onlinewebfonts.com/icon -->
<!DOCTYPE svg PUBLIC "-//W3C//DTD SVG 1.1//EN" "http://www.w3.org/Graphics/SVG/1.1/DTD/svg11.dtd">
<svg version="1.1" xmlns="http://www.w3.org/2000/svg" xmlns:xlink="http://www.w3.org/1999/xlink" x="0px" y="0px" viewBox="0 0 1000 1000" enable-background="new 0 0 1000 1000" xml:space="preserve">
<metadata> Svg Vector Icons : http://www.onlinewebfonts.com/icon </metadata>
<g><path d="M10.5,468.7V124.8c0,0-10.7-57.3,63.9-57.3h841.1c0,0,74.5,0,74.5,66.9v582.7c0,0-10.7,57.3-74.5,57.3H287.3l63.9,124.2c0,0,42.6,76.4-74.5,0C148.9,822.1,42.5,755.3,42.5,755.3s-31.9-9.6-31.9-57.3C10.5,650.2,10.5,468.7,10.5,468.7L10.5,468.7z"/><path d="M74.4,459.1V163c0,0-21.3-57.3,53.2-57.3h745.2c0,0,63.9,0,63.9,57.3v515.9c0,0-10.6,57.3-63.9,57.3H223.5L298,860.4c31.9,47.8,21.3,28.7-74.5-38.2c-85.2-57.3-138.4-95.5-138.4-95.5s-10.6-19.1-10.6-57.3C74.4,621.5,74.4,459.1,74.4,459.1L74.4,459.1z"/></g>
</svg>