<svg 
    width="530" 
    height="310" 
    xmlns="http://www.w3.org/2000/svg" 
    xmlns:xlink="http://www.w3.org/1999/xlink" 
    overflow="hidden"
    viewBox="0 0 930 510"
    style="backgroun d:orange;width:0%">
<defs><clipPath id="clip0"><path d="M190 16 1121 16 1121 520 190 520Z" fill-rule="evenodd" clip-rule="evenodd"/></clipPath></defs><g clip-path="url(#clip0)" transform="translate(-190 -16)"><path d="M437 45.0001 437 490.528 432 490.528 432 45.0001ZM427 47.5 434.5 32.5 442 47.5Z" fill="#D9D9D9"/><path d="M1044.9 377 193.5 377 193.5 372 1044.9 372ZM1042.4 367 1057.4 374.5 1042.4 382Z" fill="#D9D9D9"/><path d="M0 0 318.927 482.607" stroke="#FF0000" stroke-width="3" stroke-miterlimit="8" fill="none" fill-rule="evenodd" transform="matrix(1 0 0 -1 337.5 519.107)"/><text fill="#FF0000" font-family="Cambria Math,Cambria Math_MSFontService,sans-serif" font-weight="400" font-size="25" transform="translate(661.31 61)">𝒚<tspan x="22" y="0">=</tspan><tspan x="48" y="0">𝟐𝒙</tspan></text><path d="M0 0 704.399 418.417" stroke="#00B050" stroke-width="3.125" stroke-miterlimit="8" fill="none" fill-rule="evenodd" transform="matrix(0.921937 0.38734 0.38734 -0.921937 202.13 288.055)"/><text fill="#00B050" font-family="Cambria Math,Cambria Math_MSFontService,sans-serif" font-weight="400" font-size="25" transform="translate(911.853 169)">𝒚<tspan x="21" y="0">=</tspan><tspan x="47" y="0">𝟎</tspan>.<tspan x="71" y="0">𝟑</tspan>𝒙<tspan x="106" y="0">+</tspan><tspan x="130" y="0">𝟓</tspan></text><path d="M666 172.5C666 169.462 669.582 167 674 167 678.418 167 682 169.462 682 172.5 682 175.538 678.418 178 674 178 669.582 178 666 175.538 666 172.5Z" fill="#4472C4" fill-rule="evenodd"/><path d="M710 162.5C710 159.462 713.806 157 718.5 157 723.194 157 727 159.462 727 162.5 727 165.538 723.194 168 718.5 168 713.806 168 710 165.538 710 162.5Z" fill="#4472C4" fill-rule="evenodd"/><path d="M753 186.5C753 183.462 756.806 181 761.5 181 766.194 181 770 183.462 770 186.5 770 189.538 766.194 192 761.5 192 756.806 192 753 189.538 753 186.5Z" fill="#4472C4" fill-rule="evenodd"/><path d="M702 181.5C702 178.462 705.806 176 710.5 176 715.194 176 719 178.462 719 181.5 719 184.538 715.194 187 710.5 187 705.806 187 702 184.538 702 181.5Z" fill="#4472C4" fill-rule="evenodd"/><path d="M686 152.5C686 149.462 689.582 147 694 147 698.418 147 702 149.462 702 152.5 702 155.538 698.418 158 694 158 689.582 158 686 155.538 686 152.5Z" fill="#4472C4" fill-rule="evenodd"/><path d="M725 173.5C725 170.462 728.582 168 733 168 737.418 168 741 170.462 741 173.5 741 176.538 737.418 179 733 179 728.582 179 725 176.538 725 173.5Z" fill="#4472C4" fill-rule="evenodd"/><path d="M726 199.5C726 196.462 729.582 194 734 194 738.418 194 742 196.462 742 199.5 742 202.538 738.418 205 734 205 729.582 205 726 202.538 726 199.5Z" fill="#4472C4" fill-rule="evenodd"/><path d="M705 147.5C705 144.462 708.582 142 713 142 717.418 142 721 144.462 721 147.5 721 150.538 717.418 153 713 153 708.582 153 705 150.538 705 147.5Z" fill="#4472C4" fill-rule="evenodd"/><path d="M636 213C636 210.239 639.806 208 644.5 208 649.194 208 653 210.239 653 213 653 215.761 649.194 218 644.5 218 639.806 218 636 215.761 636 213Z" fill="#C00000" fill-rule="evenodd"/><path d="M716 246.5C716 243.462 719.806 241 724.5 241 729.194 241 733 243.462 733 246.5 733 249.538 729.194 252 724.5 252 719.806 252 716 249.538 716 246.5Z" fill="#C00000" fill-rule="evenodd"/><path d="M652 222.5C652 219.462 655.582 217 660 217 664.418 217 668 219.462 668 222.5 668 225.538 664.418 228 660 228 655.582 228 652 225.538 652 222.5Z" fill="#C00000" fill-rule="evenodd"/><path d="M743 235.5C743 232.462 746.582 230 751 230 755.418 230 759 232.462 759 235.5 759 238.538 755.418 241 751 241 746.582 241 743 238.538 743 235.5Z" fill="#C00000" fill-rule="evenodd"/><path d="M658 199C658 196.239 661.582 194 666 194 670.418 194 674 196.239 674 199 674 201.761 670.418 204 666 204 661.582 204 658 201.761 658 199Z" fill="#C00000" fill-rule="evenodd"/><path d="M691 233.5C691 230.462 694.582 228 699 228 703.418 228 707 230.462 707 233.5 707 236.538 703.418 239 699 239 694.582 239 691 236.538 691 233.5Z" fill="#C00000" fill-rule="evenodd"/><path d="M721 227.5C721 224.462 724.806 222 729.5 222 734.194 222 738 224.462 738 227.5 738 230.538 734.194 233 729.5 233 724.806 233 721 230.538 721 227.5Z" fill="#C00000" fill-rule="evenodd"/><path d="M678 211.5C678 208.462 681.582 206 686 206 690.418 206 694 208.462 694 211.5 694 214.538 690.418 217 686 217 681.582 217 678 214.538 678 211.5Z" fill="#C00000" fill-rule="evenodd"/><path d="M0 0 761.551 133.443" stroke="#EC80DD" stroke-width="3.125" stroke-miterlimit="8" fill="none" fill-rule="evenodd" transform="matrix(0.847932 0.530104 0.530104 -0.847932 296.211 33.4179)"/><text fill="#EC80DD" font-family="Cambria Math,Cambria Math_MSFontService,sans-serif" font-weight="400" font-size="25" transform="translate(939.329 289)">𝒚<tspan x="22" y="0">=</tspan><tspan x="48" y="0">−</tspan>𝟎.<tspan x="90.9999" y="0">𝟑𝒙</tspan><tspan x="126" y="0">+</tspan><tspan x="150" y="0">𝟗</tspan></text><text fill="#0070C0" font-family="Cambria Math,Cambria Math_MSFontService,sans-serif" font-weight="400" font-size="25" transform="matrix(0.993847 0.110764 -0.110764 0.993847 819.193 329)">𝒚<tspan x="21.9516" y="-0.434123">=</tspan><tspan x="47.9649" y="-0.314731">𝟎</tspan><tspan x="63.0024" y="0.0217223">.</tspan><tspan x="72.0028" y="0.0248303">𝟓𝒙</tspan></text></g></svg>