<svg xmlns="http://www.w3.org/2000/svg" xmlns:xlink="http://www.w3.org/1999/xlink" width="530" height="310" overflow="hidden" viewBox="0 0 850 500" style="width:0%"><defs><clipPath id="clip0"><path fill-rule="evenodd" d="M978 375 1838 375 1838 861 978 861Z" clip-rule="evenodd"/></clipPath></defs><g clip-path="url(#clip0)" transform="translate(-978 -375)"><path d="M1261 448 1261 833.347 1256 833.347 1256 448ZM1251 450.5 1258.5 435.5 1266 450.5Z"/><path d="M1738.92 687 981.5 687 981.5 682 1738.92 682ZM1736.42 677 1751.42 684.5 1736.42 692Z"/><path fill="none" fill-rule="evenodd" stroke="#0070C0" stroke-miterlimit="8" stroke-width="3.125" d="M0 0 678.703 115.91" transform="matrix(0.908007 0.418955 0.418955 -0.908007 1024.23 621.14)"/><text fill="#0070C0" font-family="Cambria Math,Cambria Math_MSFontService,sans-serif" font-size="25" font-weight="400" transform="matrix(0.968972 0.24717 -0.24717 0.968972 1579.07 753)">𝒚<tspan x="22.139" y=".545">=</tspan> <tspan x="48.033" y=".132">−</tspan> <tspan x="67.109" y=".426">𝟎</tspan> <tspan x="82.181" y=".709">.</tspan> <tspan x="91.126" y=".492">𝟓𝒙</tspan></text><path fill="none" fill-rule="evenodd" stroke="red" stroke-miterlimit="8" stroke-width="3.125" d="M0 0 390.566 367.277" transform="matrix(0.974636 -0.223795 -0.223795 -0.974636 1143.89 859.493)"/><text fill="red" font-family="Cambria Math,Cambria Math_MSFontService,sans-serif" font-size="25" font-weight="400" transform="matrix(0.974636 -0.223795 0.223795 0.974636 1466.28 431)">𝒚<tspan x="21.067" y="-.293">=</tspan> <tspan x="46.884" y=".505">𝟐𝒙</tspan></text><path fill="none" fill-rule="evenodd" stroke="#00B050" stroke-miterlimit="8" stroke-width="3" d="M0 0 627.77 363.441" transform="matrix(1 0 0 -1 1052.5 804.941)"/><text fill="#00B050" font-family="Cambria Math,Cambria Math_MSFontService,sans-serif" font-size="25" font-weight="400" transform="matrix(0.985405 -0.170227 0.170227 0.985405 1701.45 473)">𝒚<tspan x="21.072" y="-.419">= </tspan> <tspan x="47" y=".001">𝒙</tspan></text><path fill="#4472C4" fill-rule="evenodd" d="M1465 508.5C1465 506.015 1468.36 504 1472.5 504 1476.64 504 1480 506.015 1480 508.5 1480 510.985 1476.64 513 1472.5 513 1468.36 513 1465 510.985 1465 508.5Z"/><path fill="#4472C4" fill-rule="evenodd" d="M1505 500C1505 497.239 1508.13 495 1512 495 1515.87 495 1519 497.239 1519 500 1519 502.761 1515.87 505 1512 505 1508.13 505 1505 502.761 1505 500Z"/><path fill="#4472C4" fill-rule="evenodd" d="M1543 520.5C1543 518.015 1546.36 516 1550.5 516 1554.64 516 1558 518.015 1558 520.5 1558 522.985 1554.64 525 1550.5 525 1546.36 525 1543 522.985 1543 520.5Z"/><path fill="#4472C4" fill-rule="evenodd" d="M1498 516.5C1498 514.015 1501.13 512 1505 512 1508.87 512 1512 514.015 1512 516.5 1512 518.985 1508.87 521 1505 521 1501.13 521 1498 518.985 1498 516.5Z"/><path fill="#4472C4" fill-rule="evenodd" d="M1483 491.5C1483 489.015 1486.36 487 1490.5 487 1494.64 487 1498 489.015 1498 491.5 1498 493.985 1494.64 496 1490.5 496 1486.36 496 1483 493.985 1483 491.5Z"/><path fill="#4472C4" fill-rule="evenodd" d="M1518 509.5C1518 507.015 1521.36 505 1525.5 505 1529.64 505 1533 507.015 1533 509.5 1533 511.985 1529.64 514 1525.5 514 1521.36 514 1518 511.985 1518 509.5Z"/><path fill="#4472C4" fill-rule="evenodd" d="M1519 532C1519 529.239 1522.13 527 1526 527 1529.87 527 1533 529.239 1533 532 1533 534.761 1529.87 537 1526 537 1522.13 537 1519 534.761 1519 532Z"/><path fill="#4472C4" fill-rule="evenodd" d="M1500 487C1500 484.239 1503.36 482 1507.5 482 1511.64 482 1515 484.239 1515 487 1515 489.761 1511.64 492 1507.5 492 1503.36 492 1500 489.761 1500 487Z"/><path fill="#C00000" fill-rule="evenodd" d="M1439 544C1439 541.239 1442.13 539 1446 539 1449.87 539 1453 541.239 1453 544 1453 546.761 1449.87 549 1446 549 1442.13 549 1439 546.761 1439 544Z"/><path fill="#C00000" fill-rule="evenodd" d="M1510 573C1510 570.239 1513.36 568 1517.5 568 1521.64 568 1525 570.239 1525 573 1525 575.761 1521.64 578 1517.5 578 1513.36 578 1510 575.761 1510 573Z"/><path fill="#C00000" fill-rule="evenodd" d="M1453 552C1453 549.239 1456.13 547 1460 547 1463.87 547 1467 549.239 1467 552 1467 554.761 1463.87 557 1460 557 1456.13 557 1453 554.761 1453 552Z"/><path fill="#C00000" fill-rule="evenodd" d="M1534 563C1534 560.239 1537.36 558 1541.5 558 1545.64 558 1549 560.239 1549 563 1549 565.761 1545.64 568 1541.5 568 1537.36 568 1534 565.761 1534 563Z"/><path fill="#C00000" fill-rule="evenodd" d="M1458 531.5C1458 529.015 1461.36 527 1465.5 527 1469.64 527 1473 529.015 1473 531.5 1473 533.985 1469.64 536 1465.5 536 1461.36 536 1458 533.985 1458 531.5Z"/><path fill="#C00000" fill-rule="evenodd" d="M1487 561.5C1487 559.015 1490.36 557 1494.5 557 1498.64 557 1502 559.015 1502 561.5 1502 563.985 1498.64 566 1494.5 566 1490.36 566 1487 563.985 1487 561.5Z"/><path fill="#C00000" fill-rule="evenodd" d="M1515 556.5C1515 554.015 1518.13 552 1522 552 1525.87 552 1529 554.015 1529 556.5 1529 558.985 1525.87 561 1522 561 1518.13 561 1515 558.985 1515 556.5Z"/><path fill="#C00000" fill-rule="evenodd" d="M1476 543C1476 540.239 1479.36 538 1483.5 538 1487.64 538 1491 540.239 1491 543 1491 545.761 1487.64 548 1483.5 548 1479.36 548 1476 545.761 1476 543Z"/><path fill="none" fill-rule="evenodd" stroke="#B38F0D" stroke-miterlimit="8" stroke-width="3.125" d="M0 0 678.704 115.91" transform="matrix(0.992915 0.11883 0.11883 -0.992915 983.32 698.091)"/><text fill="#B38F0D" font-family="Cambria Math,Cambria Math_MSFontService,sans-serif" font-size="25" font-weight="400" transform="matrix(0.992915 0.11883 -0.11883 0.992915 1688.77 657)">𝒚<tspan x="21.927" y="-.61">=</tspan> <tspan x="47.916" y="-.699">𝟎</tspan> <tspan x="62.942" y="-.483">.</tspan> <tspan x="71.934" y="-.552">𝟎𝟓𝒙</tspan></text></g></svg>