<svg width="500" height="310" xmlns="http://www.w3.org/2000/svg" xmlns:xlink="http://www.w3.org/1999/xlink"
    overflow="hidden" viewBox="0 0 1070 630" style="backgr ound:orange;width:0%">
    <defs>
        <clipPath id="clip0">
            <path d="M79 12 1149 12 1149 568 79 568Z" fill-rule="evenodd" clip-rule="evenodd" />
        </clipPath>
    </defs>
    <g clip-path="url(#clip0)" transform="translate(-79 -12)">
        <path d="M407 68.0001 407 564.926 402 564.926 402 68.0001ZM397 70.5 404.5 55.5 412 70.5Z" fill="#BFBFBF" />
        <path d="M12.5153-2.43051 1015.86 3.1439 1015.83 8.14383 12.4875 2.56942ZM14.9581 7.58322 0 0 15.0414-7.41655Z"
            fill="#BFBFBF" transform="matrix(-1 -8.74228e-08 -8.74228e-08 1 1098.34 373.5)" />
        <path d="M0 0 955.442 148.417" stroke="#FFE699" stroke-width="3.125" stroke-miterlimit="8" fill="none"
            fill-rule="evenodd" transform="matrix(0.996457 0.0841022 0.0841022 -0.996457 103.089 399.323)" /><text
            fill="#FFE699" font-family="Cambria Math,Cambria Math_MSFontService,sans-serif" font-weight="400"
            font-size="25" transform="matrix(0.996457 0.0841022 -0.0841022 0.996457 1005.73 308)">𝒚<tspan x="22.0127"
                y="0.149216">=</tspan>
            <tspan x="47.9969" y="-0.0367761">𝟎</tspan>
            <tspan x="63.0591" y="0.699071">.</tspan>
            <tspan x="71.9954" y="-0.0551691">𝟎𝟓</tspan>
            <tspan x="102.035" y="0.420078">𝒙</tspan>
        </text>
        <path
            d="M673 91.5C673 87.3579 678.596 84 685.5 84 692.404 84 698 87.3579 698 91.5 698 95.6421 692.404 99 685.5 99 678.596 99 673 95.6421 673 91.5Z"
            fill="#4472C4" fill-rule="evenodd" />
        <path
            d="M557 98.5C557 94.3579 562.82 91 570 91 577.18 91 583 94.3579 583 98.5 583 102.642 577.18 106 570 106 562.82 106 557 102.642 557 98.5Z"
            fill="#4472C4" fill-rule="evenodd" />
        <path
            d="M626 131.5C626 127.358 631.596 124 638.5 124 645.404 124 651 127.358 651 131.5 651 135.642 645.404 139 638.5 139 631.596 139 626 135.642 626 131.5Z"
            fill="#4472C4" fill-rule="evenodd" />
        <path
            d="M531 134.5C531 130.358 536.82 127 544 127 551.18 127 557 130.358 557 134.5 557 138.642 551.18 142 544 142 536.82 142 531 138.642 531 134.5Z"
            fill="#4472C4" fill-rule="evenodd" />
        <path
            d="M675 68.5C675 64.3579 680.82 61 688 61 695.18 61 701 64.3579 701 68.5 701 72.6421 695.18 76 688 76 680.82 76 675 72.6421 675 68.5Z"
            fill="#4472C4" fill-rule="evenodd" />
        <path
            d="M581 113.5C581 109.358 586.82 106 594 106 601.18 106 607 109.358 607 113.5 607 117.642 601.18 121 594 121 586.82 121 581 117.642 581 113.5Z"
            fill="#4472C4" fill-rule="evenodd" />
        <path
            d="M626 86.5C626 82.3579 631.596 79 638.5 79 645.404 79 651 82.3579 651 86.5 651 90.6421 645.404 94 638.5 94 631.596 94 626 90.6421 626 86.5Z"
            fill="#4472C4" fill-rule="evenodd" />
        <path
            d="M564 153.5C564 149.358 569.82 146 577 146 584.18 146 590 149.358 590 153.5 590 157.642 584.18 161 577 161 569.82 161 564 157.642 564 153.5Z"
            fill="#4472C4" fill-rule="evenodd" />
        <path d="M0 0 549.817 470.282" stroke="#FF0000" stroke-width="3.125" stroke-miterlimit="8" fill="none"
            fill-rule="evenodd" transform="matrix(0.825437 0.564495 0.564495 -0.825437 196.901 400.784)" /><text
            fill="#FF0000" font-family="Cambria Math,Cambria Math_MSFontService,sans-serif" font-weight="400"
            font-size="25" transform="translate(848.344 276)">𝒚<tspan x="22" y="0">=</tspan>
            <tspan x="48" y="0">𝟎</tspan>.<tspan x="72" y="0">𝟎𝟗</tspan>𝒙
        </text>
        <path d="M0 0 551.972 493.872" stroke="#00B050" stroke-width="3" stroke-miterlimit="8" fill="none"
            fill-rule="evenodd" transform="matrix(1 0 0 -1 195.5 564.372)" /><text fill="#00B050"
            font-family="Cambria Math,Cambria Math_MSFontService,sans-serif" font-weight="400" font-size="25"
            transform="matrix(0.985405 -0.170227 0.170227 0.985405 764.188 66)">𝒚<tspan x="22.0434" y="-0.251287">=
            </tspan>
            <tspan x="48.1411" y="-0.817002">𝒙</tspan>
        </text>
        <path
            d="M673 176C673 171.582 678.596 168 685.5 168 692.404 168 698 171.582 698 176 698 180.418 692.404 184 685.5 184 678.596 184 673 180.418 673 176Z"
            fill="#C00000" fill-rule="evenodd" />
        <path
            d="M705 173.5C705 169.358 710.82 166 718 166 725.18 166 731 169.358 731 173.5 731 177.642 725.18 181 718 181 710.82 181 705 177.642 705 173.5Z"
            fill="#C00000" fill-rule="evenodd" />
        <path
            d="M698 141.5C698 137.358 703.82 134 711 134 718.18 134 724 137.358 724 141.5 724 145.642 718.18 149 711 149 703.82 149 698 145.642 698 141.5Z"
            fill="#C00000" fill-rule="evenodd" />
        <path
            d="M825 144.5C825 140.358 830.82 137 838 137 845.18 137 851 140.358 851 144.5 851 148.642 845.18 152 838 152 830.82 152 825 148.642 825 144.5Z"
            fill="#C00000" fill-rule="evenodd" />
        <path
            d="M741 113.5C741 109.358 746.596 106 753.5 106 760.404 106 766 109.358 766 113.5 766 117.642 760.404 121 753.5 121 746.596 121 741 117.642 741 113.5Z"
            fill="#C00000" fill-rule="evenodd" />
        <path
            d="M743 141.5C743 137.358 748.82 134 756 134 763.18 134 769 137.358 769 141.5 769 145.642 763.18 149 756 149 748.82 149 743 145.642 743 141.5Z"
            fill="#C00000" fill-rule="evenodd" />
        <path
            d="M797 163.5C797 159.358 802.82 156 810 156 817.18 156 823 159.358 823 163.5 823 167.642 817.18 171 810 171 802.82 171 797 167.642 797 163.5Z"
            fill="#C00000" fill-rule="evenodd" />
    </g>
</svg>