<svg 
    width="550" 
    height="310" 
    xmlns="http://www.w3.org/2000/svg" 
    xmlns:xlink="http://www.w3.org/1999/xlink" 
    overflow="hidden"
    viewBox="0 0 1070 630"
    style="background:ora nge;width:0%"
    ><defs><clipPath id="clip0"><path d="M911 436 2022 436 2022 1044 911 1044Z" fill-rule="evenodd" clip-rule="evenodd"/></clipPath></defs><g clip-path="url(#clip0)" transform="translate(-911 -436)"><path d="M0 0 485.543 461.529" stroke="#FF0000" stroke-width="3.125" stroke-miterlimit="8" fill="none" fill-rule="evenodd" transform="matrix(0.961492 -0.274834 -0.274834 -0.961492 1132.83 1041.8)"/><path d="M1493.88 459.998C1494.71 459.998 1495.37 460.118 1495.88 460.36 1496.39 460.602 1496.8 460.935 1497.1 461.359 1497.4 461.784 1497.64 462.323 1497.83 462.979 1497.98 463.494 1498.15 464.402 1498.36 465.702 1498.69 467.818 1498.98 469.897 1499.21 471.938 1500.4 470.23 1501.32 468.565 1501.96 466.942 1502.6 465.32 1502.92 463.87 1502.92 462.592 1502.92 462.184 1502.82 461.875 1502.63 461.665 1502.43 461.456 1502.1 461.34 1501.61 461.319L1501.84 460.255 1506.38 460.255 1506.95 461.319C1506.73 462.06 1506.4 462.957 1505.95 464.01 1505.28 465.557 1504.38 467.292 1503.26 469.214 1502.24 470.944 1501.12 472.673 1499.92 474.403 1498.51 476.422 1497.29 478.053 1496.25 479.293 1495.21 480.534 1494.3 481.45 1493.54 482.041 1492.94 482.492 1492.36 482.811 1491.82 482.999 1491.27 483.187 1490.69 483.281 1490.08 483.281 1489.28 483.281 1488.53 483.163 1487.82 482.927L1488.63 479.285 1490.32 479.285C1490.33 479.736 1490.4 480.069 1490.52 480.284 1490.64 480.499 1490.87 480.607 1491.19 480.607 1491.45 480.607 1491.69 480.561 1491.91 480.47 1492.14 480.378 1492.42 480.198 1492.77 479.93 1493.11 479.661 1493.54 479.223 1494.06 478.617 1494.58 478.01 1495.17 477.276 1495.83 476.417 1495.61 475.107 1495.34 473.562 1495 471.785 1494.66 470.007 1494.33 468.39 1494.01 466.934 1493.69 465.479 1493.45 464.493 1493.3 463.978 1493.15 463.462 1493 463.094 1492.86 462.874 1492.72 462.654 1492.59 462.509 1492.48 462.439 1492.36 462.369 1492.23 462.334 1492.11 462.334 1491.84 462.334 1491.59 462.444 1491.36 462.664 1491.14 462.885 1490.84 463.349 1490.48 464.058L1489.01 463.381C1489.64 462.254 1490.34 461.408 1491.14 460.844 1491.93 460.28 1492.85 459.998 1493.88 459.998Z" fill="#FF0000" fill-rule="evenodd"/><text fill="#000000" fill-opacity="0" font-family="Arial,Arial_MSFontService,sans-serif" font-size="23.2837" x="1487.82" y="480.371">𝒚</text><path d="M1519.11 469.086 1538.96 469.086 1538.96 471.229 1519.11 471.229ZM1519.11 462.399 1538.96 462.399 1538.96 464.542 1519.11 464.542Z" fill="#FF0000" fill-rule="evenodd"/><text fill="#000000" fill-opacity="0" font-family="Arial,Arial_MSFontService,sans-serif" font-size="8.83008" x="1519.11" y="470.125">=</text><path d="M1578.14 459.998C1578.99 459.998 1579.65 460.127 1580.1 460.384 1580.55 460.642 1580.92 461.091 1581.21 461.73 1581.5 462.369 1581.78 463.392 1582.03 464.799L1582.2 464.799C1582.99 463.682 1583.61 462.842 1584.05 462.278 1584.49 461.714 1584.9 461.263 1585.27 460.924 1585.65 460.586 1586.01 460.347 1586.37 460.207 1586.72 460.067 1587.14 459.998 1587.63 459.998 1588.16 459.998 1588.71 460.094 1589.25 460.288L1588.5 463.768 1587.05 463.768C1586.99 463.317 1586.79 463.091 1586.45 463.091 1586.3 463.091 1586.14 463.129 1585.97 463.204 1585.81 463.279 1585.59 463.449 1585.31 463.712 1585.04 463.975 1584.7 464.356 1584.29 464.856 1583.88 465.355 1583.27 466.115 1582.45 467.136 1582.83 469.402 1583.14 471.027 1583.38 472.01 1583.62 472.993 1583.87 473.629 1584.13 473.92 1584.28 474.081 1584.46 474.161 1584.68 474.161 1584.95 474.161 1585.2 474.056 1585.43 473.847 1585.66 473.638 1585.96 473.168 1586.32 472.437L1587.79 473.114C1587.16 474.253 1586.46 475.101 1585.67 475.66 1584.88 476.218 1583.95 476.498 1582.89 476.498 1582.23 476.498 1581.71 476.414 1581.32 476.248 1580.93 476.081 1580.59 475.805 1580.32 475.418 1580.04 475.031 1579.8 474.486 1579.59 473.783 1579.38 473.079 1579.19 472.158 1579.01 471.019L1578.84 471.019C1577.93 472.33 1577.2 473.329 1576.65 474.016 1576.11 474.704 1575.64 475.219 1575.24 475.563 1574.85 475.907 1574.47 476.149 1574.12 476.288 1573.76 476.428 1573.32 476.498 1572.82 476.498 1572.58 476.498 1572.29 476.468 1571.96 476.409 1571.62 476.35 1571.36 476.288 1571.19 476.224L1571.95 472.727 1573.4 472.727C1573.41 472.953 1573.47 473.122 1573.57 473.235 1573.67 473.348 1573.8 473.404 1573.96 473.404 1574.16 473.404 1574.34 473.364 1574.5 473.283 1574.67 473.202 1574.9 473.023 1575.19 472.743 1575.49 472.464 1575.86 472.053 1576.31 471.511 1576.77 470.968 1577.53 470.015 1578.6 468.65 1578.38 467.383 1578.16 466.29 1577.97 465.371 1577.77 464.453 1577.59 463.787 1577.43 463.373 1577.27 462.96 1577.11 462.683 1576.97 462.544 1576.82 462.404 1576.66 462.334 1576.48 462.334 1576.26 462.334 1576.07 462.39 1575.91 462.503 1575.75 462.616 1575.58 462.799 1575.4 463.051 1575.23 463.304 1575.04 463.639 1574.83 464.058L1573.37 463.381C1573.99 462.243 1574.69 461.394 1575.47 460.836 1576.25 460.277 1577.14 459.998 1578.14 459.998ZM1560.5 453.987C1562.08 453.987 1563.37 454.2 1564.37 454.624 1565.37 455.048 1566.09 455.623 1566.54 456.348 1566.98 457.073 1567.21 457.919 1567.21 458.886 1567.21 459.734 1567.05 460.524 1566.73 461.254 1566.41 461.985 1565.87 462.817 1565.09 463.752 1564.31 464.687 1563 466.024 1561.15 467.764 1560.58 468.301 1559.9 469.008 1559.11 469.883 1558.32 470.759 1557.69 471.508 1557.23 472.131L1557.23 472.292 1562.95 472.292C1563.65 472.292 1564.17 472.241 1564.52 472.139 1564.86 472.037 1565.13 471.86 1565.33 471.607 1565.53 471.355 1565.69 470.976 1565.82 470.471L1567.67 470.471 1567.3 476.24 1552.54 476.24 1552.54 475.176C1553.37 473.275 1555.06 470.826 1557.62 467.829 1558.78 466.464 1559.66 465.342 1560.27 464.461 1560.88 463.58 1561.33 462.748 1561.63 461.963 1561.93 461.179 1562.08 460.368 1562.08 459.53 1562.08 458.349 1561.82 457.422 1561.29 456.751 1560.77 456.079 1560.05 455.744 1559.13 455.744 1557.38 455.744 1556.26 457.006 1555.77 459.53L1552.87 459.53 1552.87 455.728C1554.62 455.019 1556.03 454.551 1557.1 454.326 1558.18 454.1 1559.31 453.987 1560.5 453.987Z" fill="#FF0000" fill-rule="evenodd"/><text fill="#000000" fill-opacity="0" font-family="Arial,Arial_MSFontService,sans-serif" font-size="22.5103" x="1552.54" y="473.684">𝟐𝒙</text><path d="M1262 527 1262 1014.44 1257 1014.44 1257 527ZM1252 529.5 1259.5 514.5 1267 529.5Z" fill="#181717"/><path d="M1859.16 829 914.5 829 914.5 824 1859.16 824ZM1856.65 819 1871.65 826.5 1856.65 834Z" fill="#181717"/><path d="M0 0 843.749 145.655" stroke="#0070C0" stroke-width="3.125" stroke-miterlimit="8" fill="none" fill-rule="evenodd" transform="matrix(0.997079 0.0763814 0.0763814 -0.997079 1003.47 849.866)"/><text fill="#0070C0" font-family="Cambria Math,Cambria Math_MSFontService,sans-serif" font-weight="400" font-size="29" transform="translate(1854.09 748)">𝒚<tspan x="26" y="0">=</tspan><tspan x="56" y="0">𝟎</tspan>.<tspan x="84" y="0">𝟏</tspan>𝒙</text><path d="M1496 550.5C1496 546.358 1501.15 543 1507.5 543 1513.85 543 1519 546.358 1519 550.5 1519 554.642 1513.85 558 1507.5 558 1501.15 558 1496 554.642 1496 550.5Z" fill="#4472C4" fill-rule="evenodd"/><path d="M1394 557C1394 553.134 1399.15 550 1405.5 550 1411.85 550 1417 553.134 1417 557 1417 560.866 1411.85 564 1405.5 564 1399.15 564 1394 560.866 1394 557Z" fill="#4472C4" fill-rule="evenodd"/><path d="M1454 589.5C1454 585.358 1459.15 582 1465.5 582 1471.85 582 1477 585.358 1477 589.5 1477 593.642 1471.85 597 1465.5 597 1459.15 597 1454 593.642 1454 589.5Z" fill="#4472C4" fill-rule="evenodd"/><path d="M1371 592.5C1371 588.358 1376.15 585 1382.5 585 1388.85 585 1394 588.358 1394 592.5 1394 596.642 1388.85 600 1382.5 600 1376.15 600 1371 596.642 1371 592.5Z" fill="#4472C4" fill-rule="evenodd"/><path d="M1498 527.5C1498 523.358 1503.15 520 1509.5 520 1515.85 520 1521 523.358 1521 527.5 1521 531.642 1515.85 535 1509.5 535 1503.15 535 1498 531.642 1498 527.5Z" fill="#4472C4" fill-rule="evenodd"/><path d="M1415 571.5C1415 567.358 1420.15 564 1426.5 564 1432.85 564 1438 567.358 1438 571.5 1438 575.642 1432.85 579 1426.5 579 1420.15 579 1415 575.642 1415 571.5Z" fill="#4472C4" fill-rule="evenodd"/><path d="M1454 544.5C1454 540.358 1459.15 537 1465.5 537 1471.85 537 1477 540.358 1477 544.5 1477 548.642 1471.85 552 1465.5 552 1459.15 552 1454 548.642 1454 544.5Z" fill="#4472C4" fill-rule="evenodd"/><path d="M1401 611.5C1401 607.358 1405.92 604 1412 604 1418.08 604 1423 607.358 1423 611.5 1423 615.642 1418.08 619 1412 619 1405.92 619 1401 615.642 1401 611.5Z" fill="#4472C4" fill-rule="evenodd"/><path d="M0 0 680.331 413.682" stroke="#00B050" stroke-width="3.125" stroke-miterlimit="8" fill="none" fill-rule="evenodd" transform="matrix(0.998707 -0.050828 -0.050828 -0.998707 1049.14 971.234)"/><path d="M1730.21 521.469C1731.04 521.469 1731.71 521.59 1732.22 521.831 1732.73 522.073 1733.14 522.406 1733.44 522.831 1733.74 523.255 1733.98 523.795 1734.16 524.45 1734.31 524.966 1734.49 525.873 1734.69 527.173 1735.03 529.289 1735.31 531.368 1735.55 533.409 1736.74 531.701 1737.66 530.036 1738.3 528.414 1738.93 526.792 1739.25 525.341 1739.25 524.063 1739.25 523.655 1739.16 523.346 1738.96 523.137 1738.77 522.927 1738.43 522.812 1737.95 522.79L1738.17 521.727 1742.72 521.727 1743.28 522.79C1743.07 523.531 1742.73 524.428 1742.28 525.481 1741.62 527.028 1740.72 528.763 1739.59 530.686 1738.57 532.415 1737.46 534.145 1736.26 535.874 1734.85 537.894 1733.62 539.524 1732.58 540.765 1731.54 542.005 1730.64 542.921 1729.88 543.512 1729.27 543.963 1728.7 544.283 1728.15 544.471 1727.6 544.659 1727.02 544.753 1726.41 544.753 1725.62 544.753 1724.86 544.634 1724.16 544.398L1724.96 540.757 1726.65 540.757C1726.66 541.208 1726.73 541.541 1726.85 541.756 1726.98 541.97 1727.2 542.078 1727.52 542.078 1727.78 542.078 1728.02 542.032 1728.25 541.941 1728.47 541.85 1728.76 541.67 1729.1 541.401 1729.45 541.133 1729.88 540.695 1730.4 540.088 1730.92 539.481 1731.51 538.748 1732.16 537.888 1731.95 536.578 1731.67 535.034 1731.33 533.256 1731 531.478 1730.67 529.861 1730.34 528.406 1730.02 526.95 1729.78 525.965 1729.63 525.449 1729.48 524.933 1729.34 524.565 1729.2 524.345 1729.06 524.125 1728.93 523.98 1728.81 523.91 1728.69 523.84 1728.57 523.805 1728.44 523.805 1728.17 523.805 1727.93 523.915 1727.7 524.136 1727.47 524.356 1727.18 524.82 1726.81 525.529L1725.35 524.853C1725.97 523.725 1726.68 522.879 1727.47 522.315 1728.27 521.751 1729.18 521.469 1730.21 521.469Z" fill="#00B050" fill-rule="evenodd"/><text fill="#000000" fill-opacity="0" font-family="Arial,Arial_MSFontService,sans-serif" font-size="23.2837" x="1724.16" y="541.842">𝒚</text><path d="M1755.44 530.557 1775.3 530.557 1775.3 532.7 1755.44 532.7ZM1755.44 523.87 1775.3 523.87 1775.3 526.013 1755.44 526.013Z" fill="#00B050" fill-rule="evenodd"/><text fill="#000000" fill-opacity="0" font-family="Arial,Arial_MSFontService,sans-serif" font-size="8.83008" x="1755.44" y="531.596">=</text><path d="M1796.9 517.263C1796.14 517.263 1795.54 517.599 1795.1 518.27 1794.66 518.942 1794.34 519.941 1794.15 521.268 1793.96 522.594 1793.86 524.321 1793.86 526.448 1793.86 528.811 1793.96 530.691 1794.17 532.088 1794.38 533.484 1794.71 534.513 1795.16 535.173 1795.62 535.834 1796.22 536.164 1796.97 536.164 1797.38 536.164 1797.73 536.065 1798.04 535.866 1798.35 535.667 1798.62 535.356 1798.86 534.932 1799.1 534.507 1799.31 533.943 1799.48 533.24 1799.65 532.536 1799.78 531.661 1799.85 530.613 1799.93 529.566 1799.97 528.398 1799.97 527.109 1799.97 525.186 1799.89 523.569 1799.75 522.258 1799.6 520.948 1799.4 519.938 1799.13 519.229 1798.86 518.52 1798.54 518.015 1798.18 517.715 1797.81 517.414 1797.39 517.263 1796.9 517.263ZM1797 515.459C1799.64 515.459 1801.61 516.358 1802.91 518.158 1804.21 519.957 1804.86 522.71 1804.86 526.416 1804.86 530.218 1804.17 533.095 1802.79 535.044 1801.41 536.994 1799.39 537.969 1796.71 537.969 1794.07 537.969 1792.12 537.053 1790.85 535.222 1789.59 533.39 1788.96 530.621 1788.96 526.915 1788.96 523.198 1789.66 520.36 1791.07 518.399 1792.48 516.439 1794.45 515.459 1797 515.459Z" fill="#00B050" fill-rule="evenodd"/><text fill="#000000" fill-opacity="0" font-family="Arial,Arial_MSFontService,sans-serif" font-size="22.5103" x="1788.96" y="535.155">𝟎</text><path d="M1808.8 533.973 1812.05 533.973 1812.05 537.711 1808.8 537.711Z" fill="#00B050" fill-rule="evenodd"/><text fill="#000000" fill-opacity="0" font-family="Arial,Arial_MSFontService,sans-serif" font-size="3.73828" x="1808.8" y="537.244">.</text><path d="M1847.47 521.469C1848.33 521.469 1848.99 521.598 1849.44 521.856 1849.89 522.113 1850.26 522.562 1850.55 523.201 1850.84 523.84 1851.11 524.863 1851.37 526.271L1851.53 526.271C1852.33 525.154 1852.94 524.313 1853.38 523.749 1853.83 523.185 1854.23 522.734 1854.61 522.395 1854.99 522.057 1855.35 521.818 1855.7 521.678 1856.06 521.539 1856.48 521.469 1856.96 521.469 1857.5 521.469 1858.04 521.566 1858.59 521.759L1857.83 525.239 1856.38 525.239C1856.33 524.788 1856.13 524.563 1855.79 524.563 1855.64 524.563 1855.48 524.6 1855.31 524.675 1855.14 524.751 1854.92 524.92 1854.65 525.183 1854.38 525.446 1854.03 525.828 1853.63 526.327 1853.22 526.827 1852.61 527.587 1851.79 528.607 1852.17 530.874 1852.47 532.498 1852.72 533.481 1852.96 534.464 1853.21 535.101 1853.47 535.391 1853.62 535.552 1853.8 535.633 1854.01 535.633 1854.28 535.633 1854.53 535.528 1854.76 535.318 1854.99 535.109 1855.29 534.639 1855.66 533.908L1857.12 534.585C1856.5 535.724 1855.79 536.572 1855 537.131 1854.21 537.69 1853.29 537.969 1852.22 537.969 1851.57 537.969 1851.05 537.886 1850.65 537.719 1850.26 537.553 1849.93 537.276 1849.65 536.889 1849.38 536.503 1849.14 535.957 1848.93 535.254 1848.72 534.55 1848.52 533.629 1848.34 532.49L1848.18 532.49C1847.27 533.801 1846.54 534.8 1845.99 535.487 1845.44 536.175 1844.97 536.691 1844.58 537.034 1844.19 537.378 1843.81 537.62 1843.45 537.759 1843.09 537.899 1842.66 537.969 1842.15 537.969 1841.92 537.969 1841.63 537.939 1841.29 537.88 1840.95 537.821 1840.7 537.759 1840.53 537.695L1841.28 534.198 1842.73 534.198C1842.74 534.424 1842.8 534.593 1842.9 534.706 1843.01 534.819 1843.14 534.875 1843.3 534.875 1843.49 534.875 1843.67 534.835 1843.84 534.754 1844 534.674 1844.23 534.494 1844.53 534.215 1844.83 533.935 1845.2 533.524 1845.65 532.982 1846.1 532.439 1846.86 531.486 1847.94 530.122 1847.71 528.854 1847.5 527.761 1847.3 526.843 1847.1 525.924 1846.92 525.258 1846.76 524.845 1846.6 524.431 1846.45 524.154 1846.3 524.015 1846.16 523.875 1845.99 523.805 1845.81 523.805 1845.6 523.805 1845.41 523.862 1845.25 523.975 1845.09 524.087 1844.92 524.27 1844.74 524.522 1844.56 524.775 1844.37 525.111 1844.17 525.529L1842.7 524.853C1843.32 523.714 1844.03 522.865 1844.8 522.307 1845.58 521.748 1846.47 521.469 1847.47 521.469ZM1834.85 514.653 1836.62 514.653 1836.3 519.793 1826.41 519.793 1826.41 525.594C1827.05 525.401 1827.71 525.258 1828.38 525.167 1829.05 525.076 1829.88 525.03 1830.85 525.03 1832.19 525.03 1833.36 525.277 1834.36 525.771 1835.36 526.265 1836.14 526.982 1836.7 527.922 1837.25 528.862 1837.53 529.966 1837.53 531.234 1837.53 533.414 1836.8 535.082 1835.36 536.237 1833.91 537.392 1831.84 537.969 1829.13 537.969 1828 537.969 1826.85 537.856 1825.68 537.631 1824.51 537.405 1823.51 537.099 1822.67 536.712L1822.67 532.684 1825.59 532.684C1825.85 533.855 1826.28 534.727 1826.87 535.302 1827.47 535.877 1828.23 536.164 1829.16 536.164 1830.33 536.164 1831.2 535.802 1831.76 535.077 1832.32 534.352 1832.6 533.232 1832.6 531.717 1832.6 530.224 1832.24 529.085 1831.52 528.301 1830.8 527.517 1829.75 527.125 1828.39 527.125 1827.86 527.125 1827.3 527.173 1826.69 527.27 1826.08 527.366 1825.54 527.485 1825.07 527.624L1823.62 526.722 1823.62 515.716 1833.14 515.716C1833.71 515.716 1834.1 515.647 1834.3 515.507 1834.49 515.367 1834.68 515.083 1834.85 514.653Z" fill="#00B050" fill-rule="evenodd"/><text fill="#000000" fill-opacity="0" font-family="Arial,Arial_MSFontService,sans-serif" font-size="23.3159" x="1822.67" y="535.054">𝟓𝒙</text><path d="M1496 632.5C1496 628.358 1501.15 625 1507.5 625 1513.85 625 1519 628.358 1519 632.5 1519 636.642 1513.85 640 1507.5 640 1501.15 640 1496 636.642 1496 632.5Z" fill="#C00000" fill-rule="evenodd"/><path d="M1525 630.5C1525 626.358 1530.15 623 1536.5 623 1542.85 623 1548 626.358 1548 630.5 1548 634.642 1542.85 638 1536.5 638 1530.15 638 1525 634.642 1525 630.5Z" fill="#C00000" fill-rule="evenodd"/><path d="M1519 599C1519 595.134 1524.15 592 1530.5 592 1536.85 592 1542 595.134 1542 599 1542 602.866 1536.85 606 1530.5 606 1524.15 606 1519 602.866 1519 599Z" fill="#C00000" fill-rule="evenodd"/><path d="M1631 601.5C1631 597.358 1636.15 594 1642.5 594 1648.85 594 1654 597.358 1654 601.5 1654 605.642 1648.85 609 1642.5 609 1636.15 609 1631 605.642 1631 601.5Z" fill="#C00000" fill-rule="evenodd"/><path d="M1556 571.5C1556 567.358 1561.15 564 1567.5 564 1573.85 564 1579 567.358 1579 571.5 1579 575.642 1573.85 579 1567.5 579 1561.15 579 1556 575.642 1556 571.5Z" fill="#C00000" fill-rule="evenodd"/><path d="M1558 599C1558 595.134 1563.15 592 1569.5 592 1575.85 592 1581 595.134 1581 599 1581 602.866 1575.85 606 1569.5 606 1563.15 606 1558 602.866 1558 599Z" fill="#C00000" fill-rule="evenodd"/><path d="M1606 620.5C1606 616.358 1611.15 613 1617.5 613 1623.85 613 1629 616.358 1629 620.5 1629 624.642 1623.85 628 1617.5 628 1611.15 628 1606 624.642 1606 620.5Z" fill="#C00000" fill-rule="evenodd"/></g></svg>