<svg 
    width="550" 
    height="310" 
    xmlns="http://www.w3.org/2000/svg" 
    xmlns:xlink="http://www.w3.org/1999/xlink" 
    overflow="hidden"
    viewBox="0 0 1070 630"
    style="background:ora nge;width:0%"
    ><defs><clipPath id="clip0"><path d="M449 77 1560 77 1560 685 449 685Z" fill-rule="evenodd" clip-rule="evenodd"/></clipPath></defs><g clip-path="url(#clip0)" transform="translate(-449 -77)"><path d="M0 0 485.543 461.529" stroke="#FF0000" stroke-width="3.125" stroke-miterlimit="8" fill="none" fill-rule="evenodd" transform="matrix(0.961492 -0.274834 -0.274834 -0.961492 670.532 683.509)"/><path d="M1031.58 101.705C1032.41 101.705 1033.07 101.826 1033.58 102.067 1034.1 102.309 1034.5 102.642 1034.8 103.066 1035.1 103.491 1035.34 104.03 1035.53 104.686 1035.68 105.201 1035.85 106.109 1036.06 107.409 1036.39 109.525 1036.68 111.604 1036.91 113.645 1038.1 111.937 1039.02 110.272 1039.66 108.649 1040.3 107.027 1040.62 105.577 1040.62 104.299 1040.62 103.891 1040.52 103.582 1040.33 103.372 1040.13 103.163 1039.8 103.047 1039.31 103.026L1039.54 101.962 1044.08 101.962 1044.65 103.026C1044.43 103.767 1044.1 104.664 1043.65 105.717 1042.98 107.264 1042.08 108.999 1040.96 110.921 1039.94 112.651 1038.82 114.38 1037.62 116.11 1036.21 118.129 1034.99 119.76 1033.95 121 1032.91 122.241 1032 123.157 1031.24 123.748 1030.64 124.199 1030.06 124.518 1029.52 124.706 1028.97 124.894 1028.39 124.988 1027.78 124.988 1026.98 124.988 1026.23 124.87 1025.52 124.634L1026.33 120.992 1028.02 120.992C1028.03 121.443 1028.1 121.776 1028.22 121.991 1028.34 122.206 1028.57 122.314 1028.89 122.314 1029.15 122.314 1029.39 122.268 1029.61 122.177 1029.84 122.085 1030.12 121.905 1030.47 121.637 1030.81 121.368 1031.24 120.93 1031.76 120.324 1032.29 119.717 1032.87 118.983 1033.53 118.124 1033.31 116.814 1033.04 115.269 1032.7 113.492 1032.36 111.714 1032.03 110.097 1031.71 108.641 1031.39 107.186 1031.15 106.2 1031 105.685 1030.85 105.169 1030.7 104.801 1030.56 104.581 1030.42 104.361 1030.3 104.216 1030.18 104.146 1030.06 104.076 1029.94 104.041 1029.81 104.041 1029.54 104.041 1029.29 104.151 1029.07 104.371 1028.84 104.592 1028.54 105.056 1028.18 105.765L1026.71 105.088C1027.34 103.961 1028.04 103.115 1028.84 102.551 1029.63 101.987 1030.55 101.705 1031.58 101.705Z" fill="#FF0000" fill-rule="evenodd"/><text fill="#000000" fill-opacity="0" font-family="Arial,Arial_MSFontService,sans-serif" font-size="23.2837" x="1025.52" y="122.078">𝒚</text><path d="M1056.81 110.793 1076.66 110.793 1076.66 112.936 1056.81 112.936ZM1056.81 104.106 1076.66 104.106 1076.66 106.249 1056.81 106.249Z" fill="#FF0000" fill-rule="evenodd"/><text fill="#000000" fill-opacity="0" font-family="Arial,Arial_MSFontService,sans-serif" font-size="8.83008" x="1056.81" y="111.832">=</text><path d="M1115.84 101.705C1116.69 101.705 1117.35 101.834 1117.8 102.091 1118.25 102.349 1118.62 102.798 1118.91 103.437 1119.2 104.076 1119.48 105.099 1119.73 106.506L1119.9 106.506C1120.69 105.389 1121.31 104.549 1121.75 103.985 1122.19 103.421 1122.6 102.97 1122.97 102.631 1123.35 102.293 1123.71 102.054 1124.07 101.914 1124.42 101.774 1124.84 101.705 1125.33 101.705 1125.86 101.705 1126.41 101.801 1126.95 101.995L1126.2 105.475 1124.75 105.475C1124.69 105.024 1124.49 104.798 1124.15 104.798 1124 104.798 1123.84 104.836 1123.67 104.911 1123.51 104.986 1123.29 105.156 1123.01 105.419 1122.74 105.682 1122.4 106.063 1121.99 106.563 1121.58 107.062 1120.97 107.822 1120.15 108.843 1120.53 111.109 1120.84 112.734 1121.08 113.717 1121.32 114.7 1121.57 115.337 1121.83 115.627 1121.98 115.788 1122.16 115.868 1122.38 115.868 1122.65 115.868 1122.9 115.764 1123.13 115.554 1123.36 115.345 1123.66 114.875 1124.02 114.144L1125.49 114.821C1124.86 115.96 1124.16 116.808 1123.37 117.367 1122.58 117.925 1121.65 118.205 1120.59 118.205 1119.93 118.205 1119.41 118.121 1119.02 117.955 1118.63 117.788 1118.29 117.512 1118.02 117.125 1117.74 116.738 1117.5 116.193 1117.29 115.49 1117.08 114.786 1116.89 113.865 1116.71 112.726L1116.54 112.726C1115.63 114.037 1114.9 115.036 1114.35 115.723 1113.81 116.411 1113.34 116.926 1112.94 117.27 1112.55 117.614 1112.18 117.856 1111.82 117.995 1111.46 118.135 1111.02 118.205 1110.52 118.205 1110.28 118.205 1109.99 118.175 1109.66 118.116 1109.32 118.057 1109.06 117.995 1108.89 117.931L1109.65 114.434 1111.1 114.434C1111.11 114.66 1111.17 114.829 1111.27 114.942 1111.37 115.055 1111.5 115.111 1111.66 115.111 1111.86 115.111 1112.04 115.071 1112.2 114.99 1112.37 114.91 1112.6 114.73 1112.89 114.45 1113.19 114.171 1113.56 113.76 1114.01 113.218 1114.47 112.675 1115.23 111.722 1116.3 110.357 1116.08 109.09 1115.87 107.997 1115.67 107.078 1115.47 106.16 1115.29 105.494 1115.13 105.08 1114.97 104.667 1114.81 104.39 1114.67 104.251 1114.52 104.111 1114.36 104.041 1114.18 104.041 1113.96 104.041 1113.77 104.097 1113.61 104.21 1113.45 104.323 1113.28 104.506 1113.1 104.758 1112.93 105.011 1112.74 105.346 1112.53 105.765L1111.07 105.088C1111.69 103.95 1112.39 103.101 1113.17 102.543 1113.95 101.984 1114.84 101.705 1115.84 101.705ZM1098.2 95.6944C1099.78 95.6944 1101.07 95.9066 1102.07 96.3309 1103.07 96.7552 1103.79 97.3299 1104.24 98.055 1104.68 98.7801 1104.91 99.6261 1104.91 100.593 1104.91 101.441 1104.75 102.231 1104.43 102.962 1104.12 103.692 1103.57 104.524 1102.79 105.459 1102.01 106.394 1100.7 107.731 1098.85 109.471 1098.28 110.008 1097.6 110.715 1096.81 111.59 1096.02 112.466 1095.4 113.215 1094.93 113.838L1094.93 113.999 1100.65 113.999C1101.35 113.999 1101.87 113.948 1102.22 113.846 1102.56 113.744 1102.83 113.567 1103.03 113.314 1103.23 113.062 1103.39 112.683 1103.52 112.178L1105.37 112.178 1105 117.947 1090.24 117.947 1090.24 116.883C1091.07 114.982 1092.76 112.533 1095.32 109.536 1096.48 108.171 1097.36 107.049 1097.97 106.168 1098.58 105.287 1099.03 104.455 1099.33 103.67 1099.63 102.886 1099.78 102.075 1099.78 101.237 1099.78 100.056 1099.52 99.1292 1098.99 98.4578 1098.47 97.7865 1097.75 97.4508 1096.83 97.4508 1095.08 97.4508 1093.96 98.713 1093.47 101.237L1090.57 101.237 1090.57 97.4346C1092.32 96.7257 1093.73 96.2584 1094.8 96.0328 1095.88 95.8072 1097.01 95.6944 1098.2 95.6944Z" fill="#FF0000" fill-rule="evenodd"/><text fill="#000000" fill-opacity="0" font-family="Arial,Arial_MSFontService,sans-serif" font-size="22.5103" x="1090.24" y="115.391">𝟐𝒙</text><path d="M799 169 799 656.445 794 656.445 794 169ZM789 171.5 796.5 156.5 804 171.5Z" fill="#BFBFBF"/><path d="M1397.16 471 452.5 471 452.5 466 1397.16 466ZM1394.65 461 1409.65 468.5 1394.65 476Z" fill="#BFBFBF"/><path d="M0 0 843.749 145.655" stroke="#FFD966" stroke-width="3.125" stroke-miterlimit="8" fill="none" fill-rule="evenodd" transform="matrix(0.997079 0.0763814 0.0763814 -0.997079 541.17 491.573)"/><text fill="#FFD966" font-family="Cambria Math,Cambria Math_MSFontService,sans-serif" font-weight="400" font-size="29" transform="translate(1391.79 390)">𝒚<tspan x="26" y="0">=</tspan><tspan x="56" y="0">𝟎</tspan>.<tspan x="84" y="0">𝟏</tspan>𝒙</text><path d="M1034 192C1034 188.134 1039.15 185 1045.5 185 1051.85 185 1057 188.134 1057 192 1057 195.866 1051.85 199 1045.5 199 1039.15 199 1034 195.866 1034 192Z" fill="#4472C4" fill-rule="evenodd"/><path d="M932 198.5C932 194.358 937.149 191 943.5 191 949.851 191 955 194.358 955 198.5 955 202.642 949.851 206 943.5 206 937.149 206 932 202.642 932 198.5Z" fill="#4472C4" fill-rule="evenodd"/><path d="M992 231.5C992 227.358 997.149 224 1003.5 224 1009.85 224 1015 227.358 1015 231.5 1015 235.642 1009.85 239 1003.5 239 997.149 239 992 235.642 992 231.5Z" fill="#4472C4" fill-rule="evenodd"/><path d="M909 234C909 230.134 914.149 227 920.5 227 926.851 227 932 230.134 932 234 932 237.866 926.851 241 920.5 241 914.149 241 909 237.866 909 234Z" fill="#4472C4" fill-rule="evenodd"/><path d="M1036 168.5C1036 164.358 1041.15 161 1047.5 161 1053.85 161 1059 164.358 1059 168.5 1059 172.642 1053.85 176 1047.5 176 1041.15 176 1036 172.642 1036 168.5Z" fill="#4472C4" fill-rule="evenodd"/><path d="M953 213.5C953 209.358 957.925 206 964 206 970.075 206 975 209.358 975 213.5 975 217.642 970.075 221 964 221 957.925 221 953 217.642 953 213.5Z" fill="#4472C4" fill-rule="evenodd"/><path d="M992 186.5C992 182.358 997.149 179 1003.5 179 1009.85 179 1015 182.358 1015 186.5 1015 190.642 1009.85 194 1003.5 194 997.149 194 992 190.642 992 186.5Z" fill="#4472C4" fill-rule="evenodd"/><path d="M938 252.5C938 248.358 943.149 245 949.5 245 955.851 245 961 248.358 961 252.5 961 256.642 955.851 260 949.5 260 943.149 260 938 256.642 938 252.5Z" fill="#4472C4" fill-rule="evenodd"/><path d="M0 0 680.331 413.682" stroke="#00B050" stroke-width="3.125" stroke-miterlimit="8" fill="none" fill-rule="evenodd" transform="matrix(0.998707 -0.050828 -0.050828 -0.998707 586.838 612.942)"/><path d="M1267.91 163.176C1268.74 163.176 1269.41 163.297 1269.92 163.538 1270.43 163.78 1270.84 164.113 1271.14 164.538 1271.44 164.962 1271.68 165.502 1271.86 166.157 1272.01 166.673 1272.19 167.58 1272.39 168.88 1272.73 170.996 1273.01 173.075 1273.25 175.116 1274.44 173.408 1275.36 171.743 1276 170.121 1276.63 168.499 1276.95 167.049 1276.95 165.77 1276.95 165.362 1276.86 165.053 1276.66 164.844 1276.47 164.634 1276.13 164.519 1275.65 164.497L1275.87 163.434 1280.42 163.434 1280.98 164.497C1280.77 165.238 1280.43 166.135 1279.98 167.188 1279.32 168.735 1278.42 170.47 1277.29 172.393 1276.27 174.122 1275.16 175.852 1273.96 177.581 1272.55 179.601 1271.32 181.231 1270.28 182.472 1269.24 183.712 1268.34 184.628 1267.58 185.219 1266.97 185.67 1266.4 185.99 1265.85 186.178 1265.3 186.366 1264.72 186.46 1264.11 186.46 1263.32 186.46 1262.56 186.341 1261.86 186.105L1262.66 182.464 1264.35 182.464C1264.36 182.915 1264.43 183.248 1264.55 183.463 1264.68 183.677 1264.9 183.785 1265.22 183.785 1265.48 183.785 1265.72 183.739 1265.95 183.648 1266.17 183.557 1266.46 183.377 1266.8 183.108 1267.15 182.84 1267.58 182.402 1268.1 181.795 1268.62 181.188 1269.21 180.455 1269.86 179.595 1269.65 178.285 1269.37 176.741 1269.03 174.963 1268.7 173.185 1268.37 171.568 1268.04 170.113 1267.72 168.657 1267.48 167.672 1267.33 167.156 1267.18 166.64 1267.04 166.272 1266.9 166.052 1266.76 165.832 1266.63 165.687 1266.51 165.617 1266.39 165.547 1266.27 165.512 1266.14 165.512 1265.87 165.512 1265.63 165.622 1265.4 165.843 1265.18 166.063 1264.88 166.528 1264.51 167.236L1263.05 166.56C1263.67 165.432 1264.38 164.586 1265.18 164.022 1265.97 163.458 1266.88 163.176 1267.91 163.176Z" fill="#00B050" fill-rule="evenodd"/><text fill="#000000" fill-opacity="0" font-family="Arial,Arial_MSFontService,sans-serif" font-size="23.2837" x="1261.86" y="183.549">𝒚</text><path d="M1293.14 172.264 1313 172.264 1313 174.407 1293.14 174.407ZM1293.14 165.577 1313 165.577 1313 167.72 1293.14 167.72Z" fill="#00B050" fill-rule="evenodd"/><text fill="#000000" fill-opacity="0" font-family="Arial,Arial_MSFontService,sans-serif" font-size="8.83008" x="1293.14" y="173.303">=</text><path d="M1334.6 158.97C1333.84 158.97 1333.24 159.306 1332.8 159.977 1332.36 160.649 1332.04 161.648 1331.85 162.975 1331.66 164.301 1331.56 166.028 1331.56 168.155 1331.56 170.518 1331.66 172.398 1331.87 173.795 1332.08 175.191 1332.41 176.22 1332.86 176.88 1333.32 177.541 1333.92 177.871 1334.67 177.871 1335.08 177.871 1335.43 177.772 1335.74 177.573 1336.05 177.374 1336.32 177.063 1336.56 176.639 1336.8 176.214 1337.01 175.65 1337.18 174.947 1337.35 174.243 1337.48 173.368 1337.55 172.32 1337.63 171.273 1337.67 170.105 1337.67 168.816 1337.67 166.893 1337.59 165.276 1337.45 163.965 1337.3 162.655 1337.1 161.645 1336.83 160.936 1336.56 160.227 1336.24 159.722 1335.88 159.422 1335.51 159.121 1335.09 158.97 1334.6 158.97ZM1334.7 157.166C1337.34 157.166 1339.31 158.065 1340.61 159.865 1341.91 161.664 1342.56 164.417 1342.56 168.123 1342.56 171.925 1341.87 174.802 1340.49 176.751 1339.11 178.701 1337.09 179.676 1334.41 179.676 1331.77 179.676 1329.82 178.76 1328.55 176.929 1327.29 175.097 1326.66 172.328 1326.66 168.622 1326.66 164.905 1327.36 162.067 1328.77 160.106 1330.18 158.146 1332.16 157.166 1334.7 157.166Z" fill="#00B050" fill-rule="evenodd"/><text fill="#000000" fill-opacity="0" font-family="Arial,Arial_MSFontService,sans-serif" font-size="22.5103" x="1326.66" y="176.862">𝟎</text><path d="M1346.5 175.68 1349.75 175.68 1349.75 179.418 1346.5 179.418Z" fill="#00B050" fill-rule="evenodd"/><text fill="#000000" fill-opacity="0" font-family="Arial,Arial_MSFontService,sans-serif" font-size="3.73828" x="1346.5" y="178.951">.</text><path d="M1385.17 163.176C1386.03 163.176 1386.69 163.305 1387.14 163.563 1387.59 163.82 1387.96 164.269 1388.25 164.908 1388.54 165.547 1388.81 166.57 1389.07 167.978L1389.23 167.978C1390.03 166.861 1390.64 166.02 1391.08 165.456 1391.53 164.892 1391.93 164.441 1392.31 164.102 1392.69 163.764 1393.05 163.525 1393.41 163.385 1393.76 163.246 1394.18 163.176 1394.66 163.176 1395.2 163.176 1395.74 163.273 1396.29 163.466L1395.53 166.946 1394.08 166.946C1394.03 166.495 1393.83 166.27 1393.49 166.27 1393.34 166.27 1393.18 166.307 1393.01 166.382 1392.84 166.458 1392.62 166.627 1392.35 166.89 1392.08 167.153 1391.73 167.535 1391.33 168.034 1390.92 168.534 1390.31 169.294 1389.49 170.314 1389.87 172.581 1390.17 174.205 1390.42 175.188 1390.66 176.171 1390.91 176.808 1391.17 177.098 1391.32 177.259 1391.5 177.34 1391.71 177.34 1391.98 177.34 1392.23 177.235 1392.46 177.025 1392.69 176.816 1392.99 176.346 1393.36 175.615L1394.82 176.292C1394.2 177.431 1393.49 178.279 1392.7 178.838 1391.91 179.397 1390.99 179.676 1389.92 179.676 1389.27 179.676 1388.75 179.593 1388.35 179.426 1387.96 179.26 1387.63 178.983 1387.35 178.596 1387.08 178.21 1386.84 177.664 1386.63 176.961 1386.42 176.257 1386.22 175.336 1386.04 174.197L1385.88 174.197C1384.97 175.508 1384.24 176.507 1383.69 177.195 1383.14 177.882 1382.67 178.398 1382.28 178.741 1381.89 179.085 1381.51 179.327 1381.15 179.466 1380.79 179.606 1380.36 179.676 1379.85 179.676 1379.62 179.676 1379.33 179.646 1378.99 179.587 1378.65 179.528 1378.4 179.466 1378.23 179.402L1378.98 175.905 1380.43 175.905C1380.44 176.131 1380.5 176.3 1380.6 176.413 1380.71 176.526 1380.84 176.582 1381 176.582 1381.19 176.582 1381.37 176.542 1381.54 176.461 1381.7 176.381 1381.94 176.201 1382.23 175.922 1382.53 175.642 1382.9 175.231 1383.35 174.689 1383.8 174.146 1384.56 173.193 1385.64 171.829 1385.41 170.561 1385.2 169.468 1385 168.55 1384.8 167.631 1384.62 166.965 1384.46 166.552 1384.3 166.138 1384.15 165.861 1384 165.722 1383.86 165.582 1383.69 165.512 1383.51 165.512 1383.3 165.512 1383.11 165.569 1382.95 165.682 1382.79 165.794 1382.62 165.977 1382.44 166.229 1382.26 166.482 1382.07 166.818 1381.87 167.236L1380.4 166.56C1381.02 165.421 1381.73 164.572 1382.5 164.014 1383.28 163.455 1384.17 163.176 1385.17 163.176ZM1372.55 156.36 1374.32 156.36 1374 161.5 1364.11 161.5 1364.11 167.301C1364.75 167.108 1365.41 166.965 1366.08 166.874 1366.75 166.783 1367.58 166.737 1368.55 166.737 1369.89 166.737 1371.06 166.984 1372.06 167.478 1373.06 167.972 1373.84 168.689 1374.4 169.629 1374.95 170.569 1375.23 171.673 1375.23 172.941 1375.23 175.121 1374.5 176.789 1373.06 177.944 1371.61 179.099 1369.54 179.676 1366.83 179.676 1365.7 179.676 1364.55 179.563 1363.38 179.338 1362.21 179.112 1361.21 178.806 1360.37 178.419L1360.37 174.391 1363.29 174.391C1363.55 175.562 1363.98 176.434 1364.57 177.009 1365.17 177.584 1365.93 177.871 1366.86 177.871 1368.03 177.871 1368.9 177.509 1369.46 176.784 1370.02 176.059 1370.3 174.939 1370.3 173.424 1370.3 171.931 1369.94 170.792 1369.22 170.008 1368.5 169.224 1367.45 168.832 1366.09 168.832 1365.56 168.832 1365 168.88 1364.39 168.977 1363.78 169.073 1363.24 169.192 1362.77 169.331L1361.32 168.429 1361.32 157.424 1370.84 157.424C1371.41 157.424 1371.8 157.354 1372 157.214 1372.19 157.074 1372.38 156.79 1372.55 156.36Z" fill="#00B050" fill-rule="evenodd"/><text fill="#000000" fill-opacity="0" font-family="Arial,Arial_MSFontService,sans-serif" font-size="23.3159" x="1360.37" y="176.761">𝟓𝒙</text><path d="M1034 274.5C1034 270.358 1039.15 267 1045.5 267 1051.85 267 1057 270.358 1057 274.5 1057 278.642 1051.85 282 1045.5 282 1039.15 282 1034 278.642 1034 274.5Z" fill="#C00000" fill-rule="evenodd"/><path d="M1063 271.5C1063 267.358 1067.92 264 1074 264 1080.08 264 1085 267.358 1085 271.5 1085 275.642 1080.08 279 1074 279 1067.92 279 1063 275.642 1063 271.5Z" fill="#C00000" fill-rule="evenodd"/><path d="M1057 240.5C1057 236.358 1061.92 233 1068 233 1074.08 233 1079 236.358 1079 240.5 1079 244.642 1074.08 248 1068 248 1061.92 248 1057 244.642 1057 240.5Z" fill="#C00000" fill-rule="evenodd"/><path d="M1169 243.5C1169 239.358 1173.92 236 1180 236 1186.08 236 1191 239.358 1191 243.5 1191 247.642 1186.08 251 1180 251 1173.92 251 1169 247.642 1169 243.5Z" fill="#C00000" fill-rule="evenodd"/><path d="M1094 213.5C1094 209.358 1099.15 206 1105.5 206 1111.85 206 1117 209.358 1117 213.5 1117 217.642 1111.85 221 1105.5 221 1099.15 221 1094 217.642 1094 213.5Z" fill="#C00000" fill-rule="evenodd"/><path d="M1096 240.5C1096 236.358 1101.15 233 1107.5 233 1113.85 233 1119 236.358 1119 240.5 1119 244.642 1113.85 248 1107.5 248 1101.15 248 1096 244.642 1096 240.5Z" fill="#C00000" fill-rule="evenodd"/><path d="M1144 262.5C1144 258.358 1148.92 255 1155 255 1161.08 255 1166 258.358 1166 262.5 1166 266.642 1161.08 270 1155 270 1148.92 270 1144 266.642 1144 262.5Z" fill="#C00000" fill-rule="evenodd"/></g></svg>