<svg 
    width="500" 
    height="310" 
    xmlns="http://www.w3.org/2000/svg" 
    xmlns:xlink="http://www.w3.org/1999/xlink" 
    overflow="hidden"
    viewBox="0 0 1070 630"
    style="backgr ound:orange;width:0%">
<defs><clipPath id="clip0"><path d="M980 261 2051 261 2051 818 980 818Z" fill-rule="evenodd" clip-rule="evenodd"/></clipPath></defs><g clip-path="url(#clip0)" transform="translate(-980 -261)"><path d="M1308 318 1308 814.926 1303 814.926 1303 318ZM1298 320.5 1305.5 305.5 1313 320.5Z" fill="#0D0D0D"/><path d="M12.5153-2.43051 1015.86 3.1439 1015.83 8.14383 12.4875 2.56942ZM14.9581 7.58322 0 0 15.0414-7.41655Z" fill="#0D0D0D" transform="matrix(-1 -8.74228e-08 -8.74228e-08 1 2000.34 623.5)"/><path d="M0 0 955.442 148.417" stroke="#0070C0" stroke-width="3.125" stroke-miterlimit="8" fill="none" fill-rule="evenodd" transform="matrix(0.996457 0.0841022 0.0841022 -0.996457 1004.83 649.061)"/><text fill="#0070C0" font-family="Cambria Math,Cambria Math_MSFontService,sans-serif" font-weight="400" font-size="25" transform="matrix(0.996457 0.0841022 -0.0841022 0.996457 1907.47 558)">𝒚<tspan x="22.0127" y="0.149216">=</tspan><tspan x="47.9969" y="-0.0367761">𝟎</tspan><tspan x="62.975" y="-0.297386">.</tspan><tspan x="71.9954" y="-0.0551691">𝟎𝟓</tspan><tspan x="102.035" y="0.420078">𝒙</tspan></text><path d="M1574 341.5C1574 337.358 1579.82 334 1587 334 1594.18 334 1600 337.358 1600 341.5 1600 345.642 1594.18 349 1587 349 1579.82 349 1574 345.642 1574 341.5Z" fill="#4472C4" fill-rule="evenodd"/><path d="M1459 348.5C1459 344.358 1464.82 341 1472 341 1479.18 341 1485 344.358 1485 348.5 1485 352.642 1479.18 356 1472 356 1464.82 356 1459 352.642 1459 348.5Z" fill="#4472C4" fill-rule="evenodd"/><path d="M1527 381.5C1527 377.358 1532.82 374 1540 374 1547.18 374 1553 377.358 1553 381.5 1553 385.642 1547.18 389 1540 389 1532.82 389 1527 385.642 1527 381.5Z" fill="#4472C4" fill-rule="evenodd"/><path d="M1433 384.5C1433 380.358 1438.82 377 1446 377 1453.18 377 1459 380.358 1459 384.5 1459 388.642 1453.18 392 1446 392 1438.82 392 1433 388.642 1433 384.5Z" fill="#4472C4" fill-rule="evenodd"/><path d="M1577 318C1577 313.582 1582.6 310 1589.5 310 1596.4 310 1602 313.582 1602 318 1602 322.418 1596.4 326 1589.5 326 1582.6 326 1577 322.418 1577 318Z" fill="#4472C4" fill-rule="evenodd"/><path d="M1483 363.5C1483 359.358 1488.6 356 1495.5 356 1502.4 356 1508 359.358 1508 363.5 1508 367.642 1502.4 371 1495.5 371 1488.6 371 1483 367.642 1483 363.5Z" fill="#4472C4" fill-rule="evenodd"/><path d="M1527 336C1527 331.582 1532.82 328 1540 328 1547.18 328 1553 331.582 1553 336 1553 340.418 1547.18 344 1540 344 1532.82 344 1527 340.418 1527 336Z" fill="#4472C4" fill-rule="evenodd"/><path d="M1466 403.5C1466 399.358 1471.82 396 1479 396 1486.18 396 1492 399.358 1492 403.5 1492 407.642 1486.18 411 1479 411 1471.82 411 1466 407.642 1466 403.5Z" fill="#4472C4" fill-rule="evenodd"/><path d="M0 0 549.817 470.282" stroke="#FF0000" stroke-width="3.125" stroke-miterlimit="8" fill="none" fill-rule="evenodd" transform="matrix(0.825437 0.564495 0.564495 -0.825437 1098.65 650.522)"/><text fill="#FF0000" font-family="Cambria Math,Cambria Math_MSFontService,sans-serif" font-weight="400" font-size="25" transform="translate(1750.09 525)">𝒚<tspan x="22" y="0">=</tspan><tspan x="48" y="0">𝟎</tspan>.<tspan x="72" y="0">𝟎𝟗</tspan>𝒙</text><path d="M0 0 551.972 493.872" stroke="#00B050" stroke-width="3" stroke-miterlimit="8" fill="none" fill-rule="evenodd" transform="matrix(1 0 0 -1 1097.5 814.372)"/><text fill="#00B050" font-family="Cambria Math,Cambria Math_MSFontService,sans-serif" font-weight="400" font-size="25" transform="matrix(0.985405 -0.170227 0.170227 0.985405 1665.93 315)">𝒚<tspan x="21.8732" y="0.734129">=</tspan><tspan x="47.9709" y="0.168402">𝒙</tspan></text><path d="M1574 425.5C1574 421.358 1579.82 418 1587 418 1594.18 418 1600 421.358 1600 425.5 1600 429.642 1594.18 433 1587 433 1579.82 433 1574 429.642 1574 425.5Z" fill="#C00000" fill-rule="evenodd"/><path d="M1607 422.5C1607 418.358 1612.82 415 1620 415 1627.18 415 1633 418.358 1633 422.5 1633 426.642 1627.18 430 1620 430 1612.82 430 1607 426.642 1607 422.5Z" fill="#C00000" fill-rule="evenodd"/><path d="M1600 391.5C1600 387.358 1605.82 384 1613 384 1620.18 384 1626 387.358 1626 391.5 1626 395.642 1620.18 399 1613 399 1605.82 399 1600 395.642 1600 391.5Z" fill="#C00000" fill-rule="evenodd"/><path d="M1727 394C1727 389.582 1732.82 386 1740 386 1747.18 386 1753 389.582 1753 394 1753 398.418 1747.18 402 1740 402 1732.82 402 1727 398.418 1727 394Z" fill="#C00000" fill-rule="evenodd"/><path d="M1642 363.5C1642 359.358 1647.82 356 1655 356 1662.18 356 1668 359.358 1668 363.5 1668 367.642 1662.18 371 1655 371 1647.82 371 1642 367.642 1642 363.5Z" fill="#C00000" fill-rule="evenodd"/><path d="M1645 391.5C1645 387.358 1650.6 384 1657.5 384 1664.4 384 1670 387.358 1670 391.5 1670 395.642 1664.4 399 1657.5 399 1650.6 399 1645 395.642 1645 391.5Z" fill="#C00000" fill-rule="evenodd"/><path d="M1699 413.5C1699 409.358 1704.82 406 1712 406 1719.18 406 1725 409.358 1725 413.5 1725 417.642 1719.18 421 1712 421 1704.82 421 1699 417.642 1699 413.5Z" fill="#C00000" fill-rule="evenodd"/></g></svg>