<svg width="811" height="401" xmlns="http://www.w3.org/2000/svg" xmlns:xlink="http://www.w3.org/1999/xlink" overflow="hidden"><defs><clipPath id="clip0"><path d="M313 204 1124 204 1124 605 313 605Z" fill-rule="evenodd" clip-rule="evenodd"/></clipPath></defs><g clip-path="url(#clip0)" transform="translate(-313 -204)"><path d="M595.5 384C595.5 285.97 663.553 206.5 747.5 206.5 831.447 206.5 899.5 285.97 899.5 384 899.5 482.031 831.447 561.5 747.5 561.5 663.553 561.5 595.5 482.031 595.5 384Z" stroke="#385723" stroke-width="1.33333" stroke-miterlimit="8" fill="none" fill-rule="evenodd"/><path d="M630 384C630 318.83 682.83 266 748 266 813.17 266 866 318.83 866 384 866 449.17 813.17 502 748 502 682.83 502 630 449.17 630 384Z" fill="#580808" fill-rule="evenodd"/><text fill="#F4B183" font-family="Calibri,Calibri_MSFontService,sans-serif" font-weight="700" font-size="21" transform="translate(688.31 378)">CONTRAINTES <tspan x="12.2" y="26">PHYSIQUES</tspan></text><path d="M314 383C314 362.565 330.565 346 351 346L570 346C590.435 346 607 362.565 607 383L607 383C607 403.435 590.435 420 570 420L351 420C330.565 420 314 403.435 314 383Z" fill="#A5A5A5" fill-rule="evenodd"/><text font-family="Calibri,Calibri_MSFontService,sans-serif" font-weight="400" font-size="21" transform="translate(334.193 390)">LA CONCENTRATION    </text><path d="M550 383C550 359.804 563.655 341 580.5 341 597.345 341 611 359.804 611 383 611 406.196 597.345 425 580.5 425 563.655 425 550 406.196 550 383Z" fill="#181717" fill-rule="evenodd"/><path d="M593.585 396.804 592.313 396.804 592.313 374.638 592.313 374.478 592.285 374.359 592.258 374.279 592.175 374.199 592.119 374.12 592.064 374.08 591.981 374.04 591.898 374.04 588.58 374 588.469 374.04 588.414 374.08 588.331 374.12 588.275 374.199 588.22 374.279 588.193 374.359 588.165 374.478 588.165 374.638 588.165 396.804 586.478 396.804 586.478 385.402 586.478 385.282 586.45 385.203 586.423 385.043 586.367 384.963 586.312 384.924 586.229 384.844 586.174 384.804 586.063 384.804 582.744 384.804 582.661 384.804 582.579 384.844 582.523 384.924 582.468 384.963 582.385 385.043 582.357 385.203 582.33 385.282 582.33 385.402 582.33 396.804 580.643 396.804 580.643 381.814 580.643 381.694 580.615 381.575 580.587 381.455 580.532 381.375 580.477 381.296 580.421 381.256 580.311 381.216 580.228 381.216 576.909 381.216 576.826 381.216 576.771 381.256 576.66 381.296 576.605 381.375 576.55 381.455 576.522 381.575 576.494 381.694 576.494 381.814 576.494 396.804 574.835 396.804 574.835 390.186 574.835 390.106 574.807 389.987 574.78 389.907 574.725 389.787 574.669 389.708 574.559 389.668 574.503 389.628 574.42 389.588 571.102 389.588 571.019 389.628 570.908 389.628 570.853 389.708 570.798 389.787 570.742 389.907 570.715 389.987 570.687 390.106 570.687 390.186 570.687 396.804 569.415 396.804 569.359 396.804 569.249 396.844 569.194 396.924 569.138 397.003 569.083 397.083 569.055 397.163 569.028 397.282 569 397.402 569.028 397.561 569.055 397.641 569.083 397.761 569.138 397.841 569.194 397.92 569.249 397.96 569.359 398 569.415 398 571.102 398 574.42 398 576.909 398 580.228 398 582.744 398 586.063 398 588.58 398 591.898 398 593.585 398 593.641 398 593.723 397.96 593.779 397.92 593.834 397.841 593.917 397.761 593.945 397.641 593.972 397.561 594 397.402 593.972 397.282 593.945 397.163 593.917 397.083 593.834 397.003 593.779 396.924 593.723 396.844 593.641 396.804 593.585 396.804Z" fill="#FFFFFF" fill-rule="evenodd"/><path d="M571.656 383 571.794 383 571.987 382.962 572.125 382.885 572.291 382.847 572.457 382.694 572.567 382.579 572.678 382.465 572.816 382.35 572.926 382.159 573.009 381.968 573.092 381.815 573.174 381.586 573.23 381.394 573.285 381.165 573.312 380.936 573.312 380.706 573.285 380.4 573.257 380.171 573.202 379.903 573.147 379.674 576.928 375.087 577.149 375.278 577.37 375.392 577.646 375.507 577.867 375.545 578.088 375.507 578.281 375.431 578.474 375.354 578.64 375.239 578.778 375.125 578.971 374.972 579.082 374.781 579.192 374.59 582.449 376.386 582.449 376.501 582.449 376.692 582.449 376.883 582.477 377.113 582.532 377.342 582.587 377.533 582.642 377.763 582.725 377.954 582.808 378.107 582.946 378.298 583.056 378.451 583.167 378.565 583.305 378.68 583.471 378.757 583.609 378.871 583.774 378.948 583.94 378.948 584.105 378.986 584.299 378.948 584.437 378.948 584.602 378.871 584.768 378.757 584.906 378.68 585.044 378.565 585.182 378.451 585.265 378.298 585.403 378.107 585.486 377.954 585.568 377.763 585.651 377.533 585.679 377.342 585.734 377.113 585.762 376.883 585.762 376.692 585.734 376.31 585.679 375.928 585.596 375.622 585.458 375.316 589.626 368.358 589.792 368.473 589.985 368.549 590.151 368.588 590.344 368.588 590.509 368.588 590.703 368.549 590.841 368.511 590.979 368.435 591.144 368.32 591.282 368.205 591.393 368.052 591.531 367.938 591.641 367.785 591.724 367.594 591.807 367.402 591.862 367.211 591.945 367.02 591.972 366.753 592 366.561 592 366.294 592 366.064 591.972 365.835 591.945 365.606 591.862 365.414 591.807 365.185 591.724 365.032 591.641 364.841 591.531 364.65 591.393 364.535 591.282 364.382 591.144 364.306 590.979 364.191 590.841 364.076 590.703 364.038 590.509 364 590.344 364 590.178 364 590.013 364.038 589.847 364.076 589.681 364.191 589.571 364.306 589.405 364.382 589.295 364.535 589.184 364.65 589.074 364.841 588.964 365.032 588.881 365.185 588.826 365.414 588.77 365.606 588.715 365.835 588.688 366.064 588.688 366.294 588.715 366.676 588.77 367.02 588.853 367.326 588.991 367.67 584.823 374.59 584.657 374.513 584.464 374.437 584.299 374.398 584.105 374.36 583.912 374.398 583.691 374.437 583.526 374.513 583.36 374.628 583.194 374.742 583.029 374.934 582.891 375.125 582.78 375.278 579.523 373.481 579.523 373.366 579.523 373.175 579.523 372.984 579.496 372.755 579.468 372.525 579.413 372.334 579.358 372.143 579.275 371.913 579.164 371.761 579.054 371.608 578.944 371.417 578.806 371.302 578.667 371.187 578.529 371.111 578.364 371.034 578.226 370.92 578.06 370.92 577.867 370.881 577.729 370.92 577.536 370.92 577.398 371.034 577.232 371.111 577.094 371.187 576.956 371.302 576.846 371.417 576.708 371.608 576.597 371.761 576.514 371.913 576.432 372.143 576.349 372.334 576.294 372.525 576.238 372.755 576.211 372.984 576.211 373.175 576.238 373.481 576.266 373.71 576.321 373.978 576.376 374.207 572.595 378.795 572.374 378.604 572.153 378.489 571.877 378.412 571.656 378.412 571.463 378.412 571.297 378.451 571.159 378.489 570.994 378.565 570.856 378.642 570.718 378.757 570.58 378.948 570.469 379.062 570.359 379.215 570.248 379.368 570.166 379.598 570.11 379.789 570.055 380.018 570.028 380.247 570 380.439 570 380.706 570 380.936 570.028 381.165 570.055 381.394 570.11 381.586 570.166 381.815 570.248 381.968 570.359 382.159 570.469 382.35 570.58 382.465 570.718 382.579 570.856 382.694 570.994 382.847 571.159 382.885 571.297 382.962 571.463 383 571.656 383Z" fill="#FFFFFF" fill-rule="evenodd"/><path d="M843 279C843 260.775 857.775 246 876 246L1090 246C1108.23 246 1123 260.775 1123 279L1123 279C1123 297.226 1108.23 312 1090 312L876 312C857.775 312 843 297.225 843 279Z" fill="#8497B0" fill-rule="evenodd"/><text font-family="Calibri,Calibri_MSFontService,sans-serif" font-weight="400" font-size="21" transform="translate(933.63 286)">LA FATIGUE</text><path d="M841 278.5C841 257.237 855.775 240 874 240 892.225 240 907 257.237 907 278.5 907 299.763 892.225 317 874 317 855.775 317 841 299.763 841 278.5Z" fill="#002060" fill-rule="evenodd"/><path d="M880.562 276.769 872.484 276.769 872.35 276.688 872.217 276.608 872.117 276.487 872.083 276.245 872.117 276.083 872.217 275.962 872.35 275.841 872.484 275.801 880.562 275.801 880.729 275.841 880.862 275.962 880.929 276.083 880.962 276.245 880.929 276.487 880.862 276.608 880.729 276.688 880.562 276.769ZM880.562 287.296 872.484 287.296 872.35 287.256 872.217 287.175 872.117 287.014 872.083 286.812 872.117 286.651 872.217 286.449 872.35 286.369 872.484 286.328 880.562 286.328 880.729 286.369 880.862 286.449 880.929 286.651 880.962 286.812 880.929 287.014 880.862 287.175 880.729 287.256 880.562 287.296ZM870.782 271.122 865.708 277.253 865.608 277.374 865.474 277.374 865.274 277.374 865.174 277.253 863.138 274.793 863.071 274.631 863.038 274.43 863.071 274.268 863.138 274.107 863.271 273.986 863.438 273.946 863.572 273.986 863.705 274.107 865.474 276.204 870.214 270.477 870.314 270.396 870.481 270.356 870.615 270.396 870.782 270.477 870.848 270.598 870.882 270.8 870.848 271.001 870.782 271.122ZM870.782 282.698 865.708 288.789 865.608 288.91 865.474 288.95 865.274 288.91 865.174 288.789 863.138 286.369 863.071 286.248 863.038 286.046 863.071 285.885 863.138 285.683 863.271 285.602 863.438 285.562 863.572 285.602 863.705 285.683 865.474 287.78 870.214 282.013 870.314 281.932 870.481 281.892 870.615 281.932 870.782 282.053 870.848 282.174 870.882 282.376 870.848 282.537 870.782 282.698ZM883.599 266 860.401 266 860.267 266.081 860.1 266.202 860.033 266.323 860 266.524 860 294.516 860.033 294.758 860.1 294.879 860.267 295 860.401 295 883.599 295 883.733 295 883.9 294.879 883.967 294.758 884 294.516 884 266.524 883.967 266.323 883.9 266.202 883.733 266.081 883.599 266Z" fill="#FFFFFF" fill-rule="evenodd"/><path d="M735 566C735 547.222 750.222 532 769 532L1089 532C1107.78 532 1123 547.222 1123 566L1123 566C1123 584.778 1107.78 600 1089 600L769 600C750.222 600 735 584.778 735 566Z" fill="#92D050" fill-rule="evenodd"/><text font-family="Calibri,Calibri_MSFontService,sans-serif" font-weight="400" font-size="16" transform="translate(832.756 552)">LE TEMPS <tspan x="66.8334" y="0">NÉCESSITÉ  </tspan>PAR UN <tspan x="25.8067" y="19">VOLUME </tspan><tspan x="87.08" y="19">IMPORTANT </tspan><tspan x="16.6067" y="38">DE DONNÉES D’IMAGES.</tspan></text><path d="M730 565C730 543.461 745.67 526 765 526 784.33 526 800 543.461 800 565 800 586.539 784.33 604 765 604 745.67 604 730 586.539 730 565Z" fill="#164A27" fill-rule="evenodd"/><path d="M783.436 558.879 778.885 558.879 778.772 558.879 778.697 558.921 778.622 558.963 778.509 559.048 778.434 559.132 778.396 559.258 778.358 559.342 778.358 559.468 778.358 561.404 774.936 561.404 773.582 561.446 772.303 561.573 771.664 561.657 771.1 561.825 770.498 561.951 769.896 562.078 769.294 562.288 768.73 562.54 768.204 562.709 767.677 563.003 767.188 563.256 766.661 563.592 766.21 563.845 765.721 564.182 765.608 563.803 765.383 563.424 771.25 556.859 771.739 557.154 772.19 557.406 772.454 557.491 772.717 557.533 772.943 557.575 773.243 557.575 773.582 557.575 773.92 557.491 774.221 557.406 774.56 557.28 774.861 557.112 775.124 556.901 775.425 556.733 775.613 556.481 775.839 556.186 776.064 555.934 776.215 555.597 776.365 555.26 776.478 554.924 776.553 554.545 776.591 554.166 776.666 553.787 776.591 553.409 776.553 553.03 776.478 552.651 776.365 552.315 776.215 551.978 776.064 551.641 775.839 551.347 775.613 551.052 775.425 550.842 775.124 550.631 774.861 550.463 774.56 550.253 774.221 550.168 773.92 550.084 773.582 550 773.243 550 772.905 550 772.566 550.084 772.228 550.168 771.927 550.253 771.626 550.463 771.325 550.631 771.1 550.842 770.836 551.052 770.611 551.347 770.423 551.641 770.234 551.978 770.122 552.315 769.971 552.651 769.896 553.03 769.858 553.409 769.858 553.787 769.896 554.419 770.009 554.966 770.197 555.513 770.498 555.976 764.593 562.54 764.254 562.33 763.878 562.162 763.465 562.035 763.051 561.993 762.75 562.035 762.449 562.078 762.223 562.162 761.96 562.288 761.697 562.372 761.434 562.583 761.246 562.751 761.057 562.961 760.832 563.172 760.681 563.424 760.569 563.677 760.418 563.971 760.343 564.224 760.268 564.56 760.193 564.855 760.193 565.192 760.268 565.654 760.343 566.117 760.456 566.538 760.681 566.959 755.04 573.271 754.664 573.019 754.25 572.935 753.836 572.851 753.423 572.808 753.084 572.808 752.746 572.893 752.407 572.977 752.106 573.061 751.805 573.271 751.504 573.44 751.241 573.65 750.978 573.903 750.79 574.155 750.602 574.45 750.451 574.786 750.263 575.123 750.188 575.46 750.113 575.838 750 576.217 750 576.596 750 576.975 750.113 577.353 750.188 577.732 750.263 578.069 750.451 578.405 750.602 578.742 750.79 579.037 750.978 579.289 751.241 579.542 751.504 579.71 751.805 579.92 752.106 580.131 752.407 580.215 752.746 580.299 753.084 580.383 753.423 580.383 753.761 580.383 754.1 580.299 754.438 580.215 754.739 580.131 755.04 579.92 755.341 579.71 755.566 579.542 755.83 579.289 756.055 579.037 756.206 578.742 756.394 578.405 756.544 578.069 756.657 577.732 756.732 577.353 756.807 576.975 756.807 576.596 756.807 576.217 756.77 575.88 756.695 575.544 756.544 575.207 756.431 574.87 756.319 574.618 756.131 574.323 755.905 574.029 761.471 567.843 761.885 568.095 762.336 568.221 761.81 569.231 761.396 570.326 761.057 571.462 760.757 572.64 760.493 573.903 760.343 575.165 760.268 576.512 760.193 577.858 760.193 581.688 758.5 581.688 758.387 581.688 758.312 581.73 758.199 581.772 758.124 581.856 758.049 581.982 758.011 582.066 757.973 582.151 757.973 582.277 757.973 587.369 757.973 587.495 758.011 587.621 758.049 587.705 758.124 587.79 758.199 587.916 758.312 587.958 758.387 588 758.5 588 763.051 588 763.126 588 763.277 587.958 763.352 587.916 763.427 587.79 763.54 587.705 763.577 587.621 763.615 587.495 763.615 587.369 763.615 582.277 763.615 582.151 763.577 582.066 763.54 581.982 763.427 581.856 763.352 581.772 763.277 581.73 763.126 581.688 763.051 581.688 761.358 581.688 761.358 577.858 761.396 576.47 761.471 575.123 761.659 573.818 761.923 572.598 762.261 571.42 762.637 570.284 762.9 569.736 763.089 569.231 763.352 568.769 763.653 568.264 764.029 568.137 764.405 567.927 764.781 567.674 765.082 567.38 765.345 567.001 765.571 566.622 765.721 566.117 765.834 565.654 766.285 565.318 766.737 564.981 767.226 564.645 767.715 564.392 768.241 564.097 768.73 563.845 769.294 563.635 769.896 563.424 770.46 563.256 771.024 563.087 771.664 562.961 772.303 562.877 772.943 562.751 773.582 562.709 774.259 562.667 774.936 562.667 778.358 562.667 778.358 564.56 778.358 564.645 778.396 564.813 778.434 564.897 778.509 564.981 778.622 565.107 778.697 565.149 778.772 565.192 778.885 565.192 783.436 565.192 783.549 565.192 783.661 565.149 783.737 565.107 783.812 564.981 783.925 564.897 783.962 564.813 784 564.645 784 564.56 784 559.468 784 559.342 783.962 559.258 783.925 559.132 783.812 559.048 783.737 558.963 783.661 558.921 783.549 558.879 783.436 558.879Z" fill="#FFFFFF" fill-rule="evenodd"/></g></svg>