<svg xmlns="http://www.w3.org/2000/svg" xmlns:xlink="http://www.w3.org/1999/xlink" width="895" height="407" overflow="hidden"><defs><clipPath id="clip0"><path fill-rule="evenodd" d="M313 204 1208 204 1208 611 313 611Z" clip-rule="evenodd"/></clipPath></defs><g clip-path="url(#clip0)" transform="translate(-313 -204)"><path fill="none" fill-rule="evenodd" stroke="#385723" stroke-miterlimit="8" stroke-width="1.333" d="M625.5 384C625.5 285.97 700.268 206.5 792.5 206.5 884.732 206.5 959.5 285.97 959.5 384 959.5 482.031 884.732 561.5 792.5 561.5 700.268 561.5 625.5 482.031 625.5 384Z"/><path fill="#580808" fill-rule="evenodd" d="M663 384C663 318.83 721.203 266 793 266 864.797 266 923 318.83 923 384 923 449.17 864.797 502 793 502 721.203 502 663 449.17 663 384Z"/><text fill="#F4B183" font-family="Calibri,Calibri_MSFontService,sans-serif" font-size="21" font-weight="700" transform="translate(733.354 378)">CONTRAINTES <tspan x="12.2" y="26">PHYSIQUES</tspan></text><path fill="#A5A5A5" fill-rule="evenodd" d="M314 383C314 362.566 330.566 346 351 346L600 346C620.435 346 637 362.566 637 383L637 383C637 403.435 620.434 420 600 420L351 420C330.566 420 314 403.434 314 383Z"/><text font-family="Calibri,Calibri_MSFontService,sans-serif" font-size="21" font-weight="400" transform="translate(334.193 390)">LA CONCENTRATION</text><path fill="#181717" fill-rule="evenodd" d="M575 383C575 359.804 589.998 341 608.5 341 627.002 341 642 359.804 642 383 642 406.196 627.002 425 608.5 425 589.998 425 575 406.196 575 383Z"/><path fill="#FFF" fill-rule="evenodd" d="M622.552 396.804 621.178 396.804 621.178 374.638 621.178 374.478 621.148 374.359 621.118 374.279 621.029 374.199 620.969 374.12 620.909 374.08 620.82 374.04 620.73 374.04 617.146 374 617.027 374.04 616.967 374.08 616.877 374.12 616.818 374.199 616.758 374.279 616.728 374.359 616.698 374.478 616.698 374.638 616.698 396.804 614.876 396.804 614.876 385.402 614.876 385.282 614.846 385.203 614.816 385.043 614.757 384.963 614.697 384.924 614.607 384.844 614.548 384.804 614.428 384.804 610.844 384.804 610.754 384.804 610.665 384.844 610.605 384.924 610.545 384.963 610.456 385.043 610.426 385.203 610.396 385.282 610.396 385.402 610.396 396.804 608.574 396.804 608.574 381.814 608.574 381.694 608.544 381.575 608.514 381.455 608.455 381.375 608.395 381.296 608.335 381.256 608.216 381.216 608.126 381.216 604.542 381.216 604.452 381.216 604.393 381.256 604.273 381.296 604.214 381.375 604.154 381.455 604.124 381.575 604.094 381.694 604.094 381.814 604.094 396.804 602.302 396.804 602.302 390.186 602.302 390.106 602.272 389.987 602.242 389.907 602.182 389.787 602.123 389.708 602.003 389.668 601.944 389.628 601.854 389.588 598.27 389.588 598.18 389.628 598.061 389.628 598.001 389.708 597.941 389.787 597.882 389.907 597.852 389.987 597.822 390.106 597.822 390.186 597.822 396.804 596.448 396.804 596.388 396.804 596.269 396.844 596.209 396.924 596.149 397.003 596.09 397.083 596.06 397.163 596.03 397.282 596 397.402 596.03 397.561 596.06 397.641 596.09 397.761 596.149 397.841 596.209 397.92 596.269 397.96 596.388 398 596.448 398 598.27 398 601.854 398 604.542 398 608.126 398 610.844 398 614.428 398 617.146 398 620.73 398 622.552 398 622.612 398 622.701 397.96 622.761 397.92 622.821 397.841 622.91 397.761 622.94 397.641 622.97 397.561 623 397.402 622.97 397.282 622.94 397.163 622.91 397.083 622.821 397.003 622.761 396.924 622.701 396.844 622.612 396.804 622.552 396.804Z"/><path fill="#FFF" fill-rule="evenodd" d="M597.807 383 597.957 383 598.168 382.962 598.319 382.885 598.499 382.847 598.68 382.694 598.8 382.579 598.921 382.465 599.072 382.35 599.192 382.159 599.282 381.968 599.373 381.815 599.463 381.586 599.523 381.394 599.583 381.165 599.614 380.936 599.614 380.706 599.583 380.4 599.553 380.171 599.493 379.903 599.433 379.674 603.558 375.087 603.799 375.278 604.04 375.392 604.341 375.507 604.582 375.545 604.823 375.507 605.034 375.431 605.245 375.354 605.425 375.239 605.576 375.125 605.787 374.972 605.907 374.781 606.028 374.59 609.581 376.386 609.581 376.501 609.581 376.692 609.581 376.883 609.611 377.113 609.671 377.342 609.732 377.533 609.792 377.763 609.882 377.954 609.972 378.107 610.123 378.298 610.243 378.451 610.364 378.565 610.514 378.68 610.695 378.757 610.846 378.871 611.026 378.948 611.207 378.948 611.388 378.986 611.599 378.948 611.749 378.948 611.93 378.871 612.11 378.757 612.261 378.68 612.412 378.565 612.562 378.451 612.652 378.298 612.803 378.107 612.893 377.954 612.984 377.763 613.074 377.533 613.104 377.342 613.164 377.113 613.194 376.883 613.194 376.692 613.164 376.31 613.104 375.928 613.014 375.622 612.863 375.316 617.41 368.358 617.591 368.473 617.802 368.549 617.982 368.588 618.193 368.588 618.374 368.588 618.585 368.549 618.735 368.511 618.886 368.435 619.067 368.32 619.217 368.205 619.338 368.052 619.488 367.938 619.609 367.785 619.699 367.594 619.789 367.402 619.849 367.211 619.94 367.02 619.97 366.753 620 366.561 620 366.294 620 366.064 619.97 365.835 619.94 365.606 619.849 365.414 619.789 365.185 619.699 365.032 619.609 364.841 619.488 364.65 619.338 364.535 619.217 364.382 619.067 364.306 618.886 364.191 618.735 364.076 618.585 364.038 618.374 364 618.193 364 618.013 364 617.832 364.038 617.651 364.076 617.471 364.191 617.35 364.306 617.169 364.382 617.049 364.535 616.928 364.65 616.808 364.841 616.688 365.032 616.597 365.185 616.537 365.414 616.477 365.606 616.417 365.835 616.386 366.064 616.386 366.294 616.417 366.676 616.477 367.02 616.567 367.326 616.718 367.67 612.171 374.59 611.99 374.513 611.779 374.437 611.599 374.398 611.388 374.36 611.177 374.398 610.936 374.437 610.755 374.513 610.575 374.628 610.394 374.742 610.213 374.934 610.063 375.125 609.942 375.278 606.389 373.481 606.389 373.366 606.389 373.175 606.389 372.984 606.359 372.755 606.329 372.525 606.268 372.334 606.208 372.143 606.118 371.913 605.997 371.761 605.877 371.608 605.757 371.417 605.606 371.302 605.455 371.187 605.305 371.111 605.124 371.034 604.974 370.92 604.793 370.92 604.582 370.881 604.432 370.92 604.221 370.92 604.07 371.034 603.89 371.111 603.739 371.187 603.588 371.302 603.468 371.417 603.317 371.608 603.197 371.761 603.107 371.913 603.016 372.143 602.926 372.334 602.866 372.525 602.806 372.755 602.775 372.984 602.775 373.175 602.806 373.481 602.836 373.71 602.896 373.978 602.956 374.207 598.831 378.795 598.59 378.604 598.349 378.489 598.048 378.412 597.807 378.412 597.596 378.412 597.415 378.451 597.265 378.489 597.084 378.565 596.933 378.642 596.783 378.757 596.632 378.948 596.512 379.062 596.391 379.215 596.271 379.368 596.181 379.598 596.12 379.789 596.06 380.018 596.03 380.247 596 380.439 596 380.706 596 380.936 596.03 381.165 596.06 381.394 596.12 381.586 596.181 381.815 596.271 381.968 596.391 382.159 596.512 382.35 596.632 382.465 596.783 382.579 596.933 382.694 597.084 382.847 597.265 382.885 597.415 382.962 597.596 383 597.807 383Z"/><path fill="#8497B0" fill-rule="evenodd" d="M898 279C898 260.775 912.775 246 931 246L1174 246C1192.23 246 1207 260.775 1207 279L1207 279C1207 297.225 1192.23 312 1174 312L931 312C912.775 312 898 297.225 898 279Z"/><text font-family="Calibri,Calibri_MSFontService,sans-serif" font-size="21" font-weight="400" transform="translate(1003.07 286)">LA FATIGUE</text><path fill="#002060" fill-rule="evenodd" d="M896 278.5C896 257.237 912.342 240 932.5 240 952.658 240 969 257.237 969 278.5 969 299.763 952.658 317 932.5 317 912.342 317 896 299.763 896 278.5Z"/><path fill="#FFF" fill-rule="evenodd" d="M940.132 276.769 931.044 276.769 930.894 276.688 930.744 276.608 930.631 276.487 930.594 276.245 930.631 276.083 930.744 275.962 930.894 275.841 931.044 275.801 940.132 275.801 940.32 275.841 940.47 275.962 940.545 276.083 940.583 276.245 940.545 276.487 940.47 276.608 940.32 276.688 940.132 276.769ZM940.132 287.296 931.044 287.296 930.894 287.256 930.744 287.175 930.631 287.014 930.594 286.812 930.631 286.651 930.744 286.449 930.894 286.369 931.044 286.328 940.132 286.328 940.32 286.369 940.47 286.449 940.545 286.651 940.583 286.812 940.545 287.014 940.47 287.175 940.32 287.256 940.132 287.296ZM929.129 271.122 923.421 277.253 923.309 277.374 923.159 277.374 922.933 277.374 922.821 277.253 920.53 274.793 920.455 274.631 920.417 274.43 920.455 274.268 920.53 274.107 920.68 273.986 920.868 273.946 921.018 273.986 921.168 274.107 923.159 276.204 928.491 270.477 928.604 270.396 928.791 270.356 928.942 270.396 929.129 270.477 929.204 270.598 929.242 270.8 929.204 271.001 929.129 271.122ZM929.129 282.698 923.421 288.789 923.309 288.91 923.159 288.95 922.933 288.91 922.821 288.789 920.53 286.369 920.455 286.248 920.417 286.046 920.455 285.885 920.53 285.683 920.68 285.602 920.868 285.562 921.018 285.602 921.168 285.683 923.159 287.78 928.491 282.013 928.604 281.932 928.791 281.892 928.942 281.932 929.129 282.053 929.204 282.174 929.242 282.376 929.204 282.537 929.129 282.698ZM943.549 266 917.451 266 917.3 266.081 917.113 266.202 917.038 266.323 917 266.524 917 294.516 917.038 294.758 917.113 294.879 917.3 295 917.451 295 943.549 295 943.7 295 943.887 294.879 943.962 294.758 944 294.516 944 266.524 943.962 266.323 943.887 266.202 943.7 266.081 943.549 266Z"/><path fill="#92D050" fill-rule="evenodd" d="M778 566C778 547.222 793.222 532 812 532L1173 532C1191.78 532 1207 547.222 1207 566L1207 566C1207 584.778 1191.78 600 1173 600L812 600C793.222 600 778 584.778 778 566Z"/><text font-family="Calibri,Calibri_MSFontService,sans-serif" font-size="19" font-weight="400" transform="translate(880.861 549)">LE TEMPS NÉCESSITÉ PAR UN <tspan x="29.84" y="23">VOLUME IMPORTANT </tspan><tspan x="19.267" y="45">DE DONNÉES D’IMAGES.</tspan></text><path fill="#164A27" fill-rule="evenodd" d="M773 565C773 543.461 790.461 526 812 526 833.539 526 851 543.461 851 565 851 586.539 833.539 604 812 604 790.461 604 773 586.539 773 565Z"/><path fill="#FFF" fill-rule="evenodd" d="M832.369 558.879 827.283 558.879 827.157 558.879 827.073 558.921 826.989 558.963 826.863 559.048 826.779 559.132 826.737 559.258 826.695 559.342 826.695 559.468 826.695 561.404 822.869 561.404 821.356 561.446 819.927 561.573 819.212 561.657 818.582 561.825 817.909 561.951 817.237 562.078 816.564 562.288 815.934 562.54 815.345 562.709 814.757 563.003 814.21 563.256 813.622 563.592 813.117 563.845 812.571 564.182 812.445 563.803 812.193 563.424 818.75 556.859 819.296 557.154 819.801 557.406 820.095 557.491 820.389 557.533 820.642 557.575 820.978 557.575 821.356 557.575 821.734 557.491 822.071 557.406 822.449 557.28 822.785 557.112 823.08 556.901 823.416 556.733 823.626 556.481 823.878 556.186 824.131 555.934 824.299 555.597 824.467 555.26 824.593 554.924 824.677 554.545 824.719 554.166 824.803 553.787 824.719 553.409 824.677 553.03 824.593 552.651 824.467 552.315 824.299 551.978 824.131 551.641 823.878 551.347 823.626 551.052 823.416 550.842 823.08 550.631 822.785 550.463 822.449 550.253 822.071 550.168 821.734 550.084 821.356 550 820.978 550 820.6 550 820.221 550.084 819.843 550.168 819.507 550.253 819.17 550.463 818.834 550.631 818.582 550.842 818.288 551.052 818.035 551.347 817.825 551.641 817.615 551.978 817.489 552.315 817.321 552.651 817.237 553.03 817.195 553.409 817.195 553.787 817.237 554.419 817.363 554.966 817.573 555.513 817.909 555.976 811.31 562.54 810.931 562.33 810.511 562.162 810.049 562.035 809.586 561.993 809.25 562.035 808.914 562.078 808.661 562.162 808.367 562.288 808.073 562.372 807.779 562.583 807.569 562.751 807.358 562.961 807.106 563.172 806.938 563.424 806.812 563.677 806.644 563.971 806.56 564.224 806.476 564.56 806.392 564.855 806.392 565.192 806.476 565.654 806.56 566.117 806.686 566.538 806.938 566.959 800.633 573.271 800.212 573.019 799.75 572.935 799.288 572.851 798.825 572.808 798.447 572.808 798.069 572.893 797.69 572.977 797.354 573.061 797.018 573.271 796.681 573.44 796.387 573.65 796.093 573.903 795.883 574.155 795.673 574.45 795.504 574.786 795.294 575.123 795.21 575.46 795.126 575.838 795 576.217 795 576.596 795 576.975 795.126 577.353 795.21 577.732 795.294 578.069 795.504 578.405 795.673 578.742 795.883 579.037 796.093 579.289 796.387 579.542 796.681 579.71 797.018 579.92 797.354 580.131 797.69 580.215 798.069 580.299 798.447 580.383 798.825 580.383 799.204 580.383 799.582 580.299 799.96 580.215 800.296 580.131 800.633 579.92 800.969 579.71 801.221 579.542 801.516 579.289 801.768 579.037 801.936 578.742 802.146 578.405 802.314 578.069 802.44 577.732 802.524 577.353 802.608 576.975 802.608 576.596 802.608 576.217 802.566 575.88 802.482 575.544 802.314 575.207 802.188 574.87 802.062 574.618 801.852 574.323 801.6 574.029 807.821 567.843 808.283 568.095 808.788 568.221 808.199 569.231 807.737 570.326 807.358 571.462 807.022 572.64 806.728 573.903 806.56 575.165 806.476 576.512 806.392 577.858 806.392 581.688 804.5 581.688 804.374 581.688 804.29 581.73 804.164 581.772 804.08 581.856 803.996 581.982 803.954 582.066 803.911 582.151 803.911 582.277 803.911 587.369 803.911 587.495 803.954 587.621 803.996 587.705 804.08 587.79 804.164 587.916 804.29 587.958 804.374 588 804.5 588 809.586 588 809.67 588 809.839 587.958 809.923 587.916 810.007 587.79 810.133 587.705 810.175 587.621 810.217 587.495 810.217 587.369 810.217 582.277 810.217 582.151 810.175 582.066 810.133 581.982 810.007 581.856 809.923 581.772 809.839 581.73 809.67 581.688 809.586 581.688 807.695 581.688 807.695 577.858 807.737 576.47 807.821 575.123 808.031 573.818 808.325 572.598 808.704 571.42 809.124 570.284 809.418 569.736 809.628 569.231 809.923 568.769 810.259 568.264 810.679 568.137 811.1 567.927 811.52 567.674 811.856 567.38 812.15 567.001 812.403 566.622 812.571 566.117 812.697 565.654 813.201 565.318 813.706 564.981 814.252 564.645 814.799 564.392 815.387 564.097 815.934 563.845 816.564 563.635 817.237 563.424 817.867 563.256 818.498 563.087 819.212 562.961 819.927 562.877 820.642 562.751 821.356 562.709 822.113 562.667 822.869 562.667 826.695 562.667 826.695 564.56 826.695 564.645 826.737 564.813 826.779 564.897 826.863 564.981 826.989 565.107 827.073 565.149 827.157 565.192 827.283 565.192 832.369 565.192 832.496 565.192 832.622 565.149 832.706 565.107 832.79 564.981 832.916 564.897 832.958 564.813 833 564.645 833 564.56 833 559.468 833 559.342 832.958 559.258 832.916 559.132 832.79 559.048 832.706 558.963 832.622 558.921 832.496 558.879 832.369 558.879Z"/></g></svg>