<svg version="1.1" xmlns="http://www.w3.org/2000/svg" xmlns:xlink="http://www.w3.org/1999/xlink" x="0px" y="0px"
    viewBox="0 0 800 800" enable-background="new 0 0 1000 1000" width="300" height='300'>
    <g clip-path="url(#clip0)" transform="translate(-718 -123)">
        <g clip-path="url(#clip10)">
            <path d="M1133.71 274.228C1295.21 274.228 1426.21 405.23 1426.21 566.828 1426.21 728.427 1295.21 859.428 
        1133.61 859.428 972.008 859.428 841.007 728.427 841.007 566.828 841.007 536.124 845.839 505.611 855.327 
        476.41L1133.61 566.828Z" fill="#4472C4" fill-rule="evenodd" />
        </g>
        <g clip-path="url(#clip11)">
            <path d="M852.96 474.69C872.055 415.923 909.264 364.71 959.254 328.39L1131.24 565.109Z" fill="#ED7D31"
                fill-rule="evenodd" />
        </g>
        <g clip-path="url(#clip12)">
            <path d="M960.717 327.327C1010.71 291.007 1070.91 271.445 1132.7 271.445L1132.7 564.046Z" fill="#4f5f65"
                fill-rule="evenodd" />
        </g>
        <g clip-path="url(#clip13)">
            <text fill="#4472C4" font-family="Calibri,Calibri_MSFontService,sans-serif" font-weight="700" font-size="29"
                transform="translate(1321.56 844)">Train set
                <tspan y='1cm' x='1.1cm'>80%</tspan>
            </text>
        </g>

        <g clip-path="url(#clip15)">
            <text fill="#ED7D31" font-family="Calibri,Calibri_MSFontService,sans-serif" font-weight="700" font-size="29"
                transform="translate(775.776 320)">
                Validation
                <tspan y='1cm' x='0.5cm'>set 10%</tspan>
            </text>
        </g>
        <g clip-path="url(#clip18)">
            <text fill="#4f5f65" font-family="Calibri,Calibri_MSFontService,sans-serif" font-weight="700" font-size="29"
                transform="translate(939.77 228)">Test set
                <tspan y='1cm' x='1.1cm'>10%</tspan>
            </text>
        </g>
        <g clip-path="url(#clip20)">
            <text fill="#af9909" font-family="Times new roman,Calibri_MSFontService,sans-serif" font-weight="700"
                font-size="44" transform="translate(775.08 180)" align='center'>DIVISION DU JEU DE DONNÉES</text>
        </g>
    </g>
</svg>