<svg 
    width="410" 
    height="230" 
    xmlns="http://www.w3.org/2000/svg" 
    xmlns:xlink="http://www.w3.org/1999/xlink" 
    overflow="hidden"
    viewBox="0 0 930 400"
    style="background:dar kred;width:0%">
<defs><clipPath id="clip0"><path d="M785 303 1656 303 1656 740 785 740Z" fill-rule="evenodd" clip-rule="evenodd"/></clipPath></defs><g clip-path="url(#clip0)" transform="translate(-785 -303)"><path d="M813.5 389.858C940.182 484.942 1066.86 580.026 1131.3 589.651 1195.73 599.276 1177.44 494.698 1200.1 447.611 1222.76 400.524 1246.51 315.196 1267.26 307.132 1288.01 299.067 1308.22 370.347 1324.6 399.224 1340.98 428.1 1350.81 468.423 1365.55 480.389 1380.29 492.356 1404.32 487.934 1413.06 471.024 1421.79 454.115 1399.95 350.316 1417.97 378.932 1435.99 407.548 1499.88 587.31 1521.17 642.721 1542.47 698.132 1535.1 704.636 1545.75 711.4 1556.39 718.163 1580.69 708.538 1585.06 683.304 1589.43 658.07 1567.59 606.04 1571.96 559.994 1576.32 513.948 1597.35 436.425 1611.27 407.028 1625.19 377.631 1645.67 386.997 1655.5 383.615" stroke="#548235" stroke-width="5" stroke-miterlimit="8" fill="none" fill-rule="evenodd"/><path d="M1432.2 501.959 1531.85 609.277 1527.45 613.359 1427.8 506.041ZM1534.21 602.996 1539.86 622.31 1521.02 615.244Z" fill="#002060"/><path d="M1472 567.5C1472 562.253 1478.49 558 1486.5 558 1494.51 558 1501 562.253 1501 567.5 1501 572.747 1494.51 577 1486.5 577 1478.49 577 1472 572.747 1472 567.5Z" stroke="#002060" stroke-width="2" stroke-miterlimit="8" fill="#FF0000" fill-rule="evenodd"/><path d="M1.65262-1.87586 89.3862 75.4171 86.0809 79.1688-1.65262 1.87586ZM90.8156 70.0128 97.1129 85.5561 80.8998 81.2679Z" fill="#580808" transform="matrix(1 0 0 -1 1350.5 679.056)"/><text fill="#2E75B6" font-family="Cambria Math,Cambria Math_MSFontService,sans-serif" font-weight="700" font-size="50" transform="translate(816.092 698)">La Descente du gradient</text></g></svg>