<svg xmlns="http://www.w3.org/2000/svg" xmlns:xlink="http://www.w3.org/1999/xlink" width="1389" height="1018" overflow="hidden"><defs><clipPath id="clip0"><path fill-rule="evenodd" d="M163 14 1552 14 1552 1032 163 1032Z" clip-rule="evenodd"/></clipPath></defs><g clip-path="url(#clip0)" transform="translate(-163 -14)"><rect width="871" height="785" x="503" y="77" fill="#FFF" stroke="#000" stroke-miterlimit="8" stroke-width="2"/><rect width="80" height="66" x="503" y="77" fill="#FFF" stroke="#000" stroke-miterlimit="8" stroke-width="2"/><rect width="80" height="66" x="583" y="77" fill="#FFF" stroke="#000" stroke-miterlimit="8" stroke-width="2"/><rect width="79" height="66" x="663" y="77" fill="#FFF" stroke="#000" stroke-miterlimit="8" stroke-width="2"/><rect width="80" height="66" x="742" y="77" fill="#FFF" stroke="#000" stroke-miterlimit="8" stroke-width="2"/><rect width="80" height="66" x="822" y="77" fill="#FFF" stroke="#000" stroke-miterlimit="8" stroke-width="2"/><rect width="80" height="66" x="898" y="77" fill="#FFF" stroke="#000" stroke-miterlimit="8" stroke-width="2"/><rect width="80" height="66" x="977" y="77" fill="#FFF" stroke="#000" stroke-miterlimit="8" stroke-width="2"/><rect width="79" height="66" x="1057" y="77" fill="#FFF" stroke="#000" stroke-miterlimit="8" stroke-width="2"/><rect width="80" height="66" x="1132" y="77" fill="#FFF" stroke="#000" stroke-miterlimit="8" stroke-width="2"/><rect width="79" height="66" x="1212" y="77" fill="#FFF" stroke="#000" stroke-miterlimit="8" stroke-width="2"/><rect width="80" height="66" x="1294" y="77" fill="#FFF" stroke="#000" stroke-miterlimit="8" stroke-width="2"/><rect width="80" height="66" x="503" y="143" fill="#FFF" stroke="#000" stroke-miterlimit="8" stroke-width="2"/><rect width="80" height="66" x="583" y="143" fill="#FFF" stroke="#000" stroke-miterlimit="8" stroke-width="2"/><rect width="79" height="66" x="663" y="143" fill="#FFF" stroke="#000" stroke-miterlimit="8" stroke-width="2"/><rect width="80" height="66" x="742" y="143" fill="#FFF" stroke="#000" stroke-miterlimit="8" stroke-width="2"/><rect width="80" height="66" x="822" y="143" stroke="#000" stroke-miterlimit="8" stroke-width="2"/><rect width="80" height="66" x="898" y="143" fill="#FFF" stroke="#000" stroke-miterlimit="8" stroke-width="2"/><rect width="80" height="66" x="977" y="143" stroke="#000" stroke-miterlimit="8" stroke-width="2"/><rect width="79" height="66" x="1057" y="143" fill="#FFF" stroke="#000" stroke-miterlimit="8" stroke-width="2"/><rect width="80" height="66" x="1132" y="143" fill="#FFF" stroke="#000" stroke-miterlimit="8" stroke-width="2"/><rect width="79" height="66" x="1212" y="143" fill="#FFF" stroke="#000" stroke-miterlimit="8" stroke-width="2"/><rect width="80" height="66" x="1294" y="143" fill="#FFF" stroke="#000" stroke-miterlimit="8" stroke-width="2"/><rect width="80" height="67" x="503" y="209" fill="#FFF" stroke="#000" stroke-miterlimit="8" stroke-width="2"/><rect width="80" height="67" x="583" y="209" fill="#FFF" stroke="#000" stroke-miterlimit="8" stroke-width="2"/><rect width="79" height="67" x="663" y="209" fill="#FFF" stroke="#000" stroke-miterlimit="8" stroke-width="2"/><rect width="80" height="67" x="742" y="209" stroke="#000" stroke-miterlimit="8" stroke-width="2"/><rect width="80" height="67" x="822" y="209" fill="#FFF" stroke="#000" stroke-miterlimit="8" stroke-width="2"/><rect width="80" height="67" x="898" y="209" fill="#FFF" stroke="#000" stroke-miterlimit="8" stroke-width="2"/><rect width="80" height="67" x="977" y="209" fill="#FFF" stroke="#000" stroke-miterlimit="8" stroke-width="2"/><rect width="79" height="67" x="1057" y="209" stroke="#000" stroke-miterlimit="8" stroke-width="2"/><rect width="80" height="67" x="1132" y="209" fill="#FFF" stroke="#000" stroke-miterlimit="8" stroke-width="2"/><rect width="79" height="67" x="1212" y="209" fill="#FFF" stroke="#000" stroke-miterlimit="8" stroke-width="2"/><rect width="80" height="67" x="1294" y="209" fill="#FFF" stroke="#000" stroke-miterlimit="8" stroke-width="2"/><rect width="80" height="66" x="503" y="276" fill="#FFF" stroke="#000" stroke-miterlimit="8" stroke-width="2"/><rect width="80" height="66" x="583" y="276" fill="#FFF" stroke="#000" stroke-miterlimit="8" stroke-width="2"/><rect width="79" height="66" x="663" y="276" stroke="#000" stroke-miterlimit="8" stroke-width="2"/><rect width="80" height="66" x="742" y="276" fill="#FFF" stroke="#000" stroke-miterlimit="8" stroke-width="2"/><rect width="80" height="66" x="822" y="276" fill="#FFF" stroke="#000" stroke-miterlimit="8" stroke-width="2"/><rect width="80" height="66" x="898" y="276" fill="#FFF" stroke="#000" stroke-miterlimit="8" stroke-width="2"/><rect width="80" height="66" x="977" y="276" fill="#FFF" stroke="#000" stroke-miterlimit="8" stroke-width="2"/><rect width="79" height="66" x="1057" y="276" fill="#FFF" stroke="#000" stroke-miterlimit="8" stroke-width="2"/><rect width="80" height="66" x="1132" y="276" stroke="#000" stroke-miterlimit="8" stroke-width="2"/><rect width="79" height="66" x="1212" y="276" fill="#FFF" stroke="#000" stroke-miterlimit="8" stroke-width="2"/><rect width="80" height="66" x="1294" y="276" fill="#FFF" stroke="#000" stroke-miterlimit="8" stroke-width="2"/><rect width="80" height="66" x="503" y="342" fill="#FFF" stroke="#000" stroke-miterlimit="8" stroke-width="2"/><rect width="80" height="66" x="583" y="342" stroke="#000" stroke-miterlimit="8" stroke-width="2"/><rect width="79" height="66" x="663" y="342" fill="#FFF" stroke="#000" stroke-miterlimit="8" stroke-width="2"/><rect width="80" height="66" x="742" y="342" fill="#FFF" stroke="#000" stroke-miterlimit="8" stroke-width="2"/><rect width="80" height="66" x="822" y="342" fill="#C55A11" stroke="#000" stroke-miterlimit="8" stroke-width="2"/><rect width="80" height="66" x="898" y="342" fill="#FFF" stroke="#000" stroke-miterlimit="8" stroke-width="2"/><rect width="80" height="66" x="977" y="342" fill="#C55A11" stroke="#000" stroke-miterlimit="8" stroke-width="2"/><rect width="79" height="66" x="1057" y="342" fill="#FFF" stroke="#000" stroke-miterlimit="8" stroke-width="2"/><rect width="80" height="66" x="1132" y="342" fill="#FFF" stroke="#000" stroke-miterlimit="8" stroke-width="2"/><rect width="79" height="66" x="1212" y="342" stroke="#000" stroke-miterlimit="8" stroke-width="2"/><rect width="80" height="66" x="1294" y="342" fill="#FFF" stroke="#000" stroke-miterlimit="8" stroke-width="2"/><rect width="80" height="66" x="503" y="408" fill="#FFF" stroke="#000" stroke-miterlimit="8" stroke-width="2"/><rect width="80" height="66" x="583" y="408" stroke="#000" stroke-miterlimit="8" stroke-width="2"/><rect width="79" height="66" x="663" y="408" fill="#FFF" stroke="#000" stroke-miterlimit="8" stroke-width="2"/><rect width="80" height="66" x="742" y="408" fill="#FFF" stroke="#000" stroke-miterlimit="8" stroke-width="2"/><rect width="80" height="66" x="822" y="408" fill="#FFF" stroke="#000" stroke-miterlimit="8" stroke-width="2"/><rect width="80" height="66" x="898" y="408" fill="#FFF" stroke="#000" stroke-miterlimit="8" stroke-width="2"/><rect width="80" height="66" x="977" y="408" fill="#FFF" stroke="#000" stroke-miterlimit="8" stroke-width="2"/><rect width="79" height="66" x="1057" y="408" fill="#FFF" stroke="#000" stroke-miterlimit="8" stroke-width="2"/><rect width="80" height="66" x="1132" y="408" fill="#FFF" stroke="#000" stroke-miterlimit="8" stroke-width="2"/><rect width="79" height="66" x="1212" y="408" stroke="#000" stroke-miterlimit="8" stroke-width="2"/><rect width="80" height="66" x="1294" y="408" fill="#FFF" stroke="#000" stroke-miterlimit="8" stroke-width="2"/><rect width="80" height="66" x="503" y="474" fill="#FFF" stroke="#000" stroke-miterlimit="8" stroke-width="2"/><rect width="80" height="66" x="583" y="474" stroke="#000" stroke-miterlimit="8" stroke-width="2"/><rect width="79" height="66" x="663" y="474" fill="#FFF" stroke="#000" stroke-miterlimit="8" stroke-width="2"/><rect width="80" height="66" x="742" y="474" fill="#FFF" stroke="#000" stroke-miterlimit="8" stroke-width="2"/><rect width="80" height="66" x="822" y="474" fill="#FFF" stroke="#000" stroke-miterlimit="8" stroke-width="2"/><rect width="80" height="66" x="898" y="474" fill="#002060" stroke="#000" stroke-miterlimit="8" stroke-width="2"/><rect width="80" height="66" x="977" y="474" fill="#FFF" stroke="#000" stroke-miterlimit="8" stroke-width="2"/><rect width="79" height="66" x="1057" y="474" fill="#FFF" stroke="#000" stroke-miterlimit="8" stroke-width="2"/><rect width="80" height="66" x="1132" y="474" fill="#FFF" stroke="#000" stroke-miterlimit="8" stroke-width="2"/><rect width="79" height="66" x="1212" y="474" stroke="#000" stroke-miterlimit="8" stroke-width="2"/><rect width="80" height="66" x="1294" y="474" fill="#FFF" stroke="#000" stroke-miterlimit="8" stroke-width="2"/><rect width="80" height="66" x="503" y="536" fill="#FFF" stroke="#000" stroke-miterlimit="8" stroke-width="2"/><rect width="80" height="66" x="583" y="536" stroke="#000" stroke-miterlimit="8" stroke-width="2"/><rect width="79" height="66" x="663" y="536" fill="#FFF" stroke="#000" stroke-miterlimit="8" stroke-width="2"/><rect width="80" height="66" x="742" y="536" stroke="#000" stroke-miterlimit="8" stroke-width="2"/><rect width="80" height="66" x="822" y="536" fill="#FFF" stroke="#000" stroke-miterlimit="8" stroke-width="2"/><rect width="80" height="66" x="898" y="536" fill="#FFF" stroke="#000" stroke-miterlimit="8" stroke-width="2"/><rect width="80" height="66" x="977" y="536" fill="#FFF" stroke="#000" stroke-miterlimit="8" stroke-width="2"/><rect width="79" height="66" x="1057" y="536" stroke="#000" stroke-miterlimit="8" stroke-width="2"/><rect width="80" height="66" x="1132" y="536" fill="#FFF" stroke="#000" stroke-miterlimit="8" stroke-width="2"/><rect width="79" height="66" x="1212" y="536" stroke="#000" stroke-miterlimit="8" stroke-width="2"/><rect width="80" height="66" x="1294" y="536" fill="#FFF" stroke="#000" stroke-miterlimit="8" stroke-width="2"/><rect width="80" height="66" x="503" y="602" fill="#FFF" stroke="#000" stroke-miterlimit="8" stroke-width="2"/><rect width="80" height="66" x="583" y="602" stroke="#000" stroke-miterlimit="8" stroke-width="2"/><rect width="79" height="66" x="663" y="602" fill="#FFF" stroke="#000" stroke-miterlimit="8" stroke-width="2"/><rect width="80" height="66" x="742" y="602" fill="#FFF" stroke="#000" stroke-miterlimit="8" stroke-width="2"/><rect width="80" height="66" x="822" y="602" stroke="#000" stroke-miterlimit="8" stroke-width="2"/><rect width="80" height="66" x="898" y="602" stroke="#000" stroke-miterlimit="8" stroke-width="2"/><rect width="80" height="66" x="977" y="602" stroke="#000" stroke-miterlimit="8" stroke-width="2"/><rect width="79" height="66" x="1057" y="602" fill="#FFF" stroke="#000" stroke-miterlimit="8" stroke-width="2"/><rect width="80" height="66" x="1132" y="602" fill="#FFF" stroke="#000" stroke-miterlimit="8" stroke-width="2"/><rect width="79" height="66" x="1212" y="602" stroke="#000" stroke-miterlimit="8" stroke-width="2"/><rect width="80" height="66" x="1294" y="602" fill="#FFF" stroke="#000" stroke-miterlimit="8" stroke-width="2"/><rect width="80" height="66" x="895" y="143" stroke="#000" stroke-miterlimit="8" stroke-width="2"/><rect width="80" height="66" x="503" y="664" fill="#FFF" stroke="#000" stroke-miterlimit="8" stroke-width="2"/><rect width="80" height="66" x="583" y="664" fill="#FFF" stroke="#000" stroke-miterlimit="8" stroke-width="2"/><rect width="79" height="66" x="663" y="664" stroke="#000" stroke-miterlimit="8" stroke-width="2"/><rect width="80" height="66" x="742" y="664" fill="#FFF" stroke="#000" stroke-miterlimit="8" stroke-width="2"/><rect width="80" height="66" x="822" y="664" fill="#FFF" stroke="#000" stroke-miterlimit="8" stroke-width="2"/><rect width="80" height="66" x="898" y="664" fill="#FFF" stroke="#000" stroke-miterlimit="8" stroke-width="2"/><rect width="80" height="66" x="977" y="664" fill="#FFF" stroke="#000" stroke-miterlimit="8" stroke-width="2"/><rect width="79" height="66" x="1057" y="664" fill="#FFF" stroke="#000" stroke-miterlimit="8" stroke-width="2"/><rect width="80" height="66" x="1132" y="664" stroke="#000" stroke-miterlimit="8" stroke-width="2"/><rect width="79" height="66" x="1212" y="664" fill="#FFF" stroke="#000" stroke-miterlimit="8" stroke-width="2"/><rect width="80" height="66" x="1294" y="664" fill="#FFF" stroke="#000" stroke-miterlimit="8" stroke-width="2"/><rect width="80" height="66" x="503" y="730" fill="#FFF" stroke="#000" stroke-miterlimit="8" stroke-width="2"/><rect width="80" height="66" x="583" y="730" fill="#FFF" stroke="#000" stroke-miterlimit="8" stroke-width="2"/><rect width="79" height="66" x="663" y="730" fill="#FFF" stroke="#000" stroke-miterlimit="8" stroke-width="2"/><rect width="80" height="66" x="742" y="730" fill="#FFF" stroke="#000" stroke-miterlimit="8" stroke-width="2"/><rect width="80" height="66" x="822" y="730" fill="#FFF" stroke="#000" stroke-miterlimit="8" stroke-width="2"/><rect width="80" height="66" x="898" y="730" fill="#FFF" stroke="#000" stroke-miterlimit="8" stroke-width="2"/><rect width="80" height="66" x="977" y="730" fill="#FFF" stroke="#000" stroke-miterlimit="8" stroke-width="2"/><rect width="79" height="66" x="1057" y="730" stroke="#000" stroke-miterlimit="8" stroke-width="2"/><rect width="80" height="66" x="1132" y="730" fill="#FFF" stroke="#000" stroke-miterlimit="8" stroke-width="2"/><rect width="79" height="66" x="1212" y="730" fill="#FFF" stroke="#000" stroke-miterlimit="8" stroke-width="2"/><rect width="80" height="66" x="1294" y="730" fill="#FFF" stroke="#000" stroke-miterlimit="8" stroke-width="2"/><rect width="80" height="66" x="504" y="730" fill="#FFF" stroke="#000" stroke-miterlimit="8" stroke-width="2"/><rect width="80" height="66" x="584" y="730" fill="#FFF" stroke="#000" stroke-miterlimit="8" stroke-width="2"/><rect width="79" height="66" x="664" y="730" fill="#FFF" stroke="#000" stroke-miterlimit="8" stroke-width="2"/><rect width="80" height="66" x="743" y="730" stroke="#000" stroke-miterlimit="8" stroke-width="2"/><rect width="80" height="66" x="823" y="730" stroke="#000" stroke-miterlimit="8" stroke-width="2"/><rect width="80" height="66" x="899" y="730" stroke="#000" stroke-miterlimit="8" stroke-width="2"/><rect width="80" height="66" x="978" y="730" stroke="#000" stroke-miterlimit="8" stroke-width="2"/><rect width="79" height="66" x="1057" y="796" fill="#FFF" stroke="#000" stroke-miterlimit="8" stroke-width="2"/><rect width="80" height="66" x="1132" y="796" fill="#FFF" stroke="#000" stroke-miterlimit="8" stroke-width="2"/><rect width="79" height="66" x="1212" y="796" fill="#FFF" stroke="#000" stroke-miterlimit="8" stroke-width="2"/><rect width="80" height="66" x="1294" y="796" fill="#FFF" stroke="#000" stroke-miterlimit="8" stroke-width="2"/><rect width="80" height="66" x="504" y="796" fill="#FFF" stroke="#000" stroke-miterlimit="8" stroke-width="2"/><rect width="80" height="66" x="584" y="796" fill="#FFF" stroke="#000" stroke-miterlimit="8" stroke-width="2"/><rect width="79" height="66" x="664" y="796" fill="#FFF" stroke="#000" stroke-miterlimit="8" stroke-width="2"/><rect width="80" height="66" x="743" y="796" fill="#FFF" stroke="#000" stroke-miterlimit="8" stroke-width="2"/><rect width="80" height="66" x="823" y="796" fill="#FFF" stroke="#000" stroke-miterlimit="8" stroke-width="2"/><rect width="80" height="66" x="899" y="796" fill="#FFF" stroke="#000" stroke-miterlimit="8" stroke-width="2"/><rect width="80" height="66" x="978" y="796" fill="#FFF" stroke="#000" stroke-miterlimit="8" stroke-width="2"/><path d="M408 37.4172 408 899.727 406 899.727 406 37.4172ZM400.75 39.5 407 27 413.25 39.5Z"/><path d="M10.4153-0.999998 1131.08-0.999836 1131.08 1.00016 10.4153 1ZM12.5 6.25 0 0 12.5-6.25Z" transform="matrix(-1 -8.74228e-08 -8.74228e-08 1 1539.08 900)"/><text font-family="Calibri,Calibri_MSFontService,sans-serif" font-size="50" font-weight="700" transform="translate(194.032 439)">Hauteur <tspan x="0" y="60">(Lignes)</tspan><tspan x="518.485" y="542" font-size="58">Largeur (Colonnes)</tspan></text></g></svg>