<svg width="1389" height="1018" xmlns="http://www.w3.org/2000/svg" xmlns:xlink="http://www.w3.org/1999/xlink" overflow="hidden"><defs><clipPath id="clip0"><path d="M163 14 1552 14 1552 1032 163 1032Z" fill-rule="evenodd" clip-rule="evenodd"/></clipPath></defs><g clip-path="url(#clip0)" transform="translate(-163 -14)"><rect x="503" y="77" width="871" height="785" stroke="#000000" stroke-width="2" stroke-miterlimit="8" fill="#FFFFFF"/><rect x="503" y="77" width="80" height="66" stroke="#000000" stroke-width="2" stroke-miterlimit="8" fill="#FFFFFF"/><rect x="583" y="77" width="80" height="66" stroke="#000000" stroke-width="2" stroke-miterlimit="8" fill="#FFFFFF"/><rect x="663" y="77" width="79" height="66" stroke="#000000" stroke-width="2" stroke-miterlimit="8" fill="#FFFFFF"/><rect x="742" y="77" width="80" height="66" stroke="#000000" stroke-width="2" stroke-miterlimit="8" fill="#FFFFFF"/><rect x="822" y="77" width="80" height="66" stroke="#000000" stroke-width="2" stroke-miterlimit="8" fill="#FFFFFF"/><rect x="898" y="77" width="80" height="66" stroke="#000000" stroke-width="2" stroke-miterlimit="8" fill="#FFFFFF"/><rect x="977" y="77" width="80" height="66" stroke="#000000" stroke-width="2" stroke-miterlimit="8" fill="#FFFFFF"/><rect x="1057" y="77" width="79" height="66" stroke="#000000" stroke-width="2" stroke-miterlimit="8" fill="#FFFFFF"/><rect x="1132" y="77" width="80" height="66" stroke="#000000" stroke-width="2" stroke-miterlimit="8" fill="#FFFFFF"/><rect x="1212" y="77" width="79" height="66" stroke="#000000" stroke-width="2" stroke-miterlimit="8" fill="#FFFFFF"/><rect x="1294" y="77" width="80" height="66" stroke="#000000" stroke-width="2" stroke-miterlimit="8" fill="#FFFFFF"/><rect x="503" y="143" width="80" height="66" stroke="#000000" stroke-width="2" stroke-miterlimit="8" fill="#FFFFFF"/><rect x="583" y="143" width="80" height="66" stroke="#000000" stroke-width="2" stroke-miterlimit="8" fill="#FFFFFF"/><rect x="663" y="143" width="79" height="66" stroke="#000000" stroke-width="2" stroke-miterlimit="8" fill="#FFFFFF"/><rect x="742" y="143" width="80" height="66" stroke="#000000" stroke-width="2" stroke-miterlimit="8" fill="#FFFFFF"/><rect x="822" y="143" width="80" height="66" stroke="#000000" stroke-width="2" stroke-miterlimit="8"/><rect x="898" y="143" width="80" height="66" stroke="#000000" stroke-width="2" stroke-miterlimit="8" fill="#FFFFFF"/><rect x="977" y="143" width="80" height="66" stroke="#000000" stroke-width="2" stroke-miterlimit="8"/><rect x="1057" y="143" width="79" height="66" stroke="#000000" stroke-width="2" stroke-miterlimit="8" fill="#FFFFFF"/><rect x="1132" y="143" width="80" height="66" stroke="#000000" stroke-width="2" stroke-miterlimit="8" fill="#FFFFFF"/><rect x="1212" y="143" width="79" height="66" stroke="#000000" stroke-width="2" stroke-miterlimit="8" fill="#FFFFFF"/><rect x="1294" y="143" width="80" height="66" stroke="#000000" stroke-width="2" stroke-miterlimit="8" fill="#FFFFFF"/><rect x="503" y="209" width="80" height="67" stroke="#000000" stroke-width="2" stroke-miterlimit="8" fill="#FFFFFF"/><rect x="583" y="209" width="80" height="67" stroke="#000000" stroke-width="2" stroke-miterlimit="8" fill="#FFFFFF"/><rect x="663" y="209" width="79" height="67" stroke="#000000" stroke-width="2" stroke-miterlimit="8" fill="#FFFFFF"/><rect x="742" y="209" width="80" height="67" stroke="#000000" stroke-width="2" stroke-miterlimit="8"/><rect x="822" y="209" width="80" height="67" stroke="#000000" stroke-width="2" stroke-miterlimit="8" fill="#FFFFFF"/><rect x="898" y="209" width="80" height="67" stroke="#000000" stroke-width="2" stroke-miterlimit="8" fill="#FFFFFF"/><rect x="977" y="209" width="80" height="67" stroke="#000000" stroke-width="2" stroke-miterlimit="8" fill="#FFFFFF"/><rect x="1057" y="209" width="79" height="67" stroke="#000000" stroke-width="2" stroke-miterlimit="8"/><rect x="1132" y="209" width="80" height="67" stroke="#000000" stroke-width="2" stroke-miterlimit="8" fill="#FFFFFF"/><rect x="1212" y="209" width="79" height="67" stroke="#000000" stroke-width="2" stroke-miterlimit="8" fill="#FFFFFF"/><rect x="1294" y="209" width="80" height="67" stroke="#000000" stroke-width="2" stroke-miterlimit="8" fill="#FFFFFF"/><rect x="503" y="276" width="80" height="66" stroke="#000000" stroke-width="2" stroke-miterlimit="8" fill="#FFFFFF"/><rect x="583" y="276" width="80" height="66" stroke="#000000" stroke-width="2" stroke-miterlimit="8" fill="#FFFFFF"/><rect x="663" y="276" width="79" height="66" stroke="#000000" stroke-width="2" stroke-miterlimit="8"/><rect x="742" y="276" width="80" height="66" stroke="#000000" stroke-width="2" stroke-miterlimit="8" fill="#FFFFFF"/><rect x="822" y="276" width="80" height="66" stroke="#000000" stroke-width="2" stroke-miterlimit="8" fill="#FFFFFF"/><rect x="898" y="276" width="80" height="66" stroke="#000000" stroke-width="2" stroke-miterlimit="8" fill="#FFFFFF"/><rect x="977" y="276" width="80" height="66" stroke="#000000" stroke-width="2" stroke-miterlimit="8" fill="#FFFFFF"/><rect x="1057" y="276" width="79" height="66" stroke="#000000" stroke-width="2" stroke-miterlimit="8" fill="#FFFFFF"/><rect x="1132" y="276" width="80" height="66" stroke="#000000" stroke-width="2" stroke-miterlimit="8"/><rect x="1212" y="276" width="79" height="66" stroke="#000000" stroke-width="2" stroke-miterlimit="8" fill="#FFFFFF"/><rect x="1294" y="276" width="80" height="66" stroke="#000000" stroke-width="2" stroke-miterlimit="8" fill="#FFFFFF"/><rect x="503" y="342" width="80" height="66" stroke="#000000" stroke-width="2" stroke-miterlimit="8" fill="#FFFFFF"/><rect x="583" y="342" width="80" height="66" stroke="#000000" stroke-width="2" stroke-miterlimit="8"/><rect x="663" y="342" width="79" height="66" stroke="#000000" stroke-width="2" stroke-miterlimit="8" fill="#FFFFFF"/><rect x="742" y="342" width="80" height="66" stroke="#000000" stroke-width="2" stroke-miterlimit="8" fill="#FFFFFF"/><rect x="822" y="342" width="80" height="66" stroke="#000000" stroke-width="2" stroke-miterlimit="8" fill="#C55A11"/><rect x="898" y="342" width="80" height="66" stroke="#000000" stroke-width="2" stroke-miterlimit="8" fill="#FFFFFF"/><rect x="977" y="342" width="80" height="66" stroke="#000000" stroke-width="2" stroke-miterlimit="8" fill="#C55A11"/><rect x="1057" y="342" width="79" height="66" stroke="#000000" stroke-width="2" stroke-miterlimit="8" fill="#FFFFFF"/><rect x="1132" y="342" width="80" height="66" stroke="#000000" stroke-width="2" stroke-miterlimit="8" fill="#FFFFFF"/><rect x="1212" y="342" width="79" height="66" stroke="#000000" stroke-width="2" stroke-miterlimit="8"/><rect x="1294" y="342" width="80" height="66" stroke="#000000" stroke-width="2" stroke-miterlimit="8" fill="#FFFFFF"/><rect x="503" y="408" width="80" height="66" stroke="#000000" stroke-width="2" stroke-miterlimit="8" fill="#FFFFFF"/><rect x="583" y="408" width="80" height="66" stroke="#000000" stroke-width="2" stroke-miterlimit="8"/><rect x="663" y="408" width="79" height="66" stroke="#000000" stroke-width="2" stroke-miterlimit="8" fill="#FFFFFF"/><rect x="742" y="408" width="80" height="66" stroke="#000000" stroke-width="2" stroke-miterlimit="8" fill="#FFFFFF"/><rect x="822" y="408" width="80" height="66" stroke="#000000" stroke-width="2" stroke-miterlimit="8" fill="#FFFFFF"/><rect x="898" y="408" width="80" height="66" stroke="#000000" stroke-width="2" stroke-miterlimit="8" fill="#FFFFFF"/><rect x="977" y="408" width="80" height="66" stroke="#000000" stroke-width="2" stroke-miterlimit="8" fill="#FFFFFF"/><rect x="1057" y="408" width="79" height="66" stroke="#000000" stroke-width="2" stroke-miterlimit="8" fill="#FFFFFF"/><rect x="1132" y="408" width="80" height="66" stroke="#000000" stroke-width="2" stroke-miterlimit="8" fill="#FFFFFF"/><rect x="1212" y="408" width="79" height="66" stroke="#000000" stroke-width="2" stroke-miterlimit="8"/><rect x="1294" y="408" width="80" height="66" stroke="#000000" stroke-width="2" stroke-miterlimit="8" fill="#FFFFFF"/><rect x="503" y="474" width="80" height="66" stroke="#000000" stroke-width="2" stroke-miterlimit="8" fill="#FFFFFF"/><rect x="583" y="474" width="80" height="66" stroke="#000000" stroke-width="2" stroke-miterlimit="8"/><rect x="663" y="474" width="79" height="66" stroke="#000000" stroke-width="2" stroke-miterlimit="8" fill="#FFFFFF"/><rect x="742" y="474" width="80" height="66" stroke="#000000" stroke-width="2" stroke-miterlimit="8" fill="#FFFFFF"/><rect x="822" y="474" width="80" height="66" stroke="#000000" stroke-width="2" stroke-miterlimit="8" fill="#FFFFFF"/><rect x="898" y="474" width="80" height="66" stroke="#000000" stroke-width="2" stroke-miterlimit="8" fill="#002060"/><rect x="977" y="474" width="80" height="66" stroke="#000000" stroke-width="2" stroke-miterlimit="8" fill="#FFFFFF"/><rect x="1057" y="474" width="79" height="66" stroke="#000000" stroke-width="2" stroke-miterlimit="8" fill="#FFFFFF"/><rect x="1132" y="474" width="80" height="66" stroke="#000000" stroke-width="2" stroke-miterlimit="8" fill="#FFFFFF"/><rect x="1212" y="474" width="79" height="66" stroke="#000000" stroke-width="2" stroke-miterlimit="8"/><rect x="1294" y="474" width="80" height="66" stroke="#000000" stroke-width="2" stroke-miterlimit="8" fill="#FFFFFF"/><rect x="503" y="536" width="80" height="66" stroke="#000000" stroke-width="2" stroke-miterlimit="8" fill="#FFFFFF"/><rect x="583" y="536" width="80" height="66" stroke="#000000" stroke-width="2" stroke-miterlimit="8"/><rect x="663" y="536" width="79" height="66" stroke="#000000" stroke-width="2" stroke-miterlimit="8" fill="#FFFFFF"/><rect x="742" y="536" width="80" height="66" stroke="#000000" stroke-width="2" stroke-miterlimit="8"/><rect x="822" y="536" width="80" height="66" stroke="#000000" stroke-width="2" stroke-miterlimit="8" fill="#FFFFFF"/><rect x="898" y="536" width="80" height="66" stroke="#000000" stroke-width="2" stroke-miterlimit="8" fill="#FFFFFF"/><rect x="977" y="536" width="80" height="66" stroke="#000000" stroke-width="2" stroke-miterlimit="8" fill="#FFFFFF"/><rect x="1057" y="536" width="79" height="66" stroke="#000000" stroke-width="2" stroke-miterlimit="8"/><rect x="1132" y="536" width="80" height="66" stroke="#000000" stroke-width="2" stroke-miterlimit="8" fill="#FFFFFF"/><rect x="1212" y="536" width="79" height="66" stroke="#000000" stroke-width="2" stroke-miterlimit="8"/><rect x="1294" y="536" width="80" height="66" stroke="#000000" stroke-width="2" stroke-miterlimit="8" fill="#FFFFFF"/><rect x="503" y="602" width="80" height="66" stroke="#000000" stroke-width="2" stroke-miterlimit="8" fill="#FFFFFF"/><rect x="583" y="602" width="80" height="66" stroke="#000000" stroke-width="2" stroke-miterlimit="8"/><rect x="663" y="602" width="79" height="66" stroke="#000000" stroke-width="2" stroke-miterlimit="8" fill="#FFFFFF"/><rect x="742" y="602" width="80" height="66" stroke="#000000" stroke-width="2" stroke-miterlimit="8" fill="#FFFFFF"/><rect x="822" y="602" width="80" height="66" stroke="#000000" stroke-width="2" stroke-miterlimit="8"/><rect x="898" y="602" width="80" height="66" stroke="#000000" stroke-width="2" stroke-miterlimit="8"/><rect x="977" y="602" width="80" height="66" stroke="#000000" stroke-width="2" stroke-miterlimit="8"/><rect x="1057" y="602" width="79" height="66" stroke="#000000" stroke-width="2" stroke-miterlimit="8" fill="#FFFFFF"/><rect x="1132" y="602" width="80" height="66" stroke="#000000" stroke-width="2" stroke-miterlimit="8" fill="#FFFFFF"/><rect x="1212" y="602" width="79" height="66" stroke="#000000" stroke-width="2" stroke-miterlimit="8"/><rect x="1294" y="602" width="80" height="66" stroke="#000000" stroke-width="2" stroke-miterlimit="8" fill="#FFFFFF"/><rect x="895" y="143" width="80" height="66" stroke="#000000" stroke-width="2" stroke-miterlimit="8"/><rect x="503" y="664" width="80" height="66" stroke="#000000" stroke-width="2" stroke-miterlimit="8" fill="#FFFFFF"/><rect x="583" y="664" width="80" height="66" stroke="#000000" stroke-width="2" stroke-miterlimit="8" fill="#FFFFFF"/><rect x="663" y="664" width="79" height="66" stroke="#000000" stroke-width="2" stroke-miterlimit="8"/><rect x="742" y="664" width="80" height="66" stroke="#000000" stroke-width="2" stroke-miterlimit="8" fill="#FFFFFF"/><rect x="822" y="664" width="80" height="66" stroke="#000000" stroke-width="2" stroke-miterlimit="8" fill="#FFFFFF"/><rect x="898" y="664" width="80" height="66" stroke="#000000" stroke-width="2" stroke-miterlimit="8" fill="#FFFFFF"/><rect x="977" y="664" width="80" height="66" stroke="#000000" stroke-width="2" stroke-miterlimit="8" fill="#FFFFFF"/><rect x="1057" y="664" width="79" height="66" stroke="#000000" stroke-width="2" stroke-miterlimit="8" fill="#FFFFFF"/><rect x="1132" y="664" width="80" height="66" stroke="#000000" stroke-width="2" stroke-miterlimit="8"/><rect x="1212" y="664" width="79" height="66" stroke="#000000" stroke-width="2" stroke-miterlimit="8" fill="#FFFFFF"/><rect x="1294" y="664" width="80" height="66" stroke="#000000" stroke-width="2" stroke-miterlimit="8" fill="#FFFFFF"/><rect x="503" y="730" width="80" height="66" stroke="#000000" stroke-width="2" stroke-miterlimit="8" fill="#FFFFFF"/><rect x="583" y="730" width="80" height="66" stroke="#000000" stroke-width="2" stroke-miterlimit="8" fill="#FFFFFF"/><rect x="663" y="730" width="79" height="66" stroke="#000000" stroke-width="2" stroke-miterlimit="8" fill="#FFFFFF"/><rect x="742" y="730" width="80" height="66" stroke="#000000" stroke-width="2" stroke-miterlimit="8" fill="#FFFFFF"/><rect x="822" y="730" width="80" height="66" stroke="#000000" stroke-width="2" stroke-miterlimit="8" fill="#FFFFFF"/><rect x="898" y="730" width="80" height="66" stroke="#000000" stroke-width="2" stroke-miterlimit="8" fill="#FFFFFF"/><rect x="977" y="730" width="80" height="66" stroke="#000000" stroke-width="2" stroke-miterlimit="8" fill="#FFFFFF"/><rect x="1057" y="730" width="79" height="66" stroke="#000000" stroke-width="2" stroke-miterlimit="8"/><rect x="1132" y="730" width="80" height="66" stroke="#000000" stroke-width="2" stroke-miterlimit="8" fill="#FFFFFF"/><rect x="1212" y="730" width="79" height="66" stroke="#000000" stroke-width="2" stroke-miterlimit="8" fill="#FFFFFF"/><rect x="1294" y="730" width="80" height="66" stroke="#000000" stroke-width="2" stroke-miterlimit="8" fill="#FFFFFF"/><rect x="504" y="730" width="80" height="66" stroke="#000000" stroke-width="2" stroke-miterlimit="8" fill="#FFFFFF"/><rect x="584" y="730" width="80" height="66" stroke="#000000" stroke-width="2" stroke-miterlimit="8" fill="#FFFFFF"/><rect x="664" y="730" width="79" height="66" stroke="#000000" stroke-width="2" stroke-miterlimit="8" fill="#FFFFFF"/><rect x="743" y="730" width="80" height="66" stroke="#000000" stroke-width="2" stroke-miterlimit="8"/><rect x="823" y="730" width="80" height="66" stroke="#000000" stroke-width="2" stroke-miterlimit="8"/><rect x="899" y="730" width="80" height="66" stroke="#000000" stroke-width="2" stroke-miterlimit="8"/><rect x="978" y="730" width="80" height="66" stroke="#000000" stroke-width="2" stroke-miterlimit="8"/><rect x="1057" y="796" width="79" height="66" stroke="#000000" stroke-width="2" stroke-miterlimit="8" fill="#FFFFFF"/><rect x="1132" y="796" width="80" height="66" stroke="#000000" stroke-width="2" stroke-miterlimit="8" fill="#FFFFFF"/><rect x="1212" y="796" width="79" height="66" stroke="#000000" stroke-width="2" stroke-miterlimit="8" fill="#FFFFFF"/><rect x="1294" y="796" width="80" height="66" stroke="#000000" stroke-width="2" stroke-miterlimit="8" fill="#FFFFFF"/><rect x="504" y="796" width="80" height="66" stroke="#000000" stroke-width="2" stroke-miterlimit="8" fill="#FFFFFF"/><rect x="584" y="796" width="80" height="66" stroke="#000000" stroke-width="2" stroke-miterlimit="8" fill="#FFFFFF"/><rect x="664" y="796" width="79" height="66" stroke="#000000" stroke-width="2" stroke-miterlimit="8" fill="#FFFFFF"/><rect x="743" y="796" width="80" height="66" stroke="#000000" stroke-width="2" stroke-miterlimit="8" fill="#FFFFFF"/><rect x="823" y="796" width="80" height="66" stroke="#000000" stroke-width="2" stroke-miterlimit="8" fill="#FFFFFF"/><rect x="899" y="796" width="80" height="66" stroke="#000000" stroke-width="2" stroke-miterlimit="8" fill="#FFFFFF"/><rect x="978" y="796" width="80" height="66" stroke="#000000" stroke-width="2" stroke-miterlimit="8" fill="#FFFFFF"/><path d="M408 37.4172 408 899.727 406 899.727 406 37.4172ZM400.75 39.5 407 27 413.25 39.5Z"/><path d="M10.4153-0.999998 1131.08-0.999836 1131.08 1.00016 10.4153 1ZM12.5 6.25 0 0 12.5-6.25Z" transform="matrix(-1 -8.74228e-08 -8.74228e-08 1 1539.08 900)"/><text font-family="Calibri,Calibri_MSFontService,sans-serif" font-weight="700" font-size="50" transform="translate(194.032 439)">Hauteur <tspan x="0" y="60">(Lignes)</tspan><tspan font-size="58" x="518.485" y="542">Largeur (Colonnes)</tspan></text></g></svg>