<svg width="32" height="32" x="0" y="0" enable-background="new 0 0 1000 1000" version="1.1" viewBox="0 0 1000 1000" xml:space="preserve"><g><g><path d="M290.7,3020.7c-83.7-36.8-169.5-140.9-183.8-222.6c-6.1-36.8-8.2-1270.4-6.1-2744.9c6.1-2669.4, 6.1-2679.6,49-2734.7c22.5-30.6,67.4-75.6,98-98l55.1-42.9l3986.7-6.1c2193.5-2.1, 4015.3,0,4052,6.1c145,26.6,161.3,53.1,876.2,1484.8C9767.2-236.8,9900,43,9900, 108.3c0,65.4-132.8,345.2-682.1,1444c-375.8,751.6-702.6,1384.7-729.1,1409.2c-26.6, 24.5-75.6,53.1-106.2,65.4c-40.8,16.3-1268.3,22.5-4043.9,22.5C1070.9,3047.3,341.8, 3043.2,290.7,3020.7z M8633.7, 1252.1l571.9-1143.7l-571.9-1143.7l-571.9-1143.7H4406.1H750.2V108.3v2287.4h3655.8h3655.8L8633.7, 1252.1z" transform="translate(0.000000,511.000000) scale(0.100000,-0.100000)"/><path d="M7042.7,1056C6526,917.1,6205.4,380,6336.1-126.5c136.8-520.8,674-847.6,1180.5-714.8c181.8, 47,318.6,126.6,455.4,263.5c251.2,251.2,349.2,590.2,263.5,917C8098.6,868.1,7555.4,1194.9,7042.7, 1056z M7414.4,406.5c210.4-87.8,261.4-361.5,98-524.9c-132.8-132.8-320.6-132.8-453.4,0C6805.8,132.9, 7085.6,545.4,7414.4,406.5z" transform="translate(0.000000,511.000000) scale(0.100000,-0.100000)"/></g></g></svg>