<svg 
    width="420" 
    height="230" 
    xmlns="http://www.w3.org/2000/svg" 
    xmlns:xlink="http://www.w3.org/1999/xlink" 
    overflow="hidden"
    viewBox="0 0 1050 500"
    style="background:da rkred;width:0%">
<defs><clipPath id="clip0"><path d="M-6 269 1028 269 1028 805-6 805Z" fill-rule="evenodd" clip-rule="evenodd"/></clipPath></defs><g clip-path="url(#clip0)" transform="translate(6 -269)"><path d="M37 292.147C82.2052 492.394 127.41 692.641 205.91 688.95 284.41 685.259 508 270 508 270" stroke="#BFBFBF" stroke-width="6" stroke-miterlimit="8" fill="none" fill-rule="evenodd"/><path d="M182 688C182 677.507 190.059 669 200 669 209.941 669 218 677.507 218 688 218 698.493 209.941 707 200 707 190.059 707 182 698.493 182 688Z" stroke="#2F528F" stroke-width="2" stroke-miterlimit="8" fill="#00B0F0" fill-rule="evenodd"/><path d="M51.6444 328.5C53.8162 332.192 55.5816 336.237 58.1598 339.577 73.3622 359.269 53.2739 326.655 66.3041 348.808 65.7611 350.654 65.6277 352.727 64.6753 354.346 63.3975 356.519 61.8023 358.617 59.7887 359.884 56.5438 361.928 47.7063 364.231 43.5 365.423 44.3752 366.167 52.9532 373.672 54.902 374.654 58.04 376.234 64.6753 378.346 64.6753 378.346 65.8059 379.628 72.5377 385.606 71.1907 389.423 70.4636 391.483 67.933 391.885 66.3041 393.115 65.2182 394.961 63.0465 396.435 63.0465 398.654 63.0465 404.221 68.1395 404.886 71.1907 406.038 69.6181 414.95 67.7721 420.352 71.1907 430.038 71.9178 432.099 74.4485 432.5 76.0774 433.731 76.6203 436.192 77.459 438.594 77.7063 441.115 78.5478 449.7 78.0107 458.456 79.335 466.961 79.6752 469.147 81.7173 470.516 82.5928 472.5 83.3606 474.241 83.8052 476.15 84.2217 478.038 85.7757 485.083 84.6392 487.742 89.1083 492.808 90.4926 494.377 92.3659 495.269 93.9948 496.5 93.4519 498.346 93.3183 500.419 92.3659 502.038 84.2318 515.867 89.7236 499.946 85.8505 513.115 87.4794 514.962 88.6768 517.486 90.7372 518.654 103.82 526.068 95.2108 514.259 102.139 526.038 101.617 528.405 100.05 536.313 98.8815 538.961 98.006 540.946 96.7096 542.654 95.6237 544.5 97.7955 545.731 99.9073 547.108 102.139 548.192 103.717 548.959 105.953 548.519 107.026 550.038 108.424 552.02 108.112 554.961 108.655 557.423 108.112 561.115 107.742 564.846 107.026 568.5 106.653 570.4 104.513 572.37 105.397 574.038 106.646 576.398 109.741 576.5 111.912 577.731 118.768 566.075 112.231 574.032 116.799 577.731 119.593 579.993 123.314 580.192 126.572 581.423 126.029 584.5 126.317 587.929 124.943 590.654 123.782 592.958 114.918 594.405 121.686 599.885 124.48 602.147 128.201 602.346 131.459 603.577 130.916 608.5 128.446 613.639 129.83 618.346 130.449 620.451 133.188 613.268 134.716 614.654 137.398 617.085 137.974 625.731 137.974 625.731 140.098 642.578 136.073 639.841 146.119 634.962 147.697 634.195 149.376 633.731 151.005 633.115 150.462 635.577 148.135 638.389 149.376 640.5 150.329 642.119 153.19 637.134 154.263 638.654 156.326 641.577 155.349 646.038 155.892 649.731 157.521 647.885 159.009 645.864 160.778 644.192 162.282 642.772 165.24 638.334 165.665 640.5 166.966 647.135 164.036 654.011 164.036 660.808 164.036 663.345 165.05 655.863 165.665 653.423 166.137 651.552 166.751 649.731 167.294 647.885L165.665 660.808C166.208 662.654 166.46 664.645 167.294 666.346 169.195 670.225 173.809 677.423 173.809 677.423 181.411 664.5 177.067 668.808 185.211 662.654 185.754 660.192 184.716 654.467 186.84 655.269 189.614 656.317 189.441 661.271 190.098 664.5 191.082 669.334 191.184 674.346 191.727 679.269 193.356 678.039 194.796 674.753 196.613 675.577 198.868 676.599 198.915 680.432 199.871 682.961 200.548 684.75 201.5 688.5 201.5 688.5" stroke="#FF0000" stroke-width="5" stroke-miterlimit="8" fill="none" fill-rule="evenodd"/><text fill="#E4D290" font-family="Cambria Math,Cambria Math_MSFontService,sans-serif" font-weight="400" font-size="38" transform="translate(16.1093 772)">Learning rate très petit</text><path d="M556 310.147C601.205 510.394 646.41 710.641 724.91 706.95 803.41 703.259 1027 288 1027 288" stroke="#BFBFBF" stroke-width="6" stroke-miterlimit="8" fill="none" fill-rule="evenodd"/><path d="M554.5 326.927C562.998 324.688 566.642 322.825 576.761 326.927 578.359 327.575 578.361 330.868 579.544 332.426 580.726 333.983 582.326 334.869 583.717 336.091 588.134 350.636 585.71 342.135 590.674 361.751 591.138 363.584 591.778 365.355 592.065 367.25L593.457 376.414C592.993 389.855 592.82 403.319 592.065 416.737 591.891 419.843 591.296 422.895 590.674 425.901 589.902 429.629 587.891 436.898 587.891 436.898L596.239 440.564 600.413 442.397C602.332 444.293 608.768 450.111 610.152 453.394 611.371 456.284 613.637 467.485 614.326 471.722 617.49 491.174 616.8 486.799 618.5 504.714 618.036 518.154 617.923 531.624 617.109 545.036 616.992 546.962 615.062 548.807 615.717 550.535 616.373 552.263 618.436 552.128 619.891 552.368 625.891 553.356 631.949 553.589 637.978 554.2 640.297 560.31 644.201 565.767 644.935 572.529 645.399 576.806 645.531 581.168 646.326 585.359 646.932 588.551 648.319 591.402 649.109 594.523 649.713 596.913 650.036 599.411 650.5 601.855 651.033 608.172 652.907 633.856 654.674 638.512 655.33 640.24 657.438 637.209 658.848 636.679 663.432 634.953 666.588 634.273 671.37 633.013 681.109 633.624 690.87 633.779 700.587 634.846 702.048 635.006 703.388 636 704.761 636.679 707.099 637.834 709.379 639.189 711.717 640.344 713.091 641.023 714.518 641.499 715.891 642.177 718.23 643.333 720.479 644.803 722.848 645.843 724.662 646.64 726.574 646.984 728.413 647.676 729.823 648.207 731.196 648.898 732.587 649.509 734.906 651.952 737.444 654.074 739.543 656.84 749.898 670.481 738.055 659.198 747.891 667.837 748.355 669.67 748.366 671.827 749.283 673.336 750.327 675.056 752.274 675.444 753.456 677.001 754.639 678.559 755.312 680.667 756.239 682.5 755.775 680.056 755.601 677.484 754.848 675.169 754.189 673.144 753.136 671.362 752.065 669.67 750.806 667.679 749.403 665.831 747.891 664.172 746.607 662.761 745.169 661.599 743.717 660.506 739.239 657.135 734.873 654.844 729.804 653.174L718.674 649.509C709.862 650.12 701.016 650.145 692.239 651.342 686.853 652.075 678.709 654.881 672.761 656.84 671.37 658.062 670.083 659.521 668.587 660.506 667.275 661.37 663.051 663.056 664.413 662.339 668.092 660.4 671.936 659 675.543 656.84 677.066 655.929 678.146 653.927 679.717 653.174 683.311 651.453 687.153 650.807 690.848 649.509 694.11 648.363 697.33 647.013 700.587 645.843 705.3 644.15 715.466 641.19 718.674 640.344 721.44 639.616 724.239 639.122 727.022 638.512 727.912 638.043 735.971 633.588 738.152 633.013 748.93 630.173 745.208 632.607 753.456 629.347 756.266 628.237 759.022 626.903 761.804 625.682 763.196 625.071 764.555 624.317 765.978 623.849 767.833 623.238 769.635 622.178 771.543 622.016 784.048 620.953 796.587 620.794 809.109 620.183 806.77 618.129 799.761 611.848 797.978 611.019 792.569 608.504 786.609 608.327 781.283 605.52 778.964 604.298 776.786 602.426 774.326 601.855 768.827 600.576 763.196 600.633 757.63 600.022 732.785 600.984 719.77 599.518 699.196 603.687 694.785 604.581 687.757 606.64 683.891 609.186 682.036 610.408 680.268 611.892 678.326 612.852 673.252 615.358 664.634 615.874 660.239 616.517 656.065 617.739 651.865 618.817 647.717 620.183 646.295 620.652 643.544 623.948 643.544 622.016 643.544 618.961 645.957 616.673 647.717 614.685 649.292 612.906 651.504 612.425 653.283 611.019 656.15 608.752 658.608 605.573 661.63 603.687 667.468 600.045 673.697 597.607 679.717 594.523 682.045 593.331 684.355 592.079 686.674 590.857 689.687 589.27 694.376 586.591 697.804 585.359 701.494 584.033 705.225 582.915 708.935 581.693 710.79 581.082 712.625 580.354 714.5 579.86 716.819 579.249 719.162 578.783 721.457 578.028 722.879 577.559 724.208 576.663 725.63 576.195 727.925 575.439 730.268 574.973 732.587 574.362 733.978 573.14 735.174 571.393 736.761 570.696 742.14 568.334 763.961 567.096 764.587 567.03 769.693 566.492 774.79 565.808 779.891 565.198 789.167 565.808 798.497 565.573 807.717 567.03 810.197 567.422 812.305 569.656 814.674 570.696 816.488 571.493 818.408 571.805 820.239 572.529 823.048 573.639 825.804 574.973 828.587 576.195L832.761 578.028 836.935 579.86C841.495 583.865 839.437 583.526 842.5 583.526" stroke="#FF0000" stroke-width="5" stroke-miterlimit="8" fill="none" fill-rule="evenodd"/><path d="M701 704.5C701 693.73 709.059 685 719 685 728.941 685 737 693.73 737 704.5 737 715.27 728.941 724 719 724 709.059 724 701 715.27 701 704.5Z" stroke="#2F528F" stroke-width="2" stroke-miterlimit="8" fill="#00B0F0" fill-rule="evenodd"/><text fill="#E4D290" font-family="Cambria Math,Cambria Math_MSFontService,sans-serif" font-weight="400" font-size="38" transform="translate(540.504 772)">Learning rate très grand</text></g></svg>