<svg width="420" height="230" xmlns="http://www.w3.org/2000/svg" xmlns:xlink="http://www.w3.org/1999/xlink"
    overflow="hidden" viewBox="0 0 1050 500" style="background:da rkred;width:0%">
    <defs>
        <clipPath id="clip0">
            <path d="M1106 302 2140 302 2140 838 1106 838Z" fill-rule="evenodd" clip-rule="evenodd" />
        </clipPath>
    </defs>
    <g clip-path="url(#clip0)" transform="translate(-1106 -302)">
        <path d="M1149 325.094C1194.21 524.863 1239.41 724.632 1317.91 720.95 1396.41 717.268 1620 303 1620 303"
            stroke="#333F50" stroke-width="6" stroke-miterlimit="8" fill="none" fill-rule="evenodd" />
        <path
            d="M1294 721C1294 710.507 1301.83 702 1311.5 702 1321.17 702 1329 710.507 1329 721 1329 731.493 1321.17 740 1311.5 740 1301.83 740 1294 731.493 1294 721Z"
            stroke="#2F528F" stroke-width="2" stroke-miterlimit="8" fill="#00B0F0" fill-rule="evenodd" />
        <path
            d="M1163.59 361.5C1165.75 365.192 1167.51 369.237 1170.07 372.577 1185.17 392.269 1165.21 359.655 1178.16 381.808 1177.62 383.654 1177.49 385.727 1176.54 387.346 1175.27 389.519 1173.69 391.617 1171.69 392.884 1168.46 394.928 1159.68 397.231 1155.5 398.423 1156.37 399.167 1164.89 406.672 1166.83 407.654 1169.95 409.234 1176.54 411.346 1176.54 411.346 1177.66 412.628 1184.35 418.606 1183.02 422.423 1182.29 424.483 1179.78 424.885 1178.16 426.115 1177.08 427.961 1174.92 429.435 1174.92 431.654 1174.92 437.221 1179.98 437.886 1183.02 439.038 1181.45 447.95 1179.62 453.352 1183.02 463.038 1183.74 465.099 1186.25 465.5 1187.87 466.731 1188.41 469.192 1189.24 471.594 1189.49 474.115 1190.33 482.7 1189.79 491.456 1191.11 499.961 1191.45 502.147 1193.48 503.516 1194.35 505.5 1195.11 507.241 1195.55 509.15 1195.96 511.038 1197.51 518.083 1196.38 520.742 1200.82 525.808 1202.2 527.377 1204.06 528.269 1205.68 529.5 1205.14 531.346 1205 533.419 1204.06 535.038 1195.97 548.867 1201.43 532.946 1197.58 546.115 1199.2 547.962 1200.39 550.486 1202.44 551.654 1215.44 559.068 1206.88 547.259 1213.77 559.038 1213.25 561.405 1211.69 569.313 1210.53 571.961 1209.66 573.946 1208.37 575.654 1207.29 577.5 1209.45 578.731 1211.55 580.108 1213.77 581.192 1215.34 581.959 1217.56 581.519 1218.62 583.038 1220.01 585.02 1219.7 587.961 1220.24 590.423 1219.7 594.115 1219.34 597.846 1218.62 601.5 1218.25 603.4 1216.13 605.37 1217.01 607.038 1218.25 609.398 1221.32 609.5 1223.48 610.731 1230.29 599.075 1223.8 607.032 1228.34 610.731 1231.11 612.993 1234.81 613.192 1238.05 614.423 1237.51 617.5 1237.79 620.929 1236.43 623.654 1235.27 625.958 1226.47 627.405 1233.19 632.885 1235.97 635.147 1239.66 635.346 1242.9 636.577 1242.36 641.5 1239.91 646.639 1241.28 651.346 1241.9 653.451 1244.62 646.268 1246.14 647.654 1248.8 650.085 1249.38 658.731 1249.38 658.731 1251.49 675.578 1247.49 672.841 1257.47 667.962 1259.04 667.195 1260.71 666.731 1262.32 666.115 1261.79 668.577 1259.47 671.389 1260.71 673.5 1261.65 675.119 1264.5 670.134 1265.56 671.654 1267.61 674.577 1266.64 679.038 1267.18 682.731 1268.8 680.885 1270.28 678.864 1272.04 677.192 1273.53 675.772 1276.47 671.334 1276.89 673.5 1278.18 680.135 1275.27 687.011 1275.27 693.808 1275.27 696.345 1276.28 688.863 1276.89 686.423 1277.36 684.552 1277.97 682.731 1278.51 680.885L1276.89 693.808C1277.43 695.654 1277.68 697.645 1278.51 699.346 1280.4 703.225 1284.98 710.423 1284.98 710.423 1292.54 697.5 1288.22 701.808 1296.31 695.654 1296.85 693.192 1295.82 687.467 1297.93 688.269 1300.69 689.317 1300.52 694.271 1301.17 697.5 1302.15 702.334 1302.25 707.346 1302.79 712.269 1304.41 711.039 1305.84 707.753 1307.64 708.577 1309.88 709.599 1309.93 713.432 1310.88 715.961 1311.55 717.75 1312.5 721.5 1312.5 721.5"
            stroke="#FF0000" stroke-width="5" stroke-miterlimit="8" fill="none" fill-rule="evenodd" /><text
            fill="#164A27" font-family="Cambria Math,Cambria Math_MSFontService,sans-serif" font-weight="400"
            font-size="38" transform="translate(1127.83 805)">Learning rate très petit</text>
        <path d="M1668 343.147C1713.21 543.394 1758.41 743.641 1836.91 739.95 1915.41 736.259 2139 321 2139 321"
            stroke="#333F50" stroke-width="6" stroke-miterlimit="8" fill="none" fill-rule="evenodd" />
        <path
            d="M1667.5 359.927C1676.03 357.688 1679.68 355.825 1689.84 359.927 1691.44 360.575 1691.44 363.868 1692.63 365.426 1693.82 366.983 1695.42 367.869 1696.82 369.091 1701.25 383.636 1698.82 375.135 1703.8 394.751 1704.26 396.584 1704.91 398.355 1705.2 400.25L1706.59 409.414C1706.13 422.855 1705.95 436.319 1705.2 449.737 1705.02 452.843 1704.42 455.895 1703.8 458.901 1703.03 462.629 1701.01 469.898 1701.01 469.898L1709.38 473.564 1713.57 475.397C1715.5 477.293 1721.96 483.111 1723.35 486.394 1724.57 489.284 1726.84 500.485 1727.53 504.722 1730.71 524.174 1730.02 519.799 1731.72 537.714 1731.26 551.154 1731.14 564.624 1730.33 578.036 1730.21 579.962 1728.27 581.807 1728.93 583.535 1729.59 585.263 1731.66 585.128 1733.12 585.368 1739.14 586.356 1745.22 586.589 1751.27 587.2 1753.59 593.31 1757.51 598.767 1758.25 605.529 1758.71 609.806 1758.85 614.168 1759.64 618.359 1760.25 621.551 1761.64 624.402 1762.44 627.523 1763.04 629.913 1763.37 632.411 1763.83 634.855 1764.37 641.172 1766.25 666.856 1768.02 671.512 1768.68 673.24 1770.8 670.209 1772.21 669.679 1776.81 667.953 1779.98 667.273 1784.78 666.013 1794.55 666.624 1804.34 666.779 1814.09 667.846 1815.56 668.006 1816.9 669 1818.28 669.679 1820.63 670.834 1822.92 672.189 1825.26 673.344 1826.64 674.023 1828.07 674.499 1829.45 675.177 1831.8 676.333 1834.05 677.803 1836.43 678.843 1838.25 679.64 1840.17 679.984 1842.02 680.676 1843.43 681.207 1844.81 681.898 1846.21 682.509 1848.53 684.952 1851.08 687.074 1853.19 689.84 1863.58 703.481 1851.69 692.198 1861.56 700.837 1862.03 702.67 1862.04 704.827 1862.96 706.336 1864.01 708.056 1865.96 708.444 1867.15 710.001 1868.33 711.559 1869.01 713.667 1869.94 715.5 1869.47 713.056 1869.3 710.484 1868.54 708.169 1867.88 706.144 1866.83 704.362 1865.75 702.67 1864.49 700.679 1863.08 698.831 1861.56 697.172 1860.27 695.761 1858.83 694.599 1857.37 693.506 1852.88 690.135 1848.5 687.844 1843.41 686.174L1832.24 682.509C1823.4 683.12 1814.52 683.145 1805.72 684.342 1800.31 685.075 1792.14 687.881 1786.17 689.84 1784.78 691.062 1783.48 692.521 1781.98 693.506 1780.67 694.37 1776.43 696.056 1777.79 695.339 1781.49 693.4 1785.34 692 1788.96 689.84 1790.49 688.929 1791.58 686.927 1793.15 686.174 1796.76 684.453 1800.61 683.807 1804.32 682.509 1807.59 681.363 1810.83 680.013 1814.09 678.843 1818.82 677.15 1829.02 674.19 1832.24 673.344 1835.02 672.616 1837.83 672.122 1840.62 671.512 1841.51 671.043 1849.6 666.588 1851.79 666.013 1862.6 663.173 1858.87 665.607 1867.15 662.347 1869.97 661.237 1872.73 659.903 1875.52 658.682 1876.92 658.071 1878.28 657.317 1879.71 656.849 1881.57 656.238 1883.38 655.178 1885.3 655.016 1897.84 653.953 1910.43 653.794 1922.99 653.183 1920.65 651.129 1913.61 644.848 1911.82 644.019 1906.4 641.504 1900.41 641.327 1895.07 638.52 1892.74 637.298 1890.56 635.426 1888.09 634.855 1882.57 633.576 1876.92 633.633 1871.34 633.022 1846.4 633.984 1833.34 632.518 1812.7 636.687 1808.27 637.581 1801.22 639.64 1797.34 642.186 1795.48 643.408 1793.7 644.892 1791.76 645.852 1786.66 648.358 1778.02 648.874 1773.61 649.517 1769.42 650.739 1765.2 651.817 1761.04 653.183 1759.61 653.652 1756.85 656.948 1756.85 655.016 1756.85 651.961 1759.27 649.673 1761.04 647.685 1762.62 645.906 1764.84 645.425 1766.63 644.019 1769.5 641.752 1771.97 638.573 1775 636.687 1780.86 633.045 1787.11 630.607 1793.15 627.523 1795.49 626.331 1797.81 625.079 1800.13 623.857 1803.16 622.27 1807.86 619.591 1811.3 618.359 1815 617.033 1818.75 615.915 1822.47 614.693 1824.33 614.082 1826.17 613.354 1828.06 612.86 1830.38 612.249 1832.73 611.783 1835.04 611.028 1836.46 610.559 1837.8 609.663 1839.22 609.195 1841.53 608.439 1843.88 607.973 1846.21 607.362 1847.6 606.14 1848.8 604.393 1850.39 603.696 1855.79 601.334 1877.69 600.096 1878.32 600.03 1883.44 599.492 1888.55 598.808 1893.67 598.198 1902.98 598.808 1912.34 598.573 1921.6 600.03 1924.08 600.422 1926.2 602.656 1928.58 603.696 1930.4 604.493 1932.32 604.805 1934.16 605.529 1936.98 606.639 1939.75 607.973 1942.54 609.195L1946.73 611.028 1950.92 612.86C1955.49 616.865 1953.43 616.526 1956.5 616.526"
            stroke="#FF0000" stroke-width="5" stroke-miterlimit="8" fill="none" fill-rule="evenodd" />
        <path
            d="M1813 737.5C1813 726.73 1821.06 718 1831 718 1840.94 718 1849 726.73 1849 737.5 1849 748.27 1840.94 757 1831 757 1821.06 757 1813 748.27 1813 737.5Z"
            stroke="#2F528F" stroke-width="2" stroke-miterlimit="8" fill="#00B0F0" fill-rule="evenodd" /><text
            fill="#164A27" font-family="Cambria Math,Cambria Math_MSFontService,sans-serif" font-weight="400"
            font-size="38" transform="translate(1652.22 805)">Learning rate très grand</text></g>
</svg>