<svg width="32" height="32" x="0" y="0" enable-background="new 0 0 1000 1000" version="1.1" viewBox="0 0 1000 1000" xml:space="preserve"><g><path d="M896.6,291.5H103.5c-51.5,0-93.5-41.9-93.5-93.5c0-51.5, 41.9-93.5,93.5-93.5h793.1c51.5,0,93.4,41.9,93.4,93.5C990,249.5, 948.1,291.5,896.6,291.5z M103.5,130.8c-37.1,0-67.2,30.2-67.2, 67.2s30.2,67.2,67.2,67.2h793.1c37,0,67.2-30.2, 67.2-67.2s-30.1-67.2-67.2-67.2H103.5z"/><path d="M733.7,593.5H103.5C51.9,593.5,10,551.5,10,500c0-51.5, 41.9-93.4,93.5-93.4h630.2c51.5,0,93.4,41.9,93.4,93.4C827.1,551.5, 785.2,593.5,733.7,593.5z M103.5,432.8c-37.1,0-67.2,30.2-67.2,67.2c0, 37.1,30.2,67.2,67.2,67.2h630.2c37.1,0,67.2-30.2, 67.2-67.2c0-37-30.1-67.2-67.2-67.2H103.5z"/><path d="M570.9,895.4H103.5c-51.5,0-93.5-41.9-93.5-93.4c0-51.5,41.9-93.5, 93.5-93.5h467.4c51.5,0.1,93.4,42,93.4,93.5C664.3,853.6,622.4,895.4,570.9, 895.4z M103.5,734.8c-37.1,0-67.2,30.2-67.2,67.2c0,37,30.2,67.1,67.2,67.1h467.4c37, 0,67.2-30.1,67.2-67.1s-30.1-67.2-67.2-67.2H103.5z"/></g></svg>