<svg width="32" height="32" x="0" y="0" enable-background="new 0 0 1000 1000" version="1.1" viewBox="0 0 1000 1000" xml:space="preserve"><g><path d="M504,483.9c-3.4,0-6.7-0.7-9.9-2.2l-452-213c-8.1-3.7-13.2-11.7-13.4-20.8c-0.1-9.1, 5-17.2,13.1-21.2L490.4,12.3c6.3-3,13.8-3,20.1,0L958,225.2c8.2,3.9,13.2,11.9,13.2,21c0, 9.1-5.1,17.1-13.3,21L514.2,481.6C510.9,483.1,507.5,483.9,504,483.9L504,483.9L504, 483.9z M82.1,247.6L504,446.4l414.1-200.1L500.5,47.5L82.1,247.6L82.1,247.6L82.1,247.6z"/><path d="M503.8,990c-3.4,0-6.8-0.7-10-2.2L39.6,774.3c-8.1-3.7-13.2-11.7-13.4-20.8c-0.1-9.1, 5-17.2,13.1-21.2l100.2-48l15.6,32.6l-75.6,36.2l424.1,199.3l417-202l-76-36.1l15.5-32.6l100.3, 47.6c8.2,3.9,13.3,11.9,13.3,21c0,9.1-5,17.1-13.2,21L513.9,987.6C510.7,989.2,507.3, 990,503.8,990"/><path d="M75,755.3l-22.5-29.3l146.9-70.6l42.2,20.2L75,755.3z"/><path d="M921.6,751.2l-158.4-75.2l41.5-20.7l150.5,71.5L921.6,751.2z"/><path d="M503.7,734.7c-3.2,0-6.5-0.7-9.5-2L39.6,519.1c-8.2-3.9-13.3-11.9-13.4-21c0-9.1, 5.1-17.2,13.3-21l100.1-48l15.6,32.6L79.5,498l424.1,199.3l417-202l-76-36.1l15.5-32.6l100.3, 47.6c8.1,3.9,13.2,11.9,13.3,20.9c0,9.1-4.9,17.1-13.1,21L513.9,732.4C510.6,734,507.2, 734.7,503.7,734.7"/><path d="M804.3,400.3l150.1,70.9l-32.8,24.7l-158.4-75.2L804.3,400.3z"/><path d="M76.9,499.2l-18.7-31.1l142.1-68.2l41.2,20.5L76.9,499.2z"/></g></svg>