<svg 
    width="410" 
    height="310" 
    xmlns="http://www.w3.org/2000/svg" 
    xmlns:xlink="http://www.w3.org/1999/xlink" 
    overflow="hidden"
    viewBox="0 0 1000 710"
    style="backgro und:orange;width:0%"
    ><defs><clipPath id="clip0"><path d="M462 209 1337 209 1337 909 462 909Z" fill-rule="evenodd" clip-rule="evenodd"/></clipPath></defs><g clip-path="url(#clip0)" transform="translate(-462 -209)"><path d="M666 661 746 661 746 727 666 727ZM687.438 669.25 712.188 669.25 724.563 681.625 724.563 718.75 687.438 718.75Z" fill="#FFFFFF" fill-rule="evenodd"/><path d="M687.438 669.25 712.188 669.25 712.188 681.625 724.563 681.625 724.563 718.75 687.438 718.75Z" fill="#CDCDCD" fill-rule="evenodd"/><path d="M712.188 669.25 712.188 681.625 724.563 681.625Z" fill="#999999" fill-rule="evenodd"/><path d="M687.438 669.25 712.188 669.25 724.563 681.625 724.563 718.75 687.438 718.75ZM724.563 681.625 712.188 681.625 712.188 669.25" stroke="#2F528F" stroke-width="2" stroke-miterlimit="8" fill="none" fill-rule="evenodd"/><rect x="666" y="661" width="80" height="66" stroke="#2F528F" stroke-width="2" stroke-miterlimit="8" fill="none"/><path d="M666 526 746 526 746 592 666 592ZM687.438 534.25 712.188 534.25 724.563 546.625 724.563 583.75 687.438 583.75Z" fill="#FFFFFF" fill-rule="evenodd"/><path d="M687.438 534.25 712.188 534.25 712.188 546.625 724.563 546.625 724.563 583.75 687.438 583.75Z" fill="#CDCDCD" fill-rule="evenodd"/><path d="M712.188 534.25 712.188 546.625 724.563 546.625Z" fill="#999999" fill-rule="evenodd"/><path d="M687.438 534.25 712.188 534.25 724.563 546.625 724.563 583.75 687.438 583.75ZM724.563 546.625 712.188 546.625 712.188 534.25" stroke="#2F528F" stroke-width="2" stroke-miterlimit="8" fill="none" fill-rule="evenodd"/><rect x="666" y="526" width="80" height="66" stroke="#2F528F" stroke-width="2" stroke-miterlimit="8" fill="none"/><path d="M666 447 746 447 746 513 666 513ZM687.438 455.25 712.188 455.25 724.563 467.625 724.563 504.75 687.438 504.75Z" fill="#FFFFFF" fill-rule="evenodd"/><path d="M687.438 455.25 712.188 455.25 712.188 467.625 724.563 467.625 724.563 504.75 687.438 504.75Z" fill="#CDCDCD" fill-rule="evenodd"/><path d="M712.188 455.25 712.188 467.625 724.563 467.625Z" fill="#999999" fill-rule="evenodd"/><path d="M687.438 455.25 712.188 455.25 724.563 467.625 724.563 504.75 687.438 504.75ZM724.563 467.625 712.188 467.625 712.188 455.25" stroke="#2F528F" stroke-width="2" stroke-miterlimit="8" fill="none" fill-rule="evenodd"/><rect x="666" y="447" width="80" height="66" stroke="#2F528F" stroke-width="2" stroke-miterlimit="8" fill="none"/><path d="M666 315 746 315 746 381 666 381ZM687.438 323.25 712.188 323.25 724.563 335.625 724.563 372.75 687.438 372.75Z" fill="#FFFFFF" fill-rule="evenodd"/><path d="M687.438 323.25 712.188 323.25 712.188 335.625 724.563 335.625 724.563 372.75 687.438 372.75Z" fill="#CDCDCD" fill-rule="evenodd"/><path d="M712.188 323.25 712.188 335.625 724.563 335.625Z" fill="#999999" fill-rule="evenodd"/><path d="M687.438 323.25 712.188 323.25 724.563 335.625 724.563 372.75 687.438 372.75ZM724.563 335.625 712.188 335.625 712.188 323.25" stroke="#2F528F" stroke-width="2" stroke-miterlimit="8" fill="none" fill-rule="evenodd"/><rect x="666" y="315" width="80" height="66" stroke="#2F528F" stroke-width="2" stroke-miterlimit="8" fill="none"/><path d="M1082.5 676C1059.03 676 1040 661.897 1040 644.5 1040 627.103 1059.03 613 1082.5 613 1105.97 613 1125 627.103 1125 644.5 1125 661.897 1105.97 676 1082.5 676Z" stroke="#2F528F" stroke-width="2" stroke-miterlimit="8" fill="#1F4E79" fill-rule="evenodd"/><path d="M1082.5 541C1059.03 541 1040 527.121 1040 510 1040 492.879 1059.03 479 1082.5 479 1105.97 479 1125 492.879 1125 510 1125 527.121 1105.97 541 1082.5 541Z" stroke="#2F528F" stroke-width="2" stroke-miterlimit="8" fill="#1F4E79" fill-rule="evenodd"/><path d="M1082.5 415C1059.03 415 1040 400.897 1040 383.5 1040 366.103 1059.03 352 1082.5 352 1105.97 352 1125 366.103 1125 383.5 1125 400.897 1105.97 415 1082.5 415Z" stroke="#2F528F" stroke-width="2" stroke-miterlimit="8" fill="#1F4E79" fill-rule="evenodd"/><path d="M1.75538-1.78007 289.469 281.943 285.958 285.503-1.75538 1.78007ZM291.2 276.628 296.614 292.5 280.668 287.308Z" fill="#00B050" transform="matrix(-4.37114e-08 1 1 4.37114e-08 748.5 348.5)"/><path d="M2.18637-1.21234 158.315 280.356 153.943 282.78-2.18637 1.21234ZM161.476 275.745 162.191 292.5 148.358 283.019Z" fill="#00B050" transform="matrix(-4.37114e-08 1 1 4.37114e-08 748.5 348.5)"/><path d="M2.482-0.299481 36.278 279.79 31.314 280.389-2.482 0.299481ZM40.9426 276.71 35.2935 292.5 26.0506 278.506Z" fill="#00B050" transform="matrix(-4.37114e-08 1 1 4.37114e-08 748.5 348.5)"/><path d="M747.717 477.546 1028.35 385.039 1029.91 389.788 749.283 482.294ZM1024.41 381.073 1041 383.5 1029.1 395.319Z" fill="#BDD7EE"/><path d="M2.48654-0.259088 31.6685 279.808 26.6954 280.326-2.48654 0.259088ZM36.3825 276.803 30.4774 292.5 21.4632 278.358Z" fill="#BDD7EE" transform="matrix(-4.37114e-08 1 1 4.37114e-08 748.5 480.5)"/><path d="M2.17776-1.22774 160.94 280.383 156.584 282.839-2.17776 1.22774ZM164.068 275.75 164.901 292.5 151.001 283.117Z" fill="#BDD7EE" transform="matrix(-4.37114e-08 1 1 4.37114e-08 748.5 480.5)"/><path d="M747.21 557.484 1029 387.806 1031.58 392.09 749.79 561.767ZM1024.28 384.813 1041 383.5 1032.02 397.663Z" fill="#7030A0"/><path d="M748.085 557.263 1028.26 510.109 1029.09 515.04 748.915 562.193ZM1024.96 505.594 1041 510.5 1027.45 520.385Z" fill="#7030A0"/><path d="M2.40026-0.699117 84.1003 279.799 79.2997 281.197-2.40026 0.699117ZM88.2018 276.001 85.1957 292.5 73.8002 280.196Z" fill="#7030A0" transform="matrix(-4.37114e-08 1 1 4.37114e-08 748.5 559.5)"/><path d="M748.082 692.615 1028.26 645.124 1029.09 650.054 748.918 697.545ZM1024.96 640.612 1041 645.5 1027.46 655.401Z" fill="#C00000"/><path d="M747.169 692.387 1029.09 515.04 1031.75 519.272 749.831 696.62ZM1024.31 512.139 1041 510.5 1032.3 524.836Z" fill="#C00000"/><path d="M746.679 692.688 1030.61 390.891 1034.26 394.317 750.321 696.114ZM1025.26 389.286 1041 383.5 1036.18 399.564Z" fill="#C00000"/><text fill="#BFBFBF" font-family="Calibri,Calibri_MSFontService,sans-serif" font-weight="700" font-size="50" transform="translate(647.704 864)">Entrées<tspan x="353.886" y="0">Neurones</tspan></text><path d="M1125.5 508 1266.31 508 1266.31 513 1125.5 513ZM1263.81 503 1278.81 510.5 1263.81 518Z" fill="#FFD966"/><path d="M1125.5 643 1266.31 643 1266.31 648 1125.5 648ZM1263.81 638 1278.81 645.5 1263.81 653Z" fill="#FFD966"/><path d="M2.5-5.68625e-06 2.50014 59.6222-2.49986 59.6222-2.5 5.68625e-06ZM7.50013 57.1222 0.000164042 72.1222-7.49987 57.1222Z" fill="#BF9000" transform="matrix(1 0 0 -1 706.5 824.622)"/><text fill="#BFBFBF" font-family="Calibri,Calibri_MSFontService,sans-serif" font-weight="700" font-size="50" transform="translate(1162.45 272)">Sorties</text><path d="M2.5-5.68625e-06 2.50014 59.6222-2.49986 59.6222-2.5 5.68625e-06ZM7.50013 57.1222 0.000164042 72.1222-7.49987 57.1222Z" fill="#BF9000" transform="matrix(1 0 0 -1 1088.5 824.622)"/><path d="M1215 276.5 1215 335.894 1210 335.894 1210 276.5ZM1220 333.394 1212.5 348.394 1205 333.394Z" fill="#BF9000"/><path d="M1125.5 377 1266.31 377 1266.31 382 1125.5 382ZM1263.81 372 1278.81 379.5 1263.81 387Z" fill="#FFD966"/><path d="M463.5 352 635.191 352 635.191 357 463.5 357ZM632.691 347 647.691 354.5 632.691 362Z" fill="#2E75B6"/><path d="M463.5 477 635.191 477 635.191 482 463.5 482ZM632.691 472 647.691 479.5 632.691 487Z" fill="#2E75B6"/><path d="M463.5 557 635.191 557 635.191 562 463.5 562ZM632.691 552 647.691 559.5 632.691 567Z" fill="#2E75B6"/><path d="M463.5 699 635.191 699 635.191 704 463.5 704ZM632.691 694 647.691 701.5 632.691 709Z" fill="#2E75B6"/></g></svg>