<svg 
    width="530" 
    height="250" 
    xmlns="http://www.w3.org/2000/svg" 
    xmlns:xlink="http://www.w3.org/1999/xlink" 
    overflow="hidden"
    viewBox="160 -20 990 630"
    style="backgro und:darkred;width:0%">
<defs><clipPath id="clip0"><path d="M715 628 2027 628 2027 1215 715 1215Z" fill-rule="evenodd" clip-rule="evenodd"/></clipPath></defs><g clip-path="url(#clip0)" transform="translate(-715 -628)"><text fill="#0070C0" font-family="Times New Roman,Times New Roman_MSFontService,sans-serif" font-weight="700" font-size="33" transform="matrix(0.971804 0.235791 -0.235791 0.971804 1879.57 848)">Sorties</text><text fill="#0070C0" font-family="Times New Roman,Times New Roman_MSFontService,sans-serif" font-weight="700" font-size="33" transform="translate(1765.85 974)">Couche 3<tspan x="-1008.79" y="152">Entrées</tspan></text><path d="M1215.5 1154.5C1196.72 1154.5 1181.5 1141.74 1181.5 1126 1181.5 1110.26 1196.72 1097.5 1215.5 1097.5 1234.28 1097.5 1249.5 1110.26 1249.5 1126 1249.5 1141.74 1234.28 1154.5 1215.5 1154.5Z" stroke="#2F528F" stroke-width="5" stroke-miterlimit="8" fill="#00B0F0" fill-rule="evenodd"/><path d="M1215.5 1064.5C1196.72 1064.5 1181.5 1051.74 1181.5 1036 1181.5 1020.26 1196.72 1007.5 1215.5 1007.5 1234.28 1007.5 1249.5 1020.26 1249.5 1036 1249.5 1051.74 1234.28 1064.5 1215.5 1064.5Z" stroke="#2F528F" stroke-width="5" stroke-miterlimit="8" fill="#00B0F0" fill-rule="evenodd"/><path d="M1215.5 955.5C1196.72 955.5 1181.5 942.74 1181.5 927 1181.5 911.26 1196.72 898.5 1215.5 898.5 1234.28 898.5 1249.5 911.26 1249.5 927 1249.5 942.74 1234.28 955.5 1215.5 955.5Z" stroke="#2F528F" stroke-width="5" stroke-miterlimit="8" fill="#00B0F0" fill-rule="evenodd"/><path d="M1215.5 872.5C1196.72 872.5 1181.5 859.74 1181.5 844 1181.5 828.26 1196.72 815.5 1215.5 815.5 1234.28 815.5 1249.5 828.26 1249.5 844 1249.5 859.74 1234.28 872.5 1215.5 872.5Z" stroke="#2F528F" stroke-width="5" stroke-miterlimit="8" fill="#00B0F0" fill-rule="evenodd"/><path d="M1215.5 771.5C1196.72 771.5 1181.5 758.74 1181.5 743 1181.5 727.26 1196.72 714.5 1215.5 714.5 1234.28 714.5 1249.5 727.26 1249.5 743 1249.5 758.74 1234.28 771.5 1215.5 771.5Z" stroke="#2F528F" stroke-width="5" stroke-miterlimit="8" fill="#00B0F0" fill-rule="evenodd"/><path d="M1215.5 688.5C1196.72 688.5 1181.5 675.74 1181.5 660 1181.5 644.26 1196.72 631.5 1215.5 631.5 1234.28 631.5 1249.5 644.26 1249.5 660 1249.5 675.74 1234.28 688.5 1215.5 688.5Z" stroke="#2F528F" stroke-width="5" stroke-miterlimit="8" fill="#00B0F0" fill-rule="evenodd"/><path d="M1513 1080.5C1493.95 1080.5 1478.5 1067.74 1478.5 1052 1478.5 1036.26 1493.95 1023.5 1513 1023.5 1532.05 1023.5 1547.5 1036.26 1547.5 1052 1547.5 1067.74 1532.05 1080.5 1513 1080.5Z" stroke="#2F528F" stroke-width="5" stroke-miterlimit="8" fill="#00B0F0" fill-rule="evenodd"/><path d="M1513 963.5C1493.95 963.5 1478.5 950.74 1478.5 935 1478.5 919.26 1493.95 906.5 1513 906.5 1532.05 906.5 1547.5 919.26 1547.5 935 1547.5 950.74 1532.05 963.5 1513 963.5Z" stroke="#2F528F" stroke-width="5" stroke-miterlimit="8" fill="#00B0F0" fill-rule="evenodd"/><path d="M1513 890.5C1493.95 890.5 1478.5 877.74 1478.5 862 1478.5 846.26 1493.95 833.5 1513 833.5 1532.05 833.5 1547.5 846.26 1547.5 862 1547.5 877.74 1532.05 890.5 1513 890.5Z" stroke="#2F528F" stroke-width="5" stroke-miterlimit="8" fill="#00B0F0" fill-rule="evenodd"/><path d="M1513 765.5C1493.95 765.5 1478.5 752.74 1478.5 737 1478.5 721.26 1493.95 708.5 1513 708.5 1532.05 708.5 1547.5 721.26 1547.5 737 1547.5 752.74 1532.05 765.5 1513 765.5Z" stroke="#2F528F" stroke-width="5" stroke-miterlimit="8" fill="#00B0F0" fill-rule="evenodd"/><path d="M1821 919.5C1801.95 919.5 1786.5 906.74 1786.5 891 1786.5 875.26 1801.95 862.5 1821 862.5 1840.05 862.5 1855.5 875.26 1855.5 891 1855.5 906.74 1840.05 919.5 1821 919.5Z" stroke="#2F528F" stroke-width="5" stroke-miterlimit="8" fill="#00B0F0" fill-rule="evenodd"/><path d="M0.775473-2.37669 217.54 68.3498 215.989 73.1032-0.775473 2.37669ZM216.714 62.8209 228.647 74.6038 212.061 77.0811Z" fill="#4472C4" transform="matrix(1 0 0 -1 1249.5 1126.1)"/><path d="M1249.67 1034.01 1465.84 1048.59 1465.51 1053.57 1249.33 1038.99ZM1463.69 1043.43 1478.15 1051.92 1462.68 1058.39Z" fill="#404040"/><path d="M1250.7 925.305 1468.37 1043.93 1465.98 1048.32 1248.3 929.695ZM1468.57 1038.34 1478.15 1052.11 1461.39 1051.51Z" fill="#FF0000"/><path d="M1251.18 842.648 1470.57 1041.54 1467.21 1045.24 1247.82 846.352ZM1472.07 1036.15 1478.15 1051.78 1462 1047.27Z" fill="#FFC000"/><path d="M1251.51 741.012 1472.72 1039.81 1468.7 1042.78 1247.49 743.988ZM1475.25 1034.82 1478.15 1051.34 1463.19 1043.75Z" fill="#843C0C"/><path d="M1.2604-2.15902 382.13 220.186 379.609 224.504-1.2604 2.15902ZM382.492 214.608 391.665 228.647 374.93 227.562Z" fill="#70AD47" transform="matrix(-4.37114e-08 1 1 4.37114e-08 1249.5 659.5)"/><path d="M1.01386-2.28519 218.235 94.0883 216.208 98.6587-1.01386 2.28519ZM217.978 88.5042 228.648 101.443 211.895 102.215Z" fill="#404040" transform="matrix(1 0 0 -1 1249.5 1035.94)"/><path d="M1249.58 925.001 1465.74 932.321 1465.57 937.318 1249.42 929.999ZM1463.41 927.24 1478.15 935.243 1462.9 942.231Z" fill="#FF0000"/><path d="M1250.42 842.175 1467.44 927.999 1465.6 932.648 1248.58 846.825ZM1466.96 922.43 1478.15 934.92 1461.44 936.379Z" fill="#FFC000"/><path d="M1251.11 740.585 1470.18 924.526 1466.97 928.355 1247.89 744.415ZM1471.48 919.089 1478.15 934.479 1461.84 930.577Z" fill="#843C0C"/><path d="M1.599-1.92177 266.792 218.731 263.594 222.574-1.599 1.92177ZM268.068 213.288 274.802 228.647 258.474 224.819Z" fill="#70AD47" transform="matrix(-4.37114e-08 1 1 4.37114e-08 1249.5 659.5)"/><path d="M1.60505-1.91672 220.669 181.526 217.459 185.359-1.60505 1.91672ZM221.962 176.087 228.647 191.468 212.332 187.588Z" fill="#4472C4" transform="matrix(1 0 0 -1 1249.5 1125.97)"/><path d="M1.88976-1.63671 222.353 252.913 218.574 256.186-1.88976 1.63671ZM224.496 247.75 228.647 263.998 213.158 257.57Z" fill="#4472C4" transform="matrix(1 0 0 -1 1249.5 1126.5)"/><path d="M1.51382-1.98956 220.213 164.415 217.186 168.394-1.51382 1.98956ZM221.252 158.922 228.648 173.974 212.169 170.859Z" fill="#404040" transform="matrix(1 0 0 -1 1249.5 1036.47)"/><path d="M0.681548-2.4053 217.303 58.9747 215.94 63.7854-0.681548 2.4053ZM216.26 53.4825 228.647 64.7877 212.171 67.9144Z" fill="#FF0000" transform="matrix(1 0 0 -1 1249.5 927.288)"/><path d="M1249.7 842.008 1465.88 858.922 1465.49 863.907 1249.3 846.992ZM1463.78 853.743 1478.15 862.39 1462.61 868.697Z" fill="#FFC000"/><path d="M1250.66 740.284 1468.23 853.944 1465.91 858.376 1248.34 744.716ZM1468.33 848.355 1478.15 861.948 1461.38 861.65Z" fill="#843C0C"/><path d="M1.87247-1.65646 195.861 217.629 192.116 220.942-1.87247 1.65646ZM197.949 212.443 202.271 228.647 186.715 222.382Z" fill="#70AD47" transform="matrix(-4.37114e-08 1 1 4.37114e-08 1249.5 659.5)"/><path d="M2.15616-1.26529 224.477 377.589 220.165 380.12-2.15616 1.26529ZM227.524 372.903 228.647 389.636 214.587 380.495Z" fill="#4472C4" transform="matrix(1 0 0 -1 1249.5 1126.14)"/><path d="M1.98739-1.51667 223.051 288.157 219.077 291.19-1.98739 1.51667ZM225.51 283.137 228.648 299.611 213.585 292.237Z" fill="#404040" transform="matrix(1 0 0 -1 1249.5 1036.11)"/><path d="M1.59989-1.92103 220.642 180.505 217.443 184.347-1.59989 1.92103ZM221.921 175.063 228.647 190.425 212.322 186.589Z" fill="#FF0000" transform="matrix(1 0 0 -1 1249.5 926.925)"/><path d="M1.0657-2.26148 218.405 100.158 216.274 104.681-1.0657 2.26148ZM218.275 94.5689 228.647 107.748 211.881 108.138Z" fill="#FFC000" transform="matrix(1 0 0 -1 1249.5 844.248)"/><path d="M0.06765-2.49908 216.22 3.35214 216.085 8.35031-0.06765 2.49908ZM213.856-1.71369 228.647 6.18947 213.45 13.2808Z" fill="#843C0C" transform="matrix(1 0 0 -1 1249.5 742.689)"/><path d="M2.37041-0.794466 75.0316 216.001 70.2908 217.59-2.37041 0.794466ZM78.978 212.042 76.6335 228.647 64.7555 216.808Z" fill="#70AD47" transform="matrix(-4.37114e-08 1 1 4.37114e-08 1249.5 659.5)"/><path d="M1548.85 734.398 1777.81 881.751 1775.1 885.955 1546.15 738.602ZM1778.41 876.194 1786.96 890.618 1770.29 888.807Z" fill="#00B050"/><path d="M1547.8 860.018 1774.85 887.022 1774.26 891.987 1547.2 864.982ZM1772.96 881.762 1786.96 890.981 1771.18 896.657Z" fill="#FFD966"/><path d="M0.452288-2.45875 227.623 39.3295 226.719 44.247-0.452288 2.45875ZM226.069 33.9597 239.465 44.0497 223.355 48.7122Z" fill="#7030A0" transform="matrix(1 0 0 -1 1547.5 934.55)"/><path d="M1.39436-2.07503 230.484 151.867 227.695 156.017-1.39436 2.07503ZM231.197 146.322 239.465 160.913 222.831 158.772Z" fill="#C00000" transform="matrix(1 0 0 -1 1547.5 1051.41)"/><text fill="#0070C0" font-family="Times New Roman,Times New Roman_MSFontService,sans-serif" font-weight="700" font-size="33" transform="translate(1154.61 1185)">Couche 1</text><path d="M773.5 684.5 840.5 684.5 840.5 736.5 773.5 736.5ZM792.375 691 811.875 691 821.625 700.75 821.625 730 792.375 730Z" fill="#FFFFFF" fill-rule="evenodd"/><path d="M792.375 691 811.875 691 811.875 700.75 821.625 700.75 821.625 730 792.375 730Z" fill="#CDCDCD" fill-rule="evenodd"/><path d="M811.875 691 811.875 700.75 821.625 700.75Z" fill="#999999" fill-rule="evenodd"/><path d="M792.375 691 811.875 691 821.625 700.75 821.625 730 792.375 730ZM821.625 700.75 811.875 700.75 811.875 691" stroke="#2F528F" stroke-width="5" stroke-miterlimit="8" fill="none" fill-rule="evenodd"/><rect x="773.5" y="684.5" width="67" height="52" stroke="#2F528F" stroke-width="5" stroke-miterlimit="8" fill="none"/><path d="M773.5 782.5 840.5 782.5 840.5 834.5 773.5 834.5ZM792.375 789 811.875 789 821.625 798.75 821.625 828 792.375 828Z" fill="#FFFFFF" fill-rule="evenodd"/><path d="M792.375 789 811.875 789 811.875 798.75 821.625 798.75 821.625 828 792.375 828Z" fill="#CDCDCD" fill-rule="evenodd"/><path d="M811.875 789 811.875 798.75 821.625 798.75Z" fill="#999999" fill-rule="evenodd"/><path d="M792.375 789 811.875 789 821.625 798.75 821.625 828 792.375 828ZM821.625 798.75 811.875 798.75 811.875 789" stroke="#2F528F" stroke-width="5" stroke-miterlimit="8" fill="none" fill-rule="evenodd"/><rect x="773.5" y="782.5" width="67" height="52" stroke="#2F528F" stroke-width="5" stroke-miterlimit="8" fill="none"/><path d="M769.5 894.5 836.5 894.5 836.5 947.5 769.5 947.5ZM788.094 901.125 807.969 901.125 817.906 911.063 817.906 940.875 788.094 940.875Z" fill="#FFFFFF" fill-rule="evenodd"/><path d="M788.094 901.125 807.969 901.125 807.969 911.063 817.906 911.063 817.906 940.875 788.094 940.875Z" fill="#CDCDCD" fill-rule="evenodd"/><path d="M807.969 901.125 807.969 911.063 817.906 911.063Z" fill="#999999" fill-rule="evenodd"/><path d="M788.094 901.125 807.969 901.125 817.906 911.063 817.906 940.875 788.094 940.875ZM817.906 911.063 807.969 911.063 807.969 901.125" stroke="#2F528F" stroke-width="5" stroke-miterlimit="8" fill="none" fill-rule="evenodd"/><rect x="769.5" y="894.5" width="67" height="53" stroke="#2F528F" stroke-width="5" stroke-miterlimit="8" fill="none"/><path d="M771.5 1006.5 838.5 1006.5 838.5 1059.5 771.5 1059.5ZM790.094 1013.13 809.969 1013.13 819.906 1023.06 819.906 1052.88 790.094 1052.88Z" fill="#FFFFFF" fill-rule="evenodd"/><path d="M790.094 1013.13 809.969 1013.13 809.969 1023.06 819.906 1023.06 819.906 1052.88 790.094 1052.88Z" fill="#CDCDCD" fill-rule="evenodd"/><path d="M809.969 1013.13 809.969 1023.06 819.906 1023.06Z" fill="#999999" fill-rule="evenodd"/><path d="M790.094 1013.13 809.969 1013.13 819.906 1023.06 819.906 1052.88 790.094 1052.88ZM819.906 1023.06 809.969 1023.06 809.969 1013.13" stroke="#2F528F" stroke-width="5" stroke-miterlimit="8" fill="none" fill-rule="evenodd"/><rect x="771.5" y="1006.5" width="67" height="53" stroke="#2F528F" stroke-width="5" stroke-miterlimit="8" fill="none"/><path d="M0.365695-2.47311 328.508 46.0489 327.777 50.9951-0.365695 2.47311ZM326.767 40.7371 340.509 50.3506 324.573 55.5757Z" fill="#404040" transform="matrix(1 0 0 -1 840.5 709.851)"/><path d="M840.737 708.011 1168.8 739.297 1168.33 744.274 840.263 712.989ZM1166.79 734.082 1181.01 742.972 1165.36 749.015Z" fill="#404040"/><path d="M841.842 708.391 1171.81 918.388 1169.12 922.606 839.158 712.609ZM1172.38 912.827 1181.01 927.208 1164.33 925.482Z" fill="#404040"/><path d="M841.416 708.174 1170.29 837.626 1168.46 842.279 839.584 712.826ZM1169.8 832.058 1181.01 844.531 1164.3 846.016Z" fill="#404040"/><path d="M842.229 708.694 1173.71 1025.94 1170.25 1029.56 838.771 712.306ZM1175.36 1020.6 1181.01 1036.39 1164.99 1031.44Z" fill="#404040"/><path d="M842.434 708.916 1175.02 1115.16 1171.16 1118.33 838.566 712.084ZM1177.31 1110.06 1181.01 1126.42 1165.7 1119.56Z" fill="#404040"/><path d="M0.999049-2.2917 330.049 141.155 328.05 145.738-0.999049 2.2917ZM329.755 135.572 340.508 148.442 323.761 149.323Z" fill="#70AD47" transform="matrix(1 0 0 -1 840.5 807.942)"/><path d="M840.762 806.014 1168.84 840.641 1168.32 845.613 840.238 810.986ZM1166.88 835.406 1181.01 844.439 1165.3 850.323Z" fill="#70AD47"/><path d="M0.473067-2.45483 328.707 60.7986 327.761 65.7083-0.473067 2.45483ZM327.198 55.4159 340.508 65.6188 324.36 70.1449Z" fill="#70AD47" transform="matrix(1 0 0 -1 840.5 808.119)"/><path d="M841.322 806.139 1170.03 920.644 1168.38 925.366 839.678 810.861ZM1169.31 915.1 1181.01 927.117 1164.38 929.265Z" fill="#70AD47"/><path d="M841.89 806.422 1172.01 1027.27 1169.23 1031.43 839.11 810.578ZM1172.71 1021.73 1181.01 1036.3 1164.37 1034.2Z" fill="#70AD47"/><path d="M842.206 806.672 1173.58 1115.97 1170.16 1119.63 838.794 810.328ZM1175.16 1110.61 1181.01 1126.33 1164.92 1121.58Z" fill="#70AD47"/><path d="M1.50964-1.99274 336.046 251.442 333.027 255.428-1.50964 1.99274ZM337.074 245.948 344.502 260.984 328.016 257.904Z" fill="#FFC000" transform="matrix(1 0 0 -1 836.5 920.484)"/><path d="M1.14841-2.22062 334.546 170.198 332.249 174.639-1.14841 2.22062ZM334.623 164.609 344.502 178.161 327.733 177.933Z" fill="#FFC000" transform="matrix(1 0 0 -1 836.5 920.661)"/><path d="M0.542643-2.4404 332.843 71.4494 331.758 76.3302-0.542643 2.4404ZM331.488 66.026 344.502 76.603 328.232 80.6684Z" fill="#FFC000" transform="matrix(1 0 0 -1 836.5 921.103)"/><path d="M836.544 918 1168.55 923.854 1168.46 928.854 836.456 923ZM1166.14 918.811 1181 926.574 1165.87 933.809Z" fill="#FFC000"/><path d="M837.293 918.129 1169.94 1029.42 1168.35 1034.17 835.707 922.871ZM1169.16 1023.89 1181 1035.76 1164.4 1038.11Z" fill="#FFC000"/><path d="M837.78 918.352 1171.54 1117.24 1168.98 1121.53 835.22 922.648ZM1171.96 1111.66 1181 1125.78 1164.28 1124.55Z" fill="#FFC000"/><path d="M1.84165-1.69066 335.893 362.194 332.209 365.576-1.84165 1.69066ZM337.886 356.972 342.505 373.094 326.836 367.116Z" fill="#C00000" transform="matrix(1 0 0 -1 838.5 1032.59)"/><path d="M1.61635-1.9072 334.585 280.282 331.353 284.097-1.61635 1.9072ZM335.911 274.851 342.505 290.271 326.212 286.295Z" fill="#C00000" transform="matrix(1 0 0 -1 838.5 1032.77)"/><path d="M1.20644-2.18963 332.763 180.491 330.35 184.87-1.20644 2.18963ZM332.987 174.905 342.505 188.713 325.748 188.043Z" fill="#C00000" transform="matrix(1 0 0 -1 838.5 1033.21)"/><path d="M0.739351-2.38817 331.304 99.9508 329.825 104.727-0.739351 2.38817ZM330.394 94.435 342.505 106.036 325.958 108.764Z" fill="#C00000" transform="matrix(1 0 0 -1 838.5 1033.54)"/><path d="M838.523 1031 1168.53 1034.04 1168.48 1039.04 838.477 1036ZM1166.07 1029.01 1181 1036.65 1165.94 1044.01Z" fill="#C00000"/><path d="M839.156 1031.09 1169.6 1120.98 1168.29 1125.81 837.844 1035.91ZM1168.5 1115.5 1181 1126.68 1164.56 1129.97Z" fill="#C00000"/><text fill="#0070C0" font-family="Times New Roman,Times New Roman_MSFontService,sans-serif" font-weight="700" font-size="33" transform="translate(1461.43 680)">Couche 2</text><path d="M3.61118e-06-2.5 101.065-2.49985 101.065 2.50015-3.61118e-06 2.5ZM98.5655-7.49986 113.565 0.000164042 98.5654 7.50014Z" fill="#9B9806" transform="matrix(1 0 0 -1 1855.5 890.5)"/></g></svg>