<svg 
    width="530" 
    height="250" 
    xmlns="http://www.w3.org/2000/svg" 
    xmlns:xlink="http://www.w3.org/1999/xlink" 
    overflow="hidden"
    viewBox="160 -20 990 630"
    style="backgro und:darkred;width:0%">
<defs><clipPath id="clip0"><path d="M87 70 1398 70 1398 657 87 657Z" fill-rule="evenodd" clip-rule="evenodd"/></clipPath></defs><g clip-path="url(#clip0)" transform="translate(-87 -70)"><text fill="#BDD7EE" font-family="Times New Roman,Times New Roman_MSFontService,sans-serif" font-weight="700" font-size="33" transform="matrix(0.971804 0.235791 -0.235791 0.971804 1251.6 291)">Sorties</text><text fill="#BDD7EE" font-family="Times New Roman,Times New Roman_MSFontService,sans-serif" font-weight="700" font-size="33" transform="translate(1137.88 416)">Couche 3<tspan x="-1008.79" y="153">Entrées</tspan></text><path d="M587.5 597.5C568.722 597.5 553.5 584.74 553.5 569 553.5 553.26 568.722 540.5 587.5 540.5 606.278 540.5 621.5 553.26 621.5 569 621.5 584.74 606.278 597.5 587.5 597.5Z" stroke="#2F528F" stroke-width="5" stroke-miterlimit="8" fill="#00B0F0" fill-rule="evenodd"/><path d="M587.5 507.5C568.722 507.5 553.5 494.74 553.5 479 553.5 463.26 568.722 450.5 587.5 450.5 606.278 450.5 621.5 463.26 621.5 479 621.5 494.74 606.278 507.5 587.5 507.5Z" stroke="#2F528F" stroke-width="5" stroke-miterlimit="8" fill="#00B0F0" fill-rule="evenodd"/><path d="M587.5 397.5C568.722 397.5 553.5 384.74 553.5 369 553.5 353.26 568.722 340.5 587.5 340.5 606.278 340.5 621.5 353.26 621.5 369 621.5 384.74 606.278 397.5 587.5 397.5Z" stroke="#2F528F" stroke-width="5" stroke-miterlimit="8" fill="#00B0F0" fill-rule="evenodd"/><path d="M587.5 315.5C568.722 315.5 553.5 302.74 553.5 287 553.5 271.26 568.722 258.5 587.5 258.5 606.278 258.5 621.5 271.26 621.5 287 621.5 302.74 606.278 315.5 587.5 315.5Z" stroke="#2F528F" stroke-width="5" stroke-miterlimit="8" fill="#00B0F0" fill-rule="evenodd"/><path d="M587.5 213.5C568.722 213.5 553.5 200.74 553.5 185 553.5 169.26 568.722 156.5 587.5 156.5 606.278 156.5 621.5 169.26 621.5 185 621.5 200.74 606.278 213.5 587.5 213.5Z" stroke="#2F528F" stroke-width="5" stroke-miterlimit="8" fill="#00B0F0" fill-rule="evenodd"/><path d="M587.5 130.5C568.722 130.5 553.5 117.74 553.5 102 553.5 86.2599 568.722 73.5 587.5 73.5 606.278 73.5 621.5 86.2599 621.5 102 621.5 117.74 606.278 130.5 587.5 130.5Z" stroke="#2F528F" stroke-width="5" stroke-miterlimit="8" fill="#00B0F0" fill-rule="evenodd"/><path d="M885 522.5C865.946 522.5 850.5 509.74 850.5 494 850.5 478.26 865.946 465.5 885 465.5 904.054 465.5 919.5 478.26 919.5 494 919.5 509.74 904.054 522.5 885 522.5Z" stroke="#2F528F" stroke-width="5" stroke-miterlimit="8" fill="#00B0F0" fill-rule="evenodd"/><path d="M885 405.5C865.946 405.5 850.5 392.74 850.5 377 850.5 361.26 865.946 348.5 885 348.5 904.054 348.5 919.5 361.26 919.5 377 919.5 392.74 904.054 405.5 885 405.5Z" stroke="#2F528F" stroke-width="5" stroke-miterlimit="8" fill="#00B0F0" fill-rule="evenodd"/><path d="M885 333.5C865.946 333.5 850.5 320.74 850.5 305 850.5 289.26 865.946 276.5 885 276.5 904.054 276.5 919.5 289.26 919.5 305 919.5 320.74 904.054 333.5 885 333.5Z" stroke="#2F528F" stroke-width="5" stroke-miterlimit="8" fill="#00B0F0" fill-rule="evenodd"/><path d="M885 207.5C865.946 207.5 850.5 194.74 850.5 179 850.5 163.26 865.946 150.5 885 150.5 904.054 150.5 919.5 163.26 919.5 179 919.5 194.74 904.054 207.5 885 207.5Z" stroke="#2F528F" stroke-width="5" stroke-miterlimit="8" fill="#00B0F0" fill-rule="evenodd"/><path d="M1193 361.5C1173.95 361.5 1158.5 348.74 1158.5 333 1158.5 317.26 1173.95 304.5 1193 304.5 1212.05 304.5 1227.5 317.26 1227.5 333 1227.5 348.74 1212.05 361.5 1193 361.5Z" stroke="#2F528F" stroke-width="5" stroke-miterlimit="8" fill="#00B0F0" fill-rule="evenodd"/><path d="M0.775473-2.37669 217.54 68.3498 215.989 73.1032-0.775473 2.37669ZM216.714 62.8209 228.647 74.6038 212.061 77.0811Z" fill="#4472C4" transform="matrix(1 0 0 -1 621.5 569.104)"/><path d="M621.668 476.006 837.844 490.585 837.508 495.574 621.332 480.994ZM835.686 485.428 850.148 493.921 834.677 500.394Z" fill="#FFFFFF"/><path d="M622.696 367.305 840.368 485.93 837.975 490.32 620.304 371.695ZM840.565 480.343 850.147 494.107 833.387 493.514Z" fill="#FF0000"/><path d="M623.179 284.648 842.565 483.536 839.207 487.241 619.821 288.352ZM844.071 478.153 850.147 493.784 833.997 489.266Z" fill="#FFC000"/><path d="M623.509 184.012 844.719 482.808 840.7 485.783 619.491 186.988ZM847.25 477.824 850.147 494.342 835.194 486.749Z" fill="#F4B183"/><path d="M1.2604-2.15902 382.13 220.186 379.609 224.504-1.2604 2.15902ZM382.492 214.608 391.665 228.647 374.93 227.562Z" fill="#70AD47" transform="matrix(-4.37114e-08 1 1 4.37114e-08 621.5 102.5)"/><path d="M1.01386-2.28519 218.235 94.0883 216.208 98.6587-1.01386 2.28519ZM217.978 88.5042 228.648 101.443 211.895 102.215Z" fill="#FFFFFF" transform="matrix(1 0 0 -1 621.5 478.943)"/><path d="M621.585 367.001 837.739 374.321 837.57 379.318 621.415 371.999ZM835.41 369.24 850.147 377.243 834.902 384.231Z" fill="#FF0000"/><path d="M622.419 284.175 839.442 369.999 837.604 374.648 620.581 288.825ZM838.956 364.43 850.147 376.92 833.44 378.379Z" fill="#FFC000"/><path d="M623.108 183.585 842.182 367.526 838.967 371.355 619.892 187.415ZM843.482 362.089 850.147 377.479 833.837 373.577Z" fill="#F4B183"/><path d="M1.599-1.92177 266.792 218.731 263.594 222.574-1.599 1.92177ZM268.068 213.288 274.802 228.647 258.474 224.819Z" fill="#70AD47" transform="matrix(-4.37114e-08 1 1 4.37114e-08 621.5 102.5)"/><path d="M1.60505-1.91672 220.669 181.526 217.459 185.359-1.60505 1.91672ZM221.962 176.087 228.647 191.468 212.332 187.588Z" fill="#4472C4" transform="matrix(1 0 0 -1 621.5 568.968)"/><path d="M1.88976-1.63671 222.353 252.913 218.574 256.186-1.88976 1.63671ZM224.496 247.75 228.647 263.998 213.158 257.57Z" fill="#4472C4" transform="matrix(1 0 0 -1 621.5 568.498)"/><path d="M1.51382-1.98956 220.213 164.415 217.186 168.394-1.51382 1.98956ZM221.252 158.922 228.648 173.974 212.169 170.859Z" fill="#FFFFFF" transform="matrix(1 0 0 -1 621.5 478.474)"/><path d="M0.681548-2.4053 217.303 58.9747 215.94 63.7854-0.681548 2.4053ZM216.26 53.4825 228.647 64.7877 212.171 67.9144Z" fill="#FF0000" transform="matrix(1 0 0 -1 621.5 369.288)"/><path d="M621.695 284.008 837.88 300.922 837.49 305.907 621.305 288.992ZM835.778 295.743 850.147 304.39 834.608 310.697Z" fill="#FFC000"/><path d="M622.658 183.284 840.226 296.944 837.911 301.376 620.342 187.716ZM840.325 291.355 850.147 304.948 833.38 304.65Z" fill="#F4B183"/><path d="M1.87247-1.65646 195.861 217.629 192.116 220.942-1.87247 1.65646ZM197.949 212.443 202.271 228.647 186.715 222.382Z" fill="#70AD47" transform="matrix(-4.37114e-08 1 1 4.37114e-08 621.5 102.5)"/><path d="M2.15616-1.26529 224.477 377.589 220.165 380.12-2.15616 1.26529ZM227.524 372.903 228.647 389.636 214.587 380.495Z" fill="#4472C4" transform="matrix(1 0 0 -1 621.5 569.136)"/><path d="M1.98739-1.51667 223.051 288.157 219.077 291.19-1.98739 1.51667ZM225.51 283.137 228.648 299.611 213.585 292.237Z" fill="#FFFFFF" transform="matrix(1 0 0 -1 621.5 479.111)"/><path d="M1.59989-1.92103 220.642 180.505 217.443 184.347-1.59989 1.92103ZM221.921 175.063 228.647 190.425 212.322 186.589Z" fill="#FF0000" transform="matrix(1 0 0 -1 621.5 369.925)"/><path d="M1.0657-2.26148 218.405 100.158 216.274 104.681-1.0657 2.26148ZM218.275 94.5689 228.647 107.748 211.881 108.138Z" fill="#FFC000" transform="matrix(1 0 0 -1 621.5 287.248)"/><path d="M0.06765-2.49908 216.22 3.35214 216.085 8.35031-0.06765 2.49908ZM213.856-1.71369 228.647 6.18947 213.45 13.2808Z" fill="#F4B183" transform="matrix(1 0 0 -1 621.5 185.689)"/><path d="M2.37041-0.794466 75.0316 216.001 70.2908 217.59-2.37041 0.794466ZM78.978 212.042 76.6335 228.647 64.7555 216.808Z" fill="#70AD47" transform="matrix(-4.37114e-08 1 1 4.37114e-08 621.5 102.5)"/><path d="M920.853 177.398 1149.81 324.751 1147.1 328.955 918.147 181.602ZM1150.41 319.194 1158.96 333.618 1142.29 331.807Z" fill="#00B050"/><path d="M919.795 302.017 1146.85 329.022 1146.26 333.987 919.205 306.983ZM1144.96 323.762 1158.96 332.981 1143.18 338.657Z" fill="#FFD966"/><path d="M0.452288-2.45875 227.623 39.3295 226.719 44.247-0.452288 2.45875ZM226.069 33.9597 239.465 44.0497 223.355 48.7122Z" fill="#7030A0" transform="matrix(1 0 0 -1 919.5 377.55)"/><path d="M1.39436-2.07503 230.484 151.867 227.695 156.017-1.39436 2.07503ZM231.197 146.322 239.465 160.913 222.831 158.772Z" fill="#C00000" transform="matrix(1 0 0 -1 919.5 494.413)"/><text fill="#BDD7EE" font-family="Times New Roman,Times New Roman_MSFontService,sans-serif" font-weight="700" font-size="33" transform="translate(526.636 628)">Couche 1</text><path d="M145.5 126.5 212.5 126.5 212.5 178.5 145.5 178.5ZM164.375 133 183.875 133 193.625 142.75 193.625 172 164.375 172Z" fill="#FFFFFF" fill-rule="evenodd"/><path d="M164.375 133 183.875 133 183.875 142.75 193.625 142.75 193.625 172 164.375 172Z" fill="#CDCDCD" fill-rule="evenodd"/><path d="M183.875 133 183.875 142.75 193.625 142.75Z" fill="#999999" fill-rule="evenodd"/><path d="M164.375 133 183.875 133 193.625 142.75 193.625 172 164.375 172ZM193.625 142.75 183.875 142.75 183.875 133" stroke="#2F528F" stroke-width="5" stroke-miterlimit="8" fill="none" fill-rule="evenodd"/><rect x="145.5" y="126.5" width="67" height="52" stroke="#2F528F" stroke-width="5" stroke-miterlimit="8" fill="none"/><path d="M145.5 224.5 212.5 224.5 212.5 277.5 145.5 277.5ZM164.094 231.125 183.969 231.125 193.906 241.063 193.906 270.875 164.094 270.875Z" fill="#FFFFFF" fill-rule="evenodd"/><path d="M164.094 231.125 183.969 231.125 183.969 241.063 193.906 241.063 193.906 270.875 164.094 270.875Z" fill="#CDCDCD" fill-rule="evenodd"/><path d="M183.969 231.125 183.969 241.063 193.906 241.063Z" fill="#999999" fill-rule="evenodd"/><path d="M164.094 231.125 183.969 231.125 193.906 241.063 193.906 270.875 164.094 270.875ZM193.906 241.063 183.969 241.063 183.969 231.125" stroke="#2F528F" stroke-width="5" stroke-miterlimit="8" fill="none" fill-rule="evenodd"/><rect x="145.5" y="224.5" width="67" height="53" stroke="#2F528F" stroke-width="5" stroke-miterlimit="8" fill="none"/><path d="M141.5 337.5 208.5 337.5 208.5 389.5 141.5 389.5ZM160.375 344 179.875 344 189.625 353.75 189.625 383 160.375 383Z" fill="#FFFFFF" fill-rule="evenodd"/><path d="M160.375 344 179.875 344 179.875 353.75 189.625 353.75 189.625 383 160.375 383Z" fill="#CDCDCD" fill-rule="evenodd"/><path d="M179.875 344 179.875 353.75 189.625 353.75Z" fill="#999999" fill-rule="evenodd"/><path d="M160.375 344 179.875 344 189.625 353.75 189.625 383 160.375 383ZM189.625 353.75 179.875 353.75 179.875 344" stroke="#2F528F" stroke-width="5" stroke-miterlimit="8" fill="none" fill-rule="evenodd"/><rect x="141.5" y="337.5" width="67" height="52" stroke="#2F528F" stroke-width="5" stroke-miterlimit="8" fill="none"/><path d="M143.5 449.5 210.5 449.5 210.5 501.5 143.5 501.5ZM162.375 456 181.875 456 191.625 465.75 191.625 495 162.375 495Z" fill="#FFFFFF" fill-rule="evenodd"/><path d="M162.375 456 181.875 456 181.875 465.75 191.625 465.75 191.625 495 162.375 495Z" fill="#CDCDCD" fill-rule="evenodd"/><path d="M181.875 456 181.875 465.75 191.625 465.75Z" fill="#999999" fill-rule="evenodd"/><path d="M162.375 456 181.875 456 191.625 465.75 191.625 495 162.375 495ZM191.625 465.75 181.875 465.75 181.875 456" stroke="#2F528F" stroke-width="5" stroke-miterlimit="8" fill="none" fill-rule="evenodd"/><rect x="143.5" y="449.5" width="67" height="52" stroke="#2F528F" stroke-width="5" stroke-miterlimit="8" fill="none"/><path d="M0.365695-2.47311 328.508 46.0489 327.777 50.9951-0.365695 2.47311ZM326.767 40.7371 340.509 50.3506 324.573 55.5757Z" fill="#FFFFFF" transform="matrix(1 0 0 -1 212.5 152.851)"/><path d="M212.737 150.011 540.802 181.297 540.327 186.274 212.263 154.989ZM538.788 176.082 553.009 184.972 537.364 191.015Z" fill="#FFFFFF"/><path d="M213.842 150.391 543.806 360.388 541.121 364.606 211.158 154.609ZM544.381 354.827 553.009 369.208 536.327 367.482Z" fill="#FFFFFF"/><path d="M213.416 150.174 542.293 279.626 540.462 284.279 211.584 154.826ZM541.798 274.058 553.009 286.531 536.304 288.016Z" fill="#FFFFFF"/><path d="M214.229 150.694 545.706 467.945 542.249 471.557 210.771 154.306ZM547.358 462.604 553.008 478.394 536.986 473.441Z" fill="#FFFFFF"/><path d="M214.434 150.916 547.024 557.163 543.156 560.33 210.566 154.084ZM549.31 552.061 553.009 568.419 537.703 561.563Z" fill="#FFFFFF"/><path d="M0.999049-2.2917 330.049 141.155 328.05 145.738-0.999049 2.2917ZM329.755 135.572 340.508 148.442 323.761 149.323Z" fill="#70AD47" transform="matrix(1 0 0 -1 212.5 250.942)"/><path d="M212.762 248.014 540.84 282.641 540.316 287.613 212.238 252.986ZM538.879 277.406 553.009 286.439 537.305 292.323Z" fill="#70AD47"/><path d="M0.473067-2.45483 328.707 60.7986 327.761 65.7083-0.473067 2.45483ZM327.198 55.4159 340.508 65.6188 324.36 70.1449Z" fill="#70AD47" transform="matrix(1 0 0 -1 212.5 251.119)"/><path d="M213.322 248.139 542.026 362.644 540.382 367.366 211.678 252.861ZM541.31 357.1 553.008 369.117 536.376 371.265Z" fill="#70AD47"/><path d="M213.89 248.422 544.009 469.275 541.229 473.43 211.11 252.578ZM544.711 463.728 553.008 478.303 536.37 476.196Z" fill="#70AD47"/><path d="M214.206 248.672 545.576 557.971 542.165 561.626 210.794 252.328ZM547.16 552.61 553.008 568.327 536.925 563.575Z" fill="#70AD47"/><path d="M1.50964-1.99274 336.046 251.442 333.027 255.428-1.50964 1.99274ZM337.074 245.948 344.502 260.984 328.016 257.904Z" fill="#FFC000" transform="matrix(1 0 0 -1 208.5 363.484)"/><path d="M1.14841-2.22062 334.546 170.198 332.249 174.639-1.14841 2.22062ZM334.623 164.609 344.502 178.161 327.733 177.933Z" fill="#FFC000" transform="matrix(1 0 0 -1 208.5 363.661)"/><path d="M0.542643-2.4404 332.843 71.4494 331.758 76.3302-0.542643 2.4404ZM331.488 66.026 344.502 76.603 328.232 80.6684Z" fill="#FFC000" transform="matrix(1 0 0 -1 208.5 363.103)"/><path d="M208.544 361 540.547 366.854 540.459 371.854 208.456 366ZM538.136 361.811 553.002 369.574 537.872 376.809Z" fill="#FFC000"/><path d="M209.293 361.129 541.94 472.423 540.354 477.165 207.707 365.871ZM541.156 466.889 553.002 478.76 536.397 481.114Z" fill="#FFC000"/><path d="M209.78 361.352 543.544 560.239 540.984 564.534 207.22 365.648ZM543.955 554.664 553.002 568.785 536.277 567.549Z" fill="#FFC000"/><path d="M1.84165-1.69066 335.893 362.194 332.209 365.576-1.84165 1.69066ZM337.886 356.972 342.505 373.094 326.836 367.116Z" fill="#C00000" transform="matrix(1 0 0 -1 210.5 475.594)"/><path d="M1.61635-1.9072 334.585 280.282 331.353 284.097-1.61635 1.9072ZM335.911 274.851 342.505 290.271 326.212 286.295Z" fill="#C00000" transform="matrix(1 0 0 -1 210.5 475.771)"/><path d="M1.20644-2.18963 332.763 180.491 330.35 184.87-1.20644 2.18963ZM332.987 174.905 342.505 188.713 325.748 188.043Z" fill="#C00000" transform="matrix(1 0 0 -1 210.5 475.213)"/><path d="M0.739351-2.38817 331.304 99.9508 329.825 104.727-0.739351 2.38817ZM330.394 94.435 342.505 106.036 325.958 108.764Z" fill="#C00000" transform="matrix(1 0 0 -1 210.5 475.536)"/><path d="M210.523 473 540.528 476.036 540.482 481.035 210.477 478ZM538.074 471.013 553.005 478.65 537.936 486.012Z" fill="#C00000"/><path d="M211.156 473.088 541.6 562.982 540.288 567.806 209.844 477.912ZM540.5 557.501 553.005 568.675 536.562 571.975Z" fill="#C00000"/><text fill="#BDD7EE" font-family="Times New Roman,Times New Roman_MSFontService,sans-serif" font-weight="700" font-size="33" transform="translate(833.461 122)">Couche 2</text><path d="M3.61118e-06-2.5 101.065-2.49985 101.065 2.50015-3.61118e-06 2.5ZM98.5655-7.49986 113.565 0.000164042 98.5654 7.50014Z" fill="#9B9806" transform="matrix(1 0 0 -1 1227.5 333.5)"/></g></svg>