<svg xmlns="http://www.w3.org/2000/svg" xmlns:xlink="http://www.w3.org/1999/xlink" width="420" height="400" overflow="hidden" viewBox="0 0 690 730" style="width:0%"><defs><clipPath id="clip0"><path fill-rule="evenodd" d="M1230 163 1928 163 1928 976 1230 976Z" clip-rule="evenodd"/></clipPath></defs><g clip-path="url(#clip0)" transform="translate(-1230 -163)"><path fill="#00B0F0" fill-rule="evenodd" stroke="#2F528F" stroke-miterlimit="8" stroke-width="5" d="M1233.5 204C1233.5 183.842 1245.81 167.5 1261 167.5 1276.19 167.5 1288.5 183.842 1288.5 204 1288.5 224.158 1276.19 240.5 1261 240.5 1245.81 240.5 1233.5 224.158 1233.5 204Z"/><path fill="#00B0F0" fill-rule="evenodd" stroke="#2F528F" stroke-miterlimit="8" stroke-width="5" d="M1297.5 204C1297.5 183.842 1309.81 167.5 1325 167.5 1340.19 167.5 1352.5 183.842 1352.5 204 1352.5 224.158 1340.19 240.5 1325 240.5 1309.81 240.5 1297.5 224.158 1297.5 204Z"/><path fill="#00B0F0" fill-rule="evenodd" stroke="#2F528F" stroke-miterlimit="8" stroke-width="5" d="M1431.5 204C1431.5 183.842 1443.81 167.5 1459 167.5 1474.19 167.5 1486.5 183.842 1486.5 204 1486.5 224.158 1474.19 240.5 1459 240.5 1443.81 240.5 1431.5 224.158 1431.5 204Z"/><path fill="#00B0F0" fill-rule="evenodd" stroke="#2F528F" stroke-miterlimit="8" stroke-width="5" d="M1498.5 204C1498.5 183.842 1510.81 167.5 1526 167.5 1541.19 167.5 1553.5 183.842 1553.5 204 1553.5 224.158 1541.19 240.5 1526 240.5 1510.81 240.5 1498.5 224.158 1498.5 204Z"/><path fill="#00B0F0" fill-rule="evenodd" stroke="#2F528F" stroke-miterlimit="8" stroke-width="5" d="M1626.5 204C1626.5 183.842 1638.81 167.5 1654 167.5 1669.19 167.5 1681.5 183.842 1681.5 204 1681.5 224.158 1669.19 240.5 1654 240.5 1638.81 240.5 1626.5 224.158 1626.5 204Z"/><path fill="#00B0F0" fill-rule="evenodd" stroke="#2F528F" stroke-miterlimit="8" stroke-width="5" d="M1693.5 204C1693.5 183.842 1705.81 167.5 1721 167.5 1736.19 167.5 1748.5 183.842 1748.5 204 1748.5 224.158 1736.19 240.5 1721 240.5 1705.81 240.5 1693.5 224.158 1693.5 204Z"/><path fill="#00B0F0" fill-rule="evenodd" stroke="#2F528F" stroke-miterlimit="8" stroke-width="5" d="M1313.5 519.5C1313.5 499.065 1326.04 482.5 1341.5 482.5 1356.96 482.5 1369.5 499.065 1369.5 519.5 1369.5 539.935 1356.96 556.5 1341.5 556.5 1326.04 556.5 1313.5 539.935 1313.5 519.5Z"/><path fill="#00B0F0" fill-rule="evenodd" stroke="#2F528F" stroke-miterlimit="8" stroke-width="5" d="M1427.5 519.5C1427.5 499.065 1439.81 482.5 1455 482.5 1470.19 482.5 1482.5 499.065 1482.5 519.5 1482.5 539.935 1470.19 556.5 1455 556.5 1439.81 556.5 1427.5 539.935 1427.5 519.5Z"/><path fill="#00B0F0" fill-rule="evenodd" stroke="#2F528F" stroke-miterlimit="8" stroke-width="5" d="M1497.5 519.5C1497.5 499.065 1509.81 482.5 1525 482.5 1540.19 482.5 1552.5 499.065 1552.5 519.5 1552.5 539.935 1540.19 556.5 1525 556.5 1509.81 556.5 1497.5 539.935 1497.5 519.5Z"/><path fill="#00B0F0" fill-rule="evenodd" stroke="#2F528F" stroke-miterlimit="8" stroke-width="5" d="M1618.5 519.5C1618.5 499.065 1631.04 482.5 1646.5 482.5 1661.96 482.5 1674.5 499.065 1674.5 519.5 1674.5 539.935 1661.96 556.5 1646.5 556.5 1631.04 556.5 1618.5 539.935 1618.5 519.5Z"/><path fill="#00B0F0" fill-rule="evenodd" stroke="#2F528F" stroke-miterlimit="8" stroke-width="5" d="M1367.5 847C1367.5 826.842 1379.81 810.5 1395 810.5 1410.19 810.5 1422.5 826.842 1422.5 847 1422.5 867.158 1410.19 883.5 1395 883.5 1379.81 883.5 1367.5 867.158 1367.5 847Z"/><path fill="#00B0F0" fill-rule="evenodd" stroke="#2F528F" stroke-miterlimit="8" stroke-width="5" d="M1473.5 847C1473.5 826.842 1485.81 810.5 1501 810.5 1516.19 810.5 1528.5 826.842 1528.5 847 1528.5 867.158 1516.19 883.5 1501 883.5 1485.81 883.5 1473.5 867.158 1473.5 847Z"/><path fill="#00B0F0" fill-rule="evenodd" stroke="#2F528F" stroke-miterlimit="8" stroke-width="5" d="M1608.5 847C1608.5 826.842 1621.04 810.5 1636.5 810.5 1651.96 810.5 1664.5 826.842 1664.5 847 1664.5 867.158 1651.96 883.5 1636.5 883.5 1621.04 883.5 1608.5 867.158 1608.5 847Z"/><path fill="#4472C4" d="M1263.87 239.713 1340.39 470.46 1335.65 472.033 1259.13 241.287ZM1344.35 466.513 1341.96 483.111 1330.12 471.234Z"/><path fill="#0D0D0D" d="M1327.99 240.333 1343.44 470.472 1338.45 470.807 1323.01 240.667ZM1348.26 467.643 1341.78 483.111 1333.3 468.647Z"/><path fill="red" d="M2.25047-1.08876 114.18 230.27 109.68 232.448-2.25047 1.08876ZM117.593 225.842 117.374 242.611 104.09 232.375Z" transform="matrix(-1 -8.74228e-08 -8.74228e-08 1 1458.87 240.5)"/><path fill="#FFC000" d="M1.99078-1.51221 178.719 231.144 174.737 234.169-1.99078 1.51221ZM181.188 226.129 184.289 242.611 169.243 235.203Z" transform="matrix(-1 -8.74228e-08 -8.74228e-08 1 1525.79 240.5)"/><path fill="#843C0C" d="M1.53401-1.97403 303.867 232.967 300.799 236.915-1.53401 1.97403ZM304.961 227.485 312.203 242.611 295.757 239.329Z" transform="matrix(-1 -8.74228e-08 -8.74228e-08 1 1653.7 240.5)"/><path fill="#70AD47" d="M1.34718-2.10597 370.077 233.77 367.383 237.982-1.34718 2.10597ZM370.665 228.21 379.259 242.611 362.582 240.846Z" transform="matrix(-1 -8.74228e-08 -8.74228e-08 1 1720.76 240.5)"/><path fill="#0D0D0D" d="M1327.71 239.323 1451.27 470.906 1446.86 473.26 1323.29 241.677ZM1454.5 466.347 1454.95 483.111 1441.27 473.408Z"/><path fill="red" d="M2.49962-0.0433939 6.49443 230.07 1.49518 230.156-2.49962 0.0433939ZM11.4503 227.483 4.21178 242.611-3.54746 227.744Z" transform="matrix(-1 -8.74228e-08 -8.74228e-08 1 1458.71 240.5)"/><path fill="#FFC000" d="M2.39903-0.703332 70.0095 229.912 65.2115 231.319-2.39903 0.703332ZM74.1042 226.106 71.1271 242.611 59.7101 230.326Z" transform="matrix(-1 -8.74228e-08 -8.74228e-08 1 1525.63 240.5)"/><path fill="#843C0C" d="M1.93278-1.58568 193.046 231.362 189.18 234.533-1.93278 1.58568ZM195.325 226.258 199.041 242.611 183.729 235.772Z" transform="matrix(-1 -8.74228e-08 -8.74228e-08 1 1653.54 240.5)"/><path fill="#70AD47" d="M1.68436-1.84741 258.545 232.342 255.176 236.037-1.68436 1.84741ZM260.066 226.963 266.097 242.611 249.96 238.047Z" transform="matrix(-1 -8.74228e-08 -8.74228e-08 1 1720.6 240.5)"/><path fill="#4472C4" d="M1263.45 238.941 1449.27 471.781 1445.37 474.9 1259.55 242.059ZM1451.62 466.709 1455.12 483.111 1439.9 476.065Z"/><path fill="#4472C4" d="M1263.19 238.66 1517.84 472.811 1514.46 476.491 1259.81 242.34ZM1519.39 467.438 1525.35 483.111 1509.23 478.479Z"/><path fill="#0D0D0D" d="M1327.43 238.911 1519.17 471.871 1515.31 475.049 1323.57 242.089ZM1521.44 466.764 1525.18 483.111 1509.86 476.296Z"/><path fill="red" d="M1460.91 239.844 1523.65 470.393 1518.83 471.706 1456.09 241.156ZM1527.82 466.668 1524.52 483.111 1513.35 470.607Z"/><path fill="#FFC000" d="M2.49998-0.00920915 3.34764 230.101-1.65233 230.12-2.49998 0.00920915ZM8.3384 227.583 0.893701 242.611-6.6615 227.638Z" transform="matrix(-1 -8.74228e-08 -8.74228e-08 1 1525.39 240.5)"/><path fill="#843C0C" d="M2.20809-1.17233 125.154 230.398 120.738 232.743-2.20809 1.17233ZM128.398 225.846 128.808 242.611 115.15 232.88Z" transform="matrix(-1 -8.74228e-08 -8.74228e-08 1 1653.31 240.5)"/><path fill="#70AD47" d="M1.94521-1.5704 189.957 231.315 186.067 234.456-1.94521 1.5704ZM192.277 226.229 195.864 242.611 180.606 235.651Z" transform="matrix(-1 -8.74228e-08 -8.74228e-08 1 1720.36 240.5)"/><path fill="#4472C4" d="M1262.83 238.384 1637.76 474.337 1635.1 478.569 1260.17 242.616ZM1638.31 468.774 1647.01 483.111 1630.32 481.469Z"/><path fill="#0D0D0D" d="M1327.01 238.505 1638.37 473.584 1635.35 477.575 1323.99 242.495ZM1639.38 468.087 1646.84 483.111 1630.35 480.059Z"/><path fill="red" d="M1460.48 238.97 1640.51 471.695 1636.55 474.754 1456.52 242.03ZM1642.93 466.658 1646.18 483.111 1631.07 475.836Z"/><path fill="#FFC000" d="M1527.74 239.386 1642.93 470.806 1638.46 473.034 1523.26 241.614ZM1646.29 466.34 1646.26 483.111 1632.87 473.024Z"/><path fill="#843C0C" d="M2.49892-0.0736466 9.28078 230.043 4.28295 230.19-2.49892 0.0736466ZM14.205 227.397 7.1501 242.611-0.788526 227.839Z" transform="matrix(-1 -8.74228e-08 -8.74228e-08 1 1653.65 240.5)"/><path fill="#70AD47" d="M2.39067-0.731222 72.9408 229.927 68.1595 231.389-2.39067 0.731222ZM76.9909 226.074 74.2062 242.611 62.6468 230.461Z" transform="matrix(-1 -8.74228e-08 -8.74228e-08 1 1720.71 240.5)"/><path fill="#00B050" d="M1.77655-1.75894 244.552 243.447 240.999 246.965-1.77655 1.75894ZM246.347 238.153 251.571 254.089 235.687 248.706Z" transform="matrix(-1 -8.74228e-08 -8.74228e-08 1 1646.07 556.5)"/><path fill="#00B050" d="M2.16869-1.2437 141.665 242.001 137.328 244.489-2.16869 1.2437ZM144.759 237.346 145.715 254.089 131.747 244.808Z" transform="matrix(-1 -8.74228e-08 -8.74228e-08 1 1646.21 556.5)"/><path fill="#00B050" d="M2.49802-0.0994016 12.1117 241.499 7.1157 241.698-2.49802 0.0994016ZM17.0084 238.802 10.1107 254.089 2.02025 239.399Z" transform="matrix(-1 -8.74228e-08 -8.74228e-08 1 1646.61 556.5)"/><path fill="#0D0D0D" d="M1526.79 555.495 1633.31 798.138 1628.73 800.148 1522.21 557.505ZM1636.88 793.839 1636.05 810.589 1623.15 799.869Z"/><path fill="#0D0D0D" d="M2.48887-0.235644 25.3676 241.409 20.3898 241.88-2.48887 0.235644ZM30.1097 238.449 24.0569 254.089 15.1764 239.862Z" transform="matrix(-1 -8.74228e-08 -8.74228e-08 1 1524.56 556.5)"/><path fill="#0D0D0D" d="M2.22593-1.13809 126.448 241.821 121.996 244.097-2.22593 1.13809ZM129.762 237.319 129.913 254.089 116.406 244.147Z" transform="matrix(-1 -8.74228e-08 -8.74228e-08 1 1524.41 556.5)"/><path fill="#7030A0" d="M1456.53 555.045 1631.04 798.968 1626.97 801.877 1452.47 557.955ZM1633.65 794.025 1636.28 810.589 1621.45 802.753Z"/><path fill="#7030A0" d="M1456.96 556.053 1500.9 797.843 1495.98 798.737 1452.04 556.947ZM1505.37 794.489 1500.68 810.589 1490.61 797.172Z"/><path fill="#7030A0" d="M2.43377-0.571635 59.255 241.348 54.3875 242.491-2.43377 0.571635ZM63.551 237.771 59.6795 254.089 48.9483 241.201Z" transform="matrix(-1 -8.74228e-08 -8.74228e-08 1 1454.18 556.5)"/><path fill="#C00000" d="M1343.95 555.985 1394.85 797.842 1389.96 798.872 1339.05 557.015ZM1399.23 794.366 1394.98 810.589 1384.55 797.455Z"/><path fill="#C00000" d="M1343.62 555.172 1496.32 798.67 1492.08 801.327 1339.38 557.828ZM1499.22 793.896 1500.84 810.589 1486.52 801.865Z"/><path fill="#C00000" d="M1343.13 554.606 1628.6 800.536 1625.34 804.324 1339.87 558.394ZM1629.97 795.116 1636.44 810.589 1620.18 806.481Z"/><path fill="#2F5597" d="M1827.31 310.192 1771.47 216.461 1773.19 215.437 1829.03 309.168ZM1768.03 220.938 1767 207 1778.77 214.54Z"/><path fill="#2F5597" d="M1773.81 577.284 1710.23 536.468 1711.31 534.785 1774.89 575.601ZM1709.14 542.012 1702 530 1715.9 531.492Z"/><path fill="#2F5597" d="M9.93543e-07-1 154.692-0.999846 154.692 1.00015-9.93543e-07 1ZM152.608-6.24985 165.108 0.000164042 152.608 6.25015Z" transform="matrix(-1 -8.74228e-08 -8.74228e-08 1 1846.11 842)"/><text fill="#203864" font-family="Times New Roman,Times New Roman_MSFontService,sans-serif" font-size="42" font-weight="700" transform="translate(1753.8 357)">Couche <tspan x="0" y="50">d’entrée</tspan> <tspan x="-46.544" y="267">Couche </tspan><tspan x="-46.544" y="317">cachée</tspan> <tspan x="-13.336" y="423">Couche </tspan><tspan x="-13.336" y="473">de sortie</tspan></text></g></svg>