<svg width="420" height="400" xmlns="http://www.w3.org/2000/svg" xmlns:xlink="http://www.w3.org/1999/xlink"
    overflow="hidden" viewBox="0 0 690 730" style="backgrou nd:darkred;width:0%">
    <defs>
        <clipPath id="clip0">
            <path d="M211 147 909 147 909 960 211 960Z" fill-rule="evenodd" clip-rule="evenodd" />
        </clipPath>
    </defs>
    <g clip-path="url(#clip0)" transform="translate(-211 -147)">
        <path
            d="M214.5 188C214.5 167.842 226.812 151.5 242 151.5 257.188 151.5 269.5 167.842 269.5 188 269.5 208.158 257.188 224.5 242 224.5 226.812 224.5 214.5 208.158 214.5 188Z"
            stroke="#2F528F" stroke-width="5" stroke-miterlimit="8" fill="#00B0F0" fill-rule="evenodd" />
        <path
            d="M278.5 188C278.5 167.842 291.036 151.5 306.5 151.5 321.964 151.5 334.5 167.842 334.5 188 334.5 208.158 321.964 224.5 306.5 224.5 291.036 224.5 278.5 208.158 278.5 188Z"
            stroke="#2F528F" stroke-width="5" stroke-miterlimit="8" fill="#00B0F0" fill-rule="evenodd" />
        <path
            d="M412.5 188C412.5 167.842 424.812 151.5 440 151.5 455.188 151.5 467.5 167.842 467.5 188 467.5 208.158 455.188 224.5 440 224.5 424.812 224.5 412.5 208.158 412.5 188Z"
            stroke="#2F528F" stroke-width="5" stroke-miterlimit="8" fill="#00B0F0" fill-rule="evenodd" />
        <path
            d="M479.5 188C479.5 167.842 491.812 151.5 507 151.5 522.188 151.5 534.5 167.842 534.5 188 534.5 208.158 522.188 224.5 507 224.5 491.812 224.5 479.5 208.158 479.5 188Z"
            stroke="#2F528F" stroke-width="5" stroke-miterlimit="8" fill="#00B0F0" fill-rule="evenodd" />
        <path
            d="M607.5 188C607.5 167.842 619.812 151.5 635 151.5 650.188 151.5 662.5 167.842 662.5 188 662.5 208.158 650.188 224.5 635 224.5 619.812 224.5 607.5 208.158 607.5 188Z"
            stroke="#2F528F" stroke-width="5" stroke-miterlimit="8" fill="#00B0F0" fill-rule="evenodd" />
        <path
            d="M674.5 188C674.5 167.842 686.812 151.5 702 151.5 717.188 151.5 729.5 167.842 729.5 188 729.5 208.158 717.188 224.5 702 224.5 686.812 224.5 674.5 208.158 674.5 188Z"
            stroke="#2F528F" stroke-width="5" stroke-miterlimit="8" fill="#00B0F0" fill-rule="evenodd" />
        <path
            d="M295.5 503C295.5 482.842 307.812 466.5 323 466.5 338.188 466.5 350.5 482.842 350.5 503 350.5 523.158 338.188 539.5 323 539.5 307.812 539.5 295.5 523.158 295.5 503Z"
            stroke="#2F528F" stroke-width="5" stroke-miterlimit="8" fill="#00B0F0" fill-rule="evenodd" />
        <path
            d="M408.5 503C408.5 482.842 420.812 466.5 436 466.5 451.188 466.5 463.5 482.842 463.5 503 463.5 523.158 451.188 539.5 436 539.5 420.812 539.5 408.5 523.158 408.5 503Z"
            stroke="#2F528F" stroke-width="5" stroke-miterlimit="8" fill="#00B0F0" fill-rule="evenodd" />
        <path
            d="M478.5 503C478.5 482.842 490.812 466.5 506 466.5 521.188 466.5 533.5 482.842 533.5 503 533.5 523.158 521.188 539.5 506 539.5 490.812 539.5 478.5 523.158 478.5 503Z"
            stroke="#2F528F" stroke-width="5" stroke-miterlimit="8" fill="#00B0F0" fill-rule="evenodd" />
        <path
            d="M600.5 503C600.5 482.842 612.812 466.5 628 466.5 643.188 466.5 655.5 482.842 655.5 503 655.5 523.158 643.188 539.5 628 539.5 612.812 539.5 600.5 523.158 600.5 503Z"
            stroke="#2F528F" stroke-width="5" stroke-miterlimit="8" fill="#00B0F0" fill-rule="evenodd" />
        <path
            d="M348.5 830.5C348.5 810.065 360.812 793.5 376 793.5 391.188 793.5 403.5 810.065 403.5 830.5 403.5 850.935 391.188 867.5 376 867.5 360.812 867.5 348.5 850.935 348.5 830.5Z"
            stroke="#2F528F" stroke-width="5" stroke-miterlimit="8" fill="#00B0F0" fill-rule="evenodd" />
        <path
            d="M454.5 830.5C454.5 810.065 466.812 793.5 482 793.5 497.188 793.5 509.5 810.065 509.5 830.5 509.5 850.935 497.188 867.5 482 867.5 466.812 867.5 454.5 850.935 454.5 830.5Z"
            stroke="#2F528F" stroke-width="5" stroke-miterlimit="8" fill="#00B0F0" fill-rule="evenodd" />
        <path
            d="M590.5 830.5C590.5 810.065 602.812 793.5 618 793.5 633.188 793.5 645.5 810.065 645.5 830.5 645.5 850.935 633.188 867.5 618 867.5 602.812 867.5 590.5 850.935 590.5 830.5Z"
            stroke="#2F528F" stroke-width="5" stroke-miterlimit="8" fill="#00B0F0" fill-rule="evenodd" />
        <path
            d="M244.873 223.713 321.394 454.46 316.648 456.033 240.127 225.287ZM325.353 450.513 322.956 467.111 311.115 455.234Z"
            fill="#4472C4" />
        <path
            d="M308.994 224.333 324.441 454.472 319.452 454.807 304.006 224.667ZM329.262 451.643 322.784 467.111 314.296 452.647Z"
            fill="#BFBFBF" />
        <path
            d="M2.25047-1.08876 114.18 230.27 109.68 232.448-2.25047 1.08876ZM117.593 225.842 117.374 242.611 104.09 232.375Z"
            fill="#FF0000" transform="matrix(-1 -8.74228e-08 -8.74228e-08 1 439.874 224.5)" />
        <path
            d="M1.99078-1.51221 178.719 231.144 174.737 234.169-1.99078 1.51221ZM181.188 226.129 184.289 242.611 169.243 235.203Z"
            fill="#FFC000" transform="matrix(-1 -8.74228e-08 -8.74228e-08 1 506.789 224.5)" />
        <path
            d="M1.53401-1.97403 303.867 232.967 300.799 236.915-1.53401 1.97403ZM304.961 227.485 312.203 242.611 295.757 239.329Z"
            fill="#843C0C" transform="matrix(-1 -8.74228e-08 -8.74228e-08 1 634.703 224.5)" />
        <path
            d="M1.34718-2.10597 370.077 233.77 367.383 237.982-1.34718 2.10597ZM370.665 228.21 379.259 242.611 362.582 240.846Z"
            fill="#70AD47" transform="matrix(-1 -8.74228e-08 -8.74228e-08 1 701.759 224.5)" />
        <path
            d="M308.706 223.323 432.267 454.906 427.856 457.26 304.294 225.677ZM435.502 450.347 435.946 467.111 422.268 457.408Z"
            fill="#BFBFBF" />
        <path
            d="M2.49962-0.0433939 6.49443 230.07 1.49518 230.156-2.49962 0.0433939ZM11.4503 227.483 4.21178 242.611-3.54746 227.744Z"
            fill="#FF0000" transform="matrix(-1 -8.74228e-08 -8.74228e-08 1 440.712 224.5)" />
        <path
            d="M2.39903-0.703332 70.0095 229.912 65.2115 231.319-2.39903 0.703332ZM74.1042 226.106 71.1271 242.611 59.7101 230.326Z"
            fill="#FFC000" transform="matrix(-1 -8.74228e-08 -8.74228e-08 1 507.627 224.5)" />
        <path
            d="M1.93278-1.58568 193.046 231.362 189.18 234.533-1.93278 1.58568ZM195.325 226.258 199.041 242.611 183.729 235.772Z"
            fill="#843C0C" transform="matrix(-1 -8.74228e-08 -8.74228e-08 1 635.541 224.5)" />
        <path
            d="M1.68436-1.84741 258.545 232.342 255.176 236.037-1.68436 1.84741ZM260.066 226.963 266.097 242.611 249.96 238.047Z"
            fill="#70AD47" transform="matrix(-1 -8.74228e-08 -8.74228e-08 1 702.597 224.5)" />
        <path
            d="M244.454 222.941 430.274 455.781 426.366 458.9 240.546 226.059ZM432.623 450.709 436.118 467.111 420.899 460.065Z"
            fill="#4472C4" />
        <path
            d="M244.192 222.66 498.842 456.811 495.458 460.491 240.808 226.34ZM500.385 451.438 506.351 467.111 490.233 462.479Z"
            fill="#4472C4" />
        <path
            d="M308.43 222.911 500.166 455.871 496.305 459.049 304.57 226.089ZM502.438 450.764 506.179 467.111 490.856 460.296Z"
            fill="#BFBFBF" />
        <path
            d="M442.912 223.844 505.651 454.393 500.827 455.706 438.088 225.156ZM509.819 450.668 506.521 467.111 495.346 454.607Z"
            fill="#FF0000" />
        <path
            d="M2.49998-0.00920915 3.34764 230.101-1.65233 230.12-2.49998 0.00920915ZM8.3384 227.583 0.893701 242.611-6.6615 227.638Z"
            fill="#FFC000" transform="matrix(-1 -8.74228e-08 -8.74228e-08 1 507.394 224.5)" />
        <path
            d="M2.20809-1.17233 125.154 230.398 120.738 232.743-2.20809 1.17233ZM128.398 225.846 128.808 242.611 115.15 232.88Z"
            fill="#843C0C" transform="matrix(-1 -8.74228e-08 -8.74228e-08 1 635.308 224.5)" />
        <path
            d="M1.94521-1.5704 189.957 231.315 186.067 234.456-1.94521 1.5704ZM192.277 226.229 195.864 242.611 180.606 235.651Z"
            fill="#70AD47" transform="matrix(-1 -8.74228e-08 -8.74228e-08 1 702.364 224.5)" />
        <path
            d="M243.832 222.384 618.761 458.337 616.098 462.569 241.168 226.616ZM619.308 452.774 628.009 467.111 611.319 465.469Z"
            fill="#4472C4" />
        <path
            d="M308.006 222.505 619.367 457.584 616.355 461.575 304.994 226.495ZM620.385 452.087 627.837 467.111 611.346 464.059Z"
            fill="#BFBFBF" />
        <path
            d="M442.477 222.97 622.508 455.695 618.553 458.754 438.523 226.03ZM624.933 450.658 628.179 467.111 613.069 459.836Z"
            fill="#FF0000" />
        <path
            d="M509.738 223.386 624.932 454.806 620.456 457.034 505.262 225.614ZM628.294 450.34 628.264 467.111 614.866 457.024Z"
            fill="#FFC000" />
        <path
            d="M2.49892-0.0736466 9.28078 230.043 4.28295 230.19-2.49892 0.0736466ZM14.205 227.397 7.1501 242.611-0.788526 227.839Z"
            fill="#843C0C" transform="matrix(-1 -8.74228e-08 -8.74228e-08 1 634.65 224.5)" />
        <path
            d="M2.39067-0.731222 72.9408 229.927 68.1595 231.389-2.39067 0.731222ZM76.9909 226.074 74.2062 242.611 62.6468 230.461Z"
            fill="#70AD47" transform="matrix(-1 -8.74228e-08 -8.74228e-08 1 701.706 224.5)" />
        <path
            d="M1.77655-1.75894 244.552 243.447 240.999 246.965-1.77655 1.75894ZM246.347 238.153 251.571 254.089 235.687 248.706Z"
            fill="#00B050" transform="matrix(-1 -8.74228e-08 -8.74228e-08 1 628.071 539.5)" />
        <path
            d="M2.16869-1.2437 141.665 242.001 137.328 244.489-2.16869 1.2437ZM144.759 237.346 145.715 254.089 131.747 244.808Z"
            fill="#00B050" transform="matrix(-1 -8.74228e-08 -8.74228e-08 1 628.215 539.5)" />
        <path
            d="M2.49802-0.0994016 12.1117 241.499 7.1157 241.698-2.49802 0.0994016ZM17.0084 238.802 10.1107 254.089 2.02025 239.399Z"
            fill="#00B050" transform="matrix(-1 -8.74228e-08 -8.74228e-08 1 627.611 539.5)" />
        <path
            d="M508.789 538.495 615.311 781.138 610.733 783.148 504.211 540.505ZM618.885 776.839 618.047 793.589 605.15 782.869Z"
            fill="#BFBFBF" />
        <path
            d="M2.48887-0.235644 25.3676 241.409 20.3898 241.88-2.48887 0.235644ZM30.1097 238.449 24.0569 254.089 15.1764 239.862Z"
            fill="#BFBFBF" transform="matrix(-1 -8.74228e-08 -8.74228e-08 1 506.557 539.5)" />
        <path
            d="M2.22593-1.13809 126.448 241.821 121.996 244.097-2.22593 1.13809ZM129.762 237.319 129.913 254.089 116.406 244.147Z"
            fill="#BFBFBF" transform="matrix(-1 -8.74228e-08 -8.74228e-08 1 506.413 539.5)" />
        <path
            d="M438.533 538.045 613.04 781.968 608.974 784.877 434.467 540.955ZM615.652 777.025 618.28 793.589 603.453 785.753Z"
            fill="#7030A0" />
        <path
            d="M438.96 539.053 482.901 780.843 477.981 781.737 434.04 539.947ZM487.373 777.489 482.676 793.589 472.615 780.172Z"
            fill="#7030A0" />
        <path
            d="M2.43377-0.571635 59.255 241.348 54.3875 242.491-2.43377 0.571635ZM63.551 237.771 59.6795 254.089 48.9483 241.201Z"
            fill="#7030A0" transform="matrix(-1 -8.74228e-08 -8.74228e-08 1 436.179 539.5)" />
        <path
            d="M324.946 538.985 375.854 780.842 370.961 781.872 320.054 540.015ZM380.232 777.366 375.982 793.589 365.554 780.455Z"
            fill="#C00000" />
        <path
            d="M324.618 538.172 477.315 781.67 473.079 784.327 320.382 540.828ZM480.223 776.896 481.838 793.589 467.515 784.865Z"
            fill="#C00000" />
        <path
            d="M324.132 537.606 609.604 783.536 606.34 787.324 320.868 541.394ZM610.973 778.116 617.442 793.589 601.183 789.481Z"
            fill="#C00000" />
        <path
            d="M810.553 293.199 753.556 199.421 755.265 198.382 812.262 292.16ZM750.151 203.928 749 190 760.833 197.436Z"
            fill="#BFBFBF" />
        <path
            d="M758.633 561.294 692.336 520.326 693.387 518.625 759.685 559.592ZM691.348 525.888 684 514 697.919 515.254Z"
            fill="#BFBFBF" />
        <path
            d="M9.93543e-07-1 154.692-0.999846 154.692 1.00015-9.93543e-07 1ZM152.608-6.24985 165.108 0.000164042 152.608 6.25015Z"
            fill="#BFBFBF" transform="matrix(-1 -8.74228e-08 -8.74228e-08 1 827.108 826)" />
        <text fill="#FFC000" font-family="Times New Roman,Times New Roman_MSFontService,sans-serif" font-weight="700"
            font-size="42" transform="translate(735.14 341)">Couche <tspan x="0" y="50">d’entrée</tspan>
            <tspan x="-46.5436" y="267">Couche </tspan>
            <tspan x="-46.5436" y="317">cachée</tspan>
            <tspan x="-13.3364" y="423">Couche </tspan>
            <tspan x="-13.3364" y="473">de sortie</tspan>
        </text></g>
</svg>