<?xml version="1.0" encoding="utf-8"?>
<!-- Svg Vector Icons : http://www.onlinewebfonts.com/icon -->
<!DOCTYPE svg PUBLIC "-//W3C//DTD SVG 1.1//EN" "http://www.w3.org/Graphics/SVG/1.1/DTD/svg11.dtd">
<svg version="1.1" xmlns="http://www.w3.org/2000/svg" xmlns:xlink="http://www.w3.org/1999/xlink" x="0px" y="0px" viewBox="0 0 1000 1000" enable-background="new 0 0 1000 1000" xml:space="preserve"
style='fill:#bd0'
>

<g><path d="M739.5,500c0,132.3-107.2,239.5-239.5,239.5c-132.3,0-239.5-107.2-239.5-239.5c0-132.3,107.2-239.5,239.5-239.5C632.2,260.5,739.5,367.7,739.5,500z M500,185.3c13.2,0,23.9-10.7,23.9-23.9V33.9c0-13.2-10.7-23.9-23.9-23.9s-23.9,10.7-23.9,23.9v127.5C476.1,174.6,486.8,185.3,500,185.3z M500,814.7c-13.2,0-23.9,10.7-23.9,23.9v127.5c0,13.2,10.7,23.9,23.9,23.9s23.9-10.7,23.9-23.9V838.6C523.9,825.4,513.2,814.7,500,814.7z M966.1,476.1H838.6c-13.2,0-23.9,10.7-23.9,23.9c0,13.2,10.7,23.9,23.9,23.9h127.5c13.2,0,23.9-10.7,23.9-23.9C990,486.8,979.3,476.1,966.1,476.1z M185.3,500c0-13.2-10.7-23.9-23.9-23.9H33.9C20.7,476.1,10,486.8,10,500c0,13.2,10.7,23.9,23.9,23.9h127.4C174.6,523.9,185.3,513.2,185.3,500z M739.5,284.4c6.1,0,12.2-2.3,16.9-7l90.1-90.1c9.3-9.3,9.3-24.5,0-33.8c-9.3-9.3-24.5-9.3-33.8,0l-90.1,90.1c-9.3,9.3-9.3,24.5,0,33.8C727.2,282.1,733.3,284.4,739.5,284.4L739.5,284.4z M243.7,722.6l-90.1,90.1c-9.3,9.3-9.3,24.5,0,33.8c4.7,4.7,10.8,7,16.9,7c6.1,0,12.2-2.3,16.9-7l90.1-90.1c9.3-9.3,9.3-24.5,0-33.8C268.1,713.2,253,713.2,243.7,722.6L243.7,722.6z M756.4,722.6c-9.3-9.3-24.5-9.3-33.8,0c-9.3,9.3-9.3,24.5,0,33.8l90.1,90.1c4.7,4.7,10.8,7,16.9,7c6.1,0,12.2-2.3,16.9-7c9.3-9.3,9.3-24.5,0-33.8L756.4,722.6L756.4,722.6z M243.7,277.4c4.7,4.7,10.8,7,16.9,7s12.2-2.3,16.9-7c9.3-9.3,9.3-24.5,0-33.8l-90.1-90.1c-9.3-9.3-24.5-9.3-33.8,0c-9.3,9.3-9.3,24.5,0,33.8L243.7,277.4L243.7,277.4z M607.1,204.1c2.7,1,5.5,1.4,8.2,1.4c9.8,0,19-6,22.4-15.8l43.4-119.9c4.5-12.4-2-26.1-14.3-30.6c-12.5-4.5-26.1,1.9-30.6,14.3l-43.4,119.9C588.2,185.8,594.7,199.6,607.1,204.1z M392.9,795.9c-12.5-4.5-26.1,1.9-30.6,14.3l-43.4,119.9c-4.5,12.4,1.9,26.1,14.3,30.6c2.7,1,5.4,1.4,8.1,1.4c9.8,0,19-6,22.5-15.8l43.4-119.9C411.7,814.2,405.3,800.4,392.9,795.9L392.9,795.9z M946.4,636.1l-119.9-43.4c-12.4-4.5-26.1,1.9-30.6,14.3c-4.5,12.4,1.9,26.1,14.3,30.6l119.9,43.4c2.7,1,5.4,1.4,8.1,1.4c9.8,0,19-6,22.4-15.8C965.2,654.3,958.8,640.6,946.4,636.1L946.4,636.1z M53.6,363.9l119.8,43.4c2.7,1,5.4,1.4,8.1,1.4c9.8,0,19-6,22.5-15.8c4.5-12.4-2-26.1-14.4-30.6L69.8,318.9c-12.4-4.5-26.1,1.9-30.6,14.3C34.8,345.7,41.2,359.4,53.6,363.9L53.6,363.9z M785,366.5c4.1,8.7,12.7,13.8,21.7,13.8c3.4,0,6.9-0.7,10.1-2.3l115.4-54.1c12-5.6,17.1-19.8,11.5-31.8c-5.6-12-19.8-17.1-31.8-11.5l-115.4,54.1C784.5,340.3,779.4,354.5,785,366.5L785,366.5z M215,633.5c-5.5-12-19.8-17.1-31.7-11.5L67.8,676.1c-12,5.6-17.1,19.8-11.5,31.8c4.1,8.7,12.7,13.8,21.7,13.8c3.4,0,6.9-0.7,10.1-2.2l115.4-54.1C215.5,659.7,220.6,645.5,215,633.5L215,633.5z M665.3,796.5c-5.6-12-19.8-17.1-31.8-11.5c-12,5.6-17.1,19.8-11.5,31.8l54.1,115.4c4.1,8.7,12.7,13.8,21.7,13.8c3.4,0,6.9-0.7,10.1-2.2c12-5.6,17.1-19.8,11.5-31.8L665.3,796.5L665.3,796.5z M334.7,203.5c4.1,8.7,12.6,13.8,21.7,13.8c3.4,0,6.8-0.7,10.1-2.3c12-5.6,17.1-19.8,11.5-31.8L323.8,67.8C318.2,55.9,304,50.7,292,56.3c-12,5.6-17.1,19.8-11.5,31.8L334.7,203.5L334.7,203.5z"/></g>
</svg>