<?xml version="1.0" encoding="utf-8"?>
<!-- Svg Vector Icons : http://www.onlinewebfonts.com/icon -->
<!DOCTYPE svg PUBLIC "-//W3C//DTD SVG 1.1//EN" "http://www.w3.org/Graphics/SVG/1.1/DTD/svg11.dtd">
<svg version="1.1" xmlns="http://www.w3.org/2000/svg" xmlns:xlink="http://www.w3.org/1999/xlink" x="0px" y="0px" viewBox="0 0 1000 1000" enable-background="new 0 0 1000 1000" xml:space="preserve">
<metadata> Svg Vector Icons : http://www.onlinewebfonts.com/icon </metadata>
<g><g transform="translate(0.000000,511.000000) scale(0.100000,-0.100000)"><path d="M4888.3,5001.3c-102.1-27-210-109.8-267.7-208l-53.9-92.5l-5.8-535.4c-7.7-610.6,1.9-668.4,127.1-787.8c102.1-98.2,177.2-131,306.3-131c198.4,1.9,362.1,113.6,419.9,290.8c27,77,30.8,179.1,25,629.8l-5.8,537.4l-57.8,94.4C5275.4,4960.8,5069.3,5045.6,4888.3,5001.3z"/><path d="M1704.4,3683.8c-109.8-40.4-186.8-104-242.7-202.2c-69.3-117.5-75.1-300.5-11.5-418c48.1-90.5,739.6-782,824.4-824.4c165.6-82.8,379.4-48.1,510.4,82.8c131,131,165.6,344.8,84.8,508.5c-44.3,86.7-735.8,778.1-824.4,824.4C1951,3703.1,1795,3716.6,1704.4,3683.8z"/><path d="M8014.3,3680c-42.4-15.4-80.9-28.9-84.7-28.9c-28.9,0-762.7-755-797.4-818.6c-61.6-117.5-57.8-302.4,13.5-421.8c121.3-208,392.9-279.3,599-156c100.1,57.8,764.6,730,810.9,818.6c23.1,44.3,34.7,109.8,36.6,194.5c0,107.9-7.7,140.6-57.8,221.5C8424.5,3666.5,8197.3,3749.3,8014.3,3680z"/><path d="M4643.6,2755.4c-1151.8-157.9-2053.2-1017-2274.7-2166.9c-50.1-267.7-46.2-733.8,7.7-995.8c235-1101.7,1069-1920.3,2161.1-2116.8c244.6-44.3,679.9-44.3,924.5,0c1092.1,196.5,1926.1,1015,2161.1,2116.8c59.7,281.2,57.8,749.2-1.9,1034.3c-132.9,627.9-460.3,1171.1-934.1,1552.4C6107.5,2647.6,5367.9,2855.6,4643.6,2755.4z"/><path d="M394.7,523.1C286.8,484.6,209.8,421,152,322.8c-42.4-71.3-52-111.7-52-217.7c0-109.8,7.7-142.5,57.8-221.5c34.7-57.8,92.5-115.6,150.2-152.2l94.4-57.8l537.4-5.8c612.5-7.7,670.3,1.9,791.6,127.1c90.5,92.5,129.1,188.8,129.1,321.7c0,179.1-115.6,342.8-287,404.5C1461.7,559.7,504.5,561.6,394.7,523.1z"/><path d="M8418.8,519.2c-167.6-61.6-279.3-225.4-279.3-412.2c0-192.6,111.7-354.4,285-414.1c119.5-38.5,1072.9-40.4,1184.6-1.9C9794-241.6,9901.9-83.6,9900,120.5c-2,154.1-73.2,277.4-208,362.1l-94.4,57.8l-550.9,3.8C8599.9,548.1,8482.3,542.4,8418.8,519.2z"/><path d="M2332.3-2002c-42.4-15.4-80.9-28.9-84.7-28.9c-28.9,0-762.7-755-797.4-818.6c-28.9-55.9-40.4-111.7-42.4-204.2c0-107.9,7.7-140.6,57.8-221.5c36.6-57.8,94.4-115.6,152.2-152.2c80.9-48.2,113.6-57.8,221.5-57.8c104,0,142.5,9.6,213.8,52c104,61.6,772.4,731.9,816.7,816.7c100.2,200.3,23.1,462.3-169.5,575.9C2592.4-1977,2440.2-1961.6,2332.3-2002z"/><path d="M7382.6-2003.9c-244.6-77-367.9-379.4-252.3-612.5c44.3-84.7,733.8-776.2,826.3-826.3c55.9-28.9,111.7-40.5,204.2-42.4c107.9,0,140.6,7.7,221.5,57.8c57.8,36.6,115.6,94.4,152.2,152.2c50.1,80.9,57.8,113.7,57.8,221.5c-1.9,92.5-13.5,148.3-42.4,204.2c-50.1,94.4-741.6,782-830.2,826.3C7629.1-1977,7490.4-1969.3,7382.6-2003.9z"/><path d="M4805.4-3071c-102.1-53.9-186.8-150.2-219.6-252.3c-27-77-30.8-179.1-25-629.8l5.8-537.4l57.8-94.4c36.6-57.8,94.4-115.6,152.2-150.2c79-50.1,111.7-57.8,223.4-57.8c111.7,0,144.5,7.7,223.4,57.8c57.8,34.7,115.6,92.5,152.2,150.2l57.8,94.4l5.8,537.4c5.8,450.7,1.9,552.8-25,629.8c-30.8,98.2-131,208-235,260C5092.4-3020.9,4894-3022.9,4805.4-3071z"/></g></g>
</svg>