<svg xmlns="http://www.w3.org/2000/svg" xmlns:xlink="http://www.w3.org/1999/xlink" width="532" height="414" overflow="hidden"><defs><clipPath id="clip0"><path fill-rule="evenodd" d="M850 66 1382 66 1382 480 850 480Z" clip-rule="evenodd"/></clipPath></defs><g clip-path="url(#clip0)" transform="translate(-850 -66)"><rect width="527" height="411" x="852" y="68" fill="#FFF" stroke="#000" stroke-miterlimit="8" stroke-width="2"/><rect width="88" height="70" x="852" y="68" fill="#FFF" stroke="#000" stroke-miterlimit="8" stroke-width="2"/><rect width="89" height="70" x="940" y="68" fill="#FFF" stroke="#000" stroke-miterlimit="8" stroke-width="2"/><rect width="89" height="70" x="1029" y="68" fill="#FFF" stroke="#000" stroke-miterlimit="8" stroke-width="2"/><rect width="88" height="70" x="1118" y="68" fill="#FFF" stroke="#000" stroke-miterlimit="8" stroke-width="2"/><rect width="89" height="70" x="1206" y="68" fill="#FFF" stroke="#000" stroke-miterlimit="8" stroke-width="2"/><rect width="88" height="70" x="1291" y="68" fill="#FFF" stroke="#000" stroke-miterlimit="8" stroke-width="2"/><rect width="88" height="70" x="852" y="138" fill="#FFF" stroke="#000" stroke-miterlimit="8" stroke-width="2"/><rect width="89" height="70" x="940" y="138" fill="#FFF" stroke="#000" stroke-miterlimit="8" stroke-width="2"/><rect width="89" height="70" x="1029" y="138" fill="#B4C7E7" stroke="#0D0D0D" stroke-miterlimit="8" stroke-width="2"/><rect width="88" height="70" x="1118" y="138" fill="#FFF" stroke="#000" stroke-miterlimit="8" stroke-width="2"/><rect width="89" height="70" x="1206" y="138" fill="#FFF" stroke="#000" stroke-miterlimit="8" stroke-width="2"/><rect width="88" height="70" x="1291" y="138" fill="#FFF" stroke="#000" stroke-miterlimit="8" stroke-width="2"/><rect width="88" height="70" x="852" y="204" fill="#FFF" stroke="#000" stroke-miterlimit="8" stroke-width="2"/><rect width="89" height="70" x="940" y="204" fill="#DAE3F3" stroke="#000" stroke-miterlimit="8" stroke-width="2"/><rect width="89" height="70" x="1029" y="204" fill="#FFC000" stroke="#000" stroke-miterlimit="8" stroke-width="2"/><rect width="88" height="70" x="1118" y="204" fill="#DAE3F3" stroke="#000" stroke-miterlimit="8" stroke-width="2"/><rect width="89" height="70" x="1206" y="204" fill="#FFF" stroke="#000" stroke-miterlimit="8" stroke-width="2"/><rect width="88" height="70" x="1291" y="204" fill="#FFF" stroke="#000" stroke-miterlimit="8" stroke-width="2"/><rect width="88" height="71" x="852" y="274" fill="#FFF" stroke="#000" stroke-miterlimit="8" stroke-width="2"/><rect width="89" height="71" x="940" y="274" fill="#FFF" stroke="#000" stroke-miterlimit="8" stroke-width="2"/><rect width="89" height="71" x="1029" y="274" fill="#DAE3F3" stroke="#000" stroke-miterlimit="8" stroke-width="2"/><rect width="88" height="71" x="1118" y="274" fill="#FFF" stroke="#000" stroke-miterlimit="8" stroke-width="2"/><rect width="89" height="71" x="1206" y="274" fill="#FFF" stroke="#000" stroke-miterlimit="8" stroke-width="2"/><rect width="88" height="71" x="1291" y="274" fill="#FFF" stroke="#000" stroke-miterlimit="8" stroke-width="2"/><rect width="88" height="70" x="852" y="341" fill="#FFF" stroke="#000" stroke-miterlimit="8" stroke-width="2"/><rect width="89" height="70" x="940" y="341" fill="#FFF" stroke="#000" stroke-miterlimit="8" stroke-width="2"/><rect width="89" height="70" x="1029" y="341" fill="#FFF" stroke="#000" stroke-miterlimit="8" stroke-width="2"/><rect width="88" height="70" x="1118" y="341" fill="#FFF" stroke="#000" stroke-miterlimit="8" stroke-width="2"/><rect width="89" height="70" x="1206" y="341" fill="#FFF" stroke="#000" stroke-miterlimit="8" stroke-width="2"/><rect width="88" height="70" x="1291" y="341" fill="#FFF" stroke="#000" stroke-miterlimit="8" stroke-width="2"/><rect width="88" height="71" x="852" y="408" fill="#FFF" stroke="#000" stroke-miterlimit="8" stroke-width="2"/><rect width="89" height="71" x="940" y="408" fill="#FFF" stroke="#000" stroke-miterlimit="8" stroke-width="2"/><rect width="89" height="71" x="1029" y="408" fill="#FFF" stroke="#000" stroke-miterlimit="8" stroke-width="2"/><rect width="88" height="71" x="1118" y="408" fill="#FFF" stroke="#000" stroke-miterlimit="8" stroke-width="2"/><rect width="89" height="71" x="1206" y="408" fill="#FFF" stroke="#000" stroke-miterlimit="8" stroke-width="2"/><rect width="88" height="71" x="1291" y="408" fill="#FFF" stroke="#000" stroke-miterlimit="8" stroke-width="2"/></g></svg>