<svg width="531" height="418" xmlns="http://www.w3.org/2000/svg" xmlns:xlink="http://www.w3.org/1999/xlink" overflow="hidden"><defs><clipPath id="clip0"><path d="M66 66 597 66 597 484 66 484Z" fill-rule="evenodd" clip-rule="evenodd"/></clipPath></defs><g clip-path="url(#clip0)" transform="translate(-66 -66)"><rect x="68" y="68" width="527" height="413" stroke="#000000" stroke-width="2" stroke-miterlimit="8" fill="#FFFFFF"/><rect x="68" y="68" width="88" height="70" stroke="#000000" stroke-width="2" stroke-miterlimit="8" fill="#FFFFFF"/><rect x="156" y="68" width="89" height="70" stroke="#000000" stroke-width="2" stroke-miterlimit="8" fill="#FFFFFF"/><rect x="245" y="68" width="89" height="70" stroke="#000000" stroke-width="2" stroke-miterlimit="8" fill="#FFFFFF"/><rect x="334" y="68" width="88" height="70" stroke="#000000" stroke-width="2" stroke-miterlimit="8" fill="#FFFFFF"/><rect x="422" y="68" width="89" height="70" stroke="#000000" stroke-width="2" stroke-miterlimit="8" fill="#FFFFFF"/><rect x="507" y="68" width="88" height="70" stroke="#000000" stroke-width="2" stroke-miterlimit="8" fill="#FFFFFF"/><rect x="68" y="138" width="88" height="70" stroke="#000000" stroke-width="2" stroke-miterlimit="8" fill="#FFFFFF"/><rect x="156" y="138" width="89" height="70" stroke="#000000" stroke-width="2" stroke-miterlimit="8" fill="#DAE3F3"/><rect x="245" y="138" width="89" height="70" stroke="#0D0D0D" stroke-width="2" stroke-miterlimit="8" fill="#DAE3F3"/><rect x="334" y="138" width="88" height="70" stroke="#000000" stroke-width="2" stroke-miterlimit="8" fill="#DAE3F3"/><rect x="422" y="138" width="89" height="70" stroke="#000000" stroke-width="2" stroke-miterlimit="8" fill="#FFFFFF"/><rect x="507" y="138" width="88" height="70" stroke="#000000" stroke-width="2" stroke-miterlimit="8" fill="#FFFFFF"/><rect x="68" y="204" width="88" height="70" stroke="#000000" stroke-width="2" stroke-miterlimit="8" fill="#FFFFFF"/><rect x="156" y="204" width="89" height="70" stroke="#000000" stroke-width="2" stroke-miterlimit="8" fill="#DAE3F3"/><rect x="245" y="204" width="89" height="70" stroke="#000000" stroke-width="2" stroke-miterlimit="8" fill="#FFC000"/><rect x="334" y="204" width="88" height="70" stroke="#000000" stroke-width="2" stroke-miterlimit="8" fill="#DAE3F3"/><rect x="422" y="204" width="89" height="70" stroke="#000000" stroke-width="2" stroke-miterlimit="8" fill="#FFFFFF"/><rect x="507" y="204" width="88" height="70" stroke="#000000" stroke-width="2" stroke-miterlimit="8" fill="#FFFFFF"/><rect x="68" y="274" width="88" height="71" stroke="#000000" stroke-width="2" stroke-miterlimit="8" fill="#FFFFFF"/><rect x="156" y="274" width="89" height="71" stroke="#000000" stroke-width="2" stroke-miterlimit="8" fill="#DAE3F3"/><rect x="245" y="274" width="89" height="71" stroke="#000000" stroke-width="2" stroke-miterlimit="8" fill="#DAE3F3"/><rect x="334" y="274" width="88" height="71" stroke="#000000" stroke-width="2" stroke-miterlimit="8" fill="#DAE3F3"/><rect x="422" y="274" width="89" height="71" stroke="#000000" stroke-width="2" stroke-miterlimit="8" fill="#FFFFFF"/><rect x="507" y="274" width="88" height="71" stroke="#000000" stroke-width="2" stroke-miterlimit="8" fill="#FFFFFF"/><rect x="68" y="341" width="88" height="70" stroke="#000000" stroke-width="2" stroke-miterlimit="8" fill="#FFFFFF"/><rect x="156" y="341" width="89" height="70" stroke="#000000" stroke-width="2" stroke-miterlimit="8" fill="#FFFFFF"/><rect x="245" y="341" width="89" height="70" stroke="#000000" stroke-width="2" stroke-miterlimit="8" fill="#FFFFFF"/><rect x="334" y="341" width="88" height="70" stroke="#000000" stroke-width="2" stroke-miterlimit="8" fill="#FFFFFF"/><rect x="422" y="341" width="89" height="70" stroke="#000000" stroke-width="2" stroke-miterlimit="8" fill="#FFFFFF"/><rect x="507" y="341" width="88" height="70" stroke="#000000" stroke-width="2" stroke-miterlimit="8" fill="#FFFFFF"/><rect x="68" y="411" width="88" height="71" stroke="#000000" stroke-width="2" stroke-miterlimit="8" fill="#FFFFFF"/><rect x="156" y="411" width="89" height="71" stroke="#000000" stroke-width="2" stroke-miterlimit="8" fill="#FFFFFF"/><rect x="245" y="411" width="89" height="71" stroke="#000000" stroke-width="2" stroke-miterlimit="8" fill="#FFFFFF"/><rect x="334" y="411" width="88" height="71" stroke="#000000" stroke-width="2" stroke-miterlimit="8" fill="#FFFFFF"/><rect x="422" y="411" width="89" height="71" stroke="#000000" stroke-width="2" stroke-miterlimit="8" fill="#FFFFFF"/><rect x="507" y="411" width="88" height="71" stroke="#000000" stroke-width="2" stroke-miterlimit="8" fill="#FFFFFF"/></g></svg>