<svg width="532" height="414" xmlns="http://www.w3.org/2000/svg" xmlns:xlink="http://www.w3.org/1999/xlink" overflow="hidden"><defs><clipPath id="clip0"><path d="M850 66 1382 66 1382 480 850 480Z" fill-rule="evenodd" clip-rule="evenodd"/></clipPath></defs><g clip-path="url(#clip0)" transform="translate(-850 -66)"><rect x="852" y="68" width="527" height="411" stroke="#000000" stroke-width="2" stroke-miterlimit="8" fill="#FFFFFF"/><rect x="852" y="68" width="88" height="70" stroke="#000000" stroke-width="2" stroke-miterlimit="8" fill="#FFFFFF"/><rect x="940" y="68" width="89" height="70" stroke="#000000" stroke-width="2" stroke-miterlimit="8" fill="#FFFFFF"/><rect x="1029" y="68" width="89" height="70" stroke="#000000" stroke-width="2" stroke-miterlimit="8" fill="#FFFFFF"/><rect x="1118" y="68" width="88" height="70" stroke="#000000" stroke-width="2" stroke-miterlimit="8" fill="#FFFFFF"/><rect x="1206" y="68" width="89" height="70" stroke="#000000" stroke-width="2" stroke-miterlimit="8" fill="#FFFFFF"/><rect x="1291" y="68" width="88" height="70" stroke="#000000" stroke-width="2" stroke-miterlimit="8" fill="#FFFFFF"/><rect x="852" y="138" width="88" height="70" stroke="#000000" stroke-width="2" stroke-miterlimit="8" fill="#FFFFFF"/><rect x="940" y="138" width="89" height="70" stroke="#000000" stroke-width="2" stroke-miterlimit="8" fill="#FFFFFF"/><rect x="1029" y="138" width="89" height="70" stroke="#0D0D0D" stroke-width="2" stroke-miterlimit="8" fill="#B4C7E7"/><rect x="1118" y="138" width="88" height="70" stroke="#000000" stroke-width="2" stroke-miterlimit="8" fill="#FFFFFF"/><rect x="1206" y="138" width="89" height="70" stroke="#000000" stroke-width="2" stroke-miterlimit="8" fill="#FFFFFF"/><rect x="1291" y="138" width="88" height="70" stroke="#000000" stroke-width="2" stroke-miterlimit="8" fill="#FFFFFF"/><rect x="852" y="204" width="88" height="70" stroke="#000000" stroke-width="2" stroke-miterlimit="8" fill="#FFFFFF"/><rect x="940" y="204" width="89" height="70" stroke="#000000" stroke-width="2" stroke-miterlimit="8" fill="#DAE3F3"/><rect x="1029" y="204" width="89" height="70" stroke="#000000" stroke-width="2" stroke-miterlimit="8" fill="#FFC000"/><rect x="1118" y="204" width="88" height="70" stroke="#000000" stroke-width="2" stroke-miterlimit="8" fill="#DAE3F3"/><rect x="1206" y="204" width="89" height="70" stroke="#000000" stroke-width="2" stroke-miterlimit="8" fill="#FFFFFF"/><rect x="1291" y="204" width="88" height="70" stroke="#000000" stroke-width="2" stroke-miterlimit="8" fill="#FFFFFF"/><rect x="852" y="274" width="88" height="71" stroke="#000000" stroke-width="2" stroke-miterlimit="8" fill="#FFFFFF"/><rect x="940" y="274" width="89" height="71" stroke="#000000" stroke-width="2" stroke-miterlimit="8" fill="#FFFFFF"/><rect x="1029" y="274" width="89" height="71" stroke="#000000" stroke-width="2" stroke-miterlimit="8" fill="#DAE3F3"/><rect x="1118" y="274" width="88" height="71" stroke="#000000" stroke-width="2" stroke-miterlimit="8" fill="#FFFFFF"/><rect x="1206" y="274" width="89" height="71" stroke="#000000" stroke-width="2" stroke-miterlimit="8" fill="#FFFFFF"/><rect x="1291" y="274" width="88" height="71" stroke="#000000" stroke-width="2" stroke-miterlimit="8" fill="#FFFFFF"/><rect x="852" y="341" width="88" height="70" stroke="#000000" stroke-width="2" stroke-miterlimit="8" fill="#FFFFFF"/><rect x="940" y="341" width="89" height="70" stroke="#000000" stroke-width="2" stroke-miterlimit="8" fill="#FFFFFF"/><rect x="1029" y="341" width="89" height="70" stroke="#000000" stroke-width="2" stroke-miterlimit="8" fill="#FFFFFF"/><rect x="1118" y="341" width="88" height="70" stroke="#000000" stroke-width="2" stroke-miterlimit="8" fill="#FFFFFF"/><rect x="1206" y="341" width="89" height="70" stroke="#000000" stroke-width="2" stroke-miterlimit="8" fill="#FFFFFF"/><rect x="1291" y="341" width="88" height="70" stroke="#000000" stroke-width="2" stroke-miterlimit="8" fill="#FFFFFF"/><rect x="852" y="408" width="88" height="71" stroke="#000000" stroke-width="2" stroke-miterlimit="8" fill="#FFFFFF"/><rect x="940" y="408" width="89" height="71" stroke="#000000" stroke-width="2" stroke-miterlimit="8" fill="#FFFFFF"/><rect x="1029" y="408" width="89" height="71" stroke="#000000" stroke-width="2" stroke-miterlimit="8" fill="#FFFFFF"/><rect x="1118" y="408" width="88" height="71" stroke="#000000" stroke-width="2" stroke-miterlimit="8" fill="#FFFFFF"/><rect x="1206" y="408" width="89" height="71" stroke="#000000" stroke-width="2" stroke-miterlimit="8" fill="#FFFFFF"/><rect x="1291" y="408" width="88" height="71" stroke="#000000" stroke-width="2" stroke-miterlimit="8" fill="#FFFFFF"/></g></svg>