<svg xmlns="http://www.w3.org/2000/svg" xmlns:xlink="http://www.w3.org/1999/xlink" width="531" height="418" overflow="hidden"><defs><clipPath id="clip0"><path fill-rule="evenodd" d="M66 66 597 66 597 484 66 484Z" clip-rule="evenodd"/></clipPath></defs><g clip-path="url(#clip0)" transform="translate(-66 -66)"><rect width="527" height="413" x="68" y="68" fill="#FFF" stroke="#000" stroke-miterlimit="8" stroke-width="2"/><rect width="88" height="70" x="68" y="68" fill="#FFF" stroke="#000" stroke-miterlimit="8" stroke-width="2"/><rect width="89" height="70" x="156" y="68" fill="#FFF" stroke="#000" stroke-miterlimit="8" stroke-width="2"/><rect width="89" height="70" x="245" y="68" fill="#FFF" stroke="#000" stroke-miterlimit="8" stroke-width="2"/><rect width="88" height="70" x="334" y="68" fill="#FFF" stroke="#000" stroke-miterlimit="8" stroke-width="2"/><rect width="89" height="70" x="422" y="68" fill="#FFF" stroke="#000" stroke-miterlimit="8" stroke-width="2"/><rect width="88" height="70" x="507" y="68" fill="#FFF" stroke="#000" stroke-miterlimit="8" stroke-width="2"/><rect width="88" height="70" x="68" y="138" fill="#FFF" stroke="#000" stroke-miterlimit="8" stroke-width="2"/><rect width="89" height="70" x="156" y="138" fill="#DAE3F3" stroke="#000" stroke-miterlimit="8" stroke-width="2"/><rect width="89" height="70" x="245" y="138" fill="#DAE3F3" stroke="#0D0D0D" stroke-miterlimit="8" stroke-width="2"/><rect width="88" height="70" x="334" y="138" fill="#DAE3F3" stroke="#000" stroke-miterlimit="8" stroke-width="2"/><rect width="89" height="70" x="422" y="138" fill="#FFF" stroke="#000" stroke-miterlimit="8" stroke-width="2"/><rect width="88" height="70" x="507" y="138" fill="#FFF" stroke="#000" stroke-miterlimit="8" stroke-width="2"/><rect width="88" height="70" x="68" y="204" fill="#FFF" stroke="#000" stroke-miterlimit="8" stroke-width="2"/><rect width="89" height="70" x="156" y="204" fill="#DAE3F3" stroke="#000" stroke-miterlimit="8" stroke-width="2"/><rect width="89" height="70" x="245" y="204" fill="#FFC000" stroke="#000" stroke-miterlimit="8" stroke-width="2"/><rect width="88" height="70" x="334" y="204" fill="#DAE3F3" stroke="#000" stroke-miterlimit="8" stroke-width="2"/><rect width="89" height="70" x="422" y="204" fill="#FFF" stroke="#000" stroke-miterlimit="8" stroke-width="2"/><rect width="88" height="70" x="507" y="204" fill="#FFF" stroke="#000" stroke-miterlimit="8" stroke-width="2"/><rect width="88" height="71" x="68" y="274" fill="#FFF" stroke="#000" stroke-miterlimit="8" stroke-width="2"/><rect width="89" height="71" x="156" y="274" fill="#DAE3F3" stroke="#000" stroke-miterlimit="8" stroke-width="2"/><rect width="89" height="71" x="245" y="274" fill="#DAE3F3" stroke="#000" stroke-miterlimit="8" stroke-width="2"/><rect width="88" height="71" x="334" y="274" fill="#DAE3F3" stroke="#000" stroke-miterlimit="8" stroke-width="2"/><rect width="89" height="71" x="422" y="274" fill="#FFF" stroke="#000" stroke-miterlimit="8" stroke-width="2"/><rect width="88" height="71" x="507" y="274" fill="#FFF" stroke="#000" stroke-miterlimit="8" stroke-width="2"/><rect width="88" height="70" x="68" y="341" fill="#FFF" stroke="#000" stroke-miterlimit="8" stroke-width="2"/><rect width="89" height="70" x="156" y="341" fill="#FFF" stroke="#000" stroke-miterlimit="8" stroke-width="2"/><rect width="89" height="70" x="245" y="341" fill="#FFF" stroke="#000" stroke-miterlimit="8" stroke-width="2"/><rect width="88" height="70" x="334" y="341" fill="#FFF" stroke="#000" stroke-miterlimit="8" stroke-width="2"/><rect width="89" height="70" x="422" y="341" fill="#FFF" stroke="#000" stroke-miterlimit="8" stroke-width="2"/><rect width="88" height="70" x="507" y="341" fill="#FFF" stroke="#000" stroke-miterlimit="8" stroke-width="2"/><rect width="88" height="71" x="68" y="411" fill="#FFF" stroke="#000" stroke-miterlimit="8" stroke-width="2"/><rect width="89" height="71" x="156" y="411" fill="#FFF" stroke="#000" stroke-miterlimit="8" stroke-width="2"/><rect width="89" height="71" x="245" y="411" fill="#FFF" stroke="#000" stroke-miterlimit="8" stroke-width="2"/><rect width="88" height="71" x="334" y="411" fill="#FFF" stroke="#000" stroke-miterlimit="8" stroke-width="2"/><rect width="89" height="71" x="422" y="411" fill="#FFF" stroke="#000" stroke-miterlimit="8" stroke-width="2"/><rect width="88" height="71" x="507" y="411" fill="#FFF" stroke="#000" stroke-miterlimit="8" stroke-width="2"/></g></svg>