<svg 
    width="430" 
    height="300" 
    xmlns="http://www.w3.org/2000/svg" 
    xmlns:xlink="http://www.w3.org/1999/xlink" 
    overflow="hidden"
    viewBox="0 0 950 670"
    style="background:dar kred;width:0%">
<defs><clipPath id="clip0"><path d="M1019 357 1970 357 1970 1034 1019 1034Z" fill-rule="evenodd" clip-rule="evenodd"/></clipPath></defs><g clip-path="url(#clip0)" transform="translate(-1019 -357)"><path d="M1338 432 1338 1005.02 1333 1005.02 1333 432ZM1328 434.5 1335.5 419.5 1343 434.5Z"/><path d="M1943.43 811 1023.5 811 1023.5 806 1943.43 806ZM1940.93 801 1955.93 808.5 1940.93 816Z"/><path d="M1685 520C1685 516.134 1689.03 513 1694 513 1698.97 513 1703 516.134 1703 520 1703 523.866 1698.97 527 1694 527 1689.03 527 1685 523.866 1685 520Z" fill="#C00000" fill-rule="evenodd"/><path d="M1665 575C1665 571.134 1669.03 568 1674 568 1678.97 568 1683 571.134 1683 575 1683 578.866 1678.97 582 1674 582 1669.03 582 1665 578.866 1665 575Z" fill="#C00000" fill-rule="evenodd"/><path d="M1557 709C1557 705.134 1560.81 702 1565.5 702 1570.19 702 1574 705.134 1574 709 1574 712.866 1570.19 716 1565.5 716 1560.81 716 1557 712.866 1557 709Z" fill="#C00000" fill-rule="evenodd"/><path d="M1717 564C1717 560.134 1721.03 557 1726 557 1730.97 557 1735 560.134 1735 564 1735 567.866 1730.97 571 1726 571 1721.03 571 1717 567.866 1717 564Z" fill="#C00000" fill-rule="evenodd"/><path d="M1534 732C1534 728.134 1538.03 725 1543 725 1547.97 725 1552 728.134 1552 732 1552 735.866 1547.97 739 1543 739 1538.03 739 1534 735.866 1534 732Z" fill="#C00000" fill-rule="evenodd"/><path d="M1697 552C1697 548.134 1700.81 545 1705.5 545 1710.19 545 1714 548.134 1714 552 1714 555.866 1710.19 559 1705.5 559 1700.81 559 1697 555.866 1697 552Z" fill="#C00000" fill-rule="evenodd"/><path d="M1511 716C1511 712.134 1515.03 709 1520 709 1524.97 709 1529 712.134 1529 716 1529 719.866 1524.97 723 1520 723 1515.03 723 1511 719.866 1511 716Z" fill="#C00000" fill-rule="evenodd"/><path d="M1669 551C1669 547.134 1673.03 544 1678 544 1682.97 544 1687 547.134 1687 551 1687 554.866 1682.97 558 1678 558 1673.03 558 1669 554.866 1669 551Z" fill="#C00000" fill-rule="evenodd"/><path d="M1497.5 358.5 1764.81 1031.91" stroke="#0F8999" stroke-width="3" stroke-miterlimit="8" fill="none" fill-rule="evenodd"/><path d="M1539 707C1539 703.134 1542.81 700 1547.5 700 1552.19 700 1556 703.134 1556 707 1556 710.866 1552.19 714 1547.5 714 1542.81 714 1539 710.866 1539 707Z" fill="#C00000" fill-rule="evenodd"/><path d="M1691 589C1691 585.134 1694.81 582 1699.5 582 1704.19 582 1708 585.134 1708 589 1708 592.866 1704.19 596 1699.5 596 1694.81 596 1691 592.866 1691 589Z" fill="#C00000" fill-rule="evenodd"/><path d="M1584 750C1584 746.134 1588.03 743 1593 743 1597.97 743 1602 746.134 1602 750 1602 753.866 1597.97 757 1593 757 1588.03 757 1584 753.866 1584 750Z" fill="#C00000" fill-rule="evenodd"/><path d="M1499 537C1499 533.134 1503.03 530 1508 530 1512.97 530 1517 533.134 1517 537 1517 540.866 1512.97 544 1508 544 1503.03 544 1499 540.866 1499 537Z" fill="#4472C4" fill-rule="evenodd"/><path d="M1454 557C1454 553.134 1458.03 550 1463 550 1467.97 550 1472 553.134 1472 557 1472 560.866 1467.97 564 1463 564 1458.03 564 1454 560.866 1454 557Z" fill="#4472C4" fill-rule="evenodd"/><path d="M1513 580C1513 576.134 1517.03 573 1522 573 1526.97 573 1531 576.134 1531 580 1531 583.866 1526.97 587 1522 587 1517.03 587 1513 583.866 1513 580Z" fill="#4472C4" fill-rule="evenodd"/><path d="M1482 564C1482 560.134 1486.03 557 1491 557 1495.97 557 1500 560.134 1500 564 1500 567.866 1495.97 571 1491 571 1486.03 571 1482 567.866 1482 564Z" fill="#4472C4" fill-rule="evenodd"/><path d="M1522 549C1522 545.134 1525.81 542 1530.5 542 1535.19 542 1539 545.134 1539 549 1539 552.866 1535.19 556 1530.5 556 1525.81 556 1522 552.866 1522 549Z" fill="#4472C4" fill-rule="evenodd"/><path d="M1542 599C1542 595.134 1545.81 592 1550.5 592 1555.19 592 1559 595.134 1559 599 1559 602.866 1555.19 606 1550.5 606 1545.81 606 1542 602.866 1542 599Z" fill="#4472C4" fill-rule="evenodd"/><path d="M1764 614C1764 610.134 1768.03 607 1773 607 1777.97 607 1782 610.134 1782 614 1782 617.866 1777.97 621 1773 621 1768.03 621 1764 617.866 1764 614Z" fill="#C00000" fill-rule="evenodd"/><path d="M1732 534C1732 530.134 1736.03 527 1741 527 1745.97 527 1750 530.134 1750 534 1750 537.866 1745.97 541 1741 541 1736.03 541 1732 537.866 1732 534Z" fill="#C00000" fill-rule="evenodd"/><path d="M1717 564C1717 560.134 1721.03 557 1726 557 1730.97 557 1735 560.134 1735 564 1735 567.866 1730.97 571 1726 571 1721.03 571 1717 567.866 1717 564Z" fill="#C00000" fill-rule="evenodd"/><path d="M1697 552C1697 548.134 1700.81 545 1705.5 545 1710.19 545 1714 548.134 1714 552 1714 555.866 1710.19 559 1705.5 559 1700.81 559 1697 555.866 1697 552Z" fill="#C00000" fill-rule="evenodd"/><path d="M1669 551C1669 547.134 1673.03 544 1678 544 1682.97 544 1687 547.134 1687 551 1687 554.866 1682.97 558 1678 558 1673.03 558 1669 554.866 1669 551Z" fill="#C00000" fill-rule="evenodd"/><path d="M1691 589C1691 585.134 1694.81 582 1699.5 582 1704.19 582 1708 585.134 1708 589 1708 592.866 1704.19 596 1699.5 596 1694.81 596 1691 592.866 1691 589Z" fill="#C00000" fill-rule="evenodd"/><path d="M1688 597C1688 593.134 1691.81 590 1696.5 590 1701.19 590 1705 593.134 1705 597 1705 600.866 1701.19 604 1696.5 604 1691.81 604 1688 600.866 1688 597Z" fill="#C00000" fill-rule="evenodd"/><path d="M1710 618.5C1710 614.91 1714.03 612 1719 612 1723.97 612 1728 614.91 1728 618.5 1728 622.09 1723.97 625 1719 625 1714.03 625 1710 622.09 1710 618.5Z" fill="#C00000" fill-rule="evenodd"/><path d="M1579 730.5C1579 726.91 1583.03 724 1588 724 1592.97 724 1597 726.91 1597 730.5 1597 734.09 1592.97 737 1588 737 1583.03 737 1579 734.09 1579 730.5Z" fill="#C00000" fill-rule="evenodd"/><path d="M1557 754C1557 750.134 1560.81 747 1565.5 747 1570.19 747 1574 750.134 1574 754 1574 757.866 1570.19 761 1565.5 761 1560.81 761 1557 757.866 1557 754Z" fill="#C00000" fill-rule="evenodd"/><path d="M1534 737C1534 733.134 1537.81 730 1542.5 730 1547.19 730 1551 733.134 1551 737 1551 740.866 1547.19 744 1542.5 744 1537.81 744 1534 740.866 1534 737Z" fill="#C00000" fill-rule="evenodd"/><path d="M1561 704C1561 700.134 1564.81 697 1569.5 697 1574.19 697 1578 700.134 1578 704 1578 707.866 1574.19 711 1569.5 711 1564.81 711 1561 707.866 1561 704Z" fill="#C00000" fill-rule="evenodd"/><path d="M1606 772C1606 768.134 1610.03 765 1615 765 1619.97 765 1624 768.134 1624 772 1624 775.866 1619.97 779 1615 779 1610.03 779 1606 775.866 1606 772Z" fill="#C00000" fill-rule="evenodd"/><path d="M1502 546C1502 542.134 1506.03 539 1511 539 1515.97 539 1520 542.134 1520 546 1520 549.866 1515.97 553 1511 553 1506.03 553 1502 549.866 1502 546Z" fill="#4472C4" fill-rule="evenodd"/><path d="M1481 529C1481 525.134 1485.03 522 1490 522 1494.97 522 1499 525.134 1499 529 1499 532.866 1494.97 536 1490 536 1485.03 536 1481 532.866 1481 529Z" fill="#4472C4" fill-rule="evenodd"/><path d="M1406 510C1406 506.134 1410.03 503 1415 503 1419.97 503 1424 506.134 1424 510 1424 513.866 1419.97 517 1415 517 1410.03 517 1406 513.866 1406 510Z" fill="#4472C4" fill-rule="evenodd"/><path d="M1490 557C1490 553.134 1494.03 550 1499 550 1503.97 550 1508 553.134 1508 557 1508 560.866 1503.97 564 1499 564 1494.03 564 1490 560.866 1490 557Z" fill="#4472C4" fill-rule="evenodd"/><path d="M1543 611C1543 607.134 1547.03 604 1552 604 1556.97 604 1561 607.134 1561 611 1561 614.866 1556.97 618 1552 618 1547.03 618 1543 614.866 1543 611Z" fill="#4472C4" fill-rule="evenodd"/><path d="M1459 555.5C1459 551.91 1463.03 549 1468 549 1472.97 549 1477 551.91 1477 555.5 1477 559.09 1472.97 562 1468 562 1463.03 562 1459 559.09 1459 555.5Z" fill="#4472C4" fill-rule="evenodd"/><path d="M1458 554C1458 550.134 1461.81 547 1466.5 547 1471.19 547 1475 550.134 1475 554 1475 557.866 1471.19 561 1466.5 561 1461.81 561 1458 557.866 1458 554Z" fill="#4472C4" fill-rule="evenodd"/><path d="M1517 611C1517 607.134 1520.81 604 1525.5 604 1530.19 604 1534 607.134 1534 611 1534 614.866 1530.19 618 1525.5 618 1520.81 618 1517 614.866 1517 611Z" fill="#4472C4" fill-rule="evenodd"/><path d="M1687 555C1687 551.134 1691.03 548 1696 548 1700.97 548 1705 551.134 1705 555 1705 558.866 1700.97 562 1696 562 1691.03 562 1687 558.866 1687 555Z" fill="#C00000" fill-rule="evenodd"/><path d="M1476 541C1476 537.134 1480.03 534 1485 534 1489.97 534 1494 537.134 1494 541 1494 544.866 1489.97 548 1485 548 1480.03 548 1476 544.866 1476 541Z" fill="#4472C4" fill-rule="evenodd"/><path d="M1484 544C1484 540.134 1488.03 537 1493 537 1497.97 537 1502 540.134 1502 544 1502 547.866 1497.97 551 1493 551 1488.03 551 1484 547.866 1484 544Z" fill="#4472C4" fill-rule="evenodd"/><path d="M1447 535C1447 531.134 1450.81 528 1455.5 528 1460.19 528 1464 531.134 1464 535 1464 538.866 1460.19 542 1455.5 542 1450.81 542 1447 538.866 1447 535Z" fill="#4472C4" fill-rule="evenodd"/><path d="M1445 550C1445 546.134 1449.03 543 1454 543 1458.97 543 1463 546.134 1463 550 1463 553.866 1458.97 557 1454 557 1449.03 557 1445 553.866 1445 550Z" fill="#4472C4" fill-rule="evenodd"/><path d="M1499 533C1499 529.134 1503.03 526 1508 526 1512.97 526 1517 529.134 1517 533 1517 536.866 1512.97 540 1508 540 1503.03 540 1499 536.866 1499 533Z" fill="#4472C4" fill-rule="evenodd"/><path d="M1538 552C1538 548.134 1541.81 545 1546.5 545 1551.19 545 1555 548.134 1555 552 1555 555.866 1551.19 559 1546.5 559 1541.81 559 1538 555.866 1538 552Z" fill="#4472C4" fill-rule="evenodd"/><path d="M1480 553C1480 549.134 1484.03 546 1489 546 1493.97 546 1498 549.134 1498 553 1498 556.866 1493.97 560 1489 560 1484.03 560 1480 556.866 1480 553Z" fill="#4472C4" fill-rule="evenodd"/><path d="M1443 515C1443 511.134 1447.03 508 1452 508 1456.97 508 1461 511.134 1461 515 1461 518.866 1456.97 522 1452 522 1447.03 522 1443 518.866 1443 515Z" fill="#4472C4" fill-rule="evenodd"/><path d="M1501 546C1501 542.134 1505.03 539 1510 539 1514.97 539 1519 542.134 1519 546 1519 549.866 1514.97 553 1510 553 1505.03 553 1501 549.866 1501 546Z" fill="#4472C4" fill-rule="evenodd"/><path d="M1483 559C1483 555.134 1487.03 552 1492 552 1496.97 552 1501 555.134 1501 559 1501 562.866 1496.97 566 1492 566 1487.03 566 1483 562.866 1483 559Z" fill="#4472C4" fill-rule="evenodd"/><path d="M1772 738C1772 734.134 1776.03 731 1781 731 1785.97 731 1790 734.134 1790 738 1790 741.866 1785.97 745 1781 745 1776.03 745 1772 741.866 1772 738Z" fill="#4472C4" fill-rule="evenodd"/><path d="M1728 758C1728 754.134 1732.03 751 1737 751 1741.97 751 1746 754.134 1746 758 1746 761.866 1741.97 765 1737 765 1732.03 765 1728 761.866 1728 758Z" fill="#4472C4" fill-rule="evenodd"/><path d="M1716 774C1716 770.134 1720.03 767 1725 767 1729.97 767 1734 770.134 1734 774 1734 777.866 1729.97 781 1725 781 1720.03 781 1716 777.866 1716 774Z" fill="#4472C4" fill-rule="evenodd"/><path d="M1756 764C1756 760.134 1759.81 757 1764.5 757 1769.19 757 1773 760.134 1773 764 1773 767.866 1769.19 771 1764.5 771 1759.81 771 1756 767.866 1756 764Z" fill="#4472C4" fill-rule="evenodd"/><path d="M1795 750C1795 746.134 1799.03 743 1804 743 1808.97 743 1813 746.134 1813 750 1813 753.866 1808.97 757 1804 757 1799.03 757 1795 753.866 1795 750Z" fill="#4472C4" fill-rule="evenodd"/><path d="M1760 797C1760 793.134 1764.03 790 1769 790 1773.97 790 1778 793.134 1778 797 1778 800.866 1773.97 804 1769 804 1764.03 804 1760 800.866 1760 797Z" fill="#4472C4" fill-rule="evenodd"/><path d="M1775 746C1775 742.134 1779.03 739 1784 739 1788.97 739 1793 742.134 1793 746 1793 749.866 1788.97 753 1784 753 1779.03 753 1775 749.866 1775 746Z" fill="#4472C4" fill-rule="evenodd"/><path d="M1755 730C1755 726.134 1759.03 723 1764 723 1768.97 723 1773 726.134 1773 730 1773 733.866 1768.97 737 1764 737 1759.03 737 1755 733.866 1755 730Z" fill="#4472C4" fill-rule="evenodd"/><path d="M1763 715C1763 711.134 1766.81 708 1771.5 708 1776.19 708 1780 711.134 1780 715 1780 718.866 1776.19 722 1771.5 722 1766.81 722 1763 718.866 1763 715Z" fill="#4472C4" fill-rule="evenodd"/><path d="M1763 758C1763 754.134 1767.03 751 1772 751 1776.97 751 1781 754.134 1781 758 1781 761.866 1776.97 765 1772 765 1767.03 765 1763 761.866 1763 758Z" fill="#4472C4" fill-rule="evenodd"/><path d="M1673 736C1673 732.134 1677.03 729 1682 729 1686.97 729 1691 732.134 1691 736 1691 739.866 1686.97 743 1682 743 1677.03 743 1673 739.866 1673 736Z" fill="#4472C4" fill-rule="evenodd"/><path d="M1732 756C1732 752.134 1736.03 749 1741 749 1745.97 749 1750 752.134 1750 756 1750 759.866 1745.97 763 1741 763 1736.03 763 1732 759.866 1732 756Z" fill="#4472C4" fill-rule="evenodd"/><path d="M1731 754C1731 750.134 1735.03 747 1740 747 1744.97 747 1749 750.134 1749 754 1749 757.866 1744.97 761 1740 761 1735.03 761 1731 757.866 1731 754Z" fill="#4472C4" fill-rule="evenodd"/><path d="M1694 729C1694 725.134 1697.81 722 1702.5 722 1707.19 722 1711 725.134 1711 729 1711 732.866 1707.19 736 1702.5 736 1697.81 736 1694 732.866 1694 729Z" fill="#4472C4" fill-rule="evenodd"/><path d="M1749 741C1749 737.134 1753.03 734 1758 734 1762.97 734 1767 737.134 1767 741 1767 744.866 1762.97 748 1758 748 1753.03 748 1749 744.866 1749 741Z" fill="#4472C4" fill-rule="evenodd"/><path d="M1678 699C1678 695.134 1682.03 692 1687 692 1691.97 692 1696 695.134 1696 699 1696 702.866 1691.97 706 1687 706 1682.03 706 1678 702.866 1678 699Z" fill="#4472C4" fill-rule="evenodd"/><path d="M1793 772C1793 768.134 1797.03 765 1802 765 1806.97 765 1811 768.134 1811 772 1811 775.866 1806.97 779 1802 779 1797.03 779 1793 775.866 1793 772Z" fill="#4472C4" fill-rule="evenodd"/><path d="M1719 751C1719 747.134 1722.81 744 1727.5 744 1732.19 744 1736 747.134 1736 751 1736 754.866 1732.19 758 1727.5 758 1722.81 758 1719 754.866 1719 751Z" fill="#4472C4" fill-rule="evenodd"/><path d="M1773 734C1773 730.134 1777.03 727 1782 727 1786.97 727 1791 730.134 1791 734 1791 737.866 1786.97 741 1782 741 1777.03 741 1773 737.866 1773 734Z" fill="#4472C4" fill-rule="evenodd"/><path d="M1715 736C1715 732.134 1718.81 729 1723.5 729 1728.19 729 1732 732.134 1732 736 1732 739.866 1728.19 743 1723.5 743 1718.81 743 1715 739.866 1715 736Z" fill="#4472C4" fill-rule="evenodd"/><path d="M1754 753C1754 749.134 1758.03 746 1763 746 1767.97 746 1772 749.134 1772 753 1772 756.866 1767.97 760 1763 760 1758.03 760 1754 756.866 1754 753Z" fill="#4472C4" fill-rule="evenodd"/><path d="M1702 716C1702 712.134 1705.81 709 1710.5 709 1715.19 709 1719 712.134 1719 716 1719 719.866 1715.19 723 1710.5 723 1705.81 723 1702 719.866 1702 716Z" fill="#4472C4" fill-rule="evenodd"/><path d="M1734 719C1734 715.134 1738.03 712 1743 712 1747.97 712 1752 715.134 1752 719 1752 722.866 1747.97 726 1743 726 1738.03 726 1734 722.866 1734 719Z" fill="#4472C4" fill-rule="evenodd"/><path d="M1757 760C1757 756.134 1760.81 753 1765.5 753 1770.19 753 1774 756.134 1774 760 1774 763.866 1770.19 767 1765.5 767 1760.81 767 1757 763.866 1757 760Z" fill="#4472C4" fill-rule="evenodd"/><path d="M1602 752C1602 748.134 1605.81 745 1610.5 745 1615.19 745 1619 748.134 1619 752 1619 755.866 1615.19 759 1610.5 759 1605.81 759 1602 755.866 1602 752Z" fill="#C00000" fill-rule="evenodd"/><path d="M1485 778C1485 774.134 1488.81 771 1493.5 771 1498.19 771 1502 774.134 1502 778 1502 781.866 1498.19 785 1493.5 785 1488.81 785 1485 781.866 1485 778Z" fill="#C00000" fill-rule="evenodd"/><path d="M1583 725C1583 721.134 1587.03 718 1592 718 1596.97 718 1601 721.134 1601 725 1601 728.866 1596.97 732 1592 732 1587.03 732 1583 728.866 1583 725Z" fill="#C00000" fill-rule="evenodd"/><path d="M1606 747C1606 743.134 1609.81 740 1614.5 740 1619.19 740 1623 743.134 1623 747 1623 750.866 1619.19 754 1614.5 754 1609.81 754 1606 750.866 1606 747Z" fill="#C00000" fill-rule="evenodd"/><path d="M1506 725C1506 721.134 1509.81 718 1514.5 718 1519.19 718 1523 721.134 1523 725 1523 728.866 1519.19 732 1514.5 732 1509.81 732 1506 728.866 1506 725Z" fill="#C00000" fill-rule="evenodd"/><path d="M1503 755C1503 751.134 1506.81 748 1511.5 748 1516.19 748 1520 751.134 1520 755 1520 758.866 1516.19 762 1511.5 762 1506.81 762 1503 758.866 1503 755Z" fill="#C00000" fill-rule="evenodd"/><path d="M1538 764C1538 760.134 1542.03 757 1547 757 1551.97 757 1556 760.134 1556 764 1556 767.866 1551.97 771 1547 771 1542.03 771 1538 767.866 1538 764Z" fill="#C00000" fill-rule="evenodd"/><path d="M1654 574C1654 570.134 1657.81 567 1662.5 567 1667.19 567 1671 570.134 1671 574 1671 577.866 1667.19 581 1662.5 581 1657.81 581 1654 577.866 1654 574Z" fill="#C00000" fill-rule="evenodd"/><path d="M1688 597C1688 593.134 1691.81 590 1696.5 590 1701.19 590 1705 593.134 1705 597 1705 600.866 1701.19 604 1696.5 604 1691.81 604 1688 600.866 1688 597Z" fill="#C00000" fill-rule="evenodd"/><path d="M1739 585C1739 581.134 1743.03 578 1748 578 1752.97 578 1757 581.134 1757 585 1757 588.866 1752.97 592 1748 592 1743.03 592 1739 588.866 1739 585Z" fill="#C00000" fill-rule="evenodd"/><path d="M1719 573C1719 569.134 1723.03 566 1728 566 1732.97 566 1737 569.134 1737 573 1737 576.866 1732.97 580 1728 580 1723.03 580 1719 576.866 1719 573Z" fill="#C00000" fill-rule="evenodd"/><path d="M1692 573C1692 569.134 1695.81 566 1700.5 566 1705.19 566 1709 569.134 1709 573 1709 576.866 1705.19 580 1700.5 580 1695.81 580 1692 576.866 1692 573Z" fill="#C00000" fill-rule="evenodd"/><path d="M1713 611C1713 607.134 1717.03 604 1722 604 1726.97 604 1731 607.134 1731 611 1731 614.866 1726.97 618 1722 618 1717.03 618 1713 614.866 1713 611Z" fill="#C00000" fill-rule="evenodd"/><path d="M1731 558C1731 554.134 1735.03 551 1740 551 1744.97 551 1749 554.134 1749 558 1749 561.866 1744.97 565 1740 565 1735.03 565 1731 561.866 1731 558Z" fill="#C00000" fill-rule="evenodd"/><path d="M1669 601C1669 597.134 1672.81 594 1677.5 594 1682.19 594 1686 597.134 1686 601 1686 604.866 1682.19 608 1677.5 608 1672.81 608 1669 604.866 1669 601Z" fill="#C00000" fill-rule="evenodd"/><path d="M1739 585C1739 581.134 1743.03 578 1748 578 1752.97 578 1757 581.134 1757 585 1757 588.866 1752.97 592 1748 592 1743.03 592 1739 588.866 1739 585Z" fill="#C00000" fill-rule="evenodd"/><path d="M1719 573C1719 569.134 1723.03 566 1728 566 1732.97 566 1737 569.134 1737 573 1737 576.866 1732.97 580 1728 580 1723.03 580 1719 576.866 1719 573Z" fill="#C00000" fill-rule="evenodd"/><path d="M1692 573C1692 569.134 1695.81 566 1700.5 566 1705.19 566 1709 569.134 1709 573 1709 576.866 1705.19 580 1700.5 580 1695.81 580 1692 576.866 1692 573Z" fill="#C00000" fill-rule="evenodd"/><path d="M1713 611C1713 607.134 1717.03 604 1722 604 1726.97 604 1731 607.134 1731 611 1731 614.866 1726.97 618 1722 618 1717.03 618 1713 614.866 1713 611Z" fill="#C00000" fill-rule="evenodd"/><path d="M1710 618.5C1710 614.91 1714.03 612 1719 612 1723.97 612 1728 614.91 1728 618.5 1728 622.09 1723.97 625 1719 625 1714.03 625 1710 622.09 1710 618.5Z" fill="#C00000" fill-rule="evenodd"/><path d="M1733 640C1733 636.134 1736.81 633 1741.5 633 1746.19 633 1750 636.134 1750 640 1750 643.866 1746.19 647 1741.5 647 1736.81 647 1733 643.866 1733 640Z" fill="#C00000" fill-rule="evenodd"/><path d="M1789 581C1789 577.134 1793.03 574 1798 574 1802.97 574 1807 577.134 1807 581 1807 584.866 1802.97 588 1798 588 1793.03 588 1789 584.866 1789 581Z" fill="#C00000" fill-rule="evenodd"/><path d="M1579 730.5C1579 726.91 1583.03 724 1588 724 1592.97 724 1597 726.91 1597 730.5 1597 734.09 1592.97 737 1588 737 1583.03 737 1579 734.09 1579 730.5Z" fill="#C00000" fill-rule="evenodd"/><path d="M1557 754C1557 750.134 1560.81 747 1565.5 747 1570.19 747 1574 750.134 1574 754 1574 757.866 1570.19 761 1565.5 761 1560.81 761 1557 757.866 1557 754Z" fill="#C00000" fill-rule="evenodd"/><path d="M1534 737C1534 733.134 1537.81 730 1542.5 730 1547.19 730 1551 733.134 1551 737 1551 740.866 1547.19 744 1542.5 744 1537.81 744 1534 740.866 1534 737Z" fill="#C00000" fill-rule="evenodd"/><path d="M1480 717C1480 713.134 1484.03 710 1489 710 1493.97 710 1498 713.134 1498 717 1498 720.866 1493.97 724 1489 724 1484.03 724 1480 720.866 1480 717Z" fill="#C00000" fill-rule="evenodd"/><path d="M1579 775C1579 771.134 1583.03 768 1588 768 1592.97 768 1597 771.134 1597 775 1597 778.866 1592.97 782 1588 782 1583.03 782 1579 778.866 1579 775Z" fill="#C00000" fill-rule="evenodd"/><path d="M1556 759C1556 755.134 1560.03 752 1565 752 1569.97 752 1574 755.134 1574 759 1574 762.866 1569.97 766 1565 766 1560.03 766 1556 762.866 1556 759Z" fill="#C00000" fill-rule="evenodd"/><path d="M1508 686C1508 682.134 1512.03 679 1517 679 1521.97 679 1526 682.134 1526 686 1526 689.866 1521.97 693 1517 693 1512.03 693 1508 689.866 1508 686Z" fill="#C00000" fill-rule="evenodd"/><path d="M1507 799C1507 795.134 1511.03 792 1516 792 1520.97 792 1525 795.134 1525 799 1525 802.866 1520.97 806 1516 806 1511.03 806 1507 802.866 1507 799Z" fill="#C00000" fill-rule="evenodd"/><path d="M1528 747C1528 743.134 1532.03 740 1537 740 1541.97 740 1546 743.134 1546 747 1546 750.866 1541.97 754 1537 754 1532.03 754 1528 750.866 1528 747Z" fill="#C00000" fill-rule="evenodd"/><path d="M1525 777C1525 773.134 1529.03 770 1534 770 1538.97 770 1543 773.134 1543 777 1543 780.866 1538.97 784 1534 784 1529.03 784 1525 780.866 1525 777Z" fill="#C00000" fill-rule="evenodd"/><path d="M1561 786C1561 782.134 1564.81 779 1569.5 779 1574.19 779 1578 782.134 1578 786 1578 789.866 1574.19 793 1569.5 793 1564.81 793 1561 789.866 1561 786Z" fill="#C00000" fill-rule="evenodd"/><path d="M1581.3 614.374 1585.45 609.975 1606.5 629.842 1627.55 609.975 1631.7 614.374 1610.91 634 1631.7 653.626 1627.55 658.025 1606.5 638.158 1585.45 658.025 1581.3 653.626 1602.09 634Z" stroke="#2F528F" stroke-width="2" stroke-miterlimit="8" fill="#FF0000" fill-rule="evenodd"/></g></svg>