<svg 
    width="430" 
    height="300" 
    xmlns="http://www.w3.org/2000/svg" 
    xmlns:xlink="http://www.w3.org/1999/xlink" 
    overflow="hidden"
    viewBox="0 0 950 670"
    style="background:dar kred;width:0%">
<defs><clipPath id="clip0"><path d="M156 32 1107 32 1107 709 156 709Z" fill-rule="evenodd" clip-rule="evenodd"/></clipPath></defs><g clip-path="url(#clip0)" transform="translate(-156 -32)"><path d="M475 107 475 680.024 470 680.024 470 107ZM465 109.5 472.5 94.5 480 109.5Z" fill="#A5A5A5"/><path d="M1079.43 486 159.5 486 159.5 481 1079.43 481ZM1076.93 476 1091.93 483.5 1076.93 491Z" fill="#A5A5A5"/><path d="M822 195C822 191.134 825.806 188 830.5 188 835.194 188 839 191.134 839 195 839 198.866 835.194 202 830.5 202 825.806 202 822 198.866 822 195Z" fill="#C00000" fill-rule="evenodd"/><path d="M802 250C802 246.134 806.029 243 811 243 815.971 243 820 246.134 820 250 820 253.866 815.971 257 811 257 806.029 257 802 253.866 802 250Z" fill="#C00000" fill-rule="evenodd"/><path d="M693 384C693 380.134 697.029 377 702 377 706.971 377 711 380.134 711 384 711 387.866 706.971 391 702 391 697.029 391 693 387.866 693 384Z" fill="#C00000" fill-rule="evenodd"/><path d="M854 239C854 235.134 857.806 232 862.5 232 867.194 232 871 235.134 871 239 871 242.866 867.194 246 862.5 246 857.806 246 854 242.866 854 239Z" fill="#C00000" fill-rule="evenodd"/><path d="M671 407C671 403.134 675.029 400 680 400 684.971 400 689 403.134 689 407 689 410.866 684.971 414 680 414 675.029 414 671 410.866 671 407Z" fill="#C00000" fill-rule="evenodd"/><path d="M833 227C833 223.134 837.029 220 842 220 846.971 220 851 223.134 851 227 851 230.866 846.971 234 842 234 837.029 234 833 230.866 833 227Z" fill="#C00000" fill-rule="evenodd"/><path d="M648 391C648 387.134 651.806 384 656.5 384 661.194 384 665 387.134 665 391 665 394.866 661.194 398 656.5 398 651.806 398 648 394.866 648 391Z" fill="#C00000" fill-rule="evenodd"/><path d="M806 226C806 222.134 809.806 219 814.5 219 819.194 219 823 222.134 823 226 823 229.866 819.194 233 814.5 233 809.806 233 806 229.866 806 226Z" fill="#C00000" fill-rule="evenodd"/><path d="M634.5 33.5 901.814 706.914" stroke="#FFD966" stroke-width="3" stroke-miterlimit="8" fill="none" fill-rule="evenodd"/><path d="M676 382C676 378.134 679.806 375 684.5 375 689.194 375 693 378.134 693 382 693 385.866 689.194 389 684.5 389 679.806 389 676 385.866 676 382Z" fill="#C00000" fill-rule="evenodd"/><path d="M827 264C827 260.134 831.029 257 836 257 840.971 257 845 260.134 845 264 845 267.866 840.971 271 836 271 831.029 271 827 267.866 827 264Z" fill="#C00000" fill-rule="evenodd"/><path d="M721 425C721 421.134 724.806 418 729.5 418 734.194 418 738 421.134 738 425 738 428.866 734.194 432 729.5 432 724.806 432 721 428.866 721 425Z" fill="#C00000" fill-rule="evenodd"/><path d="M636 212C636 208.134 639.806 205 644.5 205 649.194 205 653 208.134 653 212 653 215.866 649.194 219 644.5 219 639.806 219 636 215.866 636 212Z" fill="#4472C4" fill-rule="evenodd"/><path d="M591 232C591 228.134 595.029 225 600 225 604.971 225 609 228.134 609 232 609 235.866 604.971 239 600 239 595.029 239 591 235.866 591 232Z" fill="#4472C4" fill-rule="evenodd"/><path d="M650 255C650 251.134 654.029 248 659 248 663.971 248 668 251.134 668 255 668 258.866 663.971 262 659 262 654.029 262 650 258.866 650 255Z" fill="#4472C4" fill-rule="evenodd"/><path d="M619 239C619 235.134 622.806 232 627.5 232 632.194 232 636 235.134 636 239 636 242.866 632.194 246 627.5 246 622.806 246 619 242.866 619 239Z" fill="#4472C4" fill-rule="evenodd"/><path d="M659 224C659 220.134 662.806 217 667.5 217 672.194 217 676 220.134 676 224 676 227.866 672.194 231 667.5 231 662.806 231 659 227.866 659 224Z" fill="#4472C4" fill-rule="evenodd"/><path d="M679 274C679 270.134 682.806 267 687.5 267 692.194 267 696 270.134 696 274 696 277.866 692.194 281 687.5 281 682.806 281 679 277.866 679 274Z" fill="#4472C4" fill-rule="evenodd"/><path d="M901 289C901 285.134 905.029 282 910 282 914.971 282 919 285.134 919 289 919 292.866 914.971 296 910 296 905.029 296 901 292.866 901 289Z" fill="#C00000" fill-rule="evenodd"/><path d="M869 209C869 205.134 872.806 202 877.5 202 882.194 202 886 205.134 886 209 886 212.866 882.194 216 877.5 216 872.806 216 869 212.866 869 209Z" fill="#C00000" fill-rule="evenodd"/><path d="M854 239C854 235.134 857.806 232 862.5 232 867.194 232 871 235.134 871 239 871 242.866 867.194 246 862.5 246 857.806 246 854 242.866 854 239Z" fill="#C00000" fill-rule="evenodd"/><path d="M833 227C833 223.134 837.029 220 842 220 846.971 220 851 223.134 851 227 851 230.866 846.971 234 842 234 837.029 234 833 230.866 833 227Z" fill="#C00000" fill-rule="evenodd"/><path d="M806 226C806 222.134 809.806 219 814.5 219 819.194 219 823 222.134 823 226 823 229.866 819.194 233 814.5 233 809.806 233 806 229.866 806 226Z" fill="#C00000" fill-rule="evenodd"/><path d="M827 264C827 260.134 831.029 257 836 257 840.971 257 845 260.134 845 264 845 267.866 840.971 271 836 271 831.029 271 827 267.866 827 264Z" fill="#C00000" fill-rule="evenodd"/><path d="M824 272C824 268.134 828.029 265 833 265 837.971 265 842 268.134 842 272 842 275.866 837.971 279 833 279 828.029 279 824 275.866 824 272Z" fill="#C00000" fill-rule="evenodd"/><path d="M847 293.5C847 289.91 851.029 287 856 287 860.971 287 865 289.91 865 293.5 865 297.09 860.971 300 856 300 851.029 300 847 297.09 847 293.5Z" fill="#C00000" fill-rule="evenodd"/><path d="M716 405.5C716 401.91 719.806 399 724.5 399 729.194 399 733 401.91 733 405.5 733 409.09 729.194 412 724.5 412 719.806 412 716 409.09 716 405.5Z" fill="#C00000" fill-rule="evenodd"/><path d="M693 429C693 425.134 697.029 422 702 422 706.971 422 711 425.134 711 429 711 432.866 706.971 436 702 436 697.029 436 693 432.866 693 429Z" fill="#C00000" fill-rule="evenodd"/><path d="M670 412C670 408.134 674.029 405 679 405 683.971 405 688 408.134 688 412 688 415.866 683.971 419 679 419 674.029 419 670 415.866 670 412Z" fill="#C00000" fill-rule="evenodd"/><path d="M697 379C697 375.134 701.029 372 706 372 710.971 372 715 375.134 715 379 715 382.866 710.971 386 706 386 701.029 386 697 382.866 697 379Z" fill="#C00000" fill-rule="evenodd"/><path d="M743 447C743 443.134 747.029 440 752 440 756.971 440 761 443.134 761 447 761 450.866 756.971 454 752 454 747.029 454 743 450.866 743 447Z" fill="#C00000" fill-rule="evenodd"/><path d="M639 221C639 217.134 642.806 214 647.5 214 652.194 214 656 217.134 656 221 656 224.866 652.194 228 647.5 228 642.806 228 639 224.866 639 221Z" fill="#4472C4" fill-rule="evenodd"/><path d="M618 204C618 200.134 622.029 197 627 197 631.971 197 636 200.134 636 204 636 207.866 631.971 211 627 211 622.029 211 618 207.866 618 204Z" fill="#4472C4" fill-rule="evenodd"/><path d="M543 185C543 181.134 546.806 178 551.5 178 556.194 178 560 181.134 560 185 560 188.866 556.194 192 551.5 192 546.806 192 543 188.866 543 185Z" fill="#4472C4" fill-rule="evenodd"/><path d="M627 232C627 228.134 630.806 225 635.5 225 640.194 225 644 228.134 644 232 644 235.866 640.194 239 635.5 239 630.806 239 627 235.866 627 232Z" fill="#4472C4" fill-rule="evenodd"/><path d="M680 286C680 282.134 684.029 279 689 279 693.971 279 698 282.134 698 286 698 289.866 693.971 293 689 293 684.029 293 680 289.866 680 286Z" fill="#4472C4" fill-rule="evenodd"/><path d="M596 230.5C596 226.91 599.806 224 604.5 224 609.194 224 613 226.91 613 230.5 613 234.09 609.194 237 604.5 237 599.806 237 596 234.09 596 230.5Z" fill="#4472C4" fill-rule="evenodd"/><path d="M594 229C594 225.134 598.029 222 603 222 607.971 222 612 225.134 612 229 612 232.866 607.971 236 603 236 598.029 236 594 232.866 594 229Z" fill="#4472C4" fill-rule="evenodd"/><path d="M653 286C653 282.134 657.029 279 662 279 666.971 279 671 282.134 671 286 671 289.866 666.971 293 662 293 657.029 293 653 289.866 653 286Z" fill="#4472C4" fill-rule="evenodd"/><path d="M824 230C824 226.134 827.806 223 832.5 223 837.194 223 841 226.134 841 230 841 233.866 837.194 237 832.5 237 827.806 237 824 233.866 824 230Z" fill="#C00000" fill-rule="evenodd"/><path d="M613 216C613 212.134 616.806 209 621.5 209 626.194 209 630 212.134 630 216 630 219.866 626.194 223 621.5 223 616.806 223 613 219.866 613 216Z" fill="#4472C4" fill-rule="evenodd"/><path d="M621 219C621 215.134 625.029 212 630 212 634.971 212 639 215.134 639 219 639 222.866 634.971 226 630 226 625.029 226 621 222.866 621 219Z" fill="#4472C4" fill-rule="evenodd"/><path d="M583 210C583 206.134 587.029 203 592 203 596.971 203 601 206.134 601 210 601 213.866 596.971 217 592 217 587.029 217 583 213.866 583 210Z" fill="#4472C4" fill-rule="evenodd"/><path d="M582 225C582 221.134 586.029 218 591 218 595.971 218 600 221.134 600 225 600 228.866 595.971 232 591 232 586.029 232 582 228.866 582 225Z" fill="#4472C4" fill-rule="evenodd"/><path d="M636 208C636 204.134 640.029 201 645 201 649.971 201 654 204.134 654 208 654 211.866 649.971 215 645 215 640.029 215 636 211.866 636 208Z" fill="#4472C4" fill-rule="evenodd"/><path d="M674 227C674 223.134 678.029 220 683 220 687.971 220 692 223.134 692 227 692 230.866 687.971 234 683 234 678.029 234 674 230.866 674 227Z" fill="#4472C4" fill-rule="evenodd"/><path d="M617 228C617 224.134 621.029 221 626 221 630.971 221 635 224.134 635 228 635 231.866 630.971 235 626 235 621.029 235 617 231.866 617 228Z" fill="#4472C4" fill-rule="evenodd"/><path d="M580 190C580 186.134 584.029 183 589 183 593.971 183 598 186.134 598 190 598 193.866 593.971 197 589 197 584.029 197 580 193.866 580 190Z" fill="#4472C4" fill-rule="evenodd"/><path d="M638 221C638 217.134 642.029 214 647 214 651.971 214 656 217.134 656 221 656 224.866 651.971 228 647 228 642.029 228 638 224.866 638 221Z" fill="#4472C4" fill-rule="evenodd"/><path d="M620 234C620 230.134 624.029 227 629 227 633.971 227 638 230.134 638 234 638 237.866 633.971 241 629 241 624.029 241 620 237.866 620 234Z" fill="#4472C4" fill-rule="evenodd"/><path d="M909 413C909 409.134 913.029 406 918 406 922.971 406 927 409.134 927 413 927 416.866 922.971 420 918 420 913.029 420 909 416.866 909 413Z" fill="#4472C4" fill-rule="evenodd"/><path d="M865 433C865 429.134 868.806 426 873.5 426 878.194 426 882 429.134 882 433 882 436.866 878.194 440 873.5 440 868.806 440 865 436.866 865 433Z" fill="#4472C4" fill-rule="evenodd"/><path d="M853 449C853 445.134 857.029 442 862 442 866.971 442 871 445.134 871 449 871 452.866 866.971 456 862 456 857.029 456 853 452.866 853 449Z" fill="#4472C4" fill-rule="evenodd"/><path d="M892 439C892 435.134 896.029 432 901 432 905.971 432 910 435.134 910 439 910 442.866 905.971 446 901 446 896.029 446 892 442.866 892 439Z" fill="#4472C4" fill-rule="evenodd"/><path d="M932 425C932 421.134 936.029 418 941 418 945.971 418 950 421.134 950 425 950 428.866 945.971 432 941 432 936.029 432 932 428.866 932 425Z" fill="#4472C4" fill-rule="evenodd"/><path d="M897 472C897 468.134 900.806 465 905.5 465 910.194 465 914 468.134 914 472 914 475.866 910.194 479 905.5 479 900.806 479 897 475.866 897 472Z" fill="#4472C4" fill-rule="evenodd"/><path d="M912 421C912 417.134 916.029 414 921 414 925.971 414 930 417.134 930 421 930 424.866 925.971 428 921 428 916.029 428 912 424.866 912 421Z" fill="#4472C4" fill-rule="evenodd"/><path d="M892 405C892 401.134 895.806 398 900.5 398 905.194 398 909 401.134 909 405 909 408.866 905.194 412 900.5 412 895.806 412 892 408.866 892 405Z" fill="#4472C4" fill-rule="evenodd"/><path d="M900 390C900 386.134 903.806 383 908.5 383 913.194 383 917 386.134 917 390 917 393.866 913.194 397 908.5 397 903.806 397 900 393.866 900 390Z" fill="#4472C4" fill-rule="evenodd"/><path d="M900 433C900 429.134 904.029 426 909 426 913.971 426 918 429.134 918 433 918 436.866 913.971 440 909 440 904.029 440 900 436.866 900 433Z" fill="#4472C4" fill-rule="evenodd"/><path d="M810 411C810 407.134 813.806 404 818.5 404 823.194 404 827 407.134 827 411 827 414.866 823.194 418 818.5 418 813.806 418 810 414.866 810 411Z" fill="#4472C4" fill-rule="evenodd"/><path d="M869 431C869 427.134 873.029 424 878 424 882.971 424 887 427.134 887 431 887 434.866 882.971 438 878 438 873.029 438 869 434.866 869 431Z" fill="#4472C4" fill-rule="evenodd"/><path d="M868 429C868 425.134 872.029 422 877 422 881.971 422 886 425.134 886 429 886 432.866 881.971 436 877 436 872.029 436 868 432.866 868 429Z" fill="#4472C4" fill-rule="evenodd"/><path d="M830 404C830 400.134 834.029 397 839 397 843.971 397 848 400.134 848 404 848 407.866 843.971 411 839 411 834.029 411 830 407.866 830 404Z" fill="#4472C4" fill-rule="evenodd"/><path d="M886 416C886 412.134 890.029 409 895 409 899.971 409 904 412.134 904 416 904 419.866 899.971 423 895 423 890.029 423 886 419.866 886 416Z" fill="#4472C4" fill-rule="evenodd"/><path d="M815 374C815 370.134 819.029 367 824 367 828.971 367 833 370.134 833 374 833 377.866 828.971 381 824 381 819.029 381 815 377.866 815 374Z" fill="#4472C4" fill-rule="evenodd"/><path d="M930 447C930 443.134 933.806 440 938.5 440 943.194 440 947 443.134 947 447 947 450.866 943.194 454 938.5 454 933.806 454 930 450.866 930 447Z" fill="#4472C4" fill-rule="evenodd"/><path d="M855 426C855 422.134 859.029 419 864 419 868.971 419 873 422.134 873 426 873 429.866 868.971 433 864 433 859.029 433 855 429.866 855 426Z" fill="#4472C4" fill-rule="evenodd"/><path d="M910 409C910 405.134 913.806 402 918.5 402 923.194 402 927 405.134 927 409 927 412.866 923.194 416 918.5 416 913.806 416 910 412.866 910 409Z" fill="#4472C4" fill-rule="evenodd"/><path d="M851 411C851 407.134 855.029 404 860 404 864.971 404 869 407.134 869 411 869 414.866 864.971 418 860 418 855.029 418 851 414.866 851 411Z" fill="#4472C4" fill-rule="evenodd"/><path d="M891 428C891 424.134 894.806 421 899.5 421 904.194 421 908 424.134 908 428 908 431.866 904.194 435 899.5 435 894.806 435 891 431.866 891 428Z" fill="#4472C4" fill-rule="evenodd"/><path d="M838 391C838 387.134 842.029 384 847 384 851.971 384 856 387.134 856 391 856 394.866 851.971 398 847 398 842.029 398 838 394.866 838 391Z" fill="#4472C4" fill-rule="evenodd"/><path d="M871 394C871 390.134 874.806 387 879.5 387 884.194 387 888 390.134 888 394 888 397.866 884.194 401 879.5 401 874.806 401 871 397.866 871 394Z" fill="#4472C4" fill-rule="evenodd"/><path d="M893 435C893 431.134 897.029 428 902 428 906.971 428 911 431.134 911 435 911 438.866 906.971 442 902 442 897.029 442 893 438.866 893 435Z" fill="#4472C4" fill-rule="evenodd"/><path d="M738 427C738 423.134 742.029 420 747 420 751.971 420 756 423.134 756 427 756 430.866 751.971 434 747 434 742.029 434 738 430.866 738 427Z" fill="#C00000" fill-rule="evenodd"/><path d="M621 453C621 449.134 625.029 446 630 446 634.971 446 639 449.134 639 453 639 456.866 634.971 460 630 460 625.029 460 621 456.866 621 453Z" fill="#C00000" fill-rule="evenodd"/><path d="M720 400C720 396.134 723.806 393 728.5 393 733.194 393 737 396.134 737 400 737 403.866 733.194 407 728.5 407 723.806 407 720 403.866 720 400Z" fill="#C00000" fill-rule="evenodd"/><path d="M742 422C742 418.134 746.029 415 751 415 755.971 415 760 418.134 760 422 760 425.866 755.971 429 751 429 746.029 429 742 425.866 742 422Z" fill="#C00000" fill-rule="evenodd"/><path d="M642 400C642 396.134 646.029 393 651 393 655.971 393 660 396.134 660 400 660 403.866 655.971 407 651 407 646.029 407 642 403.866 642 400Z" fill="#C00000" fill-rule="evenodd"/><path d="M639 430C639 426.134 643.029 423 648 423 652.971 423 657 426.134 657 430 657 433.866 652.971 437 648 437 643.029 437 639 433.866 639 430Z" fill="#C00000" fill-rule="evenodd"/><path d="M675 439C675 435.134 679.029 432 684 432 688.971 432 693 435.134 693 439 693 442.866 688.971 446 684 446 679.029 446 675 442.866 675 439Z" fill="#C00000" fill-rule="evenodd"/><path d="M790 249C790 245.134 794.029 242 799 242 803.971 242 808 245.134 808 249 808 252.866 803.971 256 799 256 794.029 256 790 252.866 790 249Z" fill="#C00000" fill-rule="evenodd"/><path d="M824 272C824 268.134 828.029 265 833 265 837.971 265 842 268.134 842 272 842 275.866 837.971 279 833 279 828.029 279 824 275.866 824 272Z" fill="#C00000" fill-rule="evenodd"/><path d="M876 260C876 256.134 880.029 253 885 253 889.971 253 894 256.134 894 260 894 263.866 889.971 267 885 267 880.029 267 876 263.866 876 260Z" fill="#C00000" fill-rule="evenodd"/><path d="M856 248C856 244.134 860.029 241 865 241 869.971 241 874 244.134 874 248 874 251.866 869.971 255 865 255 860.029 255 856 251.866 856 248Z" fill="#C00000" fill-rule="evenodd"/><path d="M828 248C828 244.134 832.029 241 837 241 841.971 241 846 244.134 846 248 846 251.866 841.971 255 837 255 832.029 255 828 251.866 828 248Z" fill="#C00000" fill-rule="evenodd"/><path d="M850 286C850 282.134 853.806 279 858.5 279 863.194 279 867 282.134 867 286 867 289.866 863.194 293 858.5 293 853.806 293 850 289.866 850 286Z" fill="#C00000" fill-rule="evenodd"/><path d="M867 233C867 229.134 871.029 226 876 226 880.971 226 885 229.134 885 233 885 236.866 880.971 240 876 240 871.029 240 867 236.866 867 233Z" fill="#C00000" fill-rule="evenodd"/><path d="M806 276C806 272.134 809.806 269 814.5 269 819.194 269 823 272.134 823 276 823 279.866 819.194 283 814.5 283 809.806 283 806 279.866 806 276Z" fill="#C00000" fill-rule="evenodd"/><path d="M876 260C876 256.134 880.029 253 885 253 889.971 253 894 256.134 894 260 894 263.866 889.971 267 885 267 880.029 267 876 263.866 876 260Z" fill="#C00000" fill-rule="evenodd"/><path d="M856 248C856 244.134 860.029 241 865 241 869.971 241 874 244.134 874 248 874 251.866 869.971 255 865 255 860.029 255 856 251.866 856 248Z" fill="#C00000" fill-rule="evenodd"/><path d="M828 248C828 244.134 832.029 241 837 241 841.971 241 846 244.134 846 248 846 251.866 841.971 255 837 255 832.029 255 828 251.866 828 248Z" fill="#C00000" fill-rule="evenodd"/><path d="M850 286C850 282.134 853.806 279 858.5 279 863.194 279 867 282.134 867 286 867 289.866 863.194 293 858.5 293 853.806 293 850 289.866 850 286Z" fill="#C00000" fill-rule="evenodd"/><path d="M847 293.5C847 289.91 851.029 287 856 287 860.971 287 865 289.91 865 293.5 865 297.09 860.971 300 856 300 851.029 300 847 297.09 847 293.5Z" fill="#C00000" fill-rule="evenodd"/><path d="M869 315C869 311.134 873.029 308 878 308 882.971 308 887 311.134 887 315 887 318.866 882.971 322 878 322 873.029 322 869 318.866 869 315Z" fill="#C00000" fill-rule="evenodd"/><path d="M926 256C926 252.134 929.806 249 934.5 249 939.194 249 943 252.134 943 256 943 259.866 939.194 263 934.5 263 929.806 263 926 259.866 926 256Z" fill="#C00000" fill-rule="evenodd"/><path d="M716 405.5C716 401.91 719.806 399 724.5 399 729.194 399 733 401.91 733 405.5 733 409.09 729.194 412 724.5 412 719.806 412 716 409.09 716 405.5Z" fill="#C00000" fill-rule="evenodd"/><path d="M693 429C693 425.134 697.029 422 702 422 706.971 422 711 425.134 711 429 711 432.866 706.971 436 702 436 697.029 436 693 432.866 693 429Z" fill="#C00000" fill-rule="evenodd"/><path d="M670 412C670 408.134 674.029 405 679 405 683.971 405 688 408.134 688 412 688 415.866 683.971 419 679 419 674.029 419 670 415.866 670 412Z" fill="#C00000" fill-rule="evenodd"/><path d="M617 392C617 388.134 620.806 385 625.5 385 630.194 385 634 388.134 634 392 634 395.866 630.194 399 625.5 399 620.806 399 617 395.866 617 392Z" fill="#C00000" fill-rule="evenodd"/><path d="M716 450C716 446.134 720.029 443 725 443 729.971 443 734 446.134 734 450 734 453.866 729.971 457 725 457 720.029 457 716 453.866 716 450Z" fill="#C00000" fill-rule="evenodd"/><path d="M693 434C693 430.134 696.806 427 701.5 427 706.194 427 710 430.134 710 434 710 437.866 706.194 441 701.5 441 696.806 441 693 437.866 693 434Z" fill="#C00000" fill-rule="evenodd"/><path d="M645 361C645 357.134 649.029 354 654 354 658.971 354 663 357.134 663 361 663 364.866 658.971 368 654 368 649.029 368 645 364.866 645 361Z" fill="#C00000" fill-rule="evenodd"/><path d="M644 474C644 470.134 648.029 467 653 467 657.971 467 662 470.134 662 474 662 477.866 657.971 481 653 481 648.029 481 644 477.866 644 474Z" fill="#C00000" fill-rule="evenodd"/><path d="M665 422C665 418.134 669.029 415 674 415 678.971 415 683 418.134 683 422 683 425.866 678.971 429 674 429 669.029 429 665 425.866 665 422Z" fill="#C00000" fill-rule="evenodd"/><path d="M662 452C662 448.134 665.806 445 670.5 445 675.194 445 679 448.134 679 452 679 455.866 675.194 459 670.5 459 665.806 459 662 455.866 662 452Z" fill="#C00000" fill-rule="evenodd"/><path d="M697 461C697 457.134 701.029 454 706 454 710.971 454 715 457.134 715 461 715 464.866 710.971 468 706 468 701.029 468 697 464.866 697 461Z" fill="#C00000" fill-rule="evenodd"/><path d="M717.552 289.385 721.679 284.964 743 304.863 764.321 284.964 768.448 289.385 747.432 309 768.448 328.615 764.321 333.036 743 313.137 721.679 333.036 717.552 328.615 738.568 309Z" stroke="#2F528F" stroke-width="2" stroke-miterlimit="8" fill="#FF0000" fill-rule="evenodd"/></g></svg>