<svg 
    width="530" 
    height="280" 
    xmlns="http://www.w3.org/2000/svg" 
    xmlns:xlink="http://www.w3.org/1999/xlink" 
    overflow="hidden"
    viewBox="0 0 750 410"
    style="backgrou nd:orange;width:0%">
<defs><clipPath id="clip0"><path d="M1123 619 1916 619 1916 1028 1123 1028Z" fill-rule="evenodd" clip-rule="evenodd"/></clipPath></defs><g clip-path="url(#clip0)" transform="translate(-1123 -619)"><path d="M1270 647 1270 1024.5 1265 1024.5 1265 647ZM1260 649.5 1267.5 634.5 1275 649.5Z" fill="#0D0D0D"/><path d="M12.5001-2.5 750-2.49984 750 2.50016 12.5001 2.5ZM15 7.5 0 0 15-7.5Z" fill="#0D0D0D" transform="matrix(-1 -8.74228e-08 -8.74228e-08 1 1877.5 988.5)"/><path d="M1472 772.5C1472 769.462 1475.13 767 1479 767 1482.87 767 1486 769.462 1486 772.5 1486 775.538 1482.87 778 1479 778 1475.13 778 1472 775.538 1472 772.5Z" fill="#4472C4" fill-rule="evenodd"/><path d="M1510 762C1510 758.686 1513.13 756 1517 756 1520.87 756 1524 758.686 1524 762 1524 765.314 1520.87 768 1517 768 1513.13 768 1510 765.314 1510 762Z" fill="#4472C4" fill-rule="evenodd"/><path d="M1547 787.5C1547 784.462 1550.13 782 1554 782 1557.87 782 1561 784.462 1561 787.5 1561 790.538 1557.87 793 1554 793 1550.13 793 1547 790.538 1547 787.5Z" fill="#4472C4" fill-rule="evenodd"/><path d="M1503 782C1503 778.686 1506.13 776 1510 776 1513.87 776 1517 778.686 1517 782 1517 785.314 1513.87 788 1510 788 1506.13 788 1503 785.314 1503 782Z" fill="#4472C4" fill-rule="evenodd"/><path d="M1489 751.5C1489 748.462 1492.13 746 1496 746 1499.87 746 1503 748.462 1503 751.5 1503 754.538 1499.87 757 1496 757 1492.13 757 1489 754.538 1489 751.5Z" fill="#4472C4" fill-rule="evenodd"/><path d="M1523 773.5C1523 770.462 1526.13 768 1530 768 1533.87 768 1537 770.462 1537 773.5 1537 776.538 1533.87 779 1530 779 1526.13 779 1523 776.538 1523 773.5Z" fill="#4472C4" fill-rule="evenodd"/><path d="M1524 801.5C1524 798.462 1527.13 796 1531 796 1534.87 796 1538 798.462 1538 801.5 1538 804.538 1534.87 807 1531 807 1527.13 807 1524 804.538 1524 801.5Z" fill="#4472C4" fill-rule="evenodd"/><path d="M1506 746C1506 742.686 1509.13 740 1513 740 1516.87 740 1520 742.686 1520 746 1520 749.314 1516.87 752 1513 752 1509.13 752 1506 749.314 1506 746Z" fill="#4472C4" fill-rule="evenodd"/><path d="M1446 816C1446 812.686 1449.36 810 1453.5 810 1457.64 810 1461 812.686 1461 816 1461 819.314 1457.64 822 1453.5 822 1449.36 822 1446 819.314 1446 816Z" fill="#C00000" fill-rule="evenodd"/><path d="M1465 801C1465 797.686 1468.13 795 1472 795 1475.87 795 1479 797.686 1479 801 1479 804.314 1475.87 807 1472 807 1468.13 807 1465 804.314 1465 801Z" fill="#C00000" fill-rule="evenodd"/><path d="M1483 815C1483 811.686 1486.13 809 1490 809 1493.87 809 1497 811.686 1497 815 1497 818.314 1493.87 821 1490 821 1486.13 821 1483 818.314 1483 815Z" fill="#C00000" fill-rule="evenodd"/><path d="M0 0 656.292 142.673" stroke="#0F8999" stroke-width="3.125" stroke-miterlimit="8" fill="none" fill-rule="evenodd" transform="matrix(0.847932 0.530104 0.530104 -0.847932 1129.85 668.021)"/><text fill="#0F8999" font-family="Cambria Math,Cambria Math_MSFontService,sans-serif" font-weight="400" font-size="25" transform="matrix(0.92742 0.374022 -0.374022 0.92742 1722.06 849)">𝒚<tspan x="22.2885" y="0.715544">=</tspan><tspan x="48.0175" y="0.0435753">−</tspan><tspan x="67.3519" y="0.872267">𝟎</tspan><tspan x="82.1235" y="0.306259">.</tspan><tspan x="90.1264" y="0.313536">𝟑𝒙</tspan><tspan x="125.092" y="0.229362">+</tspan><tspan x="149.101" y="0.251152">𝟗</tspan></text><path d="M1515 851.5C1515 848.462 1518.13 846 1522 846 1525.87 846 1529 848.462 1529 851.5 1529 854.538 1525.87 857 1522 857 1518.13 857 1515 854.538 1515 851.5Z" fill="#C00000" fill-rule="evenodd"/><path d="M1460 826C1460 822.686 1463.13 820 1467 820 1470.87 820 1474 822.686 1474 826 1474 829.314 1470.87 832 1467 832 1463.13 832 1460 829.314 1460 826Z" fill="#C00000" fill-rule="evenodd"/><path d="M1538 840C1538 836.686 1541.36 834 1545.5 834 1549.64 834 1553 836.686 1553 840 1553 843.314 1549.64 846 1545.5 846 1541.36 846 1538 843.314 1538 840Z" fill="#C00000" fill-rule="evenodd"/><path d="M1493 837.5C1493 834.462 1496.13 832 1500 832 1503.87 832 1507 834.462 1507 837.5 1507 840.538 1503.87 843 1500 843 1496.13 843 1493 840.538 1493 837.5Z" fill="#C00000" fill-rule="evenodd"/><path d="M1520 831C1520 827.686 1523.13 825 1527 825 1530.87 825 1534 827.686 1534 831 1534 834.314 1530.87 837 1527 837 1523.13 837 1520 834.314 1520 831Z" fill="#C00000" fill-rule="evenodd"/><path d="M1482 838.5C1482 835.462 1485.13 833 1489 833 1492.87 833 1496 835.462 1496 838.5 1496 841.538 1492.87 844 1489 844 1485.13 844 1482 841.538 1482 838.5Z" fill="#C00000" fill-rule="evenodd"/><path d="M1510 857C1510 853.686 1513.13 851 1517 851 1520.87 851 1524 853.686 1524 857 1524 860.314 1520.87 863 1517 863 1513.13 863 1510 860.314 1510 857Z" fill="#C00000" fill-rule="evenodd"/><path d="M1551 847.5C1551 844.462 1554.13 842 1558 842 1561.87 842 1565 844.462 1565 847.5 1565 850.538 1561.87 853 1558 853 1554.13 853 1551 850.538 1551 847.5Z" fill="#C00000" fill-rule="evenodd"/><path d="M1535 837.5C1535 834.462 1538.13 832 1542 832 1545.87 832 1549 834.462 1549 837.5 1549 840.538 1545.87 843 1542 843 1538.13 843 1535 840.538 1535 837.5Z" fill="#C00000" fill-rule="evenodd"/><path d="M1513 837C1513 833.686 1516.13 831 1520 831 1523.87 831 1527 833.686 1527 837 1527 840.314 1523.87 843 1520 843 1516.13 843 1513 840.314 1513 837Z" fill="#C00000" fill-rule="evenodd"/><path d="M1530 869C1530 865.686 1533.13 863 1537 863 1540.87 863 1544 865.686 1544 869 1544 872.314 1540.87 875 1537 875 1533.13 875 1530 872.314 1530 869Z" fill="#C00000" fill-rule="evenodd"/><path d="M1482 838.5C1482 835.462 1485.13 833 1489 833 1492.87 833 1496 835.462 1496 838.5 1496 841.538 1492.87 844 1489 844 1485.13 844 1482 841.538 1482 838.5Z" fill="#C00000" fill-rule="evenodd"/><path d="M1494 861C1494 857.686 1497.36 855 1501.5 855 1505.64 855 1509 857.686 1509 861 1509 864.314 1505.64 867 1501.5 867 1497.36 867 1494 864.314 1494 861Z" fill="#C00000" fill-rule="evenodd"/><path d="M1551 847.5C1551 844.462 1554.13 842 1558 842 1561.87 842 1565 844.462 1565 847.5 1565 850.538 1561.87 853 1558 853 1554.13 853 1551 850.538 1551 847.5Z" fill="#C00000" fill-rule="evenodd"/><path d="M1535 837.5C1535 834.462 1538.13 832 1542 832 1545.87 832 1549 834.462 1549 837.5 1549 840.538 1545.87 843 1542 843 1538.13 843 1535 840.538 1535 837.5Z" fill="#C00000" fill-rule="evenodd"/><path d="M1513 837C1513 833.686 1516.13 831 1520 831 1523.87 831 1527 833.686 1527 837 1527 840.314 1523.87 843 1520 843 1516.13 843 1513 840.314 1513 837Z" fill="#C00000" fill-rule="evenodd"/><path d="M1530 869C1530 865.686 1533.13 863 1537 863 1540.87 863 1544 865.686 1544 869 1544 872.314 1540.87 875 1537 875 1533.13 875 1530 872.314 1530 869Z" fill="#C00000" fill-rule="evenodd"/><path d="M1528 875C1528 871.686 1531.13 869 1535 869 1538.87 869 1542 871.686 1542 875 1542 878.314 1538.87 881 1535 881 1531.13 881 1528 878.314 1528 875Z" fill="#C00000" fill-rule="evenodd"/><path d="M1546 893.5C1546 890.462 1549.13 888 1553 888 1556.87 888 1560 890.462 1560 893.5 1560 896.538 1556.87 899 1553 899 1549.13 899 1546 896.538 1546 893.5Z" fill="#C00000" fill-rule="evenodd"/><path d="M1571 748C1571 744.686 1574.13 742 1578 742 1581.87 742 1585 744.686 1585 748 1585 751.314 1581.87 754 1578 754 1574.13 754 1571 751.314 1571 748Z" fill="#4472C4" fill-rule="evenodd"/><path d="M1557 758.5C1557 755.462 1560.13 753 1564 753 1567.87 753 1571 755.462 1571 758.5 1571 761.538 1567.87 764 1564 764 1560.13 764 1557 761.538 1557 758.5Z" fill="#4472C4" fill-rule="evenodd"/><path d="M1527 751C1527 747.686 1530.13 745 1534 745 1537.87 745 1541 747.686 1541 751 1541 754.314 1537.87 757 1534 757 1530.13 757 1527 754.314 1527 751Z" fill="#4472C4" fill-rule="evenodd"/><path d="M1550 731.5C1550 728.462 1553.13 726 1557 726 1560.87 726 1564 728.462 1564 731.5 1564 734.538 1560.87 737 1557 737 1553.13 737 1550 734.538 1550 731.5Z" fill="#4472C4" fill-rule="evenodd"/><path d="M1569 750C1569 746.686 1572.13 744 1576 744 1579.87 744 1583 746.686 1583 750 1583 753.314 1579.87 756 1576 756 1572.13 756 1569 753.314 1569 750Z" fill="#4472C4" fill-rule="evenodd"/><path d="M1605 741.5C1605 738.462 1608.13 736 1612 736 1615.87 736 1619 738.462 1619 741.5 1619 744.538 1615.87 747 1612 747 1608.13 747 1605 744.538 1605 741.5Z" fill="#4472C4" fill-rule="evenodd"/><path d="M1518 766C1518 762.686 1521.13 760 1525 760 1528.87 760 1532 762.686 1532 766 1532 769.314 1528.87 772 1525 772 1521.13 772 1518 769.314 1518 766Z" fill="#4472C4" fill-rule="evenodd"/><path d="M1550 712.5C1550 709.462 1553.13 707 1557 707 1560.87 707 1564 709.462 1564 712.5 1564 715.538 1560.87 718 1557 718 1553.13 718 1550 715.538 1550 712.5Z" fill="#4472C4" fill-rule="evenodd"/><path d="M1545 769C1545 765.686 1548.13 763 1552 763 1555.87 763 1559 765.686 1559 769 1559 772.314 1555.87 775 1552 775 1548.13 775 1545 772.314 1545 769Z" fill="#4472C4" fill-rule="evenodd"/><path d="M1563 787C1563 783.686 1566.13 781 1570 781 1573.87 781 1577 783.686 1577 787 1577 790.314 1573.87 793 1570 793 1566.13 793 1563 790.314 1563 787Z" fill="#4472C4" fill-rule="evenodd"/></g></svg>