<svg 
    width="430" 
    height="250" 
    xmlns="http://www.w3.org/2000/svg" 
    xmlns:xlink="http://www.w3.org/1999/xlink" 
    overflow="hidden"
    viewBox="-5 -20 890 570"
    style="background:dar kred;width:0%">
<defs><clipPath id="clip0"><path d="M138 60 1043 60 1043 566 138 566Z" fill-rule="evenodd" clip-rule="evenodd"/></clipPath></defs><g clip-path="url(#clip0)" transform="translate(-138 -60)"><path d="M391 88.0001 391 562.572 386 562.572 386 88.0001ZM381 90.5 388.5 75.5 396 90.5Z" fill="#BFBFBF"/><path d="M1015.13 438 141.5 438 141.5 433 1015.13 433ZM1012.63 428 1027.63 435.5 1012.63 443Z" fill="#BFBFBF"/><path d="M720 194C720 190.686 723.806 188 728.5 188 733.194 188 737 190.686 737 194 737 197.314 733.194 200 728.5 200 723.806 200 720 197.314 720 194Z" fill="#C00000" fill-rule="evenodd"/><path d="M702 239.5C702 236.462 705.582 234 710 234 714.418 234 718 236.462 718 239.5 718 242.538 714.418 245 710 245 705.582 245 702 242.538 702 239.5Z" fill="#C00000" fill-rule="evenodd"/><path d="M598 351C598 347.686 601.806 345 606.5 345 611.194 345 615 347.686 615 351 615 354.314 611.194 357 606.5 357 601.806 357 598 354.314 598 351Z" fill="#C00000" fill-rule="evenodd"/><path d="M751 230C751 226.686 754.806 224 759.5 224 764.194 224 768 226.686 768 230 768 233.314 764.194 236 759.5 236 754.806 236 751 233.314 751 230Z" fill="#C00000" fill-rule="evenodd"/><path d="M577 370C577 366.686 580.806 364 585.5 364 590.194 364 594 366.686 594 370 594 373.314 590.194 376 585.5 376 580.806 376 577 373.314 577 370Z" fill="#C00000" fill-rule="evenodd"/><path d="M732 220C732 216.686 735.582 214 740 214 744.418 214 748 216.686 748 220 748 223.314 744.418 226 740 226 735.582 226 732 223.314 732 220Z" fill="#C00000" fill-rule="evenodd"/><path d="M555 356.5C555 353.462 558.806 351 563.5 351 568.194 351 572 353.462 572 356.5 572 359.538 568.194 362 563.5 362 558.806 362 555 359.538 555 356.5Z" fill="#C00000" fill-rule="evenodd"/><path d="M705 220C705 216.686 708.806 214 713.5 214 718.194 214 722 216.686 722 220 722 223.314 718.194 226 713.5 226 708.806 226 705 223.314 705 220Z" fill="#C00000" fill-rule="evenodd"/><path d="M303.5 80.5 863.183 522.251" stroke="#00FF00" stroke-width="3" stroke-miterlimit="8" fill="none" fill-rule="evenodd"/><path d="M582 349C582 345.686 585.582 343 590 343 594.418 343 598 345.686 598 349 598 352.314 594.418 355 590 355 585.582 355 582 352.314 582 349Z" fill="#C00000" fill-rule="evenodd"/><path d="M726 251C726 247.686 729.806 245 734.5 245 739.194 245 743 247.686 743 251 743 254.314 739.194 257 734.5 257 729.806 257 726 254.314 726 251Z" fill="#C00000" fill-rule="evenodd"/><path d="M624 385C624 381.686 627.806 379 632.5 379 637.194 379 641 381.686 641 385 641 388.314 637.194 391 632.5 391 627.806 391 624 388.314 624 385Z" fill="#C00000" fill-rule="evenodd"/><path d="M544 208C544 204.686 547.582 202 552 202 556.418 202 560 204.686 560 208 560 211.314 556.418 214 552 214 547.582 214 544 211.314 544 208Z" fill="#4472C4" fill-rule="evenodd"/><path d="M501 225C501 221.686 504.806 219 509.5 219 514.194 219 518 221.686 518 225 518 228.314 514.194 231 509.5 231 504.806 231 501 228.314 501 225Z" fill="#4472C4" fill-rule="evenodd"/><path d="M557 243.5C557 240.462 560.806 238 565.5 238 570.194 238 574 240.462 574 243.5 574 246.538 570.194 249 565.5 249 560.806 249 557 246.538 557 243.5Z" fill="#4472C4" fill-rule="evenodd"/><path d="M528 230.5C528 227.462 531.582 225 536 225 540.418 225 544 227.462 544 230.5 544 233.538 540.418 236 536 236 531.582 236 528 233.538 528 230.5Z" fill="#4472C4" fill-rule="evenodd"/><path d="M565 218C565 214.686 568.806 212 573.5 212 578.194 212 582 214.686 582 218 582 221.314 578.194 224 573.5 224 568.806 224 565 221.314 565 218Z" fill="#4472C4" fill-rule="evenodd"/><path d="M584 259.5C584 256.462 587.806 254 592.5 254 597.194 254 601 256.462 601 259.5 601 262.538 597.194 265 592.5 265 587.806 265 584 262.538 584 259.5Z" fill="#4472C4" fill-rule="evenodd"/><path d="M796 272C796 268.686 799.582 266 804 266 808.418 266 812 268.686 812 272 812 275.314 808.418 278 804 278 799.582 278 796 275.314 796 272Z" fill="#C00000" fill-rule="evenodd"/><path d="M765 205.5C765 202.462 768.806 200 773.5 200 778.194 200 782 202.462 782 205.5 782 208.538 778.194 211 773.5 211 768.806 211 765 208.538 765 205.5Z" fill="#C00000" fill-rule="evenodd"/><path d="M751 230C751 226.686 754.806 224 759.5 224 764.194 224 768 226.686 768 230 768 233.314 764.194 236 759.5 236 754.806 236 751 233.314 751 230Z" fill="#C00000" fill-rule="evenodd"/><path d="M732 220C732 216.686 735.582 214 740 214 744.418 214 748 216.686 748 220 748 223.314 744.418 226 740 226 735.582 226 732 223.314 732 220Z" fill="#C00000" fill-rule="evenodd"/><path d="M705 220C705 216.686 708.806 214 713.5 214 718.194 214 722 216.686 722 220 722 223.314 718.194 226 713.5 226 708.806 226 705 223.314 705 220Z" fill="#C00000" fill-rule="evenodd"/><path d="M726 251C726 247.686 729.806 245 734.5 245 739.194 245 743 247.686 743 251 743 254.314 739.194 257 734.5 257 729.806 257 726 254.314 726 251Z" fill="#C00000" fill-rule="evenodd"/><path d="M723 257.5C723 254.462 726.806 252 731.5 252 736.194 252 740 254.462 740 257.5 740 260.538 736.194 263 731.5 263 726.806 263 723 260.538 723 257.5Z" fill="#C00000" fill-rule="evenodd"/><path d="M744 275.5C744 272.462 747.806 270 752.5 270 757.194 270 761 272.462 761 275.5 761 278.538 757.194 281 752.5 281 747.806 281 744 278.538 744 275.5Z" fill="#C00000" fill-rule="evenodd"/><path d="M620 369C620 365.686 623.806 363 628.5 363 633.194 363 637 365.686 637 369 637 372.314 633.194 375 628.5 375 623.806 375 620 372.314 620 369Z" fill="#C00000" fill-rule="evenodd"/><path d="M599 388C599 384.686 602.582 382 607 382 611.418 382 615 384.686 615 388 615 391.314 611.418 394 607 394 602.582 394 599 391.314 599 388Z" fill="#C00000" fill-rule="evenodd"/><path d="M577 374.5C577 371.462 580.582 369 585 369 589.418 369 593 371.462 593 374.5 593 377.538 589.418 380 585 380 580.582 380 577 377.538 577 374.5Z" fill="#C00000" fill-rule="evenodd"/><path d="M602 346.5C602 343.462 605.806 341 610.5 341 615.194 341 619 343.462 619 346.5 619 349.538 615.194 352 610.5 352 605.806 352 602 349.538 602 346.5Z" fill="#C00000" fill-rule="evenodd"/><path d="M646 403C646 399.686 649.806 397 654.5 397 659.194 397 663 399.686 663 403 663 406.314 659.194 409 654.5 409 649.806 409 646 406.314 646 403Z" fill="#C00000" fill-rule="evenodd"/><path d="M546 215C546 211.686 549.806 209 554.5 209 559.194 209 563 211.686 563 215 563 218.314 559.194 221 554.5 221 549.806 221 546 218.314 546 215Z" fill="#4472C4" fill-rule="evenodd"/><path d="M527 201.5C527 198.462 530.806 196 535.5 196 540.194 196 544 198.462 544 201.5 544 204.538 540.194 207 535.5 207 530.806 207 527 204.538 527 201.5Z" fill="#4472C4" fill-rule="evenodd"/><path d="M455 185C455 181.686 458.806 179 463.5 179 468.194 179 472 181.686 472 185 472 188.314 468.194 191 463.5 191 458.806 191 455 188.314 455 185Z" fill="#4472C4" fill-rule="evenodd"/><path d="M535 225C535 221.686 538.806 219 543.5 219 548.194 219 552 221.686 552 225 552 228.314 548.194 231 543.5 231 538.806 231 535 228.314 535 225Z" fill="#4472C4" fill-rule="evenodd"/><path d="M586 269.5C586 266.462 589.806 264 594.5 264 599.194 264 603 266.462 603 269.5 603 272.538 599.194 275 594.5 275 589.806 275 586 272.538 586 269.5Z" fill="#4472C4" fill-rule="evenodd"/><path d="M506 223C506 219.686 509.582 217 514 217 518.418 217 522 219.686 522 223 522 226.314 518.418 229 514 229 509.582 229 506 226.314 506 223Z" fill="#4472C4" fill-rule="evenodd"/><path d="M504 222C504 218.686 507.806 216 512.5 216 517.194 216 521 218.686 521 222 521 225.314 517.194 228 512.5 228 507.806 228 504 225.314 504 222Z" fill="#4472C4" fill-rule="evenodd"/><path d="M560 269.5C560 266.462 563.806 264 568.5 264 573.194 264 577 266.462 577 269.5 577 272.538 573.194 275 568.5 275 563.806 275 560 272.538 560 269.5Z" fill="#4472C4" fill-rule="evenodd"/><path d="M722 223C722 219.686 725.806 217 730.5 217 735.194 217 739 219.686 739 223 739 226.314 735.194 229 730.5 229 725.806 229 722 226.314 722 223Z" fill="#C00000" fill-rule="evenodd"/><path d="M522 211C522 207.686 525.806 205 530.5 205 535.194 205 539 207.686 539 211 539 214.314 535.194 217 530.5 217 525.806 217 522 214.314 522 211Z" fill="#4472C4" fill-rule="evenodd"/><path d="M530 213.5C530 210.462 533.582 208 538 208 542.418 208 546 210.462 546 213.5 546 216.538 542.418 219 538 219 533.582 219 530 216.538 530 213.5Z" fill="#4472C4" fill-rule="evenodd"/><path d="M494 206C494 202.686 497.806 200 502.5 200 507.194 200 511 202.686 511 206 511 209.314 507.194 212 502.5 212 497.806 212 494 209.314 494 206Z" fill="#4472C4" fill-rule="evenodd"/><path d="M493 219C493 215.686 496.806 213 501.5 213 506.194 213 510 215.686 510 219 510 222.314 506.194 225 501.5 225 496.806 225 493 222.314 493 219Z" fill="#4472C4" fill-rule="evenodd"/><path d="M544 205C544 201.686 547.806 199 552.5 199 557.194 199 561 201.686 561 205 561 208.314 557.194 211 552.5 211 547.806 211 544 208.314 544 205Z" fill="#4472C4" fill-rule="evenodd"/><path d="M581 220.5C581 217.462 584.582 215 589 215 593.418 215 597 217.462 597 220.5 597 223.538 593.418 226 589 226 584.582 226 581 223.538 581 220.5Z" fill="#4472C4" fill-rule="evenodd"/><path d="M526 221C526 217.686 529.806 215 534.5 215 539.194 215 543 217.686 543 221 543 224.314 539.194 227 534.5 227 529.806 227 526 224.314 526 221Z" fill="#4472C4" fill-rule="evenodd"/><path d="M491 190C491 186.686 494.806 184 499.5 184 504.194 184 508 186.686 508 190 508 193.314 504.194 196 499.5 196 494.806 196 491 193.314 491 190Z" fill="#4472C4" fill-rule="evenodd"/><path d="M546 215C546 211.686 549.806 209 554.5 209 559.194 209 563 211.686 563 215 563 218.314 559.194 221 554.5 221 549.806 221 546 218.314 546 215Z" fill="#4472C4" fill-rule="evenodd"/><path d="M529 226C529 222.686 532.806 220 537.5 220 542.194 220 546 222.686 546 226 546 229.314 542.194 232 537.5 232 532.806 232 529 229.314 529 226Z" fill="#4472C4" fill-rule="evenodd"/><path d="M804 375C804 371.686 807.582 369 812 369 816.418 369 820 371.686 820 375 820 378.314 816.418 381 812 381 807.582 381 804 378.314 804 375Z" fill="#4472C4" fill-rule="evenodd"/><path d="M761 391.5C761 388.462 764.806 386 769.5 386 774.194 386 778 388.462 778 391.5 778 394.538 774.194 397 769.5 397 764.806 397 761 394.538 761 391.5Z" fill="#4472C4" fill-rule="evenodd"/><path d="M750 405.5C750 402.462 753.806 400 758.5 400 763.194 400 767 402.462 767 405.5 767 408.538 763.194 411 758.5 411 753.806 411 750 408.538 750 405.5Z" fill="#4472C4" fill-rule="evenodd"/><path d="M787 397C787 393.686 790.806 391 795.5 391 800.194 391 804 393.686 804 397 804 400.314 800.194 403 795.5 403 790.806 403 787 400.314 787 397Z" fill="#4472C4" fill-rule="evenodd"/><path d="M825 384.5C825 381.462 828.806 379 833.5 379 838.194 379 842 381.462 842 384.5 842 387.538 838.194 390 833.5 390 828.806 390 825 387.538 825 384.5Z" fill="#4472C4" fill-rule="evenodd"/><path d="M792 424.5C792 421.462 795.582 419 800 419 804.418 419 808 421.462 808 424.5 808 427.538 804.418 430 800 430 795.582 430 792 427.538 792 424.5Z" fill="#4472C4" fill-rule="evenodd"/><path d="M806 382C806 378.686 809.806 376 814.5 376 819.194 376 823 378.686 823 382 823 385.314 819.194 388 814.5 388 809.806 388 806 385.314 806 382Z" fill="#4472C4" fill-rule="evenodd"/><path d="M787 368C787 364.686 790.806 362 795.5 362 800.194 362 804 364.686 804 368 804 371.314 800.194 374 795.5 374 790.806 374 787 371.314 787 368Z" fill="#4472C4" fill-rule="evenodd"/><path d="M794 355.5C794 352.462 797.806 350 802.5 350 807.194 350 811 352.462 811 355.5 811 358.538 807.194 361 802.5 361 797.806 361 794 358.538 794 355.5Z" fill="#4472C4" fill-rule="evenodd"/><path d="M795 391.5C795 388.462 798.806 386 803.5 386 808.194 386 812 388.462 812 391.5 812 394.538 808.194 397 803.5 397 798.806 397 795 394.538 795 391.5Z" fill="#4472C4" fill-rule="evenodd"/><path d="M709 373C709 369.686 712.806 367 717.5 367 722.194 367 726 369.686 726 373 726 376.314 722.194 379 717.5 379 712.806 379 709 376.314 709 373Z" fill="#4472C4" fill-rule="evenodd"/><path d="M765 390C765 386.686 768.806 384 773.5 384 778.194 384 782 386.686 782 390 782 393.314 778.194 396 773.5 396 768.806 396 765 393.314 765 390Z" fill="#4472C4" fill-rule="evenodd"/><path d="M764 388.5C764 385.462 767.806 383 772.5 383 777.194 383 781 385.462 781 388.5 781 391.538 777.194 394 772.5 394 767.806 394 764 391.538 764 388.5Z" fill="#4472C4" fill-rule="evenodd"/><path d="M729 367.5C729 364.462 732.582 362 737 362 741.418 362 745 364.462 745 367.5 745 370.538 741.418 373 737 373 732.582 373 729 370.538 729 367.5Z" fill="#4472C4" fill-rule="evenodd"/><path d="M782 378C782 374.686 785.582 372 790 372 794.418 372 798 374.686 798 378 798 381.314 794.418 384 790 384 785.582 384 782 381.314 782 378Z" fill="#4472C4" fill-rule="evenodd"/><path d="M714 342.5C714 339.462 717.806 337 722.5 337 727.194 337 731 339.462 731 342.5 731 345.538 727.194 348 722.5 348 717.806 348 714 345.538 714 342.5Z" fill="#4472C4" fill-rule="evenodd"/><path d="M823 403C823 399.686 826.806 397 831.5 397 836.194 397 840 399.686 840 403 840 406.314 836.194 409 831.5 409 826.806 409 823 406.314 823 403Z" fill="#4472C4" fill-rule="evenodd"/><path d="M753 386C753 382.686 756.582 380 761 380 765.418 380 769 382.686 769 386 769 389.314 765.418 392 761 392 756.582 392 753 389.314 753 386Z" fill="#4472C4" fill-rule="evenodd"/><path d="M804 371.5C804 368.462 807.806 366 812.5 366 817.194 366 821 368.462 821 371.5 821 374.538 817.194 377 812.5 377 807.806 377 804 374.538 804 371.5Z" fill="#4472C4" fill-rule="evenodd"/><path d="M749 373.5C749 370.462 752.582 368 757 368 761.418 368 765 370.462 765 373.5 765 376.538 761.418 379 757 379 752.582 379 749 376.538 749 373.5Z" fill="#4472C4" fill-rule="evenodd"/><path d="M786 387.5C786 384.462 789.806 382 794.5 382 799.194 382 803 384.462 803 387.5 803 390.538 799.194 393 794.5 393 789.806 393 786 390.538 786 387.5Z" fill="#4472C4" fill-rule="evenodd"/><path d="M736 356.5C736 353.462 739.806 351 744.5 351 749.194 351 753 353.462 753 356.5 753 359.538 749.194 362 744.5 362 739.806 362 736 359.538 736 356.5Z" fill="#4472C4" fill-rule="evenodd"/><path d="M767 359.5C767 356.462 770.806 354 775.5 354 780.194 354 784 356.462 784 359.5 784 362.538 780.194 365 775.5 365 770.806 365 767 362.538 767 359.5Z" fill="#4472C4" fill-rule="evenodd"/><path d="M789 393C789 389.686 792.582 387 797 387 801.418 387 805 389.686 805 393 805 396.314 801.418 399 797 399 792.582 399 789 396.314 789 393Z" fill="#4472C4" fill-rule="evenodd"/><path d="M641 386.5C641 383.462 644.806 381 649.5 381 654.194 381 658 383.462 658 386.5 658 389.538 654.194 392 649.5 392 644.806 392 641 389.538 641 386.5Z" fill="#C00000" fill-rule="evenodd"/><path d="M530 408C530 404.686 533.806 402 538.5 402 543.194 402 547 404.686 547 408 547 411.314 543.194 414 538.5 414 533.806 414 530 411.314 530 408Z" fill="#C00000" fill-rule="evenodd"/><path d="M624 364.5C624 361.462 627.582 359 632 359 636.418 359 640 361.462 640 364.5 640 367.538 636.418 370 632 370 627.582 370 624 367.538 624 364.5Z" fill="#C00000" fill-rule="evenodd"/><path d="M645 382.5C645 379.462 648.806 377 653.5 377 658.194 377 662 379.462 662 382.5 662 385.538 658.194 388 653.5 388 648.806 388 645 385.538 645 382.5Z" fill="#C00000" fill-rule="evenodd"/><path d="M550 364.5C550 361.462 553.806 359 558.5 359 563.194 359 567 361.462 567 364.5 567 367.538 563.194 370 558.5 370 553.806 370 550 367.538 550 364.5Z" fill="#C00000" fill-rule="evenodd"/><path d="M547 389.5C547 386.462 550.806 384 555.5 384 560.194 384 564 386.462 564 389.5 564 392.538 560.194 395 555.5 395 550.806 395 547 392.538 547 389.5Z" fill="#C00000" fill-rule="evenodd"/><path d="M581 397C581 393.686 584.806 391 589.5 391 594.194 391 598 393.686 598 397 598 400.314 594.194 403 589.5 403 584.806 403 581 400.314 581 397Z" fill="#C00000" fill-rule="evenodd"/><path d="M691 239C691 235.686 694.582 233 699 233 703.418 233 707 235.686 707 239 707 242.314 703.418 245 699 245 694.582 245 691 242.314 691 239Z" fill="#C00000" fill-rule="evenodd"/><path d="M723 257.5C723 254.462 726.806 252 731.5 252 736.194 252 740 254.462 740 257.5 740 260.538 736.194 263 731.5 263 726.806 263 723 260.538 723 257.5Z" fill="#C00000" fill-rule="evenodd"/><path d="M772 248C772 244.686 775.806 242 780.5 242 785.194 242 789 244.686 789 248 789 251.314 785.194 254 780.5 254 775.806 254 772 251.314 772 248Z" fill="#C00000" fill-rule="evenodd"/><path d="M753 238C753 234.686 756.806 232 761.5 232 766.194 232 770 234.686 770 238 770 241.314 766.194 244 761.5 244 756.806 244 753 241.314 753 238Z" fill="#C00000" fill-rule="evenodd"/><path d="M727 237.5C727 234.462 730.582 232 735 232 739.418 232 743 234.462 743 237.5 743 240.538 739.418 243 735 243 730.582 243 727 240.538 727 237.5Z" fill="#C00000" fill-rule="evenodd"/><path d="M747 269C747 265.686 750.806 263 755.5 263 760.194 263 764 265.686 764 269 764 272.314 760.194 275 755.5 275 750.806 275 747 272.314 747 269Z" fill="#C00000" fill-rule="evenodd"/><path d="M764 225C764 221.686 767.806 219 772.5 219 777.194 219 781 221.686 781 225 781 228.314 777.194 231 772.5 231 767.806 231 764 228.314 764 225Z" fill="#C00000" fill-rule="evenodd"/><path d="M705 261C705 257.686 708.806 255 713.5 255 718.194 255 722 257.686 722 261 722 264.314 718.194 267 713.5 267 708.806 267 705 264.314 705 261Z" fill="#C00000" fill-rule="evenodd"/><path d="M772 248C772 244.686 775.806 242 780.5 242 785.194 242 789 244.686 789 248 789 251.314 785.194 254 780.5 254 775.806 254 772 251.314 772 248Z" fill="#C00000" fill-rule="evenodd"/><path d="M753 238C753 234.686 756.806 232 761.5 232 766.194 232 770 234.686 770 238 770 241.314 766.194 244 761.5 244 756.806 244 753 241.314 753 238Z" fill="#C00000" fill-rule="evenodd"/><path d="M727 237.5C727 234.462 730.582 232 735 232 739.418 232 743 234.462 743 237.5 743 240.538 739.418 243 735 243 730.582 243 727 240.538 727 237.5Z" fill="#C00000" fill-rule="evenodd"/><path d="M747 269C747 265.686 750.806 263 755.5 263 760.194 263 764 265.686 764 269 764 272.314 760.194 275 755.5 275 750.806 275 747 272.314 747 269Z" fill="#C00000" fill-rule="evenodd"/><path d="M744 275.5C744 272.462 747.806 270 752.5 270 757.194 270 761 272.462 761 275.5 761 278.538 757.194 281 752.5 281 747.806 281 744 278.538 744 275.5Z" fill="#C00000" fill-rule="evenodd"/><path d="M766 293.5C766 290.462 769.806 288 774.5 288 779.194 288 783 290.462 783 293.5 783 296.538 779.194 299 774.5 299 769.806 299 766 296.538 766 293.5Z" fill="#C00000" fill-rule="evenodd"/><path d="M819 244C819 240.686 822.806 238 827.5 238 832.194 238 836 240.686 836 244 836 247.314 832.194 250 827.5 250 822.806 250 819 247.314 819 244Z" fill="#C00000" fill-rule="evenodd"/><path d="M620 369C620 365.686 623.806 363 628.5 363 633.194 363 637 365.686 637 369 637 372.314 633.194 375 628.5 375 623.806 375 620 372.314 620 369Z" fill="#C00000" fill-rule="evenodd"/><path d="M599 388C599 384.686 602.582 382 607 382 611.418 382 615 384.686 615 388 615 391.314 611.418 394 607 394 602.582 394 599 391.314 599 388Z" fill="#C00000" fill-rule="evenodd"/><path d="M577 374.5C577 371.462 580.582 369 585 369 589.418 369 593 371.462 593 374.5 593 377.538 589.418 380 585 380 580.582 380 577 377.538 577 374.5Z" fill="#C00000" fill-rule="evenodd"/><path d="M526 357C526 353.686 529.582 351 534 351 538.418 351 542 353.686 542 357 542 360.314 538.418 363 534 363 529.582 363 526 360.314 526 357Z" fill="#C00000" fill-rule="evenodd"/><path d="M620 406C620 402.686 623.806 400 628.5 400 633.194 400 637 402.686 637 406 637 409.314 633.194 412 628.5 412 623.806 412 620 409.314 620 406Z" fill="#C00000" fill-rule="evenodd"/><path d="M598 392.5C598 389.462 601.806 387 606.5 387 611.194 387 615 389.462 615 392.5 615 395.538 611.194 398 606.5 398 601.806 398 598 395.538 598 392.5Z" fill="#C00000" fill-rule="evenodd"/><path d="M553 332C553 328.686 556.582 326 561 326 565.418 326 569 328.686 569 332 569 335.314 565.418 338 561 338 556.582 338 553 335.314 553 332Z" fill="#C00000" fill-rule="evenodd"/><path d="M552 426C552 422.686 555.582 420 560 420 564.418 420 568 422.686 568 426 568 429.314 564.418 432 560 432 555.582 432 552 429.314 552 426Z" fill="#C00000" fill-rule="evenodd"/><path d="M571 382.5C571 379.462 574.806 377 579.5 377 584.194 377 588 379.462 588 382.5 588 385.538 584.194 388 579.5 388 574.806 388 571 385.538 571 382.5Z" fill="#C00000" fill-rule="evenodd"/><path d="M568 407.5C568 404.462 571.806 402 576.5 402 581.194 402 585 404.462 585 407.5 585 410.538 581.194 413 576.5 413 571.806 413 568 410.538 568 407.5Z" fill="#C00000" fill-rule="evenodd"/><path d="M602 415C602 411.686 605.806 409 610.5 409 615.194 409 619 411.686 619 415 619 418.314 615.194 421 610.5 421 605.806 421 602 418.314 602 415Z" fill="#C00000" fill-rule="evenodd"/><path d="M395.5 93.5 1025.21 455.924" stroke="#FFD966" stroke-width="3" stroke-miterlimit="8" fill="none" fill-rule="evenodd"/></g></svg>