<svg xmlns="http://www.w3.org/2000/svg" xmlns:xlink="http://www.w3.org/1999/xlink" width="430" height="250" overflow="hidden" viewBox="-5 -20 890 570" style="background:dar kred;width:0%"><defs><clipPath id="clip0"><path fill-rule="evenodd" d="M892 547 1797 547 1797 1053 892 1053Z" clip-rule="evenodd"/></clipPath></defs><g clip-path="url(#clip0)" transform="translate(-892 -547)"><path d="M1146 576 1146 1050.57 1141 1050.57 1141 576ZM1136 578.5 1143.5 563.5 1151 578.5Z"/><path d="M1770.13 925 896.5 925 896.5 920 1770.13 920ZM1767.63 915 1782.63 922.5 1767.63 930Z"/><path fill="#C00000" fill-rule="evenodd" d="M1475 681C1475 677.686 1478.81 675 1483.5 675 1488.19 675 1492 677.686 1492 681 1492 684.314 1488.19 687 1483.5 687 1478.81 687 1475 684.314 1475 681Z"/><path fill="#C00000" fill-rule="evenodd" d="M1456 727C1456 723.686 1459.81 721 1464.5 721 1469.19 721 1473 723.686 1473 727 1473 730.314 1469.19 733 1464.5 733 1459.81 733 1456 730.314 1456 727Z"/><path fill="#C00000" fill-rule="evenodd" d="M1353 838C1353 834.686 1356.81 832 1361.5 832 1366.19 832 1370 834.686 1370 838 1370 841.314 1366.19 844 1361.5 844 1356.81 844 1353 841.314 1353 838Z"/><path fill="#C00000" fill-rule="evenodd" d="M1505 717C1505 713.686 1508.81 711 1513.5 711 1518.19 711 1522 713.686 1522 717 1522 720.314 1518.19 723 1513.5 723 1508.81 723 1505 720.314 1505 717Z"/><path fill="#C00000" fill-rule="evenodd" d="M1332 857C1332 853.686 1335.58 851 1340 851 1344.42 851 1348 853.686 1348 857 1348 860.314 1344.42 863 1340 863 1335.58 863 1332 860.314 1332 857Z"/><path fill="#C00000" fill-rule="evenodd" d="M1486 707C1486 703.686 1489.81 701 1494.5 701 1499.19 701 1503 703.686 1503 707 1503 710.314 1499.19 713 1494.5 713 1489.81 713 1486 710.314 1486 707Z"/><path fill="#C00000" fill-rule="evenodd" d="M1310 843.5C1310 840.462 1313.58 838 1318 838 1322.42 838 1326 840.462 1326 843.5 1326 846.538 1322.42 849 1318 849 1313.58 849 1310 846.538 1310 843.5Z"/><path fill="#C00000" fill-rule="evenodd" d="M1460 707C1460 703.686 1463.81 701 1468.5 701 1473.19 701 1477 703.686 1477 707 1477 710.314 1473.19 713 1468.5 713 1463.81 713 1460 710.314 1460 707Z"/><path fill="none" fill-rule="evenodd" stroke="#00B050" stroke-miterlimit="8" stroke-width="3" d="M1058.5 567.5 1618.18 1009.25"/><path fill="#C00000" fill-rule="evenodd" d="M1336 836.5C1336 833.462 1339.81 831 1344.5 831 1349.19 831 1353 833.462 1353 836.5 1353 839.538 1349.19 842 1344.5 842 1339.81 842 1336 839.538 1336 836.5Z"/><path fill="#C00000" fill-rule="evenodd" d="M1480 738.5C1480 735.462 1483.81 733 1488.5 733 1493.19 733 1497 735.462 1497 738.5 1497 741.538 1493.19 744 1488.5 744 1483.81 744 1480 741.538 1480 738.5Z"/><path fill="#C00000" fill-rule="evenodd" d="M1379 872C1379 868.686 1382.81 866 1387.5 866 1392.19 866 1396 868.686 1396 872 1396 875.314 1392.19 878 1387.5 878 1382.81 878 1379 875.314 1379 872Z"/><path fill="#4472C4" fill-rule="evenodd" d="M1298 695C1298 691.686 1301.81 689 1306.5 689 1311.19 689 1315 691.686 1315 695 1315 698.314 1311.19 701 1306.5 701 1301.81 701 1298 698.314 1298 695Z"/><path fill="#4472C4" fill-rule="evenodd" d="M1256 712C1256 708.686 1259.81 706 1264.5 706 1269.19 706 1273 708.686 1273 712 1273 715.314 1269.19 718 1264.5 718 1259.81 718 1256 715.314 1256 712Z"/><path fill="#4472C4" fill-rule="evenodd" d="M1312 730.5C1312 727.462 1315.81 725 1320.5 725 1325.19 725 1329 727.462 1329 730.5 1329 733.538 1325.19 736 1320.5 736 1315.81 736 1312 733.538 1312 730.5Z"/><path fill="#4472C4" fill-rule="evenodd" d="M1282 717.5C1282 714.462 1285.81 712 1290.5 712 1295.19 712 1299 714.462 1299 717.5 1299 720.538 1295.19 723 1290.5 723 1285.81 723 1282 720.538 1282 717.5Z"/><path fill="#4472C4" fill-rule="evenodd" d="M1320 705C1320 701.686 1323.81 699 1328.5 699 1333.19 699 1337 701.686 1337 705 1337 708.314 1333.19 711 1328.5 711 1323.81 711 1320 708.314 1320 705Z"/><path fill="#4472C4" fill-rule="evenodd" d="M1339 746.5C1339 743.462 1342.81 741 1347.5 741 1352.19 741 1356 743.462 1356 746.5 1356 749.538 1352.19 752 1347.5 752 1342.81 752 1339 749.538 1339 746.5Z"/><path fill="#C00000" fill-rule="evenodd" d="M1550 759C1550 755.686 1553.81 753 1558.5 753 1563.19 753 1567 755.686 1567 759 1567 762.314 1563.19 765 1558.5 765 1553.81 765 1550 762.314 1550 759Z"/><path fill="#C00000" fill-rule="evenodd" d="M1520 692.5C1520 689.462 1523.81 687 1528.5 687 1533.19 687 1537 689.462 1537 692.5 1537 695.538 1533.19 698 1528.5 698 1523.81 698 1520 695.538 1520 692.5Z"/><path fill="#C00000" fill-rule="evenodd" d="M1505 717C1505 713.686 1508.81 711 1513.5 711 1518.19 711 1522 713.686 1522 717 1522 720.314 1518.19 723 1513.5 723 1508.81 723 1505 720.314 1505 717Z"/><path fill="#C00000" fill-rule="evenodd" d="M1486 707C1486 703.686 1489.81 701 1494.5 701 1499.19 701 1503 703.686 1503 707 1503 710.314 1499.19 713 1494.5 713 1489.81 713 1486 710.314 1486 707Z"/><path fill="#C00000" fill-rule="evenodd" d="M1460 707C1460 703.686 1463.81 701 1468.5 701 1473.19 701 1477 703.686 1477 707 1477 710.314 1473.19 713 1468.5 713 1463.81 713 1460 710.314 1460 707Z"/><path fill="#C00000" fill-rule="evenodd" d="M1480 738.5C1480 735.462 1483.81 733 1488.5 733 1493.19 733 1497 735.462 1497 738.5 1497 741.538 1493.19 744 1488.5 744 1483.81 744 1480 741.538 1480 738.5Z"/><path fill="#C00000" fill-rule="evenodd" d="M1478 744.5C1478 741.462 1481.58 739 1486 739 1490.42 739 1494 741.462 1494 744.5 1494 747.538 1490.42 750 1486 750 1481.58 750 1478 747.538 1478 744.5Z"/><path fill="#C00000" fill-rule="evenodd" d="M1499 762.5C1499 759.462 1502.81 757 1507.5 757 1512.19 757 1516 759.462 1516 762.5 1516 765.538 1512.19 768 1507.5 768 1502.81 768 1499 765.538 1499 762.5Z"/><path fill="#C00000" fill-rule="evenodd" d="M1374 856C1374 852.686 1377.81 850 1382.5 850 1387.19 850 1391 852.686 1391 856 1391 859.314 1387.19 862 1382.5 862 1377.81 862 1374 859.314 1374 856Z"/><path fill="#C00000" fill-rule="evenodd" d="M1353 875C1353 871.686 1356.81 869 1361.5 869 1366.19 869 1370 871.686 1370 875 1370 878.314 1366.19 881 1361.5 881 1356.81 881 1353 878.314 1353 875Z"/><path fill="#C00000" fill-rule="evenodd" d="M1331 861.5C1331 858.462 1334.81 856 1339.5 856 1344.19 856 1348 858.462 1348 861.5 1348 864.538 1344.19 867 1339.5 867 1334.81 867 1331 864.538 1331 861.5Z"/><path fill="#C00000" fill-rule="evenodd" d="M1357 833.5C1357 830.462 1360.81 828 1365.5 828 1370.19 828 1374 830.462 1374 833.5 1374 836.538 1370.19 839 1365.5 839 1360.81 839 1357 836.538 1357 833.5Z"/><path fill="#C00000" fill-rule="evenodd" d="M1400 890C1400 886.686 1403.81 884 1408.5 884 1413.19 884 1417 886.686 1417 890 1417 893.314 1413.19 896 1408.5 896 1403.81 896 1400 893.314 1400 890Z"/><path fill="#4472C4" fill-rule="evenodd" d="M1301 702C1301 698.686 1304.81 696 1309.5 696 1314.19 696 1318 698.686 1318 702 1318 705.314 1314.19 708 1309.5 708 1304.81 708 1301 705.314 1301 702Z"/><path fill="#4472C4" fill-rule="evenodd" d="M1282 688.5C1282 685.462 1285.58 683 1290 683 1294.42 683 1298 685.462 1298 688.5 1298 691.538 1294.42 694 1290 694 1285.58 694 1282 691.538 1282 688.5Z"/><path fill="#4472C4" fill-rule="evenodd" d="M1210 672C1210 668.686 1213.81 666 1218.5 666 1223.19 666 1227 668.686 1227 672 1227 675.314 1223.19 678 1218.5 678 1213.81 678 1210 675.314 1210 672Z"/><path fill="#4472C4" fill-rule="evenodd" d="M1290 712C1290 708.686 1293.58 706 1298 706 1302.42 706 1306 708.686 1306 712 1306 715.314 1302.42 718 1298 718 1293.58 718 1290 715.314 1290 712Z"/><path fill="#4472C4" fill-rule="evenodd" d="M1340 756.5C1340 753.462 1343.81 751 1348.5 751 1353.19 751 1357 753.462 1357 756.5 1357 759.538 1353.19 762 1348.5 762 1343.81 762 1340 759.538 1340 756.5Z"/><path fill="#4472C4" fill-rule="evenodd" d="M1260 710.5C1260 707.462 1263.81 705 1268.5 705 1273.19 705 1277 707.462 1277 710.5 1277 713.538 1273.19 716 1268.5 716 1263.81 716 1260 713.538 1260 710.5Z"/><path fill="#4472C4" fill-rule="evenodd" d="M1259 709C1259 705.686 1262.81 703 1267.5 703 1272.19 703 1276 705.686 1276 709 1276 712.314 1272.19 715 1267.5 715 1262.81 715 1259 712.314 1259 709Z"/><path fill="#4472C4" fill-rule="evenodd" d="M1315 756.5C1315 753.462 1318.81 751 1323.5 751 1328.19 751 1332 753.462 1332 756.5 1332 759.538 1328.19 762 1323.5 762 1318.81 762 1315 759.538 1315 756.5Z"/><path fill="#C00000" fill-rule="evenodd" d="M1477 710C1477 706.686 1480.81 704 1485.5 704 1490.19 704 1494 706.686 1494 710 1494 713.314 1490.19 716 1485.5 716 1480.81 716 1477 713.314 1477 710Z"/><path fill="#4472C4" fill-rule="evenodd" d="M1276 698C1276 694.686 1279.81 692 1284.5 692 1289.19 692 1293 694.686 1293 698 1293 701.314 1289.19 704 1284.5 704 1279.81 704 1276 701.314 1276 698Z"/><path fill="#4472C4" fill-rule="evenodd" d="M1284 700.5C1284 697.462 1287.81 695 1292.5 695 1297.19 695 1301 697.462 1301 700.5 1301 703.538 1297.19 706 1292.5 706 1287.81 706 1284 703.538 1284 700.5Z"/><path fill="#4472C4" fill-rule="evenodd" d="M1249 693C1249 689.686 1252.58 687 1257 687 1261.42 687 1265 689.686 1265 693 1265 696.314 1261.42 699 1257 699 1252.58 699 1249 696.314 1249 693Z"/><path fill="#4472C4" fill-rule="evenodd" d="M1247 706C1247 702.686 1250.81 700 1255.5 700 1260.19 700 1264 702.686 1264 706 1264 709.314 1260.19 712 1255.5 712 1250.81 712 1247 709.314 1247 706Z"/><path fill="#4472C4" fill-rule="evenodd" d="M1299 692C1299 688.686 1302.81 686 1307.5 686 1312.19 686 1316 688.686 1316 692 1316 695.314 1312.19 698 1307.5 698 1302.81 698 1299 695.314 1299 692Z"/><path fill="#4472C4" fill-rule="evenodd" d="M1335 707.5C1335 704.462 1338.81 702 1343.5 702 1348.19 702 1352 704.462 1352 707.5 1352 710.538 1348.19 713 1343.5 713 1338.81 713 1335 710.538 1335 707.5Z"/><path fill="#4472C4" fill-rule="evenodd" d="M1281 708C1281 704.686 1284.58 702 1289 702 1293.42 702 1297 704.686 1297 708 1297 711.314 1293.42 714 1289 714 1284.58 714 1281 711.314 1281 708Z"/><path fill="#4472C4" fill-rule="evenodd" d="M1245 677C1245 673.686 1248.81 671 1253.5 671 1258.19 671 1262 673.686 1262 677 1262 680.314 1258.19 683 1253.5 683 1248.81 683 1245 680.314 1245 677Z"/><path fill="#4472C4" fill-rule="evenodd" d="M1300 702C1300 698.686 1303.81 696 1308.5 696 1313.19 696 1317 698.686 1317 702 1317 705.314 1313.19 708 1308.5 708 1303.81 708 1300 705.314 1300 702Z"/><path fill="#4472C4" fill-rule="evenodd" d="M1283 713.5C1283 710.462 1286.81 708 1291.5 708 1296.19 708 1300 710.462 1300 713.5 1300 716.538 1296.19 719 1291.5 719 1286.81 719 1283 716.538 1283 713.5Z"/><path fill="#4472C4" fill-rule="evenodd" d="M1558 862C1558 858.686 1561.81 856 1566.5 856 1571.19 856 1575 858.686 1575 862 1575 865.314 1571.19 868 1566.5 868 1561.81 868 1558 865.314 1558 862Z"/><path fill="#4472C4" fill-rule="evenodd" d="M1516 878.5C1516 875.462 1519.81 873 1524.5 873 1529.19 873 1533 875.462 1533 878.5 1533 881.538 1529.19 884 1524.5 884 1519.81 884 1516 881.538 1516 878.5Z"/><path fill="#4472C4" fill-rule="evenodd" d="M1505 892.5C1505 889.462 1508.58 887 1513 887 1517.42 887 1521 889.462 1521 892.5 1521 895.538 1517.42 898 1513 898 1508.58 898 1505 895.538 1505 892.5Z"/><path fill="#4472C4" fill-rule="evenodd" d="M1542 884C1542 880.686 1545.81 878 1550.5 878 1555.19 878 1559 880.686 1559 884 1559 887.314 1555.19 890 1550.5 890 1545.81 890 1542 887.314 1542 884Z"/><path fill="#4472C4" fill-rule="evenodd" d="M1580 872C1580 868.686 1583.81 866 1588.5 866 1593.19 866 1597 868.686 1597 872 1597 875.314 1593.19 878 1588.5 878 1583.81 878 1580 875.314 1580 872Z"/><path fill="#4472C4" fill-rule="evenodd" d="M1546 911.5C1546 908.462 1549.81 906 1554.5 906 1559.19 906 1563 908.462 1563 911.5 1563 914.538 1559.19 917 1554.5 917 1549.81 917 1546 914.538 1546 911.5Z"/><path fill="#4472C4" fill-rule="evenodd" d="M1561 869C1561 865.686 1564.81 863 1569.5 863 1574.19 863 1578 865.686 1578 869 1578 872.314 1574.19 875 1569.5 875 1564.81 875 1561 872.314 1561 869Z"/><path fill="#4472C4" fill-rule="evenodd" d="M1541 855C1541 851.686 1544.81 849 1549.5 849 1554.19 849 1558 851.686 1558 855 1558 858.314 1554.19 861 1549.5 861 1544.81 861 1541 858.314 1541 855Z"/><path fill="#4472C4" fill-rule="evenodd" d="M1549 842.5C1549 839.462 1552.81 837 1557.5 837 1562.19 837 1566 839.462 1566 842.5 1566 845.538 1562.19 848 1557.5 848 1552.81 848 1549 845.538 1549 842.5Z"/><path fill="#4472C4" fill-rule="evenodd" d="M1549 878.5C1549 875.462 1552.81 873 1557.5 873 1562.19 873 1566 875.462 1566 878.5 1566 881.538 1562.19 884 1557.5 884 1552.81 884 1549 881.538 1549 878.5Z"/><path fill="#4472C4" fill-rule="evenodd" d="M1464 860C1464 856.686 1467.58 854 1472 854 1476.42 854 1480 856.686 1480 860 1480 863.314 1476.42 866 1472 866 1467.58 866 1464 863.314 1464 860Z"/><path fill="#4472C4" fill-rule="evenodd" d="M1520 877C1520 873.686 1523.81 871 1528.5 871 1533.19 871 1537 873.686 1537 877 1537 880.314 1533.19 883 1528.5 883 1523.81 883 1520 880.314 1520 877Z"/><path fill="#4472C4" fill-rule="evenodd" d="M1519 876C1519 872.686 1522.81 870 1527.5 870 1532.19 870 1536 872.686 1536 876 1536 879.314 1532.19 882 1527.5 882 1522.81 882 1519 879.314 1519 876Z"/><path fill="#4472C4" fill-rule="evenodd" d="M1483 855C1483 851.686 1486.81 849 1491.5 849 1496.19 849 1500 851.686 1500 855 1500 858.314 1496.19 861 1491.5 861 1486.81 861 1483 858.314 1483 855Z"/><path fill="#4472C4" fill-rule="evenodd" d="M1536 865C1536 861.686 1539.81 859 1544.5 859 1549.19 859 1553 861.686 1553 865 1553 868.314 1549.19 871 1544.5 871 1539.81 871 1536 868.314 1536 865Z"/><path fill="#4472C4" fill-rule="evenodd" d="M1469 829.5C1469 826.462 1472.58 824 1477 824 1481.42 824 1485 826.462 1485 829.5 1485 832.538 1481.42 835 1477 835 1472.58 835 1469 832.538 1469 829.5Z"/><path fill="#4472C4" fill-rule="evenodd" d="M1578 890C1578 886.686 1581.81 884 1586.5 884 1591.19 884 1595 886.686 1595 890 1595 893.314 1591.19 896 1586.5 896 1581.81 896 1578 893.314 1578 890Z"/><path fill="#4472C4" fill-rule="evenodd" d="M1507 873C1507 869.686 1510.81 867 1515.5 867 1520.19 867 1524 869.686 1524 873 1524 876.314 1520.19 879 1515.5 879 1510.81 879 1507 876.314 1507 873Z"/><path fill="#4472C4" fill-rule="evenodd" d="M1559 858.5C1559 855.462 1562.58 853 1567 853 1571.42 853 1575 855.462 1575 858.5 1575 861.538 1571.42 864 1567 864 1562.58 864 1559 861.538 1559 858.5Z"/><path fill="#4472C4" fill-rule="evenodd" d="M1503 860.5C1503 857.462 1506.81 855 1511.5 855 1516.19 855 1520 857.462 1520 860.5 1520 863.538 1516.19 866 1511.5 866 1506.81 866 1503 863.538 1503 860.5Z"/><path fill="#4472C4" fill-rule="evenodd" d="M1541 875C1541 871.686 1544.58 869 1549 869 1553.42 869 1557 871.686 1557 875 1557 878.314 1553.42 881 1549 881 1544.58 881 1541 878.314 1541 875Z"/><path fill="#4472C4" fill-rule="evenodd" d="M1491 843.5C1491 840.462 1494.81 838 1499.5 838 1504.19 838 1508 840.462 1508 843.5 1508 846.538 1504.19 849 1499.5 849 1494.81 849 1491 846.538 1491 843.5Z"/><path fill="#4472C4" fill-rule="evenodd" d="M1521 846.5C1521 843.462 1524.81 841 1529.5 841 1534.19 841 1538 843.462 1538 846.5 1538 849.538 1534.19 852 1529.5 852 1524.81 852 1521 849.538 1521 846.5Z"/><path fill="#4472C4" fill-rule="evenodd" d="M1543 880C1543 876.686 1546.81 874 1551.5 874 1556.19 874 1560 876.686 1560 880 1560 883.314 1556.19 886 1551.5 886 1546.81 886 1543 883.314 1543 880Z"/><path fill="#C00000" fill-rule="evenodd" d="M1396 874C1396 870.686 1399.58 868 1404 868 1408.42 868 1412 870.686 1412 874 1412 877.314 1408.42 880 1404 880 1399.58 880 1396 877.314 1396 874Z"/><path fill="#C00000" fill-rule="evenodd" d="M1285 895C1285 891.686 1288.58 889 1293 889 1297.42 889 1301 891.686 1301 895 1301 898.314 1297.42 901 1293 901 1288.58 901 1285 898.314 1285 895Z"/><path fill="#C00000" fill-rule="evenodd" d="M1378 851.5C1378 848.462 1381.81 846 1386.5 846 1391.19 846 1395 848.462 1395 851.5 1395 854.538 1391.19 857 1386.5 857 1381.81 857 1378 854.538 1378 851.5Z"/><path fill="#C00000" fill-rule="evenodd" d="M1400 869.5C1400 866.462 1403.58 864 1408 864 1412.42 864 1416 866.462 1416 869.5 1416 872.538 1412.42 875 1408 875 1403.58 875 1400 872.538 1400 869.5Z"/><path fill="#C00000" fill-rule="evenodd" d="M1305 851.5C1305 848.462 1308.58 846 1313 846 1317.42 846 1321 848.462 1321 851.5 1321 854.538 1317.42 857 1313 857 1308.58 857 1305 854.538 1305 851.5Z"/><path fill="#C00000" fill-rule="evenodd" d="M1302 876.5C1302 873.462 1305.58 871 1310 871 1314.42 871 1318 873.462 1318 876.5 1318 879.538 1314.42 882 1310 882 1305.58 882 1302 879.538 1302 876.5Z"/><path fill="#C00000" fill-rule="evenodd" d="M1336 884C1336 880.686 1339.58 878 1344 878 1348.42 878 1352 880.686 1352 884 1352 887.314 1348.42 890 1344 890 1339.58 890 1336 887.314 1336 884Z"/><path fill="#C00000" fill-rule="evenodd" d="M1445 726C1445 722.686 1448.81 720 1453.5 720 1458.19 720 1462 722.686 1462 726 1462 729.314 1458.19 732 1453.5 732 1448.81 732 1445 729.314 1445 726Z"/><path fill="#C00000" fill-rule="evenodd" d="M1478 744.5C1478 741.462 1481.58 739 1486 739 1490.42 739 1494 741.462 1494 744.5 1494 747.538 1490.42 750 1486 750 1481.58 750 1478 747.538 1478 744.5Z"/><path fill="#C00000" fill-rule="evenodd" d="M1527 735C1527 731.686 1530.81 729 1535.5 729 1540.19 729 1544 731.686 1544 735 1544 738.314 1540.19 741 1535.5 741 1530.81 741 1527 738.314 1527 735Z"/><path fill="#C00000" fill-rule="evenodd" d="M1508 725C1508 721.686 1511.58 719 1516 719 1520.42 719 1524 721.686 1524 725 1524 728.314 1520.42 731 1516 731 1511.58 731 1508 728.314 1508 725Z"/><path fill="#C00000" fill-rule="evenodd" d="M1481 725C1481 721.686 1484.81 719 1489.5 719 1494.19 719 1498 721.686 1498 725 1498 728.314 1494.19 731 1489.5 731 1484.81 731 1481 728.314 1481 725Z"/><path fill="#C00000" fill-rule="evenodd" d="M1502 756C1502 752.686 1505.81 750 1510.5 750 1515.19 750 1519 752.686 1519 756 1519 759.314 1515.19 762 1510.5 762 1505.81 762 1502 759.314 1502 756Z"/><path fill="#C00000" fill-rule="evenodd" d="M1519 712.5C1519 709.462 1522.58 707 1527 707 1531.42 707 1535 709.462 1535 712.5 1535 715.538 1531.42 718 1527 718 1522.58 718 1519 715.538 1519 712.5Z"/><path fill="#C00000" fill-rule="evenodd" d="M1460 748.5C1460 745.462 1463.58 743 1468 743 1472.42 743 1476 745.462 1476 748.5 1476 751.538 1472.42 754 1468 754 1463.58 754 1460 751.538 1460 748.5Z"/><path fill="#C00000" fill-rule="evenodd" d="M1527 735C1527 731.686 1530.81 729 1535.5 729 1540.19 729 1544 731.686 1544 735 1544 738.314 1540.19 741 1535.5 741 1530.81 741 1527 738.314 1527 735Z"/><path fill="#C00000" fill-rule="evenodd" d="M1508 725C1508 721.686 1511.58 719 1516 719 1520.42 719 1524 721.686 1524 725 1524 728.314 1520.42 731 1516 731 1511.58 731 1508 728.314 1508 725Z"/><path fill="#C00000" fill-rule="evenodd" d="M1481 725C1481 721.686 1484.81 719 1489.5 719 1494.19 719 1498 721.686 1498 725 1498 728.314 1494.19 731 1489.5 731 1484.81 731 1481 728.314 1481 725Z"/><path fill="#C00000" fill-rule="evenodd" d="M1502 756C1502 752.686 1505.81 750 1510.5 750 1515.19 750 1519 752.686 1519 756 1519 759.314 1515.19 762 1510.5 762 1505.81 762 1502 759.314 1502 756Z"/><path fill="#C00000" fill-rule="evenodd" d="M1499 762.5C1499 759.462 1502.81 757 1507.5 757 1512.19 757 1516 759.462 1516 762.5 1516 765.538 1512.19 768 1507.5 768 1502.81 768 1499 765.538 1499 762.5Z"/><path fill="#C00000" fill-rule="evenodd" d="M1520 780.5C1520 777.462 1523.81 775 1528.5 775 1533.19 775 1537 777.462 1537 780.5 1537 783.538 1533.19 786 1528.5 786 1523.81 786 1520 783.538 1520 780.5Z"/><path fill="#C00000" fill-rule="evenodd" d="M1574 731.5C1574 728.462 1577.81 726 1582.5 726 1587.19 726 1591 728.462 1591 731.5 1591 734.538 1587.19 737 1582.5 737 1577.81 737 1574 734.538 1574 731.5Z"/><path fill="#C00000" fill-rule="evenodd" d="M1374 856C1374 852.686 1377.81 850 1382.5 850 1387.19 850 1391 852.686 1391 856 1391 859.314 1387.19 862 1382.5 862 1377.81 862 1374 859.314 1374 856Z"/><path fill="#C00000" fill-rule="evenodd" d="M1353 875C1353 871.686 1356.81 869 1361.5 869 1366.19 869 1370 871.686 1370 875 1370 878.314 1366.19 881 1361.5 881 1356.81 881 1353 878.314 1353 875Z"/><path fill="#C00000" fill-rule="evenodd" d="M1331 861.5C1331 858.462 1334.81 856 1339.5 856 1344.19 856 1348 858.462 1348 861.5 1348 864.538 1344.19 867 1339.5 867 1334.81 867 1331 864.538 1331 861.5Z"/><path fill="#C00000" fill-rule="evenodd" d="M1280 844C1280 840.686 1283.81 838 1288.5 838 1293.19 838 1297 840.686 1297 844 1297 847.314 1293.19 850 1288.5 850 1283.81 850 1280 847.314 1280 844Z"/><path fill="#C00000" fill-rule="evenodd" d="M1375 893C1375 889.686 1378.58 887 1383 887 1387.42 887 1391 889.686 1391 893 1391 896.314 1387.42 899 1383 899 1378.58 899 1375 896.314 1375 893Z"/><path fill="#C00000" fill-rule="evenodd" d="M1352 879.5C1352 876.462 1355.81 874 1360.5 874 1365.19 874 1369 876.462 1369 879.5 1369 882.538 1365.19 885 1360.5 885 1355.81 885 1352 882.538 1352 879.5Z"/><path fill="#C00000" fill-rule="evenodd" d="M1307 819C1307 815.686 1310.81 813 1315.5 813 1320.19 813 1324 815.686 1324 819 1324 822.314 1320.19 825 1315.5 825 1310.81 825 1307 822.314 1307 819Z"/><path fill="#C00000" fill-rule="evenodd" d="M1306 913C1306 909.686 1309.81 907 1314.5 907 1319.19 907 1323 909.686 1323 913 1323 916.314 1319.19 919 1314.5 919 1309.81 919 1306 916.314 1306 913Z"/><path fill="#C00000" fill-rule="evenodd" d="M1326 869.5C1326 866.462 1329.81 864 1334.5 864 1339.19 864 1343 866.462 1343 869.5 1343 872.538 1339.19 875 1334.5 875 1329.81 875 1326 872.538 1326 869.5Z"/><path fill="#C00000" fill-rule="evenodd" d="M1323 894.5C1323 891.462 1326.81 889 1331.5 889 1336.19 889 1340 891.462 1340 894.5 1340 897.538 1336.19 900 1331.5 900 1326.81 900 1323 897.538 1323 894.5Z"/><path fill="#C00000" fill-rule="evenodd" d="M1357 902C1357 898.686 1360.81 896 1365.5 896 1370.19 896 1374 898.686 1374 902 1374 905.314 1370.19 908 1365.5 908 1360.81 908 1357 905.314 1357 902Z"/><path fill="none" fill-rule="evenodd" stroke="#0F8999" stroke-miterlimit="8" stroke-width="3" d="M1150.5 581.5 1780.21 943.924"/></g></svg>