<svg 
    width="530" 
    height="280" 
    xmlns="http://www.w3.org/2000/svg" 
    xmlns:xlink="http://www.w3.org/1999/xlink" 
    overflow="hidden"
    viewBox="0 0 750 410"
    style="backgrou nd:orange;width:0%">
<defs><clipPath id="clip0"><path d="M301-1 1093-1 1093 408 301 408Z" fill-rule="evenodd" clip-rule="evenodd"/></clipPath></defs><g clip-path="url(#clip0)" transform="translate(-301 1)"><path d="M448 28.0001 448 405.5 443 405.5 443 28.0001ZM438 30.5 445.5 15.5 453 30.5Z" fill="#BFBFBF"/><path d="M12.5001-2.5 750-2.49984 750 2.50016 12.5001 2.5ZM15 7.5 0 0 15-7.5Z" fill="#BFBFBF" transform="matrix(-1 -8.74228e-08 -8.74228e-08 1 1054.5 368.5)"/><path d="M649 153C649 149.686 652.134 147 656 147 659.866 147 663 149.686 663 153 663 156.314 659.866 159 656 159 652.134 159 649 156.314 649 153Z" fill="#4472C4" fill-rule="evenodd"/><path d="M687 142C687 138.686 690.358 136 694.5 136 698.642 136 702 138.686 702 142 702 145.314 698.642 148 694.5 148 690.358 148 687 145.314 687 142Z" fill="#4472C4" fill-rule="evenodd"/><path d="M725 167.5C725 164.462 728.134 162 732 162 735.866 162 739 164.462 739 167.5 739 170.538 735.866 173 732 173 728.134 173 725 170.538 725 167.5Z" fill="#4472C4" fill-rule="evenodd"/><path d="M680 162.5C680 159.462 683.358 157 687.5 157 691.642 157 695 159.462 695 162.5 695 165.538 691.642 168 687.5 168 683.358 168 680 165.538 680 162.5Z" fill="#4472C4" fill-rule="evenodd"/><path d="M666 132C666 128.686 669.358 126 673.5 126 677.642 126 681 128.686 681 132 681 135.314 677.642 138 673.5 138 669.358 138 666 135.314 666 132Z" fill="#4472C4" fill-rule="evenodd"/><path d="M700 154C700 150.686 703.134 148 707 148 710.866 148 714 150.686 714 154 714 157.314 710.866 160 707 160 703.134 160 700 157.314 700 154Z" fill="#4472C4" fill-rule="evenodd"/><path d="M701 182C701 178.686 704.134 176 708 176 711.866 176 715 178.686 715 182 715 185.314 711.866 188 708 188 704.134 188 701 185.314 701 182Z" fill="#4472C4" fill-rule="evenodd"/><path d="M683 126C683 122.686 686.134 120 690 120 693.866 120 697 122.686 697 126 697 129.314 693.866 132 690 132 686.134 132 683 129.314 683 126Z" fill="#4472C4" fill-rule="evenodd"/><path d="M624 196C624 192.686 627.134 190 631 190 634.866 190 638 192.686 638 196 638 199.314 634.866 202 631 202 627.134 202 624 199.314 624 196Z" fill="#C00000" fill-rule="evenodd"/><path d="M643 181C643 177.686 646.134 175 650 175 653.866 175 657 177.686 657 181 657 184.314 653.866 187 650 187 646.134 187 643 184.314 643 181Z" fill="#C00000" fill-rule="evenodd"/><path d="M660 195C660 191.686 663.134 189 667 189 670.866 189 674 191.686 674 195 674 198.314 670.866 201 667 201 663.134 201 660 198.314 660 195Z" fill="#C00000" fill-rule="evenodd"/><path d="M0 0 656.292 142.673" stroke="#FFD966" stroke-width="3.125" stroke-miterlimit="8" fill="none" fill-rule="evenodd" transform="matrix(0.847932 0.530104 0.530104 -0.847932 307.17 48.2796)"/><text fill="#FFC000" font-family="Cambria Math,Cambria Math_MSFontService,sans-serif" font-weight="400" font-size="25" transform="matrix(0.92742 0.374022 -0.374022 0.92742 899.385 230)">𝒚<tspan x="21.9146" y="-0.211898">=</tspan><tspan x="48.0176" y="0.0435524">−</tspan><tspan x="66.9778" y="-0.05513">𝟎</tspan><tspan x="81.7495" y="-0.621161">.</tspan><tspan x="89.7525" y="-0.613907">𝟑𝒙</tspan><tspan x="124.718" y="-0.698059">+</tspan><tspan x="148.727" y="-0.676266">𝟗</tspan></text><path d="M693 232C693 228.686 696.134 226 700 226 703.866 226 707 228.686 707 232 707 235.314 703.866 238 700 238 696.134 238 693 235.314 693 232Z" fill="#C00000" fill-rule="evenodd"/><path d="M637 206C637 202.686 640.134 200 644 200 647.866 200 651 202.686 651 206 651 209.314 647.866 212 644 212 640.134 212 637 209.314 637 206Z" fill="#C00000" fill-rule="evenodd"/><path d="M716 220C716 216.686 719.134 214 723 214 726.866 214 730 216.686 730 220 730 223.314 726.866 226 723 226 719.134 226 716 223.314 716 220Z" fill="#C00000" fill-rule="evenodd"/><path d="M671 218C671 214.686 674.134 212 678 212 681.866 212 685 214.686 685 218 685 221.314 681.866 224 678 224 674.134 224 671 221.314 671 218Z" fill="#C00000" fill-rule="evenodd"/><path d="M697 211.5C697 208.462 700.134 206 704 206 707.866 206 711 208.462 711 211.5 711 214.538 707.866 217 704 217 700.134 217 697 214.538 697 211.5Z" fill="#C00000" fill-rule="evenodd"/><path d="M660 218.5C660 215.462 663.134 213 667 213 670.866 213 674 215.462 674 218.5 674 221.538 670.866 224 667 224 663.134 224 660 221.538 660 218.5Z" fill="#C00000" fill-rule="evenodd"/><path d="M687 237.5C687 234.462 690.134 232 694 232 697.866 232 701 234.462 701 237.5 701 240.538 697.866 243 694 243 690.134 243 687 240.538 687 237.5Z" fill="#C00000" fill-rule="evenodd"/><path d="M728 228C728 224.686 731.134 222 735 222 738.866 222 742 224.686 742 228 742 231.314 738.866 234 735 234 731.134 234 728 231.314 728 228Z" fill="#C00000" fill-rule="evenodd"/><path d="M712 218C712 214.686 715.134 212 719 212 722.866 212 726 214.686 726 218 726 221.314 722.866 224 719 224 715.134 224 712 221.314 712 218Z" fill="#C00000" fill-rule="evenodd"/><path d="M690 217.5C690 214.462 693.134 212 697 212 700.866 212 704 214.462 704 217.5 704 220.538 700.866 223 697 223 693.134 223 690 220.538 690 217.5Z" fill="#C00000" fill-rule="evenodd"/><path d="M707 249C707 245.686 710.134 243 714 243 717.866 243 721 245.686 721 249 721 252.314 717.866 255 714 255 710.134 255 707 252.314 707 249Z" fill="#C00000" fill-rule="evenodd"/><path d="M660 218.5C660 215.462 663.134 213 667 213 670.866 213 674 215.462 674 218.5 674 221.538 670.866 224 667 224 663.134 224 660 221.538 660 218.5Z" fill="#C00000" fill-rule="evenodd"/><path d="M672 241C672 237.686 675.134 235 679 235 682.866 235 686 237.686 686 241 686 244.314 682.866 247 679 247 675.134 247 672 244.314 672 241Z" fill="#C00000" fill-rule="evenodd"/><path d="M728 228C728 224.686 731.134 222 735 222 738.866 222 742 224.686 742 228 742 231.314 738.866 234 735 234 731.134 234 728 231.314 728 228Z" fill="#C00000" fill-rule="evenodd"/><path d="M712 218C712 214.686 715.134 212 719 212 722.866 212 726 214.686 726 218 726 221.314 722.866 224 719 224 715.134 224 712 221.314 712 218Z" fill="#C00000" fill-rule="evenodd"/><path d="M690 217.5C690 214.462 693.134 212 697 212 700.866 212 704 214.462 704 217.5 704 220.538 700.866 223 697 223 693.134 223 690 220.538 690 217.5Z" fill="#C00000" fill-rule="evenodd"/><path d="M707 249C707 245.686 710.134 243 714 243 717.866 243 721 245.686 721 249 721 252.314 717.866 255 714 255 710.134 255 707 252.314 707 249Z" fill="#C00000" fill-rule="evenodd"/><path d="M705 255.5C705 252.462 708.134 250 712 250 715.866 250 719 252.462 719 255.5 719 258.538 715.866 261 712 261 708.134 261 705 258.538 705 255.5Z" fill="#C00000" fill-rule="evenodd"/><path d="M723 273.5C723 270.462 726.134 268 730 268 733.866 268 737 270.462 737 273.5 737 276.538 733.866 279 730 279 726.134 279 723 276.538 723 273.5Z" fill="#C00000" fill-rule="evenodd"/><path d="M748 128C748 124.686 751.134 122 755 122 758.866 122 762 124.686 762 128 762 131.314 758.866 134 755 134 751.134 134 748 131.314 748 128Z" fill="#4472C4" fill-rule="evenodd"/><path d="M734 139C734 135.686 737.134 133 741 133 744.866 133 748 135.686 748 139 748 142.314 744.866 145 741 145 737.134 145 734 142.314 734 139Z" fill="#4472C4" fill-rule="evenodd"/><path d="M704 131C704 127.686 707.134 125 711 125 714.866 125 718 127.686 718 131 718 134.314 714.866 137 711 137 707.134 137 704 134.314 704 131Z" fill="#4472C4" fill-rule="evenodd"/><path d="M727 112C727 108.686 730.134 106 734 106 737.866 106 741 108.686 741 112 741 115.314 737.866 118 734 118 730.134 118 727 115.314 727 112Z" fill="#4472C4" fill-rule="evenodd"/><path d="M746 130C746 126.686 749.134 124 753 124 756.866 124 760 126.686 760 130 760 133.314 756.866 136 753 136 749.134 136 746 133.314 746 130Z" fill="#4472C4" fill-rule="evenodd"/><path d="M782 122C782 118.686 785.134 116 789 116 792.866 116 796 118.686 796 122 796 125.314 792.866 128 789 128 785.134 128 782 125.314 782 122Z" fill="#4472C4" fill-rule="evenodd"/><path d="M695 146.5C695 143.462 698.134 141 702 141 705.866 141 709 143.462 709 146.5 709 149.538 705.866 152 702 152 698.134 152 695 149.538 695 146.5Z" fill="#4472C4" fill-rule="evenodd"/><path d="M727 93C727 89.6863 730.134 87 734 87 737.866 87 741 89.6863 741 93 741 96.3137 737.866 99 734 99 730.134 99 727 96.3137 727 93Z" fill="#4472C4" fill-rule="evenodd"/><path d="M722 149C722 145.686 725.134 143 729 143 732.866 143 736 145.686 736 149 736 152.314 732.866 155 729 155 725.134 155 722 152.314 722 149Z" fill="#4472C4" fill-rule="evenodd"/><path d="M740 167C740 163.686 743.134 161 747 161 750.866 161 754 163.686 754 167 754 170.314 750.866 173 747 173 743.134 173 740 170.314 740 167Z" fill="#4472C4" fill-rule="evenodd"/></g></svg>